<svg width="201" height="200" viewBox="0 0 201 200" fill="none" xmlns="http://www.w3.org/2000/svg">
<path d="M130.14 41.1883C131.372 40.3933 132.804 39.9629 134.27 39.9463C134.524 39.9463 134.772 39.9603 135.016 39.9823C134.912 39.5463 134.782 39.0343 134.616 38.4783C134.09 38.2147 133.634 37.8321 133.282 37.3611C132.93 36.8899 132.693 36.3431 132.59 35.7643C132.402 35.7969 132.211 35.8137 132.02 35.8143C131.339 35.8165 130.672 35.6205 130.1 35.2503C129.96 35.2199 129.822 35.1811 129.686 35.1343C129.507 35.1659 129.326 35.1827 129.144 35.1843C128.219 35.1895 127.33 34.8303 126.668 34.1843L124.934 34.7843C124.934 34.7843 129.382 37.0283 130.14 41.1883Z" fill="#41A9E0"/>
<path d="M130.658 171.442C130.657 174.632 129.389 177.691 127.134 179.946C124.879 182.202 121.82 183.47 118.63 183.472H61.37C58.1798 183.471 55.1206 182.203 52.8646 179.947C50.6088 177.691 49.341 174.632 49.34 171.442V46.4919C49.339 44.9113 49.6494 43.3459 50.2534 41.8853C50.8574 40.4249 51.7434 39.0975 52.8606 37.9795C53.9778 36.8613 55.3042 35.9743 56.7644 35.3691C58.2244 34.7637 59.7894 34.4521 61.37 34.4519H69.022C70.399 34.4523 71.7196 34.9989 72.694 35.9719C73.5874 36.8595 74.1228 38.0447 74.198 39.3019C74.2092 39.4061 74.2146 39.5109 74.214 39.6159C74.214 39.7059 74.214 39.7939 74.214 39.8819C74.2512 40.6445 74.4488 41.3907 74.794 42.0719C74.804 42.0879 74.81 42.1099 74.82 42.1259C75.2382 42.9455 75.8756 43.6329 76.6612 44.1121C77.4468 44.5913 78.3498 44.8431 79.27 44.8399H100.584C101.267 44.8409 101.944 44.7069 102.575 44.4457C103.206 44.1845 103.779 43.8013 104.262 43.3179C104.631 42.9493 104.939 42.5247 105.176 42.0599C105.186 42.0513 105.194 42.0403 105.198 42.0279C105.549 41.3615 105.746 40.6245 105.772 39.8719C105.772 39.8059 105.772 39.7459 105.772 39.6719C105.788 36.8099 107.972 34.4459 110.838 34.4459H117.3L124.1 34.3619C124.238 33.0619 124.792 31.6939 125.364 30.4859C125.555 30.0677 125.78 29.6663 126.038 29.2859H61.86C59.788 29.2855 57.7362 29.6935 55.8218 30.4863C53.9074 31.2791 52.1678 32.4413 50.7026 33.9065C49.2376 35.3717 48.0754 37.1111 47.2826 39.0255C46.4896 40.9399 46.0818 42.9917 46.082 45.0639V174.222C46.0814 176.294 46.4892 178.346 47.282 180.26C48.0746 182.175 49.2368 183.914 50.7022 185.38C52.1674 186.845 53.9068 188.007 55.8214 188.8C57.736 189.593 59.7878 190 61.86 190H119.88C121.952 190 124.004 189.592 125.919 188.799C127.833 188.007 129.573 186.844 131.038 185.379C132.503 183.914 133.666 182.175 134.459 180.26C135.252 178.346 135.66 176.294 135.66 174.222V165.328L130.66 168.178L130.658 171.442Z" fill="#41A9E0"/>
<path d="M132.402 72.4344C131.802 71.8164 131.222 72.7764 130.658 72.1204V119.646C131.011 118.349 131.446 117.075 131.96 115.832C132.076 115.56 132.192 115.286 132.312 115.016C132.566 114.458 132.832 113.908 133.112 113.362C133.188 113.206 133.266 113.058 133.348 112.91C133.43 112.762 133.53 112.572 133.624 112.412C133.784 112.12 133.956 111.828 134.132 111.542C134.252 111.326 134.386 111.118 134.518 110.908C134.616 110.742 134.718 110.582 134.826 110.428C134.942 110.24 135.068 110.054 135.19 109.872C135.34 109.646 135.498 109.42 135.654 109.198V75.3444C135.054 74.8764 134.454 74.3844 133.89 73.8784C133.376 73.4144 132.88 72.9344 132.402 72.4344Z" fill="#41A9E0"/>
<path d="M135.182 39.3999C134.49 40.2719 133.632 39.5399 132.516 39.5399C131.5 39.5399 130.916 41.1839 130.272 40.5219C130.308 40.6099 129.946 41.9219 129.976 42.0099C130.074 42.2739 130.162 42.5499 130.24 42.8259V42.8359C130.34 43.1899 130.416 43.5419 130.482 43.9059C130.498 43.9879 130.516 44.0779 130.526 44.1659C130.554 44.3519 130.582 44.5459 130.598 44.7379C130.62 44.9159 130.633 45.0947 130.636 45.2739C130.654 45.4739 130.658 45.6919 130.658 45.9079V59.9079C130.822 60.0443 130.958 60.2105 131.058 60.3979C131.858 61.8579 132.624 60.7639 133.48 62.1979C133.936 62.9379 134.88 63.5159 135.364 62.9799C135.542 62.7799 135.652 61.9239 135.652 61.6039V44.6879C135.652 43.8847 135.593 43.0825 135.474 42.2879C135.438 41.9859 135.246 39.7059 135.182 39.3999Z" fill="#41A9E0"/>
<path d="M74.2202 39.3423C74.5824 40.0161 74.781 40.7655 74.8002 41.5303C74.4552 40.8499 74.2576 40.1043 74.2202 39.3423Z" fill="#41A9E0"/>
<path d="M105.772 39.3296C105.746 40.0824 105.549 40.8194 105.198 41.4856C105.237 40.7348 105.432 40.0004 105.772 39.3296Z" fill="#41A9E0"/>
<path d="M182.338 100.352C163.23 106.318 153.352 91.7058 153.352 91.7058C154.074 90.6358 152.982 88.6238 152.982 88.6238L152.318 85.2238C143.876 84.8098 136.238 76.5818 136.238 76.5818C147.16 74.6458 142.452 68.1038 142.452 68.1038L149.982 73.9998L150.798 73.9278C150.898 63.7278 157.32 58.9638 159.332 57.3498C161.344 55.7358 161.688 57.3378 161.688 57.3378C161.688 57.3378 160.804 60.6018 164.576 61.0538C168.348 61.5058 171.11 57.9718 171.11 57.9718C172.404 55.0718 173.894 56.8698 173.894 56.8698C180.36 60.3098 181.53 68.8218 182.918 74.7698C183.876 78.8458 185.7 87.6298 186.918 91.9098C187.344 93.391 187.259 94.9728 186.676 96.3998C186.288 97.3366 185.697 98.1762 184.948 98.8592C184.198 99.5422 183.307 100.052 182.338 100.352Z" fill="#543088"/>
<path d="M182.338 100.352C163.23 106.318 153.352 91.7058 153.352 91.7058C154.074 90.6358 152.982 88.6238 152.982 88.6238L152.318 85.2238C143.876 84.8098 136.238 76.5818 136.238 76.5818C143.474 72.9638 142.452 68.1038 142.452 68.1038L149.982 73.9998L150.798 73.9278C150.898 63.7278 157.32 58.9638 159.332 57.3498C161.344 55.7358 161.688 57.3378 161.688 57.3378C161.688 57.3378 160.804 60.6018 164.576 61.0538C168.348 61.5058 171.11 57.9718 171.11 57.9718C172.404 55.0718 173.894 56.8698 173.894 56.8698C180.36 60.3098 181.53 68.8218 182.918 74.7698C183.876 78.8458 185.7 87.6298 186.918 91.9098C187.344 93.391 187.259 94.9728 186.676 96.3998C186.288 97.3366 185.697 98.1762 184.948 98.8592C184.198 99.5422 183.307 100.052 182.338 100.352Z" fill="#543088"/>
<path d="M159.816 48.8445C161.01 48.8445 161.978 47.8765 161.978 46.6825C161.978 45.4883 161.01 44.5205 159.816 44.5205C158.622 44.5205 157.654 45.4883 157.654 46.6825C157.654 47.8765 158.622 48.8445 159.816 48.8445Z" fill="#41A9E0" fill-opacity="0.1"/>
<path d="M162.762 51.0359C162.574 52.4199 161.4 53.3239 160.176 53.1239" stroke="black" stroke-width="2" stroke-miterlimit="10"/>
<path d="M148.27 38.9799C148.476 39.9207 148.971 40.7731 149.687 41.4171C150.403 42.0613 151.303 42.4645 152.26 42.5699C152.348 42.1853 152.528 41.8277 152.784 41.5279C153.876 40.2859 154.29 42.6619 157.746 41.0319C162.546 38.7659 164.312 40.1539 164.312 40.1539C164.468 40.2759 164.428 41.3679 164.446 41.5539C164.55 42.6839 164.646 43.8099 164.764 44.9399C164.832 45.6279 164.898 46.3119 164.964 46.9959C165.031 46.8819 165.104 46.7717 165.184 46.6659C165.648 45.1439 166.938 43.3619 168.584 44.1739C168.919 44.3443 169.208 44.5917 169.428 44.8959C170.502 46.3679 169.628 47.7519 168.462 48.7659C168.166 49.0819 167.837 49.3649 167.48 49.6099C167.662 50.0099 168.408 51.5819 168.408 51.5879C168.484 51.7479 171.258 48.7319 171.466 48.4019C171.785 47.5885 171.964 46.7271 171.996 45.8539C172.112 42.2659 170.734 38.0539 167.866 35.9419C167.156 35.4179 166.908 34.9219 166.866 34.2279C166.864 34.1905 166.85 34.1547 166.827 34.1251C166.804 34.0955 166.773 34.0735 166.737 34.0621C166.702 34.0507 166.663 34.0503 166.627 34.0609C166.591 34.0715 166.56 34.0929 166.536 34.1219C165.604 35.1539 163.35 35.0039 163.35 35.0039C155.55 32.8879 152.858 36.3159 151.27 36.9019C150.623 37.1329 149.917 37.1329 149.27 36.9019C149.228 37.1173 149.127 37.3169 148.98 37.4791C148.832 37.6413 148.642 37.7599 148.432 37.8219L148.466 38.1859C148.495 38.4653 148.425 38.7459 148.27 38.9799Z" fill="#41A9E0"/>
<path d="M165.006 53.6778C164.492 54.0778 163.056 55.2298 162.482 55.5718C162.061 55.8262 161.619 56.0436 161.16 56.2218C157.708 57.5238 154.472 54.5638 153.286 51.6018C152.31 49.1598 152.086 46.4318 152.156 43.8238C152.168 43.5538 152.178 43.2778 152.2 43.0018C152.198 42.9852 152.198 42.9682 152.2 42.9518C152.211 42.826 152.23 42.701 152.256 42.5778C152.343 42.1928 152.523 41.835 152.78 41.5358C153.87 40.2958 154.284 42.6718 157.74 41.0398C162.54 38.7738 164.308 40.1618 164.308 40.1618C164.462 40.2838 164.422 41.3758 164.44 41.5618C164.544 42.6938 164.64 43.8178 164.76 44.9478C164.826 45.6378 164.892 46.3198 164.96 47.0038C164.976 47.1918 164.994 47.3738 165.01 47.5598C165.035 47.2572 165.092 46.958 165.18 46.6678C165.644 45.1458 166.934 43.3658 168.58 44.1758C168.915 44.3462 169.204 44.5936 169.424 44.8978C170.498 46.3698 169.624 47.7538 168.458 48.7678C168.162 49.0216 167.85 49.2554 167.522 49.4678L167.434 49.5238L167.478 49.6118C167.66 50.0118 168.404 51.5858 168.404 51.5898C168.48 51.7498 171.254 48.7358 171.464 48.4038C172.187 47.2886 172.64 46.0204 172.786 44.6998C172.804 44.5338 172.814 44.3738 172.82 44.2078C172.936 40.6198 171.558 36.4078 168.69 34.2958C167.978 33.7718 167.73 33.2758 167.69 32.5818C167.688 32.5444 167.675 32.5086 167.652 32.479C167.629 32.4494 167.597 32.4274 167.562 32.416C167.526 32.4044 167.488 32.404 167.452 32.4148C167.416 32.4254 167.384 32.4466 167.36 32.4758C166.428 33.5078 164.172 33.3578 164.172 33.3578C156.382 31.2418 153.68 34.6698 152.094 35.2558C150.508 35.8418 149.116 34.7598 149.116 34.7598L149.282 36.5338C149.293 36.6554 149.286 36.7782 149.26 36.8978C149.218 37.113 149.118 37.3126 148.97 37.4748C148.822 37.637 148.633 37.7556 148.422 37.8178C148.343 37.8468 148.259 37.8636 148.174 37.8678H148.112C148.128 38.2372 148.176 38.6048 148.256 38.9658C148.463 39.908 148.96 40.7614 149.678 41.4056C150.395 42.05 151.297 42.4522 152.256 42.5558" stroke="black" stroke-width="2" stroke-miterlimit="10"/>
<path d="M153.354 48.6319C154.548 48.6319 155.516 47.6639 155.516 46.4699C155.516 45.2759 154.548 44.3079 153.354 44.3079C152.16 44.3079 151.192 45.2759 151.192 46.4699C151.192 47.6639 152.16 48.6319 153.354 48.6319Z" fill="#41A9E0" fill-opacity="0.1"/>
<path d="M160.718 47.4901C160.72 47.6659 160.669 47.8383 160.572 47.9851C160.475 48.1319 160.337 48.2467 160.174 48.3147C160.012 48.3829 159.834 48.4013 159.661 48.3677C159.488 48.3341 159.329 48.2501 159.205 48.1261C159.08 48.0021 158.995 47.8439 158.96 47.6715C158.925 47.4991 158.942 47.3203 159.009 47.1577C159.076 46.9951 159.19 46.8561 159.336 46.7581C159.483 46.6603 159.655 46.6081 159.83 46.6081C159.917 46.6063 160.003 46.6191 160.084 46.6461C160.042 46.6867 160.008 46.7353 159.984 46.7893C159.96 46.8431 159.947 46.9013 159.946 46.9601C159.947 47.0735 159.993 47.1817 160.074 47.2615C160.154 47.3413 160.263 47.3861 160.376 47.3861C160.434 47.3859 160.49 47.3739 160.542 47.3507C160.595 47.3277 160.642 47.2941 160.68 47.2521C160.706 47.3287 160.719 47.4091 160.718 47.4901Z" fill="black"/>
<path d="M154.432 47.2C154.432 47.3748 154.379 47.5454 154.282 47.6904C154.185 47.8356 154.047 47.9486 153.885 48.0152C153.724 48.0818 153.546 48.0992 153.375 48.065C153.204 48.0308 153.046 47.9466 152.923 47.8232C152.799 47.6996 152.715 47.5424 152.681 47.371C152.647 47.1998 152.664 47.0222 152.731 46.8608C152.798 46.6992 152.911 46.5612 153.056 46.4638C153.201 46.3666 153.371 46.3144 153.546 46.314C153.661 46.3134 153.776 46.3358 153.882 46.38C153.822 46.4202 153.772 46.4742 153.737 46.5376C153.702 46.6008 153.683 46.6718 153.682 46.744C153.682 46.8002 153.694 46.8556 153.715 46.9074C153.737 46.9592 153.769 47.006 153.809 47.0454C153.849 47.0848 153.896 47.116 153.948 47.137C154 47.158 154.056 47.1686 154.112 47.168C154.167 47.1688 154.222 47.1584 154.273 47.1374C154.325 47.1164 154.371 47.0854 154.41 47.046C154.423 47.0964 154.431 47.148 154.432 47.2Z" fill="black"/>
<path d="M156.626 46.6477C156.626 46.6477 156.072 49.1097 156.006 49.3577C155.806 50.1577 157.394 49.9097 157.394 49.9097" stroke="black" stroke-width="2" stroke-miterlimit="10"/>
<path d="M158.658 42.0001C158.658 42.0001 161.268 41.0221 162.72 42.9821" stroke="black" stroke-width="2" stroke-miterlimit="10"/>
<path d="M149.982 43.9582C149.982 43.9582 151.326 41.5162 153.702 42.0582" stroke="black" stroke-width="2" stroke-miterlimit="10"/>
<path d="M159.816 49.2362C161.227 49.2362 162.37 48.0926 162.37 46.6822C162.37 45.2716 161.227 44.1282 159.816 44.1282C158.406 44.1282 157.262 45.2716 157.262 46.6822C157.262 48.0926 158.406 49.2362 159.816 49.2362Z" stroke="black" stroke-width="2" stroke-miterlimit="10"/>
<path d="M153.354 49.0235C154.765 49.0235 155.908 47.8801 155.908 46.4695C155.908 45.0589 154.765 43.9155 153.354 43.9155C151.944 43.9155 150.8 45.0589 150.8 46.4695C150.8 47.8801 151.944 49.0235 153.354 49.0235Z" stroke="black" stroke-width="2" stroke-miterlimit="10"/>
<path d="M157.262 46.598L155.906 46.554" stroke="black" stroke-width="2" stroke-miterlimit="10"/>
<path d="M159.178 138.098L156.466 154.71L153.528 154.27C152.892 154.17 152.321 153.824 151.938 153.306C151.555 152.788 151.391 152.14 151.482 151.502L151.7 149.72L153.7 135.06C156.956 136.968 159.178 138.098 159.178 138.098Z" fill="#41A9E0"/>
<path d="M145.76 159.568L135.66 165.368L130.66 168.246L129.128 169.128C129.131 169.099 129.131 169.069 129.128 169.04L127.928 169.724L126.384 166.758C126.024 166.073 125.947 165.274 126.171 164.533C126.395 163.792 126.902 163.17 127.582 162.8L145.082 153.218L145.098 153.378L145.76 159.568Z" fill="#41A9E0"/>
<path d="M130.99 118.516C130.88 118.368 130.77 118.224 130.658 118.098C130.024 117.336 129.402 116.824 128.982 115.958C128.647 115.253 128.551 114.458 128.707 113.693C128.863 112.929 129.264 112.235 129.848 111.718C130.09 111.51 130.359 111.335 130.648 111.2" stroke="black" stroke-width="2" stroke-miterlimit="10"/>
<path d="M152.288 145.162L151.7 149.716L151.474 151.498C151.384 152.136 151.547 152.784 151.93 153.302C152.313 153.82 152.884 154.166 153.52 154.266L156.458 154.706L159.17 138.094C159.17 138.094 156.948 136.964 153.696 135.052C151.37 133.684 148.496 131.914 145.548 129.874" stroke="black" stroke-width="2" stroke-miterlimit="10"/>
<path d="M151.788 149.096C151.788 149.096 148.616 147.386 144.588 144.924" stroke="black" stroke-width="2" stroke-miterlimit="10"/>
<g opacity="0.68">
<path opacity="0.68" d="M130.659 72.3738V119.646C129.783 122.882 129.365 126.246 129.143 129.63V72.4938C129.635 73.1338 130.141 71.7618 130.659 72.3738Z" fill="#41A9E0" fill-opacity="0.1"/>
<path opacity="0.68" d="M130.658 168.178V170.896C130.657 174.086 129.39 177.145 127.134 179.401C124.879 181.657 121.82 182.925 118.63 182.926H61.3703C58.1801 182.925 55.1209 181.657 52.8649 179.402C50.6091 177.146 49.3413 174.086 49.3403 170.896V45.9462C49.3393 44.3656 49.6497 42.8004 50.2537 41.3398C50.8577 39.8792 51.7437 38.552 52.8609 37.4338C53.9781 36.3159 55.3045 35.4288 56.7647 34.8234C58.2247 34.2182 59.7897 33.9066 61.3703 33.9062H69.0223C69.3735 33.9072 69.7237 33.942 70.0683 34.0102C70.2987 34.0586 70.5259 34.1214 70.7483 34.1982C70.8463 34.2362 70.9483 34.2742 71.0403 34.3142C71.1963 34.379 71.3485 34.4524 71.4963 34.5342C71.6741 34.6302 71.8457 34.737 72.0103 34.8542C72.1203 34.9302 72.2243 35.0082 72.3243 35.0902C72.4243 35.1722 72.5783 35.3122 72.6943 35.4262L73.4943 36.4582C73.5677 36.5812 73.6345 36.7082 73.6943 36.8382L73.9863 37.5762C74.0263 37.7102 74.0643 37.8422 74.0923 37.9762L74.1643 38.3942C74.1743 38.4502 74.1803 38.5102 74.1863 38.5662C74.1883 38.5936 74.1883 38.621 74.1863 38.6482C74.1983 38.7802 74.2083 38.9082 74.2083 39.0482V39.1022C74.2083 39.1862 74.2083 39.2622 74.2083 39.3402C74.2031 39.3276 74.1957 39.3162 74.1863 39.3062C73.9607 38.8784 73.6707 38.4878 73.3263 38.1482C72.3893 37.2104 71.1181 36.683 69.7923 36.6822H62.4343C60.9123 36.683 59.4053 36.9838 57.9995 37.5672C56.5937 38.1508 55.3167 39.0056 54.2413 40.083C53.1661 41.1602 52.3137 42.4388 51.7329 43.8458C51.1521 45.2526 50.8541 46.7602 50.8563 48.2822V168.57C50.8563 171.641 52.0759 174.587 54.2471 176.759C56.4181 178.932 59.3631 180.153 62.4343 180.154H117.566C120.539 180.154 123.398 179.009 125.55 176.959C127.702 174.908 128.983 172.108 129.126 169.138C129.129 169.109 129.129 169.08 129.126 169.05L130.658 168.178Z" fill="#41A9E0" fill-opacity="0.1"/>
<path opacity="0.68" d="M105.198 41.4861C105.198 41.5621 105.198 41.6341 105.198 41.7121C105.191 43.0333 104.661 44.2979 103.724 45.2295C102.787 46.1611 101.519 46.6841 100.198 46.6841H79.6722C76.9062 46.6841 74.8162 44.4241 74.8042 41.6561C74.8042 41.6121 74.8042 41.5741 74.8042 41.5301C75.2172 42.3635 75.8554 43.0647 76.6466 43.5539C77.4376 44.0431 78.35 44.3009 79.2802 44.2981H100.584C101.267 44.2991 101.944 44.1651 102.575 43.9039C103.206 43.6427 103.78 43.2595 104.262 42.7761C104.64 42.3977 104.956 41.9623 105.198 41.4861Z" fill="#41A9E0" fill-opacity="0.1"/>
</g>
<path d="M135.66 92.7857C142.774 91.3397 149.68 89.8458 153.352 89.8958" stroke="black" stroke-width="2" stroke-miterlimit="10"/>
<path d="M128.934 134C118.15 125.31 108.364 114.164 112.57 104.454C115.1 98.5997 122.588 95.4097 130.658 93.6797" stroke="black" stroke-width="2" stroke-miterlimit="10"/>
<path d="M152.37 85.6118C152.546 86.2458 153.352 89.8978 153.55 90.5578C154.282 92.9398 144.966 99.2418 143.388 100.658C140.556 103.184 137.876 106.028 135.66 109.198C134.187 111.266 132.946 113.491 131.96 115.832C131.446 117.074 131.011 118.348 130.658 119.646C129.782 122.882 129.364 126.246 129.142 129.63C128.966 132.194 128.9 134.768 128.828 137.282C128.68 142.106 128.756 146.958 129.072 151.766C129.094 152.07 129.116 152.366 129.142 152.67C129.391 155.525 129.875 158.355 130.588 161.132V161.15" stroke="black" stroke-width="2" stroke-miterlimit="10"/>
<path d="M150.992 74.3439C151.294 64.9779 155.546 59.9779 159.332 57.3439C160.069 56.8391 160.859 56.4171 161.688 56.0859" stroke="black" stroke-width="2" stroke-miterlimit="10"/>
<path d="M172.08 56.0242C172.256 56.0902 172.426 56.1622 172.598 56.2342L172.786 56.3162C173.201 56.4972 173.606 56.7016 173.998 56.9282C175.351 57.6996 176.533 58.7388 177.472 59.9822C177.508 60.0174 177.538 60.0588 177.56 60.1042C177.724 60.3362 177.884 60.5722 178.04 60.8162C179.424 63.0162 180.714 65.9862 181.7 69.4162C182.208 71.176 182.615 72.9636 182.918 74.7702" stroke="black" stroke-width="2" stroke-miterlimit="10"/>
<path d="M182.918 74.7681C183.876 78.8441 185.702 87.6301 186.918 91.9081C187.345 93.3901 187.259 94.9725 186.676 96.4001C186.287 97.3369 185.697 98.1765 184.947 98.8595C184.198 99.5427 183.307 100.052 182.338 100.352L178.72 101.228C178.341 101.321 178.007 101.543 177.774 101.856C176.953 102.941 176.042 103.955 175.052 104.888C159.4 119.624 140.566 104.37 145.082 153.222L145.098 153.382C145.281 155.338 145.501 157.4 145.76 159.568L135.66 165.328L130.66 168.178L129.134 169.05L127.934 169.734L126.39 166.768C126.026 166.083 125.947 165.282 126.17 164.539C126.393 163.796 126.901 163.171 127.582 162.8L129.142 161.934L130.588 161.134L130.658 161.096L135.658 158.328L136.722 157.728" stroke="black" stroke-width="2" stroke-miterlimit="10"/>
<path d="M135.662 165.328V173.674C135.661 177.86 133.998 181.874 131.038 184.834C128.078 187.794 124.064 189.456 119.878 189.456H60.1199C58.0473 189.456 55.9947 189.048 54.0797 188.255C52.1647 187.462 50.4247 186.3 48.9591 184.834C47.4933 183.369 46.3307 181.629 45.5375 179.714C44.7441 177.799 44.3359 175.747 44.3359 173.674V43.6243C44.3359 41.5515 44.7441 39.4993 45.5375 37.5843C46.3307 35.6695 47.4933 33.9295 48.9591 32.4641C50.4247 30.9985 52.1647 29.8361 54.0797 29.0431C55.9947 28.2501 58.0473 27.8421 60.1199 27.8423H127.138" stroke="black" stroke-width="2" stroke-miterlimit="10"/>
<path d="M135.66 43.6238C135.662 42.5408 135.552 41.4606 135.334 40.3998C135.334 40.3998 135.042 38.6338 134.762 38.1438" stroke="black" stroke-width="2" stroke-miterlimit="10"/>
<path d="M135.66 109.192V92.7903V75.6843" stroke="black" stroke-width="2" stroke-miterlimit="10"/>
<path d="M135.66 43.6257V52.8797V63.8697" stroke="black" stroke-width="2" stroke-miterlimit="10"/>
<path d="M151.7 68.7999V68.7859C149.991 68.0197 148.38 67.0521 146.9 65.9039C140.724 61.1527 136.674 54.1555 135.63 46.4339C135.604 46.2433 135.58 46.0513 135.558 45.8579" stroke="black" stroke-width="2" stroke-miterlimit="10"/>
<path d="M130.662 115.046V72.3579" stroke="black" stroke-width="2" stroke-miterlimit="10"/>
<path d="M130.662 60.3643V45.9483C130.662 43.3223 130.432 40.2103 129.018 38.2283C129.018 38.2283 125.588 33.9023 122.102 33.9023H110.978" stroke="black" stroke-width="2" stroke-miterlimit="10"/>
<path d="M115.46 33.9023H110.978C109.599 33.9023 108.276 34.4501 107.301 35.4253C106.326 36.4005 105.778 37.7231 105.778 39.1023C105.778 40.4813 105.23 41.8041 104.255 42.7791C103.28 43.7543 101.957 44.3023 100.578 44.3023H79.4139C78.0347 44.3023 76.7121 43.7543 75.7369 42.7791C74.7617 41.8041 74.2139 40.4813 74.2139 39.1023C74.2139 37.7231 73.6661 36.4005 72.6909 35.4253C71.7157 34.4501 70.3931 33.9023 69.0139 33.9023H61.3699C58.1769 33.9043 55.1153 35.1745 52.8587 37.4335C50.6019 39.6925 49.3349 42.7553 49.3359 45.9483V170.896C49.3375 174.087 50.6059 177.147 52.8625 179.403C55.1189 181.659 58.1789 182.927 61.3699 182.928H118.628C121.819 182.927 124.879 181.659 127.135 179.403C129.392 177.147 130.66 174.087 130.662 170.896V168.18" stroke="black" stroke-width="2" stroke-miterlimit="10"/>
<path d="M134.43 28.5845C136.608 29.5165 138.642 32.5985 139.63 34.6605C141.462 38.4865 143.06 41.4145 145.23 45.0605C147.088 48.1865 148.792 51.5725 151.714 53.8605C153.261 55.0889 155.144 55.8191 157.114 55.9545" stroke="black" stroke-width="2" stroke-miterlimit="10"/>
<path d="M75.3002 33.9057C75.2984 38.2249 74.1265 42.4629 71.9093 46.1697C69.6921 49.8763 66.5121 52.9131 62.7075 54.9575C58.9027 57.0019 54.6153 57.9777 50.3006 57.7807C45.9858 57.5839 41.8049 56.2219 38.2021 53.8397C33.5331 49.9105 30.5435 44.3445 29.8461 38.2821C29.1487 32.2197 30.7961 26.1203 34.4509 21.2335C38.1057 16.3467 43.4912 13.0427 49.5034 11.9986C55.5158 10.9545 61.6997 12.2493 66.7882 15.6176C69.4571 17.8588 71.6024 20.6577 73.073 23.8173C74.5436 26.9769 75.3037 30.4205 75.3002 33.9057Z" fill="#41A9E0"/>
<path d="M72.7002 34.0003C72.6992 37.8259 71.6618 41.5797 69.6984 44.8631C67.735 48.1465 64.9186 50.8365 61.549 52.6475C58.1792 54.4587 54.3816 55.3229 50.56 55.1487C46.7384 54.9745 43.0352 53.7683 39.8442 51.6583C35.7194 48.1753 33.0808 43.2485 32.4676 37.8847C31.8546 32.5211 33.3134 27.1259 36.546 22.8019C39.7784 18.4781 44.5404 15.5522 49.8584 14.6226C55.1762 13.6929 60.6484 14.8296 65.1562 17.8003C67.5208 19.7855 69.4216 22.2647 70.725 25.0635C72.0282 27.8625 72.7026 30.9129 72.7002 34.0003Z" fill="#41A9E0"/>
<path d="M98.434 86.0203L81.01 88.6463C80.5874 88.7545 80.1456 88.7647 79.7184 88.6759C79.2912 88.5873 78.89 88.4023 78.5454 88.1347C78.2006 87.8673 77.9218 87.5245 77.7298 87.1327C77.5378 86.7409 77.438 86.3105 77.438 85.8743L79.26 70.9023H105.246C105.458 70.9023 105.662 70.9865 105.812 71.1365C105.962 71.2865 106.046 71.4901 106.046 71.7023L103.56 81.0823C103.207 82.2789 102.548 83.3633 101.65 84.2289C100.751 85.0947 99.643 85.7119 98.434 86.0203Z" fill="#41A9E0" fill-opacity="0.1"/>
<path d="M83.5603 97.6339C85.2005 97.6339 86.5303 96.304 86.5303 94.6638C86.5303 93.0234 85.2005 91.6938 83.5603 91.6938C81.9201 91.6938 80.5903 93.0234 80.5903 94.6638C80.5903 96.304 81.9201 97.6339 83.5603 97.6339Z" fill="#41A9E0" fill-opacity="0.1"/>
<path d="M94.8362 97.6339C96.4764 97.6339 97.8062 96.304 97.8062 94.6638C97.8062 93.0234 96.4764 91.6938 94.8362 91.6938C93.196 91.6938 91.8662 93.0234 91.8662 94.6638C91.8662 96.304 93.196 97.6339 94.8362 97.6339Z" fill="#41A9E0" fill-opacity="0.1"/>
<path d="M81.6182 74.0397L78.9122 73.6777L79.6722 67.9857C79.7204 67.6315 79.691 67.2707 79.5862 66.9289C79.4812 66.5869 79.3032 66.2719 79.0644 66.0055C78.8258 65.7393 78.532 65.5281 78.2034 65.3865C77.875 65.2449 77.5198 65.1765 77.1622 65.1857L74.8302 65.2457C74.4682 65.2549 74.1174 65.1199 73.855 64.8705C73.5924 64.6211 73.4396 64.2777 73.4302 63.9157C73.4254 63.7367 73.456 63.5583 73.5202 63.3911C73.5842 63.2237 73.6808 63.0707 73.8042 62.9407C73.9274 62.8107 74.0752 62.7061 74.2388 62.6333C74.4026 62.5603 74.579 62.5205 74.7582 62.5157L77.0922 62.4557C77.9068 62.4301 78.7158 62.5979 79.4528 62.9455C80.19 63.2933 80.834 63.8109 81.3322 64.4557C81.7638 65.0315 82.0764 65.6873 82.2518 66.3851C82.4274 67.0827 82.4622 67.8085 82.3542 68.5197L81.6182 74.0397Z" fill="#41A9E0" fill-opacity="0.1"/>
<path d="M111.262 106.334H68.7383C66.3789 106.334 64.4663 108.247 64.4663 110.606V121.632C64.4663 123.992 66.3789 125.904 68.7383 125.904H111.262C113.622 125.904 115.534 123.992 115.534 121.632V110.606C115.534 108.247 113.622 106.334 111.262 106.334Z" fill="#41A9E0" fill-opacity="0.1"/>
<path d="M48.5464 137.526C54.0664 135.926 58.8024 129.884 52.1744 124.884C51.9324 124.708 51.7064 124.548 51.4904 124.42C51.8538 124.064 52.2998 123.804 52.7884 123.663C53.277 123.521 53.793 123.503 54.2904 123.61C54.3064 123.61 54.3284 123.61 54.3444 123.622C54.3788 123.626 54.4126 123.635 54.4444 123.648C55.1664 123.814 55.9724 124.206 56.8704 124.884C63.4884 129.884 54.3364 136.374 48.5464 137.526Z" fill="#41A9E0"/>
<path d="M75.8384 110.958C76.9054 110.798 77.9834 110.721 79.0624 110.73C80.5164 110.73 81.3944 110.836 82.1824 111.23C82.5936 111.407 82.9436 111.7 83.1888 112.075C83.4338 112.449 83.5632 112.887 83.5604 113.334C83.5604 114.182 83.0904 115.016 81.8944 115.47V115.5C83.1364 115.848 83.8944 116.772 83.8944 117.984C83.895 118.423 83.7908 118.855 83.5904 119.244C83.39 119.634 83.0992 119.97 82.7424 120.224C81.9844 120.8 80.7144 121.134 78.5424 121.134C77.6408 121.153 76.7394 121.092 75.8484 120.952L75.8384 110.958ZM78.5484 114.728H79.1004C80.2664 114.728 80.8284 114.328 80.8284 113.668C80.8284 113.068 80.3724 112.7 79.4504 112.7C79.1512 112.695 78.8522 112.715 78.5564 112.76L78.5484 114.728ZM78.5484 119.106C78.8102 119.133 79.0734 119.142 79.3364 119.134C80.2444 119.134 81.0164 118.77 81.0164 117.864C81.0164 117 80.2284 116.664 79.1984 116.664H78.5484V119.106Z" fill="white"/>
<path d="M88.1221 110.8V116.6C88.1221 118.144 88.6541 119 89.7221 119C90.7901 119 91.3421 118.212 91.3421 116.6V110.8H94.1001V116.44C94.1001 119.59 92.5241 121.178 89.6621 121.178C86.8761 121.178 85.3921 119.65 85.3921 116.378V110.8H88.1221Z" fill="white"/>
<path d="M98.336 121.012V116.894L95.126 110.8H98.26L99.122 113.102C99.396 113.814 99.592 114.328 99.82 114.994H99.85C100.05 114.374 100.25 113.794 100.502 113.102L101.334 110.8H104.422L101.076 116.782V121.006L98.336 121.012Z" fill="white"/>
<path d="M54.3 123.61C53.8028 123.503 53.2866 123.521 52.798 123.662C52.3094 123.804 51.8634 124.064 51.5 124.42C48.132 127.448 47.978 137.526 47.978 137.526H47.084C47.084 137.526 44.924 125.794 48.126 123.83H48.138C48.192 123.808 48.42 123.708 48.738 123.598C48.738 123.598 48.754 123.598 48.76 123.598C49.1746 123.455 49.6028 123.355 50.038 123.3C51.466 123.172 52.9056 123.276 54.3 123.61Z" fill="#41A9E0" fill-opacity="0.1"/>
<path d="M75.3002 33.9064C75.2996 39.3488 73.442 44.6282 70.0342 48.8716C66.6262 53.115 61.8724 56.0686 56.5584 57.244C51.2444 58.4192 45.6884 57.746 40.8088 55.3356C35.9294 52.925 32.0186 48.9216 29.7228 43.987C27.4272 39.0524 26.884 33.4822 28.1834 28.197C29.4828 22.912 32.5468 18.2286 36.8688 14.921C41.1908 11.6134 46.5122 9.87967 51.9532 10.0065C57.3942 10.1333 62.629 12.113 66.7922 15.6184C69.4576 17.8623 71.6002 20.6618 73.07 23.8208C74.5396 26.98 75.3008 30.4222 75.3002 33.9064Z" stroke="black" stroke-width="2" stroke-miterlimit="10"/>
<path d="M42.7462 157.892V168.292H19.3462C19.0713 168.292 18.7992 168.238 18.5456 168.132C18.2921 168.025 18.0623 167.87 17.8697 167.674C17.6771 167.477 17.5256 167.245 17.424 166.989C17.3225 166.734 17.2729 166.461 17.2782 166.186L17.3942 159.928C17.4042 159.386 17.6265 158.87 18.0133 158.491C18.4001 158.112 18.9205 157.899 19.4622 157.9L42.7462 157.892Z" fill="#41A9E0" fill-opacity="0.1"/>
<path d="M79.8681 159.958V166.216C79.8681 166.765 79.6503 167.291 79.2623 167.678C78.8745 168.066 78.3485 168.284 77.8001 168.284H42.7461V157.884H77.8001C78.0721 157.884 78.3415 157.938 78.5929 158.042C78.8441 158.146 79.0725 158.299 79.2645 158.492C79.4567 158.685 79.6089 158.913 79.7125 159.165C79.8159 159.417 79.8689 159.686 79.8681 159.958Z" fill="#41A9E0"/>
<path d="M46.2704 168.284V189.454H23.8484C22.8928 189.452 21.9766 189.073 21.2994 188.399C20.6222 187.724 20.2388 186.81 20.2324 185.854V168.294L46.2704 168.284Z" fill="#41A9E0" fill-opacity="0.1"/>
<path d="M75.842 168.284V185.844C75.8356 186.8 75.4522 187.714 74.775 188.389C74.0978 189.063 73.1816 189.442 72.226 189.444H46.27V168.284H75.842Z" fill="#41A9E0"/>
<path d="M46.0763 25.84C48.7343 25.84 50.1743 27.768 50.1743 30.116C50.1743 33.106 48.1363 34.716 45.9443 34.716C43.5943 34.716 41.8003 32.988 41.8003 30.374C41.8003 27.916 43.3743 25.832 46.0543 25.832L46.0763 25.84ZM45.9883 27.968C45.0803 27.968 44.7243 28.986 44.7243 30.294C44.7243 31.666 45.1463 32.598 46.0323 32.598C46.8323 32.598 47.2503 31.822 47.2503 30.294C47.2503 28.964 46.9183 27.968 46.0103 27.968H45.9883ZM46.2543 40.728L54.4543 25.886H56.5003L48.3243 40.728H46.2543ZM56.8883 31.822C59.5463 31.822 60.9863 33.748 60.9863 36.098C60.9863 39.088 58.9483 40.698 56.7543 40.698C54.4063 40.698 52.6123 38.97 52.6123 36.334C52.6123 33.896 54.1843 31.814 56.8663 31.814L56.8883 31.822ZM56.7983 33.95C55.8903 33.95 55.5363 34.968 55.5363 36.276C55.5363 37.648 55.9583 38.58 56.8443 38.58C57.6443 38.58 58.0623 37.78 58.0623 36.252C58.0623 34.924 57.7303 33.95 56.8223 33.95H56.7983Z" fill="white"/>
<path d="M45.78 137.416C42.206 137.416 35.58 134.498 39.086 130.59C39.456 130.146 39.9162 129.785 40.436 129.532L40.464 129.514H40.476C41.3146 129.123 42.212 128.873 43.132 128.774C43.428 128.749 43.726 128.759 44.02 128.802C43.552 128.78 43.006 129.034 42.36 129.652C42.246 129.756 42.124 129.888 41.998 130.026C38.5 133.926 42.168 137.102 45.78 137.416Z" fill="#41A9E0" fill-opacity="0.1"/>
<path d="M46.7004 137.238L46.1444 137.344C46.1444 137.344 44.8204 131.12 42.3604 129.648C43.0064 129.03 43.5604 128.776 44.0204 128.798C44.0296 128.8 44.0392 128.8 44.0484 128.798L44.2484 128.826L44.3184 128.842C46.6123 129.548 46.7004 137.238 46.7004 137.238Z" fill="#41A9E0"/>
<path d="M46.2679 157.89H19.4679C18.9256 157.89 18.405 158.103 18.0182 158.483C17.6314 158.863 17.4094 159.38 17.3999 159.922L17.2879 166.18C17.2829 166.455 17.3326 166.728 17.4343 166.983C17.536 167.238 17.6875 167.471 17.88 167.667C18.0726 167.863 18.3023 168.019 18.5557 168.125C18.8091 168.231 19.0811 168.286 19.3559 168.286H77.7979C78.0697 168.286 78.3387 168.232 78.5897 168.128C78.8407 168.024 79.0689 167.872 79.2609 167.679C79.4529 167.487 79.6053 167.259 79.7091 167.008C79.8129 166.757 79.8661 166.488 79.8659 166.216V159.958C79.8659 159.409 79.6481 158.884 79.2601 158.496C78.8723 158.108 78.3463 157.89 77.7979 157.89H39.1119" stroke="black" stroke-width="2" stroke-miterlimit="10"/>
<path d="M72.2264 189.456H23.8464C22.8886 189.453 21.9708 189.071 21.2938 188.393C20.6166 187.716 20.2351 186.798 20.2324 185.84V168.286H75.8324V185.84C75.8292 186.796 75.4486 187.712 74.7734 188.39C74.098 189.067 73.1828 189.45 72.2264 189.456Z" stroke="black" stroke-width="2" stroke-miterlimit="10"/>
<path d="M68.8344 138.86V142.896C68.8344 143.25 68.6938 143.589 68.4436 143.839C68.1936 144.089 67.8542 144.23 67.5004 144.23H44.8804V137.526H67.5004C67.8542 137.526 68.1936 137.666 68.4436 137.917C68.6938 138.167 68.8344 138.506 68.8344 138.86Z" fill="#41A9E0"/>
<path d="M44.8802 137.526V144.23H29.7902C29.6132 144.23 29.438 144.194 29.2748 144.126C29.1118 144.057 28.9638 143.957 28.8396 143.831C28.7156 143.705 28.6178 143.555 28.552 143.391C28.486 143.226 28.4536 143.051 28.4562 142.874L28.5282 138.832C28.535 138.483 28.6786 138.15 28.9282 137.906C29.1776 137.662 29.513 137.525 29.8622 137.526H44.8802Z" fill="#41A9E0" fill-opacity="0.1"/>
<path d="M66.2383 144.229V155.559C66.2361 156.178 65.9888 156.771 65.5508 157.208C65.1126 157.645 64.5191 157.891 63.9003 157.891H47.1562V144.229H66.2383Z" fill="#41A9E0"/>
<path d="M47.1562 144.229V157.891H32.7002C32.0822 157.89 31.49 157.644 31.053 157.207C30.616 156.77 30.3698 156.177 30.3682 155.559V144.229H47.1562Z" fill="#41A9E0" fill-opacity="0.1"/>
<path d="M42.7441 157.89V168.286" stroke="black" stroke-width="2" stroke-miterlimit="10"/>
<path d="M46.2681 168.286V189.456" stroke="black" stroke-width="2" stroke-miterlimit="10"/>
<path d="M68.8344 138.86V142.896C68.8344 143.25 68.6938 143.589 68.4436 143.839C68.1936 144.089 67.8542 144.23 67.5004 144.23H44.8804V137.526H67.5004C67.8542 137.526 68.1936 137.666 68.4436 137.917C68.6938 138.167 68.8344 138.506 68.8344 138.86Z" stroke="black" stroke-width="2" stroke-miterlimit="10"/>
<path d="M44.8802 137.526V144.23H29.7902C29.6132 144.23 29.438 144.194 29.2748 144.126C29.1118 144.057 28.9638 143.957 28.8396 143.831C28.7156 143.705 28.6178 143.555 28.552 143.391C28.486 143.226 28.4536 143.051 28.4562 142.874L28.5282 138.832C28.535 138.483 28.6786 138.15 28.9282 137.906C29.1776 137.662 29.513 137.525 29.8622 137.526H44.8802Z" stroke="black" stroke-width="2" stroke-miterlimit="10"/>
<path d="M66.2383 144.229V155.559C66.2361 156.178 65.9888 156.771 65.5508 157.208C65.1126 157.645 64.5191 157.891 63.9003 157.891H47.1562V144.229H66.2383Z" stroke="black" stroke-width="2" stroke-miterlimit="10"/>
<path d="M47.1562 144.229V157.891H32.7002C32.0822 157.89 31.49 157.644 31.053 157.207C30.616 156.77 30.3698 156.177 30.3682 155.559V144.229H47.1562Z" stroke="black" stroke-width="2" stroke-miterlimit="10"/>
<path d="M49.5122 137.524C55.0422 135.924 63.5522 129.886 56.9362 124.886C56.2236 124.307 55.397 123.886 54.5102 123.648C54.4786 123.634 54.4446 123.626 54.4102 123.624C53.9056 123.506 53.3792 123.517 52.8802 123.657C52.3812 123.797 51.9258 124.061 51.5562 124.424" stroke="black" stroke-width="2" stroke-miterlimit="10"/>
<path d="M51.5562 124.42C48.1862 127.45 48.0342 137.524 48.0342 137.524H47.1382C47.1382 137.524 43.8042 119.432 51.5562 124.42Z" stroke="black" stroke-width="2" stroke-miterlimit="10"/>
<path d="M48.6142 137.524H48.0342C48.0342 137.524 48.1862 127.45 51.5562 124.42C51.7912 124.564 52.0188 124.72 52.2382 124.886C58.8662 129.886 54.1322 135.934 48.6142 137.524Z" stroke="black" stroke-width="2" stroke-miterlimit="10"/>
<path d="M48.2783 123.724C48.8641 123.511 49.4719 123.365 50.0903 123.288C51.5699 123.16 53.0607 123.281 54.5003 123.646" stroke="black" stroke-width="2" stroke-miterlimit="10"/>
<path d="M45.3003 137.524C41.6783 137.212 35.6663 134.496 39.1603 130.592C39.5313 130.146 39.9927 129.784 40.5143 129.53C40.5319 129.518 40.5515 129.508 40.5723 129.502C40.8705 129.367 41.1979 129.31 41.5241 129.336C41.8503 129.361 42.1647 129.469 42.4383 129.648" stroke="black" stroke-width="2" stroke-miterlimit="10"/>
<path d="M42.4282 129.648C44.8882 131.116 46.2062 137.346 46.2062 137.346L46.7622 137.236C46.7622 137.236 46.6282 125.612 42.4282 129.648Z" stroke="black" stroke-width="2" stroke-miterlimit="10"/>
<path d="M45.846 137.416L46.206 137.346C46.206 137.346 44.888 131.116 42.428 129.648C42.312 129.752 42.19 129.882 42.062 130.02C38.562 133.926 42.232 137.1 45.846 137.416Z" stroke="black" stroke-width="2" stroke-miterlimit="10"/>
<path d="M44.3784 128.818C43.9888 128.757 43.5938 128.74 43.2004 128.768C42.2654 128.868 41.3542 129.125 40.5044 129.528" stroke="black" stroke-width="2" stroke-miterlimit="10"/>
<path d="M162.9 56.2005L163.682 57.6005C163.682 57.6005 162.538 60.1445 165.604 60.5845C168.67 61.0245 172.706 58.0105 172.816 56.0205C177.526 57.8405 180.016 62.4205 180.06 67.3245C180.14 79.4645 164.52 86.8245 154.082 85.7245C148.836 85.1745 143.882 82.8605 139.746 79.5945C139.194 79.1665 138.664 78.7165 138.146 78.2525C137.098 77.2967 136.116 76.2709 135.206 75.1825C134.735 74.6225 134.277 74.0497 133.83 73.4645" stroke="black" stroke-width="2" stroke-miterlimit="10"/>
<path d="M169.594 50.5039L172.598 56.2339" stroke="black" stroke-width="2" stroke-miterlimit="10"/>
<path d="M13.6382 189.454H187.362" stroke="black" stroke-width="2" stroke-miterlimit="10"/>
<path d="M133.5 28.2422H133.474C132.506 28.4062 131.342 29.2682 130.738 30.3842C130.046 31.6462 129.966 33.1842 129.818 33.8362C129.802 33.9102 129.786 33.9822 129.778 34.0482C129.761 34.1038 129.748 34.1606 129.738 34.2182L129.712 34.3162C129.62 34.632 129.412 34.9018 129.131 35.0726C128.85 35.2436 128.515 35.3034 128.192 35.2404C127.87 35.1772 127.582 34.9958 127.386 34.7316C127.19 34.4674 127.099 34.1396 127.132 33.8122L127.188 33.3562C127.206 33.1922 127.23 33.0382 127.262 32.8842C127.327 32.4374 127.425 31.9962 127.556 31.5642C127.574 31.4964 127.595 31.4296 127.62 31.3642C127.644 31.261 127.677 31.16 127.718 31.0622C127.737 31.0096 127.759 30.9582 127.784 30.9082" stroke="black" stroke-width="2" stroke-miterlimit="10"/>
<path d="M135.956 37.3523C135.351 37.9323 134.772 38.2215 134.22 38.2203C133.986 38.2205 133.755 38.1679 133.544 38.0663C133.346 37.9773 133.167 37.8503 133.018 37.6923C132.518 37.1783 132.538 36.3163 132.776 35.7383C132.949 35.3631 133.182 35.0191 133.466 34.7203C133.556 34.6183 133.644 34.5203 133.722 34.4143C133.986 34.1145 134.184 33.7639 134.306 33.3843C134.306 33.3623 134.306 33.3423 134.316 33.3203" stroke="black" stroke-width="2" stroke-miterlimit="10"/>
<path d="M131.208 27.6819C131.582 27.7519 131.942 27.8379 132.31 27.9219C132.678 28.0059 133.086 28.1219 133.47 28.2419C134.35 28.5021 135.174 28.9231 135.9 29.4839C137.872 30.9419 138.286 33.4279 136.864 35.2619" stroke="black" stroke-width="2" stroke-miterlimit="10"/>
<path d="M129.818 33.8355C129.818 33.8535 129.818 33.8695 129.808 33.8915C129.803 33.9587 129.794 34.0255 129.78 34.0915L129.736 34.5475C129.71 34.7939 129.754 35.0427 129.863 35.2653C129.972 35.4877 130.141 35.6751 130.352 35.8059C130.562 35.9365 130.805 36.0053 131.053 36.0041C131.301 36.0031 131.543 35.9321 131.752 35.7995C131.903 35.7063 132.033 35.5827 132.133 35.4367C132.234 35.2909 132.303 35.1257 132.336 34.9515C132.374 34.7815 132.406 34.5975 132.45 34.4235C132.61 33.7475 132.67 33.1435 133.174 32.6235C133.316 32.4765 133.485 32.3583 133.672 32.2755C133.719 32.2555 133.768 32.2399 133.818 32.2295" stroke="black" stroke-width="2" stroke-miterlimit="10"/>
<path d="M124.472 32.6403V32.5883C124.558 31.7233 124.786 30.8785 125.148 30.0883C125.372 29.5943 125.673 29.1387 126.038 28.7383C126.611 28.0921 127.387 27.6603 128.238 27.5143C128.484 27.4783 128.726 27.4543 128.974 27.4423C129.722 27.4317 130.468 27.5123 131.196 27.6823C130.596 27.7283 129.568 28.3703 128.826 29.1783C128.529 29.4845 128.281 29.8345 128.09 30.2163C127.996 30.4163 127.89 30.6363 127.816 30.8483C127.74 31.0203 127.674 31.1943 127.616 31.3643C127.442 31.8563 127.292 32.3423 127.178 32.7903C127.126 32.9903 127.078 33.1903 127.04 33.3703C126.978 33.7037 126.796 34.0025 126.528 34.2101C126.26 34.4179 125.924 34.5197 125.586 34.4963C125.242 34.4561 124.927 34.2817 124.711 34.0109C124.495 33.7401 124.394 33.3949 124.43 33.0503L124.47 32.6403" stroke="black" stroke-width="2" stroke-miterlimit="10"/>
<path d="M122.9 67.6618C122.56 66.9798 122.34 66.2318 122.668 65.5798C123.41 64.0998 125.796 64.8838 127.192 63.9798C128.392 63.2098 128.27 62.2958 128.926 61.1558C129.692 59.8218 131.072 60.3558 132.126 61.0198C133.472 61.8618 136.412 64.8198 141.126 67.7338C142.593 68.6454 143.996 69.655 145.326 70.7558C149.032 73.8098 158.264 79.1018 166.29 64.8658" stroke="black" stroke-width="2" stroke-miterlimit="10"/>
<path d="M134.024 73.7015C133.366 73.0315 132.65 72.3235 131.726 72.1555C130.74 71.9735 129.756 72.4395 128.758 72.4875C126.3 72.5995 124.476 70.3095 123.21 68.1995C123.106 68.0295 123.01 67.8475 122.908 67.6655" stroke="black" stroke-width="2" stroke-miterlimit="10"/>
<path d="M128.16 70.4359C128.16 70.4359 125.81 71.6979 124.81 70.3999" stroke="black" stroke-width="2" stroke-miterlimit="10"/>
<path d="M123.416 68.554C123.416 68.554 125.326 69.854 126.666 68.77" stroke="black" stroke-width="2" stroke-miterlimit="10"/>
<path d="M122.53 66.8359C122.53 66.8359 124.192 67.8539 124.906 67.1239" stroke="black" stroke-width="2" stroke-miterlimit="10"/>
</svg>
