<svg width="201" height="200" viewBox="0 0 201 200" fill="none" xmlns="http://www.w3.org/2000/svg">
<path d="M53.4458 109.166C53.4458 109.166 50.3778 79.9662 71.2618 76.0342C92.1458 72.1022 96.0278 75.4002 110.574 65.4162C125.12 55.4322 171.078 84.9022 161.774 126.354C160.676 131.27 159.284 136.116 157.604 140.864" stroke="#41A9E0" stroke-opacity="0.1" stroke-width="2" stroke-miterlimit="10"/>
<path d="M143.514 89.8362H135.918V189.034H143.514V89.8362Z" stroke="#41A9E0" stroke-opacity="0.1" stroke-width="2" stroke-miterlimit="10"/>
<path d="M75.5562 166.182V89.8362H135.918V189.036H125.748V158.57C125.746 157.349 125.258 156.179 124.394 155.316C123.529 154.454 122.357 153.97 121.136 153.97H90.7762C89.5552 153.97 88.3838 154.454 87.5192 155.317C86.6546 156.179 86.1674 157.349 86.1642 158.57V189.036H76.2661M75.5562 177.552V172.382M82.7982 141.474C82.7344 141.474 82.6714 141.461 82.6126 141.436C82.554 141.412 82.5006 141.376 82.4558 141.33C82.411 141.285 82.3756 141.231 82.3518 141.172C82.3278 141.113 82.3156 141.05 82.3162 140.986V137.082C82.3162 136.954 82.367 136.832 82.4574 136.741C82.5478 136.651 82.6704 136.6 82.7982 136.6H90.6702C90.734 136.6 90.7972 136.612 90.8562 136.636C90.9152 136.66 90.969 136.695 91.0144 136.74C91.0596 136.785 91.0958 136.838 91.1204 136.897C91.145 136.955 91.158 137.018 91.1582 137.082V140.986C91.1584 141.05 91.146 141.114 91.1216 141.173C91.0972 141.233 91.0612 141.286 91.0158 141.332C90.9704 141.377 90.9166 141.413 90.8572 141.438C90.798 141.462 90.7344 141.474 90.6702 141.474H82.7982ZM96.6362 147.81C96.6352 147.939 96.5832 148.062 96.4918 148.153C96.4004 148.243 96.277 148.294 96.1482 148.294H88.2762C88.1474 148.294 88.024 148.243 87.9326 148.153C87.8412 148.062 87.7892 147.939 87.7882 147.81V143.902C87.7898 143.774 87.8418 143.651 87.9332 143.561C88.0246 143.471 88.1478 143.42 88.2762 143.42H96.1482C96.2766 143.42 96.3998 143.471 96.4912 143.561C96.5826 143.651 96.6346 143.774 96.6362 143.902V147.81ZM92.7002 140.986V137.082C92.7004 137.018 92.7134 136.955 92.738 136.897C92.7626 136.838 92.7988 136.785 92.844 136.74C92.8894 136.695 92.9432 136.66 93.0022 136.636C93.0612 136.612 93.1244 136.6 93.1882 136.6H101.06C101.189 136.6 101.312 136.651 101.403 136.741C101.495 136.831 101.547 136.954 101.548 137.082V140.986C101.548 141.115 101.496 141.239 101.405 141.331C101.313 141.422 101.189 141.474 101.06 141.474H93.1862C93.1222 141.474 93.0588 141.462 92.9998 141.437C92.9406 141.412 92.887 141.376 92.8418 141.331C92.7966 141.286 92.761 141.232 92.7366 141.173C92.7124 141.114 92.7 141.05 92.7002 140.986ZM106.984 147.81C106.984 147.874 106.972 147.936 106.948 147.995C106.924 148.054 106.889 148.107 106.844 148.152C106.799 148.197 106.746 148.233 106.687 148.257C106.629 148.282 106.566 148.294 106.502 148.294H98.6222C98.5588 148.294 98.496 148.282 98.4372 148.257C98.3786 148.233 98.3254 148.197 98.2806 148.152C98.2358 148.107 98.2004 148.054 98.1764 147.995C98.1522 147.936 98.14 147.874 98.1402 147.81V143.902C98.1402 143.774 98.191 143.652 98.2814 143.561C98.3718 143.471 98.4944 143.42 98.6222 143.42H106.5C106.628 143.42 106.751 143.471 106.841 143.561C106.931 143.652 106.982 143.774 106.982 143.902L106.984 147.81ZM111.928 140.986C111.928 141.05 111.916 141.114 111.892 141.173C111.867 141.233 111.831 141.286 111.786 141.332C111.74 141.377 111.687 141.413 111.627 141.438C111.568 141.462 111.504 141.474 111.44 141.474H103.568C103.504 141.474 103.441 141.461 103.382 141.436C103.324 141.412 103.27 141.376 103.225 141.33C103.18 141.285 103.145 141.231 103.12 141.172C103.096 141.113 103.084 141.05 103.084 140.986V137.082C103.084 137.019 103.097 136.956 103.121 136.897C103.145 136.839 103.181 136.785 103.226 136.741C103.271 136.696 103.324 136.66 103.383 136.636C103.442 136.612 103.505 136.6 103.568 136.6H111.438C111.502 136.6 111.565 136.612 111.624 136.636C111.683 136.66 111.737 136.695 111.782 136.74C111.828 136.785 111.864 136.838 111.888 136.897C111.913 136.955 111.926 137.018 111.926 137.082L111.928 140.986ZM122.31 140.986C122.311 141.05 122.299 141.113 122.275 141.172C122.251 141.231 122.215 141.285 122.171 141.33C122.126 141.376 122.072 141.412 122.014 141.436C121.955 141.461 121.892 141.474 121.828 141.474H113.954C113.89 141.474 113.826 141.462 113.767 141.438C113.708 141.413 113.654 141.377 113.609 141.332C113.563 141.286 113.527 141.233 113.503 141.173C113.478 141.114 113.466 141.05 113.466 140.986V137.082C113.466 137.018 113.479 136.955 113.504 136.897C113.529 136.838 113.565 136.785 113.61 136.74C113.655 136.695 113.709 136.66 113.768 136.636C113.827 136.612 113.89 136.6 113.954 136.6H121.826C121.954 136.6 122.077 136.651 122.167 136.741C122.257 136.832 122.308 136.954 122.308 137.082L122.31 140.986ZM129.598 126.328C129.6 126.933 129.482 127.533 129.252 128.092C129.021 128.652 128.682 129.16 128.255 129.589C127.828 130.017 127.32 130.357 126.761 130.589C126.202 130.821 125.603 130.94 124.998 130.94H86.5662C85.3432 130.94 84.1704 130.454 83.3056 129.589C82.4408 128.724 81.9548 127.551 81.9542 126.328V110.066C81.9542 108.843 82.4402 107.67 83.305 106.805C84.17 105.94 85.343 105.454 86.5662 105.454H124.99C125.595 105.454 126.194 105.574 126.753 105.805C127.312 106.037 127.82 106.377 128.247 106.806C128.674 107.234 129.013 107.743 129.244 108.302C129.474 108.862 129.592 109.461 129.59 110.066L129.598 126.328ZM128.924 100.068C128.713 100.283 128.46 100.453 128.182 100.568C127.904 100.684 127.605 100.743 127.304 100.742H84.6102C84.002 100.742 83.4187 100.5 82.9885 100.07C82.5585 99.6396 82.3168 99.0564 82.3162 98.4482C82.3184 97.8404 82.5606 97.2582 82.9904 96.8284C83.4202 96.3986 84.0024 96.1562 84.6102 96.1542H127.3C127.602 96.1538 127.9 96.213 128.178 96.3282C128.457 96.4434 128.71 96.6124 128.923 96.8254C129.136 97.0386 129.305 97.2916 129.42 97.57C129.535 97.8484 129.594 98.1468 129.594 98.4482C129.595 98.7492 129.537 99.0476 129.421 99.3258C129.306 99.604 129.136 99.8564 128.922 100.068H128.924Z" stroke="#41A9E0" stroke-opacity="0.1" stroke-width="2" stroke-miterlimit="10"/>
<path d="M90.6699 141.474H82.7979C82.7341 141.474 82.6711 141.461 82.6123 141.436C82.5537 141.412 82.5003 141.376 82.4555 141.33C82.4107 141.285 82.3753 141.231 82.3513 141.172C82.3275 141.113 82.3153 141.05 82.3159 140.986V137.082C82.3159 136.954 82.3667 136.832 82.4571 136.741C82.5475 136.651 82.6701 136.6 82.7979 136.6H90.6699C90.7337 136.6 90.7969 136.612 90.8559 136.636C90.9149 136.66 90.9687 136.695 91.0141 136.74C91.0593 136.785 91.0953 136.838 91.1201 136.897C91.1447 136.955 91.1577 137.018 91.1579 137.082V140.986C91.1581 141.05 91.1457 141.114 91.1213 141.173C91.0969 141.233 91.0609 141.287 91.0155 141.332C90.9701 141.377 90.9163 141.413 90.8569 141.438C90.7977 141.462 90.7341 141.474 90.6699 141.474Z" stroke="#41A9E0" stroke-opacity="0.1" stroke-width="2" stroke-miterlimit="10"/>
<path d="M88.2761 143.42H96.1481C96.2765 143.42 96.3997 143.471 96.4911 143.561C96.5825 143.651 96.6345 143.774 96.6361 143.902V147.81C96.6351 147.939 96.5831 148.062 96.4917 148.153C96.4003 148.243 96.2769 148.294 96.1481 148.294H88.2761C88.1473 148.294 88.0239 148.243 87.9325 148.153C87.8411 148.062 87.7891 147.939 87.7881 147.81V143.902C87.7897 143.774 87.8417 143.651 87.9331 143.561C88.0245 143.471 88.1477 143.42 88.2761 143.42Z" stroke="#41A9E0" stroke-opacity="0.1" stroke-width="2" stroke-miterlimit="10"/>
<path d="M101.546 137.082V140.986C101.546 141.115 101.494 141.239 101.403 141.331C101.311 141.422 101.187 141.474 101.058 141.474H93.1862C93.122 141.474 93.0584 141.462 92.9992 141.438C92.9398 141.413 92.886 141.377 92.8406 141.332C92.7952 141.287 92.7592 141.233 92.7348 141.173C92.7104 141.114 92.698 141.05 92.6982 140.986V137.082C92.6984 137.018 92.7114 136.955 92.736 136.897C92.7606 136.838 92.7968 136.785 92.842 136.74C92.8874 136.695 92.9412 136.66 93.0002 136.636C93.0592 136.612 93.1224 136.6 93.1862 136.6H101.058C101.187 136.6 101.31 136.651 101.401 136.741C101.493 136.831 101.545 136.954 101.546 137.082Z" stroke="#41A9E0" stroke-opacity="0.1" stroke-width="2" stroke-miterlimit="10"/>
<path d="M106.5 143.42H98.6221C98.3559 143.42 98.1401 143.636 98.1401 143.902V147.812C98.1401 148.079 98.3559 148.294 98.6221 148.294H106.5C106.766 148.294 106.982 148.079 106.982 147.812V143.902C106.982 143.636 106.766 143.42 106.5 143.42Z" stroke="#41A9E0" stroke-opacity="0.1" stroke-width="2" stroke-miterlimit="10"/>
<path d="M103.568 141.474C103.504 141.474 103.441 141.461 103.382 141.436C103.323 141.412 103.27 141.376 103.225 141.33C103.18 141.285 103.144 141.231 103.12 141.172C103.096 141.113 103.084 141.05 103.084 140.986V137.082C103.084 137.019 103.097 136.956 103.121 136.897C103.145 136.839 103.181 136.785 103.226 136.741C103.271 136.696 103.324 136.66 103.383 136.636C103.442 136.612 103.505 136.6 103.568 136.6H111.438C111.502 136.6 111.565 136.612 111.624 136.636C111.683 136.66 111.737 136.695 111.782 136.74C111.827 136.785 111.864 136.838 111.888 136.897C111.913 136.955 111.926 137.018 111.926 137.082V140.986C111.926 141.05 111.914 141.114 111.889 141.173C111.865 141.233 111.829 141.287 111.784 141.332C111.738 141.377 111.684 141.413 111.625 141.438C111.566 141.462 111.502 141.474 111.438 141.474H103.568Z" stroke="#41A9E0" stroke-opacity="0.1" stroke-width="2" stroke-miterlimit="10"/>
<path d="M113.954 141.474C113.89 141.474 113.826 141.462 113.767 141.438C113.707 141.413 113.654 141.377 113.608 141.332C113.563 141.287 113.527 141.233 113.502 141.173C113.478 141.114 113.466 141.05 113.466 140.986V137.082C113.466 137.018 113.479 136.955 113.504 136.897C113.528 136.838 113.564 136.785 113.61 136.74C113.655 136.695 113.709 136.66 113.768 136.636C113.827 136.612 113.89 136.6 113.954 136.6H121.826C121.954 136.6 122.076 136.651 122.167 136.741C122.257 136.832 122.308 136.954 122.308 137.082V140.986C122.308 141.05 122.296 141.113 122.272 141.172C122.248 141.231 122.213 141.285 122.168 141.33C122.123 141.376 122.07 141.412 122.011 141.436C121.953 141.461 121.89 141.474 121.826 141.474H113.954Z" stroke="#41A9E0" stroke-opacity="0.1" stroke-width="2" stroke-miterlimit="10"/>
<path d="M125.748 158.57V189.036H86.1641V158.57C86.1673 157.349 86.6545 156.179 87.5191 155.317C88.3837 154.455 89.5551 153.97 90.7761 153.97H121.136C122.357 153.97 123.529 154.454 124.394 155.316C125.258 156.179 125.745 157.349 125.748 158.57Z" stroke="#41A9E0" stroke-opacity="0.1" stroke-width="2" stroke-miterlimit="10"/>
<path d="M82.3159 98.4481C82.3181 97.8403 82.5603 97.2579 82.9901 96.8283C83.4199 96.3985 84.0021 96.1561 84.6099 96.1541H127.3C127.601 96.1537 127.9 96.2129 128.178 96.3281C128.457 96.4433 128.71 96.6123 128.923 96.8253C129.136 97.0383 129.305 97.2913 129.42 97.5699C129.535 97.8483 129.594 98.1467 129.594 98.4481C129.592 99.0557 129.35 99.6381 128.92 100.068C128.49 100.497 127.908 100.74 127.3 100.742H84.6099C84.0017 100.741 83.4185 100.5 82.9885 100.069C82.5583 99.6395 82.3165 99.0563 82.3159 98.4481Z" stroke="#41A9E0" stroke-opacity="0.1" stroke-width="2" stroke-miterlimit="10"/>
<path d="M103.476 112.34V124.074C103.476 124.501 103.393 124.923 103.23 125.317C103.067 125.711 102.828 126.07 102.527 126.371C102.226 126.673 101.868 126.913 101.474 127.076C101.08 127.24 100.658 127.324 100.232 127.324H88.8539C87.9929 127.323 87.1675 126.98 86.5591 126.371C85.9509 125.761 85.6093 124.935 85.6099 124.074V112.34C85.6097 111.914 85.6933 111.492 85.8563 111.098C86.0191 110.704 86.2579 110.346 86.5593 110.044C86.8605 109.743 87.2181 109.503 87.6119 109.34C88.0055 109.177 88.4277 109.092 88.8539 109.092H100.232C100.658 109.092 101.08 109.176 101.474 109.34C101.868 109.503 102.226 109.742 102.527 110.044C102.828 110.345 103.067 110.703 103.23 111.098C103.393 111.492 103.476 111.914 103.476 112.34Z" stroke="#41A9E0" stroke-opacity="0.1" stroke-width="2" stroke-miterlimit="10"/>
<path d="M125.818 112.326V124.09C125.819 124.516 125.735 124.939 125.572 125.333C125.41 125.727 125.171 126.085 124.87 126.387C124.568 126.689 124.211 126.928 123.817 127.092C123.423 127.255 123.001 127.34 122.574 127.34H111.174C110.748 127.34 110.325 127.255 109.931 127.092C109.537 126.929 109.18 126.689 108.878 126.387C108.577 126.085 108.338 125.727 108.175 125.333C108.012 124.939 107.928 124.517 107.928 124.09V112.326C107.928 111.899 108.012 111.477 108.175 111.083C108.338 110.689 108.577 110.331 108.878 110.029C109.18 109.727 109.537 109.487 109.931 109.324C110.325 109.161 110.748 109.076 111.174 109.076H122.574C123.001 109.076 123.423 109.161 123.817 109.324C124.211 109.488 124.568 109.727 124.87 110.029C125.171 110.331 125.41 110.689 125.572 111.083C125.735 111.477 125.819 111.9 125.818 112.326Z" stroke="#41A9E0" stroke-opacity="0.1" stroke-width="2" stroke-miterlimit="10"/>
<path d="M124.99 105.454H86.5661C85.3429 105.454 84.1699 105.94 83.3049 106.805C82.4401 107.67 81.9541 108.843 81.9541 110.066V126.328C81.9547 127.551 82.4407 128.724 83.3055 129.589C84.1703 130.453 85.3431 130.94 86.5661 130.94H124.99C125.595 130.94 126.194 130.821 126.753 130.589C127.312 130.357 127.82 130.017 128.247 129.589C128.674 129.16 129.013 128.652 129.244 128.092C129.474 127.533 129.592 126.933 129.59 126.328V110.066C129.592 109.461 129.474 108.861 129.244 108.302C129.013 107.742 128.674 107.234 128.247 106.805C127.82 106.377 127.312 106.037 126.753 105.805C126.194 105.573 125.595 105.454 124.99 105.454ZM103.476 124.074C103.477 124.5 103.393 124.923 103.23 125.317C103.068 125.711 102.829 126.069 102.528 126.371C102.226 126.673 101.869 126.913 101.475 127.076C101.081 127.24 100.659 127.324 100.232 127.324H88.8541C87.9931 127.323 87.1677 126.98 86.5593 126.37C85.9509 125.761 85.6095 124.935 85.6101 124.074V112.34C85.6099 111.914 85.6935 111.491 85.8565 111.098C86.0193 110.704 86.2581 110.346 86.5595 110.044C86.8607 109.742 87.2183 109.503 87.6121 109.34C88.0057 109.176 88.4279 109.092 88.8541 109.092H100.232C100.659 109.092 101.081 109.176 101.475 109.339C101.868 109.502 102.226 109.742 102.527 110.043C102.829 110.345 103.068 110.703 103.23 111.097C103.393 111.491 103.477 111.914 103.476 112.34V124.074ZM125.818 124.09C125.819 124.517 125.735 124.939 125.572 125.333C125.41 125.727 125.171 126.085 124.87 126.387C124.568 126.689 124.211 126.928 123.817 127.092C123.423 127.255 123.001 127.34 122.574 127.34H111.174C110.748 127.34 110.325 127.255 109.931 127.092C109.537 126.928 109.18 126.689 108.878 126.387C108.577 126.085 108.338 125.727 108.175 125.333C108.012 124.939 107.928 124.517 107.928 124.09V112.326C107.928 111.899 108.012 111.477 108.175 111.083C108.338 110.689 108.577 110.33 108.878 110.029C109.18 109.727 109.537 109.487 109.931 109.324C110.325 109.16 110.748 109.076 111.174 109.076H122.574C123.001 109.076 123.423 109.16 123.817 109.324C124.211 109.487 124.568 109.727 124.87 110.029C125.171 110.331 125.41 110.689 125.572 111.083C125.735 111.477 125.819 111.899 125.818 112.326V124.09Z" stroke="#41A9E0" stroke-opacity="0.1" stroke-width="2" stroke-miterlimit="10"/>
<path d="M103.476 112.34V124.074C103.476 124.501 103.393 124.923 103.23 125.317C103.067 125.711 102.828 126.07 102.527 126.371C102.226 126.673 101.868 126.913 101.474 127.076C101.08 127.24 100.658 127.324 100.232 127.324H88.8539C87.9929 127.323 87.1675 126.98 86.5591 126.371C85.9509 125.761 85.6093 124.935 85.6099 124.074V112.34C85.6097 111.914 85.6933 111.492 85.8563 111.098C86.0191 110.704 86.2579 110.346 86.5593 110.044C86.8605 109.743 87.2181 109.503 87.6119 109.34C88.0055 109.177 88.4277 109.092 88.8539 109.092H100.232C100.658 109.092 101.08 109.176 101.474 109.34C101.868 109.503 102.226 109.742 102.527 110.044C102.828 110.345 103.067 110.703 103.23 111.098C103.393 111.492 103.476 111.914 103.476 112.34Z" stroke="#41A9E0" stroke-opacity="0.1" stroke-width="2" stroke-miterlimit="10"/>
<path d="M125.818 112.326V124.09C125.819 124.516 125.735 124.939 125.572 125.333C125.41 125.727 125.171 126.085 124.87 126.387C124.568 126.689 124.211 126.928 123.817 127.092C123.423 127.255 123.001 127.34 122.574 127.34H111.174C110.748 127.34 110.325 127.255 109.931 127.092C109.537 126.929 109.18 126.689 108.878 126.387C108.577 126.085 108.338 125.727 108.175 125.333C108.012 124.939 107.928 124.517 107.928 124.09V112.326C107.928 111.899 108.012 111.477 108.175 111.083C108.338 110.689 108.577 110.331 108.878 110.029C109.18 109.727 109.537 109.487 109.931 109.324C110.325 109.161 110.748 109.076 111.174 109.076H122.574C123.001 109.076 123.423 109.161 123.817 109.324C124.211 109.488 124.568 109.727 124.87 110.029C125.171 110.331 125.41 110.689 125.572 111.083C125.735 111.477 125.819 111.9 125.818 112.326Z" stroke="#41A9E0" stroke-opacity="0.1" stroke-width="2" stroke-miterlimit="10"/>
<path d="M125.818 112.326V124.09C125.819 124.516 125.735 124.939 125.572 125.333C125.41 125.727 125.171 126.085 124.87 126.387C124.568 126.689 124.211 126.928 123.817 127.092C123.423 127.255 123.001 127.34 122.574 127.34H111.174C110.748 127.34 110.325 127.255 109.931 127.092C109.537 126.929 109.18 126.689 108.878 126.387C108.577 126.085 108.338 125.727 108.175 125.333C108.012 124.939 107.928 124.517 107.928 124.09V112.326C107.928 111.899 108.012 111.477 108.175 111.083C108.338 110.689 108.577 110.331 108.878 110.029C109.18 109.727 109.537 109.487 109.931 109.324C110.325 109.161 110.748 109.076 111.174 109.076H122.574C123.001 109.076 123.423 109.161 123.817 109.324C124.211 109.488 124.568 109.727 124.87 110.029C125.171 110.331 125.41 110.689 125.572 111.083C125.735 111.477 125.819 111.9 125.818 112.326Z" stroke="#41A9E0" stroke-opacity="0.1" stroke-width="2" stroke-miterlimit="10"/>
<path d="M103.476 112.34V124.074C103.476 124.501 103.393 124.923 103.23 125.317C103.067 125.711 102.828 126.07 102.527 126.371C102.226 126.673 101.868 126.913 101.474 127.076C101.08 127.24 100.658 127.324 100.232 127.324H88.8539C87.9929 127.323 87.1675 126.98 86.5591 126.371C85.9509 125.761 85.6093 124.935 85.6099 124.074V112.34C85.6097 111.914 85.6933 111.492 85.8563 111.098C86.0191 110.704 86.2579 110.346 86.5593 110.044C86.8605 109.743 87.2181 109.503 87.6119 109.34C88.0055 109.177 88.4277 109.092 88.8539 109.092H100.232C100.658 109.092 101.08 109.176 101.474 109.34C101.868 109.503 102.226 109.742 102.527 110.044C102.828 110.345 103.067 110.703 103.23 111.098C103.393 111.492 103.476 111.914 103.476 112.34Z" stroke="#41A9E0" stroke-opacity="0.1" stroke-width="2" stroke-miterlimit="10"/>
<path d="M125.748 158.57V189.036H86.1641V158.57C86.1673 157.349 86.6545 156.179 87.5191 155.317C88.3837 154.455 89.5551 153.97 90.7761 153.97H121.136C122.357 153.97 123.529 154.454 124.394 155.316C125.258 156.179 125.745 157.349 125.748 158.57Z" stroke="#41A9E0" stroke-opacity="0.1" stroke-width="2" stroke-miterlimit="10"/>
<path d="M91.1579 137.082V140.986C91.1581 141.05 91.1457 141.114 91.1213 141.173C91.0969 141.233 91.0609 141.287 91.0155 141.332C90.9701 141.377 90.9163 141.413 90.8569 141.438C90.7977 141.462 90.7341 141.474 90.6699 141.474H82.7979C82.7341 141.474 82.6711 141.461 82.6123 141.436C82.5537 141.412 82.5003 141.376 82.4555 141.33C82.4107 141.285 82.3753 141.231 82.3513 141.172C82.3275 141.113 82.3153 141.05 82.3159 140.986V137.082C82.3159 136.954 82.3667 136.832 82.4571 136.741C82.5475 136.651 82.6701 136.6 82.7979 136.6H90.6699C90.7337 136.6 90.7969 136.612 90.8559 136.636C90.9149 136.66 90.9687 136.695 91.0141 136.74C91.0593 136.785 91.0953 136.838 91.1201 136.897C91.1447 136.955 91.1577 137.018 91.1579 137.082Z" stroke="#41A9E0" stroke-opacity="0.1" stroke-width="2" stroke-miterlimit="10"/>
<path d="M101.546 137.082V140.986C101.546 141.115 101.494 141.239 101.403 141.331C101.311 141.422 101.187 141.474 101.058 141.474H93.1862C93.122 141.474 93.0584 141.462 92.9992 141.438C92.9398 141.413 92.886 141.377 92.8406 141.332C92.7952 141.287 92.7592 141.233 92.7348 141.173C92.7104 141.114 92.698 141.05 92.6982 140.986V137.082C92.6984 137.018 92.7114 136.955 92.736 136.897C92.7606 136.838 92.7968 136.785 92.842 136.74C92.8874 136.695 92.9412 136.66 93.0002 136.636C93.0592 136.612 93.1224 136.6 93.1862 136.6H101.058C101.187 136.6 101.31 136.651 101.401 136.741C101.493 136.831 101.545 136.954 101.546 137.082Z" stroke="#41A9E0" stroke-opacity="0.1" stroke-width="2" stroke-miterlimit="10"/>
<path d="M111.926 137.082V140.986C111.926 141.05 111.914 141.114 111.889 141.173C111.865 141.233 111.829 141.287 111.784 141.332C111.738 141.377 111.684 141.413 111.625 141.438C111.566 141.462 111.502 141.474 111.438 141.474H103.568C103.504 141.474 103.441 141.461 103.382 141.436C103.323 141.412 103.27 141.376 103.225 141.33C103.18 141.285 103.144 141.231 103.12 141.172C103.096 141.113 103.084 141.05 103.084 140.986V137.082C103.084 137.019 103.097 136.956 103.121 136.897C103.145 136.839 103.181 136.785 103.226 136.741C103.271 136.696 103.324 136.66 103.383 136.636C103.442 136.612 103.505 136.6 103.568 136.6H111.438C111.502 136.6 111.565 136.612 111.624 136.636C111.683 136.66 111.737 136.695 111.782 136.74C111.827 136.785 111.864 136.838 111.888 136.897C111.913 136.955 111.926 137.018 111.926 137.082Z" stroke="#41A9E0" stroke-opacity="0.1" stroke-width="2" stroke-miterlimit="10"/>
<path d="M122.3 137.082V140.986C122.3 141.05 122.288 141.113 122.264 141.172C122.24 141.231 122.205 141.285 122.16 141.33C122.115 141.376 122.062 141.412 122.003 141.436C121.945 141.461 121.882 141.474 121.818 141.474H113.954C113.89 141.474 113.826 141.462 113.767 141.438C113.707 141.413 113.654 141.377 113.608 141.332C113.563 141.287 113.527 141.233 113.502 141.173C113.478 141.114 113.466 141.05 113.466 140.986V137.082C113.466 137.018 113.479 136.955 113.504 136.897C113.528 136.838 113.564 136.785 113.61 136.74C113.655 136.695 113.709 136.66 113.768 136.636C113.827 136.612 113.89 136.6 113.954 136.6H121.826C121.952 136.602 122.073 136.654 122.161 136.744C122.25 136.834 122.3 136.956 122.3 137.082Z" stroke="#41A9E0" stroke-opacity="0.1" stroke-width="2" stroke-miterlimit="10"/>
<path d="M96.6361 143.902V147.81C96.6351 147.939 96.5831 148.062 96.4917 148.153C96.4003 148.243 96.2769 148.294 96.1481 148.294H88.2761C88.1473 148.294 88.0239 148.243 87.9325 148.153C87.8411 148.062 87.7891 147.939 87.7881 147.81V143.902C87.7897 143.774 87.8417 143.651 87.9331 143.561C88.0245 143.471 88.1477 143.42 88.2761 143.42H96.1481C96.2765 143.42 96.3997 143.471 96.4911 143.561C96.5825 143.651 96.6345 143.774 96.6361 143.902Z" stroke="#41A9E0" stroke-opacity="0.1" stroke-width="2" stroke-miterlimit="10"/>
<path d="M106.5 143.42H98.6221C98.3559 143.42 98.1401 143.636 98.1401 143.902V147.812C98.1401 148.079 98.3559 148.294 98.6221 148.294H106.5C106.766 148.294 106.982 148.079 106.982 147.812V143.902C106.982 143.636 106.766 143.42 106.5 143.42Z" stroke="#41A9E0" stroke-opacity="0.1" stroke-width="2" stroke-miterlimit="10"/>
<path d="M129.596 98.4481C129.594 99.0561 129.351 99.6387 128.921 100.068C128.491 100.498 127.908 100.74 127.3 100.742H84.6099C84.0017 100.741 83.4185 100.5 82.9885 100.069C82.5583 99.6395 82.3165 99.0563 82.3159 98.4481C82.3181 97.8403 82.5603 97.2579 82.9901 96.8283C83.4199 96.3985 84.0021 96.1561 84.6099 96.1541H127.3C127.602 96.1535 127.9 96.2125 128.179 96.3275C128.457 96.4425 128.711 96.6115 128.924 96.8247C129.137 97.0377 129.306 97.2907 129.422 97.5693C129.537 97.8479 129.596 98.1465 129.596 98.4481Z" stroke="#41A9E0" stroke-opacity="0.1" stroke-width="2" stroke-miterlimit="10"/>
<path d="M121.012 157.494H90.7819C90.0651 157.494 89.4839 158.075 89.4839 158.792V158.842C89.4839 159.559 90.0651 160.14 90.7819 160.14H121.012C121.729 160.14 122.31 159.559 122.31 158.842V158.792C122.31 158.075 121.729 157.494 121.012 157.494Z" stroke="#41A9E0" stroke-opacity="0.1" stroke-width="2" stroke-miterlimit="10"/>
<path d="M121.012 162.954H90.7819C90.0651 162.954 89.4839 163.535 89.4839 164.252V164.302C89.4839 165.019 90.0651 165.6 90.7819 165.6H121.012C121.729 165.6 122.31 165.019 122.31 164.302V164.252C122.31 163.535 121.729 162.954 121.012 162.954Z" stroke="#41A9E0" stroke-opacity="0.1" stroke-width="2" stroke-miterlimit="10"/>
<path d="M121.012 168.414H90.7819C90.0651 168.414 89.4839 168.995 89.4839 169.712V169.762C89.4839 170.479 90.0651 171.06 90.7819 171.06H121.012C121.729 171.06 122.31 170.479 122.31 169.762V169.712C122.31 168.995 121.729 168.414 121.012 168.414Z" stroke="#41A9E0" stroke-opacity="0.1" stroke-width="2" stroke-miterlimit="10"/>
<path d="M121.012 173.876H90.7819C90.0651 173.876 89.4839 174.457 89.4839 175.174V175.224C89.4839 175.941 90.0651 176.522 90.7819 176.522H121.012C121.729 176.522 122.31 175.941 122.31 175.224V175.174C122.31 174.457 121.729 173.876 121.012 173.876Z" stroke="#41A9E0" stroke-opacity="0.1" stroke-width="2" stroke-miterlimit="10"/>
<path d="M121.012 179.336H90.7819C90.0651 179.336 89.4839 179.917 89.4839 180.634V180.684C89.4839 181.401 90.0651 181.982 90.7819 181.982H121.012C121.729 181.982 122.31 181.401 122.31 180.684V180.634C122.31 179.917 121.729 179.336 121.012 179.336Z" stroke="#41A9E0" stroke-opacity="0.1" stroke-width="2" stroke-miterlimit="10"/>
<path d="M69.9742 80.8H147.19C148.401 80.8 149.562 81.2808 150.417 82.1368C151.273 82.9926 151.754 84.1537 151.754 85.3641V89.7641H65.4102V85.3641C65.4102 84.1537 65.891 82.9926 66.747 82.1368C67.6028 81.2808 68.7638 80.8 69.9742 80.8Z" stroke="#41A9E0" stroke-opacity="0.1" stroke-width="2" stroke-miterlimit="10"/>
<path d="M143.512 152.062H151.814V159.616H159.692V168.292H167.364V175.086H174.914V181.064H190.5V189.032H143.512V152.062Z" stroke="#41A9E0" stroke-opacity="0.1" stroke-width="2" stroke-miterlimit="10"/>
<path d="M145.078 135.336H151.868H152.074L159.704 142.968L167.396 150.658L174.916 158.178L178.472 161.734" stroke="#41A9E0" stroke-opacity="0.1" stroke-width="2" stroke-miterlimit="10"/>
<path d="M151.868 159.616V135.336" stroke="#41A9E0" stroke-opacity="0.1" stroke-width="2" stroke-miterlimit="10"/>
<path d="M174.916 175.088V158.178" stroke="#41A9E0" stroke-opacity="0.1" stroke-width="2" stroke-miterlimit="10"/>
<path d="M159.704 163.016V142.966" stroke="#41A9E0" stroke-opacity="0.1" stroke-width="2" stroke-miterlimit="10"/>
<path d="M167.364 150.658V168.956" stroke="#41A9E0" stroke-opacity="0.1" stroke-width="2" stroke-miterlimit="10"/>
<path d="M75.5259 172.426V177.552" stroke="#41A9E0" stroke-opacity="0.1" stroke-width="2" stroke-miterlimit="10"/>
<path d="M67.9302 177.552V174.4C68.2522 175.324 69.1182 176.13 70.2342 176.528C69.8722 173.888 69.1642 169.728 67.9302 166.006" stroke="#41A9E0" stroke-opacity="0.1" stroke-width="2" stroke-miterlimit="10"/>
<path d="M75.5262 162.16V118.2H67.9302V160.184" stroke="#41A9E0" stroke-opacity="0.1" stroke-width="2" stroke-miterlimit="10"/>
<path d="M67.9302 174.404V177.552" stroke="#41A9E0" stroke-opacity="0.1" stroke-width="2" stroke-miterlimit="10"/>
<path d="M67.93 160.184V118.2H20.646V189.036H67.316H67.93" stroke="#41A9E0" stroke-opacity="0.1" stroke-width="2" stroke-miterlimit="10"/>
<path d="M35.0278 128.574V156.252C35.0278 158.75 37.0524 160.774 39.5498 160.774H50.1498C52.6472 160.774 54.6718 158.75 54.6718 156.252V128.574C54.6718 126.077 52.6472 124.052 50.1498 124.052H39.5498C37.0524 124.052 35.0278 126.077 35.0278 128.574Z" stroke="#41A9E0" stroke-opacity="0.1" stroke-width="2" stroke-miterlimit="10"/>
<path d="M37.8218 130.15V137.574C37.8218 139.334 39.2482 140.76 41.0078 140.76H48.7118C50.4714 140.76 51.8978 139.334 51.8978 137.574V130.15C51.8978 128.391 50.4714 126.964 48.7118 126.964H41.0078C39.2482 126.964 37.8218 128.391 37.8218 130.15Z" stroke="#41A9E0" stroke-opacity="0.1" stroke-width="2" stroke-miterlimit="10"/>
<path d="M37.834 147.368V154.77C37.834 156.53 39.2604 157.956 41.02 157.956H48.7C50.4596 157.956 51.886 156.53 51.886 154.77V147.368C51.886 145.609 50.4596 144.182 48.7 144.182H41.02C39.2604 144.182 37.834 145.609 37.834 147.368Z" stroke="#41A9E0" stroke-opacity="0.1" stroke-width="2" stroke-miterlimit="10"/>
<path d="M35.7698 164.964H27.8818C27.6178 164.964 27.4038 165.178 27.4038 165.442V169.362C27.4038 169.626 27.6178 169.84 27.8818 169.84H35.7698C36.0338 169.84 36.2478 169.626 36.2478 169.362V165.442C36.2478 165.178 36.0338 164.964 35.7698 164.964Z" stroke="#41A9E0" stroke-opacity="0.1" stroke-width="2" stroke-miterlimit="10"/>
<path d="M46.1541 164.964H38.2661C38.0021 164.964 37.7881 165.178 37.7881 165.442V169.362C37.7881 169.626 38.0021 169.84 38.2661 169.84H46.1541C46.4181 169.84 46.6321 169.626 46.6321 169.362V165.442C46.6321 165.178 46.4181 164.964 46.1541 164.964Z" stroke="#41A9E0" stroke-opacity="0.1" stroke-width="2" stroke-miterlimit="10"/>
<path d="M56.5379 164.964H48.6499C48.3859 164.964 48.1719 165.178 48.1719 165.442V169.362C48.1719 169.626 48.3859 169.84 48.6499 169.84H56.5379C56.8019 169.84 57.0159 169.626 57.0159 169.362V165.442C57.0159 165.178 56.8019 164.964 56.5379 164.964Z" stroke="#41A9E0" stroke-opacity="0.1" stroke-width="2" stroke-miterlimit="10"/>
<path d="M41.2459 171.786H33.3579C33.0939 171.786 32.8799 172 32.8799 172.264V176.184C32.8799 176.448 33.0939 176.662 33.3579 176.662H41.2459C41.5099 176.662 41.7239 176.448 41.7239 176.184V172.264C41.7239 172 41.5099 171.786 41.2459 171.786Z" stroke="#41A9E0" stroke-opacity="0.1" stroke-width="2" stroke-miterlimit="10"/>
<path d="M51.594 171.786H43.706C43.442 171.786 43.228 172 43.228 172.264V176.184C43.228 176.448 43.442 176.662 43.706 176.662H51.594C51.858 176.662 52.072 176.448 52.072 176.184V172.264C52.072 172 51.858 171.786 51.594 171.786Z" stroke="#41A9E0" stroke-opacity="0.1" stroke-width="2" stroke-miterlimit="10"/>
<path d="M15.152 109.166H75.552V118.124H10.5V113.82C10.5005 112.586 10.9908 111.403 11.863 110.53C12.7352 109.658 13.9182 109.167 15.152 109.166Z" stroke="#41A9E0" stroke-opacity="0.1" stroke-width="2" stroke-miterlimit="10"/>
<path d="M71.7998 168.012C72.2138 167.676 72.6938 167.366 73.0258 166.996C73.9578 165.954 73.5998 164.622 74.1978 163.478C74.9258 162.078 77.2138 161.108 79.4638 161.236C79.2508 161.895 79.1046 162.573 79.0278 163.26C78.9618 163.872 79.1218 164.552 78.9458 165.146C78.6598 166.098 77.1318 166.676 76.9458 167.654C76.7818 168.518 77.7938 169.326 77.6258 170.206C77.4478 171.15 75.9978 171.672 75.4638 172.506C75.0278 173.186 75.2338 173.962 75.0078 174.684C74.7338 175.556 73.7858 176.326 72.5438 176.684L72.4198 176.72C71.9636 176.329 71.5722 175.868 71.2598 175.354" stroke="#41A9E0" stroke-opacity="0.1" stroke-width="2" stroke-miterlimit="10"/>
<path d="M78.0999 162.332C74.7459 165.754 73.1679 172.968 72.5539 176.688C72.5039 177.002 72.4579 177.288 72.4199 177.55" stroke="#41A9E0" stroke-opacity="0.1" stroke-width="2" stroke-miterlimit="10"/>
<path d="M78.3998 179.646L76.8558 188.274C76.813 188.516 76.6864 188.735 76.498 188.893C76.3096 189.051 76.0716 189.138 75.8258 189.138H67.7598C67.5116 189.138 67.2714 189.05 67.0824 188.889C66.8934 188.728 66.7676 188.505 66.7278 188.26L65.2998 179.646H78.3998Z" stroke="#41A9E0" stroke-opacity="0.1" stroke-width="2" stroke-miterlimit="10"/>
<path d="M79.8658 178.684C79.8442 178.946 79.7248 179.191 79.5314 179.369C79.3382 179.547 79.0848 179.646 78.8218 179.646H64.8998C64.6392 179.646 64.388 179.549 64.1952 179.374C64.0026 179.198 63.8822 178.957 63.8578 178.698C63.8438 178.553 63.8604 178.406 63.9064 178.268C63.9524 178.129 64.027 178.002 64.125 177.894C64.2232 177.786 64.3426 177.699 64.4762 177.64C64.6096 177.581 64.7538 177.55 64.8998 177.55H78.8138C78.9594 177.549 79.1034 177.578 79.237 177.636C79.3706 177.694 79.4906 177.779 79.5896 177.885C79.6886 177.992 79.7642 178.118 79.8118 178.256C79.8594 178.393 79.8778 178.539 79.8658 178.684Z" stroke="#41A9E0" stroke-opacity="0.1" stroke-width="2" stroke-miterlimit="10"/>
<path d="M67.93 174.4C67.9064 174.335 67.8864 174.268 67.87 174.2C67.648 173.364 67.846 172.458 67.428 171.674C66.914 170.708 65.526 170.104 65.35 169.008C65.194 167.992 66.166 167.052 66.004 166.05C65.828 164.92 64.36 164.25 64.082 163.144C63.916 162.46 64.068 161.67 64.008 160.96C63.9334 160.168 63.7916 159.384 63.584 158.616C65.244 158.502 66.924 159.14 67.93 160.176C68.2316 160.476 68.4738 160.829 68.644 161.218C69.218 162.54 68.876 164.084 69.772 165.292C70.26 165.946 71.07 166.434 71.486 167.118C71.6252 167.342 71.7226 167.588 71.774 167.846C71.776 167.865 71.7794 167.884 71.784 167.902C71.794 167.938 71.798 167.972 71.804 168.002C71.954 169.014 71.568 170.11 71.692 171.152C71.804 172.016 72.272 172.882 72.004 173.726C71.8162 174.294 71.5668 174.839 71.26 175.352C71.0112 175.795 70.7052 176.202 70.35 176.564C70.31 176.554 70.274 176.538 70.234 176.524C69.872 173.884 69.164 169.724 67.93 166.002" stroke="#41A9E0" stroke-opacity="0.1" stroke-width="2" stroke-miterlimit="10"/>
<path d="M70.3662 177.548C70.3302 177.24 70.2842 176.904 70.2342 176.532C69.8722 173.892 69.1642 169.732 67.9302 166.01C67.1522 163.64 66.1602 161.438 64.9082 159.898" stroke="#41A9E0" stroke-opacity="0.1" stroke-width="2" stroke-miterlimit="10"/>
<path d="M69.772 165.298C69.772 165.298 69.994 161.854 71.852 160.806C73.71 159.758 73.67 165.63 73.67 165.63" stroke="#41A9E0" stroke-opacity="0.1" stroke-width="2" stroke-miterlimit="10"/>
<path d="M71.8 168.012C71.5902 166.705 71.688 165.367 72.086 164.104" stroke="#41A9E0" stroke-opacity="0.1" stroke-width="2" stroke-miterlimit="10"/>
<path d="M99.784 103.578C100.042 103.858 100.191 104.221 100.204 104.601C100.217 104.982 100.092 105.354 99.854 105.65L95.232 113.6L95.07 115.2L93.632 129.65L91.348 152.6C91.334 152.746 91.3041 152.892 91.2781 153.038C91.2641 153.154 91.2481 153.27 91.2281 153.386C91.1981 153.536 91.1621 153.678 91.1281 153.822C91.0941 153.966 91.072 154.06 91.036 154.176C91 154.292 90.9521 154.452 90.9021 154.588L90.78 154.93C90.726 155.066 90.6701 155.196 90.6141 155.33C90.5581 155.464 90.508 155.548 90.454 155.658C90.4 155.768 90.328 155.91 90.254 156.03C90.18 156.15 90.132 156.242 90.068 156.342C90.004 156.442 89.9221 156.578 89.8401 156.694C89.7581 156.81 89.7 156.894 89.63 156.986C89.478 157.186 89.328 157.374 89.162 157.554C89.076 157.654 88.986 157.754 88.896 157.85C88.806 157.946 88.696 158.036 88.604 158.128C88.512 158.22 88.4221 158.298 88.326 158.378C88.23 158.458 88.126 158.55 88.016 158.63C87.906 158.71 87.8161 158.786 87.7141 158.856C87.6121 158.926 87.496 159.008 87.386 159.084C87.276 159.16 87.17 159.218 87.06 159.284C86.95 159.35 86.832 159.416 86.718 159.484C86.604 159.552 86.486 159.6 86.366 159.654C86.246 159.708 86.1341 159.77 86.014 159.82C85.8941 159.87 85.7561 159.922 85.626 159.966C85.4961 160.01 85.3941 160.056 85.2781 160.092C85.0581 160.162 84.832 160.222 84.604 160.274C84.474 160.304 84.348 160.328 84.218 160.348C84.088 160.368 83.966 160.398 83.836 160.42H83.856L85.6401 164.22L87.31 164.236C86.771 164.313 86.2256 164.336 85.682 164.306L88.326 169.944C88.7507 170.848 88.94 171.845 88.8768 172.842C88.8134 173.839 88.4998 174.803 87.9644 175.647C87.4292 176.49 86.6896 177.184 85.8144 177.666C84.9392 178.147 83.9568 178.4 82.958 178.4H79.758C79.6342 178.401 79.5116 178.425 79.3972 178.473C79.2828 178.521 79.179 178.591 79.0918 178.678C79.0044 178.766 78.9354 178.87 78.8884 178.985C78.8414 179.1 78.8174 179.222 78.818 179.346V179.814C79.9102 180.185 80.8356 180.931 81.4288 181.92C82.0222 182.909 82.2449 184.076 82.0573 185.214C81.8697 186.352 81.2839 187.387 80.4047 188.133C79.5253 188.879 78.4094 189.289 77.256 189.289C76.1026 189.289 74.9868 188.879 74.1074 188.133C73.2282 187.387 72.6424 186.352 72.4548 185.214C72.2672 184.076 72.4898 182.909 73.0832 181.92C73.6764 180.931 74.6018 180.185 75.694 179.814V179.346C75.6942 179.222 75.67 179.099 75.6228 178.985C75.5755 178.87 75.506 178.765 75.4182 178.678C75.3306 178.59 75.2264 178.52 75.1118 178.472C74.997 178.425 74.8742 178.4 74.75 178.4H39.44C39.3158 178.4 39.193 178.425 39.0782 178.472C38.9636 178.52 38.8594 178.59 38.7718 178.678C38.684 178.765 38.6146 178.87 38.5672 178.985C38.52 179.099 38.4958 179.222 38.496 179.346V179.814C39.59 180.185 40.5168 180.932 41.1112 181.922C41.7056 182.912 41.929 184.081 41.7412 185.221C41.5536 186.36 40.9672 187.396 40.0868 188.144C39.2062 188.891 38.089 189.301 36.934 189.301C35.779 189.301 34.6618 188.891 33.7812 188.144C32.9008 187.396 32.3144 186.36 32.1268 185.221C31.939 184.081 32.1624 182.912 32.7568 181.922C33.3512 180.932 34.278 180.185 35.372 179.814V179.346C35.372 179.095 35.2724 178.855 35.095 178.677C34.9176 178.5 34.6768 178.4 34.426 178.4H28.938C28.6854 178.4 28.4388 178.324 28.2292 178.184C28.0194 178.043 27.8562 177.843 27.76 177.61C27.6636 177.376 27.6386 177.12 27.6882 176.872C27.7376 176.624 27.8594 176.397 28.038 176.218C28.156 176.1 28.2962 176.006 28.4508 175.942C28.6052 175.878 28.7708 175.846 28.938 175.846H81.808C82.4754 175.846 83.1319 175.677 83.7167 175.356C84.3017 175.034 84.7962 174.571 85.155 174.008C85.5136 173.446 85.7248 172.802 85.769 172.136C85.8132 171.47 85.6892 170.804 85.408 170.198L80.862 160.388L35.3 156.704C35.2652 156.696 35.2296 156.691 35.194 156.688C34.994 156.668 34.794 156.642 34.594 156.608C34.5268 156.6 34.46 156.588 34.394 156.572C34.168 156.532 33.952 156.482 33.734 156.426L33.548 156.372C33.348 156.31 33.148 156.246 32.948 156.172L32.792 156.112C32.61 156.042 32.43 155.962 32.254 155.876C32.1794 155.845 32.1066 155.81 32.036 155.77C31.876 155.69 31.716 155.604 31.56 155.508C30.2472 154.737 29.1588 153.636 28.4026 152.315C27.6462 150.993 27.2482 149.497 27.248 147.974V128.224C27.2484 126.118 28.0084 124.082 29.3884 122.49C30.7686 120.898 32.6764 119.857 34.762 119.558L91.832 111.358L97.454 103.572C97.604 103.414 97.7849 103.288 97.9855 103.202C98.1861 103.116 98.4021 103.072 98.6203 103.072C98.8387 103.073 99.0544 103.118 99.2544 103.205C99.4546 103.292 99.6348 103.419 99.784 103.578Z" fill="white"/>
<path d="M164.734 170.912C161.044 163.256 153.448 149.59 143.016 141.336L142 122.998C142.77 122.96 143.532 122.825 144.268 122.598C145.104 122.462 145.668 122.25 145.868 121.938C146.022 121.678 146.129 121.394 146.186 121.098C146.353 120.733 146.433 120.333 146.418 119.932C146.418 119.732 146.402 119.494 146.398 119.252C146.472 117.236 146.276 114.338 146.04 110.898C145.798 105.938 145.528 101.098 145.522 101.054V101.044C145.522 100.974 145.552 96.6278 145.754 91.8298C146.014 94.5518 147.142 96.2558 148.62 97.3018C150.22 98.6198 152.318 98.9778 154.118 98.9778C155.434 98.975 156.744 98.8022 158.016 98.4638C160.158 97.7958 161.92 96.7298 163.228 95.2098C164.428 94.0538 165.428 92.5798 165.702 90.7678C165.951 89.302 165.872 87.7992 165.47 86.3678C165.116 84.703 164.172 83.2224 162.812 82.1998C162.492 81.9294 162.139 81.701 161.762 81.5198C161.128 81.1518 160.474 80.7958 159.854 80.3878C159.017 79.8026 158.288 79.0764 157.7 78.2418C157.312 77.5284 157.076 76.7426 157.006 75.9338C157.069 74.5826 157.05 73.2288 156.95 71.8798C156.95 71.5978 156.92 71.3158 156.89 71.0398C156.814 70.0738 156.744 69.4058 156.744 69.4058C155.923 67.2924 154.521 65.4542 152.7 64.1038C152.588 64.0138 152.474 63.9278 152.362 63.8418C150.763 62.6746 148.907 61.9104 146.95 61.6138C146.77 61.5878 146.588 61.5678 146.412 61.5538C145.834 61.4596 145.251 61.4076 144.666 61.3978C143.918 61.0848 143.277 60.5644 142.816 59.8978C142.411 59.1622 142.125 58.368 141.966 57.5438C141.74 56.1958 141.72 54.5778 141.608 52.7118C141.625 50.838 141.138 48.994 140.196 47.3738C140.192 47.3612 140.185 47.3496 140.176 47.3398C139.774 46.6646 139.287 46.0442 138.726 45.4938C137.112 43.5818 134.864 42.3858 132.068 43.0838C132.042 43.0838 132.016 43.0998 131.986 43.1098C131.87 43.1098 131.756 43.1098 131.64 43.1298C131.637 43.1288 131.633 43.1288 131.63 43.1298C130.536 43.2208 129.475 43.5542 128.526 44.1058C128.176 44.3084 127.846 44.5426 127.54 44.8058C125.69 46.4058 124.628 48.8798 124.34 51.3298C124.326 51.4298 124.32 51.5298 124.316 51.6298C123.992 52.0204 123.8 52.5034 123.768 53.0098C123.736 53.5022 123.848 53.9934 124.09 54.4236C124.331 54.8538 124.693 55.2048 125.13 55.4338V55.5598C125.161 56.4248 125.35 57.277 125.688 58.0738C126.256 59.4218 127.272 60.9558 128.992 61.2018C129.054 61.2018 129.114 61.2118 129.168 61.2218L130.426 63.4658L130.728 64.7678L131.428 67.7858L131.668 67.6498C131.946 67.4938 132.222 67.3398 132.508 67.1878L132.69 67.5198C131.615 68.1342 130.589 68.8294 129.62 69.5998C127.146 71.4658 124.108 74.3178 121.97 78.2198C120.712 80.4038 119.822 82.7778 119.546 85.2978C119.544 85.3314 119.541 85.3646 119.536 85.3978C119.5 85.6238 119.47 85.8498 119.446 86.0818V84.9798C119.402 84.9798 119.36 84.9598 119.316 84.9558V84.9358C119.162 84.9134 119.009 84.8828 118.858 84.8438L107.33 77.9798C106.813 77.5158 106.438 76.9134 106.252 76.2438C105.933 74.9528 105.21 73.797 104.19 72.9438C103.319 72.2656 102.292 71.8148 101.204 71.6318C101.138 71.6158 101.068 71.6058 101.004 71.5958C101.048 71.4994 101.071 71.3948 101.071 71.2888C101.071 71.1828 101.049 71.078 101.006 70.9814C100.962 70.8846 100.899 70.7982 100.82 70.728C100.74 70.6578 100.647 70.6052 100.546 70.5738L92.0259 67.8838C91.8481 67.8272 91.6555 67.8392 91.4861 67.9172C91.3165 67.9954 91.1825 68.134 91.1099 68.3058L89.1479 72.9478C89.1079 73.0438 89.0883 73.147 89.0905 73.251C89.0927 73.3548 89.1165 73.4572 89.1607 73.5514C89.2047 73.6456 89.2679 73.7294 89.3463 73.7976C89.4247 73.866 89.5165 73.9172 89.6159 73.9478L89.8379 74.0178V74.0378L94.8739 75.5998L94.9659 75.6298C94.9659 75.7298 94.9659 75.8298 94.9759 75.9298C94.9897 76.4076 95.0399 76.8836 95.1259 77.3538C95.1619 77.5538 95.2059 77.7538 95.2559 77.9538C95.2859 78.0638 95.3119 78.1698 95.3519 78.2758L95.3679 78.3318C95.3979 78.4258 95.4279 78.5318 95.4679 78.6218C95.4777 78.6592 95.4897 78.6958 95.5039 78.7318C95.5071 78.733 95.5107 78.733 95.5139 78.7318C95.6387 79.0552 95.7955 79.3654 95.9819 79.6578C96.4211 80.3438 97.0627 80.8764 97.8179 81.1818C98.5319 81.4618 99.2959 81.4078 100.018 81.6938C100.574 81.9262 101.083 82.2568 101.522 82.6698L101.794 82.9658C101.648 83.1838 100.336 85.2098 101.282 85.8478L101.246 85.8638L102.202 86.4638L113.932 94.2098C114.048 94.2998 114.168 94.3858 114.284 94.4698L113.44 95.3998C111.112 96.2238 108.364 97.1238 106.186 97.7478C104.88 98.0798 103.562 98.3718 102.234 98.6078C100.196 98.9598 98.1179 98.9758 96.0919 99.3218C94.6179 99.5638 93.3699 100.938 93.0919 102.476C92.8599 103.728 92.8039 105.076 94.1879 105.72C95.7719 106.456 96.5619 104.202 97.5219 103.402C99.0019 102.15 100.474 103.644 102.014 104.494C102.154 105.318 102.396 106.112 102.582 106.922C102.631 107.209 102.742 107.482 102.908 107.722C103.19 108.084 103.486 108.122 103.748 107.988L103.682 108.044C104.186 107.91 104.694 107.777 105.206 107.644C105.686 107.569 106.159 107.455 106.62 107.302C110.056 106.486 113.718 105.726 117.38 104.806H117.394C117.566 104.762 117.742 104.716 117.912 104.676C117.969 104.674 118.026 104.683 118.08 104.704C118.133 104.724 118.182 104.754 118.224 104.794C118.265 104.833 118.299 104.88 118.322 104.932C118.346 104.984 118.358 105.041 118.36 105.098C118.34 105.36 118.314 105.626 118.29 105.898C118.024 107.07 117.586 110.234 117.09 112.788C116.818 113.92 116.536 114.976 116.264 115.912C115.822 116.912 115.39 117.898 115.526 118.712C115.541 119.075 115.681 119.421 115.924 119.692C116.166 119.963 116.495 120.141 116.854 120.196L117.486 120.292C117.92 120.396 118.654 120.522 119.574 120.654C119.7 121.548 119.836 122.454 119.986 123.334L120.022 123.556C120.128 124.138 120.238 124.732 120.348 125.32V125.336V125.356L120.438 125.838L120.534 126.358L119.804 132.826L119.586 134.8L114.034 183.758L108.194 185.312L103.818 186.48C103.658 186.514 103.506 186.577 103.37 186.666C103.167 186.793 102.999 186.97 102.884 187.18C102.769 187.39 102.71 187.626 102.712 187.866C102.712 188.101 102.773 188.331 102.888 188.536C102.951 188.657 103.03 188.769 103.124 188.868C103.317 189.059 103.562 189.19 103.828 189.246C103.927 189.269 104.028 189.281 104.13 189.28H121.186L122.586 183.762L130.946 150.682L131.384 151.082C131.384 151.082 131.384 151.098 131.4 151.102V151.112L144.22 163.3L144.372 163.434L144.572 163.634L147.242 166.168L147.442 166.354L147.522 166.434C157.492 176.066 157.848 177.324 157.626 177.456H157.5L152.9 187C152.756 187.3 152.722 187.64 152.803 187.962C152.884 188.285 153.074 188.569 153.342 188.766L153.664 189.002C153.953 189.211 154.311 189.303 154.665 189.26C155.02 189.217 155.345 189.042 155.576 188.77L167.254 175.12C167.254 175.12 166.388 174.322 164.734 170.912ZM104.1 107.688C104.16 107.614 104.216 107.537 104.266 107.456C104.268 107.481 104.277 107.505 104.292 107.526L104.1 107.688ZM113.998 95.1998C114.064 95.1698 114.128 95.1438 114.198 95.1178L114.888 94.8478L114.918 94.8618C114.622 94.9718 114.314 95.0878 113.998 95.1998ZM118.68 84.7998C118.083 84.6128 117.533 84.3004 117.066 83.8838L116.428 83.5018L118.792 84.8198C118.752 84.8218 118.716 84.8218 118.68 84.8118V84.7998Z" fill="white"/>
<path d="M115.532 94.9822L115.184 94.8522C115.159 94.839 115.135 94.8242 115.112 94.8082C113.294 93.6322 111.874 91.9722 110.66 90.2082C109.38 88.3462 104.988 86.4302 103.568 84.6662C102.658 83.5502 101.706 82.2662 100.312 81.7102C99.5938 81.4282 98.8258 81.4822 98.1118 81.1982C97.356 80.8946 96.7146 80.3614 96.2778 79.6742C96.0884 79.3812 95.9294 79.0696 95.8038 78.7442C95.7884 78.707 95.7758 78.669 95.7658 78.6302C95.7188 78.5172 95.6808 78.4008 95.6518 78.2822C95.6138 78.1742 95.5858 78.0702 95.5578 77.9602C95.503 77.7628 95.4596 77.5624 95.4278 77.3602C95.3532 76.908 95.3058 76.4518 95.2858 75.9942V75.9722C95.2698 75.5082 95.2758 75.0522 95.2978 74.6062V74.5942H95.2758L93.2338 73.8762C92.952 73.783 92.7006 73.6154 92.5064 73.3912C92.312 73.167 92.1818 72.8942 92.1298 72.6022C92.102 72.4394 92.1074 72.2726 92.1458 72.1122C92.1924 71.9 92.2848 71.7006 92.4164 71.528C92.548 71.3552 92.7156 71.2134 92.9078 71.1122C93.0852 71.018 93.2802 70.9616 93.4806 70.9466C93.6808 70.9314 93.8822 70.9578 94.0718 71.0242L98.1818 72.5162L99.0258 72.8202L99.0478 72.8322C99.0478 72.8322 99.0478 71.5802 100.248 71.6062C101.358 71.6342 105.38 71.9602 106.572 76.3582C106.758 77.0268 107.132 77.628 107.65 78.0902L117.366 83.9082C118.026 84.5068 118.855 84.8874 119.74 84.9982V86.2322C119.739 86.2332 119.737 86.2346 119.737 86.2362C119.736 86.2378 119.736 86.2394 119.736 86.2412C119.736 86.2428 119.736 86.2444 119.737 86.246C119.737 86.2476 119.739 86.249 119.74 86.2502V87.1482L120.512 92.5582L121.056 96.3402C120.346 96.398 119.632 96.3724 118.928 96.2642L118.466 96.0902H118.454L115.532 94.9822Z" fill="white"/>
<path d="M119.612 86.1679V86.1839C119.382 88.2099 119.154 90.5619 118.974 93.1639C117.678 93.7639 116.356 94.2839 115.056 94.8019C115.031 94.7887 115.007 94.7741 114.984 94.7579C114.101 94.1777 113.29 93.4943 112.568 92.7219L101.54 85.8779C102.222 85.5327 102.83 85.0571 103.33 84.4779L103.364 84.4439C105.442 82.2119 107.244 78.4439 107.468 77.9719L107.516 78.0219L117.232 83.8399C117.893 84.4381 118.722 84.8181 119.606 84.9279L119.612 86.1679Z" fill="#543088"/>
<path d="M100.05 74.6879L99.8282 75.2879L99.6162 75.8699L99.5002 76.1999L99.4842 76.2499L99.4622 76.3099C99.41 76.4599 99.3004 76.5831 99.1576 76.6525C99.0148 76.7217 98.8504 76.7317 98.7002 76.6799L95.1842 75.5999H95.1682L90.1162 74.0479L91.4282 70.9459L92.0062 69.5799C92.08 69.4081 92.215 69.2699 92.385 69.1923C92.5552 69.1145 92.7482 69.1031 92.9262 69.1599L99.8882 71.3599C99.6626 71.3085 99.4332 71.2757 99.2022 71.2619C99.0382 71.2521 98.874 71.2789 98.7214 71.3401C98.569 71.4013 98.432 71.4955 98.3202 71.6159C98.2144 71.7361 98.1382 71.8795 98.0976 72.0343C98.057 72.1891 98.053 72.3513 98.0862 72.5079C98.1904 72.9099 98.3972 73.2779 98.6862 73.5759C98.7142 73.6079 98.7422 73.6359 98.7742 73.6679C99.0328 73.9547 99.332 74.2019 99.6622 74.4019C99.6622 74.4019 99.6722 74.4019 99.6842 74.4179C99.7998 74.5163 99.9222 74.6065 100.05 74.6879Z" fill="#41A9E0"/>
<path d="M95.2598 75.6001C95.2598 75.7081 95.2598 75.8241 95.2718 75.9321C95.2862 76.4107 95.337 76.8873 95.4238 77.3581C95.4558 77.5603 95.4992 77.7607 95.5538 77.9581C95.5818 78.0661 95.6078 78.1701 95.6458 78.2781C95.6838 78.3861 95.7238 78.5181 95.7718 78.6381C95.7872 78.6825 95.8052 78.7259 95.8258 78.7681" stroke="black" stroke-width="2" stroke-miterlimit="10"/>
<path d="M101.65 75.0903C101.45 75.0583 101.25 75.0203 101.05 74.9703C100.85 74.9203 100.702 74.8663 100.534 74.8023C100.266 74.6979 100.009 74.5681 99.766 74.4143C99.766 74.4143 99.75 74.4143 99.744 74.3983C99.3786 74.1751 99.05 73.8963 98.77 73.5723C98.4806 73.2745 98.2738 72.9063 98.17 72.5043C98.1334 72.3477 98.1356 72.1847 98.1764 72.0291C98.217 71.8737 98.2952 71.7305 98.404 71.6123C98.516 71.4919 98.653 71.3979 98.8054 71.3367C98.958 71.2755 99.122 71.2487 99.286 71.2583C99.5938 71.2825 99.8994 71.3301 100.2 71.4003C100.63 71.4763 101.06 71.5463 101.486 71.6343C102.575 71.8199 103.601 72.2703 104.474 72.9463C105.492 73.8003 106.214 74.9549 106.536 76.2443C106.72 76.9135 107.092 77.5159 107.608 77.9803L119.734 85.2003" stroke="black" stroke-width="2" stroke-miterlimit="10"/>
<path d="M95.2739 75.9297C95.2739 75.9297 95.6619 78.1117 98.6959 78.0517C98.9311 78.0431 99.1579 77.9627 99.3459 77.8215C99.5341 77.6801 99.6743 77.4845 99.7479 77.2611C99.8215 77.0375 99.8249 76.7969 99.7577 76.5715C99.6905 76.3459 99.5559 76.1465 99.3719 75.9997L99.3319 75.9697" stroke="black" stroke-width="2" stroke-miterlimit="10"/>
<path d="M95.7622 78.6204C95.7622 78.6204 97.2482 80.1664 98.7302 79.4984C100.04 78.8984 99.1442 77.7244 99.1442 77.7244" stroke="black" stroke-width="2" stroke-miterlimit="10"/>
<path d="M99.816 75.9002L99.708 75.8682" stroke="black" stroke-width="2" stroke-miterlimit="10"/>
<path d="M84.1281 160.416C83.4975 160.506 82.8587 160.524 82.2241 160.47L81.2241 160.39L84.1281 160.416Z" fill="#41A9E0" fill-opacity="0.1"/>
<path d="M95.3678 115.21L91.6378 152.61C91.4422 154.565 90.595 156.396 89.2326 157.811C87.8702 159.226 86.0714 160.141 84.1258 160.41C83.4952 160.5 82.8564 160.519 82.2218 160.464L81.2218 160.384L35.5878 156.698C34.2654 156.595 32.9844 156.189 31.8438 155.512C31.2922 154.353 31.0072 153.084 31.0098 151.8V150.93L72.9358 154.33L73.9358 154.412C74.5704 154.465 75.209 154.446 75.8398 154.358C77.785 154.088 79.5832 153.173 80.9454 151.758C82.3078 150.343 83.1552 148.512 83.3518 146.558L86.3518 116.528L95.3678 115.21Z" fill="#41A9E0"/>
<path d="M86.3479 116.506L83.3479 146.536C83.1513 148.49 82.3039 150.322 80.9415 151.736C79.5793 153.151 77.7811 154.067 75.8359 154.336C75.2051 154.425 74.5667 154.443 73.9319 154.39L72.9319 154.308L31.0059 150.908V132.046C31.0069 129.939 31.7667 127.903 33.1461 126.311C34.5257 124.718 36.4327 123.676 38.5179 123.374L86.3479 116.506Z" fill="#41A9E0" fill-opacity="0.1"/>
<path d="M87.6081 164.238C86.9769 164.328 86.3375 164.346 85.7021 164.292L84.7021 164.212L87.6081 164.238Z" fill="#41A9E0" fill-opacity="0.1"/>
<path d="M84.1522 160.416L88.6242 169.948C89.0478 170.852 89.2366 171.849 89.1728 172.845C89.109 173.841 88.795 174.806 88.2596 175.648C87.724 176.491 86.9846 177.185 86.1098 177.666C85.2348 178.147 84.2526 178.4 83.2542 178.4H80.0542C79.9304 178.4 79.8076 178.424 79.6932 178.471C79.5786 178.519 79.4746 178.588 79.3868 178.675C79.2992 178.763 79.2296 178.867 79.1822 178.981C79.1346 179.096 79.1102 179.218 79.1102 179.342V183.99C79.1102 184.404 78.9456 184.802 78.6528 185.095C78.3598 185.388 77.9624 185.552 77.5482 185.552C77.134 185.552 76.7366 185.388 76.4438 185.095C76.1508 184.802 75.9862 184.404 75.9862 183.99V179.34C75.9864 179.216 75.9622 179.093 75.9148 178.979C75.8674 178.864 75.798 178.76 75.7102 178.673C75.6224 178.585 75.5182 178.516 75.4036 178.469C75.289 178.422 75.1662 178.398 75.0422 178.398H39.7342C39.6104 178.398 39.4878 178.422 39.3734 178.469C39.259 178.517 39.155 178.586 39.0676 178.674C38.98 178.761 38.9106 178.865 38.8634 178.979C38.8162 179.094 38.792 179.216 38.7922 179.34V183.988C38.7778 184.393 38.6068 184.776 38.3152 185.058C38.0236 185.339 37.6344 185.496 37.2292 185.496C36.824 185.496 36.4348 185.339 36.1432 185.058C35.8518 184.776 35.6806 184.393 35.6662 183.988V179.34C35.6664 179.216 35.6422 179.094 35.595 178.979C35.5478 178.865 35.4784 178.761 35.3908 178.674C35.3034 178.586 35.1994 178.517 35.085 178.469C34.9706 178.422 34.848 178.398 34.7242 178.398H29.2362C28.9058 178.385 28.5932 178.245 28.364 178.006C28.1348 177.768 28.0068 177.45 28.0068 177.119C28.0068 176.788 28.1348 176.471 28.364 176.232C28.5932 175.994 28.9058 175.853 29.2362 175.84H82.1002C82.7666 175.839 83.4222 175.671 84.0064 175.35C84.5908 175.03 85.085 174.567 85.4434 174.005C85.802 173.443 86.0136 172.801 86.0584 172.136C86.1032 171.471 85.98 170.805 85.7002 170.2L81.1542 160.4" fill="#543088"/>
<path d="M82.2221 160.47L35.5881 156.7C33.3947 156.523 31.3485 155.527 29.8565 153.91C28.3645 152.292 27.5359 150.173 27.5361 147.972V128.224C27.5367 126.118 28.2965 124.082 29.6761 122.49C31.0559 120.898 32.9629 119.856 35.0481 119.556L92.1161 111.356L97.7421 103.566C97.8927 103.407 98.0745 103.28 98.2761 103.194C98.4777 103.108 98.6949 103.064 98.9141 103.066C99.1333 103.067 99.3499 103.113 99.5505 103.202C99.7511 103.29 99.9313 103.419 100.08 103.58C100.336 103.861 100.484 104.224 100.497 104.603C100.51 104.983 100.388 105.355 100.152 105.652L95.5241 113.61L91.6421 152.61C91.4143 154.893 90.2999 156.995 88.5383 158.465C86.7767 159.935 84.5089 160.655 82.2221 160.47Z" stroke="black" stroke-width="2" stroke-miterlimit="10"/>
<path d="M82.4259 184.414C82.4277 185.309 82.1825 186.188 81.7171 186.953C81.2519 187.718 80.5845 188.34 79.7885 188.751C78.9925 189.161 78.0989 189.344 77.2057 189.279C76.3125 189.214 75.4545 188.904 74.7261 188.383C73.9977 187.862 73.4271 187.151 73.0771 186.326C72.7271 185.502 72.6113 184.597 72.7423 183.711C72.8733 182.826 73.2463 181.993 73.8199 181.305C74.3935 180.618 75.1459 180.102 75.9939 179.814V183.99C75.9939 184.404 76.1585 184.801 76.4513 185.094C76.7443 185.387 77.1417 185.552 77.5559 185.552C77.9701 185.552 78.3675 185.387 78.6603 185.094C78.9533 184.801 79.1179 184.404 79.1179 183.99V179.812C80.0821 180.136 80.9201 180.754 81.5137 181.58C82.1073 182.406 82.4263 183.397 82.4259 184.414Z" stroke="black" stroke-width="2" stroke-miterlimit="10"/>
<path d="M42.1002 184.414C42.1018 185.309 41.8566 186.188 41.3912 186.952C40.9258 187.717 40.2586 188.339 39.4626 188.749C38.6668 189.159 37.7732 189.341 36.8804 189.276C35.9874 189.211 35.1298 188.901 34.4018 188.38C33.6738 187.859 33.1038 187.147 32.7542 186.323C32.4048 185.498 32.2894 184.594 32.421 183.708C32.5526 182.823 32.9258 181.99 33.4998 181.303C34.0738 180.616 34.8262 180.101 35.6742 179.814V183.99C35.6748 184.404 35.8398 184.802 36.133 185.095C36.4262 185.387 36.8238 185.552 37.2382 185.552C37.6524 185.552 38.0498 185.387 38.3428 185.094C38.6356 184.801 38.8002 184.404 38.8002 183.99V179.812C39.7634 180.136 40.6002 180.755 41.1924 181.581C41.7846 182.407 42.1022 183.398 42.1002 184.414Z" stroke="black" stroke-width="2" stroke-miterlimit="10"/>
<path d="M84.1522 160.416L88.6242 169.948C89.0478 170.852 89.2366 171.849 89.1728 172.845C89.109 173.841 88.795 174.806 88.2596 175.648C87.724 176.491 86.9846 177.185 86.1098 177.666C85.2348 178.147 84.2526 178.4 83.2542 178.4H80.0542C79.9304 178.4 79.8076 178.424 79.6932 178.471C79.5786 178.519 79.4746 178.588 79.3868 178.675C79.2992 178.763 79.2296 178.867 79.1822 178.981C79.1346 179.096 79.1102 179.218 79.1102 179.342V183.99C79.1102 184.404 78.9456 184.802 78.6528 185.095C78.3598 185.388 77.9624 185.552 77.5482 185.552C77.134 185.552 76.7366 185.388 76.4438 185.095C76.1508 184.802 75.9862 184.404 75.9862 183.99V179.34C75.9864 179.216 75.9622 179.093 75.9148 178.979C75.8674 178.864 75.798 178.76 75.7102 178.673C75.6224 178.585 75.5182 178.516 75.4036 178.469C75.289 178.422 75.1662 178.398 75.0422 178.398H39.7342C39.6104 178.398 39.4878 178.422 39.3734 178.469C39.259 178.517 39.155 178.586 39.0676 178.674C38.98 178.761 38.9106 178.865 38.8634 178.979C38.8162 179.094 38.792 179.216 38.7922 179.34V183.988C38.7778 184.393 38.6068 184.776 38.3152 185.058C38.0236 185.339 37.6344 185.496 37.2292 185.496C36.824 185.496 36.4348 185.339 36.1432 185.058C35.8518 184.776 35.6806 184.393 35.6662 183.988V179.34C35.6664 179.216 35.6422 179.094 35.595 178.979C35.5478 178.865 35.4784 178.761 35.3908 178.674C35.3034 178.586 35.1994 178.517 35.085 178.469C34.9706 178.422 34.848 178.398 34.7242 178.398H29.2362C28.9058 178.385 28.5932 178.245 28.364 178.006C28.1348 177.768 28.0068 177.45 28.0068 177.119C28.0068 176.788 28.1348 176.471 28.364 176.232C28.5932 175.994 28.9058 175.853 29.2362 175.84H82.1002C82.7666 175.839 83.4222 175.671 84.0064 175.35C84.5908 175.03 85.085 174.567 85.4434 174.005C85.802 173.443 86.0136 172.801 86.0584 172.136C86.1032 171.471 85.98 170.805 85.7002 170.2L81.1542 160.4" stroke="black" stroke-width="2" stroke-miterlimit="10"/>
<path d="M100.164 74.6325L99.7001 75.8685L99.5741 76.2005L99.5361 76.3105C99.4839 76.4575 99.3763 76.5785 99.2361 76.6477C99.0961 76.7167 98.9347 76.7285 98.7861 76.6805L95.2601 75.6005L89.9001 73.9525C89.8009 73.9217 89.7091 73.8705 89.6307 73.8023C89.5523 73.7341 89.4889 73.6501 89.4449 73.5559C89.4009 73.4619 89.3769 73.3595 89.3747 73.2555C89.3725 73.1517 89.3921 73.0483 89.4321 72.9525L91.3921 68.3085C91.4661 68.1369 91.6013 67.9989 91.7713 67.9213C91.9413 67.8437 92.1339 67.8321 92.3121 67.8885L100.83 70.5785C100.932 70.6093 101.026 70.6615 101.106 70.7313C101.186 70.8011 101.25 70.8873 101.295 70.9837C101.339 71.0803 101.363 71.1853 101.363 71.2915C101.364 71.3979 101.343 71.5031 101.3 71.6005" stroke="black" stroke-width="2" stroke-miterlimit="10"/>
<path d="M98.3999 72.1222L90.8179 69.6682" stroke="black" stroke-width="2" stroke-miterlimit="10"/>
<path d="M107.616 77.9797C107.616 77.9797 104.7 84.3217 101.874 85.8277C101.853 85.8381 101.836 85.8535 101.823 85.8729C101.811 85.8921 101.803 85.9143 101.802 85.9373C101.801 85.9603 101.806 85.9831 101.816 86.0037C101.827 86.0241 101.843 86.0415 101.862 86.0537L115.112 94.7997" stroke="black" stroke-width="2" stroke-miterlimit="10"/>
<path d="M102.1 82.9602C102.1 82.9602 100.464 85.3442 101.672 85.9282" stroke="black" stroke-width="2" stroke-miterlimit="10"/>
<path d="M103.006 98.5204C103.006 98.5204 102.336 98.5504 103.68 100.242C105.024 101.934 105.48 105.154 104.566 107.456C104.566 107.456 104.526 108.056 106.918 107.308C109.31 106.56 117.7 104.81 117.7 104.81C117.7 104.81 119.01 104.12 118.604 105.868C118.198 107.616 117.404 114.046 116.574 115.9C115.744 117.754 114.936 119.592 117.792 120.288C120.648 120.984 136.228 122.448 136.228 122.448C136.228 122.448 146.828 124.798 146.716 119.93C146.604 115.062 145.826 101.048 145.826 101.048C145.826 101.048 145.89 90.2304 146.604 83.8344C146.604 83.8344 148.468 67.5844 142.926 66.0824C137.384 64.5804 135.502 66.1784 134.096 66.9364C132.69 67.6944 120.296 74.1724 119.62 87.5364C119.62 87.5364 119.574 92.7004 118.528 93.4704C117.482 94.2404 105.242 98.4744 103.006 98.5204Z" fill="#543088"/>
<path d="M122.874 183.758L121.474 189.276H104.428C104.054 189.273 103.696 189.126 103.428 188.864C103.249 188.684 103.122 188.46 103.059 188.215C102.996 187.969 103 187.711 103.071 187.468C103.142 187.224 103.276 187.004 103.461 186.831C103.645 186.657 103.873 186.536 104.12 186.48L114.336 183.758C114.336 183.758 120.25 185.836 122.874 183.758Z" fill="#543088"/>
<path d="M142.682 122.754C142.552 122.754 142.416 122.766 142.282 122.766C141.749 126.21 141.156 129.643 140.502 133.064C132.866 131.354 122.316 134.386 122.316 134.386L122.538 135.586C120.798 135.68 120.264 135.038 120.264 135.038L119.88 134.8L120.838 126.346L120.654 125.346V125.314C120.54 124.726 120.432 124.132 120.328 123.544L120.29 123.328C120.138 122.418 119.996 121.504 119.87 120.594L119.996 120.612C120.04 120.612 120.082 120.628 120.132 120.632L120.24 120.65C120.334 120.66 120.426 120.676 120.518 120.688C120.718 120.714 120.976 120.752 121.264 120.796C121.378 120.796 121.498 120.824 121.624 120.846C125.96 121.448 137.256 122.918 142.682 122.754Z" fill="#41A9E0"/>
<path d="M131.262 150.574L131.236 150.678L122.874 183.758L121.474 189.276H104.428C104.054 189.274 103.695 189.126 103.428 188.864C103.249 188.685 103.122 188.46 103.059 188.215C102.996 187.969 103 187.711 103.071 187.467C103.141 187.224 103.276 187.004 103.46 186.83C103.645 186.656 103.873 186.535 104.12 186.478L114.336 183.758L119.88 134.8L120.838 126.346" stroke="black" stroke-width="2" stroke-miterlimit="10"/>
<path d="M105.004 104.954C104.404 104.982 104.068 104.988 104.068 104.988C103.468 105.03 102.886 104.802 102.31 104.492C100.77 103.642 99.2941 102.152 97.8141 103.404C96.8561 104.204 96.0661 106.456 94.4821 105.722C93.1001 105.08 93.1541 103.722 93.3821 102.478C93.6661 100.938 94.9121 99.5664 96.3821 99.3204C98.4061 98.9784 100.486 98.9624 102.522 98.6084C106.623 97.8584 110.637 96.691 114.5 95.1244C118.79 93.4144 123.47 91.6524 126.638 88.1404C130.4 83.9824 132.79 78.5404 134.096 73.1284" stroke="black" stroke-width="2" stroke-miterlimit="10"/>
<path d="M126.186 50.7677C126.186 50.7677 126.56 44.5417 132.372 43.0837C138.184 41.6257 141.652 48.3777 141.914 52.7117C142.176 57.0457 141.914 60.0357 144.968 61.3997C144.968 61.3997 153.794 61.2917 157.046 69.3997C157.046 69.3997 157.486 73.3737 157.306 75.9317C157.126 78.4897 160.318 80.7317 162.056 81.5197C163.794 82.3077 166.818 85.5197 165.996 90.7657C165.174 96.0117 158.312 98.4577 158.312 98.4577C158.312 98.4577 152.448 100.194 148.912 97.2957C145.158 94.2217 146.22 88.5997 146.22 88.5997C146.22 88.5997 148.246 70.3157 144.558 67.3117C142.528 65.6577 141.606 65.8077 140.172 64.9357C138.662 64.0177 138.122 63.7357 137.616 63.0897C136.632 61.8237 134.888 59.9117 136.15 55.4017C137.412 50.8917 136.15 53.1657 134.95 52.5297C134.95 52.5297 133.478 50.2577 131.256 51.8637C129.034 53.4697 129.576 49.5517 129.576 49.5517L128.6 50.8637C128.6 50.8637 127.074 51.1697 126.186 50.7677Z" fill="#41A9E0"/>
<path d="M124.818 52.9203C124.764 50.0143 125.848 46.7503 128.106 44.8143C128.412 44.5503 128.742 44.3141 129.09 44.1083C131.53 42.6663 134.92 42.7963 137.348 44.1983C138.639 44.9653 139.716 46.0451 140.48 47.3383L140.5 47.3743C141.441 48.9949 141.929 50.8385 141.914 52.7123C141.926 55.1483 141.94 58.4543 143.504 60.4763C144.492 61.7563 145.806 61.3963 147.252 61.6143C149.21 61.9085 151.067 62.6737 152.664 63.8443C154.82 65.4303 156.616 67.7963 157.112 70.4683C157.59 73.0403 156.656 75.9403 158.042 78.3183C159.058 80.0563 160.99 80.8503 162.626 81.8643C165.91 83.9243 166.586 87.9163 165.546 91.4283C164.462 95.0903 161.914 97.3403 158.312 98.4623C158.312 98.4623 146.14 101.462 145.99 90.7943" stroke="black" stroke-width="2" stroke-miterlimit="10"/>
<path d="M129.406 49.3682C129.28 50.2242 128.76 51.0142 127.834 51.2502C126.79 51.5162 126.234 52.5322 125.942 53.5542C125.524 55.0536 125.632 56.6506 126.248 58.0802C126.818 59.4242 127.836 60.9602 129.556 61.2062C132.704 61.6542 134.27 60.3282 134.27 60.3282" stroke="black" stroke-width="2" stroke-miterlimit="10"/>
<path d="M132.028 53.9419C132.327 53.9419 132.57 53.6993 132.57 53.3999C132.57 53.1005 132.327 52.8579 132.028 52.8579C131.728 52.8579 131.486 53.1005 131.486 53.3999C131.486 53.6993 131.728 53.9419 132.028 53.9419Z" fill="black"/>
<path d="M127.274 53.5864C127.573 53.5864 127.816 53.3436 127.816 53.0444C127.816 52.745 127.573 52.5024 127.274 52.5024C126.975 52.5024 126.732 52.745 126.732 53.0444C126.732 53.3436 126.975 53.5864 127.274 53.5864Z" fill="black"/>
<path d="M129.406 49.3682C129.287 49.8826 129.305 50.4192 129.46 50.9242C129.484 51.006 129.515 51.0856 129.552 51.1622C129.928 52.0442 130.802 52.7482 132.352 52.6602C135.718 52.4742 136.918 52.2602 136.644 53.8062C136.531 54.3532 136.367 54.8888 136.156 55.4062C135.786 56.3882 135.528 58.0742 135.908 59.9102C136.346 62.0562 137.386 64.2482 140.892 65.4682" stroke="black" stroke-width="2" stroke-miterlimit="10"/>
<path d="M129.7 53.5322C129.7 53.5322 129.132 55.6082 129.19 55.9142C129.248 56.2202 129.974 55.9822 129.974 55.9822" stroke="black" stroke-width="2" stroke-miterlimit="10"/>
<path d="M130.1 57.8846C131.186 58.4706 132.446 58.1006 132.938 57.1206" stroke="black" stroke-width="2" stroke-miterlimit="10"/>
<path d="M134.689 55.555C135.623 54.5654 135.559 52.9874 134.545 52.0306C133.532 51.0736 131.953 51.1002 131.019 52.0896C130.084 53.0792 130.149 54.6572 131.162 55.614C132.176 56.571 133.755 56.5444 134.689 55.555Z" stroke="black" stroke-width="2" stroke-miterlimit="10"/>
<path d="M128.383 54.976C129.318 53.9864 129.253 52.4086 128.239 51.4516C127.226 50.4948 125.647 50.5212 124.713 51.5108C123.779 52.5004 123.843 54.0782 124.857 55.0352C125.87 55.992 127.449 55.9656 128.383 54.976Z" stroke="black" stroke-width="2" stroke-miterlimit="10"/>
<path d="M126.5 51.5163C126.554 51.5133 126.608 51.5133 126.662 51.5163C127.124 51.5589 127.551 51.7797 127.852 52.1319C128.154 52.4839 128.307 52.9395 128.278 53.4023C128.253 53.8271 128.065 54.2257 127.754 54.5161C127.443 54.8063 127.032 54.9661 126.606 54.9623C126.552 54.9623 126.498 54.9623 126.444 54.9623C125.983 54.9185 125.557 54.6973 125.255 54.3455C124.954 53.9937 124.801 53.5387 124.828 53.0763C124.854 52.6515 125.042 52.2527 125.353 51.9625C125.664 51.6721 126.075 51.5123 126.5 51.5163ZM126.5 51.1463C125.981 51.1435 125.481 51.3393 125.101 51.6931C124.722 52.0469 124.492 52.5325 124.458 53.0503C124.424 53.6093 124.609 54.1597 124.973 54.5851C125.337 55.0107 125.853 55.2777 126.41 55.3303C126.476 55.3303 126.542 55.3403 126.61 55.3403C127.129 55.3423 127.63 55.1463 128.009 54.7921C128.389 54.4379 128.619 53.9523 128.652 53.4343C128.686 52.8753 128.501 52.3251 128.137 51.8997C127.773 51.4745 127.258 51.2071 126.7 51.1543C126.634 51.1543 126.568 51.1543 126.5 51.1543V51.1463Z" fill="white"/>
<path d="M130.362 53.5925L129.038 53.4705" stroke="black" stroke-width="2" stroke-miterlimit="10"/>
<path d="M132.798 52.0422H132.964C133.439 52.087 133.879 52.3146 134.19 52.6774C134.501 53.04 134.658 53.5094 134.63 53.9862C134.601 54.4226 134.407 54.8316 134.086 55.129C133.765 55.4266 133.343 55.5902 132.906 55.5862C132.85 55.5862 132.796 55.5862 132.74 55.5862C132.264 55.5414 131.825 55.3136 131.514 54.9508C131.203 54.5882 131.045 54.119 131.074 53.6422C131.102 53.2056 131.296 52.7962 131.617 52.4986C131.938 52.201 132.36 52.0376 132.798 52.0422ZM132.798 51.6722C132.265 51.6684 131.751 51.8686 131.361 52.2314C130.971 52.5942 130.734 53.0926 130.7 53.6242C130.665 54.1968 130.854 54.7606 131.227 55.1966C131.601 55.6324 132.129 55.9062 132.7 55.9602C132.768 55.9602 132.834 55.9702 132.9 55.9702C133.432 55.9722 133.945 55.7712 134.333 55.408C134.722 55.045 134.958 54.547 134.992 54.0162C135.03 53.4426 134.841 52.8772 134.468 52.4406C134.094 52.004 133.564 51.7312 132.992 51.6802C132.924 51.6802 132.858 51.6802 132.792 51.6802L132.798 51.6722Z" fill="white"/>
<path d="M128.124 54.7304C128.925 53.8814 128.869 52.5274 128 51.7064C127.13 50.8852 125.775 50.9078 124.973 51.7568C124.172 52.6058 124.227 53.9596 125.097 54.7808C125.967 55.602 127.322 55.5794 128.124 54.7304Z" fill="#41A9E0"/>
<path d="M134.438 55.315C135.243 54.462 135.188 53.1018 134.314 52.2768C133.44 51.4518 132.079 51.4746 131.273 52.3276C130.468 53.1806 130.524 54.5408 131.398 55.3658C132.272 56.1908 133.633 56.168 134.438 55.315Z" fill="#41A9E0"/>
<path d="M132.028 67.9578L131.292 64.7738L130.492 61.3398" stroke="black" stroke-width="2" stroke-miterlimit="10"/>
<path d="M167.554 175.128L155.878 188.778C155.647 189.05 155.321 189.225 154.967 189.268C154.613 189.31 154.255 189.218 153.966 189.008L153.646 188.774C153.378 188.578 153.186 188.295 153.105 187.973C153.023 187.651 153.057 187.31 153.2 187.01L157.788 177.462C157.788 177.462 165.088 177.672 165.028 170.906C166.682 174.324 167.554 175.128 167.554 175.128Z" fill="#543088"/>
<path d="M147.822 166.442L147.74 166.36L144.67 163.442L144.522 163.306L131.698 151.106V151.094L131.68 151.078L131.246 150.678L127.348 146.972C125.213 144.939 123.777 142.283 123.244 139.384L122.538 135.6L122.314 134.4L120.838 126.366L120.654 125.366V125.334C120.54 124.746 120.432 124.152 120.328 123.564L120.29 123.348" stroke="black" stroke-width="2" stroke-miterlimit="10"/>
<path d="M119.864 120.6C119.99 121.51 120.132 122.424 120.284 123.334L120.322 123.55C120.426 124.138 120.534 124.732 120.648 125.32V125.352" stroke="black" stroke-width="2" stroke-linejoin="round"/>
<path d="M131.668 151.086L131.684 151.102L131.696 151.114" stroke="black" stroke-width="2" stroke-linejoin="round"/>
<path d="M144.52 163.306L144.668 163.442C145.777 164.482 146.8 165.455 147.738 166.36L147.818 166.442C160.116 178.324 157.786 177.462 157.786 177.462L153.196 187.01C153.053 187.31 153.02 187.651 153.102 187.973C153.184 188.295 153.375 188.578 153.644 188.774L153.964 189.008C154.253 189.217 154.61 189.31 154.965 189.267C155.319 189.225 155.645 189.05 155.876 188.778L167.55 175.128C167.55 175.128 166.68 174.328 165.026 170.906C161.052 162.67 152.566 147.472 140.884 139.552C140.449 139.26 140.11 138.846 139.911 138.362C139.711 137.878 139.659 137.346 139.762 136.832C139.986 135.748 140.198 134.664 140.406 133.576C140.438 133.408 140.47 133.238 140.498 133.07C141.15 129.646 141.743 126.213 142.278 122.772" stroke="black" stroke-width="2" stroke-linejoin="round"/>
<path d="M119.1 93.2141C119.28 90.6141 119.5 88.2601 119.738 86.2141C119.77 85.9041 119.808 85.5981 119.84 85.2981C120.328 80.8401 122.746 76.8161 125.72 73.5541C128.66 70.3301 132.402 67.1961 136.648 65.9261C138.016 65.4951 139.456 65.3395 140.884 65.4681C141.864 65.5861 142.801 65.9405 143.614 66.5011C144.427 67.0617 145.091 67.8117 145.55 68.6861C146.119 69.8041 146.482 71.0153 146.622 72.2621C146.622 72.2781 146.622 72.2941 146.622 72.3121C146.872 74.3121 146.73 76.4101 146.752 78.3961C146.79 82.5401 146.436 86.6761 145.978 90.7961" stroke="black" stroke-width="2" stroke-linejoin="round"/>
<path d="M118.744 103.578V103.572" stroke="black" stroke-width="2" stroke-linejoin="round"/>
<path d="M102.528 98.6001C104.422 100.816 105.602 104.05 104.79 106.942C104.59 107.628 103.866 108.558 103.208 107.712C103.042 107.473 102.93 107.199 102.882 106.912C102.696 106.098 102.452 105.298 102.31 104.472" stroke="black" stroke-width="2" stroke-miterlimit="10"/>
<path d="M103.982 108.04C119.452 103.952 141.358 102.568 146.076 81.0002C146.694 78.1284 146.878 75.1804 146.624 72.2542" stroke="black" stroke-width="2" stroke-miterlimit="10"/>
<path d="M118.7 104.552C118.394 109.712 116.778 115.352 115.886 118.152C115.816 118.369 115.795 118.599 115.822 118.825C115.85 119.052 115.926 119.269 116.046 119.463C116.166 119.657 116.327 119.823 116.517 119.949C116.707 120.075 116.923 120.158 117.148 120.192C117.878 120.306 118.802 120.442 119.864 120.592L119.99 120.61C120.034 120.61 120.076 120.626 120.126 120.63L120.234 120.648C120.328 120.658 120.42 120.674 120.512 120.686C120.752 120.724 121.002 120.756 121.258 120.794C121.372 120.794 121.492 120.822 121.618 120.844C127.818 121.724 137.054 122.874 142.28 122.76C142.416 122.76 142.552 122.76 142.68 122.748L143.08 122.732L143.468 122.71C144.896 122.606 145.868 122.362 146.146 121.932C147.946 119.21 144.606 103.566 146.206 88.5923" stroke="black" stroke-width="2" stroke-miterlimit="10"/>
<path d="M160.306 189.278H13.8599" stroke="black" stroke-width="2" stroke-linejoin="round"/>
<path d="M20.6459 143.42C20.6459 143.42 0.815852 166.678 20.6459 189.036" stroke="#41A9E0" stroke-opacity="0.1" stroke-width="2" stroke-miterlimit="10"/>
</svg>
