<svg width="201" height="200" viewBox="0 0 201 200" fill="none" xmlns="http://www.w3.org/2000/svg">
<path d="M35.9419 91.49C42.5239 82.29 52.3879 78.12 52.3879 78.12C52.7099 77.986 51.3379 65.382 51.3099 64.488C50.8939 49.764 53.3359 34.444 64.4039 23.812C78.2399 10.5299 103.344 7.77789 119.216 18.9679C119.016 18.8199 124.438 14.5459 124.896 14.2719C127.858 12.4841 131.201 11.4212 134.652 11.1699C148.54 10.1699 161.276 21.082 166.486 34.282C171.696 47.482 170.5 77.558 160.942 86.232" stroke="#41A9E0" stroke-opacity="0.1" stroke-width="2" stroke-miterlimit="10"/>
<path d="M30.0078 107.45C30.35 103.827 31.2816 100.283 32.7658 96.96C32.9072 96.644 33.0552 96.3346 33.2098 96.032" stroke="#41A9E0" stroke-opacity="0.1" stroke-width="2" stroke-miterlimit="10"/>
<path d="M47.1719 145.737C45.5719 144.283 44.0899 142.803 42.7319 141.315" stroke="#41A9E0" stroke-opacity="0.1" stroke-width="2" stroke-miterlimit="10"/>
<path d="M180.5 102.496C180.512 103.496 180.5 104.516 180.452 105.538C180.168 111.86 178.814 118.394 175.43 123.718C174.814 124.7 174.127 125.636 173.374 126.518C166.174 125.568 165.1 118.224 156.774 114.072C146.8 109.086 130.468 110.872 130.468 110.872L138.514 103.45C138.084 81.0979 121.674 82.4699 121.674 82.4699L120.84 84.5119C121.473 82.6625 122.114 80.9379 122.762 79.3379L122.798 79.2539C130.398 60.3779 138.272 58.0379 144.398 55.3119C145.861 54.9643 147.36 54.7857 148.864 54.7799C164.526 54.6959 173.718 70.6459 177.738 83.4859C178.738 86.6859 180.276 93.5299 180.482 101.226C180.486 101.638 180.5 102.068 180.5 102.496Z" fill="#543088"/>
<path d="M189.3 186.272C188.084 187.946 186.078 188.858 184.01 188.858H160.25C159.337 188.871 158.431 188.693 157.591 188.335C156.751 187.977 155.995 187.448 155.372 186.78C155.288 186.695 155.209 186.604 155.136 186.508C154.392 185.586 153.926 184.47 153.794 183.292C153.674 182.21 154.478 181.248 155.566 181.292C155.978 181.308 156.371 181.473 156.671 181.756C156.971 182.039 157.158 182.421 157.198 182.832C157.198 182.918 157.216 183.002 157.228 183.086C157.316 183.574 157.531 184.031 157.85 184.41C158.133 184.744 158.488 185.01 158.888 185.187C159.288 185.364 159.723 185.448 160.16 185.432H184.112C184.541 185.439 184.966 185.354 185.359 185.181C185.751 185.009 186.102 184.753 186.386 184.432C186.707 184.061 186.926 183.613 187.021 183.132C187.116 182.651 187.085 182.153 186.93 181.688L176.232 149.878C176.145 149.634 176.041 149.396 175.922 149.166C175.294 147.84 174.299 146.721 173.054 145.943C171.81 145.165 170.368 144.761 168.9 144.778C164.396 144.832 158.678 144.844 158.14 144.844C146.154 144.8 140.7 144.8 137.7 144.88C137.906 144.143 138.278 143.463 138.788 142.892C138.788 142.892 138.8 142.88 138.8 142.874C139.532 142.094 140.533 141.623 141.6 141.556C146.044 141.192 150.444 140.528 154.718 139.368C162.26 137.324 169.454 133.818 174.452 128.18C176.885 125.451 178.724 122.246 179.852 118.768C180.728 116.007 181.28 113.153 181.496 110.264C181.574 109.352 181.622 108.433 181.64 107.508V107.466C181.64 107.254 181.652 107.036 181.652 106.824C181.679 105.506 181.619 104.188 181.472 102.878C182.778 102.888 184.029 103.406 184.96 104.322C185.042 104.538 185.102 104.761 185.14 104.988C185.176 105.204 185.194 105.422 185.194 105.64V131.51C185.196 133.277 184.848 135.027 184.168 136.658C183.489 138.289 182.492 139.769 181.236 141.012C179.156 143.072 178.564 146.198 179.55 148.948L190.182 180.584C190.503 181.533 190.591 182.546 190.437 183.536C190.284 184.526 189.894 185.465 189.3 186.272Z" fill="#41A9E0"/>
<path d="M42.7339 185.474V112.948H47.1719V185.504L42.7339 185.474Z" fill="#543088"/>
<path d="M130.47 110.862C133.648 110.524 137.324 110.124 140.854 110.204" stroke="black" stroke-width="2" stroke-miterlimit="10"/>
<path d="M113.158 114.065C107.53 115.485 102.054 117.535 97.3821 120.943C89.5421 126.655 85.9581 137.311 89.1621 146.543C89.1621 146.555 101.762 182.901 101.762 182.901H98.4461C97.7315 182.901 97.0239 183.042 96.3641 183.317C95.7043 183.592 95.1055 183.994 94.6021 184.501C93.6161 185.481 93.1301 187.115 93.1301 188.615H122.976L111.634 151.515C111.351 150.601 111.288 149.633 111.449 148.689C111.609 147.745 111.99 146.853 112.56 146.084C113.13 145.314 113.872 144.69 114.728 144.261C115.584 143.833 116.529 143.611 117.486 143.615C123.948 143.797 129.95 144.045 136.486 143.761" stroke="black" stroke-width="2" stroke-miterlimit="10"/>
<path d="M180.546 105.84V105.8C180.256 97.9998 179.864 90.3038 177.73 83.4798C173.71 70.6398 164.518 54.6898 148.856 54.7738C147.352 54.7796 145.854 54.9582 144.39 55.3058C134.066 57.7598 126.896 68.3378 122.79 79.2478L122.754 79.3318C122.362 80.3784 122 81.4224 121.666 82.4638C121.44 83.1646 121.161 83.8472 120.832 84.5058C119.574 87.0404 117.581 89.1364 115.112 90.5192C112.643 91.902 109.815 92.5072 106.996 92.2558C88.0362 90.5318 63.0482 89.5478 55.1782 102.87" stroke="black" stroke-width="2" stroke-miterlimit="10"/>
<path d="M149.52 91.332C146.76 94.664 143.854 97.882 140.85 100.994C134.7 107.37 129.394 114.142 119.85 114.594C112.236 114.96 104.988 112.038 97.7881 110.012C90.0861 107.846 86.1881 106.114 79.0101 103.926C76.9429 103.298 74.7983 102.962 72.6381 102.926L65.4121 102.982" stroke="black" stroke-width="2" stroke-miterlimit="10"/>
<path d="M121.336 183.37C122.024 183.062 122.77 182.903 123.524 182.906H126.848C126.848 182.906 119.9 169.4 114.344 160.41" stroke="black" stroke-width="2" stroke-miterlimit="10"/>
<path d="M125.9 143.792L149.14 188.858H122.852H118.084" stroke="black" stroke-width="2" stroke-miterlimit="10"/>
<path d="M189.3 186.272C188.084 187.946 186.078 188.858 184.01 188.858H160.25C158.28 188.858 156.358 188.042 155.13 186.502C154.385 185.58 153.92 184.464 153.788 183.286C153.668 182.204 154.472 181.242 155.56 181.286C155.972 181.302 156.365 181.467 156.665 181.75C156.965 182.033 157.152 182.415 157.192 182.826C157.24 183.407 157.468 183.958 157.844 184.404C158.131 184.733 158.486 184.995 158.885 185.172C159.284 185.348 159.717 185.435 160.154 185.426H184.112C184.541 185.433 184.966 185.348 185.358 185.175C185.751 185.003 186.101 184.747 186.386 184.426C186.706 184.055 186.925 183.607 187.021 183.126C187.116 182.645 187.085 182.147 186.93 181.682L176.232 149.878C175.69 148.372 174.693 147.072 173.379 146.158C172.066 145.245 170.5 144.762 168.9 144.778C164.396 144.832 158.678 144.844 158.14 144.844C144.794 144.802 139.54 144.802 136.756 144.904C136.712 144.904 136.67 144.895 136.63 144.878C136.59 144.861 136.553 144.837 136.523 144.806C136.493 144.775 136.468 144.739 136.452 144.699C136.436 144.658 136.427 144.615 136.428 144.572C136.424 143.337 136.877 142.145 137.7 141.224C137.703 141.222 137.706 141.219 137.708 141.215C137.71 141.212 137.711 141.208 137.712 141.204C138.444 140.426 139.445 139.956 140.512 139.888C144.956 139.524 149.356 138.86 153.63 137.7C161.172 135.656 168.366 132.15 173.364 126.512C175.797 123.783 177.636 120.578 178.764 117.1C179.637 114.34 180.187 111.487 180.402 108.6C180.48 107.685 180.528 106.767 180.546 105.844V105.8C180.546 105.59 180.558 105.372 180.558 105.16C180.585 103.842 180.525 102.524 180.378 101.214C182.554 101.202 184.748 102.784 185.128 104.992C185.164 105.208 185.182 105.426 185.182 105.644V131.51C185.184 133.277 184.835 135.027 184.156 136.658C183.476 138.289 182.48 139.769 181.224 141.012C179.144 143.072 178.552 146.198 179.538 148.948L190.17 180.584C190.493 181.532 190.582 182.544 190.431 183.535C190.279 184.525 189.891 185.464 189.3 186.272Z" stroke="black" stroke-width="2" stroke-miterlimit="10"/>
<path d="M75.148 107.452H13.246C11.7294 107.452 10.5 108.682 10.5 110.198V110.2C10.5 111.717 11.7294 112.946 13.246 112.946H75.148C76.6646 112.946 77.894 111.717 77.894 110.2V110.198C77.894 108.682 76.6646 107.452 75.148 107.452Z" stroke="black" stroke-width="2" stroke-miterlimit="10"/>
<path d="M57.6178 185.818H32.5878C31.7384 185.818 31.0498 186.506 31.0498 187.356C31.0498 188.205 31.7384 188.894 32.5878 188.894H57.6178C58.4672 188.894 59.1558 188.205 59.1558 187.356C59.1558 186.506 58.4672 185.818 57.6178 185.818Z" stroke="black" stroke-width="2" stroke-miterlimit="10"/>
<path d="M39.272 104.986V105.262C39.312 107.16 41.098 107.45 42.638 107.462L72.41 107.442C73.714 107.442 74.79 106.442 74.792 105.214V105.162C74.768 103.962 73.72 102.984 72.432 102.982C72.432 102.982 55.776 102.922 42.876 102.884C42.644 103.56 42.056 104.084 41.322 104.512C40.6906 104.843 39.9846 105.006 39.272 104.986Z" stroke="black" stroke-width="2" stroke-miterlimit="10"/>
<path d="M22.9001 78.246C22.9063 78.562 22.9967 78.8706 23.1621 79.14L36.9621 102.318C37.1407 102.597 37.3751 102.835 37.6503 103.019C37.9257 103.203 38.2361 103.328 38.5621 103.386C39.1135 103.495 39.6849 103.433 40.2001 103.208C41.0461 102.832 41.5341 102.074 41.5181 101.306C41.5151 101.209 41.5051 101.113 41.4881 101.018C41.4457 100.806 41.3671 100.603 41.2561 100.418L27.4561 77.24C26.8561 76.226 25.3881 75.828 24.2081 76.35C23.3661 76.718 22.8781 77.476 22.9001 78.246Z" stroke="black" stroke-width="2" stroke-miterlimit="10"/>
<path d="M60.2158 102.982C60.2158 102.982 61.8778 101.4 65.6998 98.8882" stroke="black" stroke-width="2" stroke-miterlimit="10"/>
<path d="M73.7679 76.9819L67.7099 83.6999C67.2881 84.1679 66.7025 84.4561 66.0743 84.5049C65.4459 84.5537 64.8229 84.3593 64.3339 83.9619C64.0637 83.7425 63.8433 83.4685 63.6869 83.1577C63.5305 82.8469 63.4417 82.5065 63.4267 82.1589C63.4115 81.8113 63.4703 81.4643 63.5991 81.1411C63.7279 80.8179 63.9239 80.5257 64.1739 80.2839L65.2819 79.2119C65.3239 79.1519 65.3719 79.0979 65.4199 79.0419L66.2199 78.1599L73.0999 70.6839C73.9349 69.7661 74.9865 69.0723 76.1585 68.6657C77.3307 68.2589 78.5861 68.1525 79.8099 68.3559L79.9119 68.3739" stroke="black" stroke-width="2" stroke-miterlimit="10"/>
<path d="M82.3001 78.7999H76.2401C75.5505 78.7999 74.8893 78.5259 74.4017 78.0383C73.9141 77.5507 73.6401 76.8895 73.6401 76.1999C73.6401 75.5103 73.9141 74.8491 74.4017 74.3615C74.8893 73.8739 75.5505 73.5999 76.2401 73.5999H84.8401" stroke="black" stroke-width="2" stroke-miterlimit="10"/>
<path d="M77.6538 78.8C77.5698 79.862 77.1638 80.648 76.5658 81.2C75.0258 82.6 72.2018 82.4461 70.2378 81.4841" stroke="black" stroke-width="2" stroke-miterlimit="10"/>
<path d="M66.23 78.156C64.488 76.058 64.846 73.206 66.2 71C71.79 61.872 82.446 67.494 89.452 71.428C93.6226 73.781 97.6092 76.446 101.378 79.4C104.714 82 107.802 85.112 111.81 86.676C114.21 87.614 117.044 87.838 119.432 86.756" stroke="black" stroke-width="2" stroke-miterlimit="10"/>
<path d="M76.5659 81.1843C80.7933 84.3045 84.8297 87.6753 88.6539 91.2783" stroke="black" stroke-width="2" stroke-miterlimit="10"/>
<path d="M128.002 32.1155C129.014 33.0395 130.568 33.0895 131.854 32.9655C133.498 32.8155 135.126 32.4175 136.736 32.0815L137.714 32.0315H137.728C137.916 32.0335 138.101 32.0721 138.273 32.1457C138.446 32.2191 138.602 32.3259 138.734 32.4597C138.865 32.5937 138.969 32.7521 139.039 32.9261C139.109 33.1001 139.144 33.2861 139.142 33.4735C139.164 35.5843 138.954 37.6911 138.514 39.7555L140.388 40.7695C140.63 40.0935 140.358 39.1195 140.932 39.0455C141.3 38.3595 141.848 37.9135 142.708 38.4235C144.392 39.4235 145.056 42.3615 143.434 43.7075L144.474 45.6515C144.837 46.3331 145.424 46.8675 146.137 47.1637C146.85 47.4599 147.643 47.4995 148.382 47.2755L147.32 44.9275C149.812 45.3695 151.556 42.2595 150.796 40.3615C150.278 39.0575 150.304 38.0435 150.996 36.7755C151.042 36.6895 150.572 36.5755 150.612 36.4875C150.636 35.5575 150.378 34.5615 149.93 34.0875C149.142 33.2395 147.556 33.0875 147.88 31.7995C148.024 31.2391 148.077 30.6591 148.038 30.0815C147.953 29.3265 147.708 28.5983 147.319 27.9461C146.929 27.2937 146.405 26.7323 145.78 26.2995C144.468 25.4375 143 26.2195 141.598 26.1975C139.896 26.1795 138.676 24.7355 136.892 24.7135C136.004 24.6995 135.292 25.0455 134.532 25.4755C133.896 25.8415 133.27 26.2235 132.662 26.6375C132.054 27.0515 131.514 27.4095 130.788 27.4115C129.842 27.4235 128.928 26.8235 127.976 27.1035C127.495 27.2331 127.072 27.5223 126.776 27.9235C126.474 29.3995 127.02 31.2255 128.002 32.1155Z" fill="#41A9E0"/>
<path d="M140.396 40.5502C140.518 40.0292 140.698 39.5234 140.932 39.0422C141.3 38.3562 141.85 37.9102 142.708 38.4202C144.392 39.4202 145.056 42.3582 143.434 43.7042L144.474 45.6482C144.836 46.3296 145.424 46.8642 146.137 47.1604C146.85 47.4566 147.643 47.496 148.382 47.2722" stroke="black" stroke-width="2" stroke-linecap="round" stroke-linejoin="round"/>
<path d="M147.32 44.9241L148.378 47.2761C148.644 47.8381 149.406 49.5661 150.204 51.3621C150.772 52.6481 151.364 53.9721 151.804 54.9461" stroke="black" stroke-width="2" stroke-linecap="round" stroke-linejoin="round"/>
<path d="M130.182 36.4781C130.182 36.4781 133.3 35.7021 134.662 38.0661" stroke="black" stroke-width="2" stroke-miterlimit="10"/>
<path d="M131.1 43.5363C130.26 43.7663 129.13 43.9723 128.482 43.2403L129.894 40.2683C130.237 39.5395 130.322 38.7157 130.134 37.9323C129.826 36.6143 129.056 34.6123 129.882 32.8743" stroke="black" stroke-width="2" stroke-miterlimit="10"/>
<path d="M133.198 39.5528C133.435 39.1602 133.253 38.6164 132.791 38.3382C132.329 38.06 131.763 38.1526 131.527 38.5452C131.29 38.9378 131.472 39.4816 131.934 39.7598C132.396 40.0382 132.962 39.9454 133.198 39.5528Z" fill="black"/>
<path d="M137.748 58.2642L137.008 50.0522" stroke="black" stroke-width="2" stroke-miterlimit="10"/>
<path d="M140.388 40.7654C140.388 40.6934 140.388 40.6194 140.388 40.5474C140.392 40.4702 140.392 40.3928 140.388 40.3154" stroke="black" stroke-width="2" stroke-linecap="round" stroke-linejoin="round"/>
<path d="M140.39 40.7684L139.746 40.4224L138.514 39.7524" stroke="black" stroke-width="2" stroke-linecap="round" stroke-linejoin="round"/>
<path d="M135.234 43.7476C135.234 43.7476 135.172 45.8276 132.794 46.6836" stroke="black" stroke-width="2" stroke-miterlimit="10"/>
<path d="M147.32 44.9239C149.812 45.3659 151.556 42.2559 150.796 40.3579C150.278 39.0539 150.304 38.0399 150.996 36.7719C151.042 36.6859 151.08 36.6019 151.12 36.5179C151.634 35.3839 151.452 34.2599 150.644 33.2959C149.878 32.3839 148.724 32.0639 149.056 30.7339C149.205 30.1565 149.26 29.5589 149.22 28.9639C149.134 28.1873 148.882 27.4383 148.482 26.7673C148.081 26.0963 147.542 25.5189 146.9 25.0739C145.552 24.1799 144.034 24.9899 142.582 24.9679C140.834 24.9419 139.572 23.4539 137.738 23.4319C136.82 23.4319 136.08 23.7739 135.3 24.2179C134.644 24.5959 133.994 24.9939 133.374 25.4179C132.754 25.8419 132.174 26.2179 131.438 26.2179C130.462 26.2179 129.52 25.6179 128.544 25.8979C127.568 26.1779 126.988 26.9859 126.796 27.9219C126.484 29.3899 127.03 31.2239 128.012 32.1219C129.024 33.0459 130.578 33.0959 131.864 32.9719C133.508 32.8219 135.136 32.4239 136.746 32.0879L137.724 32.0379H137.738C137.925 32.0397 138.111 32.0785 138.283 32.1519C138.456 32.2255 138.612 32.3321 138.743 32.4661C138.875 32.5999 138.978 32.7585 139.049 32.9323C139.119 33.1063 139.154 33.2923 139.152 33.4799C139.174 35.5907 138.964 37.6973 138.524 39.7619" stroke="black" stroke-width="2" stroke-miterlimit="10"/>
<path d="M140.766 47.2C140.766 47.2 137.05 52.136 133.748 51.03C130.446 49.924 130.278 43.814 130.278 43.814" stroke="black" stroke-width="2" stroke-linecap="round" stroke-linejoin="round"/>
<path d="M42.7339 185.474V112.948H47.1719V185.504" stroke="black" stroke-width="2" stroke-miterlimit="10"/>
<path d="M46.8178 70.746C50.7744 70.746 53.9818 67.5386 53.9818 63.582C53.9818 59.6254 50.7744 56.418 46.8178 56.418C42.8612 56.418 39.6538 59.6254 39.6538 63.582C39.6538 67.5386 42.8612 70.746 46.8178 70.746Z" fill="#41A9E0"/>
<path d="M44.0162 65.4301C43.8066 65.2869 43.6206 65.1121 43.4642 64.9121C43.1876 64.5697 43.0462 64.1379 43.0664 63.6983C43.0866 63.2587 43.2674 62.8417 43.5742 62.5261C43.7744 62.3201 44.0196 62.1631 44.2906 62.0677C44.5616 61.9723 44.851 61.9409 45.1362 61.9761C45.073 61.5795 45.1406 61.1729 45.329 60.8181C45.5172 60.4633 45.816 60.1793 46.1798 60.0093C46.5438 59.8393 46.9532 59.7921 47.346 59.8753C47.739 59.9585 48.0944 60.1673 48.3582 60.4701C48.9162 61.1021 49.1782 62.0421 49.2762 62.8701C49.3268 63.3023 49.3336 63.7387 49.2962 64.1721C49.2782 64.3901 49.2002 65.6481 48.9962 65.7281C47.6482 66.2441 45.3502 66.3561 44.0162 65.4301Z" fill="white"/>
<path d="M97.3639 69.0557C99.4847 69.0557 101.204 67.3365 101.204 65.2157C101.204 63.0949 99.4847 61.3757 97.3639 61.3757C95.2431 61.3757 93.5239 63.0949 93.5239 65.2157C93.5239 67.3365 95.2431 69.0557 97.3639 69.0557Z" fill="#41A9E0"/>
<path d="M97.0999 63.4361C97.2167 63.3655 97.3445 63.3149 97.4779 63.2861C97.7073 63.2309 97.9489 63.2615 98.1573 63.3719C98.3659 63.4825 98.5267 63.6653 98.6099 63.8861C98.6641 64.0303 98.6841 64.1853 98.6685 64.3387C98.6529 64.4919 98.6021 64.6397 98.5199 64.7701C98.7221 64.8343 98.8987 64.9613 99.0241 65.1327C99.1493 65.3041 99.2169 65.5107 99.2169 65.7231C99.2169 65.9353 99.1493 66.1421 99.0241 66.3135C98.8987 66.4847 98.7221 66.6117 98.5199 66.6761C98.0619 66.7763 97.5847 66.7415 97.1459 66.5761C96.9249 66.5015 96.7117 66.4051 96.5099 66.2881C96.4079 66.2301 95.8139 65.9061 95.8239 65.7881C95.8819 65.0121 96.3519 63.8721 97.0999 63.4361Z" fill="white"/>
<path d="M67.5898 60.8358C68.0202 61.195 68.5006 61.4894 69.0158 61.7098C69.9646 62.1058 71 62.2486 72.0206 62.1242C73.0412 61.9998 74.012 61.6124 74.8378 60.9998C75.4778 60.5118 76.0378 59.8378 76.6998 59.3478C77.1616 58.986 77.7162 58.7614 78.2998 58.6998C78.4938 58.7054 78.6864 58.6648 78.8618 58.5818C79.3058 58.3058 78.7818 57.8478 78.7358 57.5238C78.6742 57.0056 78.8044 56.4828 79.1018 56.0538C79.8614 54.921 80.206 53.5602 80.0766 52.2022C79.9474 50.8444 79.3524 49.573 78.3926 48.6038C77.4328 47.6346 76.1672 47.0272 74.8108 46.8846C73.4542 46.7422 72.09 47.0734 70.9498 47.8218C69.8238 48.5598 68.9878 49.6538 68.1398 50.6998C67.3918 51.6218 66.6098 52.5298 66.0618 53.5838C64.7738 56.0618 65.5258 59.1138 67.5898 60.8358Z" fill="#41A9E0"/>
<path d="M75.2278 52.668C75.9358 52.668 76.5098 52.094 76.5098 51.386C76.5098 50.6778 75.9358 50.104 75.2278 50.104C74.5198 50.104 73.9458 50.6778 73.9458 51.386C73.9458 52.094 74.5198 52.668 75.2278 52.668Z" fill="white"/>
<path d="M72.7478 55.7C73.4558 55.7 74.0298 55.126 74.0298 54.418C74.0298 53.71 73.4558 53.136 72.7478 53.136C72.0398 53.136 71.4658 53.71 71.4658 54.418C71.4658 55.126 72.0398 55.7 72.7478 55.7Z" fill="white"/>
<path d="M70.4221 58.5459C71.1301 58.5459 71.7041 57.9719 71.7041 57.2639C71.7041 56.5559 71.1301 55.9819 70.4221 55.9819C69.7141 55.9819 69.1401 56.5559 69.1401 57.2639C69.1401 57.9719 69.7141 58.5459 70.4221 58.5459Z" fill="white"/>
<g opacity="0.46">
<path opacity="0.46" d="M107.5 45.2581C107.4 45.7603 107.189 46.2335 106.882 46.6437C106.576 47.0537 106.181 47.3901 105.728 47.6281L95.0362 53.3081C94.633 53.5233 94.1912 53.6567 93.7362 53.7009C93.2814 53.7449 92.8222 53.6987 92.3852 53.5649C91.9482 53.4311 91.5418 53.2125 91.1896 52.9213C90.8372 52.6301 90.5458 52.2721 90.3322 51.8681L81.8102 35.8221C81.3784 35.0083 81.2874 34.0565 81.557 33.1755C81.8266 32.2947 82.4348 31.5567 83.2482 31.1241L93.9482 25.4461C95.5582 24.5901 97.7802 25.2461 98.6442 26.8841L107.168 42.9241C107.552 43.6383 107.669 44.4653 107.5 45.2581Z" fill="#41A9E0"/>
</g>
<path d="M104.326 44.0422L93.9002 40.0682C93.7674 40.0166 93.6572 39.9194 93.5894 39.7942C93.5216 39.6688 93.5006 39.5234 93.5302 39.3842L95.9482 28.2622C95.9756 28.1438 96.0382 28.0366 96.128 27.9548C96.2176 27.8728 96.33 27.82 96.4502 27.8034C96.5704 27.7866 96.693 27.8068 96.8016 27.8612C96.91 27.9156 96.9996 28.0018 97.0582 28.1082L105.066 43.2002C105.123 43.3076 105.145 43.4298 105.131 43.5504C105.117 43.671 105.066 43.7846 104.986 43.8758C104.906 43.967 104.8 44.0318 104.682 44.0616C104.564 44.0912 104.44 44.0844 104.326 44.0422Z" fill="white"/>
<g opacity="0.46">
<path opacity="0.46" d="M119.9 56.4238C120.119 56.5806 120.3 56.7847 120.429 57.0209C120.558 57.2569 120.633 57.5191 120.648 57.7879L121.048 64.1459C121.063 64.3859 121.031 64.6265 120.953 64.8539C120.875 65.0815 120.753 65.2913 120.594 65.4715C120.434 65.6517 120.241 65.7987 120.025 65.9041C119.809 66.0095 119.574 66.0712 119.334 66.0858L109.792 66.6739C109.308 66.7029 108.833 66.5389 108.47 66.2179C108.107 65.8971 107.886 65.4453 107.856 64.9619L107.466 58.5999C107.449 58.1195 107.617 57.6509 107.935 57.2907C108.253 56.9305 108.697 56.7061 109.176 56.6639L118.716 56.0639C119.141 56.0401 119.56 56.1676 119.9 56.4238Z" fill="#41A9E0"/>
</g>
<path d="M118.632 57.6797L114.456 61.8137C114.403 61.8639 114.334 61.8943 114.261 61.8993C114.188 61.9045 114.116 61.8841 114.056 61.8417L109.256 58.2617C109.205 58.2231 109.167 58.1697 109.147 58.1087C109.127 58.0477 109.126 57.9819 109.145 57.9205C109.163 57.8591 109.2 57.8049 109.251 57.7649C109.301 57.7251 109.362 57.7017 109.426 57.6977L118.402 57.1437C118.465 57.1421 118.527 57.1593 118.58 57.1933C118.633 57.2271 118.674 57.2761 118.699 57.3339C118.724 57.3915 118.73 57.4553 118.719 57.5171C118.707 57.5787 118.677 57.6353 118.632 57.6797Z" fill="white"/>
<g opacity="0.46">
<path opacity="0.46" d="M55.0998 91.3619C54.4736 91.4649 53.8404 91.5185 53.2058 91.5219C47.1298 91.5219 47.3338 85.8879 47.3338 85.8879L52.3678 86.9759C52.1776 86.5099 52.1048 86.0043 52.1558 85.5035C52.2066 85.0027 52.3798 84.5221 52.6598 84.1039C53.8118 82.4199 56.4878 83.2859 56.4878 83.2859L58.1518 82.2139L57.7918 84.2139L60.0218 83.8379L58.8758 85.1639C60.4158 86.6439 62.3778 91.1499 57.6458 93.4919C52.9138 95.8339 50.8718 93.0279 50.8718 93.0279L53.2058 91.5239L55.0998 91.3619Z" fill="#41A9E0"/>
</g>
<path d="M55 85.852C55.402 85.852 55.728 85.5262 55.728 85.124C55.728 84.722 55.402 84.396 55 84.396C54.598 84.396 54.272 84.722 54.272 85.124C54.272 85.5262 54.598 85.852 55 85.852Z" fill="white"/>
<path d="M67.6899 188.858H150.944" stroke="black" stroke-width="2" stroke-miterlimit="10"/>
</svg>
