<svg width="201" height="200" viewBox="0 0 201 200" fill="none" xmlns="http://www.w3.org/2000/svg">
<path d="M46.5001 84.8357C46.5001 84.8357 35.7341 52.9797 73.2861 56.8677C110.838 60.7557 92.8961 46.6557 107.086 37.9057C121.276 29.1557 163.086 56.3777 145.594 82.6337C128.102 108.89 173.548 84.8717 183.028 124.356C188.878 148.722 174.364 166.656 162.39 176.822" stroke="#41A9E0" stroke-opacity="0.1" stroke-width="2" stroke-miterlimit="10"/>
<path d="M166.052 146.38C163.23 130.038 153.238 115.414 137.004 110.18C132.851 108.849 128.605 107.829 124.3 107.13V107.152C124.076 108.509 123.544 109.796 122.746 110.916C121.054 113.234 118.722 115.138 116.022 116.13C113.266 117.15 109.852 117.282 107.294 115.678C105.754 114.714 104.26 113.016 103.99 111.184C103.682 109.12 104.734 107.166 106.214 105.802C93.6702 105.904 81.8702 107.968 72.4142 110.318C72.742 111.69 73.1958 113.029 73.7702 114.318C74.574 116.115 75.7098 117.743 77.1182 119.118C78.8748 117.378 80.4128 115.43 81.6982 113.318C82.9278 113.721 84.0122 114.476 84.8162 115.49C85.62 116.503 86.1084 117.731 86.2202 119.02V119.086C86.7162 123.768 82.2082 127.286 78.4202 129.45C74.0442 131.966 69.1662 133.85 64.3742 135.416C62.3982 136.064 59.8302 136.616 57.7442 135.94C57.5196 135.869 57.3004 135.781 57.0882 135.678C55.0082 134.658 53.6162 132.52 52.5302 130.566C49.4362 125.016 47.4242 118.966 46.0602 112.756C36.5942 113.966 35.5102 107.556 34.9482 105.984L26.8502 128.622C26.4254 130.249 26.3796 131.952 26.7158 133.6C27.0522 135.248 27.762 136.797 28.7906 138.127C29.819 139.458 31.139 140.535 32.6488 141.276C34.1588 142.017 35.8184 142.401 37.5002 142.4H71.0242L86.2522 181.46L90.5682 192.546H115.22C113.22 192.546 112.126 192.058 111.332 191.262C110.512 190.442 110.051 189.33 110.048 188.17C110.048 185.77 112.018 183.802 115.22 183.802H115.446C115.204 183.802 114.972 183.78 114.73 183.758C114.88 183.742 115.029 183.717 115.176 183.684C115.018 183.68 114.859 183.668 114.702 183.648C116.146 183.478 117.485 182.805 118.483 181.748C119.482 180.69 120.077 179.316 120.164 177.864C120.168 177.789 120.168 177.713 120.164 177.638V177.522C120.13 176.034 119.561 174.608 118.562 173.504C117.563 172.401 116.2 171.694 114.722 171.512C114.89 171.498 115.05 171.484 115.212 171.484C115.066 171.448 114.904 171.426 114.752 171.404C114.992 171.382 115.234 171.366 115.466 171.366L133.502 171.462L136.82 171.476H140.758C140.94 171.476 141.124 171.476 141.298 171.498L147.148 171.528L151.056 171.55C152.69 171.564 154.251 172.224 155.399 173.386C156.547 174.548 157.188 176.117 157.182 177.75C157.18 178.674 156.966 179.584 156.556 180.412C158.233 180.198 159.788 179.422 160.968 178.212C163.782 175.338 164.994 171.036 165.832 167.212C167.314 160.4 167.226 153.222 166.052 146.38ZM120.484 146.84C117.086 152.07 111.3 151.6 111.3 151.6C111.3 151.6 110.82 152.068 109.7 150.076C108.58 148.084 105.39 146.722 105.39 146.722C105.136 148.722 104.61 151.762 99.3902 147.822C94.1702 143.882 95.7442 138.138 96.1902 135.104C96.6362 132.07 98.4142 131.064 98.4142 131.064L100.514 129.956C100.514 129.956 94.4402 128.394 94.1482 128.336C93.8562 128.278 88.4462 123.748 93.9362 122.552C99.4262 121.356 107.984 126.112 109.638 127.052C111.292 127.992 120.958 136.168 120.958 136.168C120.958 136.168 123.9 141.618 120.484 146.84Z" fill="#543088"/>
<path d="M46.0518 112.76C46.0518 112.76 50.6298 112.204 52.3438 108.936L50.8498 117.318C50.8498 117.318 69.0618 111.118 72.4018 110.318C72.4018 110.318 73.4778 117.256 77.7618 119.118L82.1818 113.498C82.1818 113.498 87.7238 114.898 86.2078 122.45C84.6918 130.002 63.7238 136.314 60.1678 136.168C56.6118 136.022 52.7838 133.834 48.8638 122.076L46.0518 112.76Z" fill="#543088"/>
<path d="M53.5098 94.0881C54.6698 95.9761 55.8358 97.8601 57.0398 99.7201C57.7818 100.866 59.1338 102.5 57.6958 103.698C57.2278 104.057 56.6626 104.266 56.0738 104.298C55.1498 104.38 54.1798 104.158 53.6178 103.364L50.8178 98.7241C50.2598 97.7987 49.3736 97.1175 48.336 96.8157C47.2982 96.5141 46.185 96.6143 45.2178 97.0961" stroke="black" stroke-width="2" stroke-miterlimit="10"/>
<path d="M64.1 100.199C64.832 101.939 64.336 103.061 63.48 103.625C62.08 104.543 60.206 104.103 59.214 102.763L53.52 94.0974" stroke="black" stroke-width="2" stroke-miterlimit="10"/>
<path d="M58.3302 91.5682C60.4022 94.0882 63.0162 98.7682 64.4622 100.722C65.9082 102.676 68.1442 101.498 68.1442 101.498C69.9602 100.52 69.6522 98.8982 68.8582 96.9282C66.9022 92.0922 64.1102 88.8762 60.9962 86.7682C51.3462 80.2402 41.4462 85.0562 38.5002 96.3242L26.8502 128.622C26.4254 130.25 26.3796 131.953 26.7158 133.6C27.0522 135.248 27.762 136.797 28.7906 138.128C29.819 139.458 31.139 140.535 32.6488 141.276C34.1588 142.017 35.8184 142.401 37.5002 142.4H71.0242L90.5742 192.548" stroke="black" stroke-width="2" stroke-miterlimit="10"/>
<path d="M70.2999 94.7099C72.6999 93.8779 72.5899 90.0499 69.1839 88.7579C65.4219 87.3299 58.7419 85.3099 57.0639 84.8059C57.0535 84.7979 57.0409 84.7931 57.0279 84.7919C56.9099 84.7559 56.8279 84.7259 56.7639 84.7119L56.6699 84.6819" stroke="black" stroke-width="2" stroke-miterlimit="10"/>
<path d="M105.76 132.984C103.66 130.46 97.9119 129.03 94.1599 128.338C93.5293 128.219 92.9543 127.899 92.5213 127.425C92.0885 126.952 91.8213 126.35 91.7599 125.712C91.7163 125.281 91.7661 124.846 91.9059 124.436C92.1295 123.806 92.5581 123.27 93.1227 122.913C93.6873 122.557 94.3555 122.4 95.0199 122.468C101.42 123.116 108.02 125.13 112.902 129.468C112.902 129.468 136.568 147.528 139.394 149.286C140.56 149.994 141.648 149.158 140.858 148.046L140.61 147.622C139.219 145.234 137.573 143.005 135.7 140.974" stroke="black" stroke-width="2" stroke-miterlimit="10"/>
<path d="M106.198 105.8C76.4341 106.048 50.8501 117.316 50.8501 117.316L53.4041 103" stroke="black" stroke-width="2" stroke-miterlimit="10"/>
<path d="M152.426 183.714C152.426 183.714 149.184 182.98 148.322 185.576C147.46 188.172 146.56 192.302 152.758 192.546C158.956 192.79 155.316 191.572 154.958 189.566C154.6 187.56 152.426 183.714 152.426 183.714Z" fill="#543088"/>
<path d="M102.9 136.278C102.9 136.278 99.4022 133.626 96.2522 136.314C96.1196 136.431 96.0038 136.566 95.9082 136.714" stroke="black" stroke-width="2" stroke-miterlimit="10"/>
<g opacity="0.77">
<path opacity="0.77" d="M59.202 102.754C60.202 104.096 62.074 104.534 63.468 103.614C64.314 103.054 64.81 101.938 64.096 100.214C64.226 100.404 64.344 100.572 64.46 100.726C65.904 102.688 68.142 101.506 68.142 101.506C69.958 100.528 69.652 98.9061 68.858 96.9341C68.081 94.9809 67.0616 93.1331 65.824 91.4341C66.634 90.6761 67.596 89.9101 68.61 90.2461C69.704 90.6101 70.01 91.9821 70.134 93.1261C70.192 93.6581 70.25 94.1841 70.308 94.7161L71.184 102.548C71.476 105.148 71.768 107.786 72.402 110.324C72.7298 111.696 73.1836 113.035 73.758 114.324C74.5618 116.121 75.6976 117.749 77.106 119.124C78.8626 117.384 80.4006 115.436 81.686 113.324C82.9156 113.726 84 114.482 84.804 115.496C85.6078 116.509 86.0962 117.737 86.208 119.026V119.092C86.704 123.774 82.196 127.292 78.408 129.456C74.032 131.972 69.154 133.856 64.362 135.422C62.386 136.07 59.818 136.622 57.732 135.946C57.5074 135.875 57.2882 135.787 57.076 135.684C54.996 134.664 53.604 132.526 52.518 130.572C47.318 121.222 45.158 110.486 44.02 99.8541C46.296 99.5401 48.564 99.1901 50.804 98.7081C50.804 98.7081 50.804 98.7241 50.818 98.7301L53.4 103.012L53.612 103.368C54.172 104.168 55.142 104.382 56.068 104.302C56.6568 104.273 57.2224 104.064 57.688 103.702C59.124 102.502 57.776 100.874 57.032 99.7281" fill="white"/>
<path opacity="0.77" d="M59.202 102.754C60.202 104.096 62.074 104.534 63.468 103.614C64.314 103.054 64.81 101.938 64.096 100.214C64.226 100.404 64.344 100.572 64.46 100.726C65.904 102.688 68.142 101.506 68.142 101.506C69.958 100.528 69.652 98.9061 68.858 96.9341C68.081 94.9809 67.0616 93.1331 65.824 91.4341C66.634 90.6761 67.596 89.9101 68.61 90.2461C69.704 90.6101 70.01 91.9821 70.134 93.1261C70.192 93.6581 70.25 94.1841 70.308 94.7161L71.184 102.548C71.476 105.148 71.768 107.786 72.402 110.324C72.7298 111.696 73.1836 113.035 73.758 114.324C74.5618 116.121 75.6976 117.749 77.106 119.124C78.8626 117.384 80.4006 115.436 81.686 113.324C82.9156 113.726 84 114.482 84.804 115.496C85.6078 116.509 86.0962 117.737 86.208 119.026V119.092C86.704 123.774 82.196 127.292 78.408 129.456C74.032 131.972 69.154 133.856 64.362 135.422C62.386 136.07 59.818 136.622 57.732 135.946C57.5074 135.875 57.2882 135.787 57.076 135.684C54.996 134.664 53.604 132.526 52.518 130.572C47.318 121.222 45.158 110.486 44.02 99.8541C46.296 99.5401 48.564 99.1901 50.804 98.7081C50.804 98.7081 50.804 98.7241 50.818 98.7301L53.4 103.012L53.612 103.368C54.172 104.168 55.142 104.382 56.068 104.302C56.6568 104.273 57.2224 104.064 57.688 103.702C59.124 102.502 57.776 100.874 57.032 99.7281" fill="#41A9E0"/>
<path opacity="0.77" d="M59.8158 103.388C60.7018 104.588 62.2158 104.436 63.4678 103.614C64.2238 103.114 64.8438 103.26 64.2058 101.718C64.3238 101.886 64.3398 101.318 64.4438 101.444C65.7338 103.196 64.4598 100.72 64.4598 100.72C66.2598 102.994 70.1778 100.852 69.4598 99.0941C68.6998 97.2001 67.8998 94.4001 66.8858 93.0001C67.6858 92.2441 67.5318 92.3561 68.5498 92.9581C68.8232 93.1337 69.0522 93.3707 69.2184 93.6501C69.3848 93.9295 69.4838 94.2437 69.5078 94.5681C69.5898 95.3301 69.6718 96.0601 69.7538 96.8041L70.5338 103.804C70.7958 106.13 71.0558 108.48 71.6218 110.744C71.9144 111.968 72.3202 113.163 72.8338 114.312C73.5498 115.894 75.8498 118.528 77.1058 119.734C78.6678 118.184 80.5398 115.334 81.6858 113.44C83.8858 114.116 83.7898 116.22 83.9458 118.518V118.578C84.3898 122.756 80.3658 125.894 76.9938 127.828C73.0858 130.074 68.7318 131.754 64.4538 133.154C62.6898 133.734 60.3978 134.234 58.5358 133.622C58.335 133.559 58.139 133.48 57.9498 133.388C56.0938 132.476 54.8498 130.57 53.8798 128.824C49.6338 121.198 47.6638 112.54 46.5798 103.86C46.5002 103.21 46.676 102.556 47.07 102.033C47.464 101.511 48.0454 101.162 48.6918 101.06C49.9098 100.86 51.1238 100.66 52.3298 100.392L52.3638 100.408L54.6678 104.23C55.1698 104.94 55.2518 104.384 56.0778 104.312C56.5998 104.266 57.6118 104.164 58.0158 103.826C59.2978 102.758 58.5738 102.316 57.9098 101.294" fill="#41A9E0"/>
</g>
<path d="M102.478 140.138C102.478 140.138 95.8358 137.954 95.7358 141.626" stroke="black" stroke-width="2" stroke-miterlimit="10"/>
<path opacity="0.54" d="M43.0239 177.543L29.9979 144.171C29.8365 143.526 29.8245 142.852 29.9625 142.2C30.1007 141.549 30.3855 140.938 30.7951 140.414C31.2049 139.889 31.7287 139.465 32.3271 139.173C32.9253 138.881 33.5823 138.729 34.2479 138.729H85.9879C87.1497 138.729 88.2777 139.12 89.1903 139.839C90.1027 140.558 90.7465 141.564 91.0179 142.693L105.278 176.057C105.432 176.701 105.438 177.371 105.296 178.018C105.154 178.664 104.867 179.27 104.458 179.789C104.048 180.309 103.526 180.729 102.93 181.018C102.335 181.307 101.682 181.457 101.02 181.457H48.0419C46.8887 181.458 45.7685 181.073 44.8593 180.364C43.9501 179.655 43.3041 178.662 43.0239 177.543Z" fill="white"/>
<path d="M104.64 145.768C104.64 145.768 105.718 146.756 105.308 148.168C105.004 149.214 103.964 149.874 102.934 149.516C99.6541 148.382 96.7001 146.456 95.9801 143.182C95.6399 141.524 95.5663 139.823 95.7621 138.142C95.9201 136.584 96.1501 134.902 96.6741 133.42C97.4741 131.144 99.9241 129.558 102.302 130.654" stroke="black" stroke-width="2" stroke-miterlimit="10"/>
<path d="M43.0239 177.543L29.9979 144.171C29.8365 143.526 29.8245 142.852 29.9625 142.2C30.1007 141.549 30.3855 140.938 30.7951 140.414C31.2049 139.889 31.7287 139.465 32.3271 139.173C32.9253 138.881 33.5823 138.729 34.2479 138.729H85.9879C87.1497 138.729 88.2777 139.12 89.1903 139.839C90.1027 140.558 90.7465 141.564 91.0179 142.693L105.278 176.057C105.432 176.701 105.438 177.371 105.296 178.018C105.154 178.664 104.867 179.27 104.458 179.789C104.048 180.309 103.526 180.729 102.93 181.018C102.335 181.307 101.682 181.457 101.02 181.457H48.0419C46.8887 181.458 45.7685 181.073 44.8593 180.364C43.9501 179.655 43.3041 178.662 43.0239 177.543Z" fill="#41A9E0"/>
<path d="M43.0239 177.543L29.9979 144.171C29.8365 143.526 29.8245 142.852 29.9625 142.2C30.1007 141.549 30.3855 140.938 30.7951 140.414C31.2049 139.889 31.7287 139.465 32.3271 139.173C32.9253 138.881 33.5823 138.729 34.2479 138.729H85.9879C87.1497 138.729 88.2777 139.12 89.1903 139.839C90.1027 140.558 90.7465 141.564 91.0179 142.693L105.278 176.057C105.432 176.701 105.438 177.371 105.296 178.018C105.154 178.664 104.867 179.27 104.458 179.789C104.048 180.309 103.526 180.729 102.93 181.018C102.335 181.307 101.682 181.457 101.02 181.457H48.0419C46.8887 181.458 45.7685 181.073 44.8593 180.364C43.9501 179.655 43.3041 178.662 43.0239 177.543Z" stroke="black" stroke-width="2" stroke-linecap="square" stroke-linejoin="round"/>
<path d="M44.9301 176.199L32.9121 145.399C32.7635 144.804 32.7527 144.182 32.8803 143.581C33.0079 142.981 33.2707 142.417 33.6489 141.933C34.0269 141.449 34.5103 141.058 35.0621 140.789C35.6141 140.519 36.2201 140.379 36.8341 140.379H84.5661C85.6377 140.379 86.6783 140.74 87.5201 141.403C88.3619 142.066 88.9559 142.993 89.2061 144.035L102.364 174.817C102.506 175.411 102.512 176.03 102.38 176.626C102.249 177.223 101.984 177.781 101.606 178.261C101.228 178.74 100.746 179.128 100.197 179.394C99.6475 179.661 99.0447 179.799 98.4341 179.799H49.5581C48.4959 179.8 47.4639 179.447 46.6257 178.795C45.7873 178.142 45.1907 177.229 44.9301 176.199Z" fill="#41A9E0"/>
<path d="M147.084 171.368L156.236 192.546" stroke="black" stroke-width="2" stroke-miterlimit="10"/>
<path d="M190.5 192.546H10.5" stroke="black" stroke-width="2" stroke-miterlimit="10"/>
<path d="M105.374 96.9617C103.89 98.4277 101.674 98.4257 100.412 97.0697" stroke="black" stroke-width="2" stroke-miterlimit="10"/>
<path d="M65.8242 91.4278C66.6342 90.6698 67.5962 89.9038 68.6102 90.2398C69.7042 90.6038 70.0102 91.9758 70.1342 93.1198C70.4848 96.2638 70.8348 99.4046 71.1842 102.542C71.6282 106.542 72.0962 110.638 73.7582 114.314C74.562 116.11 75.6978 117.739 77.1062 119.114" stroke="black" stroke-width="2" stroke-miterlimit="10"/>
<path d="M86.2081 119.09V119.024C86.0963 117.735 85.6079 116.507 84.8041 115.493C84.0001 114.48 82.9157 113.724 81.6861 113.322C80.4007 115.434 78.8627 117.382 77.1061 119.122C72.5007 123.701 66.5845 126.734 60.1781 127.8C60.4861 129.026 61.1201 130.142 61.5581 131.322C61.9961 132.502 62.2141 133.868 61.6821 135.006C61.0101 136.458 59.0821 136.268 57.7421 135.946C57.7281 135.946 57.7201 135.946 57.7061 135.946" stroke="black" stroke-width="2" stroke-miterlimit="10"/>
<path d="M50.8079 98.7061C48.5679 99.1881 46.2999 99.5381 44.0239 99.8521C45.1619 110.484 47.3139 121.22 52.5219 130.57C53.6079 132.524 54.9999 134.662 57.0799 135.682C57.2921 135.785 57.5113 135.873 57.7359 135.944C59.8219 136.63 62.3899 136.068 64.3659 135.42C69.1659 133.852 74.0359 131.97 78.4119 129.454C82.1899 127.288 86.6979 123.772 86.2119 119.09C86.1649 118.574 86.0595 118.066 85.8979 117.574" stroke="black" stroke-width="2" stroke-miterlimit="10"/>
<path d="M88.2642 77.4976C88.5998 78.8972 89.366 80.156 90.455 81.0968C91.544 82.0378 92.9008 82.613 94.3342 82.7416C94.4532 82.1644 94.7114 81.6246 95.0862 81.1698C96.6862 79.2838 97.3682 82.8218 102.486 80.2818C109.578 76.7538 112.27 78.7778 112.27 78.7778C112.506 78.9538 112.47 80.5776 112.51 80.8736C112.71 82.5596 112.89 84.2376 113.088 85.9216C113.208 86.9496 113.326 87.9698 113.438 88.9898C113.535 88.8162 113.642 88.6484 113.758 88.4876C114.404 86.2016 115.558 83.5018 118.046 84.6638C118.55 84.9094 118.989 85.2704 119.326 85.7176C120.976 87.8856 119.726 89.9796 118 91.5296C117.568 92.0106 117.084 92.443 116.558 92.8198C116.842 93.4078 118.002 95.7418 118.002 95.7498C118.122 95.9858 122.176 91.3976 122.478 90.8976C122.929 89.6728 123.171 88.3808 123.194 87.0758C123.26 81.7098 121.076 75.4636 116.73 72.3856C115.652 71.6236 115.996 70.8896 115.93 69.8536C115.926 69.7976 115.904 69.7444 115.869 69.7008C115.833 69.6572 115.785 69.6254 115.731 69.6096C115.677 69.5938 115.62 69.5948 115.567 69.6122C115.513 69.6298 115.466 69.663 115.432 69.7078C114.07 71.2758 110.698 71.1198 110.698 71.1198C98.9942 68.1878 95.0602 73.3918 92.6982 74.3198C91.7344 74.6848 90.6736 74.7024 89.6982 74.3698C89.6408 74.6926 89.4962 74.9936 89.2802 75.2404C89.064 75.4872 88.7848 75.6702 88.4722 75.7698L88.5322 76.3116C88.5832 76.7262 88.4884 77.1454 88.2642 77.4976Z" fill="#41A9E0"/>
<path d="M94.3419 82.7504C92.9085 82.6216 91.5517 82.0464 90.4627 81.1056C89.3737 80.1648 88.6073 78.9058 88.2719 77.5064C88.1405 76.9696 88.0575 76.422 88.0239 75.8704L88.1159 75.8604C88.2417 75.851 88.3655 75.824 88.4839 75.7804C88.7965 75.6808 89.0757 75.4978 89.2919 75.251C89.5079 75.0044 89.6525 74.7032 89.7099 74.3804C89.7465 74.2014 89.7539 74.0176 89.7319 73.8364L89.4319 71.1884C89.4319 71.1884 91.5479 72.7624 93.8959 71.8424C96.2439 70.9224 100.186 65.7184 111.896 68.6424C111.896 68.6424 114.54 68.7984 115.896 67.2304C115.93 67.1856 115.977 67.1524 116.03 67.135C116.084 67.1174 116.141 67.1166 116.195 67.1324C116.249 67.1482 116.297 67.18 116.332 67.2234C116.368 67.267 116.389 67.3204 116.394 67.3764C116.464 68.4144 116.848 69.1484 117.928 69.9084C122.274 72.9884 124.458 79.2324 124.39 84.5984C124.37 86.8244 123.63 89.0224 122.488 90.9084C122.186 91.4084 118.132 95.9964 118.012 95.7604C118.012 95.7604 116.852 93.4184 116.568 92.8304L116.5 92.7004L116.63 92.6144C117.113 92.2866 117.574 91.9278 118.01 91.5404C119.734 89.9904 120.986 87.8964 119.336 85.7284C118.998 85.2812 118.56 84.92 118.056 84.6744C115.56 83.5124 114.414 86.2124 113.768 88.4984C113.643 88.9352 113.565 89.3846 113.538 89.8384C113.508 89.5584 113.478 89.2884 113.448 89.0084C113.336 87.9884 113.218 86.9684 113.098 85.9404C112.898 84.2564 112.71 82.5784 112.52 80.8924C112.49 80.6044 112.52 78.9724 112.28 78.7964C112.28 78.7964 109.586 76.7724 102.496 80.3004C97.3779 82.8404 96.6959 79.3004 95.0959 81.1884C94.7211 81.6434 94.4629 82.183 94.3439 82.7604C94.3073 82.9458 94.2839 83.1336 94.2739 83.3224C94.2701 83.3468 94.2701 83.3718 94.2739 83.3964C94.2499 83.8104 94.2419 84.2224 94.2319 84.6264C94.1939 88.5244 94.6219 92.5964 96.1519 96.2164C98.0119 100.604 102.934 104.932 108.052 102.886C109.652 102.244 111.086 101.21 112.398 100.112" stroke="black" stroke-width="2" stroke-miterlimit="10"/>
<path d="M97.8444 92.2572C98.3534 92.0868 98.599 91.4494 98.393 90.8336C98.187 90.2176 97.6072 89.8564 97.098 90.0268C96.589 90.197 96.3434 90.8344 96.5494 91.4504C96.7556 92.0664 97.3354 92.4276 97.8444 92.2572Z" fill="black"/>
<path d="M105.46 92.0133C105.969 91.8431 106.214 91.2057 106.008 90.5897C105.802 89.9737 105.222 89.6125 104.713 89.7829C104.204 89.9533 103.959 90.5907 104.165 91.2065C104.371 91.8225 104.95 92.1837 105.46 92.0133Z" fill="black"/>
<path d="M102.548 93.3324C102.548 93.3324 100.014 94.7704 99.8599 93.2784C99.8119 92.8184 99.1919 88.3124 99.1919 88.3124C99.1919 88.3124 97.1439 86.1424 94.0059 87.7464" stroke="black" stroke-width="2" stroke-miterlimit="10"/>
<path d="M101.978 87.0498C101.978 87.0498 106.07 85.0058 108.778 87.9518" stroke="black" stroke-width="2" stroke-miterlimit="10"/>
<path d="M105.73 103.388L106.2 105.8C104.718 107.166 103.67 109.124 103.976 111.186C104.248 113.014 105.744 114.716 107.278 115.674C109.842 117.274 113.252 117.148 116.012 116.13C118.71 115.13 121.044 113.232 122.736 110.916C123.533 109.797 124.064 108.51 124.288 107.154V107.13" stroke="black" stroke-width="2" stroke-miterlimit="10"/>
<path d="M106.2 105.8L107.116 110.156" stroke="black" stroke-width="2" stroke-miterlimit="10"/>
<path d="M119.154 94.7102L120.538 103.9C120.674 104.8 121.129 105.621 121.82 106.213C122.51 106.806 123.39 107.131 124.3 107.13C128.607 107.828 132.856 108.847 137.012 110.178C153.246 115.414 163.238 130.038 166.06 146.378C167.234 153.22 167.322 160.396 165.848 167.2C165.01 171.03 163.798 175.332 160.984 178.2C157.33 181.94 151.722 180.4 147.404 178.71C133.998 173.496 122.848 164.22 113.22 153.6C108.072 147.92 101.42 143.368 101.42 143.368" stroke="black" stroke-width="2" stroke-miterlimit="10"/>
<path d="M49.3602 169.306C47.8562 169.292 46.5462 168.078 46.2082 166.388C45.5402 163.064 45.3642 157.924 50.2382 156.802C56.3282 155.402 61.0122 162.034 63.3082 166.226C64.0802 167.626 63.2062 169.426 61.7682 169.426L49.3602 169.306Z" fill="#41A9E0" fill-opacity="0.1"/>
<path d="M51.3704 153.98C52.6632 153.119 52.6832 150.877 51.4146 148.97C50.1462 147.064 48.0698 146.216 46.7768 147.076C45.4838 147.937 45.464 150.18 46.7324 152.086C48.001 153.992 50.0774 154.84 51.3704 153.98Z" fill="#41A9E0" fill-opacity="0.1"/>
<path d="M151.454 183.823C151.36 183.837 151.254 183.851 151.162 183.873H151.126L136.9 183.799L115.554 183.689C115.472 183.689 115.392 183.689 115.312 183.689C115.153 183.686 114.995 183.674 114.838 183.653C116.284 183.485 117.625 182.813 118.624 181.754C119.623 180.695 120.216 179.317 120.3 177.863C120.304 177.788 120.304 177.713 120.3 177.637V177.521C120.294 176.099 119.798 174.722 118.896 173.623C117.995 172.523 116.741 171.767 115.348 171.483C115.202 171.447 115.042 171.425 114.888 171.403C115.13 171.381 115.37 171.365 115.604 171.365L133.638 171.461L136.958 171.475L141.436 171.497C142.969 171.637 144.395 172.344 145.435 173.48C146.474 174.615 147.053 176.098 147.058 177.637C147.058 177.928 147.036 178.218 146.992 178.505C146.779 179.971 146.046 181.312 144.928 182.283C143.81 183.255 142.381 183.793 140.9 183.799H151.736C151.112 183.799 151.286 183.799 151.454 183.823Z" fill="white"/>
<path d="M122.598 191.262C123.005 191.671 123.488 191.995 124.02 192.215C124.553 192.436 125.124 192.548 125.7 192.546H115.224C113.224 192.546 112.132 192.058 111.336 191.262C110.518 190.441 110.058 189.329 110.054 188.17C110.054 185.77 112.022 183.802 115.224 183.802H125.7C124.835 183.801 123.99 184.056 123.27 184.536C122.55 185.016 121.989 185.699 121.658 186.498C121.327 187.297 121.241 188.176 121.41 189.024C121.579 189.872 121.996 190.651 122.608 191.262H122.598Z" fill="#41A9E0" fill-opacity="0.1"/>
<path d="M157.196 177.748C157.193 178.671 156.978 179.582 156.568 180.41C156.275 181.035 155.873 181.603 155.38 182.088C154.568 182.892 153.548 183.455 152.434 183.714C151.975 183.82 151.505 183.873 151.034 183.874C151.13 183.852 151.234 183.838 151.326 183.824C151.158 183.808 150.984 183.802 151.61 183.802H140.772C142.254 183.796 143.685 183.258 144.804 182.286C145.923 181.314 146.655 179.972 146.868 178.506C146.912 178.218 146.934 177.928 146.934 177.638C146.929 176.098 146.35 174.615 145.31 173.479C144.27 172.344 142.844 171.637 141.31 171.498L147.16 171.528L151.068 171.55C152.701 171.563 154.262 172.223 155.411 173.384C156.559 174.546 157.201 176.114 157.196 177.748Z" fill="#41A9E0"/>
<path d="M157.196 177.746C157.184 179.38 156.524 180.943 155.362 182.092C154.2 183.241 152.63 183.882 150.996 183.876L115.412 183.692C115.174 183.692 114.936 183.674 114.696 183.65C116.196 183.48 117.581 182.766 118.59 181.642C119.598 180.519 120.16 179.065 120.168 177.555C120.175 176.046 119.629 174.586 118.633 173.452C117.636 172.318 116.258 171.59 114.76 171.404C114.998 171.379 115.237 171.367 115.476 171.368L151.06 171.552C152.694 171.563 154.257 172.221 155.407 173.382C156.557 174.543 157.2 176.112 157.196 177.746Z" stroke="black" stroke-width="2" stroke-linecap="square" stroke-linejoin="round"/>
<path d="M146.93 177.636C146.927 179.27 146.276 180.836 145.121 181.991C143.966 183.146 142.4 183.797 140.766 183.8H115.448C115.209 183.798 114.97 183.785 114.732 183.76C116.231 183.582 117.612 182.86 118.615 181.732C119.617 180.603 120.171 179.146 120.171 177.637C120.171 176.127 119.617 174.67 118.615 173.542C117.612 172.413 116.231 171.692 114.732 171.514C114.97 171.492 115.21 171.476 115.448 171.476H140.766C142.399 171.479 143.964 172.13 145.119 173.284C146.274 174.438 146.925 176.003 146.93 177.636Z" stroke="black" stroke-width="2" stroke-linecap="square" stroke-linejoin="round"/>
<path d="M110.054 188.172C110.054 188.745 110.167 189.313 110.387 189.843C110.606 190.373 110.928 190.854 111.334 191.26C112.134 192.06 113.22 192.546 115.222 192.546H151.608C150.982 192.546 151.152 192.534 151.322 192.518C150.258 192.392 149.276 191.881 148.564 191.079C147.851 190.278 147.458 189.244 147.458 188.172C147.458 187.1 147.851 186.065 148.564 185.264C149.276 184.463 150.258 183.951 151.322 183.826C151.152 183.81 150.982 183.798 151.608 183.798H115.222C112.018 183.8 110.054 185.768 110.054 188.172Z" stroke="black" stroke-width="2" stroke-linecap="square" stroke-linejoin="round"/>
<path d="M121.314 188.172C121.317 189.331 121.778 190.442 122.598 191.262C123.418 192.081 124.529 192.543 125.688 192.546H150.814C150.982 192.546 151.152 192.534 151.322 192.518C150.257 192.392 149.276 191.881 148.563 191.079C147.851 190.278 147.458 189.244 147.458 188.172C147.458 187.1 147.851 186.065 148.563 185.264C149.276 184.463 150.257 183.951 151.322 183.826C151.152 183.81 150.982 183.798 150.814 183.798H125.688C124.529 183.801 123.418 184.263 122.599 185.082C121.779 185.902 121.317 187.013 121.314 188.172Z" stroke="black" stroke-width="2" stroke-linecap="square" stroke-linejoin="round"/>
<path d="M80.5838 154.8H69.3598C68.8462 154.799 68.344 154.649 67.9144 154.367C67.4848 154.086 67.1462 153.686 66.9398 153.216C66.8602 153.041 66.826 152.848 66.8408 152.657C66.8554 152.465 66.9184 152.28 67.0238 152.119C67.1292 151.958 67.2736 151.827 67.4436 151.736C67.6136 151.646 67.8034 151.601 67.9958 151.604H79.9278C79.3658 152.55 79.6518 153.864 80.5838 154.8Z" fill="#41A9E0" fill-opacity="0.1"/>
<path d="M87.8418 153.643C87.8412 153.949 87.7196 154.243 87.5032 154.459C87.287 154.675 86.9938 154.797 86.6878 154.797H80.5838C79.6518 153.863 79.3658 152.549 79.9278 151.597H85.3178C85.8308 151.598 86.3326 151.747 86.7626 152.026C87.1924 152.306 87.532 152.705 87.7398 153.173C87.8044 153.322 87.839 153.482 87.8418 153.643Z" fill="#41A9E0"/>
<path d="M85.0338 154.8C85.0022 154.861 84.9654 154.919 84.9238 154.974C84.1238 156.068 82.3858 156.174 81.0358 155.186C80.8762 155.068 80.7252 154.939 80.5838 154.8C79.6518 153.866 79.3658 152.552 79.9278 151.6C79.9594 151.539 79.9962 151.481 80.0378 151.426C80.8378 150.324 82.5678 150.226 83.9178 151.206C84.0804 151.327 84.2334 151.461 84.3758 151.606C85.2998 152.536 85.5878 153.842 85.0338 154.8Z" fill="white"/>
<path d="M90.6642 160.69C90.662 160.996 90.539 161.289 90.3216 161.505C90.1044 161.721 89.8104 161.842 89.5042 161.842H77.7262C78.2942 160.886 78.0102 159.582 77.0762 158.642H88.1402C88.654 158.642 89.1564 158.792 89.5866 159.073C90.0166 159.354 90.3556 159.754 90.5622 160.224C90.6282 160.371 90.6628 160.529 90.6642 160.69Z" fill="#41A9E0"/>
<path d="M77.7262 161.841H72.1842C71.6712 161.842 71.169 161.693 70.739 161.413C70.309 161.133 69.9696 160.735 69.7622 160.265C69.6968 160.119 69.6622 159.96 69.6602 159.799C69.66 159.648 69.6896 159.498 69.7474 159.358C69.8052 159.218 69.89 159.091 69.997 158.984C70.104 158.877 70.2312 158.792 70.371 158.735C70.511 158.677 70.6608 158.647 70.8122 158.647H77.0762C78.0102 159.581 78.3002 160.885 77.7262 161.841Z" fill="#41A9E0" fill-opacity="0.1"/>
<path d="M77.7259 161.842C77.6999 161.905 77.6655 161.964 77.6239 162.018C76.8239 163.118 75.0919 163.218 73.7439 162.236C73.5807 162.114 73.4271 161.98 73.2839 161.836C72.3579 160.902 72.0739 159.598 72.6279 158.636C72.6599 158.574 72.6967 158.515 72.7379 158.46C73.5379 157.366 75.2759 157.26 76.6239 158.25C76.7845 158.366 76.9355 158.495 77.0759 158.636C78.0099 159.582 78.2999 160.886 77.7259 161.842Z" fill="white"/>
<path d="M81.65 168.836H74.598C74.0852 168.836 73.5836 168.686 73.1538 168.407C72.7238 168.127 72.3842 167.729 72.176 167.26C72.0966 167.085 72.0628 166.892 72.0776 166.7C72.0926 166.508 72.1556 166.322 72.261 166.161C72.3666 166 72.511 165.868 72.681 165.777C72.8512 165.686 73.0412 165.64 73.234 165.642H80.994C80.438 166.6 80.724 167.902 81.65 168.836Z" fill="#41A9E0"/>
<path d="M93.078 167.692C93.0764 167.996 92.9542 168.288 92.7384 168.502C92.5224 168.716 92.2302 168.836 91.926 168.836H81.65C80.724 167.902 80.438 166.598 80.994 165.636H90.554C91.0676 165.636 91.5702 165.786 92.0004 166.067C92.4304 166.348 92.7694 166.748 92.976 167.218C93.0418 167.367 93.0766 167.529 93.078 167.692Z" fill="#41A9E0" fill-opacity="0.1"/>
<path d="M86.1 168.836C86.068 168.897 86.0312 168.956 85.99 169.012C85.19 170.112 83.46 170.212 82.11 169.23C81.9478 169.108 81.7948 168.974 81.652 168.83C80.726 167.896 80.44 166.592 80.996 165.63C81.0266 165.568 81.0626 165.509 81.104 165.454C81.904 164.36 83.642 164.266 84.992 165.244C85.1524 165.361 85.3036 165.49 85.444 165.63C86.376 166.576 86.66 167.888 86.1 168.836Z" fill="white"/>
<path d="M32.8218 105.074L32.9978 105.124L32.9318 105.38C32.89 105.28 32.8532 105.178 32.8218 105.074Z" fill="#543088"/>
<path d="M64.1212 121.075C66.754 120.302 68.1372 117.118 67.211 113.963C66.2848 110.808 63.3998 108.876 60.7672 109.649C58.1344 110.422 56.7512 113.606 57.6774 116.761C58.6036 119.917 61.4886 121.848 64.1212 121.075Z" fill="#41A9E0" fill-opacity="0.1"/>
</svg>
