<svg width="55" height="55" fill="none" xmlns="http://www.w3.org/2000/svg"><path d="M44.688 17.76h-3.209c.917-1.1 1.49-2.475 1.49-4.01a6.299 6.299 0 00-6.302-6.302c-3.85 0-7.242 2.04-9.167 5.064-1.925-3.024-5.316-5.064-9.166-5.064a6.299 6.299 0 00-6.302 6.302c0 1.535.572 2.91 1.49 4.01h-3.21a2.866 2.866 0 00-2.864 2.865v5.73c0 1.374.986 2.474 2.292 2.75v15.582a2.866 2.866 0 002.864 2.865h29.792a2.866 2.866 0 002.865-2.864V29.104c1.306-.275 2.291-1.375 2.291-2.75v-5.729a2.866 2.866 0 00-2.864-2.865zm-.573 8.021H29.219v-4.583h14.896v4.583zm-7.448-14.896a2.866 2.866 0 010 5.73h-7.242c.78-3.277 3.736-5.73 7.242-5.73zm-18.333 0c3.506 0 6.462 2.453 7.241 5.73h-7.241a2.866 2.866 0 010-5.73zm-7.448 10.313h14.896v4.583H10.886v-4.583zm2.291 8.02h12.605v14.897H13.177V29.219zm28.646 14.897H29.22V29.219h12.604v14.896z" fill="#2B59FF"/></svg>