<svg width="60" height="34" fill="none" xmlns="http://www.w3.org/2000/svg"><path d="M40.353 10.98H38.37c.566-.68.92-1.53.92-2.48a3.894 3.894 0 00-3.895-3.896c-2.38 0-4.477 1.261-5.667 3.131-1.19-1.87-3.287-3.13-5.667-3.13A3.894 3.894 0 0020.165 8.5c0 .95.355 1.8.921 2.48h-1.983a1.77 1.77 0 00-1.771 1.77v3.542c0 .85.61 1.53 1.417 1.7v9.633c0 .977.793 1.77 1.77 1.77h18.417a1.77 1.77 0 001.771-1.77v-9.633c.807-.17 1.417-.85 1.417-1.7V12.75c0-.977-.794-1.77-1.771-1.77zm-.354 4.957H30.79v-2.833H40v2.834zM35.394 6.73a1.772 1.772 0 010 3.542h-4.476a4.616 4.616 0 014.477-3.542zm-11.333 0c2.168 0 3.995 1.516 4.477 3.542H24.06a1.771 1.771 0 010-3.542zm-4.604 6.375h9.208v2.834h-9.208v-2.834zm1.417 4.959h7.791v9.208h-7.791v-9.209zm17.708 9.208H30.79v-9.209h7.792v9.209zM13.636 16.5c0 .763.61 1.381 1.364 1.381.753 0 1.364-.618 1.364-1.381h-2.728zm2.728-.014c0-.763-.61-1.382-1.364-1.382-.753 0-1.364.619-1.364 1.382h2.728zm-5.4-3.703a1.394 1.394 0 00-.091-1.952 1.351 1.351 0 00-1.927.092l2.018 1.86zM5.919 8.136a1.394 1.394 0 00-.092-1.952 1.351 1.351 0 00-1.926.092l2.018 1.86zm3.027 13.94c.507.565 1.37.606 1.927.093a1.394 1.394 0 00.09-1.952l-2.017 1.86zm-5.045 4.647a1.35 1.35 0 001.926.092 1.394 1.394 0 00.092-1.951L3.9 26.723zM16.364 16.5v-.014h-2.728v.014h2.728zm-6.819 0a5.54 5.54 0 011.419-3.717l-2.018-1.86A8.325 8.325 0 006.818 16.5h2.727zm-6.818 0c0-3.222 1.208-6.155 3.192-8.364L3.9 6.276A15.258 15.258 0 000 16.5h2.727zm8.237 3.717A5.542 5.542 0 019.545 16.5H6.818c0 2.146.807 4.105 2.128 5.576l2.018-1.86zm-5.045 4.647A12.475 12.475 0 012.727 16.5H0c0 3.936 1.478 7.525 3.901 10.223l2.018-1.86zm39.9-8.364c0 .763-.61 1.381-1.364 1.381a1.373 1.373 0 01-1.364-1.381h2.728zm-2.728-.014c0-.763.61-1.382 1.364-1.382.753 0 1.364.619 1.364 1.382H43.09zm5.4-3.703a1.394 1.394 0 01.092-1.952 1.351 1.351 0 011.926.092l-2.018 1.86zm5.045-4.647a1.394 1.394 0 01.092-1.952 1.351 1.351 0 011.926.092l-2.018 1.86zm-3.027 13.94a1.351 1.351 0 01-1.926.093 1.395 1.395 0 01-.092-1.952l2.018 1.86zm5.045 4.647a1.351 1.351 0 01-1.926.092 1.394 1.394 0 01-.092-1.951l2.018 1.859zM43.091 16.5v-.014h2.728v.014H43.09zm6.819 0a5.541 5.541 0 00-1.419-3.717l2.018-1.86a8.325 8.325 0 012.128 5.577H49.91zm6.818 0c0-3.222-1.208-6.155-3.192-8.364l2.018-1.86A15.259 15.259 0 0159.455 16.5h-2.727zm-8.237 3.717A5.541 5.541 0 0049.91 16.5h2.727a8.325 8.325 0 01-2.128 5.576l-2.018-1.86zm5.045 4.647a12.475 12.475 0 003.192-8.364h2.727c0 3.936-1.478 7.525-3.901 10.223l-2.018-1.86z" fill="#2B59FF"/></svg>