<svg width="51" height="51" fill="none" xmlns="http://www.w3.org/2000/svg"><path d="M25.5 5.578c-11.445 0-20.719 9.276-20.719 20.719 0 11.443 9.274 20.719 20.719 20.719 11.441 0 20.719-9.276 20.719-20.72 0-11.442-9.276-20.718-20.719-20.718zm-.167 37.496c-9.242 0-16.735-7.492-16.735-16.734S16.09 9.606 25.333 9.606c9.24 0 16.734 7.492 16.734 16.734s-7.494 16.734-16.734 16.734zm4.837-15.771h-4.75v-8.02a1.578 1.578 0 00-3.154 0v9.596c0 .871.706 1.576 1.578 1.576h6.326a1.576 1.576 0 100-3.152z" fill="#2B59FF"/></svg>