<svg width="18" height="16" fill="none" xmlns="http://www.w3.org/2000/svg"><g clip-path="url(#clip0_35_5787)"><path d="M4.893.885c-.195 0-.39.007-.52.022a5.106 5.106 0 00-1.594.438l3.494 3.37 2.31-2.23-.007.007-.218-.205a5.122 5.122 0 00-.641-.53c-.684-.472-1.432-.748-2.307-.85a5.015 5.015 0 00-.517-.022z" fill="#464D60"/><path d="M2.78 1.345l-.117.056a5.002 5.002 0 00-1.334.971 4.66 4.66 0 00-.746 1.005l-.105.19 3.494 3.368 2.302-2.22-3.495-3.37z" fill="#62697C"/><path d="M.478 3.567l-.075.17c-.18.407-.3.835-.361 1.293a6.9 6.9 0 00-.007 1.067 4.567 4.567 0 001.063 2.444l.419.445.162.158 2.292-2.208c.01-.01-3.493-3.37-3.493-3.37zm16.182-.03c-.003 0-1.419 1.362-3.185 3.063L6.27 13.57a207.496 207.496 0 002.074 1.985.728.728 0 00.083.032c.029.01.087.014.135.012.171-.009-.104.246 3.755-3.478a483.022 483.022 0 003.633-3.526c.289-.33.528-.684.707-1.05.596-1.22.625-2.61.078-3.857a.979.979 0 00-.075-.151z" fill="#575E72"/><path d="M14.336 1.296L3.952 11.343l.004.004C7.413 7.99 14.35 1.305 14.35 1.305a.104.104 0 00-.013-.009zm.039.02L3.969 11.353 6.27 13.57 16.66 3.536l-.056-.116a4.778 4.778 0 00-2.063-2.02l-.166-.084z" fill="#464D60"/><path d="M2.82 10.245l-1.14-1.1C3.97 6.934 8.22 2.79 9.2 1.917a4.947 4.947 0 011.561-.822c.333-.105.613-.164.985-.208.23-.027.802-.03 1.023-.006a5.34 5.34 0 011.062.224c.171.055.499.183.543.21-3.702 3.626-5.82 5.601-10.412 10.03l-1.141-1.1z" fill="#393F4F"/></g><defs><clipPath id="clip0_35_5787"><path fill="#fff" transform="translate(0 .857)" d="M0 0h17.143v15H0z"/></clipPath></defs></svg>