<svg width="16" height="16" fill="none" xmlns="http://www.w3.org/2000/svg"><g clip-path="url(#clip0_35_5799)"><path d="M8.322.649c.804-.013 1.602-.006 2.4-.013a3.812 3.812 0 001.075 2.56h-.001a4.307 4.307 0 002.588 1.097h.014v2.474a6.544 6.544 0 01-2.618-.613l.04.017a7.558 7.558 0 01-1.02-.587l.026.016c-.006 1.792.006 3.584-.013 5.37-.05.91-.353 1.74-.838 2.433l.01-.016a4.574 4.574 0 01-3.62 1.97h-.007a4.455 4.455 0 01-2.524-.643l.02.011a4.638 4.638 0 01-2.238-3.484l-.002-.02a11.372 11.372 0 01-.006-.914A4.625 4.625 0 016.993 6.21l-.028-.004c.013.908-.024 1.817-.024 2.725a2.106 2.106 0 00-2.684 1.286l-.004.015a2.383 2.383 0 00-.085 1l-.001-.012a2.092 2.092 0 002.152 1.76h-.005a2.061 2.061 0 001.695-.978l.005-.01c.131-.182.22-.403.25-.643l.001-.007c.062-1.098.037-2.19.043-3.29.006-2.472-.006-4.94.012-7.406l.002.002z" fill="#393F4F"/></g><defs><clipPath id="clip0_35_5799"><path fill="#fff" transform="translate(.143 .143)" d="M0 0h15.714v15.714H0z"/></clipPath></defs></svg>