<svg width="27" height="16" fill="none" xmlns="http://www.w3.org/2000/svg"><path d="M16.443 7.766c-.469-.177-.469-.85-.498-1.318-.117-1.67.47-4.22-.234-5.303-.498-.645-2.9-.586-4.365-.498-.41.06-.908.147-1.26.323-.352.176-.703.469-.703.732 0 .38.88.322 1.2.82.352.528.352 1.67.352 2.607 0 1.084-.176 2.52-.615 2.579-.674.029-1.054-.645-1.406-1.143a19.547 19.547 0 01-1.934-3.34c-.263-.616-.41-1.29-.791-1.553-.586-.41-1.64-.44-2.666-.41-.938.028-2.286-.089-2.55.468-.205.615.235 1.201.47 1.7 1.2 2.607 2.49 4.893 4.072 7.06 1.465 2.021 2.841 3.633 5.537 4.482.762.235 4.101.909 4.775 0 .235-.351.176-1.143.294-1.728.117-.586.263-1.172.82-1.201.469-.03.732.38 1.026.674.322.322.586.586.82.88.557.556 1.143 1.317 1.846 1.61.966.411 2.46.294 3.867.235 1.143-.03 1.963-.263 2.051-.938.06-.527-.527-1.289-.879-1.728-.88-1.084-1.29-1.406-2.286-2.403-.44-.44-.996-.909-.996-1.435-.03-.323.234-.615.468-.938 1.026-1.523 2.052-2.607 2.99-4.19.263-.468.879-1.552.644-2.08-.263-.586-1.729-.41-2.637-.41-1.172 0-2.695-.089-2.989.146-.556.38-.79.996-1.054 1.582-.586 1.348-1.378 2.725-2.198 3.75-.293.352-.85 1.084-1.172.967h.001z" fill="#393F4F"/></svg>