<svg width="22" height="22" fill="none" xmlns="http://www.w3.org/2000/svg"><g clip-path="url(#clip0_35_5772)"><path fill-rule="evenodd" clip-rule="evenodd" d="M9.13 13.77V7.759c2.135 1.005 3.788 1.975 5.744 3.02-1.613.895-3.609 1.899-5.743 2.993zm11.896-9.002c-.368-.485-.995-.863-1.663-.988-1.964-.373-14.215-.374-16.178 0-.536.1-1.013.343-1.423.72C.036 6.103.577 14.698.993 16.09c.175.603.401 1.038.686 1.323.367.377.87.637 1.447.753 1.617.335 9.947.522 16.202.05a2.806 2.806 0 001.49-.761c1.596-1.596 1.487-10.674.208-12.687z" fill="#393F4F"/></g><defs><clipPath id="clip0_35_5772"><path fill="#fff" transform="translate(.572 .286)" d="M0 0h21.429v21.429H0z"/></clipPath></defs></svg>