<svg width="21" height="21" fill="none" xmlns="http://www.w3.org/2000/svg"><path fill-rule="evenodd" clip-rule="evenodd" d="M8.696 2.844h3.607c1.613 0 2.89 0 3.889.134 1.027.138 1.86.428 2.515 1.083.901.898 1.12 2.136 1.19 3.777v.021c.006.144.013.29.007.413a1.129 1.129 0 01-.13.508.98.98 0 01-.235.273c-.07.058-.148.11-.222.157-.143.09-.337.199-.564.326l-.017.009a1.093 1.093 0 000 1.91l.017.01c.227.126.42.234.564.325.074.047.152.1.222.157a.981.981 0 01.234.273c.105.187.125.376.131.508.006.123 0 .27-.007.413v.02c-.07 1.642-.289 2.88-1.19 3.778-.656.655-1.488.945-2.515 1.083-1 .134-2.276.134-3.889.134H8.697c-1.612 0-2.889 0-3.888-.134-1.028-.138-1.86-.428-2.516-1.082-.9-.9-1.12-2.137-1.188-3.778l-.001-.021a5.105 5.105 0 01-.007-.413 1.12 1.12 0 01.13-.508.981.981 0 01.235-.273c.07-.058.148-.11.222-.157.143-.09.337-.199.564-.326l.017-.009a1.093 1.093 0 000-1.91l-.017-.01c-.227-.126-.42-.234-.564-.325a2.136 2.136 0 01-.222-.157.98.98 0 01-.234-.273 1.12 1.12 0 01-.131-.508c-.006-.123 0-.27.007-.413v-.02c.07-1.642.289-2.88 1.19-3.778.656-.655 1.487-.945 2.515-1.083 1-.134 2.276-.134 3.888-.134zm9.895 9.917v.003-.003zm.002.124v.018l-.008.204c-.068 1.624-.29 2.39-.804 2.903-.372.37-.88.593-1.764.711-.902.121-2.09.123-3.763.123H8.746c-1.673 0-2.861-.002-3.763-.123-.883-.118-1.392-.34-1.764-.71-.514-.514-.736-1.28-.804-2.904a13.077 13.077 0 01-.008-.222c.109-.067.266-.155.497-.284a2.405 2.405 0 000-4.202c-.231-.13-.388-.217-.497-.284v-.018l.008-.204c.068-1.624.29-2.39.804-2.903.372-.37.88-.593 1.764-.711.902-.121 2.09-.123 3.763-.123h3.508c1.673 0 2.861.002 3.763.123.883.118 1.392.34 1.764.71.514.514.736 1.28.804 2.904l.008.204v.018c-.109.067-.266.155-.497.284a2.405 2.405 0 000 4.202c.231.13.388.217.497.284zm.109-4.843H18.7zm-.111.197v-.003.003zM2.298 8.042a.065.065 0 01.001 0zm.11.194l.001.003v-.003zm.001 4.525v.003-.003zm-.11.196a.048.048 0 010 .001zm16.402 0v.001zm-5.112-5.546a.656.656 0 010 .928l-5.25 5.25a.656.656 0 11-.928-.928l5.25-5.25a.656.656 0 01.928 0z" fill="#fff"/><path d="M13.563 12.688a.875.875 0 11-1.75 0 .875.875 0 011.75 0zM9.187 8.313a.875.875 0 11-1.75 0 .875.875 0 011.75 0z" fill="#fff"/></svg>