<svg width="377" height="438" viewBox="0 0 377 438" fill="none" xmlns="http://www.w3.org/2000/svg">
<path d="M44.2047 164.181C23.681 85.7555 51.5346 31.517 122.635 0C122.635 0 103.577 20.5227 112.373 33.7158C121.169 46.909 98.4459 80.6248 98.4459 80.6248C133.629 25.6534 167.347 -6.59658 220.122 4.39772C220.122 4.39772 210.593 13.1932 197.399 26.3863C186.405 37.3806 171.012 72.5623 171.012 72.5623C176.143 66.6987 182.007 61.568 187.871 56.4374C232.583 19.7897 285.358 20.5227 345.463 57.1703C306.615 54.9715 281.693 60.1021 276.562 82.8237C276.562 82.8237 283.159 99.6816 322.741 98.9486C362.322 98.9486 376.249 129.733 376.249 129.733C363.055 128.267 346.196 131.932 327.139 137.062C347.662 142.926 361.589 153.187 367.453 170.778L334.468 164.914L354.992 205.227L318.343 170.045L279.494 142.926L301.484 130.466C301.484 130.466 273.63 131.932 238.447 118.738C237.714 118.738 254.573 124.602 236.248 118.005C217.923 111.409 189.337 120.937 189.337 120.937L221.588 98.2157C221.588 98.2157 166.614 104.812 147.556 112.875C128.498 120.937 105.043 143.659 99.1789 158.318C93.315 172.977 93.315 180.306 92.582 181.772C91.849 183.238 90.383 191.301 90.383 191.301C90.383 191.301 82.3202 192.034 66.1944 186.17C50.0686 180.306 44.2047 164.181 44.2047 164.181Z" fill="#E51D2C"/>
<path d="M106.185 178.728C111.286 150.297 152.82 121.137 173.951 116.034C173.951 116.034 148.448 135.717 146.99 143.736C175.408 133.53 217.671 126.24 257.748 136.446L216.214 147.381C281.794 147.381 338.63 180.915 351.746 236.319L286.894 209.346C297.096 226.842 340.087 258.189 336.444 284.433C332.8 310.677 309.483 338.379 309.483 338.379L268.678 252.357C278.879 310.677 254.833 356.604 254.833 356.604L239.531 320.154C219.857 393.054 131.688 438.98 130.231 437.522C129.502 436.064 157.92 371.184 157.92 371.184C157.92 371.184 128.774 395.97 117.844 399.615L126.588 360.978C101.084 379.932 77.0384 392.325 61.0077 369.726C61.0077 369.726 75.581 378.474 87.2397 373.371C98.8983 368.268 115.658 355.875 115.658 355.875C115.658 355.875 130.231 344.211 145.533 336.192C154.277 331.818 164.478 347.856 152.091 320.883C126.588 264.021 212.57 305.574 212.57 274.227C211.842 172.896 252.647 272.769 249.004 206.43C243.903 114.576 126.588 149.568 106.185 178.728Z" fill="#E75526"/>
<path d="M96.3009 227.029C107.984 218.991 137.921 274.528 117.476 268.682C97.0311 262.836 75.1258 280.374 70.7447 291.335C66.3637 302.296 52.4904 349.064 70.7447 351.987C88.9991 354.91 142.302 337.372 135 323.488C118.206 292.066 151.794 272.336 191.954 278.913C207.287 281.105 206.557 243.837 205.097 235.068C203.637 226.299 216.78 209.492 239.415 223.376C240.145 164.916 215.319 167.108 191.224 164.185C191.224 178.8 186.112 188.3 170.049 187.569L178.811 193.415L159.826 198.53L181.731 199.992C181.731 199.992 153.255 232.875 141.572 222.645C124.778 203.646 96.3009 227.029 96.3009 227.029Z" fill="#E51D2A"/>
<path d="M78.3466 263.377C54.4562 276.497 32.8055 285.243 28.3261 301.278C24.5932 328.975 32.0589 347.197 44.7507 348.654C57.4425 350.112 55.9494 344.281 55.9494 344.281C55.9494 344.281 53.7096 327.517 53.7096 306.38C52.2165 285.972 82.0795 275.039 78.3466 263.377Z" fill="#E51D2A"/>
<path d="M41.0464 347.748C57.138 351.381 56.4384 347.748 51.5409 315.779C48.7424 293.255 59.2369 286.716 71.8304 273.638C71.8304 273.638 55.7388 279.451 50.1417 293.255C44.5446 307.787 50.1417 337.576 50.1417 342.662C50.8413 348.474 41.0464 347.748 41.0464 347.748Z" fill="#E94D3E"/>
<path d="M64.9881 270.217C62.1009 271.643 59.2137 274.493 58.4919 274.493C57.7701 274.493 44.7779 284.469 38.2817 290.17C31.7856 295.871 28.8984 307.272 28.1766 321.524C27.4548 310.123 24.5676 298.721 36.8381 288.032C43.3343 281.619 54.883 275.205 64.9881 270.217Z" fill="#AE1B1F"/>
<path d="M0 236.478C15.9952 212.512 34.8985 196.036 55.9831 191.542C84.3381 204.274 111.239 208.019 103.969 209.516C99.6063 210.265 95.2439 231.235 79.2488 222.997C63.9807 214.759 116.328 255.95 112.693 252.954C110.512 251.456 34.1715 218.504 0 236.478Z" fill="#F0E63A"/>
<path d="M20.524 239.252C43.5651 250.665 60.1258 263.504 68.7662 277.056C70.9263 277.056 117.008 254.231 116.288 250.665C111.248 256.371 82.4468 251.378 70.2062 241.392C56.5256 230.693 20.524 239.252 20.524 239.252Z" fill="#F0E63A"/>
<path d="M123.135 0.00720215C88.0464 16.0911 53.6889 38.7549 41.9927 87.7378C30.2966 142.569 40.5307 190.821 91.7014 191.552L92.4324 187.897C36.8757 188.628 31.0276 113.326 56.6129 59.2253C70.5021 29.2507 100.474 16.8222 123.135 0.00720215Z" fill="white"/>
<path d="M123.137 0.00720215C118.207 5.97744 108.348 18.6642 111.165 30.6047C123.137 49.2616 101.306 77.6203 99.1934 82.0979C99.1934 82.0979 118.207 37.3212 109.052 35.0823C104.827 35.0823 106.236 25.3807 110.461 15.6791C114.686 8.21627 120.32 2.24604 123.137 0.00720215Z" fill="white"/>
<path d="M99.1934 77.8079C99.9244 77.0785 124.779 32.5824 156.944 12.8873C186.916 -6.80768 220.543 1.94566 220.543 1.94566C202.998 18.7229 189.84 27.4762 170.833 69.784C217.618 19.4523 274.638 11.4284 344.816 55.1951C310.458 53.0068 281.217 57.3835 276.1 80.7257C290.72 99.6913 314.844 95.3146 334.582 98.2324C353.588 101.15 367.477 111.362 376.25 127.41C360.167 127.41 344.085 130.328 327.271 134.705C346.278 140.54 363.822 152.211 367.477 168.259L334.582 161.694L355.05 201.814C344.085 185.036 333.12 168.259 330.195 158.776C338.968 159.506 351.395 161.694 365.284 165.341C354.319 150.752 337.506 140.54 318.499 134.705C332.389 128.869 351.395 124.492 370.401 123.763C370.401 124.492 357.974 100.421 331.657 101.15C305.341 101.88 277.562 95.3146 273.176 79.2668C275.369 55.1951 320.692 49.3596 334.582 52.2774C281.948 23.0996 229.315 23.0996 175.219 70.5135L165.716 79.9963C173.757 45.7124 190.571 20.1818 215.425 3.40455C183.261 -5.34879 140.13 23.0996 99.1934 77.8079Z" fill="white"/>
<path d="M92.2434 189.324C87.1058 165.825 87.8397 94.5948 95.1791 77.7051C95.1791 84.3141 95.1791 129.843 99.5827 132.78C105.454 119.562 111.326 91.6575 120.867 85.0485C119.399 90.1888 126.738 102.672 128.206 106.344C137.747 95.3291 149.49 89.4545 164.169 82.1111C161.233 85.7828 149.49 102.672 150.958 105.61C167.105 95.3291 219.948 76.2365 254.443 71.8305C244.168 81.3768 236.094 98.2665 225.819 103.407C239.764 96.7978 254.443 101.204 273.525 101.204C267.654 103.407 271.323 110.016 274.259 115.89C294.075 122.499 311.69 120.296 335.176 121.031C328.57 124.702 305.084 132.046 297.011 138.655C306.552 141.592 332.974 170.231 339.579 179.777C346.919 189.324 355.726 201.807 355.726 201.807C343.249 189.324 324.901 172.434 319.029 166.559C312.424 162.153 292.607 148.201 280.864 140.123L302.882 127.64C302.882 127.64 276.461 129.108 242.7 117.359C220.682 107.813 190.591 118.093 190.591 118.093L222.884 95.3291C175.178 102.672 146.554 104.875 124.536 126.905C108.39 142.326 100.317 153.341 95.1791 171.7C93.7112 181.246 92.9773 182.715 92.2434 189.324Z" fill="#AE1B1F"/>
<path d="M106.744 179.002C111.845 152.026 149.736 122.863 174.51 116.301C162.123 126.508 149.736 136.715 147.55 144.006C186.898 130.883 224.788 127.966 258.307 136.715L216.773 147.651C281.625 149.11 337.732 178.273 352.305 236.598L287.454 209.623C328.259 263.574 363.235 266.491 310.042 338.669L269.237 252.638C275.066 286.905 270.694 321.171 255.392 356.896L240.09 320.442C226.974 366.374 186.169 410.118 130.79 437.823C137.348 419.596 147.55 396.266 158.48 371.477C144.635 383.872 129.333 394.079 118.403 399.911L127.147 361.27C106.016 377.31 77.5978 394.808 61.5671 370.019C80.5125 386.788 111.116 367.103 133.705 351.792L130.062 382.413C137.348 378.768 151.193 370.019 167.224 357.625C167.952 366.374 162.852 388.246 154.108 410.118C216.044 367.103 224.06 353.25 238.633 302.215L253.935 329.92C265.594 313.151 269.966 288.363 260.493 232.224C282.353 262.116 302.756 294.195 311.5 323.358C339.189 267.949 316.601 257.742 271.423 196.499L339.918 224.933C312.228 177.543 275.066 157.858 210.944 148.38C215.316 138.173 232.804 137.444 251.02 137.444C221.145 130.883 167.952 145.464 138.077 150.568C140.992 138.902 158.48 124.321 167.952 119.217C136.62 135.986 116.946 158.587 106.744 179.002Z" fill="#F9B03E"/>
<path d="M105.895 178.413C119.702 162.264 143.683 149.784 179.291 146.848C216.352 145.38 248.326 160.795 249.053 211.446C249.053 215.85 249.779 218.787 247.599 226.862C241.059 246.681 212.718 190.892 212.718 270.906C213.445 284.119 207.632 284.853 201.091 287.055C193.098 289.991 159.67 284.853 151.676 294.396C139.323 304.673 161.123 335.504 157.49 337.706C153.857 339.908 150.95 330.365 137.143 342.11C90.6347 372.207 87.0012 383.952 61.5671 370.739C82.6411 386.888 106.622 364.132 137.143 346.515C140.049 345.046 154.583 341.376 159.67 341.376C166.937 342.11 143.683 307.609 153.857 295.864C174.204 279.714 204.725 301.002 206.178 294.396C209.085 278.98 217.805 319.354 217.805 319.354C217.805 319.354 209.812 226.127 228.705 229.064C248.326 242.277 257.046 243.745 254.14 228.33C251.233 212.914 256.32 209.978 259.953 215.116C259.953 215.116 247.599 185.754 245.419 180.615C230.159 145.38 196.731 145.38 205.451 140.242C166.937 143.912 140.776 146.114 109.529 168.136L105.895 178.413Z" fill="#912D14"/>
<path d="M112.363 199.883C124.91 208.654 164.763 185.266 152.216 175.034C152.216 175.034 151.478 175.034 151.478 174.303C152.216 163.34 185.427 153.108 192.07 162.609C194.284 165.533 196.498 140.683 194.284 138.491C192.07 136.298 220.114 132.644 222.328 123.142C212.734 131.182 200.926 134.836 186.165 135.567C190.593 137.029 195.022 154.57 189.855 154.57C164.763 151.646 82.8425 195.498 112.363 199.883Z" fill="#009FE3"/>
<path d="M190.345 164.203C228.572 163.478 242.539 184.507 238.863 222.938C227.837 217.863 210.194 212.787 204.313 232.365C212.399 274.422 205.783 275.872 193.286 278.048C176.378 278.048 138.887 272.972 130.065 304.152C127.86 315.029 144.768 324.456 127.86 334.607C110.217 347.66 59.4936 365.788 61.699 336.783C59.4936 288.925 85.2229 260.645 118.303 267.896C94.0444 267.896 58.0234 311.404 71.2556 341.134C88.1634 351.285 127.125 333.157 127.86 324.456C128.595 315.754 120.509 296.176 132.271 284.574C144.033 272.972 177.113 272.972 192.551 272.247C207.988 271.522 203.578 243.242 201.372 233.09C202.107 221.488 208.723 218.588 212.399 217.137C221.22 213.512 235.923 217.137 235.923 217.862C233.717 191.758 226.366 169.279 190.345 164.203Z" fill="#E94D3E"/>
<path d="M95.7722 227.671C124.752 206.519 135.899 218.189 140.357 222.566C152.99 232.047 180.484 199.955 180.484 199.955L158.191 198.496L177.511 193.391L168.594 187.556C181.227 188.285 190.144 184.638 190.144 164.216C190.887 163.487 193.859 175.886 187.915 184.638C186.428 186.826 179.741 189.015 179.741 189.015L190.887 194.85L176.768 196.308C176.768 196.308 188.658 197.767 187.915 198.496C164.136 227.671 141.843 235.694 132.926 224.024C124.752 213.084 95.7722 227.671 95.7722 227.671Z" fill="#AE1B1F"/>
<path d="M109.455 209.079C109.455 207.653 90.1581 202.665 74.5725 198.39C52.3073 204.803 32.2686 211.929 30.7843 223.33C44.1434 217.63 69.3773 226.893 92.3846 232.594C87.1894 228.319 81.9942 224.043 81.252 222.618C80.5098 220.48 90.9003 228.319 97.5798 223.33C99.0641 222.618 104.259 216.917 105.744 213.354C106.486 209.791 109.455 210.504 109.455 209.079Z" fill="#F8AC43"/>
<path d="M90.2548 201.808L61.5671 210.662C69.4562 212.024 75.1938 214.748 78.0625 219.516C85.9516 223.602 91.6891 222.921 95.9923 219.516L106.033 207.257C103.164 205.214 97.4267 203.851 90.2548 201.808Z" fill="#DE5028"/>
<path d="M107.612 259.415C109.783 258.632 116.295 253.935 116.295 252.369C104.718 257.849 84.4587 253.152 69.9875 242.19C63.4755 235.926 53.3457 235.143 41.0453 236.709C41.0453 236.709 66.3698 239.058 69.264 246.888C72.8818 256.284 102.548 261.764 107.612 259.415Z" fill="#DE5028"/>
<path d="M20.5219 239.433C42.3903 249.372 59.1561 262.15 69.3614 277.058C81.7535 272.799 94.8745 265.7 109.453 257.181C81.7535 262.86 51.8666 255.051 20.5219 239.433Z" fill="#F8AC43"/>
<g filter="url(#filter0_f_4005_2)">
<path d="M112.363 199.882C124.91 208.653 164.763 185.265 152.216 175.033C152.216 175.033 151.478 175.033 151.478 174.302C152.216 163.339 185.427 153.107 192.07 162.608C194.284 165.532 196.498 140.682 194.284 138.49C192.07 136.297 220.114 132.643 222.328 123.141C212.734 131.181 200.926 134.835 186.165 135.566C190.593 137.028 195.022 154.569 189.855 154.569C164.763 151.645 82.8425 195.497 112.363 199.882Z" fill="#D6F1FD"/>
</g>
<defs>
<filter id="filter0_f_4005_2" x="101.492" y="118.6" width="125.377" height="87.7522" filterUnits="userSpaceOnUse" color-interpolation-filters="sRGB">
<feFlood flood-opacity="0" result="BackgroundImageFix"/>
<feBlend mode="normal" in="SourceGraphic" in2="BackgroundImageFix" result="shape"/>
<feGaussianBlur stdDeviation="2.27047" result="effect1_foregroundBlur_4005_2"/>
</filter>
</defs>
</svg>
