<svg width="20" height="20" viewBox="0 0 20 20" fill="none" xmlns="http://www.w3.org/2000/svg">
<path d="M4.5 2.5H10.5C11.0304 2.5 11.5391 2.71071 11.9142 3.08579C12.2893 3.46086 12.5 3.96957 12.5 4.5V10.5C12.5 11.0304 12.2893 11.5391 11.9142 11.9142C11.5391 12.2893 11.0304 12.5 10.5 12.5H4.5C4.23736 12.5 3.97728 12.4483 3.73463 12.3478C3.49198 12.2472 3.2715 12.0999 3.08579 11.9142C2.71071 11.5391 2.5 11.0304 2.5 10.5V4.5C2.5 4.23736 2.55173 3.97728 2.65224 3.73463C2.75275 3.49198 2.90007 3.2715 3.08579 3.08579C3.46086 2.71071 3.96957 2.5 4.5 2.5Z" fill="#8D8D8D"/>
<path d="M15.0001 8.33335H15.5001C16.1484 8.33335 16.6667 8.85169 16.6667 9.50002V15.5C16.6667 16.1484 16.1484 16.6667 15.5001 16.6667H9.50008C8.85175 16.6667 8.33341 16.1484 8.33341 15.5V15C8.33341 14.779 8.24562 14.567 8.08934 14.4108C7.93306 14.2545 7.72109 14.1667 7.50008 14.1667C7.27907 14.1667 7.06711 14.2545 6.91083 14.4108C6.75455 14.567 6.66675 14.779 6.66675 15V15.5C6.66675 17.0684 7.93175 18.3334 9.50008 18.3334H15.5001C17.0684 18.3334 18.3334 17.0684 18.3334 15.5V9.50002C18.3334 7.93169 17.0684 6.66669 15.5001 6.66669H15.0001C14.7791 6.66669 14.5671 6.75448 14.4108 6.91076C14.2545 7.06705 14.1667 7.27901 14.1667 7.50002C14.1667 7.72103 14.2545 7.933 14.4108 8.08928C14.5671 8.24556 14.7791 8.33335 15.0001 8.33335Z" fill="#434343"/>
</svg>
