<svg width="16" height="16" viewBox="0 0 16 16" fill="none" xmlns="http://www.w3.org/2000/svg">
<g clip-path="url(#clip0_50_784)">
<path d="M8.00002 0.666667C6.54963 0.666667 5.1318 1.09676 3.92584 1.90256C2.71988 2.70835 1.77995 3.85366 1.22491 5.19365C0.669864 6.53365 0.52464 8.00813 0.807598 9.43066C1.09056 10.8532 1.78899 12.1599 2.81457 13.1854C3.84016 14.211 5.14683 14.9095 6.56936 15.1924C7.99189 15.4754 9.46638 15.3302 10.8064 14.7751C12.1464 14.2201 13.2917 13.2801 14.0975 12.0742C14.9033 10.8682 15.3334 9.4504 15.3334 8C15.3311 6.05578 14.5577 4.19185 13.1829 2.81708C11.8082 1.44231 9.94424 0.668961 8.00002 0.666667ZM8.00002 14C6.81334 14 5.6533 13.6481 4.6666 12.9888C3.67991 12.3295 2.91087 11.3925 2.45675 10.2961C2.00262 9.19974 1.8838 7.99334 2.11531 6.82946C2.34682 5.66557 2.91827 4.59647 3.75738 3.75736C4.5965 2.91824 5.6656 2.3468 6.82948 2.11529C7.99337 1.88378 9.19977 2.0026 10.2961 2.45672C11.3925 2.91085 12.3296 3.67988 12.9888 4.66658C13.6481 5.65327 14 6.81331 14 8C13.9981 9.5907 13.3653 11.1157 12.2405 12.2405C11.1157 13.3653 9.59073 13.9981 8.00002 14ZM8.66669 11V12.3333H7.33336V11H8.66669ZM10.6667 6.33333C10.6674 6.73315 10.5779 7.12798 10.4047 7.48836C10.2316 7.84874 9.97928 8.16538 9.66669 8.41467C9.16174 8.80596 8.82029 9.37101 8.70869 10H7.35402C7.41297 9.48602 7.57424 8.98905 7.82831 8.53838C8.08238 8.08772 8.42411 7.69249 8.83336 7.376C8.99759 7.24456 9.1284 7.07612 9.21508 6.88445C9.30176 6.69279 9.34187 6.48333 9.33212 6.2732C9.32236 6.06307 9.26303 5.85822 9.15897 5.67541C9.0549 5.4926 8.90906 5.337 8.73336 5.22133C8.53753 5.09333 8.31221 5.01756 8.07883 5.00123C7.84545 4.98489 7.61177 5.02853 7.40002 5.128C7.17415 5.23626 6.9846 5.40781 6.85441 5.6218C6.72422 5.83578 6.65901 6.08298 6.66669 6.33333C6.66669 6.51014 6.59645 6.67971 6.47143 6.80474C6.3464 6.92976 6.17683 7 6.00002 7C5.82321 7 5.65364 6.92976 5.52862 6.80474C5.40359 6.67971 5.33336 6.51014 5.33336 6.33333C5.32344 5.82096 5.46481 5.31703 5.73979 4.88458C6.01477 4.45213 6.41115 4.11035 6.87936 3.902C7.29439 3.71652 7.74945 3.63853 8.20256 3.67523C8.65567 3.71193 9.09225 3.86214 9.47202 4.112C9.83899 4.35493 10.1401 4.68491 10.3486 5.0725C10.557 5.46009 10.6663 5.89324 10.6667 6.33333Z" fill="#007AFF"/>
</g>
<defs>
<clipPath id="clip0_50_784">
<rect width="16" height="16" fill="white"/>
</clipPath>
</defs>
</svg>
