<svg width="29" height="29" viewBox="0 0 29 29" fill="none" xmlns="http://www.w3.org/2000/svg">
<path d="M14.5 14.0496C15.7117 14.0496 16.8738 13.5682 17.7307 12.7114C18.5875 11.8546 19.0689 10.6925 19.0689 9.48072C19.0689 8.26899 18.5875 7.10688 17.7307 6.25005C16.8738 5.39323 15.7117 4.91187 14.5 4.91187C13.2883 4.91187 12.1262 5.39323 11.2693 6.25005C10.4125 7.10688 9.93114 8.26899 9.93114 9.48072C9.93114 10.6925 10.4125 11.8546 11.2693 12.7114C12.1262 13.5682 13.2883 14.0496 14.5 14.0496ZM14.5 16.0569C8.42541 16.0569 4.53125 19.4091 4.53125 21.0413V24.089H24.4688V21.0413C24.4688 19.0675 20.7821 16.0569 14.5 16.0569Z" fill="#007AFF"/>
</svg>
