<svg width="8" height="8" viewBox="0 0 8 8" fill="none" xmlns="http://www.w3.org/2000/svg">
<path d="M2.7515 2.07889C3.17955 1.309 3.39359 0.924057 3.71359 0.924057C4.03358 0.924057 4.24759 1.309 4.67564 2.07889L4.7864 2.27808C4.90802 2.49685 4.96885 2.60624 5.06368 2.67842C5.15852 2.7506 5.27663 2.77739 5.51286 2.83097L5.72788 2.87976C6.55914 3.06832 6.97477 3.1626 7.07362 3.48141C7.17251 3.8002 6.88919 4.13242 6.32249 4.79677L6.17587 4.96868C6.01484 5.15745 5.93432 5.25185 5.89812 5.36866C5.86187 5.48543 5.87404 5.61138 5.89841 5.86326L5.92055 6.0926C6.00626 6.97905 6.04909 7.42227 5.79019 7.6193C5.53132 7.81632 5.14217 7.63666 4.36388 7.27738L4.16255 7.18446C3.94136 7.08234 3.83081 7.03131 3.71359 7.03131C3.59636 7.03131 3.48577 7.08234 3.26463 7.18446L3.06325 7.27738C2.28496 7.63666 1.89582 7.81632 1.63694 7.6193C1.37806 7.42227 1.4209 6.97905 1.50658 6.0926L1.52874 5.86326C1.55309 5.61138 1.56526 5.48543 1.52904 5.36866C1.49282 5.25185 1.4123 5.15745 1.25127 4.96868L1.10466 4.79677C0.537975 4.13242 0.254632 3.8002 0.353511 3.48141C0.452394 3.1626 0.868013 3.06832 1.69926 2.87976L1.91431 2.83097C2.1505 2.77739 2.26861 2.7506 2.36345 2.67842C2.45828 2.60624 2.51911 2.49685 2.64073 2.27808L2.7515 2.07889Z" fill="#F0F442"/>
</svg>
