<svg width="8" height="18" viewBox="0 0 8 18" fill="none" xmlns="http://www.w3.org/2000/svg">
<path d="M7.25293 9.66211C7.25293 9.73014 7.23861 9.7946 7.20996 9.85547C7.1849 9.91276 7.1473 9.96647 7.09717 10.0166L2.84326 14.1792C2.74658 14.2759 2.62842 14.3242 2.48877 14.3242C2.39925 14.3242 2.31689 14.3027 2.2417 14.2598C2.1665 14.2168 2.10742 14.1577 2.06445 14.0825C2.02148 14.0109 2 13.9285 2 13.8354C2 13.703 2.04655 13.5866 2.13965 13.4863L6.0498 9.66211L2.13965 5.83789C2.04655 5.73763 2 5.62126 2 5.48877C2 5.39567 2.02148 5.31331 2.06445 5.2417C2.10742 5.1665 2.1665 5.10742 2.2417 5.06445C2.31689 5.02148 2.39925 5 2.48877 5C2.62842 5 2.74658 5.04655 2.84326 5.13965L7.09717 9.30762C7.1473 9.35775 7.1849 9.41325 7.20996 9.47412C7.23861 9.53141 7.25293 9.59408 7.25293 9.66211Z" fill="#007AFF"/>
</svg>
