<svg width="16" height="16" viewBox="0 0 16 16" fill="none" xmlns="http://www.w3.org/2000/svg">
<path d="M7.99998 1.33333C4.32398 1.33333 1.33331 4.324 1.33331 8V10.762C1.33331 11.4447 1.93131 12 2.66665 12H3.33331C3.51012 12 3.67969 11.9298 3.80472 11.8047C3.92974 11.6797 3.99998 11.5101 3.99998 11.3333V7.90467C3.99998 7.72785 3.92974 7.55828 3.80472 7.43326C3.67969 7.30824 3.51012 7.238 3.33331 7.238H2.72798C3.09865 4.658 5.31865 2.66667 7.99998 2.66667C10.6813 2.66667 12.9013 4.658 13.272 7.238H12.6666C12.4898 7.238 12.3203 7.30824 12.1952 7.43326C12.0702 7.55828 12 7.72785 12 7.90467V12C12 12.7353 11.402 13.3333 10.6666 13.3333H9.33331V12.6667H6.66665V14.6667H10.6666C12.1373 14.6667 13.3333 13.4707 13.3333 12C14.0686 12 14.6666 11.4447 14.6666 10.762V8C14.6666 4.324 11.676 1.33333 7.99998 1.33333Z" fill="#007AFF"/>
</svg>
