<svg width="19" height="19" viewBox="0 0 19 19" fill="none" xmlns="http://www.w3.org/2000/svg">
<path fill-rule="evenodd" clip-rule="evenodd" d="M6.82747 11.384L10.2718 7.91114C10.5028 7.67839 10.8786 7.6772 11.1114 7.90758C11.3441 8.13854 11.3459 8.51439 11.1149 8.74714L7.67238 12.2188L10.8228 16.97C10.9457 17.1558 11.1624 17.2568 11.3839 17.2318C11.6054 17.2069 11.7942 17.0602 11.8732 16.8518L16.4694 4.5C17 3.00002 16.6639 2.66506 16.5 2.5C16.3361 2.33494 15.5 2.00001 14.5 2.50002L2.217 7.17192C2.00741 7.24911 1.85956 7.43792 1.83344 7.65939C1.80731 7.88086 1.90766 8.09876 2.0935 8.22226L6.82747 11.384Z" fill="#4A4A4A"/>
</svg>
