<svg width="5" height="6" viewBox="0 0 5 6" fill="none" xmlns="http://www.w3.org/2000/svg">
<path d="M1.90096 1.38593C2.18633 0.872674 2.32903 0.616043 2.54236 0.616043C2.75568 0.616043 2.89835 0.872674 3.18372 1.38593L3.25756 1.51872C3.33864 1.66457 3.3792 1.7375 3.44242 1.78562C3.50564 1.83374 3.58439 1.8516 3.74187 1.88732L3.88521 1.91984C4.43939 2.04555 4.71648 2.10841 4.78238 2.32095C4.84831 2.53347 4.65942 2.75495 4.28163 3.19785L4.18387 3.31246C4.07652 3.4383 4.02284 3.50124 3.99871 3.57911C3.97455 3.65696 3.98266 3.74093 3.99891 3.90884L4.01366 4.06174C4.0708 4.6527 4.09936 4.94818 3.92675 5.07954C3.75418 5.21089 3.49475 5.09111 2.97588 4.85159L2.84166 4.78964C2.69421 4.72157 2.62051 4.68754 2.54236 4.68754C2.4642 4.68754 2.39048 4.72157 2.24305 4.78964L2.1088 4.85159C1.58994 5.09111 1.33051 5.21089 1.15793 5.07954C0.985339 4.94818 1.0139 4.6527 1.07101 4.06174L1.08579 3.90884C1.10202 3.74093 1.11014 3.65696 1.08599 3.57911C1.06184 3.50124 1.00816 3.4383 0.900807 3.31246L0.80307 3.19785C0.42528 2.75495 0.236384 2.53347 0.302304 2.32095C0.368226 2.10841 0.645306 2.04555 1.19947 1.91984L1.34284 1.88732C1.5003 1.8516 1.57904 1.83374 1.64226 1.78562C1.70549 1.7375 1.74604 1.66457 1.82712 1.51872L1.90096 1.38593Z" fill="#F0F442"/>
</svg>
