<svg width="20" height="20" viewBox="0 0 20 20" fill="none" xmlns="http://www.w3.org/2000/svg">
<path fill-rule="evenodd" clip-rule="evenodd" d="M2 0H6.66667V1H2C1.44772 1 1 1.44772 1 2V6.66667H0V2C0 0.895431 0.895431 0 2 0ZM0 13.3333V18C0 19.1046 0.895431 20 2 20H6.66667V19H2C1.44772 19 1 18.5523 1 18V13.3333H0ZM19 13.3333V18C19 18.5523 18.5523 19 18 19H13.3333V20H18C19.1046 20 20 19.1046 20 18V13.3333H19ZM20 6.66667V2C20 0.895431 19.1046 0 18 0H13.3333V1H18C18.5523 1 19 1.44772 19 2V6.66667H20Z" fill="white"/>
<line x1="4" y1="10.5" x2="16" y2="10.5" stroke="white"/>
</svg>
