<svg width="25" height="25" viewBox="0 0 25 25" fill="none" xmlns="http://www.w3.org/2000/svg">
<circle cx="12.5" cy="12.5" r="12.5" fill="#0D0D0D" fill-opacity="0.63"/>
<path fill-rule="evenodd" clip-rule="evenodd" d="M10 5H7C5.89543 5 5 5.89543 5 7V18C5 19.1046 5.89543 20 7 20H10V19H7C6.44772 19 6 18.5523 6 18V7C6 6.44772 6.44772 6 7 6H10V5ZM15 19H18C18.5523 19 19 18.5523 19 18V7C19 6.44772 18.5523 6 18 6H15V5H18C19.1046 5 20 5.89543 20 7V18C20 19.1046 19.1046 20 18 20H15V19Z" fill="white"/>
<line x1="8" y1="12.5" x2="17" y2="12.5" stroke="white"/>
</svg>
