<svg width="133" height="137" fill="none" xmlns="http://www.w3.org/2000/svg"><path d="M63.56 21.186c-31.97 0-57.899 25.93-57.899 57.9 0 31.969 25.929 57.845 57.899 57.845 31.97 0 57.845-25.929 57.845-57.846 0-31.916-25.928-57.898-57.845-57.898zM26.083 70.96h15.45l-7.858-7.378 3.742-3.956 12.831 12.083-1.871 4.704H26.083V70.96zm61.481 40.952c-1.978 9.997-12.189 3.207-15.985.588-10.585-7.378-15.022 2.78-20.369 5.239-5.506 2.566-12.296-1.657-11.868-9.676C39.93 97.583 50.408 92.665 58 95.284c6.897 2.352 9.944 6.148 15.718 6.897 4.758.641 15.45 1.764 13.846 9.73zm13.419-35.552H78.69l-1.872-4.705L89.65 59.572l3.742 3.956-7.858 7.378h15.45v5.453zm5.507-44.747l-5.828-5.186L119.32 5.362l5.828 5.186-18.658 21.064zm9.943 11.013l-4.544-6.362 16.146-11.495 4.544 6.362-16.146 11.495zm-92.97-15.397L11.008 6.592l6.683-4.064 12.456 20.583-6.682 4.117zM95.584.069c3.155 0 5.774 2.566 5.774 5.774a5.75 5.75 0 01-5.774 5.774c-3.154 0-5.773-2.566-5.773-5.774A5.75 5.75 0 0195.583.07zM7.211 22.31a6.799 6.799 0 016.79 6.79c0 3.742-3.047 6.79-6.79 6.79-3.742 0-6.79-3.048-6.79-6.79s3.048-6.79 6.79-6.79z" fill="#fff"/></svg>