<svg width="66" height="66" fill="none" xmlns="http://www.w3.org/2000/svg"><path d="M47.438 41.25a2.062 2.062 0 100-4.125 2.062 2.062 0 000 4.125z" fill="#B0B0B0"/><path d="M63.938 33h-2.063V16.5a4.123 4.123 0 00-4.125-4.125V8.25c0-1.385-.416-2.46-1.242-3.196-1.223-1.091-2.822-.939-2.987-.924l-3.907.402-.661-1.816A4.122 4.122 0 0043.666.25l-18.78 6.835c-8.865.921-17.257 1.8-20.874 2.202C.982 9.623.064 13.311 0 15.437c-.004.139.022.272.067.392-.035.219-.067.44-.067.67v45.376A4.123 4.123 0 004.125 66H57.75a4.123 4.123 0 004.125-4.125v-16.5h2.063c1.14 0 2.062-.923 2.062-2.063v-8.25A2.06 2.06 0 0063.938 33zm-7.219-14.438a1.03 1.03 0 110 2.063h-2.062a1.03 1.03 0 110-2.063h2.062zm-5.156 1.031c0 .57-.461 1.032-1.031 1.032h-2.063a1.03 1.03 0 110-2.063h2.063c.57 0 1.03.461 1.03 1.031zM7.219 59.813H5.157a1.03 1.03 0 110-2.063h2.062a1.03 1.03 0 110 2.062zm0-39.188H5.157a1.03 1.03 0 110-2.063h2.062a1.03 1.03 0 110 2.063zm6.188 39.187h-2.063a1.03 1.03 0 110-2.062h2.063a1.03 1.03 0 110 2.062zm0-39.187h-2.063a1.03 1.03 0 110-2.063h2.063a1.03 1.03 0 110 2.063zm6.187 39.187h-2.062a1.03 1.03 0 110-2.062h2.062a1.03 1.03 0 110 2.062zm0-39.187h-2.062a1.03 1.03 0 110-2.063h2.062a1.03 1.03 0 110 2.063zm6.188 39.187h-2.063a1.03 1.03 0 110-2.062h2.063a1.03 1.03 0 110 2.062zm0-39.187h-2.063a1.03 1.03 0 110-2.063h2.063a1.03 1.03 0 110 2.063zm6.187 39.187h-2.062a1.03 1.03 0 110-2.062h2.062a1.03 1.03 0 110 2.062zm0-39.187h-2.062a1.03 1.03 0 110-2.063h2.062a1.03 1.03 0 110 2.063zm.361-8.25H16.382L44.37 2.188a2.062 2.062 0 012.644 1.232l3.259 8.955h-6.289a6.188 6.188 0 00-5.828-4.125 6.184 6.184 0 00-5.827 4.125zm13.045 7.218c0 .57-.46 1.032-1.03 1.032h-2.063a1.03 1.03 0 110-2.063h2.062c.57 0 1.031.461 1.031 1.031zm-7.218-9.28c1.523 0 2.838.835 3.552 2.062h-7.106c.716-1.227 2.03-2.063 3.554-2.063zm0 49.5h-2.063a1.03 1.03 0 110-2.063h2.063a1.03 1.03 0 110 2.062zm0-39.188h-2.063a1.03 1.03 0 110-2.063h2.063a1.03 1.03 0 110 2.063zm6.187 39.187h-2.062a1.03 1.03 0 110-2.062h2.062a1.03 1.03 0 110 2.062zm6.188 0h-2.063a1.03 1.03 0 110-2.062h2.063a1.03 1.03 0 110 2.062zm6.187 0h-2.062a1.03 1.03 0 110-2.062h2.062a1.03 1.03 0 110 2.062zm7.219-17.531a1.03 1.03 0 01-1.031 1.031H44.344a1.03 1.03 0 01-1.031-1.031v-6.188c0-.57.46-1.03 1.031-1.03h18.563c.57 0 1.03.46 1.03 1.03v6.188z" fill="#fff"/></svg>