<svg width="106" height="32" viewBox="0 0 106 32" fill="none" xmlns="http://www.w3.org/2000/svg">
<g clip-path="url(#clip0_4002_73)">
<path d="M15.8427 0C7.0982 0 0.00830078 7.16052 0.00830078 15.998C0.00830078 24.8328 7.0982 32 15.8427 32C24.587 32 31.6811 24.8328 31.6811 15.998C31.6811 7.16039 24.587 0 15.8427 0ZM37.9929 1.14568L35.6071 13.1976C35.4633 13.9027 35.343 14.6338 35.343 15.3657C35.343 17.4809 36.7391 18.6999 39.5333 18.6999C44.8363 18.6999 47.3407 14.271 47.3407 10.4012C47.3407 8.2807 46.2347 6.25399 43.7764 6.25399C42.3326 6.25399 41.0085 6.88813 40.1428 7.93749H40.09L41.4881 1.14568H37.9929ZM53.0104 1.34685C51.9476 1.34685 51.032 2.14484 51.0108 3.33428C51.008 4.38377 51.7318 5.04248 52.6934 5.04248C53.8041 5.04248 54.7418 4.31203 54.7418 3.07148C54.7418 2.02461 54.0171 1.34685 53.0104 1.34685ZM91.3892 1.34685C90.3345 1.34685 89.4109 2.14484 89.3895 3.33428C89.3869 4.38377 90.1147 5.04248 91.0762 5.04248C92.1844 5.04248 93.1246 4.31203 93.1246 3.07148C93.1246 2.02461 92.4041 1.34685 91.3892 1.34685ZM61.3462 3.19473L57.8102 4.02006L57.3266 6.5248H55.8106L55.331 9.18158H56.8226L55.9041 13.9284C55.7364 14.8272 55.6642 15.4851 55.6642 16.1417C55.6642 17.63 56.6578 18.6999 58.7245 18.6999C59.4678 18.6999 60.3335 18.6011 60.7729 18.429L61.1794 15.6779C60.8624 15.7262 60.5265 15.7271 60.2202 15.7271C59.4691 15.7271 59.2245 15.3186 59.2245 14.7293C59.2245 14.3202 59.3263 13.7107 59.4196 13.2182L60.2202 9.18172H62.7197L63.2237 6.52494H60.7201L61.3462 3.19473ZM14.4852 6.24978L16.7977 6.69326L16.375 8.95991L17.8626 9.24321L18.2853 6.97248L20.5978 7.40768L20.1466 9.83858C20.4769 9.97038 20.7792 10.1056 21.0165 10.2697C21.637 10.6869 22.09 11.1846 22.3618 11.7767C22.6307 12.3687 22.701 12.9797 22.5813 13.604C22.4986 14.056 22.322 14.4728 22.053 14.8523C21.7865 15.221 21.4401 15.5312 21.0166 15.7762C20.5957 16.0183 20.0668 16.1869 19.4356 16.2811C20.0401 16.5636 20.5003 16.8387 20.8012 17.1024C21.238 17.4737 21.5552 17.9332 21.7522 18.4902C21.9465 19.0392 21.9859 19.6192 21.8742 20.2354C21.7383 20.9701 21.3945 21.6035 20.846 22.1283C20.2945 22.6693 19.586 23.025 18.7285 23.1919C18.4114 23.2484 18.0523 23.285 17.6555 23.2904L17.1963 25.7501L14.8838 25.319L15.3065 23.0442C15.2478 23.0254 15.1944 23.0221 15.1358 23.0113L13.815 22.7649L13.3963 25.0357L11.0838 24.6005L11.5024 22.3257L7.97465 21.6563L8.32828 19.7469L8.86879 19.8496C9.2284 19.9222 9.47538 19.9392 9.61662 19.8906C9.75773 19.8529 9.85891 19.7793 9.9337 19.677C10.0109 19.5721 10.0852 19.3157 10.1573 18.9174L11.5798 11.2224C11.6571 10.8187 11.6807 10.5496 11.6489 10.4258C11.6169 10.302 11.5425 10.1931 11.4253 10.1097C11.3135 10.0154 11.0736 9.93201 10.714 9.87564L10.1735 9.76474L10.5271 7.85536L14.059 8.52879L14.4852 6.24978ZM71.015 6.25373C66.527 6.25373 63.3296 9.5654 63.3296 13.8092C63.3296 16.896 65.3781 18.6793 68.2919 18.6793C69.6877 18.6793 70.8951 18.4295 71.6408 18.0716L71.6164 15.382C71.0144 15.6295 70.2889 15.8706 69.2794 15.8706C67.9796 15.8706 66.9709 15.0406 66.9709 13.415C66.9709 11.1733 68.4836 9.05833 70.9661 9.05833C71.6639 9.05833 72.1438 9.18158 72.5593 9.34583L73.4006 6.67263C72.8972 6.45188 72.0244 6.25373 71.015 6.25373ZM80.635 6.25373C76.4428 6.25373 73.5998 9.64162 73.5998 13.7805C73.5998 16.7326 75.5981 18.6998 78.5866 18.6998C82.686 18.6998 85.6219 15.5025 85.6219 11.1484C85.6219 8.4439 83.7941 6.25373 80.635 6.25373ZM102.216 6.25373C100.65 6.25373 99.1842 6.93622 98.0708 8.4916H98.022L98.2619 6.52467H95.1811C95.0293 7.57955 94.8389 8.88988 94.5511 10.3969L93.0554 18.4206H96.5222L97.5139 13.144C97.9936 10.5148 99.3245 9.07462 100.456 9.07462C101.325 9.07462 101.615 9.66369 101.615 10.4872C101.615 10.9232 101.563 11.4128 101.497 11.83L100.265 18.4206H103.736L105.037 11.5097C105.135 10.9258 105.228 10.0237 105.228 9.49353C105.228 7.44303 104.142 6.25373 102.216 6.25373ZM50.5312 6.5206L48.2918 18.4287H51.7586L53.998 6.5206H50.5312ZM88.9018 6.5206L86.6624 18.4287H90.1333L92.3726 6.5206H88.9018ZM80.1758 8.9105C81.5742 8.9105 82.0331 10.0779 82.0331 11.1731C82.0331 13.2156 80.9789 16.0227 79.0744 16.0227C77.8678 16.0227 77.1885 15.0941 77.1885 13.7108C77.1673 11.8593 78.1783 8.9105 80.1758 8.9105ZM42.1588 9.0829C43.2162 9.0829 43.6951 9.98142 43.6951 11.1278C43.6951 13.2161 42.253 16.043 40.2526 16.043C39.4535 16.043 38.9517 15.5793 38.9276 14.729C38.9037 14.2231 38.9976 13.8108 39.0454 13.4232L39.265 12.4418C39.6778 10.3697 40.9042 9.0829 42.1588 9.0829ZM15.1111 11.0211L14.4893 14.3841L15.989 14.6716C16.7693 14.8169 17.3628 14.8568 17.7651 14.7949C18.1645 14.7384 18.4776 14.5911 18.7202 14.3597C18.9518 14.1337 19.1114 13.8376 19.1754 13.4851C19.2446 13.1217 19.2136 12.7984 19.0778 12.5077C18.95 12.2224 18.724 11.9954 18.3991 11.8097C18.082 11.6402 17.4897 11.4689 16.6108 11.3046L15.1111 11.0211ZM14.1154 16.425L13.5667 19.4103C13.5 19.8274 13.4653 20.0875 13.4732 20.1577C13.4891 20.2573 13.5325 20.3336 13.5992 20.3795C13.6711 20.4279 13.8676 20.4915 14.2007 20.5478L15.1964 20.7409C15.7796 20.8458 16.2695 20.8854 16.6718 20.8475C17.0739 20.8098 17.4402 20.644 17.7732 20.3507C18.1009 20.0546 18.31 19.673 18.4032 19.1886C18.4724 18.7822 18.4455 18.4207 18.3097 18.1005C18.1685 17.7829 17.9297 17.511 17.5782 17.2957C17.2265 17.0803 16.665 16.9057 15.8874 16.7577L14.1154 16.425ZM78.2534 20.2644V23.3523H78.229C77.9707 22.9565 77.4298 22.7076 76.7374 22.7076C75.3843 22.7076 74.1946 23.8126 74.2053 25.7422C74.2053 27.513 75.281 28.674 76.6236 28.674C77.348 28.674 78.0294 28.3454 78.3916 27.7049H78.416L78.4933 28.5467H80.0539C80.0274 28.1592 80.0052 27.483 80.0052 26.8426V20.2644H78.2534ZM83.7564 20.2644V28.5467H85.5162V25.1591C85.5162 25.0271 85.5279 24.8777 85.5732 24.7649C85.7009 24.4526 85.9917 24.1488 86.4551 24.1488C87.113 24.1488 87.3655 24.6585 87.3655 25.4095V28.5467H89.1212V25.2124C89.1212 23.4955 88.27 22.7117 87.1459 22.7117C86.8235 22.7117 86.4898 22.7908 86.2315 22.9335C85.9545 23.0841 85.7256 23.2744 85.5365 23.5167H85.5162V20.2645L83.7564 20.2644ZM66.207 21.2088L64.4837 21.5989V22.8391H63.7359V24.1449H64.4837V26.4732C64.4837 27.2831 64.6451 27.8313 64.9674 28.1732C65.2445 28.4584 65.7183 28.666 66.2882 28.666C66.7838 28.666 67.2014 28.6067 67.4303 28.5099L67.418 27.1671C67.2928 27.1887 67.1203 27.2123 66.9018 27.2123C66.3719 27.2123 66.2068 26.8992 66.2068 26.2104V24.1449H67.4708V22.8391H66.2068L66.207 21.2088ZM37.172 22.7075C36.1439 22.7075 35.3687 22.9892 34.9773 23.2126L35.2984 24.3583C35.6686 24.1214 36.2837 23.9272 36.859 23.9272C37.7273 23.9272 37.8873 24.3567 37.8873 24.658V24.7442C35.8896 24.7281 34.5708 25.4433 34.5708 26.9287C34.5708 27.8383 35.2504 28.6739 36.3957 28.6739C37.0641 28.6739 37.6429 28.4264 38.0133 27.9717H38.0497L38.1514 28.5465H39.7365C39.6805 28.2317 39.6593 27.7048 39.6593 27.1504V25.1713C39.6593 23.8284 39.0549 22.7075 37.172 22.7075ZM43.9591 22.7075C41.8549 22.7075 40.7241 24.0736 40.7241 25.7421C40.7241 27.537 41.8908 28.6617 43.7154 28.6617C44.3865 28.6617 44.9765 28.5429 45.2883 28.4029L45.0768 27.0971C44.8104 27.2021 44.4886 27.2654 44.0729 27.2654C43.218 27.2654 42.5244 26.7203 42.5244 25.6681C42.5112 24.7396 43.1175 24.0749 44.0363 24.0749C44.4997 24.0749 44.8123 24.149 45.0198 24.2432L45.2962 22.9292C44.9287 22.7839 44.42 22.7075 43.9591 22.7075ZM49.0435 22.7075C46.9393 22.7075 45.8084 24.0736 45.8084 25.7421C45.8084 27.537 46.9765 28.6617 48.8037 28.6617C49.4723 28.6617 50.065 28.5429 50.3766 28.4029L50.1693 27.0971C49.9029 27.2021 49.5796 27.2654 49.1614 27.2654C48.3091 27.2654 47.6129 26.7203 47.6129 25.6681C47.5996 24.7396 48.2032 24.0749 49.1248 24.0749C49.5857 24.0749 49.8967 24.149 50.1043 24.2432L50.3847 22.9292C50.0145 22.7839 49.5072 22.7075 49.0435 22.7075ZM53.754 22.7075C51.7884 22.7075 50.9009 24.3051 50.9009 25.7502C50.9009 27.5344 52.0015 28.6615 53.9166 28.6615C54.6812 28.6615 55.383 28.541 55.961 28.3042L55.7334 27.1052C55.2593 27.2613 54.772 27.3392 54.1727 27.3392C53.3523 27.3392 52.6356 26.9939 52.5795 26.2593H56.213C56.2397 26.1273 56.2741 25.8651 56.2741 25.553C56.274 24.1512 55.576 22.7075 53.754 22.7075ZM60.7933 22.7075C59.9757 22.7075 59.3231 23.0205 58.9075 23.6314H58.8874L58.8101 22.8389H57.282C57.3033 23.3582 57.3307 24.0043 57.3307 24.7524V30.8543H59.0865V28.0211H59.1068C59.3651 28.395 59.8921 28.674 60.5739 28.674C61.8338 28.674 63.1385 27.6949 63.1385 25.6149C63.1385 23.7929 62.0294 22.7075 60.7933 22.7075ZM70.9581 22.7075C68.9978 22.7075 68.1049 24.3051 68.1049 25.7502C68.1049 27.5344 69.2055 28.6615 71.1206 28.6615C71.8852 28.6615 72.587 28.541 73.165 28.3042L72.9335 27.1052C72.4593 27.2613 71.9761 27.3392 71.3768 27.3392C70.5537 27.3392 69.8422 26.9939 69.7836 26.2593H73.4172C73.4384 26.1273 73.4741 25.8651 73.4741 25.553C73.474 24.1512 72.7826 22.7075 70.9581 22.7075ZM93.0677 22.7075C91.1021 22.7075 90.2145 24.3051 90.2145 25.7502C90.2145 27.5344 91.3124 28.6615 93.2302 28.6615C93.9948 28.6615 94.6981 28.541 95.2786 28.3042L95.043 27.1052C94.5715 27.2613 94.0857 27.3392 93.4863 27.3392C92.6633 27.3392 91.9477 26.9939 91.8891 26.2593H95.5266C95.548 26.1273 95.5836 25.8651 95.5836 25.553C95.5835 24.1512 94.8896 22.7075 93.0677 22.7075ZM103.472 22.7075C101.512 22.7075 100.619 24.3051 100.619 25.7502C100.619 27.5344 101.72 28.6615 103.635 28.6615C104.399 28.6615 105.105 28.541 105.683 28.3042L105.452 27.1052C104.977 27.2613 104.493 27.3392 103.891 27.3392C103.071 27.3392 102.356 26.9939 102.298 26.2593H105.931C105.958 26.1273 105.992 25.8651 105.992 25.553C105.992 24.1512 105.297 22.7075 103.472 22.7075ZM99.7371 22.7155C99.1966 22.7155 98.5048 23.0653 98.217 23.8941H98.1642L98.1072 22.8388H96.5993C96.6207 23.3288 96.6399 23.8825 96.6399 24.7194V28.5464H98.3957V25.6515C98.3957 25.5117 98.4083 25.3731 98.4322 25.2573C98.5468 24.7059 98.9868 24.358 99.6312 24.358C99.8284 24.358 99.983 24.3858 100.111 24.4073V22.736C99.9859 22.7119 99.9024 22.7157 99.7371 22.7155ZM53.6484 23.8858C54.4528 23.8858 54.6441 24.6106 54.6441 25.0437H52.5632C52.6085 24.5595 52.9079 23.8858 53.6484 23.8858ZM70.8524 23.8858C71.6649 23.8858 71.8523 24.6106 71.8523 25.0437H69.7674C69.818 24.5595 70.1148 23.8858 70.8524 23.8858ZM92.9621 23.8858C93.7719 23.8858 93.9578 24.6106 93.9578 25.0437H91.8769C91.9223 24.5595 92.2244 23.8858 92.9621 23.8858ZM103.367 23.8858C104.174 23.8858 104.362 24.6106 104.362 25.0437H102.281C102.329 24.5595 102.624 23.8858 103.367 23.8858ZM77.2008 24.0583C77.7415 24.0583 78.1252 24.4541 78.229 24.9329C78.2397 25.0217 78.2536 25.1508 78.2536 25.245V26.0005C78.2536 26.154 78.2434 26.2807 78.2088 26.4071C78.1049 26.9104 77.7001 27.2571 77.1887 27.2571C76.4643 27.2571 75.9856 26.6478 75.9856 25.6844C75.9856 24.7856 76.399 24.0583 77.2008 24.0583ZM60.1716 24.0993C60.96 24.0993 61.3583 24.7871 61.3583 25.6966C61.3583 26.6629 60.9064 27.3144 60.1472 27.3144C59.6386 27.3144 59.2336 26.949 59.119 26.4727C59.0978 26.3624 59.0865 26.2402 59.0865 26.0949V25.3106C59.0865 25.2085 59.0977 25.0914 59.119 24.9944C59.2335 24.4725 59.6736 24.0993 60.1716 24.0993ZM37.9441 25.8486L37.948 26.4687C37.948 26.5737 37.9354 26.6812 37.9115 26.7725C37.7969 27.1386 37.4365 27.4214 36.997 27.4214C36.6054 27.4214 36.3062 27.2027 36.3062 26.7479C36.3062 26.0536 37.0224 25.8326 37.9441 25.8486Z" fill="#808080"/>
</g>
<defs>
<clipPath id="clip0_4002_73">
<rect width="106" height="32" fill="white"/>
</clipPath>
</defs>
</svg>
