<svg width="54" height="32" viewBox="0 0 54 32" fill="none" xmlns="http://www.w3.org/2000/svg">
<path d="M54.0001 16C54.0001 24.7795 46.7724 32 37.8001 32C28.9109 32 21.6001 24.7795 21.6001 16C21.6001 7.22051 28.8278 0 37.717 0C46.7724 0 54.0001 7.22051 54.0001 16Z" fill="#B9B9B9"/>
<path d="M32.3169 16.0821C32.3169 14.9333 32.1508 13.7846 31.9846 12.7179H22.0154C22.0985 12.1436 22.2646 11.6513 22.4308 10.9949H31.32C31.1538 10.4205 30.9046 9.84615 30.6554 9.2718H23.0954C23.3446 8.69744 23.6769 8.20513 24.0092 7.54872H29.7415C29.4092 6.97436 28.9938 6.4 28.4954 5.82564H25.3385C25.8369 5.25128 26.3354 4.75897 27 4.18462C24.1754 1.55897 20.3538 0 16.1169 0C7.31077 0.246154 0 7.22051 0 16C0 24.7795 7.22769 32 16.2 32C20.4369 32 24.1754 30.359 27.0831 27.8154C27.6646 27.3231 28.1631 26.7487 28.7446 26.0923H25.4215C25.0062 25.6 24.5908 25.0256 24.2585 24.4513H29.9077C30.24 23.959 30.5723 23.3846 30.8215 22.7282H23.2615C23.0123 22.2359 22.7631 21.6615 22.5969 21.0051H31.4862C31.9846 19.5282 32.3169 17.8872 32.3169 16.0821Z" fill="#B9B9B9"/>
<path d="M21.9322 20.1024L22.1815 18.6255C22.0984 18.6255 21.9323 18.7075 21.7661 18.7075C21.1846 18.7075 21.1015 18.3793 21.1846 18.2152L21.683 15.2614H22.5969L22.8461 13.6204H22.0153L22.1815 12.6357H20.4369C20.4369 12.6357 19.4399 18.2152 19.4399 18.8716C19.4399 19.8563 20.0215 20.3486 20.8522 20.3486C21.3507 20.3486 21.7661 20.1845 21.9322 20.1024Z" fill="white"/>
<path d="M22.5137 17.3951C22.5137 19.7746 24.1752 20.349 25.5044 20.349C26.7506 20.349 27.3321 20.1028 27.3321 20.1028L27.6644 18.4618C27.6644 18.4618 26.7506 18.8721 25.8367 18.8721C23.926 18.8721 24.2583 17.4772 24.2583 17.4772H27.7475C27.7475 17.4772 27.9967 16.4105 27.9967 15.9182C27.9967 14.8516 27.4152 13.4567 25.5044 13.4567C23.8429 13.3746 22.5137 15.2618 22.5137 17.3951ZM25.5044 14.9336C26.4183 14.9336 26.2521 16.0003 26.2521 16.0823H24.3414C24.4244 16.0003 24.5906 14.9336 25.5044 14.9336Z" fill="white"/>
<path d="M36.3877 20.1026L36.72 18.2154C36.72 18.2154 35.8893 18.6257 35.2247 18.6257C34.0616 18.6257 33.48 17.7231 33.48 16.6565C33.48 14.6052 34.477 13.5385 35.7231 13.5385C36.5539 13.5385 37.3016 14.0308 37.3016 14.0308L37.5508 12.2257C37.5508 12.2257 36.5539 11.8154 35.557 11.8154C33.5631 11.8154 31.6523 13.5385 31.6523 16.7385C31.6523 18.8718 32.6493 20.2667 34.7262 20.2667C35.4739 20.3488 36.3877 20.1026 36.3877 20.1026Z" fill="white"/>
<path d="M12.5447 13.374C11.3816 13.374 10.4678 13.7022 10.4678 13.7022L10.2185 15.1792C10.2185 15.1792 10.9662 14.8509 12.1293 14.8509C12.7108 14.8509 13.2093 14.933 13.2093 15.4253C13.2093 15.7535 13.1262 15.8356 13.1262 15.8356H12.3785C10.8831 15.8356 9.30469 16.4099 9.30469 18.3792C9.30469 19.9381 10.3016 20.2663 10.9662 20.2663C12.1293 20.2663 12.7108 19.5279 12.7939 19.5279L12.7108 20.1843H14.1231L14.7878 15.5074C14.7878 13.4561 13.1262 13.374 12.5447 13.374ZM12.877 17.1484C12.877 17.3945 12.7108 18.7894 11.7139 18.7894C11.2155 18.7894 11.0493 18.3792 11.0493 18.133C11.0493 17.7227 11.2985 17.1484 12.6278 17.1484C12.7939 17.1484 12.877 17.1484 12.877 17.1484Z" fill="white"/>
<path d="M16.4495 20.2664C16.8649 20.2664 19.0249 20.3484 19.0249 18.051C19.0249 15.9176 16.9479 16.3279 16.9479 15.5074C16.9479 15.0971 17.2803 14.933 17.8618 14.933C18.111 14.933 19.0249 15.0151 19.0249 15.0151L19.2741 13.4561C19.2741 13.4561 18.6926 13.292 17.6126 13.292C16.3664 13.292 15.0372 13.7843 15.0372 15.5074C15.0372 17.4766 17.1972 17.3125 17.1972 18.051C17.1972 18.5433 16.6156 18.6253 16.2003 18.6253C15.4526 18.6253 14.6218 18.3792 14.6218 18.3792L14.3726 19.9381C14.5387 20.1022 15.0372 20.2664 16.4495 20.2664Z" fill="white"/>
<path d="M50.6769 12.0615L50.3446 14.359C50.3446 14.359 49.68 13.5384 48.6831 13.5384C47.1046 13.5384 45.7754 15.4256 45.7754 17.641C45.7754 19.0359 46.44 20.4308 47.9354 20.4308C48.9323 20.4308 49.5969 19.7743 49.5969 19.7743L49.5139 20.3487H51.2585L52.5046 12.2256L50.6769 12.0615ZM49.8462 16.4923C49.8462 17.3949 49.4308 18.6256 48.4339 18.6256C47.8523 18.6256 47.52 18.1333 47.52 17.2308C47.52 15.8359 48.1015 15.0154 48.9323 15.0154C49.5139 15.0974 49.8462 15.5077 49.8462 16.4923Z" fill="white"/>
<path d="M3.15714 20.1846L4.15407 14.1128L4.32022 20.1846H5.4833L7.72638 14.1128L6.81253 20.1846H8.64022L10.0525 12.0615H7.22791L5.4833 17.0667L5.40022 12.0615H2.90791L1.49561 20.1846H3.15714Z" fill="white"/>
<path d="M29.7418 20.1842C30.2403 17.3945 30.3234 15.0971 31.5695 15.5073C31.7357 14.4406 31.9849 13.9483 32.1511 13.5381H31.8187C31.0711 13.5381 30.4064 14.5227 30.4064 14.5227L30.5726 13.6201H28.9111L27.8311 20.1842H29.7418Z" fill="white"/>
<path d="M40.3753 13.374C39.2122 13.374 38.2983 13.7022 38.2983 13.7022L38.0491 15.1792C38.0491 15.1792 38.7968 14.8509 39.9599 14.8509C40.5414 14.8509 41.0399 14.933 41.0399 15.4253C41.0399 15.7535 40.9568 15.8356 40.9568 15.8356H40.2091C38.7137 15.8356 37.1353 16.4099 37.1353 18.3792C37.1353 19.9381 38.1322 20.2663 38.7968 20.2663C39.9599 20.2663 40.5414 19.5279 40.6245 19.5279L40.5414 20.1843H42.1199L42.7845 15.5074C42.7845 13.4561 40.9568 13.374 40.3753 13.374ZM40.7906 17.1484C40.7906 17.3945 40.6245 18.7894 39.6276 18.7894C39.1291 18.7894 38.9629 18.3792 38.9629 18.133C38.9629 17.7227 39.2122 17.1484 40.5414 17.1484C40.7076 17.1484 40.7076 17.1484 40.7906 17.1484Z" fill="white"/>
<path d="M44.1139 20.1842C44.6124 17.3945 44.6954 15.0971 45.9416 15.5073C46.1077 14.4406 46.357 13.9483 46.5231 13.5381H46.1908C45.4431 13.5381 44.7785 14.5227 44.7785 14.5227L44.9447 13.6201H43.2831L42.2031 20.1842H44.1139Z" fill="white"/>
</svg>
