<svg width="110" height="32" viewBox="0 0 110 32" fill="none" xmlns="http://www.w3.org/2000/svg">
<path d="M98.6917 0H77.5142C78.7478 7.01937 85.5329 13.6258 92.9347 13.6258H109.795C110 13.0065 110 11.9742 110 11.3549C110 5.1613 104.86 0 98.6917 0Z" fill="#B9B9B9"/>
<path d="M79.3643 14.8643V31.9998H89.6446V22.9159H98.6914C103.626 22.9159 107.944 19.4062 109.383 14.8643H79.3643Z" fill="#B9B9B9"/>
<path d="M43.1777 0V31.7936H52.2245C52.2245 31.7936 54.4862 31.7936 55.7198 29.5226C61.888 17.342 63.7385 13.6258 63.7385 13.6258H64.9721V31.7936H75.2525V0H66.2058C66.2058 0 63.9441 0.206465 62.7104 2.27098C57.5703 12.8 54.6918 18.1678 54.6918 18.1678H53.4581V0H43.1777Z" fill="#B9B9B9"/>
<path d="M0 32.0001V0.206543H10.2804C10.2804 0.206543 13.1589 0.206537 14.8038 4.74848C18.9159 16.7227 19.3272 18.3743 19.3272 18.3743C19.3272 18.3743 20.1495 15.484 23.8505 4.74848C25.4953 0.206537 28.3739 0.206543 28.3739 0.206543H38.6543V32.0001H28.3739V14.8646H27.1402L21.3832 32.0001H16.8598L11.1029 14.8646H9.8692V32.0001H0Z" fill="#B9B9B9"/>
</svg>
