<svg width="130" height="32" viewBox="0 0 130 32" fill="none" xmlns="http://www.w3.org/2000/svg">
<path d="M34.7527 14.8116L35.2178 13.3404L33.7048 13.3887C32.9961 13.3623 32.3135 13.1215 31.7396 12.6969H31.9439C32.8657 12.6925 33.7092 12.1627 34.1178 11.3308L34.7831 9.8992C34.2613 9.90356 33.7396 9.87287 33.2222 9.8072C32.7265 9.68902 32.2831 9.4176 31.9483 9.03229C31.4961 8.54633 30.8701 8.27047 30.2092 8.26611C29.9526 8.26611 29.6961 8.30989 29.4483 8.38865C29.4831 8.27047 29.5135 8.15229 29.5353 8.02967C29.6396 7.17593 29.4005 6.31338 28.8744 5.63478L27.7265 4.21185L27.0222 5.87556C26.9092 6.112 26.7396 6.31782 26.5222 6.46662C26.4005 5.8712 26.1135 5.32831 25.6874 4.89924C24.9744 4.16369 23.9961 3.75215 22.9744 3.7609C22.7961 3.7609 22.6179 3.77404 22.444 3.80031L21.07 4.07175C21.1875 3.60766 21.3744 3.16546 21.6266 2.75828L22.3831 1.57178L20.4787 1.75129L19.87 0.437825L18.6961 1.08143L17.6092 0L16.5222 1.08143L15.3483 0.468473L14.7396 1.75129L12.8352 1.53238L13.5918 2.72326C13.844 3.13044 14.0309 3.57263 14.1483 4.03673L12.844 3.77841H12.8005C12.6179 3.75215 12.4353 3.73901 12.2526 3.73901C11.2309 3.73025 10.2526 4.1418 9.5396 4.87735C9.10915 5.31079 8.81355 5.86247 8.69612 6.46662C8.48747 6.32218 8.31789 6.12516 8.20486 5.89309L7.49614 4.21623L6.33965 5.64353C5.82225 6.32218 5.59179 7.18029 5.69182 8.02967C5.71356 8.15229 5.74396 8.27047 5.77877 8.38865C5.5309 8.30989 5.27437 8.26611 5.01791 8.26611C4.35701 8.27047 3.73091 8.54633 3.27873 9.03229C2.94831 9.41316 2.5092 9.68466 2.01787 9.8072C1.49614 9.88604 0.965738 9.91665 0.435266 9.8992L1.0831 11.3527C1.4918 12.1846 2.33529 12.7144 3.25699 12.7188H3.46138C2.89617 13.1347 2.22226 13.3755 1.52221 13.4061L0.000488281 13.3404L0.465672 14.8116C0.813566 15.9631 1.80048 16.808 2.98746 16.9612C2.86569 17.7362 2.37877 18.4061 1.68312 18.7564L0.517888 19.2335L1.14398 20.3325C1.66138 21.1425 2.55268 21.6241 3.50485 21.6153C3.75265 21.6153 4.00052 21.589 4.24398 21.5365C4.30486 21.8036 4.38308 22.0706 4.47003 22.3289C4.68742 22.9069 4.70049 23.5374 4.51351 24.1241L3.9483 25.3193L5.21356 25.6564C5.49617 25.7308 5.79177 25.7659 6.08312 25.7659C6.29177 25.7659 6.49615 25.744 6.70047 25.6959C6.84831 25.6608 6.99615 25.617 7.13525 25.5601C7.29616 25.8535 7.50048 26.1249 7.73094 26.3657C8.53961 27.202 9.68744 27.6266 11.1439 27.6266H12.1831L10.0396 28.5241L11.6657 29.3341C12.3222 29.6581 12.9918 29.9515 13.6744 30.2097L13.4787 30.779L14.0396 31.0372C14.9701 31.405 15.957 31.6108 16.957 31.6458H18.2918C19.2874 31.6108 20.27 31.4007 21.1961 31.0329L21.7396 30.779L21.5483 30.2097C22.2396 29.9427 22.9179 29.6406 23.5787 29.3035L25.1744 28.5241L23.0353 27.6485H24.0787C25.5352 27.6485 26.6875 27.2107 27.4918 26.3876C27.7265 26.1468 27.9266 25.8753 28.0874 25.582C28.2266 25.6389 28.3744 25.6827 28.5222 25.7177C28.7266 25.7659 28.9309 25.7878 29.1396 25.7878C29.4309 25.7878 29.7266 25.7484 30.0092 25.6783L31.2787 25.3412L30.7266 24.1679C30.5178 23.5724 30.5266 22.92 30.7483 22.3289C30.8396 22.0619 30.9135 21.7905 30.9744 21.519C31.2179 21.5716 31.47 21.5978 31.7179 21.5978C32.6787 21.6065 33.5744 21.1074 34.0831 20.2844L34.7005 19.1985L33.5526 18.7257C32.857 18.3754 32.3701 17.7055 32.2483 16.9306C33.4353 16.773 34.4222 15.9324 34.7701 14.7765L34.7527 14.8116Z" fill="white"/>
<path d="M22.8353 19.4611H12.4005V23.4015C12.4005 25.0215 13.5614 26.0285 15.2788 26.0285C16.7136 26.0285 17.0919 26.0853 17.6223 26.6195C17.9571 26.2561 18.4309 26.0504 18.9266 26.0591V25.9978L19.2571 24.9733L18.6962 24.356C18.4701 24.426 18.2353 24.4523 18.0006 24.4392C17.6483 24.4348 17.3005 24.3997 16.957 24.3297H16.8483C16.8005 24.3297 16.8005 24.3297 16.7875 24.356L16.7223 24.4654L16.6049 24.6624L16.3788 24.6099L15.3744 24.3735L15.2353 24.6011V24.6275L15.3571 24.7632L15.3049 24.9383C15.2136 25.1528 15.0832 25.3454 14.9179 25.5118L14.6658 25.7833L14.4353 25.4943L14.2657 25.2797C14.0832 25.0389 14.0397 24.7237 14.1441 24.4392L13.8614 24.5573L13.7353 24.2772L13.6658 24.0801C13.4875 23.6642 13.6222 23.1826 13.9831 22.9199L14.7918 22.4821L15.5614 22.6353C15.5614 22.5609 15.6092 22.2939 15.631 22.2282H15.5875L15.1527 22.3945L14.7179 22.0968C14.631 22.0093 14.6266 21.8648 14.7179 21.7728L15.131 21.1424L14.0832 19.8289L15.6527 20.4506L15.7614 20.3192L15.9788 20.0565L16.2267 20.293C16.2919 20.3587 16.3353 20.4375 16.3571 20.5294C16.7919 20.7045 17.5962 21.2168 17.6614 22.0486L17.4136 22.1493C17.444 22.1931 17.4832 22.2282 17.531 22.2501L18.6788 22.3639L18.7832 22.3332C18.9788 22.2588 19.1875 22.2194 19.3962 22.215C19.6049 22.215 19.8092 22.2632 19.9962 22.3551C20.0788 22.3245 20.1701 22.3069 20.2571 22.3026H20.3136C20.9267 22.3026 21.2353 22.7667 21.4788 23.1344L21.6049 23.3184C21.818 23.6248 22.1006 24.0714 22.1136 24.0889L22.2397 24.2859L22.0832 24.4698C21.9396 24.6624 21.7136 24.7719 21.4745 24.7719C21.4049 24.7763 21.3353 24.7763 21.2657 24.7719C21.2049 24.7588 21.144 24.7413 21.0832 24.715C21.0832 24.7763 21.0832 24.8507 21.0484 24.912L20.8701 25.9453C22.0527 25.7045 22.8875 24.6362 22.8397 23.419L22.8353 19.4611ZM12.3875 19.1415H20.5136C20.1831 18.7912 20.0701 18.2877 20.2179 17.828C20.1092 17.7755 20.0049 17.7054 19.9136 17.6267C19.5962 17.8631 18.6093 18.5723 18.3745 18.7518L18.3223 18.7869L15.131 18.2177H15.0658C14.9614 18.2221 14.8571 18.2221 14.7527 18.2177C14.7223 18.3621 14.5962 18.4629 14.4527 18.4629H14.4006C14.231 18.4323 14.1136 18.2702 14.1397 18.0995V18.0294C13.7266 17.7317 13.531 17.2151 13.6397 16.716V16.659L13.6875 16.624C13.6875 16.624 13.7483 16.5803 13.831 16.5321L13.6006 16.4971C13.5136 16.4795 13.4571 16.4008 13.4701 16.3132C13.4831 16.2256 13.5614 16.1687 13.6484 16.1819H13.6527L14.2049 16.2694L14.2571 14.3123L15.0788 13.4367L15.5919 14.5224L15.0528 16.4051L15.5397 16.4839C15.6266 16.5014 15.6832 16.5803 15.6701 16.6678C15.6571 16.7466 15.5919 16.7992 15.5136 16.7992H15.4875L15.0918 16.7335V16.7641C15.1353 16.8429 15.2006 16.9043 15.2831 16.9436L17.7136 16.983L18.3353 16.3657C17.8614 16.1993 17.5223 15.779 17.4658 15.2755C17.1614 15.1573 16.9136 14.9296 16.7745 14.6363C16.6571 14.3605 16.6354 14.0496 16.718 13.7607C16.3353 13.6075 15.9875 13.3754 15.7049 13.0776H12.0962C12.2701 13.5067 12.3701 13.9621 12.3875 14.4218V19.1415Z" fill="white"/>
<path d="M40.4355 15.7613H44.0181V21.8908H46.6268V15.7613H50.2094V13.5371H40.4355V15.7613ZM53.6529 18.3882V13.5722H51.1312V21.8908H53.3573L57.7051 17.0222V21.8908H60.2269V13.5371H58.0008L53.6529 18.3882ZM68.6228 16.6369H64.5703V13.5722H62.0485V21.8908H64.5703V18.7735H68.6228V21.8908H71.1441V13.5722H68.6228V16.6369ZM79.94 15.989C79.3442 15.805 78.718 15.7306 78.0962 15.7613H75.4875V13.5722H72.9662V21.8908L78.0788 21.8558C78.614 21.8645 79.1441 21.8032 79.662 21.6631C80.975 21.3391 81.8792 20.1351 81.8358 18.7735C81.8878 17.5257 81.118 16.3874 79.94 15.989ZM78.653 19.7542C78.3352 19.8637 77.9965 19.9074 77.6614 19.8768H75.4875V17.7578H77.6614C77.9878 17.7359 78.3179 17.7753 78.6357 17.8629C79.0358 17.981 79.3052 18.3532 79.2965 18.7735C79.3008 19.2026 79.0488 19.5922 78.653 19.7542ZM92.4005 13.5722H89.2357L86.1923 16.707H85.4968V13.5722H82.9748V21.8908H85.4968V18.7385H86.1923L89.2011 21.8908H92.5572L88.3662 17.5126L92.4005 13.5722Z" fill="#B9B9B9"/>
<path d="M97.827 13.3099C94.4182 13.3099 92.3829 15.2363 92.3829 17.7231C92.3829 20.21 94.4355 22.1364 97.809 22.1364C101.183 22.1364 103.218 20.21 103.218 17.7231C103.218 15.2363 101.235 13.3099 97.827 13.3099ZM97.809 20.1049C96.1226 20.1049 95.0443 19.0892 95.0443 17.7231C95.0443 16.3572 96.1399 15.3589 97.809 15.3589C99.4788 15.3589 100.574 16.3572 100.574 17.7231C100.574 19.0892 99.4961 20.1049 97.809 20.1049ZM111.527 13.9053V13.0647H109.005V13.9053C105.839 13.9754 103.944 15.3239 103.944 17.7056C103.944 20.0874 105.839 21.3309 109.005 21.4009V22.2415H111.527V21.4009C114.709 21.3309 116.605 20.0874 116.605 17.7056C116.605 15.3239 114.713 13.9754 111.527 13.9053ZM109.005 19.6146C107.266 19.5445 106.5 18.8265 106.5 17.7056C106.5 16.5848 107.266 15.7792 109.005 15.7092V19.6146ZM111.527 19.6146V15.7092C113.283 15.7792 114.031 16.5848 114.031 17.7056H114.035C114.035 18.8265 113.288 19.5445 111.527 19.6146ZM124.922 13.9053V13.0647H122.401V13.9053C119.235 13.9754 117.339 15.3239 117.339 17.7056C117.339 20.0874 119.235 21.3309 122.401 21.4009V22.2415H124.922V21.4009C128.105 21.3309 130.001 20.0874 130.001 17.7056C130.001 15.3239 128.105 13.9754 124.922 13.9053ZM122.401 19.6146C120.662 19.5445 119.896 18.8265 119.896 17.7056C119.896 16.5848 120.662 15.7792 122.401 15.7092V19.6146ZM127.422 17.7056C127.422 18.8265 126.679 19.5445 124.922 19.6146V15.7092C126.679 15.7792 127.427 16.5848 127.427 17.7056H127.422ZM15.7224 21.182C15.6702 21.182 15.6223 21.2214 15.618 21.2739V21.2783C15.6137 21.3352 15.6572 21.3877 15.7136 21.3921H15.718C15.7788 21.3921 15.8223 21.3439 15.8223 21.2871C15.8223 21.2258 15.7788 21.182 15.7224 21.182ZM15.718 21.1775C15.7224 21.1775 15.7224 21.182 15.7224 21.182C15.7267 21.182 15.7267 21.1775 15.731 21.1775H15.718ZM22.8223 28.3579L22.2223 28.1258L22.3875 27.4997L22.5701 26.8167C21.7484 27.2414 20.8876 27.5829 20.0006 27.8369C19.5658 27.9594 19.2527 28.0164 19.2527 28.0164V28.4586C18.718 28.5461 18.1789 28.5943 17.6354 28.5987H17.5875C17.044 28.5943 16.5049 28.5461 15.9702 28.4586V28.0207C15.9702 28.0207 15.6527 27.9594 15.218 27.8369C14.331 27.5829 13.4701 27.2414 12.6484 26.8167L12.8267 27.4997L12.9962 28.1258L12.3919 28.3579L11.7397 28.6074C12.6354 29.0759 13.5701 29.4655 14.5354 29.772L14.3049 30.4025C15.3527 30.8053 16.4745 31.0023 17.5962 30.9761H17.6223C18.7441 31.0023 19.8658 30.8053 20.9136 30.4025L20.6875 29.772C21.6484 29.4655 22.5832 29.0759 23.4788 28.6074L22.8223 28.3579ZM12.4658 28.6469L13.4397 28.3185L13.1484 27.3553C13.7875 27.6749 14.4484 27.942 15.131 28.1521L14.6528 29.4655C13.9006 29.2642 13.1658 28.9884 12.4658 28.6469ZM17.6354 30.6652L17.6137 30.6477C16.6571 30.6433 15.7049 30.5119 14.7832 30.258L15.3701 28.6556C16.1006 28.8395 16.8527 28.9402 17.6092 28.9445H17.6571C18.4137 28.9358 19.1658 28.8395 19.8962 28.6556L20.4832 30.258C19.5571 30.5207 18.5962 30.6565 17.6354 30.6652ZM20.6005 29.4919V29.4787L20.1223 28.1653C20.8049 27.9551 21.4658 27.688 22.1049 27.3684L21.8136 28.3316L22.8006 28.6644C22.0962 29.0103 21.3571 29.2904 20.6005 29.4919ZM17.6092 3.36695C18.5918 3.34068 19.5571 3.6384 20.357 4.21194C20.4831 3.56397 20.7222 2.94226 21.0657 2.37746L20.0788 2.4913L19.5657 1.38361L18.5701 1.90024L17.6092 0.941406L16.6483 1.90024L15.6527 1.38361L15.1397 2.4913L14.1527 2.37746C14.4962 2.94226 14.7353 3.56397 14.8614 4.21194C15.6614 3.6384 16.6266 3.34068 17.6092 3.36695ZM15.0962 2.87658L15.3701 2.90723L15.4875 2.65768L15.831 1.91338L16.4701 2.24612L16.718 2.37309L16.9179 2.1892L17.6092 1.48431L18.3006 2.1892L18.5005 2.38622L18.7483 2.25925L19.3832 1.92651L19.731 2.67081L19.8484 2.92037L20.1223 2.88972L20.3832 2.85907C20.2788 3.09987 20.1875 3.34944 20.1136 3.60337C18.544 2.7934 16.6788 2.7934 15.1092 3.60337C15.0353 3.34944 14.944 3.09987 14.8397 2.85907L15.0962 2.87658ZM30.505 12.4036L30.3875 12.2591C29.5789 11.2215 28.8092 10.2364 27.4354 9.7854C27.4919 9.73725 27.5484 9.69347 27.6093 9.65405C28.2614 9.28191 28.7223 8.64271 28.8701 7.90278C28.9441 7.23289 28.7571 6.56307 28.3484 6.02889L27.9136 5.48163L27.6397 6.13398C27.6397 6.1734 27.1571 7.2198 26.1832 7.2198H25.8962C25.9484 6.53238 25.7006 5.85376 25.218 5.36342C24.6311 4.75922 23.8223 4.4221 22.9832 4.42648C22.8267 4.42648 22.6701 4.43962 22.518 4.46151L21.8527 4.59285L22.2658 5.14013C22.5875 5.57795 22.8789 6.33536 22.5354 6.74256C22.3701 6.88707 22.1832 7.00089 21.9788 7.07965C21.5441 7.28547 20.918 7.57878 20.918 8.31434C20.918 8.79158 21.2875 9.29071 21.9528 9.71536C23.9136 10.9676 25.1266 12.2591 25.6528 13.7127C26.4658 15.9281 25.4049 17.189 24.3745 17.8545L23.9136 18.1522L24.318 18.5244C24.6789 18.8352 25.1223 19.0279 25.5962 19.076H25.9919C26.3962 19.076 26.7963 19.0191 27.1832 18.9009C27.0875 19.0717 26.9702 19.2336 26.8441 19.3825C26.2571 20.0699 25.3875 20.4464 24.4875 20.3983H24.1006L24.0702 20.7879C24.0658 21.3352 24.305 21.8518 24.718 22.2065C24.8267 22.3028 24.9484 22.3816 25.0788 22.4429C24.4354 23.0733 24.0702 23.9359 24.0571 24.8421C24.0571 25.3369 23.9441 25.8273 23.731 26.2738L23.2962 26.9306H24.0702C25.3484 26.9306 26.3267 26.5759 27.0049 25.8711C27.3571 25.4989 27.6179 25.0479 27.7701 24.5575C28.0223 24.7721 28.318 24.921 28.6397 24.9954C28.7919 25.0304 28.9484 25.0479 29.1049 25.0479C29.3397 25.0479 29.5745 25.0173 29.8006 24.9647L30.2962 24.8334L30.0788 24.3693C29.8049 23.6294 29.8049 22.8106 30.0788 22.0707C30.2397 21.5891 30.3528 21.09 30.4136 20.5821C30.8049 20.7835 31.2397 20.8842 31.6789 20.8799C32.4006 20.8886 33.0745 20.5296 33.4658 19.921L33.7049 19.4832L33.2701 19.2993C31.8136 18.6908 31.4919 17.0533 31.4267 16.1689C31.5702 16.1995 31.7136 16.217 31.8614 16.2214L31.9832 16.3046C33.5658 16.3046 34.0962 14.6803 34.1179 14.6103L34.2963 14.0367H33.7006C32.4484 13.9929 31.2788 13.3975 30.505 12.4036ZM31.9875 15.8624H31.9267C31.6093 15.8668 31.2962 15.7792 31.0267 15.6129C31.0267 15.6129 30.7962 18.7783 33.1397 19.7591V19.7722C32.831 20.245 32.3006 20.5253 31.7397 20.5165C31.1049 20.5559 30.4919 20.2845 30.0919 19.7897C30.1049 20.534 29.9832 21.2783 29.7354 21.9788C29.4179 22.8238 29.4179 23.7607 29.7354 24.6058C29.5397 24.6539 29.3441 24.6802 29.1441 24.6802C29.0223 24.6802 28.8962 24.667 28.7788 24.6364C28.2006 24.4963 27.7397 24.0672 27.5527 23.5024C27.5527 23.5024 27.6441 26.5409 24.1267 26.5409H24.1006C24.3658 26.033 24.505 25.4682 24.5006 24.8947C24.6528 22.6487 26.1658 22.329 26.1658 22.329C25.7484 22.2765 25.3528 22.1277 25.0049 21.8912C24.6875 21.6242 24.505 21.2301 24.4962 20.8142C25.5136 20.858 26.4963 20.4333 27.1614 19.654C27.5615 19.1943 27.8267 18.6338 27.9397 18.034C27.3788 18.4587 26.6875 18.6733 25.9875 18.6426H25.631C25.2527 18.6032 24.8919 18.4543 24.6006 18.2047C25.9397 17.3291 26.8788 15.8318 26.0484 13.5594C25.3788 11.7381 23.7745 10.3765 22.1615 9.35202C21.6267 9.01922 21.3049 8.64271 21.3049 8.31871C21.3049 7.55689 22.3789 7.535 22.8223 7.00525C23.3311 6.40983 23.0136 5.44661 22.5701 4.86868C22.6962 4.84679 22.8267 4.83803 22.9528 4.83803C23.6789 4.82928 24.3789 5.12262 24.8832 5.648C25.3962 6.13834 25.5919 6.87827 25.3962 7.56133L25.631 7.60947C25.7745 7.63573 25.918 7.64889 26.0658 7.65325H26.1614C27.4354 7.65325 28.0092 6.30911 28.0092 6.30911C28.0092 6.30911 29.3658 7.99034 27.3702 9.3038C27.0267 9.52714 26.8745 9.74162 26.9354 9.96053L26.9658 10.105L27.1093 10.1313C28.5571 10.5253 29.2832 11.5324 30.1832 12.6751C31.0354 13.7653 32.3224 14.422 33.7006 14.4701H33.7266C33.7266 14.4701 33.2919 15.8624 31.9875 15.8624Z" fill="#B9B9B9"/>
<path d="M29.1963 9.98233C29.6832 10.2626 30.105 10.6435 30.4354 11.0988C30.6833 11.4841 31.0354 11.7906 31.4528 11.9745C31.6093 12.027 31.7789 12.0532 31.9441 12.0532C32.6093 12.0532 33.218 11.6724 33.5224 11.077L33.7745 10.5078L33.1615 10.4727C32.5006 10.3501 31.905 10.0087 31.4659 9.49637C31.1398 9.14175 30.6833 8.93593 30.2006 8.93157C29.8267 8.93593 29.4658 9.04982 29.1528 9.25121L28.5876 9.64961L29.1963 9.98233ZM30.2137 9.3563L30.2006 9.36066C30.5702 9.36066 30.918 9.52262 31.1659 9.79848C31.6745 10.3852 32.3702 10.7748 33.1354 10.9018C32.9006 11.344 32.4441 11.6198 31.9441 11.6242C31.8224 11.6242 31.7007 11.6023 31.5832 11.5629C30.8789 11.3221 30.631 10.2495 29.4093 9.60146C29.6485 9.44386 29.9267 9.36066 30.2137 9.3563ZM29.4832 15.6259L29.4746 15.6172C29.1181 12.7275 27.0354 10.6391 24.7181 9.37382C24.505 9.25557 24.305 9.15928 24.1137 9.06735C25.0702 9.26437 26.0659 9.02793 26.8354 8.42372C26.8354 8.42372 25.4919 9.41761 22.7441 8.51564C23.505 9.01477 24.9833 9.71528 26.3354 10.8536C29.7093 13.8396 27.2963 16.7555 27.2963 16.7555C28.305 15.7923 28.6571 14.3212 28.205 12.999C28.918 14.1942 29.2615 15.5778 29.1876 16.97C29.0919 19.2642 27.8267 21.2695 26.5224 22.8675C26.1311 23.371 25.8615 23.962 25.7485 24.5925C25.9702 23.9664 26.305 23.3885 26.7398 22.8894C28.1528 21.2213 29.3484 19.4919 29.518 17.0007C29.6659 17.4385 30.2659 18.7126 31.2224 19.1898C31.2224 19.1898 30.0224 18.463 29.4832 15.6259ZM11.4833 26.3044C11.2746 25.8578 11.1615 25.3675 11.1572 24.8727C11.1441 23.9664 10.7746 23.1039 10.1311 22.4735C10.2615 22.4122 10.3833 22.3334 10.492 22.237C10.905 21.8824 11.1441 21.3658 11.1398 20.8185L11.1137 20.4288H10.7223C9.82671 20.4726 8.95716 20.1004 8.37021 19.4131C8.24411 19.2642 8.13108 19.1022 8.03105 18.9315C8.41802 19.0497 8.81806 19.1066 9.22236 19.1066H9.61806C10.0919 19.0584 10.5398 18.8658 10.9007 18.5549L11.305 18.1828L10.8441 17.8851C9.80931 17.2196 8.75284 15.9586 9.56585 13.7433C10.0919 12.3028 11.305 11.0025 13.2833 9.75033C13.9484 9.31252 14.3137 8.82655 14.3137 8.34932C14.3137 7.61375 13.7006 7.32044 13.2528 7.11462C13.0485 7.03579 12.8615 6.92197 12.6963 6.77753C12.3485 6.37033 12.6398 5.59539 12.9659 5.17508L13.4006 4.6278L12.7311 4.49645C12.5789 4.47018 12.4224 4.46142 12.2659 4.46142C11.4181 4.43516 10.6006 4.76353 10.0006 5.36334C9.50937 5.84932 9.25284 6.5323 9.30065 7.22408H9.03978C8.06153 7.22408 7.60061 6.18204 7.58327 6.13826L7.30934 5.48593L6.87456 6.03324C6.47018 6.56735 6.28327 7.23724 6.35716 7.90706C6.505 8.64699 6.96151 9.28626 7.61368 9.65841C7.67456 9.69775 7.73545 9.74153 7.78759 9.78975C6.41371 10.2276 5.64411 11.2258 4.83544 12.2634L4.718 12.4123C3.94414 13.4061 2.77024 14.0016 1.51805 14.0454H0.922363L1.10501 14.6189C1.10501 14.689 1.65282 16.3133 3.23976 16.3133H3.31805C3.46589 16.3089 3.60932 16.2914 3.75282 16.2607C3.68761 17.1364 3.36586 18.7826 1.90502 19.3912L1.47024 19.5751L1.70937 20.0129C2.10067 20.6215 2.77457 20.9805 3.49629 20.9717C3.9354 20.9761 4.36585 20.8754 4.75715 20.674C4.81803 21.1819 4.93106 21.681 5.09197 22.1626C5.36584 22.9026 5.36584 23.7212 5.09197 24.4612L4.87458 24.9252L5.37017 25.0566C5.5963 25.1092 5.83109 25.1398 6.06589 25.1398C6.22239 25.1398 6.3789 25.1223 6.53107 25.0873C6.85282 25.0128 7.1485 24.864 7.40062 24.6495C7.5528 25.1398 7.81366 25.5908 8.16589 25.9629C8.84846 26.6678 9.82671 27.018 11.1006 27.0224H11.8746L11.4833 26.3044ZM11.1093 26.5496C7.59194 26.5496 7.6789 23.5111 7.6789 23.5111C7.49191 24.0759 7.03106 24.505 6.45278 24.6451C6.33542 24.6757 6.20932 24.6889 6.08762 24.6889C5.88757 24.6889 5.69192 24.6626 5.50067 24.6144C5.81802 23.7694 5.81802 22.8324 5.50067 21.9875C5.25281 21.287 5.13545 20.5427 5.14845 19.7983C4.74848 20.2931 4.13546 20.5646 3.50062 20.5252H3.47889C2.91367 20.5339 2.38327 20.2493 2.07452 19.7764C4.41806 18.7957 4.1876 15.6303 4.1876 15.6303C3.918 15.7967 3.60498 15.8842 3.28757 15.8799H3.23976C1.93542 15.8799 1.50065 14.4876 1.50065 14.4876H1.52672C2.90501 14.4438 4.19627 13.7871 5.04849 12.6969C5.94412 11.5542 6.67457 10.5471 8.12241 10.1531L8.26585 10.1268L8.29632 9.98241C8.3354 9.75906 8.18322 9.54452 7.86147 9.32561C5.86583 8.01215 7.22238 6.33092 7.22238 6.33092C7.22238 6.33092 7.78759 7.67506 9.07018 7.67506H9.13107C9.27891 7.6707 9.42234 7.65753 9.56585 7.63128L9.80064 7.58313C9.60066 6.90008 9.80064 6.16015 10.3137 5.66982C10.818 5.14443 11.518 4.85109 12.2441 4.85985C12.3702 4.85985 12.5007 4.8686 12.6267 4.89049C12.1919 5.4728 11.8702 6.43601 12.3789 7.02706C12.8137 7.53935 13.892 7.56124 13.892 8.34052C13.892 8.66452 13.5919 9.04102 13.0571 9.37819C11.4398 10.4027 9.83545 11.7643 9.17021 13.5857C8.3398 15.858 9.27891 17.3684 10.6181 18.231C10.3267 18.4762 9.96589 18.6294 9.58758 18.6688H9.22669C8.52671 18.6994 7.8354 18.4849 7.27452 18.0602C7.38762 18.66 7.65282 19.2204 8.04846 19.6802C8.7137 20.4551 9.70061 20.8842 10.718 20.8404C10.7093 21.2563 10.5267 21.6503 10.2093 21.9175C9.86152 22.1538 9.46582 22.3027 9.04845 22.3553C9.04845 22.3553 10.5658 22.6661 10.7311 24.9209C10.7267 25.4944 10.8658 26.0592 11.131 26.5671L11.1093 26.5496Z" fill="#B9B9B9"/>
<path d="M3.27046 12.0489H3.27487C3.44004 12.0489 3.60962 12.0227 3.76612 11.9702C4.18357 11.7862 4.53572 11.4798 4.78352 11.0944C5.1096 10.6392 5.53138 10.2582 6.0183 9.97801L6.62699 9.64965L6.06178 9.25125C5.74877 9.04986 5.38787 8.93597 5.01831 8.93161C4.53572 8.93597 4.07921 9.14179 3.75313 9.50077C3.31835 10.0087 2.71833 10.3546 2.06183 10.4771L1.44873 10.5078L1.6966 11.077C2.00094 11.6724 2.6053 12.0446 3.27046 12.0489ZM4.05314 9.79852C4.2966 9.52267 4.64442 9.3607 5.01398 9.3607C5.29659 9.36506 5.57486 9.45263 5.81399 9.60586C4.58354 10.267 4.327 11.3265 3.6401 11.5673C3.527 11.6067 3.4053 11.6286 3.28354 11.6286C2.77921 11.6286 2.31836 11.3484 2.08356 10.9019C2.84876 10.7749 3.5444 10.3852 4.05314 9.79852ZM6.04011 16.9876C5.96623 15.5953 6.30539 14.2118 7.02277 13.0166C6.57059 14.3387 6.92274 15.8099 7.93147 16.7731C7.93147 16.7731 5.51405 13.8571 8.89231 10.8712C10.2445 9.73285 11.7184 9.03234 12.4793 8.53321C9.73146 9.4351 8.38799 8.44128 8.38799 8.44128C9.15751 9.0455 10.1488 9.28186 11.1053 9.08485C10.914 9.17685 10.714 9.2775 10.501 9.39132C8.1836 10.6611 6.088 12.7494 5.74451 15.6391V15.6172C5.20537 18.4543 4.0054 19.1811 4.0054 19.1811C4.9575 18.7082 5.56186 17.4298 5.70536 16.992C5.8662 19.4875 7.07491 21.2169 8.48794 22.8807C8.91839 23.3798 9.25754 23.9577 9.47926 24.5838C9.3619 23.9577 9.0923 23.3667 8.69666 22.8675C7.39233 21.2695 6.13148 19.2643 6.04011 16.9876ZM16.8139 11.7162C16.9661 11.5673 17.1792 11.4973 17.3922 11.5235V12.351C17.3879 12.5568 17.3357 12.7538 17.2357 12.9334H18.0575C17.9574 12.7538 17.9053 12.5568 17.901 12.351V11.5235C18.1096 11.4973 18.3227 11.5673 18.4748 11.7162V11.1427H16.8139V11.7162ZM16.4705 7.74514H16.4619C16.588 7.85459 16.7358 7.94216 16.8966 7.99467L17.001 8.04288V7.49997L16.0357 7.09277C16.0836 7.36419 16.2401 7.60063 16.4705 7.74514ZM18.7619 7.74077L18.7576 7.74514C18.988 7.60063 19.1445 7.36419 19.1924 7.09277L18.2271 7.49997V8.03845L18.3271 7.9903C18.488 7.93779 18.6358 7.85023 18.7619 7.74077Z" fill="#B9B9B9"/>
<path d="M20.4918 5.54695C20.4918 4.72822 19.1223 3.99268 17.6135 3.99268C16.1048 3.99268 14.7353 4.72822 14.7353 5.54695L14.7657 5.74835L15.37 9.25093L14.7657 9.60555L13.1875 10.5075C13.1875 10.5075 12.8352 10.6914 12.6701 10.8008C12.0744 11.2386 11.9484 11.8253 12.2918 12.0793C12.3787 11.4838 12.8961 11.046 13.4961 11.0635C13.9961 11.0767 14.4614 11.3306 14.744 11.7465C14.831 11.8516 14.9092 11.9654 14.9787 12.0793C15.0701 12.2281 15.1614 12.3594 15.2527 12.4864H11.2266C11.5657 13.0731 11.7614 13.7342 11.8048 14.4129V23.4189C11.8048 25.608 13.4701 26.6369 15.2831 26.6369C16.6744 26.6369 16.8613 26.5712 17.6266 27.3418C18.3918 26.5712 18.5788 26.6369 19.9701 26.6369C21.7701 26.6369 23.4483 25.5992 23.4483 23.4189V14.4216C23.4918 13.743 23.6874 13.0819 24.0266 12.4952H19.957C20.0483 12.3682 20.1397 12.2369 20.2309 12.088C20.3048 11.9742 20.3831 11.8604 20.4657 11.7553C20.7527 11.3394 21.2179 11.0854 21.7179 11.0722C22.3179 11.0548 22.8353 11.4926 22.9222 12.088C23.2701 11.8385 23.144 11.2124 22.544 10.8095C22.3831 10.6957 22.0309 10.5162 22.0309 10.5162L20.4657 9.58802L19.8614 9.2334L20.4657 5.73084L20.4918 5.54695ZM15.3179 5.94977L17.4396 6.67217V10.0259L15.8788 9.19398L15.3179 5.94977ZM12.0961 13.0775H15.7527C16.0353 13.3752 16.3831 13.6117 16.7657 13.7605C16.6831 14.0495 16.7048 14.3603 16.8222 14.6362C16.9614 14.9295 17.2092 15.1572 17.5135 15.2754C17.5701 15.7789 17.9092 16.1991 18.3831 16.3655C18.1222 16.6326 17.8657 16.8822 17.7614 16.9829L15.331 16.9435C15.2483 16.9041 15.1831 16.8428 15.1396 16.7639V16.7333L15.5353 16.799H15.5613C15.6396 16.799 15.7048 16.7465 15.7179 16.6677C15.7309 16.5801 15.6744 16.5013 15.5874 16.4837L15.1005 16.405L15.6396 14.5223L15.1266 13.4365L14.3048 14.3122L14.2527 16.2693L13.7005 16.1817C13.6135 16.1642 13.5353 16.221 13.5179 16.3086V16.313C13.5048 16.4006 13.5614 16.4794 13.6483 16.4969L13.8788 16.5319C13.7962 16.5801 13.7396 16.6151 13.7353 16.6239L13.6875 16.6589V16.7158C13.5788 17.2149 13.7788 17.7316 14.1875 18.0293V18.0994C14.1614 18.2701 14.2787 18.4321 14.4483 18.4627H14.5005C14.644 18.4627 14.7701 18.3621 14.8005 18.2175C14.9048 18.2219 15.0049 18.2219 15.1092 18.2175H15.1744L18.3613 18.7999L18.4135 18.7648C18.6657 18.5853 19.6353 17.8892 19.9527 17.6396C20.044 17.7184 20.1483 17.7885 20.257 17.841C20.1092 18.3007 20.2222 18.8042 20.5527 19.1545H12.3875V14.4216C12.3701 13.9619 12.27 13.5066 12.0961 13.0775ZM19.6787 17.4076C19.3483 17.6527 18.5353 18.2482 18.2396 18.4583L15.3483 17.9505V17.8717C15.3962 17.6746 15.4222 17.4733 15.4266 17.2719L17.8613 17.3112L17.9092 17.2631C17.9483 17.2237 18.7179 16.475 19.1092 16.0415C19.2135 16.1729 19.3352 16.2823 19.4744 16.3699C19.4049 16.729 19.4787 17.1011 19.6787 17.4076ZM14.8483 16.8822V16.8953C14.9135 17.0179 15.0092 17.123 15.1266 17.193C15.1222 17.3725 15.1048 17.5477 15.0744 17.7228C15.0744 17.7622 15.0744 17.8016 15.0439 17.841V17.9023C14.844 17.9023 14.6483 17.8717 14.457 17.8103C14.1092 17.6221 13.9135 17.2368 13.9701 16.8428C14.1266 16.7333 14.3048 16.6633 14.4918 16.637C14.6526 16.6326 14.7961 16.729 14.8483 16.8822ZM14.5484 16.2999L14.5962 14.4479L15.0309 14.0101L15.2961 14.5661L14.7787 16.3699L14.5484 16.2999ZM19.657 26.0546H19.2396L19.5657 24.9819C19.6178 24.833 19.3483 24.6404 19.2353 24.4696C19.5005 24.6317 19.7744 24.7761 20.057 24.9074C20.057 24.9425 19.657 26.0546 19.657 26.0546ZM20.7744 24.8549L20.7396 24.8243L20.5135 26.0064C20.37 26.0064 20.2179 26.037 20.0788 26.0458L20.3179 24.9074C20.3874 24.5704 19.4874 24.4696 19.044 23.7998C18.7527 24.045 18.3787 24.1588 18.0048 24.1194C17.6744 24.115 17.3483 24.08 17.0266 24.0143C16.97 24.0099 16.9136 24.0099 16.857 24.0143C16.7222 24.0055 16.5918 24.0756 16.5223 24.1938L16.457 24.3033L15.2179 24.0012L14.9222 24.5178C14.8744 24.5879 14.8831 24.6842 14.944 24.7455L15.0266 24.8374C14.944 24.9994 14.8396 25.1483 14.7135 25.2752L14.5309 25.0476C14.3918 24.8199 14.4048 24.5266 14.5614 24.312L15.0483 23.4845L16.0875 23.6422L15.9266 23.27C15.7092 22.7797 16.0396 22.1535 16.0744 21.7946C16.0744 21.904 15.9614 21.9259 15.8484 21.9259H15.5483C15.5266 21.9215 15.5005 21.9215 15.4787 21.9259L15.1961 22.0967L14.9744 21.8909C14.9397 21.8252 14.9527 21.7464 15.0049 21.6982L15.5179 21.1159L14.9092 20.4023L15.7787 20.8401L16.0396 20.5249C16.1092 20.5949 16.0787 20.7788 16.0787 20.7788C16.7092 20.9365 17.1484 21.5143 17.1309 22.1711V22.2981C17.2179 22.4381 17.357 22.5345 17.5135 22.5739L18.6918 22.6921C18.9266 22.6177 19.1657 22.5695 19.4092 22.5389C19.6178 22.5389 19.8266 22.6045 20.0005 22.7183C20.0831 22.6615 20.1831 22.6264 20.2831 22.6221H20.3222C20.8483 22.6221 21.07 23.1037 21.3527 23.4977C21.5657 23.7998 21.8527 24.2551 21.8527 24.2551C21.7701 24.3777 21.6353 24.4522 21.4875 24.4522C21.4352 24.4565 21.3874 24.4565 21.3353 24.4522C20.7701 24.3471 20.6875 23.1737 20.3657 23.0818H20.3136C20.2527 23.0818 20.1961 23.1168 20.1657 23.1737C20.3136 23.5721 20.2266 23.7341 20.3874 24.0493C20.5048 24.2376 20.6526 24.4084 20.8222 24.5528C20.8222 24.5528 20.8005 24.7279 20.7744 24.8549ZM14.4397 23.7079H14.4309L14.4831 23.8436C14.4483 23.9618 14.0483 24.1325 14.0483 24.1325L13.9613 23.9399C13.8483 23.6641 13.9309 23.3488 14.1701 23.1693L14.8266 22.7665L15.5266 22.9154C15.5222 23.0555 15.5657 23.1912 15.6483 23.305L14.9135 23.165L14.4787 23.4714C14.4092 23.5328 14.3961 23.629 14.4397 23.7079ZM22.8483 23.4232C22.8962 24.6404 22.057 25.7087 20.87 25.9451L21.07 24.8856C21.07 24.8243 21.0918 24.7498 21.1005 24.6885C21.1614 24.7149 21.2223 24.7323 21.2831 24.7455C21.3527 24.7498 21.4222 24.7498 21.4918 24.7455C21.7309 24.7455 21.957 24.636 22.1005 24.4434L22.257 24.2595L22.1266 24.08C22.1266 24.08 21.8353 23.6159 21.6179 23.3094L21.4961 23.1255C21.2527 22.7578 20.944 22.2937 20.3309 22.2937H20.2744C20.1875 22.2981 20.0962 22.3156 20.0136 22.3462C19.8266 22.2543 19.6223 22.2061 19.4135 22.2061C19.2048 22.2105 18.9962 22.2499 18.8005 22.3243L18.6961 22.355L17.5483 22.2411C17.5005 22.2192 17.4614 22.1842 17.431 22.1405L17.6788 22.0397C17.6092 21.2035 16.8092 20.6912 16.3744 20.5205C16.3527 20.4285 16.3092 20.3498 16.244 20.2841L15.9961 20.0477L15.7787 20.3103L15.67 20.4417L14.0614 19.7762L15.1092 21.0897L14.6961 21.7201C14.6092 21.8077 14.6048 21.9522 14.6961 22.0441L15.1309 22.3418L15.5657 22.1754H15.6092C15.6092 22.2411 15.5613 22.5082 15.5396 22.5826L14.7831 22.4513L13.9744 22.8891C13.6005 23.1605 13.4701 23.6597 13.6657 24.08L13.757 24.277L13.8831 24.5572L14.1657 24.439C14.0614 24.7236 14.1048 25.0389 14.2874 25.2797L14.457 25.4986L14.6831 25.7875L14.9352 25.516C15.1005 25.3497 15.2309 25.157 15.3222 24.9425L15.3744 24.7674L15.2527 24.6317V24.6054L15.3918 24.3777L16.3962 24.6141L16.6222 24.6666L16.744 24.4653L16.8092 24.3558C16.8092 24.3339 16.8092 24.3295 16.8701 24.3295H16.9788C17.3223 24.3996 17.6701 24.4346 18.0179 24.439C18.2526 24.4522 18.4874 24.4258 18.7136 24.3558L19.27 24.9951L18.9396 26.0195V26.0808C18.4439 26.0721 17.97 26.2778 17.6353 26.6413C17.1005 26.1071 16.7222 26.0502 15.2918 26.0502C13.5744 26.0502 12.4135 25.0389 12.4135 23.4232V19.4829H22.8483V23.4232ZM23.131 13.0775C22.9526 13.5022 22.857 13.9575 22.8396 14.4216V17.3725C22.4614 17.2893 22.1788 16.9654 22.1526 16.5757V16.4399H22.0222C21.7961 16.4225 21.5874 16.3174 21.4309 16.1554C21.2396 15.9321 21.1352 15.6519 21.1309 15.3586C20.944 15.665 20.9613 16.0591 21.1788 16.348C21.3483 16.5626 21.5962 16.7071 21.8657 16.7421C21.944 17.25 22.3483 17.644 22.8527 17.7097V19.1545H21.0265C20.5483 18.9093 20.3483 18.3357 20.5614 17.841L20.6309 17.6834L20.4701 17.6221C19.9483 17.4382 19.6613 16.8734 19.8266 16.3393L19.8614 16.2079L19.7396 16.151C19.2831 15.8839 19.0309 15.3629 19.1049 14.8375C18.8657 15.0827 18.8048 15.4549 18.957 15.7613C18.8701 15.8621 18.757 15.9802 18.6309 16.1116C18.1744 16.0153 17.844 15.6169 17.8266 15.1484V15.0389L17.7266 14.9995C17.4614 14.9207 17.244 14.7368 17.1179 14.4917C17.0353 14.2903 17.0178 14.0626 17.0744 13.8525C17.1614 13.87 17.2483 13.8831 17.3353 13.8919C17.4222 13.8962 17.5135 13.8962 17.6005 13.8919C18.3048 13.8919 18.9744 13.5854 19.4439 13.06L23.131 13.0775ZM20.3136 10.0916L21.0265 10.5294L21.2049 10.6344C20.8353 10.7351 20.5005 10.9365 20.2353 11.2167L20.2049 11.243C20.144 11.3087 20.0874 11.3743 20.031 11.4445L19.9961 11.4882C19.9396 11.5583 19.8875 11.6327 19.8396 11.7115L19.8136 11.7509C19.7527 11.8385 19.6961 11.9348 19.6396 12.0311C19.244 12.8236 18.4744 13.3533 17.6005 13.4409C16.7266 13.3533 15.957 12.8236 15.5613 12.0311C15.5049 11.9348 15.4483 11.8429 15.3918 11.7509L15.357 11.7027L15.2179 11.4751L15.1788 11.4269C15.1222 11.3569 15.0657 11.2911 15.0092 11.2299L14.9787 11.1992C14.7135 10.919 14.3788 10.7176 14.0092 10.617L14.1918 10.5119L14.9092 10.0741L15.644 9.63624L17.6049 10.7089L19.5657 9.67122L20.3136 10.0916ZM19.3483 9.21588L17.7874 10.0434V6.67653L19.9049 5.95413L19.3483 9.21588ZM17.6092 6.32191L15.2875 5.38495C15.4831 4.91211 16.3962 4.50931 17.6092 4.50931C18.8222 4.50931 19.7353 4.91211 19.9309 5.38495L17.6092 6.32191Z" fill="#B9B9B9"/>
</svg>
