<svg width="104" height="32" viewBox="0 0 104 32" fill="none" xmlns="http://www.w3.org/2000/svg">
<path d="M97.006 0.457031H90.468C88.4914 0.457031 86.9709 1.06655 86.0587 3.04751L73.5908 31.5427H82.4095C82.4095 31.5427 83.93 27.7332 84.2341 26.8189C85.1464 26.8189 93.813 26.8189 95.0294 26.8189C95.3335 27.8856 96.0937 31.3904 96.0937 31.3904H104L97.006 0.457031ZM86.6668 20.4189C87.4271 18.5904 90.0119 11.7332 90.0119 11.7332C90.0119 11.8856 90.7721 9.90465 91.0762 8.83798L91.6844 11.5808C91.6844 11.5808 93.3569 19.0475 93.661 20.5713H86.6668V20.4189Z" fill="#B9B9B9"/>
<path d="M74.1989 21.3333C74.1989 27.7333 68.4211 32 59.4503 32C55.6492 32 52 31.2381 50.0234 30.3238L51.2398 23.3143L52.3041 23.7714C55.041 24.9905 56.8655 25.4476 60.2106 25.4476C62.6433 25.4476 65.2281 24.5333 65.2281 22.4C65.2281 21.0286 64.1638 20.1143 60.8188 18.5905C57.6258 17.0667 53.3685 14.6286 53.3685 10.2095C53.3685 4.11429 59.2983 0 67.6609 0C70.8538 0 73.5907 0.609524 75.2632 1.37143L74.0468 8.07619L73.4386 7.46667C71.9182 6.85714 69.9416 6.24762 67.0527 6.24762C63.8597 6.4 62.3392 7.77143 62.3392 8.99048C62.3392 10.3619 64.1638 11.4286 67.0527 12.8C71.9182 15.0857 74.1989 17.6762 74.1989 21.3333Z" fill="#B9B9B9"/>
<path d="M0 0.761868L0.152047 0.152344H13.2281C15.0526 0.152344 16.4211 0.761868 16.8772 2.74282L19.7661 16.4571C16.8772 9.14282 10.1871 3.19996 0 0.761868Z" fill="#B9B9B9"/>
<path d="M38.1635 0.457068L24.9354 31.3904H15.9646L8.3623 5.48564C13.836 8.9904 18.3974 14.4761 20.0699 18.2856L20.9822 21.4856L29.1927 0.304688H38.1635V0.457068Z" fill="#B9B9B9"/>
<path d="M41.661 0.304688H50.0236L44.7019 31.3904H36.3394L41.661 0.304688Z" fill="#B9B9B9"/>
</svg>
