<svg width="13" height="13" fill="none" xmlns="http://www.w3.org/2000/svg"><path d="M12.506 7.476l.143-1.522c.112-1.195.169-1.793-.036-2.04a.62.62 0 00-.422-.23c-.297-.026-.67.4-1.417 1.25-.386.439-.58.659-.795.693-.12.019-.24 0-.351-.056-.199-.1-.332-.372-.597-.916L7.633 1.791C7.132.764 6.881.25 6.5.25s-.632.514-1.133 1.54L3.969 4.656c-.265.544-.398.816-.597.916a.578.578 0 01-.351.056c-.216-.034-.409-.254-.795-.694-.747-.85-1.12-1.275-1.417-1.249a.62.62 0 00-.422.23c-.205.247-.148.845-.036 2.04l.143 1.522c.236 2.508.354 3.762 1.094 4.518.739.756 1.846.756 4.062.756h1.7c2.216 0 3.323 0 4.062-.756.74-.756.858-2.01 1.094-4.518z" fill="#8B95AD"/></svg>