<svg width="15" height="15" fill="#B8B8B8" xmlns="http://www.w3.org/2000/svg"><g clip-path="url(#clip0_29_29)" fill="#fff"><path d="M9.83 2.427c.897-.9 2.208-.918 2.934-.19.727.73.708 2.05-.19 2.95L11.06 6.708a.469.469 0 00.664.662l1.515-1.52c1.194-1.2 1.344-3.115.19-4.274-1.157-1.161-3.068-1.01-4.263.19l-3.03 3.041c-1.194 1.2-1.344 3.114-.189 4.274a.469.469 0 10.664-.662c-.727-.73-.707-2.05.19-2.95l3.03-3.042z"/><path d="M9.053 5.92a.469.469 0 00-.664.66c.727.73.708 2.05-.19 2.951l-3.03 3.041c-.896.9-2.207.92-2.933.19-.727-.73-.707-2.049.19-2.95l1.515-1.52a.469.469 0 00-.665-.662L1.761 9.15c-1.194 1.2-1.344 3.115-.189 4.274 1.157 1.161 3.067 1.01 4.262-.19l3.03-3.041c1.194-1.2 1.344-3.114.19-4.274z"/></g><defs><clipPath id="clip0_29_29"><path fill="#fff" d="M0 0h15v15H0z"/></clipPath></defs></svg>