<svg width="60" height="60" viewBox="0 0 60 60" fill="none" xmlns="http://www.w3.org/2000/svg">
<path d="M53.6603 10.7273C49.6137 9.62766 45.6606 8.19882 41.8388 6.45455C38.0789 4.79385 34.4492 2.8427 30.9817 0.618182L29.9995 0L29.0352 0.636364C25.5677 2.86088 21.938 4.81203 18.1781 6.47272C14.35 8.21171 10.3909 9.6345 6.3388 10.7273L4.99951 11.0727V26.2364C4.99951 50.5818 29.1602 59.6909 29.3924 59.7818L29.9995 60L30.6067 59.7818C30.8567 59.7818 54.9995 50.6 54.9995 26.2364V11.0727L53.6603 10.7273ZM51.4281 26.2364C51.4281 46.2364 33.5709 54.6182 29.9995 56.1091C26.4281 54.6182 8.57094 46.2182 8.57094 26.2364V13.8909C12.3379 12.7883 16.0253 11.4214 19.6067 9.79997C23.1883 8.22363 26.6605 6.40124 29.9995 4.34545C33.3384 6.40124 36.8108 8.22363 40.3924 9.79997C43.9738 11.4214 47.6612 12.7883 51.4281 13.8909V26.2364Z" fill="#41A9E0"/>
</svg>
