<svg width="40" height="40" viewBox="0 0 40 40" fill="none" xmlns="http://www.w3.org/2000/svg">
<path d="M20.0002 36.6667C29.2049 36.6667 36.6668 29.2048 36.6668 20C36.6668 10.7953 29.2049 3.33337 20.0002 3.33337C10.7954 3.33337 3.3335 10.7953 3.3335 20C3.3335 29.2048 10.7954 36.6667 20.0002 36.6667Z" stroke="#41A9E0" stroke-width="2" stroke-linecap="round" stroke-linejoin="round"/>
<path d="M15.1499 15C15.5417 13.8861 16.3152 12.9468 17.3332 12.3485C18.3512 11.7502 19.5481 11.5315 20.7119 11.7312C21.8757 11.9308 22.9313 12.5358 23.6917 13.4392C24.4521 14.3425 24.8683 15.4858 24.8666 16.6666C24.8666 20 19.8666 21.6666 19.8666 21.6666" stroke="#41A9E0" stroke-width="2" stroke-linecap="round" stroke-linejoin="round"/>
<path d="M20 28.3334H20.0182" stroke="#41A9E0" stroke-width="2" stroke-linecap="round" stroke-linejoin="round"/>
</svg>
