<svg width="60" height="60" viewBox="0 0 60 60" fill="none" xmlns="http://www.w3.org/2000/svg">
<path d="M21.6634 13.9467L12.577 23.0331C11.9261 23.684 11.9261 24.7392 12.577 25.3901L13.2488 26.0619C13.8997 26.7128 14.9549 26.7128 15.6058 26.0619L24.6921 16.9755C25.343 16.3247 25.343 15.2694 24.6922 14.6185L24.0204 13.9467C23.3695 13.2959 22.3142 13.2959 21.6634 13.9467Z" fill="#41A9E0"/>
<path d="M38.9165 28L39.9665 26.95C41.5332 25.3917 42.4168 23.2749 42.4231 21.0652C42.4294 18.8555 41.5577 16.7338 39.9998 15.1667L31.1832 6.39997C29.6204 4.83771 27.5012 3.96008 25.2915 3.96008C23.0818 3.96008 20.9626 4.83771 19.3999 6.39997L5.14984 20.65C3.58758 22.2127 2.70996 24.3319 2.70996 26.5416C2.70995 28.7513 3.58758 30.8705 5.14984 32.4333L13.9165 41.2C15.4792 42.7623 17.5985 43.6398 19.8082 43.6398C22.0178 43.6398 24.1372 42.7623 25.6999 41.2L26.3665 40.5333L29.9998 44.1333H35.7332V49.1333H41.8832V51.85L46.6665 56.6666H56.6665V45.75L38.9165 28ZM53.3332 53.3333H48.0998L45.1498 50.4V45.7333H39.0165V40.7333H31.3332L26.3332 35.7333L23.3332 38.85C22.3957 39.7863 21.1249 40.3123 19.7998 40.3123C18.4748 40.3123 17.2041 39.7863 16.2665 38.85L7.49985 30C6.56351 29.0625 6.03758 27.7917 6.03758 26.4666C6.03758 25.1417 6.56351 23.8708 7.49985 22.9333L21.7665 8.66663C22.704 7.7303 23.9749 7.20437 25.2998 7.20437C26.6248 7.20437 27.8957 7.7303 28.8332 8.66663L37.5998 17.4333C38.5362 18.3708 39.0622 19.6416 39.0622 20.9666C39.0622 22.2917 38.5362 23.5624 37.5998 24.4999L34.2665 27.8333L53.3332 47.1333V53.3333Z" fill="#41A9E0"/>
</svg>
