<svg width="36" height="36" viewBox="0 0 36 36" fill="none" xmlns="http://www.w3.org/2000/svg">
<g clip-path="url(#clip0_140_195)">
<path d="M34.7143 3.84985H1.28571C0.574554 3.84985 0 4.42441 0 5.13557V30.8499C0 31.561 0.574554 32.1356 1.28571 32.1356H34.7143C35.4254 32.1356 36 31.561 36 30.8499V5.13557C36 4.42441 35.4254 3.84985 34.7143 3.84985ZM33.1071 8.30164V29.2427H2.89286V8.30164L1.78393 7.4378L3.36295 5.40878L5.08259 6.74673H30.9214L32.6411 5.40878L34.2201 7.4378L33.1071 8.30164ZM30.9214 6.74271L18 16.7874L5.07857 6.74271L3.35893 5.40476L1.77991 7.43378L2.88884 8.29762L16.6138 18.9691C17.0086 19.2757 17.4941 19.4422 17.994 19.4422C18.4938 19.4422 18.9794 19.2757 19.3741 18.9691L33.1071 8.30164L34.2161 7.4378L32.6371 5.40878L30.9214 6.74271Z" fill="black" fill-opacity="0.85"/>
</g>
<defs>
<clipPath id="clip0_140_195">
<rect width="36" height="36" fill="white"/>
</clipPath>
</defs>
</svg>
