<svg width="32" height="32" viewBox="0 0 32 32" fill="none" xmlns="http://www.w3.org/2000/svg">
<g clip-path="url(#clip0_4002_68)">
<path d="M30.8571 3.42188H1.14286C0.510714 3.42188 0 3.93259 0 4.56473V27.4219C0 28.054 0.510714 28.5647 1.14286 28.5647H30.8571C31.4893 28.5647 32 28.054 32 27.4219V4.56473C32 3.93259 31.4893 3.42188 30.8571 3.42188ZM29.4286 7.37902V25.9933H2.57143V7.37902L1.58571 6.61116L2.98929 4.80759L4.51786 5.99688H27.4857L29.0143 4.80759L30.4179 6.61116L29.4286 7.37902ZM27.4857 5.9933L16 14.9219L4.51429 5.9933L2.98571 4.80402L1.58214 6.60759L2.56786 7.37545L14.7679 16.8612C15.1187 17.1337 15.5504 17.2817 15.9946 17.2817C16.4389 17.2817 16.8706 17.1337 17.2214 16.8612L29.4286 7.37902L30.4143 6.61116L29.0107 4.80759L27.4857 5.9933Z" fill="white"/>
</g>
<defs>
<clipPath id="clip0_4002_68">
<rect width="32" height="32" fill="white"/>
</clipPath>
</defs>
</svg>
