<svg width="60" height="60" viewBox="0 0 60 60" fill="none" xmlns="http://www.w3.org/2000/svg">
<path d="M47.2725 23.7891C46.4291 23.7891 45.6409 23.6362 44.9075 23.3306C44.1925 23.025 43.56 22.6025 43.01 22.0631C42.46 21.5237 42.0292 20.9034 41.7175 20.2023C41.4058 19.4831 41.25 18.71 41.25 17.883C41.25 17.0739 41.4058 16.3098 41.7175 15.5906C42.0292 14.8715 42.46 14.2511 43.01 13.7298C43.56 13.1904 44.1925 12.7679 44.9075 12.4623C45.6409 12.1387 46.4291 11.9857 47.2725 12.0037C48.0975 11.9857 48.8767 12.1387 49.61 12.4623C50.3434 12.7679 50.985 13.1904 51.535 13.7298C52.0667 14.2511 52.4975 14.8715 52.8275 15.5906C53.1392 16.3098 53.295 17.0739 53.295 17.883C53.295 18.71 53.1392 19.4831 52.8275 20.2023C52.5158 20.9034 52.085 21.5237 51.535 22.0631C50.985 22.6025 50.3434 23.025 49.61 23.3306C48.8767 23.6362 48.0975 23.7891 47.2725 23.7891ZM47.2725 15.3749C46.5575 15.3749 45.925 15.6176 45.375 16.1031C44.9167 16.5885 44.6875 17.1817 44.6875 17.883C44.6875 18.5842 44.9167 19.1864 45.375 19.6898C45.925 20.1394 46.5575 20.3641 47.2725 20.3641C47.9875 20.3641 48.5925 20.1394 49.0875 19.6898C49.6009 19.2404 49.8575 18.6381 49.8575 17.883C49.8575 17.1817 49.6009 16.5885 49.0875 16.1031C48.5925 15.6176 47.9875 15.3749 47.2725 15.3749ZM55 27.9962V40.5907C55 41.7233 54.78 42.802 54.34 43.8269C53.8633 44.8517 53.2492 45.7417 52.4975 46.4967C51.7091 47.2699 50.7925 47.8721 49.7475 48.3037C48.6658 48.7532 47.5567 48.9779 46.42 48.9779C45.7234 48.9779 45.0266 48.879 44.33 48.6812C43.615 48.5554 42.9641 48.3307 42.3775 48.007C41.9375 49.4273 41.2867 50.7218 40.425 51.8905C39.5633 53.0591 38.555 54.057 37.4 54.8841C36.245 55.711 34.9708 56.3404 33.5775 56.7718C32.1842 57.2572 30.7358 57.5 29.2325 57.5C27.4725 57.5 25.8133 57.2033 24.255 56.61C22.7516 56.0168 21.3767 55.1717 20.13 54.075C18.92 53.0501 17.9209 51.8275 17.1325 50.4072C16.3258 48.9689 15.8033 47.4047 15.565 45.7147H2.2825C1.6775 45.7147 1.13666 45.4899 0.66 45.0404C0.22 44.609 0 44.0875 0 43.4763V20.9843C0 20.3731 0.22 19.8427 0.66 19.3932C1.13666 18.9617 1.6775 18.746 2.2825 18.746H22C21.4684 17.6672 21.2025 16.5435 21.2025 15.3749C21.2025 14.2781 21.4133 13.2443 21.835 12.2735C22.2383 11.3745 22.8067 10.5474 23.54 9.79238C24.2734 9.09115 25.135 8.5338 26.125 8.12028C27.0416 7.70676 28.0684 7.5 29.205 7.5C30.3233 7.5 31.3684 7.70676 32.34 8.12028C33.3116 8.5338 34.1642 9.09115 34.8975 9.79238C35.6308 10.5474 36.1991 11.3745 36.6025 12.2735C37.0241 13.2443 37.235 14.2781 37.235 15.3749C37.235 16.4536 37.0241 17.4785 36.6025 18.4493C36.1991 19.4022 35.6308 20.2292 34.8975 20.9304C34.1642 21.6496 33.3116 22.2159 32.34 22.6295C31.3684 23.043 30.3233 23.2497 29.205 23.2497C28.93 23.2497 28.6459 23.2317 28.3525 23.1958C28.0775 23.1598 27.7933 23.1149 27.5 23.0609V25.4881H52.415C53.13 25.4881 53.7442 25.7308 54.2575 26.2163C54.7525 26.7017 55 27.295 55 27.9962ZM29.2325 10.9251C28.5908 10.9251 28.0133 11.0239 27.5 11.2217C26.895 11.4554 26.3816 11.779 25.96 12.1926C25.5566 12.6061 25.2358 13.0825 24.9975 13.6219C24.7592 14.1792 24.64 14.7636 24.64 15.3749C24.64 16.0042 24.7592 16.5885 24.9975 17.1278C25.2358 17.6672 25.5566 18.1436 25.96 18.5572C26.3816 18.9527 26.895 19.2763 27.5 19.528C28.0133 19.7618 28.5908 19.8787 29.2325 19.8787C29.8558 19.8787 30.4425 19.7618 30.9925 19.528C31.5425 19.2763 32.0284 18.9527 32.45 18.5572C32.8717 18.1436 33.2017 17.6672 33.44 17.1278C33.6967 16.5885 33.825 16.0042 33.825 15.3749C33.825 14.7636 33.6967 14.1792 33.44 13.6219C33.2017 13.0825 32.8717 12.6061 32.45 12.1926C32.0284 11.779 31.5425 11.4554 30.9925 11.2217C30.4425 11.0239 29.8558 10.9251 29.2325 10.9251ZM15.895 27.5917H21.065V23.3845H6.435V27.5917H11.605V41.0761H15.895V27.5917ZM39.545 44.0156V28.8592H27.5V43.4763C27.5 44.0875 27.28 44.609 26.84 45.0404C26.3633 45.4899 25.8225 45.7147 25.2175 45.7147H19.03C19.2683 46.9193 19.6991 48.0429 20.3225 49.0857C20.9458 50.1106 21.6975 51.0006 22.5775 51.7556C23.4575 52.4928 24.4658 53.0771 25.6025 53.5087C26.7208 53.8862 27.9308 54.075 29.2325 54.075C30.6442 54.075 31.9733 53.8323 33.22 53.3468C34.4666 52.8074 35.5667 52.0793 36.52 51.1624C37.455 50.2454 38.1883 49.1756 38.72 47.953C39.27 46.7305 39.545 45.418 39.545 44.0156ZM51.5625 40.5907V28.8592H42.9825V44.2583C43.4408 44.7079 43.9633 45.0494 44.55 45.2831C45.1 45.4989 45.7234 45.6068 46.42 45.6068C47.135 45.6068 47.8042 45.4719 48.4275 45.2022C49.0508 44.9326 49.5917 44.573 50.05 44.1235C50.5267 43.674 50.8933 43.1347 51.15 42.5054C51.425 41.8941 51.5625 41.2558 51.5625 40.5907Z" fill="#41A9E0"/>
</svg>
