<svg width="40" height="40" viewBox="0 0 40 40" fill="none" xmlns="http://www.w3.org/2000/svg">
<path d="M33.3335 5H6.66683C4.82588 5 3.3335 6.49238 3.3335 8.33333V25C3.3335 26.841 4.82588 28.3333 6.66683 28.3333H33.3335C35.1744 28.3333 36.6668 26.841 36.6668 25V8.33333C36.6668 6.49238 35.1744 5 33.3335 5Z" stroke="black" stroke-width="2" stroke-linecap="round" stroke-linejoin="round"/>
<path d="M13.3335 35H26.6668" stroke="black" stroke-width="2" stroke-linecap="round" stroke-linejoin="round"/>
<path d="M20 28.3334V35" stroke="black" stroke-width="2" stroke-linecap="round" stroke-linejoin="round"/>
<path d="M14.1665 21.6666H5.83317C4.9127 21.6666 4.1665 22.4128 4.1665 23.3333V36.6666C4.1665 37.5871 4.9127 38.3333 5.83317 38.3333H14.1665C15.087 38.3333 15.8332 37.5871 15.8332 36.6666V23.3333C15.8332 22.4128 15.087 21.6666 14.1665 21.6666Z" stroke="black" stroke-width="2" stroke-linecap="round" stroke-linejoin="round"/>
<path d="M10 35H10.0083" stroke="black" stroke-width="2" stroke-linecap="round" stroke-linejoin="round"/>
</svg>
