<svg width="28" height="28" viewBox="0 0 28 28" fill="none" xmlns="http://www.w3.org/2000/svg">
<path d="M26.4255 24.7069L18.3099 16.5913C19.5692 14.9632 20.2505 12.9725 20.2505 10.8788C20.2505 8.37253 19.2724 6.02253 17.5036 4.25066C15.7349 2.47878 13.3786 1.50378 10.8755 1.50378C8.37236 1.50378 6.01611 2.48191 4.24736 4.25066C2.47549 6.01941 1.50049 8.37253 1.50049 10.8788C1.50049 13.3819 2.47861 15.7382 4.24736 17.5069C6.01611 19.2788 8.36924 20.2538 10.8755 20.2538C12.9692 20.2538 14.9567 19.5725 16.5849 18.3163L24.7005 26.4288C24.7243 26.4526 24.7525 26.4715 24.7836 26.4844C24.8147 26.4973 24.8481 26.5039 24.8817 26.5039C24.9154 26.5039 24.9487 26.4973 24.9798 26.4844C25.0109 26.4715 25.0392 26.4526 25.063 26.4288L26.4255 25.0694C26.4493 25.0456 26.4682 25.0174 26.4811 24.9863C26.494 24.9552 26.5006 24.9218 26.5006 24.8882C26.5006 24.8545 26.494 24.8212 26.4811 24.7901C26.4682 24.759 26.4493 24.7307 26.4255 24.7069ZM15.8255 15.8288C14.5005 17.1507 12.7442 17.8788 10.8755 17.8788C9.00674 17.8788 7.25049 17.1507 5.92549 15.8288C4.60361 14.5038 3.87549 12.7475 3.87549 10.8788C3.87549 9.01003 4.60361 7.25066 5.92549 5.92878C7.25049 4.60691 9.00674 3.87878 10.8755 3.87878C12.7442 3.87878 14.5036 4.60378 15.8255 5.92878C17.1474 7.25378 17.8755 9.01003 17.8755 10.8788C17.8755 12.7475 17.1474 14.5069 15.8255 15.8288Z" fill="black" fill-opacity="0.85"/>
</svg>
