<svg width="40" height="40" viewBox="0 0 40 40" fill="none" xmlns="http://www.w3.org/2000/svg">
<path d="M5 10H8.33333H35" stroke="black" stroke-width="2" stroke-linecap="round" stroke-linejoin="round"/>
<path d="M31.6663 9.99998V33.3333C31.6663 34.2174 31.3152 35.0652 30.69 35.6903C30.0649 36.3155 29.2171 36.6666 28.333 36.6666H11.6663C10.7823 36.6666 9.93444 36.3155 9.30932 35.6903C8.6842 35.0652 8.33301 34.2174 8.33301 33.3333V9.99998M13.333 9.99998V6.66665C13.333 5.78259 13.6842 4.93474 14.3093 4.30962C14.9344 3.6845 15.7823 3.33331 16.6663 3.33331H23.333C24.2171 3.33331 25.0649 3.6845 25.69 4.30962C26.3152 4.93474 26.6663 5.78259 26.6663 6.66665V9.99998" stroke="black" stroke-width="2" stroke-linecap="round" stroke-linejoin="round"/>
<path d="M16.667 18.3333V28.3333" stroke="black" stroke-width="2" stroke-linecap="round" stroke-linejoin="round"/>
<path d="M23.333 18.3333V28.3333" stroke="black" stroke-width="2" stroke-linecap="round" stroke-linejoin="round"/>
</svg>
