<svg width="32" height="32" viewBox="0 0 32 32" fill="none" xmlns="http://www.w3.org/2000/svg">
<path d="M21.3335 4H1.3335V21.3333H21.3335V4Z" stroke="black" stroke-width="2" stroke-linecap="round" stroke-linejoin="round"/>
<path d="M21.3335 10.6667H26.6668L30.6668 14.6667V21.3334H21.3335V10.6667Z" stroke="black" stroke-width="2" stroke-linecap="round" stroke-linejoin="round"/>
<path d="M7.33333 28C9.17428 28 10.6667 26.5076 10.6667 24.6666C10.6667 22.8257 9.17428 21.3333 7.33333 21.3333C5.49238 21.3333 4 22.8257 4 24.6666C4 26.5076 5.49238 28 7.33333 28Z" stroke="black" stroke-width="2" stroke-linecap="round" stroke-linejoin="round"/>
<path d="M24.6668 28C26.5078 28 28.0002 26.5076 28.0002 24.6666C28.0002 22.8257 26.5078 21.3333 24.6668 21.3333C22.8259 21.3333 21.3335 22.8257 21.3335 24.6666C21.3335 26.5076 22.8259 28 24.6668 28Z" stroke="black" stroke-width="2" stroke-linecap="round" stroke-linejoin="round"/>
</svg>
