<svg width="60" height="60" viewBox="0 0 60 60" fill="none" xmlns="http://www.w3.org/2000/svg">
<path fill-rule="evenodd" clip-rule="evenodd" d="M54.9679 31.0326C54.9784 31.0071 54.9895 30.9819 55.001 30.957C55.3956 30.1034 56.3321 29.6003 57.2602 29.8356C58.2652 30.0905 58.879 31.1141 58.5618 32.1011C56.7229 37.824 53.2012 42.8778 48.4365 46.5894C43.1769 50.6867 36.7023 52.9151 30.0351 52.9229C23.368 52.9306 16.8883 50.7172 11.6192 46.6323C6.8458 42.9316 3.3124 37.886 1.46017 32.1675C1.1407 31.1812 1.75213 30.1562 2.75649 29.899C3.68404 29.6615 4.6217 30.1624 5.01826 31.0151C5.02983 31.0399 5.04095 31.0652 5.05159 31.0906C5.05444 31.0974 5.05725 31.1043 5.06003 31.1111C5.07632 31.1513 5.09142 31.1923 5.10531 31.2338C6.74468 36.1447 9.80575 40.4758 13.9195 43.6651C18.5292 47.2388 24.1981 49.1752 30.0308 49.1685C35.8636 49.1616 41.5279 47.2121 46.1293 43.6277C50.2355 40.4288 53.2865 36.0906 54.9145 31.176C54.9283 31.1343 54.9433 31.0934 54.9595 31.0532C54.9622 31.0463 54.965 31.0395 54.9679 31.0326Z" fill="#41A9E0"/>
<path d="M16.5758 14.627C18.6607 14.627 20.3508 12.9369 20.3508 10.852C20.3508 8.76715 18.6607 7.07703 16.5758 7.07703C14.4909 7.07703 12.8008 8.76715 12.8008 10.852C12.8008 12.9369 14.4909 14.627 16.5758 14.627Z" fill="#41A9E0"/>
<path d="M43.4244 14.627C45.5093 14.627 47.1994 12.9369 47.1994 10.852C47.1994 8.76715 45.5093 7.07703 43.4244 7.07703C41.3395 7.07703 39.6494 8.76715 39.6494 10.852C39.6494 12.9369 41.3395 14.627 43.4244 14.627Z" fill="#41A9E0"/>
</svg>
