<svg width="501" height="57" viewBox="0 0 501 57" fill="none" xmlns="http://www.w3.org/2000/svg">
<mask id="path-1-outside-1_40_10292" maskUnits="userSpaceOnUse" x="-2" y="-2" width="505" height="61" fill="#1F212C">
<rect fill="white" x="-2" y="-2" width="505" height="61"/>
<path d="M0.302557 12.3636H13.3636L24.4432 39.3807H24.9545L36.0341 12.3636H49.0952V56H38.8253V29.196H38.4631L27.9801 55.723H21.4176L10.9347 29.0469H10.5724V56H0.302557V12.3636ZM52.6737 12.3636H63.1992V37.5057H63.5614L80.7347 12.3636H89.8114V56H79.2646V30.8153H78.9876L61.6012 56H52.6737V12.3636ZM133.053 28.1733H122.399C122.257 27.0795 121.966 26.0923 121.526 25.2116C121.085 24.331 120.503 23.5781 119.778 22.9531C119.054 22.3281 118.195 21.8523 117.2 21.5256C116.22 21.1847 115.134 21.0142 113.94 21.0142C111.824 21.0142 109.999 21.5327 108.464 22.5696C106.945 23.6065 105.773 25.1051 104.949 27.0653C104.139 29.0256 103.734 31.3977 103.734 34.1818C103.734 37.0795 104.146 39.5085 104.97 41.4688C105.808 43.4148 106.98 44.8849 108.486 45.8793C110.006 46.8594 111.803 47.3494 113.876 47.3494C115.041 47.3494 116.099 47.2003 117.051 46.902C118.017 46.6037 118.862 46.1705 119.587 45.6023C120.325 45.0199 120.929 44.3168 121.398 43.4929C121.881 42.6548 122.214 41.7102 122.399 40.6591L133.053 40.723C132.868 42.6548 132.307 44.5582 131.369 46.4332C130.446 48.3082 129.175 50.0199 127.555 51.5682C125.936 53.1023 123.962 54.3239 121.632 55.233C119.317 56.142 116.661 56.5966 113.663 56.5966C109.714 56.5966 106.178 55.7301 103.053 53.9972C99.9418 52.25 97.4844 49.7074 95.6804 46.3693C93.8764 43.0312 92.9744 38.9687 92.9744 34.1818C92.9744 29.3807 93.8906 25.3111 95.723 21.973C97.5554 18.6349 100.034 16.0994 103.159 14.3665C106.284 12.6335 109.786 11.767 113.663 11.767C116.305 11.767 118.749 12.1364 120.993 12.875C123.237 13.5994 125.212 14.6648 126.916 16.071C128.621 17.4631 130.006 19.1747 131.071 21.206C132.136 23.2372 132.797 25.5597 133.053 28.1733ZM134.66 20.929V12.3636H171.542V20.929H158.311V56H147.913V20.929H134.66ZM173.693 56V12.3636H204.119V20.929H184.24V29.8778H202.564V38.4645H184.24V47.4347H204.119V56H173.693ZM207.724 56V12.3636H225.75C229.017 12.3636 231.837 13.0028 234.209 14.2812C236.595 15.5455 238.435 17.3139 239.727 19.5866C241.02 21.8452 241.666 24.473 241.666 27.4702C241.666 30.4815 241.006 33.1165 239.685 35.375C238.378 37.6193 236.51 39.3594 234.081 40.5952C231.652 41.831 228.768 42.4489 225.43 42.4489H214.308V34.1392H223.47C225.061 34.1392 226.389 33.8622 227.455 33.3082C228.534 32.7543 229.351 31.9801 229.905 30.9858C230.459 29.9773 230.736 28.8054 230.736 27.4702C230.736 26.1207 230.459 24.956 229.905 23.9759C229.351 22.9815 228.534 22.2145 227.455 21.6747C226.375 21.1349 225.047 20.8651 223.47 20.8651H218.271V56H207.724ZM243.865 12.3636H254.391V37.5057H254.753L271.926 12.3636H281.003V56H270.456V30.8153H270.179L252.793 56H243.865V12.3636ZM321.18 56L307.458 37.8892H305.072V56H294.525V12.3636H305.072V29.3026H306.755L320.264 12.3636H333.453L316.642 32.9673L334.326 56H321.18ZM335.178 56V12.3636H365.604V20.929H345.724V29.8778H364.048V38.4645H345.724V47.4347H365.604V56H335.178ZM369.209 12.3636H379.734V37.5057H380.097L397.27 12.3636H406.347V56H395.8V30.8153H395.523L378.136 56H369.209V12.3636ZM392.071 0.772726H398.932C398.918 3.44318 397.909 5.58807 395.906 7.20739C393.918 8.8267 391.219 9.63636 387.81 9.63636C384.401 9.63636 381.695 8.8267 379.692 7.20739C377.703 5.58807 376.716 3.44318 376.73 0.772726H383.527C383.513 1.71023 383.832 2.5625 384.486 3.32954C385.139 4.09659 386.247 4.48011 387.81 4.48011C389.33 4.48011 390.416 4.10369 391.07 3.35085C391.723 2.59801 392.057 1.73863 392.071 0.772726ZM449.588 28.1733H438.934C438.792 27.0795 438.501 26.0923 438.061 25.2116C437.62 24.331 437.038 23.5781 436.314 22.9531C435.589 22.3281 434.73 21.8523 433.735 21.5256C432.755 21.1847 431.669 21.0142 430.475 21.0142C428.359 21.0142 426.534 21.5327 425 22.5696C423.48 23.6065 422.308 25.1051 421.484 27.0653C420.674 29.0256 420.27 31.3977 420.27 34.1818C420.27 37.0795 420.681 39.5085 421.505 41.4688C422.343 43.4148 423.515 44.8849 425.021 45.8793C426.541 46.8594 428.338 47.3494 430.412 47.3494C431.576 47.3494 432.635 47.2003 433.586 46.902C434.552 46.6037 435.397 46.1705 436.122 45.6023C436.86 45.0199 437.464 44.3168 437.933 43.4929C438.416 42.6548 438.75 41.7102 438.934 40.6591L449.588 40.723C449.403 42.6548 448.842 44.5582 447.904 46.4332C446.981 48.3082 445.71 50.0199 444.091 51.5682C442.471 53.1023 440.497 54.3239 438.167 55.233C435.852 56.142 433.196 56.5966 430.199 56.5966C426.25 56.5966 422.713 55.7301 419.588 53.9972C416.477 52.25 414.02 49.7074 412.216 46.3693C410.412 43.0312 409.51 38.9687 409.51 34.1818C409.51 29.3807 410.426 25.3111 412.258 21.973C414.091 18.6349 416.569 16.0994 419.694 14.3665C422.819 12.6335 426.321 11.767 430.199 11.767C432.841 11.767 435.284 12.1364 437.528 12.875C439.772 13.5994 441.747 14.6648 443.451 16.071C445.156 17.4631 446.541 19.1747 447.606 21.206C448.672 23.2372 449.332 25.5597 449.588 28.1733ZM459.42 27.7472H469.136C472.701 27.7472 475.798 28.3224 478.425 29.473C481.053 30.6236 483.085 32.2429 484.519 34.331C485.968 36.419 486.692 38.8764 486.692 41.7031C486.692 44.5298 485.968 47.0156 484.519 49.1605C483.085 51.3054 481.053 52.9815 478.425 54.1889C475.798 55.3963 472.701 56 469.136 56H452.836V12.3636H463.362V47.6477H469.136C470.67 47.6477 471.962 47.3849 473.013 46.8594C474.079 46.3196 474.881 45.5952 475.421 44.6861C475.975 43.7628 476.245 42.7401 476.231 41.6179C476.245 39.9986 475.641 38.6491 474.42 37.5696C473.198 36.4759 471.437 35.929 469.136 35.929H459.42V27.7472ZM500.521 12.3636V56H489.995V12.3636H500.521Z"/>
</mask>
<path d="M0.302557 12.3636V10.3636H-1.69744V12.3636H0.302557ZM13.3636 12.3636L15.2141 11.6048L14.7051 10.3636H13.3636V12.3636ZM24.4432 39.3807L22.5927 40.1395L23.1017 41.3807H24.4432V39.3807ZM24.9545 39.3807V41.3807H26.296L26.805 40.1395L24.9545 39.3807ZM36.0341 12.3636V10.3636H34.6926L34.1836 11.6048L36.0341 12.3636ZM49.0952 12.3636H51.0952V10.3636H49.0952V12.3636ZM49.0952 56V58H51.0952V56H49.0952ZM38.8253 56H36.8253V58H38.8253V56ZM38.8253 29.196H40.8253V27.196H38.8253V29.196ZM38.4631 29.196V27.196H37.1029L36.603 28.461L38.4631 29.196ZM27.9801 55.723V57.723H29.3403L29.8401 56.4581L27.9801 55.723ZM21.4176 55.723L19.5562 56.4545L20.0547 57.723H21.4176V55.723ZM10.9347 29.0469L12.7961 28.3154L12.2976 27.0469H10.9347V29.0469ZM10.5724 29.0469V27.0469H8.57244V29.0469H10.5724ZM10.5724 56V58H12.5724V56H10.5724ZM0.302557 56H-1.69744V58H0.302557V56ZM0.302557 14.3636H13.3636V10.3636H0.302557V14.3636ZM11.5132 13.1225L22.5927 40.1395L26.2936 38.6218L15.2141 11.6048L11.5132 13.1225ZM24.4432 41.3807H24.9545V37.3807H24.4432V41.3807ZM26.805 40.1395L37.8845 13.1225L34.1836 11.6048L23.1041 38.6218L26.805 40.1395ZM36.0341 14.3636H49.0952V10.3636H36.0341V14.3636ZM47.0952 12.3636V56H51.0952V12.3636H47.0952ZM49.0952 54H38.8253V58H49.0952V54ZM40.8253 56V29.196H36.8253V56H40.8253ZM38.8253 27.196H38.4631V31.196H38.8253V27.196ZM36.603 28.461L26.1201 54.988L29.8401 56.4581L40.3231 29.9311L36.603 28.461ZM27.9801 53.723H21.4176V57.723H27.9801V53.723ZM23.279 54.9915L12.7961 28.3154L9.07323 29.7784L19.5562 56.4545L23.279 54.9915ZM10.9347 27.0469H10.5724V31.0469H10.9347V27.0469ZM8.57244 29.0469V56H12.5724V29.0469H8.57244ZM10.5724 54H0.302557V58H10.5724V54ZM2.30256 56V12.3636H-1.69744V56H2.30256ZM52.6737 12.3636V10.3636H50.6737V12.3636H52.6737ZM63.1992 12.3636H65.1992V10.3636H63.1992V12.3636ZM63.1992 37.5057H61.1992V39.5057H63.1992V37.5057ZM63.5614 37.5057V39.5057H64.6174L65.2129 38.6337L63.5614 37.5057ZM80.7347 12.3636V10.3636H79.6788L79.0832 11.2356L80.7347 12.3636ZM89.8114 12.3636H91.8114V10.3636H89.8114V12.3636ZM89.8114 56V58H91.8114V56H89.8114ZM79.2646 56H77.2646V58H79.2646V56ZM79.2646 30.8153H81.2646V28.8153H79.2646V30.8153ZM78.9876 30.8153V28.8153H77.938L77.3417 29.6791L78.9876 30.8153ZM61.6012 56V58H62.6508L63.2471 57.1362L61.6012 56ZM52.6737 56H50.6737V58H52.6737V56ZM52.6737 14.3636H63.1992V10.3636H52.6737V14.3636ZM61.1992 12.3636V37.5057H65.1992V12.3636H61.1992ZM63.1992 39.5057H63.5614V35.5057H63.1992V39.5057ZM65.2129 38.6337L82.3862 13.4917L79.0832 11.2356L61.9099 36.3776L65.2129 38.6337ZM80.7347 14.3636H89.8114V10.3636H80.7347V14.3636ZM87.8114 12.3636V56H91.8114V12.3636H87.8114ZM89.8114 54H79.2646V58H89.8114V54ZM81.2646 56V30.8153H77.2646V56H81.2646ZM79.2646 28.8153H78.9876V32.8153H79.2646V28.8153ZM77.3417 29.6791L59.9553 54.8638L63.2471 57.1362L80.6335 31.9516L77.3417 29.6791ZM61.6012 54H52.6737V58H61.6012V54ZM54.6737 56V12.3636H50.6737V56H54.6737ZM133.053 28.1733V30.1733H135.258L135.043 27.9786L133.053 28.1733ZM122.399 28.1733L120.416 28.4309L120.642 30.1733H122.399V28.1733ZM121.526 25.2116L119.737 26.1061L119.737 26.1061L121.526 25.2116ZM119.778 22.9531L121.085 21.4388V21.4388L119.778 22.9531ZM117.2 21.5256L116.543 23.4146L116.56 23.4202L116.576 23.4256L117.2 21.5256ZM108.464 22.5696L107.344 20.9126L107.337 20.9175L108.464 22.5696ZM104.949 27.0653L103.105 26.2904L103.1 26.3018L104.949 27.0653ZM104.97 41.4688L103.126 42.2437L103.13 42.2518L103.133 42.2598L104.97 41.4688ZM108.486 45.8793L107.384 47.5482L107.393 47.5542L107.402 47.5601L108.486 45.8793ZM117.051 46.902L116.461 44.991L116.453 44.9935L117.051 46.902ZM119.587 45.6023L120.821 47.176L120.825 47.1728L119.587 45.6023ZM121.398 43.4929L119.665 42.4943L119.659 42.5038L121.398 43.4929ZM122.399 40.6591L122.411 38.6591L120.722 38.649L120.429 40.313L122.399 40.6591ZM133.053 40.723L135.043 40.9133L135.252 38.7362L133.065 38.723L133.053 40.723ZM131.369 46.4332L129.58 45.5388L129.575 45.5497L131.369 46.4332ZM127.555 51.5682L128.931 53.0201L128.938 53.0137L127.555 51.5682ZM121.632 55.233L120.905 53.3698L120.901 53.3713L121.632 55.233ZM103.053 53.9972L102.073 55.741L102.083 55.7462L103.053 53.9972ZM95.6804 46.3693L97.4399 45.4184L95.6804 46.3693ZM95.723 21.973L93.9698 21.0106L95.723 21.973ZM120.993 12.875L120.368 14.7748L120.379 14.7783L120.993 12.875ZM126.916 16.071L125.643 17.6138L125.651 17.6201L126.916 16.071ZM133.053 26.1733H122.399V30.1733H133.053V26.1733ZM124.382 27.9157C124.215 26.6267 123.866 25.4203 123.314 24.3172L119.737 26.1061C120.066 26.7643 120.299 27.5324 120.416 28.4309L124.382 27.9157ZM123.314 24.3172C122.759 23.2071 122.015 22.2416 121.085 21.4388L118.472 24.4674C118.99 24.9147 119.411 25.4548 119.737 26.1061L123.314 24.3172ZM121.085 21.4388C120.143 20.6259 119.046 20.0268 117.825 19.6255L116.576 23.4256C117.343 23.6778 117.965 24.0303 118.472 24.4674L121.085 21.4388ZM117.857 19.6366C116.637 19.2121 115.324 19.0142 113.94 19.0142V23.0142C114.943 23.0142 115.803 23.1572 116.543 23.4146L117.857 19.6366ZM113.94 19.0142C111.484 19.0142 109.255 19.6213 107.344 20.9126L109.584 24.2266C110.742 23.4441 112.164 23.0142 113.94 23.0142V19.0142ZM107.337 20.9175C105.452 22.2038 104.055 24.0315 103.105 26.2904L106.793 27.8403C107.491 26.1788 108.437 25.0092 109.592 24.2217L107.337 20.9175ZM103.1 26.3018C102.165 28.567 101.734 31.2136 101.734 34.1818H105.734C105.734 31.5819 106.114 29.4841 106.797 27.8289L103.1 26.3018ZM101.734 34.1818C101.734 37.255 102.169 39.9665 103.126 42.2437L106.814 40.6938C106.123 39.0506 105.734 36.904 105.734 34.1818H101.734ZM103.133 42.2598C104.098 44.5002 105.499 46.3039 107.384 47.5482L109.588 44.2103C108.461 43.466 107.518 42.3294 106.807 40.6777L103.133 42.2598ZM107.402 47.5601C109.29 48.7778 111.476 49.3494 113.876 49.3494V45.3494C112.129 45.3494 110.721 44.9409 109.57 44.1984L107.402 47.5601ZM113.876 49.3494C115.211 49.3494 116.475 49.1786 117.649 48.8104L116.453 44.9935C115.724 45.222 114.872 45.3494 113.876 45.3494V49.3494ZM117.641 48.8129C118.818 48.4496 119.886 47.9091 120.821 47.176L118.352 44.0286C117.838 44.4318 117.216 44.7578 116.461 44.991L117.641 48.8129ZM120.825 47.1728C121.768 46.4294 122.541 45.5283 123.136 44.4819L119.659 42.5038C119.317 43.1052 118.883 43.6104 118.348 44.0317L120.825 47.1728ZM123.131 44.4915C123.741 43.4316 124.148 42.2623 124.369 41.0051L120.429 40.313C120.281 41.1582 120.02 41.8781 119.665 42.4943L123.131 44.4915ZM122.387 42.6591L133.041 42.723L133.065 38.723L122.411 38.6591L122.387 42.6591ZM131.062 40.5327C130.902 42.2004 130.417 43.8663 129.58 45.5388L133.158 47.3277C134.197 45.2502 134.834 43.1093 135.043 40.9133L131.062 40.5327ZM129.575 45.5497C128.762 47.2 127.636 48.7244 126.173 50.1226L128.938 53.0137C130.714 51.3154 132.13 49.4165 133.164 47.3168L129.575 45.5497ZM126.18 50.1163C124.77 51.4524 123.023 52.5433 120.905 53.3698L122.359 57.0961C124.9 56.1044 127.103 54.7521 128.931 53.0201L126.18 50.1163ZM120.901 53.3713C118.861 54.1723 116.46 54.5966 113.663 54.5966V58.5966C116.861 58.5966 119.772 58.1118 122.363 57.0946L120.901 53.3713ZM113.663 54.5966C110.017 54.5966 106.82 53.7996 104.022 52.2481L102.083 55.7462C105.535 57.6606 109.412 58.5966 113.663 58.5966V54.5966ZM104.032 52.2534C101.272 50.7034 99.076 48.4458 97.4399 45.4184L93.9209 47.3202C95.8928 50.9689 98.6114 53.7966 102.073 55.7409L104.032 52.2534ZM97.4399 45.4184C95.8298 42.4391 94.9744 38.7218 94.9744 34.1818H90.9744C90.9744 39.2157 91.923 43.6234 93.9209 47.3202L97.4399 45.4184ZM94.9744 34.1818C94.9744 29.631 95.8427 25.9113 97.4762 22.9354L93.9698 21.0106C91.9386 24.7109 90.9744 29.1303 90.9744 34.1818H94.9744ZM97.4762 22.9354C99.1394 19.9055 101.356 17.6533 104.129 16.1155L102.189 12.6174C98.7121 14.5456 95.9714 17.3644 93.9698 21.0106L97.4762 22.9354ZM104.129 16.1155C106.932 14.561 110.095 13.767 113.663 13.767V9.76704C109.476 9.76704 105.636 10.706 102.189 12.6174L104.129 16.1155ZM113.663 13.767C116.118 13.767 118.347 14.1099 120.368 14.7748L121.618 10.9752C119.15 10.1629 116.493 9.76704 113.663 9.76704V13.767ZM120.379 14.7783C122.399 15.4304 124.146 16.3787 125.643 17.6138L128.189 14.5283C126.277 12.9508 124.076 11.7684 121.607 10.9717L120.379 14.7783ZM125.651 17.6201C127.138 18.8344 128.354 20.3321 129.3 22.1349L132.842 20.277C131.657 18.0174 130.103 16.0917 128.181 14.522L125.651 17.6201ZM129.3 22.1349C130.229 23.9072 130.828 25.9741 131.062 28.368L135.043 27.9786C134.766 25.1452 134.043 22.5673 132.842 20.277L129.3 22.1349ZM134.66 20.929H132.66V22.929H134.66V20.929ZM134.66 12.3636V10.3636H132.66V12.3636H134.66ZM171.542 12.3636H173.542V10.3636H171.542V12.3636ZM171.542 20.929V22.929H173.542V20.929H171.542ZM158.311 20.929V18.929H156.311V20.929H158.311ZM158.311 56V58H160.311V56H158.311ZM147.913 56H145.913V58H147.913V56ZM147.913 20.929H149.913V18.929H147.913V20.929ZM136.66 20.929V12.3636H132.66V20.929H136.66ZM134.66 14.3636H171.542V10.3636H134.66V14.3636ZM169.542 12.3636V20.929H173.542V12.3636H169.542ZM171.542 18.929H158.311V22.929H171.542V18.929ZM156.311 20.929V56H160.311V20.929H156.311ZM158.311 54H147.913V58H158.311V54ZM149.913 56V20.929H145.913V56H149.913ZM147.913 18.929H134.66V22.929H147.913V18.929ZM173.693 56H171.693V58H173.693V56ZM173.693 12.3636V10.3636H171.693V12.3636H173.693ZM204.119 12.3636H206.119V10.3636H204.119V12.3636ZM204.119 20.929V22.929H206.119V20.929H204.119ZM184.24 20.929V18.929H182.24V20.929H184.24ZM184.24 29.8778H182.24V31.8778H184.24V29.8778ZM202.564 29.8778H204.564V27.8778H202.564V29.8778ZM202.564 38.4645V40.4645H204.564V38.4645H202.564ZM184.24 38.4645V36.4645H182.24V38.4645H184.24ZM184.24 47.4347H182.24V49.4347H184.24V47.4347ZM204.119 47.4347H206.119V45.4347H204.119V47.4347ZM204.119 56V58H206.119V56H204.119ZM175.693 56V12.3636H171.693V56H175.693ZM173.693 14.3636H204.119V10.3636H173.693V14.3636ZM202.119 12.3636V20.929H206.119V12.3636H202.119ZM204.119 18.929H184.24V22.929H204.119V18.929ZM182.24 20.929V29.8778H186.24V20.929H182.24ZM184.24 31.8778H202.564V27.8778H184.24V31.8778ZM200.564 29.8778V38.4645H204.564V29.8778H200.564ZM202.564 36.4645H184.24V40.4645H202.564V36.4645ZM182.24 38.4645V47.4347H186.24V38.4645H182.24ZM184.24 49.4347H204.119V45.4347H184.24V49.4347ZM202.119 47.4347V56H206.119V47.4347H202.119ZM204.119 54H173.693V58H204.119V54ZM207.724 56H205.724V58H207.724V56ZM207.724 12.3636V10.3636H205.724V12.3636H207.724ZM234.209 14.2812L233.26 16.0419L233.266 16.0452L233.273 16.0486L234.209 14.2812ZM239.727 19.5866L237.989 20.5754L237.991 20.5801L239.727 19.5866ZM239.685 35.375L237.958 34.3652L237.956 34.3686L239.685 35.375ZM234.081 40.5952L234.988 42.3777L234.081 40.5952ZM214.308 42.4489H212.308V44.4489H214.308V42.4489ZM214.308 34.1392V32.1392H212.308V34.1392H214.308ZM227.455 33.3082L226.541 31.5288L226.532 31.5338L227.455 33.3082ZM229.905 30.9858L231.652 31.9592L231.658 31.9487L229.905 30.9858ZM229.905 23.9759L228.158 24.9493L228.164 24.96L229.905 23.9759ZM227.455 21.6747L226.56 23.4636L227.455 21.6747ZM218.271 20.8651V18.8651H216.271V20.8651H218.271ZM218.271 56V58H220.271V56H218.271ZM209.724 56V12.3636H205.724V56H209.724ZM207.724 14.3636H225.75V10.3636H207.724V14.3636ZM225.75 14.3636C228.756 14.3636 231.235 14.9507 233.26 16.0419L235.158 12.5206C232.438 11.055 229.278 10.3636 225.75 10.3636V14.3636ZM233.273 16.0486C235.335 17.141 236.891 18.6445 237.989 20.5754L241.466 18.5979C239.979 15.9834 237.856 13.95 235.145 12.5139L233.273 16.0486ZM237.991 20.5801C239.086 22.4928 239.666 24.768 239.666 27.4702H243.666C243.666 24.1781 242.954 21.1975 241.463 18.5932L237.991 20.5801ZM239.666 27.4702C239.666 30.181 239.075 32.4568 237.958 34.3652L241.411 36.3848C242.937 33.7761 243.666 30.7821 243.666 27.4702H239.666ZM237.956 34.3686C236.853 36.2638 235.278 37.7421 233.174 38.8126L234.988 42.3777C237.742 40.9766 239.903 38.9749 241.413 36.3814L237.956 34.3686ZM233.174 38.8126C231.082 39.8769 228.523 40.4489 225.43 40.4489V44.4489C229.014 44.4489 232.222 43.7851 234.988 42.3777L233.174 38.8126ZM225.43 40.4489H214.308V44.4489H225.43V40.4489ZM216.308 42.4489V34.1392H212.308V42.4489H216.308ZM214.308 36.1392H223.47V32.1392H214.308V36.1392ZM223.47 36.1392C225.282 36.1392 226.95 35.8251 228.377 35.0827L226.532 31.5338C225.829 31.8994 224.84 32.1392 223.47 32.1392V36.1392ZM228.368 35.0876C229.774 34.3658 230.893 33.3219 231.652 31.9592L228.158 30.0124C227.809 30.6384 227.294 31.1427 226.541 31.5288L228.368 35.0876ZM231.658 31.9487C232.398 30.6009 232.736 29.0877 232.736 27.4702H228.736C228.736 28.5231 228.519 29.3537 228.152 30.0229L231.658 31.9487ZM232.736 27.4702C232.736 25.8443 232.4 24.3265 231.646 22.9917L228.164 24.96C228.517 25.5854 228.736 26.3971 228.736 27.4702H232.736ZM231.652 23.0024C230.89 21.635 229.765 20.5941 228.349 19.8859L226.56 23.4636C227.303 23.8349 227.812 24.3281 228.158 24.9493L231.652 23.0024ZM228.349 19.8859C226.92 19.1714 225.266 18.8651 223.47 18.8651V22.8651C224.828 22.8651 225.83 23.0985 226.56 23.4636L228.349 19.8859ZM223.47 18.8651H218.271V22.8651H223.47V18.8651ZM216.271 20.8651V56H220.271V20.8651H216.271ZM218.271 54H207.724V58H218.271V54ZM243.865 12.3636V10.3636H241.865V12.3636H243.865ZM254.391 12.3636H256.391V10.3636H254.391V12.3636ZM254.391 37.5057H252.391V39.5057H254.391V37.5057ZM254.753 37.5057V39.5057H255.809L256.404 38.6337L254.753 37.5057ZM271.926 12.3636V10.3636H270.87L270.275 11.2356L271.926 12.3636ZM281.003 12.3636H283.003V10.3636H281.003V12.3636ZM281.003 56V58H283.003V56H281.003ZM270.456 56H268.456V58H270.456V56ZM270.456 30.8153H272.456V28.8153H270.456V30.8153ZM270.179 30.8153V28.8153H269.129L268.533 29.6791L270.179 30.8153ZM252.793 56V58H253.842L254.439 57.1362L252.793 56ZM243.865 56H241.865V58H243.865V56ZM243.865 14.3636H254.391V10.3636H243.865V14.3636ZM252.391 12.3636V37.5057H256.391V12.3636H252.391ZM254.391 39.5057H254.753V35.5057H254.391V39.5057ZM256.404 38.6337L273.578 13.4917L270.275 11.2356L253.101 36.3776L256.404 38.6337ZM271.926 14.3636H281.003V10.3636H271.926V14.3636ZM279.003 12.3636V56H283.003V12.3636H279.003ZM281.003 54H270.456V58H281.003V54ZM272.456 56V30.8153H268.456V56H272.456ZM270.456 28.8153H270.179V32.8153H270.456V28.8153ZM268.533 29.6791L251.147 54.8638L254.439 57.1362L271.825 31.9516L268.533 29.6791ZM252.793 54H243.865V58H252.793V54ZM245.865 56V12.3636H241.865V56H245.865ZM321.18 56L319.586 57.2078L320.186 58H321.18V56ZM307.458 37.8892L309.053 36.6814L308.452 35.8892H307.458V37.8892ZM305.072 37.8892V35.8892H303.072V37.8892H305.072ZM305.072 56V58H307.072V56H305.072ZM294.525 56H292.525V58H294.525V56ZM294.525 12.3636V10.3636H292.525V12.3636H294.525ZM305.072 12.3636H307.072V10.3636H305.072V12.3636ZM305.072 29.3026H303.072V31.3026H305.072V29.3026ZM306.755 29.3026V31.3026H307.718L308.319 30.5495L306.755 29.3026ZM320.264 12.3636V10.3636H319.301L318.7 11.1166L320.264 12.3636ZM333.453 12.3636L335.002 13.628L337.666 10.3636H333.453V12.3636ZM316.642 32.9673L315.092 31.7029L314.091 32.9296L315.055 34.1853L316.642 32.9673ZM334.326 56V58H338.383L335.913 54.782L334.326 56ZM322.774 54.7922L309.053 36.6814L305.864 39.097L319.586 57.2078L322.774 54.7922ZM307.458 35.8892H305.072V39.8892H307.458V35.8892ZM303.072 37.8892V56H307.072V37.8892H303.072ZM305.072 54H294.525V58H305.072V54ZM296.525 56V12.3636H292.525V56H296.525ZM294.525 14.3636H305.072V10.3636H294.525V14.3636ZM303.072 12.3636V29.3026H307.072V12.3636H303.072ZM305.072 31.3026H306.755V27.3026H305.072V31.3026ZM308.319 30.5495L321.828 13.6106L318.7 11.1166L305.192 28.0556L308.319 30.5495ZM320.264 14.3636H333.453V10.3636H320.264V14.3636ZM331.903 11.0993L315.092 31.7029L318.191 34.2317L335.002 13.628L331.903 11.0993ZM315.055 34.1853L332.74 57.218L335.913 54.782L318.228 31.7493L315.055 34.1853ZM334.326 54H321.18V58H334.326V54ZM335.178 56H333.178V58H335.178V56ZM335.178 12.3636V10.3636H333.178V12.3636H335.178ZM365.604 12.3636H367.604V10.3636H365.604V12.3636ZM365.604 20.929V22.929H367.604V20.929H365.604ZM345.724 20.929V18.929H343.724V20.929H345.724ZM345.724 29.8778H343.724V31.8778H345.724V29.8778ZM364.048 29.8778H366.048V27.8778H364.048V29.8778ZM364.048 38.4645V40.4645H366.048V38.4645H364.048ZM345.724 38.4645V36.4645H343.724V38.4645H345.724ZM345.724 47.4347H343.724V49.4347H345.724V47.4347ZM365.604 47.4347H367.604V45.4347H365.604V47.4347ZM365.604 56V58H367.604V56H365.604ZM337.178 56V12.3636H333.178V56H337.178ZM335.178 14.3636H365.604V10.3636H335.178V14.3636ZM363.604 12.3636V20.929H367.604V12.3636H363.604ZM365.604 18.929H345.724V22.929H365.604V18.929ZM343.724 20.929V29.8778H347.724V20.929H343.724ZM345.724 31.8778H364.048V27.8778H345.724V31.8778ZM362.048 29.8778V38.4645H366.048V29.8778H362.048ZM364.048 36.4645H345.724V40.4645H364.048V36.4645ZM343.724 38.4645V47.4347H347.724V38.4645H343.724ZM345.724 49.4347H365.604V45.4347H345.724V49.4347ZM363.604 47.4347V56H367.604V47.4347H363.604ZM365.604 54H335.178V58H365.604V54ZM369.209 12.3636V10.3636H367.209V12.3636H369.209ZM379.734 12.3636H381.734V10.3636H379.734V12.3636ZM379.734 37.5057H377.734V39.5057H379.734V37.5057ZM380.097 37.5057V39.5057H381.153L381.748 38.6337L380.097 37.5057ZM397.27 12.3636V10.3636H396.214L395.618 11.2356L397.27 12.3636ZM406.347 12.3636H408.347V10.3636H406.347V12.3636ZM406.347 56V58H408.347V56H406.347ZM395.8 56H393.8V58H395.8V56ZM395.8 30.8153H397.8V28.8153H395.8V30.8153ZM395.523 30.8153V28.8153H394.473L393.877 29.6791L395.523 30.8153ZM378.136 56V58H379.186L379.782 57.1362L378.136 56ZM369.209 56H367.209V58H369.209V56ZM392.071 0.772726V-1.22727H390.1L390.071 0.743317L392.071 0.772726ZM398.932 0.772726L400.932 0.783363L400.942 -1.22727H398.932V0.772726ZM395.906 7.20739L394.649 5.65211L394.643 5.65651L395.906 7.20739ZM379.692 7.20739L378.429 8.75827L378.434 8.76265L379.692 7.20739ZM376.73 0.772726V-1.22727H374.741L374.73 0.762088L376.73 0.772726ZM383.527 0.772726L385.527 0.803027L385.558 -1.22727H383.527V0.772726ZM384.486 3.32954L382.963 4.62648V4.62648L384.486 3.32954ZM391.07 3.35085L392.58 4.6618V4.6618L391.07 3.35085ZM369.209 14.3636H379.734V10.3636H369.209V14.3636ZM377.734 12.3636V37.5057H381.734V12.3636H377.734ZM379.734 39.5057H380.097V35.5057H379.734V39.5057ZM381.748 38.6337L398.921 13.4917L395.618 11.2356L378.445 36.3776L381.748 38.6337ZM397.27 14.3636H406.347V10.3636H397.27V14.3636ZM404.347 12.3636V56H408.347V12.3636H404.347ZM406.347 54H395.8V58H406.347V54ZM397.8 56V30.8153H393.8V56H397.8ZM395.8 28.8153H395.523V32.8153H395.8V28.8153ZM393.877 29.6791L376.49 54.8638L379.782 57.1362L397.169 31.9516L393.877 29.6791ZM378.136 54H369.209V58H378.136V54ZM371.209 56V12.3636H367.209V56H371.209ZM392.071 2.77273H398.932V-1.22727H392.071V2.77273ZM396.932 0.76209C396.921 2.85788 396.165 4.42595 394.649 5.65212L397.164 8.76265C399.653 6.75018 400.915 4.02848 400.932 0.783363L396.932 0.76209ZM394.643 5.65651C393.114 6.90192 390.911 7.63636 387.81 7.63636V11.6364C391.527 11.6364 394.721 10.7515 397.169 8.75826L394.643 5.65651ZM387.81 7.63636C384.709 7.63636 382.495 6.90228 380.949 5.65212L378.434 8.76265C380.894 10.7511 384.092 11.6364 387.81 11.6364V7.63636ZM380.955 5.65651C379.457 4.43725 378.719 2.87752 378.73 0.783364L374.73 0.762088C374.713 4.00884 375.949 6.73888 378.429 8.75826L380.955 5.65651ZM376.73 2.77273H383.527V-1.22727H376.73V2.77273ZM381.527 0.742426C381.505 2.20356 382.02 3.51961 382.963 4.62648L386.008 2.03261C385.644 1.60539 385.52 1.21689 385.527 0.803027L381.527 0.742426ZM382.963 4.62648C384.165 6.03754 385.984 6.48011 387.81 6.48011V2.48011C386.51 2.48011 386.113 2.15564 386.008 2.03261L382.963 4.62648ZM387.81 6.48011C389.604 6.48011 391.384 6.03958 392.58 4.6618L389.559 2.03991C389.448 2.16781 389.055 2.48011 387.81 2.48011V6.48011ZM392.58 4.6618C393.532 3.56522 394.049 2.25571 394.071 0.802136L390.071 0.743317C390.064 1.22156 389.914 1.6308 389.559 2.03991L392.58 4.6618ZM449.588 28.1733V30.1733H451.793L451.578 27.9786L449.588 28.1733ZM438.934 28.1733L436.951 28.4309L437.177 30.1733H438.934V28.1733ZM438.061 25.2116L436.272 26.1061V26.1061L438.061 25.2116ZM436.314 22.9531L437.62 21.4388V21.4388L436.314 22.9531ZM433.735 21.5256L433.078 23.4146L433.095 23.4202L433.111 23.4256L433.735 21.5256ZM425 22.5696L423.88 20.9126L423.872 20.9175L425 22.5696ZM421.484 27.0653L419.64 26.2904L419.635 26.3018L421.484 27.0653ZM421.505 41.4688L419.662 42.2437L419.665 42.2518L419.668 42.2598L421.505 41.4688ZM425.021 45.8793L423.919 47.5482L423.928 47.5542L423.937 47.5601L425.021 45.8793ZM433.586 46.902L432.996 44.991L432.988 44.9935L433.586 46.902ZM436.122 45.6023L437.356 47.176L437.36 47.1728L436.122 45.6023ZM437.933 43.4929L436.2 42.4943L436.195 42.5038L437.933 43.4929ZM438.934 40.6591L438.946 38.6591L437.257 38.649L436.964 40.313L438.934 40.6591ZM449.588 40.723L451.579 40.9133L451.787 38.7362L449.6 38.723L449.588 40.723ZM447.904 46.4332L446.116 45.5388L446.11 45.5497L447.904 46.4332ZM444.091 51.5682L445.466 53.0201L445.473 53.0137L444.091 51.5682ZM438.167 55.233L437.44 53.3698L437.436 53.3713L438.167 55.233ZM419.588 53.9972L418.608 55.741L418.618 55.7462L419.588 53.9972ZM412.216 46.3693L413.975 45.4184L412.216 46.3693ZM412.258 21.973L410.505 21.0106L412.258 21.973ZM437.528 12.875L436.903 14.7748L436.914 14.7783L437.528 12.875ZM443.451 16.071L442.179 17.6138L442.186 17.6201L443.451 16.071ZM449.588 26.1733H438.934V30.1733H449.588V26.1733ZM440.918 27.9157C440.75 26.6267 440.401 25.4203 439.85 24.3172L436.272 26.1061C436.601 26.7643 436.834 27.5324 436.951 28.4309L440.918 27.9157ZM439.85 24.3172C439.295 23.2071 438.551 22.2416 437.62 21.4388L435.007 24.4674C435.525 24.9147 435.946 25.4548 436.272 26.1061L439.85 24.3172ZM437.62 21.4388C436.678 20.6259 435.581 20.0268 434.36 19.6255L433.111 23.4256C433.879 23.6778 434.5 24.0303 435.007 24.4674L437.62 21.4388ZM434.392 19.6366C433.172 19.2121 431.859 19.0142 430.475 19.0142V23.0142C431.478 23.0142 432.339 23.1572 433.078 23.4146L434.392 19.6366ZM430.475 19.0142C428.019 19.0142 425.79 19.6213 423.88 20.9126L426.12 24.2266C427.277 23.4441 428.699 23.0142 430.475 23.0142V19.0142ZM423.872 20.9175C421.987 22.2038 420.59 24.0315 419.64 26.2904L423.328 27.8403C424.026 26.1788 424.973 25.0092 426.127 24.2217L423.872 20.9175ZM419.635 26.3018C418.7 28.567 418.27 31.2136 418.27 34.1818H422.27C422.27 31.5819 422.649 29.4841 423.333 27.8289L419.635 26.3018ZM418.27 34.1818C418.27 37.255 418.704 39.9665 419.662 42.2437L423.349 40.6938C422.658 39.0506 422.27 36.904 422.27 34.1818H418.27ZM419.668 42.2598C420.633 44.5002 422.035 46.3039 423.919 47.5482L426.123 44.2103C424.996 43.466 424.054 42.3294 423.342 40.6777L419.668 42.2598ZM423.937 47.5601C425.825 48.7778 428.011 49.3494 430.412 49.3494V45.3494C428.664 45.3494 427.256 44.9409 426.105 44.1984L423.937 47.5601ZM430.412 49.3494C431.746 49.3494 433.01 49.1786 434.184 48.8104L432.988 44.9935C432.259 45.222 431.407 45.3494 430.412 45.3494V49.3494ZM434.176 48.8129C435.353 48.4496 436.421 47.9091 437.356 47.176L434.888 44.0286C434.373 44.4318 433.751 44.7578 432.996 44.991L434.176 48.8129ZM437.36 47.1728C438.303 46.4294 439.076 45.5283 439.671 44.4819L436.195 42.5038C435.852 43.1052 435.418 43.6104 434.883 44.0317L437.36 47.1728ZM439.666 44.4915C440.277 43.4316 440.683 42.2623 440.904 41.0051L436.964 40.313C436.816 41.1582 436.555 41.8781 436.2 42.4943L439.666 44.4915ZM438.922 42.6591L449.576 42.723L449.6 38.723L438.946 38.6591L438.922 42.6591ZM447.597 40.5327C447.437 42.2004 446.952 43.8663 446.116 45.5388L449.693 47.3277C450.732 45.2502 451.369 43.1093 451.579 40.9133L447.597 40.5327ZM446.11 45.5497C445.298 47.2 444.171 48.7244 442.708 50.1226L445.473 53.0137C447.249 51.3154 448.665 49.4165 449.699 47.3168L446.11 45.5497ZM442.715 50.1163C441.305 51.4524 439.558 52.5433 437.44 53.3698L438.894 57.0961C441.435 56.1044 443.638 54.7521 445.466 53.0201L442.715 50.1163ZM437.436 53.3713C435.396 54.1723 432.995 54.5966 430.199 54.5966V58.5966C433.396 58.5966 436.308 58.1118 438.898 57.0946L437.436 53.3713ZM430.199 54.5966C426.553 54.5966 423.356 53.7996 420.558 52.2481L418.618 55.7462C422.07 57.6606 425.947 58.5966 430.199 58.5966V54.5966ZM420.567 52.2534C417.807 50.7034 415.611 48.4458 413.975 45.4184L410.456 47.3202C412.428 50.9689 415.147 53.7966 418.608 55.7409L420.567 52.2534ZM413.975 45.4184C412.365 42.4391 411.51 38.7218 411.51 34.1818H407.51C407.51 39.2157 408.458 43.6234 410.456 47.3202L413.975 45.4184ZM411.51 34.1818C411.51 29.631 412.378 25.9113 414.011 22.9354L410.505 21.0106C408.474 24.7109 407.51 29.1303 407.51 34.1818H411.51ZM414.011 22.9354C415.675 19.9055 417.891 17.6533 420.664 16.1155L418.724 12.6174C415.247 14.5456 412.507 17.3644 410.505 21.0106L414.011 22.9354ZM420.664 16.1155C423.467 14.561 426.63 13.767 430.199 13.767V9.76704C426.011 9.76704 422.171 10.706 418.724 12.6174L420.664 16.1155ZM430.199 13.767C432.653 13.767 434.883 14.1099 436.903 14.7748L438.153 10.9752C435.685 10.1629 433.028 9.76704 430.199 9.76704V13.767ZM436.914 14.7783C438.934 15.4304 440.682 16.3787 442.179 17.6138L444.724 14.5283C442.812 12.9508 440.611 11.7684 438.142 10.9717L436.914 14.7783ZM442.186 17.6201C443.673 18.8344 444.889 20.3321 445.835 22.1349L449.377 20.277C448.192 18.0174 446.639 16.0917 444.716 14.522L442.186 17.6201ZM445.835 22.1349C446.765 23.9072 447.363 25.9741 447.597 28.368L451.578 27.9786C451.301 25.1452 450.579 22.5673 449.377 20.277L445.835 22.1349ZM459.42 27.7472V25.7472H457.42V27.7472H459.42ZM478.425 29.473L479.228 27.6409H479.228L478.425 29.473ZM484.519 34.331L482.871 35.4636L482.876 35.4711L484.519 34.331ZM484.519 49.1605L482.862 48.041L482.857 48.0486L484.519 49.1605ZM478.425 54.1889L479.26 56.0063L478.425 54.1889ZM452.836 56H450.836V58H452.836V56ZM452.836 12.3636V10.3636H450.836V12.3636H452.836ZM463.362 12.3636H465.362V10.3636H463.362V12.3636ZM463.362 47.6477H461.362V49.6477H463.362V47.6477ZM473.013 46.8594L473.908 48.6483L473.917 48.6434L473.013 46.8594ZM475.421 44.6861L473.706 43.6571L473.701 43.665L475.421 44.6861ZM476.231 41.6179L474.231 41.6004L474.231 41.6218L474.231 41.6432L476.231 41.6179ZM474.42 37.5696L473.086 39.0597L473.095 39.0683L474.42 37.5696ZM459.42 35.929H457.42V37.929H459.42V35.929ZM500.521 12.3636H502.521V10.3636H500.521V12.3636ZM500.521 56V58H502.521V56H500.521ZM489.995 56H487.995V58H489.995V56ZM489.995 12.3636V10.3636H487.995V12.3636H489.995ZM459.42 29.7472H469.136V25.7472H459.42V29.7472ZM469.136 29.7472C472.49 29.7472 475.302 30.2887 477.623 31.3051L479.228 27.6409C476.293 26.3562 472.912 25.7472 469.136 25.7472V29.7472ZM477.623 31.3051C479.956 32.3263 481.674 33.7223 482.871 35.4635L486.168 33.1984C484.495 30.7635 482.151 28.9208 479.228 27.6409L477.623 31.3051ZM482.876 35.4711C484.067 37.1872 484.692 39.2363 484.692 41.7031H488.692C488.692 38.5166 487.869 35.6508 486.162 33.1908L482.876 35.4711ZM484.692 41.7031C484.692 44.1692 484.067 46.2572 482.862 48.041L486.176 50.28C487.869 47.7741 488.692 44.8904 488.692 41.7031H484.692ZM482.857 48.0486C481.652 49.8505 479.924 51.2993 477.59 52.3716L479.26 56.0063C482.182 54.6638 484.517 52.7603 486.182 50.2724L482.857 48.0486ZM477.59 52.3716C475.278 53.434 472.478 54 469.136 54V58C472.924 58 476.317 57.3586 479.26 56.0063L477.59 52.3716ZM469.136 54H452.836V58H469.136V54ZM454.836 56V12.3636H450.836V56H454.836ZM452.836 14.3636H463.362V10.3636H452.836V14.3636ZM461.362 12.3636V47.6477H465.362V12.3636H461.362ZM463.362 49.6477H469.136V45.6477H463.362V49.6477ZM469.136 49.6477C470.889 49.6477 472.508 49.3484 473.908 48.6482L472.119 45.0705C471.417 45.4215 470.451 45.6477 469.136 45.6477V49.6477ZM473.917 48.6434C475.276 47.9549 476.383 46.9839 477.141 45.7072L473.701 43.665C473.38 44.2065 472.881 44.6843 472.11 45.0753L473.917 48.6434ZM477.136 45.7151C477.889 44.4598 478.249 43.0693 478.231 41.5926L474.231 41.6432C474.241 42.4108 474.061 43.0658 473.706 43.6571L477.136 45.7151ZM478.231 41.6354C478.25 39.4323 477.397 37.5312 475.744 36.0709L473.095 39.0683C473.886 39.7671 474.24 40.5649 474.231 41.6004L478.231 41.6354ZM475.754 36.0796C474.041 34.5457 471.731 33.929 469.136 33.929V37.929C471.143 37.929 472.356 38.406 473.086 39.0596L475.754 36.0796ZM469.136 33.929H459.42V37.929H469.136V33.929ZM461.42 35.929V27.7472H457.42V35.929H461.42ZM498.521 12.3636V56H502.521V12.3636H498.521ZM500.521 54H489.995V58H500.521V54ZM491.995 56V12.3636H487.995V56H491.995ZM489.995 14.3636H500.521V10.3636H489.995V14.3636Z" fill="none" mask="url(#path-1-outside-1_40_10292)"/>
</svg>
