<svg width="20" height="20" fill="none" xmlns="http://www.w3.org/2000/svg"><path d="M19.734 15.974L11.7 2.061A1.944 1.944 0 0010 1.08c-.71 0-1.346.367-1.701.982L.266 15.974a1.944 1.944 0 000 1.964c.355.615.991.983 1.701.983h16.066c.71 0 1.346-.368 1.7-.982a1.944 1.944 0 000-1.965zM10 16.657a1.28 1.28 0 01-1.278-1.278A1.28 1.28 0 0110 14.1a1.28 1.28 0 011.278 1.279A1.28 1.28 0 0110 16.657zm1.287-5.465a1.288 1.288 0 01-2.574 0V5.285a.61.61 0 01.61-.61h1.354a.61.61 0 01.61.61v5.907z" fill="#4C5269"/></svg>