<svg width="17" height="11" fill="none" xmlns="http://www.w3.org/2000/svg"><path d="M6.175 1.58A.78.78 0 106.13.02l.044 1.56zm-4.453 3.9l.78.02v-.04l-.78.02zm4.431 4.68l-.022.78h.044l-.022-.78zm4.432-4.68l.78-.02a.78.78 0 00-.78-.76v.78zM6.153 4.7a.78.78 0 000 1.56V4.7zm9.948-1.114a.78.78 0 100-1.56v1.56zm-1.9-1.56a.78.78 0 100 1.56v-1.56zm0 1.56a.78.78 0 000-1.56v1.56zm-1.898-1.56a.78.78 0 000 1.56v-1.56zm1.119.78a.78.78 0 101.56 0h-1.56zM14.982.8a.78.78 0 00-1.56 0h1.56zm0 2.006a.78.78 0 00-1.56 0h1.56zm-1.56 2.005a.78.78 0 101.56 0h-1.56zM6.132.021A5.34 5.34 0 00.941 5.5l1.56-.042a3.78 3.78 0 013.673-3.88L6.13.02zM.941 5.458a5.34 5.34 0 005.19 5.48l.043-1.559A3.78 3.78 0 012.5 5.5L.94 5.46zm5.233 5.48a5.34 5.34 0 005.19-5.48l-1.56.042A3.78 3.78 0 016.13 9.38l.044 1.559zm4.41-6.239H6.153v1.56h4.432V4.7zM16.1 2.026h-1.9v1.56h1.9v-1.56zm-1.9 0h-1.898v1.56h1.899v-1.56zm.78.78V.8h-1.56v2.006h1.56zm-1.56 0v2.005h1.56V2.806h-1.56z" fill="#67718E"/></svg>