<svg width="23" height="23" fill="none" xmlns="http://www.w3.org/2000/svg"><path d="M18.688 21.563H4.313s-1.438-.048-1.438-3.833h17.25c0 3.785-1.438 3.833-1.438 3.833z" fill="#3F435A"/><path d="M3.833 1.438h15.334v16.291H3.833V1.438z" fill="#4C5269"/><path d="M8.625 7.188h7.667v.958H8.625v-.959zm0 1.916h7.667v.959H8.625v-.959zm0 1.917h7.667v.958H8.625v-.958zm0 1.916h7.667v.959H8.625v-.959zm0 1.917h7.667v.959H8.625v-.959zM6.708 7.188h.959v.958h-.959v-.959zm0 1.916h.959v.959h-.959v-.959zm0 1.917h.959v.958h-.959v-.958zm0 1.916h.959v.959h-.959v-.959zm0 1.917h.959v.959h-.959v-.959z" fill="#111730"/></svg>