<svg width="37" height="37" viewBox="0 0 37 37" fill="none" xmlns="http://www.w3.org/2000/svg">
<path d="M33.6855 30.1087C33.5416 30.3261 33.3473 30.5055 33.1192 30.6316C32.891 30.7578 32.6358 30.827 32.3751 30.8333H28.3668L25.7768 33.4541C25.6322 33.6017 25.4594 33.7186 25.2687 33.7981C25.0781 33.8775 24.8734 33.9178 24.6668 33.9166H24.4355C24.1928 33.8788 23.9626 33.7835 23.7642 33.6387C23.5658 33.4939 23.4048 33.3038 23.2947 33.0841L19.3326 25.1754C19.1568 24.8091 19.1327 24.3883 19.2655 24.0043C19.3983 23.6204 19.6773 23.3043 20.0418 23.125L27.3647 19.3171C27.5991 19.1817 27.8649 19.1105 28.1355 19.1105C28.4062 19.1105 28.672 19.1817 28.9064 19.3171C29.1988 19.4873 29.4224 19.7546 29.5385 20.0725L33.8089 28.5516C33.9289 28.7986 33.9807 29.0732 33.959 29.347C33.9373 29.6207 33.8429 29.8837 33.6855 30.1087ZM3.31471 30.1087C3.45865 30.3261 3.65295 30.5055 3.8811 30.6316C4.10925 30.7578 4.3645 30.827 4.62513 30.8333H8.63346L11.2235 33.4541C11.3681 33.6017 11.5408 33.7186 11.7315 33.7981C11.9222 33.8775 12.1269 33.9178 12.3335 33.9166H12.5647C12.8074 33.8788 13.0376 33.7835 13.2361 33.6387C13.4345 33.4939 13.5955 33.3038 13.7055 33.0841L17.6676 25.1754C17.8434 24.8091 17.8676 24.3883 17.7348 24.0043C17.602 23.6204 17.323 23.3043 16.9585 23.125L9.66638 19.3016C9.43202 19.1663 9.16617 19.0951 8.89555 19.0951C8.62493 19.0951 8.35908 19.1663 8.12471 19.3016C7.83228 19.4719 7.60866 19.7392 7.49263 20.0571L3.22221 28.5362C3.09483 28.7824 3.03619 29.0584 3.05247 29.3352C3.06874 29.6119 3.15934 29.8791 3.31471 30.1087Z" fill="#0085FF"/>
<path d="M30.2936 12.6417C30.1111 12.3513 29.9513 12.0472 29.8157 11.7321C29.7305 11.3832 29.6789 11.027 29.6615 10.6683C29.6356 9.69062 29.3481 8.73771 28.829 7.90876C28.1977 7.15147 27.3714 6.58107 26.4394 6.25917C26.108 6.13808 25.7922 5.97762 25.499 5.78126C25.2295 5.55852 24.9818 5.31074 24.759 5.04126C24.1642 4.25051 23.3646 3.63744 22.4465 3.26834C21.5134 3.01024 20.5276 3.01024 19.5944 3.26834C18.8746 3.43772 18.1252 3.43772 17.4053 3.26834C16.4721 3.01024 15.4864 3.01024 14.5532 3.26834C13.6351 3.63744 12.8355 4.25051 12.2407 5.04126C12.022 5.31444 11.7739 5.56261 11.5007 5.78126C11.2075 5.97762 10.8917 6.13808 10.5603 6.25917C9.62834 6.58107 8.80207 7.15147 8.1707 7.90876C7.6516 8.73771 7.36413 9.69062 7.3382 10.6683C7.32087 11.027 7.26924 11.3832 7.18403 11.7321C7.04844 12.0472 6.88866 12.3513 6.70611 12.6417C6.13028 13.4582 5.7939 14.4193 5.73486 15.4167C5.7939 16.4141 6.13028 17.3752 6.70611 18.1917C6.88866 18.4821 7.04844 18.7862 7.18403 19.1013C7.26924 19.4501 7.32087 19.8063 7.3382 20.165C7.36413 21.1427 7.6516 22.0956 8.1707 22.9246C8.80207 23.6819 9.62834 24.2523 10.5603 24.5742C10.8917 24.6953 11.2075 24.8557 11.5007 25.0521C11.7702 25.2748 12.018 25.5226 12.2407 25.7921C12.8355 26.5828 13.6351 27.1959 14.5532 27.565C15.4933 27.798 16.4791 27.7713 17.4053 27.4879C18.1252 27.3185 18.8746 27.3185 19.5944 27.4879C20.153 27.638 20.7275 27.7208 21.3057 27.7346C21.6925 27.7375 22.0773 27.6803 22.4465 27.565C23.3646 27.1959 24.1642 26.5828 24.759 25.7921C24.9777 25.5189 25.2259 25.2707 25.499 25.0521C25.7922 24.8557 26.108 24.6953 26.4394 24.5742C27.3714 24.2523 28.1977 23.6819 28.829 22.9246C29.3481 22.0956 29.6356 21.1427 29.6615 20.165C29.6789 19.8063 29.7305 19.4501 29.8157 19.1013C29.9513 18.7862 30.1111 18.4821 30.2936 18.1917C30.8694 17.3752 31.2058 16.4141 31.2649 15.4167C31.2058 14.4193 30.8694 13.4582 30.2936 12.6417Z" fill="white"/>
<path d="M18.5002 21.5833C21.9059 21.5833 24.6668 18.8224 24.6668 15.4167C24.6668 12.0109 21.9059 9.25 18.5002 9.25C15.0944 9.25 12.3335 12.0109 12.3335 15.4167C12.3335 18.8224 15.0944 21.5833 18.5002 21.5833Z" fill="#0085FF"/>
</svg>
