<svg width="41" height="41" viewBox="0 0 41 41" fill="none" xmlns="http://www.w3.org/2000/svg">
<path d="M30.7498 35.6017L29.2294 26.4621C29.1808 26.1748 29.0596 25.9046 28.8772 25.6774C28.6948 25.4501 28.4573 25.2733 28.1873 25.1638C27.9099 25.0437 27.6056 24.9995 27.3054 25.0355C27.0053 25.0715 26.7201 25.1865 26.479 25.3688C24.7315 26.6081 22.6421 27.2738 20.4998 27.2738C18.3575 27.2738 16.2681 26.6081 14.5206 25.3688C14.2795 25.1865 13.9943 25.0715 13.6942 25.0355C13.394 24.9995 13.0897 25.0437 12.8123 25.1638C12.5423 25.2733 12.3048 25.4501 12.1224 25.6774C11.94 25.9046 11.8188 26.1748 11.7702 26.4621L10.2498 35.6017C10.205 35.8736 10.2266 36.1524 10.3129 36.4142C10.3992 36.676 10.5475 36.913 10.7452 37.105C11.0704 37.4185 11.5065 37.5905 11.9581 37.5833H12.2998L20.4998 35.875L28.6998 37.5833C28.9756 37.6447 29.2623 37.6366 29.5342 37.56C29.8061 37.4833 30.0548 37.3404 30.2579 37.144C30.461 36.9476 30.6123 36.704 30.6981 36.4348C30.784 36.1656 30.8017 35.8794 30.7498 35.6017Z" fill="#0085FF"/>
<path d="M20.5002 30.75C28.0481 30.75 34.1668 24.6312 34.1668 17.0834C34.1668 9.53546 28.0481 3.41669 20.5002 3.41669C12.9523 3.41669 6.8335 9.53546 6.8335 17.0834C6.8335 24.6312 12.9523 30.75 20.5002 30.75Z" fill="white"/>
<path d="M22.2081 20.5V11.9583C22.2065 11.6211 22.105 11.2919 21.9165 11.0122C21.728 10.7325 21.461 10.5148 21.149 10.3867C20.8379 10.2559 20.495 10.2201 20.1636 10.284C19.8322 10.3478 19.5271 10.5084 19.2869 10.7454L17.5786 12.4538C17.4184 12.6126 17.2914 12.8015 17.2046 13.0097C17.1179 13.2179 17.0732 13.4412 17.0732 13.6667C17.0732 13.8922 17.1179 14.1155 17.2046 14.3237C17.2914 14.5318 17.4184 14.7208 17.5786 14.8796C17.7382 15.0379 17.9275 15.1632 18.1356 15.2482C18.3438 15.3332 18.5667 15.3763 18.7915 15.375V20.5C18.3384 20.5 17.9039 20.68 17.5835 21.0004C17.2631 21.3207 17.0831 21.7553 17.0831 22.2083C17.0831 22.6614 17.2631 23.0959 17.5835 23.4163C17.9039 23.7367 18.3384 23.9167 18.7915 23.9167H22.2081C22.6612 23.9167 23.0957 23.7367 23.4161 23.4163C23.7365 23.0959 23.9165 22.6614 23.9165 22.2083C23.9165 21.7553 23.7365 21.3207 23.4161 21.0004C23.0957 20.68 22.6612 20.5 22.2081 20.5Z" fill="#0085FF"/>
</svg>
