<svg width="113" height="25" fill="none" xmlns="http://www.w3.org/2000/svg"><path d="M99.276 12.572c0-3.067-2.33-5.547-5.623-5.547-3.226 0-5.524 2.385-5.524 5.662 0 3.294 2.363 5.696 5.753 5.696 2.15 0 3.96-.958 5.084-2.905l-2.281-1.055c-.538.974-1.712 1.607-2.803 1.607-1.385 0-2.982-1.039-3.08-2.482h8.392c.054-.323.081-.65.082-.976zm-8.426-.938c.197-1.46 1.206-2.417 2.82-2.417 1.597 0 2.575.938 2.705 2.417H90.85zM67.862 7.023c-3.309 0-5.655 2.37-5.655 5.711 0 3.31 2.346 5.647 5.688 5.647 3.357 0 5.703-2.337 5.703-5.598 0-3.359-2.411-5.76-5.736-5.76zm.033 8.875c-1.663 0-2.69-1.233-2.69-3.148 0-1.947 1.043-3.277 2.69-3.277 1.662 0 2.705 1.314 2.705 3.277 0 1.931-1.027 3.148-2.705 3.148zM56.08 7.026c-1.354 0-2.375.46-3.396 1.604h-.335c-.686-1.032-1.805-1.604-3.06-1.604a3.972 3.972 0 00-3.227 1.604h-.335l-.016-.016V7.248h-2.805v10.894h3.03v-5.606c0-1.81.767-2.874 2.09-2.874 1.229 0 2.026.905 2.026 2.286v6.194h3.046v-5.606c0-1.797.766-2.874 2.106-2.874 1.212 0 1.994.905 1.994 2.303v6.177h3.047V11.6c0-2.842-1.532-4.573-4.164-4.573zm49.937 7.338h-.217c0-.194-1.321-3.644-2.188-5.781l-.541-1.337h-3.053l4.331 10.932-1.707 4.166h3.033l6.237-15.094h-3.055l-.498 1.143-1.689 4.162c-.477 1.162-.672 1.701-.653 1.81zM82.004 7.026c-1.356 0-2.52.587-3.302 1.636h-.32l-.03-.016V7.248h-2.807v10.894h3.03v-5.574c0-1.778.864-2.89 2.282-2.89 1.323 0 2.297.984 2.297 2.54v5.923h3.03v-6.573c0-2.668-1.754-4.542-4.18-4.542z" fill="#fff"/><path d="M22.325.781c-6.548 0-11.81 5.274-11.81 11.719 0 6.498 5.314 11.719 11.808 11.719 6.495 0 11.813-5.274 11.813-11.719 0-6.445-5.317-11.719-11.811-11.719zm0 16.087c-2.415 0-4.4-1.971-4.4-4.368 0-2.397 1.985-4.368 4.4-4.368s4.401 1.971 4.401 4.368c-.054 2.397-1.986 4.368-4.401 4.368zM10.514 4.186V21.23H6.33L.963 4.186h9.551z" fill="#8B3FFD"/></svg>