<svg width="120" height="19" fill="none" xmlns="http://www.w3.org/2000/svg"><path d="M53.657 5.801l2.5-1.868h-8.374v11.195h8.374v-1.87h-5.982v-2.857h5.113V8.53h-5.113V5.8h3.482zm-12.2 2.492h-2.901V5.8h4.64L45.7 3.933h-9.535v11.195h4.984c2.792 0 4.405-1.283 4.405-3.518 0-2.144-1.45-3.317-4.096-3.317zm-.399 4.965h-2.502v-3.097h2.502c1.523 0 2.229.514 2.229 1.559 0 1.044-.76 1.538-2.229 1.538zm21.878-9.325h-4.55v11.195h2.393v-3.17h2.176c2.9 0 4.712-1.539 4.712-4.013s-1.813-4.012-4.73-4.012zm-.054 6.155h-2.12V5.801h2.12c1.541 0 2.375.77 2.375 2.144s-.834 2.143-2.375 2.143zm-30.817 2.621a4.27 4.27 0 01-2.066.532c-2.157 0-3.716-1.559-3.716-3.702 0-2.144 1.559-3.702 3.716-3.702a3.592 3.592 0 012.175.697l1.723-1.282-.11-.11c-.996-.899-2.338-1.357-3.86-1.357-1.65 0-3.155.568-4.241 1.594a5.55 5.55 0 00-1.669 4.087 5.812 5.812 0 001.669 4.158c1.14 1.082 2.663 1.688 4.223 1.65 1.721 0 3.225-.605 4.24-1.704l-1.54-1.155-.544.294zm64.372-8.758v11.194h2.392v-4.58h5.094v4.58h2.393V3.951h-2.393v4.6h-5.094v-4.6h-2.392zm-4.115 11.194h2.52L90.164 3.951h-2.43L82.97 15.145h2.41l.961-2.253h5.076l.906 2.253zm-5.257-4.122l1.849-4.489 1.74 4.489h-3.589zm24.617-.402h1.486l3.661 4.507h3.081l-4.894-5.79 4.278-5.405h-2.737l-3.552 4.8h-1.323v-4.8h-2.393v11.195h2.393v-4.507zM75.065 8.31V5.82h6.254V3.95h-8.647v11.194h4.985c2.791 0 4.405-1.282 4.405-3.517 0-2.143-1.45-3.317-4.097-3.317h-2.9zm0 4.966V10.18h2.502c1.522 0 2.23.514 2.23 1.558 0 1.045-.744 1.557-2.23 1.557h-2.502v-.018zM16.532 3.86c.435.568.798 1.19 1.105 1.85l-8.374 6.247-3.517-2.235V7.048l3.499 2.216 7.287-5.404z" fill="#21A038"/><path d="M2.175 9.539c0-.129 0-.237.019-.366l-2.12-.11c0 .147-.02.311-.02.457a9.331 9.331 0 002.701 6.578l1.504-1.52a7.08 7.08 0 01-2.084-5.039z" fill="url(#paint0_linear_57_8374)"/><path d="M9.245 2.393c.128 0 .236 0 .364.019L9.717.268c-.146 0-.309-.019-.453-.019a9.134 9.134 0 00-6.508 2.73L4.26 4.502a6.965 6.965 0 014.985-2.108z" fill="url(#paint1_linear_57_8374)"/><path d="M9.245 16.685c-.127 0-.236 0-.363-.018l-.109 2.143c.146 0 .31.019.454.019a9.132 9.132 0 006.508-2.73l-1.504-1.522a6.862 6.862 0 01-4.986 2.108z" fill="url(#paint2_linear_57_8374)"/><path d="M13.232 3.64l1.794-1.34A9.149 9.149 0 009.244.231v2.143a7.07 7.07 0 013.988 1.265z" fill="url(#paint3_linear_57_8374)"/><path d="M18.453 9.539c0-.568-.054-1.118-.145-1.667l-1.976 1.484v.183a7.136 7.136 0 01-2.338 5.296l1.431 1.594a9.324 9.324 0 003.028-6.89z" fill="#21A038"/><path d="M9.245 16.685a6.988 6.988 0 01-5.238-2.364L2.43 15.77a9.102 9.102 0 006.815 3.06v-2.144z" fill="url(#paint4_linear_57_8374)"/><path d="M4.514 4.243L3.081 2.65A9.29 9.29 0 00.055 9.54h2.12c0-2.09.906-3.994 2.339-5.296z" fill="url(#paint5_linear_57_8374)"/><defs><linearGradient id="paint0_linear_57_8374" x1="2.529" y1="15.838" x2=".352" y2="9.515" gradientUnits="userSpaceOnUse"><stop offset=".144" stop-color="#F2E913"/><stop offset=".304" stop-color="#E7E518"/><stop offset=".582" stop-color="#CADB26"/><stop offset=".891" stop-color="#A3CD39"/></linearGradient><linearGradient id="paint1_linear_57_8374" x1="3.361" y1="2.738" x2="8.863" y2=".631" gradientUnits="userSpaceOnUse"><stop offset=".059" stop-color="#0FA8E0"/><stop offset=".538" stop-color="#0099F9"/><stop offset=".923" stop-color="#0291EB"/></linearGradient><linearGradient id="paint2_linear_57_8374" x1="8.65" y1="17.006" x2="15.206" y2="15.517" gradientUnits="userSpaceOnUse"><stop offset=".123" stop-color="#A3CD39"/><stop offset=".285" stop-color="#86C339"/><stop offset=".869" stop-color="#21A038"/></linearGradient><linearGradient id="paint3_linear_57_8374" x1="8.808" y1="1.597" x2="14.261" y2="3.286" gradientUnits="userSpaceOnUse"><stop offset=".057" stop-color="#0291EB"/><stop offset=".79" stop-color="#0C8ACB"/></linearGradient><linearGradient id="paint4_linear_57_8374" x1="2.969" y1="16.108" x2="8.826" y2="18.307" gradientUnits="userSpaceOnUse"><stop offset=".132" stop-color="#F2E913"/><stop offset=".298" stop-color="#EBE716"/><stop offset=".531" stop-color="#D9E01F"/><stop offset=".802" stop-color="#BBD62D"/><stop offset=".983" stop-color="#A3CD39"/></linearGradient><linearGradient id="paint5_linear_57_8374" x1="1.68" y1="9.798" x2="4.034" y2="3.647" gradientUnits="userSpaceOnUse"><stop offset=".07" stop-color="#A3CD39"/><stop offset=".26" stop-color="#81C55F"/><stop offset=".922" stop-color="#0FA8E0"/></linearGradient></defs></svg>