<svg width="85" height="42" viewBox="0 0 85 42" fill="none" xmlns="http://www.w3.org/2000/svg">
<g clip-path="url(#clip0_63_8366)">
<path d="M73.4999 11.9888V22.2571H69.7741V15.0541H66.1867V22.2571H62.4609V11.9881H73.4999V11.9888Z" fill="white"/>
<path fill-rule="evenodd" clip-rule="evenodd" d="M54.8085 22.6242C58.1438 22.6242 60.6205 20.6117 60.6205 17.5608C60.6205 14.6078 58.7932 12.6905 55.7392 12.6905C54.3298 12.6905 53.1668 13.1788 52.2909 14.0212C52.5 12.28 53.9962 11.0088 55.6436 11.0088C56.0238 11.0088 58.886 11.0028 58.886 11.0028L60.5046 7.95469C60.5046 7.95469 56.9111 8.03519 55.2406 8.03519C51.4238 8.10064 48.8457 11.5149 48.8457 15.6617C48.8457 20.4927 51.3601 22.6242 54.8085 22.6242ZM54.8288 15.3904C56.0671 15.3904 56.9257 16.1912 56.9257 17.5604C56.9257 18.7928 56.1628 19.8081 54.8288 19.8109C53.5527 19.8109 52.6942 18.8701 52.6942 17.5814C52.6942 16.2119 53.5527 15.3904 54.8288 15.3904Z" fill="white"/>
<path d="M45.8139 18.8194C45.8139 18.8194 44.934 19.3185 43.6199 19.413C42.1091 19.4571 40.763 18.518 40.763 16.8496C40.763 15.2221 41.9509 14.2893 43.5819 14.2893C44.5819 14.2893 45.905 14.9715 45.905 14.9715C45.905 14.9715 46.873 13.2232 47.3745 12.3489C46.4562 11.664 45.2331 11.2884 43.8105 11.2884C40.2203 11.2884 37.4395 13.5921 37.4395 16.8289C37.4395 20.107 40.0531 22.3572 43.8105 22.2893C44.8608 22.2508 46.3097 21.8878 47.1928 21.3296L45.8139 18.8194Z" fill="white"/>
<path d="M0 9.142L5.16828 18.2332V23.7786L0.00604603 32.852L0 9.142Z" fill="#5B57A2"/>
<path d="M19.8438 14.9251L24.6866 12.004L34.5978 11.9949L19.8438 20.8898V14.9251Z" fill="#D90751"/>
<path d="M19.8171 9.08845L19.8444 21.125L14.6641 17.9925V0L19.8171 9.08845Z" fill="#FAB718"/>
<path d="M34.5985 11.9949L24.6869 12.004L19.8171 9.08845L14.6641 0L34.5985 11.9949Z" fill="#ED6F26"/>
<path d="M19.8444 32.9025V27.0627L14.6641 23.9897L14.6669 42L19.8444 32.9025Z" fill="#63B22F"/>
<path d="M24.6749 30.0079L5.16793 18.2332L0 9.142L34.5772 29.996L24.6749 30.0079Z" fill="#1487C9"/>
<path d="M14.666 42L19.8428 32.9025L24.6736 30.008L34.5759 29.9961L14.666 42Z" fill="#017F36"/>
<path d="M0.00585938 32.8521L14.7059 23.9901L9.76379 21.006L5.1681 23.7787L0.00585938 32.8521Z" fill="#984995"/>
<path d="M40.7637 29.1678C40.6499 29.3106 40.5002 29.4184 40.3206 29.4912C40.1363 29.5651 39.9391 29.6026 39.7402 29.6018C39.5423 29.6045 39.3456 29.572 39.1594 29.5059C38.9922 29.4462 38.8394 29.353 38.7106 29.2322C38.5834 29.1113 38.4835 28.9653 38.4175 28.8038C38.346 28.627 38.3104 28.438 38.3126 28.2477C38.3126 28.0587 38.3457 27.8837 38.4143 27.7178C38.4801 27.5515 38.5758 27.4091 38.6956 27.2894C38.8155 27.1672 38.9592 27.0741 39.1206 27.0013C39.2853 26.9313 39.4649 26.8935 39.6623 26.8935C39.875 26.8935 40.0723 26.9198 40.2519 26.9719C40.4315 27.0244 40.5841 27.1119 40.7097 27.2344L40.4913 27.5984C40.3857 27.5042 40.2613 27.4327 40.126 27.3884C39.9975 27.3477 39.8632 27.3271 39.7281 27.3275C39.6086 27.3275 39.4948 27.3506 39.3842 27.3944C39.2752 27.4376 39.1756 27.5009 39.0908 27.5809C39.0041 27.6632 38.9357 27.7624 38.8902 27.8721C38.8393 27.9855 38.8155 28.1108 38.8155 28.2505C38.8155 28.3933 38.8422 28.5214 38.893 28.632C38.9442 28.7457 39.0129 28.842 39.0996 28.9232C39.1864 29.0051 39.2881 29.066 39.4048 29.1069C39.5218 29.1507 39.6445 29.171 39.7761 29.171C39.9376 29.171 40.0844 29.1388 40.21 29.0775C40.3344 29.0184 40.4462 28.9364 40.5393 28.836L40.7637 29.1678ZM41.3801 29.5406V26.9488H41.8531V28.8798L43.3913 26.9488H43.8643V29.5409H43.3913V27.61L41.8531 29.5409L41.3801 29.5406ZM46.9975 29.1678C46.8812 29.3118 46.7285 29.4233 46.5548 29.4912C46.3703 29.565 46.173 29.6026 45.974 29.6018C45.7762 29.6045 45.5796 29.572 45.3936 29.5059C45.2262 29.4462 45.0733 29.353 44.9444 29.2322C44.8172 29.1113 44.7173 28.9653 44.6513 28.8038C44.5799 28.627 44.5442 28.438 44.5464 28.2477C44.5464 28.0587 44.5795 27.8837 44.6481 27.7178C44.7143 27.5515 44.8099 27.4091 44.9294 27.2894C45.0493 27.1672 45.193 27.0741 45.3544 27.0013C45.525 26.9274 45.7098 26.8907 45.8961 26.8935C46.1088 26.8935 46.3062 26.9198 46.4858 26.9719C46.6654 27.0244 46.8179 27.1119 46.9438 27.2344L46.7251 27.5984C46.6197 27.5042 46.4954 27.4327 46.3602 27.3884C46.2316 27.3477 46.0973 27.3271 45.9622 27.3275C45.7245 27.3283 45.4962 27.419 45.3246 27.5809C45.2386 27.6639 45.1704 27.7629 45.124 27.8721C45.0731 27.9855 45.0493 28.1108 45.0493 28.2505C45.0493 28.3933 45.0763 28.5214 45.1272 28.632C45.178 28.7457 45.2467 28.842 45.3335 28.9232C45.4202 29.0051 45.5223 29.066 45.639 29.1069C45.7556 29.1475 45.8783 29.171 46.0099 29.171C46.1717 29.171 46.3154 29.1388 46.4438 29.0775C46.5682 29.0184 46.68 28.9364 46.7731 28.836L46.9975 29.1678ZM47.2401 26.9488H49.667V27.4091H48.6915V29.5406H48.2185V27.4091H47.2429V26.9488H47.2401Z" fill="white"/>
<path fill-rule="evenodd" clip-rule="evenodd" d="M51.8754 29.5147C52.055 29.4594 52.2075 29.3747 52.3391 29.2585L52.1955 28.8973C52.1087 28.9732 51.992 29.0373 51.8515 29.0898C51.7107 29.1423 51.5521 29.1682 51.3785 29.1682C51.1182 29.1682 50.9027 29.1013 50.732 28.9645C50.5616 28.8273 50.4688 28.6355 50.4478 28.3905H52.4949C52.5159 28.3002 52.5248 28.1983 52.5248 28.079C52.5248 27.9012 52.4917 27.7412 52.4259 27.5956C52.3647 27.4543 52.2752 27.3264 52.1627 27.2197C52.0487 27.1141 51.9144 27.032 51.7676 26.9782C51.614 26.9196 51.4505 26.8899 51.2857 26.8907C51.0641 26.8907 50.8696 26.9285 50.6992 26.9985C50.5382 27.0652 50.3925 27.1633 50.271 27.2869C50.1531 27.4099 50.0625 27.5557 50.005 27.715C49.9418 27.8847 49.9103 28.0642 49.9122 28.2449C49.9122 28.4489 49.9481 28.6351 50.0139 28.8014C50.0779 28.9624 50.1759 29.1083 50.3013 29.2294C50.424 29.3484 50.5733 29.4391 50.7501 29.5031C50.9393 29.5692 51.139 29.6017 51.3398 29.599C51.5216 29.5979 51.7022 29.5693 51.8754 29.5147ZM50.6783 27.5197C50.8248 27.3888 51.0193 27.3247 51.2647 27.3247C51.4952 27.3247 51.6808 27.386 51.8156 27.5085C51.9504 27.6306 52.0219 27.7997 52.034 28.0149H50.4179C50.4408 27.8244 50.5333 27.6481 50.6783 27.5197Z" fill="white"/>
<path d="M53.1699 26.9488H53.601L54.6245 28.2333L55.594 26.9488H56.013V29.5409H55.5403V27.6509L54.6185 28.8535H54.6003L53.6429 27.6506V29.5406H53.1699V26.9488Z" fill="white"/>
<path fill-rule="evenodd" clip-rule="evenodd" d="M57.2991 26.9576C57.1556 26.9945 57.0184 27.0523 56.8922 27.1291L57.0178 27.4966C57.1255 27.4441 57.2333 27.4003 57.3411 27.3625C57.4488 27.3244 57.5865 27.3069 57.7511 27.3069C57.8827 27.3069 57.9876 27.3275 58.0684 27.3681C58.1491 27.4059 58.2088 27.4644 58.2508 27.5344C58.2928 27.6044 58.3198 27.6915 58.3347 27.7934C58.3497 27.8952 58.3557 28.0058 58.3557 28.1255C58.259 28.0592 58.1486 28.0144 58.0324 27.9943C57.9201 27.9723 57.8059 27.9606 57.6914 27.9593C57.5505 27.9593 57.4189 27.9799 57.293 28.0146C57.1675 28.0496 57.0597 28.1021 56.973 28.1721C56.8844 28.242 56.8128 28.3305 56.7635 28.4311C56.7108 28.5413 56.6841 28.6618 56.6856 28.7835C56.6856 29.0369 56.7606 29.235 56.91 29.375C57.0597 29.5147 57.2571 29.5843 57.5025 29.5843C57.7241 29.5843 57.9009 29.5465 58.0353 29.4709C58.1701 29.395 58.2778 29.3078 58.3557 29.2088V29.5437H58.7985V27.9537C58.7985 27.6156 58.7238 27.3538 58.5713 27.17C58.4215 26.9866 58.1551 26.8935 57.7782 26.8935C57.6103 26.8935 57.4517 26.9166 57.2991 26.9576ZM58.0897 29.0576C57.9819 29.1332 57.8411 29.1678 57.6675 29.1678C57.515 29.1678 57.3951 29.13 57.3115 29.0572C57.2276 28.9816 57.1856 28.8826 57.1856 28.7601C57.1856 28.6876 57.2006 28.6264 57.2337 28.5711C57.2667 28.5158 57.3115 28.472 57.3624 28.437C57.418 28.4004 57.4798 28.3738 57.5449 28.3583C57.6138 28.3408 57.6825 28.332 57.7543 28.332C57.988 28.332 58.1882 28.3873 58.3529 28.5039V28.8329C58.2753 28.9185 58.1868 28.9942 58.0897 29.0576ZM62.9738 26.0371C63.0695 25.9937 63.1591 25.9209 63.2431 25.8131L62.9856 25.4491C62.9198 25.5366 62.8451 25.5975 62.7611 25.6297C62.6722 25.6639 62.58 25.6892 62.4859 25.7053L62.3963 25.721C62.3184 25.7343 62.2348 25.749 62.1448 25.7637C62.0005 25.79 61.8599 25.833 61.7259 25.8918C61.5132 25.9821 61.3428 26.1043 61.2141 26.2586C61.0853 26.413 60.9836 26.5876 60.9146 26.7801C60.8447 26.9752 60.7976 27.1774 60.7741 27.3828C60.75 27.5928 60.7382 27.7934 60.7382 27.9855C60.7382 28.2333 60.7709 28.4573 60.8367 28.6582C60.9029 28.8595 60.9954 29.0282 61.1181 29.165C61.2407 29.305 61.3876 29.41 61.5612 29.4856C61.7347 29.5612 61.9293 29.599 62.1477 29.599C62.3482 29.599 62.5339 29.5612 62.7014 29.4912C62.8629 29.424 63.0094 29.3261 63.1324 29.2032C63.2519 29.0835 63.348 28.9407 63.4138 28.7807C63.4824 28.6204 63.5155 28.4486 63.5155 28.268C63.5155 28.073 63.4856 27.8956 63.4287 27.7381C63.3763 27.5879 63.2927 27.4502 63.1833 27.3335C63.0737 27.2188 62.9397 27.1292 62.791 27.071C62.6272 27.0075 62.4524 26.9759 62.2764 26.9779C62.1626 26.9779 62.052 26.9926 61.9442 27.0216C61.8394 27.0507 61.7388 27.0928 61.6448 27.1469C61.5535 27.1984 61.47 27.262 61.3965 27.3359C61.3247 27.4091 61.2649 27.4906 61.223 27.5837H61.2109C61.2201 27.4644 61.2351 27.3422 61.2617 27.2169C61.2888 27.0916 61.3275 26.9719 61.3787 26.8585C61.4296 26.7451 61.4954 26.6429 61.5761 26.5498C61.6627 26.4559 61.7688 26.3814 61.8873 26.3314C62.0176 26.2704 62.1555 26.2264 62.2974 26.2005L62.3913 26.1837C62.4848 26.1669 62.5741 26.1508 62.6594 26.1333C62.7732 26.1102 62.8778 26.0805 62.9738 26.0371ZM61.3097 28.5273C61.2635 28.3803 61.2413 28.227 61.244 28.073C61.264 27.9847 61.3005 27.9008 61.3517 27.8256C61.4026 27.7468 61.4684 27.6772 61.5463 27.6156C61.722 27.4801 61.9393 27.4073 62.1626 27.4091C62.4411 27.4091 62.6505 27.4934 62.7971 27.6597C62.944 27.8284 63.0158 28.038 63.0158 28.2914C63.0158 28.4167 62.9916 28.5305 62.95 28.6351C62.9096 28.7384 62.8484 28.8326 62.7703 28.9121C62.6922 28.9916 62.5986 29.0549 62.4951 29.0982C62.3874 29.1447 62.2703 29.1682 62.1388 29.1682C62.0072 29.1682 61.8873 29.1419 61.7767 29.0894C61.6668 29.038 61.5697 28.9634 61.4922 28.871C61.4111 28.7681 61.3493 28.6517 61.3097 28.5273ZM67.1427 26.9488H66.6697V29.5409H67.1427V26.9488ZM64.1976 26.9488H64.6706V27.7265H65.1077C65.314 27.7265 65.4815 27.7528 65.6163 27.8021C65.7511 27.8518 65.8588 27.9187 65.9396 28.0002C66.0203 28.0818 66.0772 28.178 66.1103 28.2855C66.143 28.3933 66.1611 28.5039 66.1611 28.6204C66.1611 28.737 66.143 28.8479 66.1042 28.9585C66.0683 29.0691 66.0054 29.165 65.9214 29.2525C65.8379 29.34 65.7241 29.41 65.5804 29.4625C65.4367 29.5147 65.2631 29.5437 65.0537 29.5437H64.1948V26.9488H64.1976ZM64.6706 28.1602V29.1097H65.0149C65.2514 29.1097 65.4189 29.0691 65.5146 28.9872C65.6106 28.9057 65.6583 28.7895 65.6583 28.6351C65.6583 28.4776 65.6074 28.3586 65.5117 28.2767C65.4129 28.1952 65.2482 28.1542 65.0209 28.1542H64.6706V28.1602Z" fill="white"/>
<path d="M70.2696 29.1678C70.1558 29.3106 70.006 29.4184 69.8264 29.4912C69.6422 29.565 69.445 29.6026 69.246 29.6018C69.0482 29.6045 68.8514 29.572 68.6653 29.5059C68.498 29.4463 68.3452 29.3531 68.2164 29.2322C68.0892 29.1112 67.9893 28.9653 67.923 28.8038C67.8518 28.6269 67.8163 28.438 67.8184 28.2477C67.8184 28.0587 67.8512 27.8837 67.9202 27.7178C67.986 27.5515 68.0816 27.4091 68.2015 27.2894C68.3213 27.1672 68.4647 27.0741 68.6265 27.0013C68.797 26.9274 68.9818 26.8906 69.1681 26.8935C69.3805 26.8935 69.5782 26.9198 69.7578 26.9719C69.9374 27.0244 70.09 27.1119 70.2155 27.2344L69.9972 27.5984C69.8915 27.5042 69.7672 27.4327 69.6319 27.3884C69.5033 27.3477 69.369 27.3271 69.2339 27.3275C69.1144 27.3275 69.0006 27.3506 68.8897 27.3944C68.7808 27.4376 68.6813 27.5009 68.5966 27.5809C68.5106 27.6638 68.4423 27.7628 68.396 27.8721C68.3452 27.9855 68.3213 28.1108 68.3213 28.2505C68.3213 28.3933 68.348 28.5214 68.3989 28.632C68.4497 28.7457 68.5187 28.842 68.6055 28.9232C68.6923 29.0051 68.794 29.066 68.9107 29.1069C69.0277 29.1475 69.1504 29.171 69.2819 29.171C69.4434 29.171 69.5871 29.1388 69.7158 29.0775C69.8402 29.0184 69.952 28.9364 70.0452 28.836L70.2696 29.1678ZM70.5118 26.9488H72.9391V27.4091H71.9632V29.5406H71.4905V27.4091H70.515V26.9488H70.5118Z" fill="white"/>
<path fill-rule="evenodd" clip-rule="evenodd" d="M73.9261 26.9492H73.4531V30.6942H73.9261V29.4216C74.0218 29.4828 74.1356 29.5266 74.2672 29.5556C74.3988 29.5847 74.5364 29.599 74.6773 29.599C74.8867 29.599 75.0752 29.5612 75.2459 29.4916C75.4097 29.4227 75.5581 29.3228 75.6827 29.1976C75.8054 29.0719 75.8982 28.9263 75.964 28.7545C76.0298 28.583 76.0629 28.3992 76.0629 28.2043C76.0629 28.0118 76.033 27.8343 75.9761 27.674C75.9225 27.5218 75.8391 27.3814 75.7307 27.2607C75.6243 27.143 75.4923 27.0504 75.3445 26.9898C75.1829 26.9215 75.0085 26.8877 74.8327 26.8907C74.6474 26.8907 74.4738 26.9257 74.3092 26.9957C74.1445 27.0657 74.0158 27.1497 73.9261 27.2547V26.9492ZM74.2555 27.4297C74.3903 27.3597 74.5368 27.3247 74.6954 27.3247C74.833 27.3247 74.9557 27.345 75.0667 27.3888C75.1745 27.4325 75.2641 27.4938 75.3391 27.5753C75.4138 27.6569 75.4707 27.7503 75.5066 27.8606C75.5454 27.9712 75.5635 28.0909 75.5635 28.2218C75.5635 28.3618 75.5394 28.4867 75.4978 28.6033C75.4585 28.7138 75.3963 28.815 75.3149 28.9004C75.2333 28.9849 75.1344 29.0513 75.0247 29.0954C74.9025 29.1458 74.771 29.1706 74.6385 29.1682C74.5101 29.1682 74.3903 29.1538 74.2765 29.1248C74.1519 29.0914 74.0336 29.0382 73.9265 28.9673V27.6828C74.0101 27.5841 74.121 27.4997 74.2555 27.4297ZM79.6901 26.9488H79.2171V29.5409H79.6901V26.9488ZM76.7422 26.9488H77.2152V27.7265H77.6519C77.8585 27.7265 78.0261 27.7528 78.1608 27.8021C78.2956 27.8518 78.4034 27.9187 78.4841 28.0002C78.5649 28.0818 78.6218 28.178 78.6545 28.2855C78.6876 28.3933 78.7053 28.5039 78.7053 28.6204C78.7053 28.737 78.6876 28.8479 78.6488 28.9585C78.6129 29.0691 78.5499 29.165 78.466 29.2525C78.3824 29.34 78.2686 29.41 78.1249 29.4625C77.9812 29.5147 77.8077 29.5437 77.5982 29.5437H76.7393V26.9488H76.7422ZM77.2184 28.1602V29.1097H77.5626C77.7988 29.1097 77.9667 29.0691 78.0623 28.9872C78.158 28.9057 78.206 28.7895 78.206 28.6351C78.206 28.4776 78.1552 28.3586 78.0595 28.2767C77.9606 28.1952 77.796 28.1542 77.5687 28.1542H77.2184V28.1602Z" fill="white"/>
<path d="M81.9604 28.1983L82.9719 29.5409H82.3915L81.6101 28.4923L80.817 29.5409H80.2665L81.2719 28.2214L80.3262 26.9488H80.907L81.6283 27.9274L82.3613 26.9488H82.9122L81.9604 28.1983ZM40.4146 32.7445H38.9632V34.9054H38.4902V32.3136H40.8873V34.9054H40.4146V32.7445ZM43.5717 32.7735H42.6382L42.6079 33.2103C42.5752 33.5803 42.5304 33.8774 42.4675 34.1042C42.4045 34.3317 42.3266 34.5064 42.237 34.6285C42.1474 34.751 42.0425 34.8354 41.9226 34.8763C41.799 34.9205 41.6682 34.9422 41.5367 34.9404L41.5008 34.4917C41.5517 34.4945 41.6114 34.4829 41.6772 34.4539C41.7434 34.4248 41.8091 34.3608 41.8717 34.2649C41.9347 34.1655 41.9916 34.0258 42.0425 33.8452C42.0933 33.6618 42.1264 33.4231 42.1442 33.1228L42.1922 32.3161H44.0448V34.9082H43.5717V32.7735Z" fill="white"/>
<path fill-rule="evenodd" clip-rule="evenodd" d="M45.3186 32.3196C45.1657 32.3602 45.0281 32.4183 44.9114 32.4911L45.0373 32.8582C45.1451 32.8057 45.2528 32.762 45.3602 32.7242C45.468 32.6864 45.606 32.6689 45.7703 32.6689C45.9023 32.6689 46.0068 32.6892 46.0876 32.7298C46.1686 32.7679 46.2284 32.826 46.2704 32.896C46.312 32.966 46.339 33.0535 46.3539 33.155C46.3689 33.2572 46.3749 33.3678 46.3749 33.4872C46.2781 33.4209 46.1678 33.3762 46.0516 33.3563C45.9393 33.3343 45.8251 33.3226 45.7106 33.3213C45.5701 33.3213 45.4381 33.3416 45.3126 33.3766C45.1867 33.4116 45.0789 33.4641 44.9922 33.5341C44.9036 33.604 44.832 33.6925 44.7827 33.7931C44.7301 33.9033 44.7036 34.0238 44.7051 34.1455C44.7051 34.3986 44.7798 34.597 44.9296 34.7367C45.0789 34.8763 45.2767 34.9463 45.5221 34.9463C45.7436 34.9463 45.92 34.9085 46.0548 34.8326C46.1893 34.757 46.297 34.6695 46.3749 34.5704V34.9054H46.8181V33.3153C46.8181 32.9776 46.743 32.7154 46.5904 32.532C46.4407 32.3483 46.1743 32.2555 45.7973 32.2555C45.6356 32.2557 45.4746 32.2774 45.3186 32.3196ZM46.1117 34.4189C46.0043 34.4948 45.8635 34.5298 45.6899 34.5298C45.5342 34.5298 45.4175 34.492 45.3339 34.4189C45.25 34.3433 45.208 34.2442 45.208 34.1221C45.208 34.0493 45.223 33.988 45.256 33.9327C45.2888 33.8774 45.3339 33.8337 45.3848 33.7987C45.4356 33.7637 45.4982 33.7374 45.5672 33.7199C45.6357 33.7026 45.706 33.6938 45.7767 33.694C46.01 33.694 46.2106 33.7493 46.3753 33.8655V34.1945C46.2975 34.2801 46.209 34.3555 46.1117 34.4189Z" fill="white"/>
<path d="M47.2812 32.3136H49.7086V32.7735H48.7327V34.9054H48.26V32.7739H47.2845V32.3136H47.2812Z" fill="white"/>
<path fill-rule="evenodd" clip-rule="evenodd" d="M51.9187 34.8791C52.0983 34.8238 52.2509 34.7391 52.3824 34.6229L52.2388 34.2617C52.152 34.3377 52.0353 34.4017 51.8945 34.4542C51.754 34.5067 51.5954 34.5326 51.4218 34.5326C51.1615 34.5326 50.946 34.4658 50.7753 34.3289C50.6046 34.1921 50.5121 33.9999 50.4911 33.7549H52.5382C52.5588 33.665 52.5681 33.5628 52.5681 33.4434C52.5681 33.266 52.535 33.1057 52.4692 32.9601C52.4079 32.8187 52.3183 32.691 52.2057 32.5845C52.0919 32.4787 51.9577 32.3964 51.8109 32.3427C51.6573 32.2841 51.4938 32.2544 51.329 32.2552C51.1074 32.2552 50.9129 32.293 50.7425 32.363C50.5814 32.4295 50.4357 32.5276 50.3144 32.6514C50.1964 32.7744 50.1057 32.9202 50.048 33.0794C49.9849 33.2491 49.9535 33.4287 49.9551 33.6093C49.9551 33.8134 49.9911 33.9996 50.0569 34.1658C50.123 34.3317 50.2215 34.4745 50.3442 34.5939C50.4669 34.7132 50.6167 34.8035 50.7934 34.8676C50.9825 34.9338 51.182 34.9663 51.3827 34.9638C51.5595 34.9638 51.7391 34.9344 51.9187 34.8791ZM50.7187 32.8813C50.8652 32.7504 51.0598 32.6864 51.3052 32.6864C51.5388 32.6864 51.7213 32.7504 51.8561 32.8698C51.9905 32.9923 52.0624 33.161 52.0745 33.3766H50.4584C50.4812 33.1859 50.5737 33.0099 50.7187 32.8813ZM52.7986 32.3136H53.3971L54.3097 33.5631L53.3342 34.9054H52.7537L53.7769 33.5628L52.7986 32.3136ZM54.4264 32.3136H54.8994V34.9054H54.4264V32.3136ZM56.5901 34.9054L55.5488 33.5628L56.5215 32.3133H55.9347L55.016 33.5628L56.0037 34.9054H56.5901ZM58.751 34.8791C58.9306 34.8238 59.0832 34.7391 59.2148 34.6229L59.0711 34.2617C58.9843 34.3377 58.8677 34.4017 58.7272 34.4542C58.5864 34.5067 58.4278 34.5326 58.2542 34.5326C57.9939 34.5326 57.7783 34.4658 57.6076 34.3289C57.4373 34.1921 57.3445 33.9999 57.3235 33.7549H59.3706C59.3916 33.665 59.4005 33.5628 59.4005 33.4434C59.4005 33.266 59.3677 33.1057 59.3016 32.9601C59.2403 32.8188 59.1508 32.6911 59.0384 32.5845C58.9245 32.4787 58.7901 32.3964 58.6433 32.3427C58.4896 32.284 58.3262 32.2543 58.1614 32.2552C57.9402 32.2552 57.7456 32.293 57.5749 32.363C57.4139 32.4296 57.2684 32.5277 57.1471 32.6514C57.0289 32.7742 56.9382 32.92 56.8807 33.0794C56.8175 33.2491 56.786 33.4286 56.7879 33.6093C56.7879 33.8134 56.8238 33.9996 56.8896 34.1658C56.9554 34.3317 57.0542 34.4745 57.1769 34.5939C57.2996 34.7132 57.449 34.8035 57.6258 34.8676C57.815 34.9338 58.0146 34.9663 58.2154 34.9638C58.3973 34.9625 58.5779 34.934 58.751 34.8791ZM57.5511 32.8813C57.698 32.7504 57.8925 32.6864 58.1379 32.6864C58.3684 32.6864 58.5537 32.7504 58.6884 32.8698C58.8232 32.9923 58.8951 33.161 58.9068 33.3766H57.2908C57.3136 33.1859 57.4061 33.0099 57.5511 32.8813ZM61.3192 31.4428C61.0407 31.4428 60.8881 31.2913 60.8643 30.9885H60.4183C60.4183 31.1047 60.4393 31.2097 60.4781 31.3088C60.5172 31.4078 60.5741 31.4922 60.6488 31.5622C60.7235 31.6322 60.8195 31.6875 60.9301 31.7309C61.0407 31.7746 61.1695 31.7949 61.316 31.7949C61.4508 31.7949 61.5706 31.7746 61.6784 31.7309C61.7861 31.6903 61.8758 31.6322 61.9537 31.5622C62.0283 31.4922 62.0884 31.4078 62.1301 31.3088C62.172 31.2097 62.193 31.1047 62.193 30.9885H61.7502C61.7292 31.2913 61.5824 31.4428 61.3192 31.4428ZM60.041 32.3133V34.9054H60.514L62.0522 32.9744V34.9054H62.5252V32.3133H62.0522L60.514 34.2442V32.3133H60.041Z" fill="white"/>
</g>
<defs>
<clipPath id="clip0_63_8366">
<rect width="85" height="42" fill="white"/>
</clipPath>
</defs>
</svg>
