<svg width="132" height="31" fill="none" xmlns="http://www.w3.org/2000/svg"><path d="M13.833 23.078s.381-.156.416-.268l-.052-.127c-.035-.083-.031-.173.04-.221l.41-.284.688.132s-.125-.156-.113-.363l-.655-.139-.62.377a.6.6 0 00-.196.713l.082.18zm4.862 1.791a9.79 9.79 0 01.407-.007s.354-1.033.374-1.066a8.645 8.645 0 01-.768-.405c.105.157.36.336.31.474l-.323 1.004zm.21-12.054c-.525.52-1.029.713-1.479.758a2.39 2.39 0 01-.248.014h-.011c-.166 0-.33-.017-.493-.052a.923.923 0 00.04.594c.096.21.289.366.572.47l.095.038.001.102c0 .03.022.692.746.877a6.46 6.46 0 00.303-.324c-.147-.346-.07-.7.145-.875-.009.037-.104.906.594 1.23l.115.054-.034.122c-.012.037-.244.879.601 1.192l.15.057-.067.144c-.015.032-.346.796.434 1.23h1.692v-1.343c-.602-.074-.856-.557-.922-.9-.28-.047-.496-.167-.644-.363-.355-.467-.05-.895-.046-.919 0 .004 0 .459.281.74.14.135.305.24.555.264l.122.011.01.126c.003.027.07.643.644.74V14.06c0-.425.123-.852.273-1.247h-3.429v.001zm-4.555 1.256l-.045 1.745.2.031.486-1.674-.248-.516-.392.414zm1.053 6.463a.099.099 0 01-.09-.067.097.097 0 01-.004-.04.097.097 0 01.034-.068.099.099 0 01.072-.024.101.101 0 01.096.105.101.101 0 01-.108.094zm4.303 1.545c.015 0 .032.002.048.006.303.086.379 1.174.908 1.27a.633.633 0 00.143.015c.153 0 .244-.065.343-.182 0 0-.267-.418-.467-.7-.264-.37-.47-.817-.963-.817l-.039.001a.492.492 0 00-.262.089 1.021 1.021 0 00-.555-.169c-.308 0-.549.142-.67.142h-.004l-1.101-.11c-.173-.016-.309-.19-.358-.257l-.02-.03v-.087c-.038-.9-.735-1.284-.984-1.291 0 0 .03-.171-.038-.236l-.242.294-.798-.4.569.664-.482.54c-.06.062-.053.145-.027.18l.208.184.263-.16c.013-.01.038-.013.067-.013.073 0 .182.019.28.019.109 0 .201-.023.213-.124-.033.334-.344.914-.14 1.37l.151.344-.974-.14-.456.768c-.14.257-.163.533-.028.684l.171.213s.24-.253.292-.42l-.077-.085c-.065-.072-.061-.135-.021-.212l.286-.474 1.149.27.06-.104c.078-.13.191-.167.314-.167.051 0 .104.006.157.014.213.043.565.1.916.1.386 0 .768-.07.972-.298.416.617 1.26.715 1.194 1.029l-.222 1.056a4.58 4.58 0 00.423-.035l.212-1.098c.017-.094.032-.187.045-.281-.081-.083-.278-.257-.39-.469-.148-.286-.068-.436-.207-.808 0 0 .044-.086.14-.086zm10.199-3.597c-.893-.441-1.457-1.608-1.594-2.029-.148 2.316-1.28 3.922-2.602 5.468-.686.803-.926 1.582-.926 1.582s.133-.883.726-1.602c1.234-1.48 2.406-3.324 2.494-5.456.06-1.488-.323-2.694-.921-3.688.335 1.035.287 2.303-.848 3.487 0 0 2.26-2.705-.9-5.478-1.264-1.055-2.648-1.707-3.36-2.169 2.573.839 3.83-.085 3.83-.085-.822.712-1.886.7-2.545.597.179.087.365.179.565.285 2.17 1.178 4.12 3.115 4.453 5.798v-.021c.504 2.634 1.628 3.31 1.628 3.31zm.66-3.07c.02.002.038.002.058.002 1.21 0 1.619-1.294 1.619-1.294h-.024c-.222 0-2.02-.052-3.292-1.666-.836-1.061-1.521-1.994-2.876-2.361l-.134-.024-.028-.136c-.038-.207.104-.4.426-.609 1.87-1.222.599-2.782.599-2.782s-.533 1.247-1.727 1.247l-.09-.002c-.134-.007-.265-.011-.397-.04l-.22-.043s.34-.925-.482-1.773c-.618-.642-1.372-.75-1.806-.75-.22 0-.358.028-.358.028.413.538.71 1.433.234 1.985-.412.474-1.418.497-1.418 1.204 0 .3.28.649.783.963 1.513.95 3.014 2.213 3.638 3.905.78 2.11-.1 3.51-1.353 4.314 0 0 .394.361.963.408.117.011.23.016.336.016 1.205 0 1.827-.564 1.827-.564s-.103.78-.728 1.503c-.58.668-1.338 1.062-2.496 1.078 0 0-.036.537.476 1.002.329.293 1.086.389 1.086.389s-1.419.286-1.576 2.38c-.085 1.134-.375 1.527-.375 1.527h.026c3.292 0 3.207-2.82 3.207-2.82a1.596 1.596 0 001.49 1.093c.295 0 .553-.069.553-.069s-.482-1.013-.005-2.43c.396-1.177.332-2.049.332-2.049s.443.67 1.544.677h.011a1.549 1.549 0 001.315-.694c-2.195-.91-1.978-3.848-1.978-3.848s.284.213.84.234zm-21.93 6.51c-1.322-1.547-2.454-3.153-2.603-5.468-.136.42-.699 1.588-1.591 2.028 0 0 1.122-.676 1.626-3.31v.02c.334-2.682 2.283-4.62 4.454-5.796.2-.108.386-.199.564-.285-.659.102-1.724.114-2.545-.597 0 0 1.257.923 3.83.084-.712.462-2.096 1.114-3.36 2.168-3.16 2.774-.9 5.479-.9 5.479-1.136-1.185-1.182-2.452-.848-3.487-.598.994-.981 2.2-.919 3.689.086 2.13 1.257 3.974 2.489 5.456.596.717.73 1.6.73 1.6s-.242-.778-.927-1.58v-.002zm.53-.51s.756-.096 1.085-.39c.512-.464.476-1 .476-1-1.158-.017-1.916-.41-2.498-1.078A3.2 3.2 0 017.5 17.44s.623.565 1.826.565c.108 0 .22-.006.336-.017.356-.036.693-.178.966-.408-1.256-.803-2.135-2.204-1.355-4.314.624-1.69 2.124-2.954 3.639-3.906.502-.313.78-.662.78-.961 0-.708-1.003-.731-1.415-1.205-.477-.551-.178-1.446.234-1.985 0 0-.138-.029-.358-.029-.434 0-1.187.11-1.806.751-.824.85-.482 1.774-.482 1.774l-.22.043c-.131.027-.264.032-.399.04l-.087.001c-1.196 0-1.728-1.246-1.728-1.246s-1.269 1.56.6 2.782c.32.208.462.403.425.608l-.029.135-.136.024c-1.352.368-2.038 1.3-2.875 2.362a4.38 4.38 0 01-3.291 1.666h-.024s.41 1.294 1.62 1.294l.058-.001c.555-.02.84-.233.84-.233s.216 2.937-1.978 3.848c0 0 .4.694 1.315.694h.01c1.102-.007 1.544-.677 1.544-.677s-.064.872.33 2.048c.478 1.418-.001 2.43-.001 2.43s.256.069.551.069c.115 0 .232-.01.342-.04.918-.218 1.147-1.053 1.147-1.053s-.084 2.82 3.209 2.82h.024s-.289-.393-.373-1.527c-.156-2.093-1.576-2.38-1.576-2.38zm7.264-10.394h1.552v.532c-.182-.223-.538-.177-.538-.177v.767s.013.377.146.54h-.768c.134-.163.145-.54.145-.54v-.767s-.353-.046-.537.177v-.532zm-1.691.08c.054.058.107.12.158.184l.035.045c.048.062.096.13.142.197l.03.046c.055.083.107.168.16.258.475.818 1.234 1.308 1.908 1.309.676-.001 1.434-.49 1.91-1.31.053-.09.106-.178.162-.261a3.779 3.779 0 01.366-.47c.01-.009.017-.018.027-.026.242-.247.53-.436.908-.54l-.169-.098h-.008l-.67-.387-.686-.394-1.835.998-.005-.004-.002.004-1.835-.998-.687.394-.67.387h-.007l-.17.098c.378.103.666.29.908.538.01.009.018.021.03.03zm2.433-6.236c-1.136 0-1.988.373-2.174.811l2.174.856 2.175-.856c-.184-.438-1.036-.81-2.175-.81zm.024 22.687h-.044c-.688.004-1.638-.136-2.094-.27l-.55 1.486c.363.129 1.59.376 2.667.376 1.074 0 2.303-.247 2.665-.376l-.55-1.486c-.458.134-1.406.274-2.095.27zm4.16-1.478c-.41.231-1.323.579-1.855.74l.446 1.227a11.148 11.148 0 002.061-.767l-.926-.307.273-.893zm-8.365 0l.274.893-.927.307c.56.28 1.241.543 2.06.767l.447-1.228c-.53-.16-1.445-.508-1.854-.74zm4.18-22.63c.859 0 1.698.205 2.345.564a5.78 5.78 0 01.253-.689l-.245.03-.255.025-.109-.232-.328-.69-.594.31-.233.118-.185-.182-.648-.64-.646.64-.185.182-.231-.118-.599-.31-.323.69-.11.233-.257-.026-.243-.03c.112.252.194.492.253.69.65-.36 1.489-.565 2.342-.565h-.001zm13.082 7.97c.112.038.225.055.337.055.485 0 .954-.314 1.114-.671 0 0-.889-.054-1.845-1.023-.303-.313-.626-.408-.901-.408-.43 0-.752.226-.752.226 1.155.614 1.39 1.6 2.047 1.821zm-26.496.054a.984.984 0 00.334-.055c.659-.221.896-1.206 2.049-1.82 0 0-.323-.226-.75-.226-.277 0-.599.094-.904.408-.955.969-1.843 1.023-1.843 1.023.16.357.629.671 1.114.671zm12.831-3.827v.501l-.096-.045c-.004-.003-.146-.034-.392-.23-.407-.314-.414-.605-.414-.605l.902.379zm.425 2.35V6.872L15.028 6.2l.524 3.017 1.461.77zm.746-2.35l.902-.379s-.007.29-.416.605c-.245.195-.386.227-.39.23l-.096.044v-.5zm1.035 1.58l.52-3.017-1.982.672v3.114l1.462-.77v.001zm-4.587 7.989c.193.069.428.084.548.084l.017-.056c.01-.034.02-.07.028-.109a3.18 3.18 0 00.049-.493.694.694 0 01-.261-.275c-.074-.155-.179-.228-.332-.228-.2 0-.414.121-.507.177-.073.43.246.821.458.899zm4.39-1.652c-.368.4-1.09 1.098-1.125 1.132l-.044.043-2.28-.035a2.352 2.352 0 01-.073.558l-.018.071 2.711.488c.282-.197 1.058-.763 1.36-.986-.22-.32-.24-.7-.19-.965a1.356 1.356 0 01-.342-.306z" fill="#FFFFFE"/><path d="M22.06 18.741h-9.777v3.674c0 1.503 1.088 2.443 2.695 2.443 1.342 0 1.695.052 2.194.547.344-.343.629-.47 1.214-.519l.013-.056.308-.952c-.017-.021-.52-.593-.52-.593-.2.067-.368.078-.65.078a5.41 5.41 0 01-.971-.1.455.455 0 00-.102-.013c-.043 0-.046.004-.058.026l-.06.1-.113.186-.21-.05-.94-.22-.128.212.02.023.113.125-.05.165c-.07.213-.293.463-.362.532l-.234.251-.214-.269-.16-.201c-.17-.189-.209-.477-.113-.78a.018.018 0 01-.01.003l-.264.11-.12-.26-.083-.182a.892.892 0 01.297-1.078l.755-.426.72.14c.017-.068.043-.314.063-.377-.014-.002-.027-.004-.041-.004l-.415.154-.398-.275s-.156-.15-.015-.301l.386-.586-.98-1.227 1.506.617.1-.124.204-.244.23.22a.44.44 0 01.122.217c.414.162 1.158.638 1.224 1.413l-.232.092v.006c.053.064.097.09.11.092l1.076.106c.028-.006.06-.018.099-.028.134-.046.335-.113.572-.113.194 0 .382.045.561.13a.814.814 0 01.243-.05l.052-.002c.575 0 .861.43 1.091.773.038.06.076.115.116.17.201.284.464.698.475.716l.118.185-.145.17c-.111.129-.28.28-.568.28a.968.968 0 01-.194-.02.824.824 0 01-.172-.052 4.333 4.333 0 01-.03.182l-.189.983c1.128-.277 1.844-1.128 1.844-2.345l-.003-3.674zm-9.777-.295h7.605c-.38-.393-.374-.888-.277-1.21a1.257 1.257 0 01-.284-.188c-.297.22-1.205.879-1.441 1.045l-.051.034-2.985-.54h-.06c-.072 0-.177-.002-.291-.016a.29.29 0 01-.39.206.29.29 0 01-.13-.102.287.287 0 01-.053-.219l.011-.064c-.306-.216-.592-.7-.465-1.21l.012-.054.043-.032a1.9 1.9 0 01.136-.083l-.217-.034a.15.15 0 01-.123-.169.148.148 0 01.17-.123l.516.08.047-1.816.769-.813.48 1.01-.506 1.748.456.072a.15.15 0 01.123.17.146.146 0 01-.146.123l-.023-.001-.372-.06c.005.011.012.018.017.03a.406.406 0 00.179.164l2.274.037c.097-.094.335-.328.581-.575a1.228 1.228 0 01-.797-1.014c-.313-.133-.53-.332-.65-.592a1.238 1.238 0 01-.054-.8c-.303-.11-.622-.311-.948-.635h-3.427c.147.394.271.822.271 1.246v4.384z" fill="#FFE52B"/><path d="M17.173 6.53l-2.174-.857c.185-.438 1.037-.81 2.174-.81 1.138 0 1.99.372 2.175.81l-2.175.857zm1.62 2.689l-1.46.77V6.871l1.983-.673-.522 3.018v.002zm.906.826l.668.388h.01l.168.097a1.967 1.967 0 00-.908.54l-.027.027c-.056.06-.111.123-.163.188l-.03.04a2.864 2.864 0 00-.148.206l-.025.035c-.056.086-.11.173-.16.262-.478.819-1.236 1.308-1.911 1.31-.675-.002-1.434-.491-1.91-1.31a5.395 5.395 0 00-.158-.258l-.032-.045a5.338 5.338 0 00-.14-.198 3.808 3.808 0 00-.194-.23c-.012-.007-.02-.019-.03-.028a1.97 1.97 0 00-.908-.539l.17-.097h.007l.67-.388.687-.393 1.834.998.004-.004.005.004 1.834-.998.687.393zm2.636 2.77c-.15.395-.274.822-.274 1.246l.002 2.741c-.573-.095-.642-.712-.644-.739l-.01-.125-.124-.012a.876.876 0 01-.553-.263c-.282-.281-.282-.736-.282-.74-.004.023-.309.45.045.916.15.197.366.32.645.367.066.341.321.825.923.899v1.34H20.37c-.78-.433-.45-1.196-.434-1.229l.066-.145-.15-.056c-.845-.313-.612-1.155-.6-1.191l.034-.123-.116-.054c-.697-.323-.603-1.193-.593-1.23-.215.175-.293.528-.145.877-.08.091-.187.201-.304.322a.95.95 0 01-.746-.878l-.001-.102-.096-.036c-.281-.104-.475-.261-.571-.471a.926.926 0 01-.04-.594c.162.033.327.05.493.052h.011c.084 0 .167-.005.248-.013.451-.045.954-.238 1.48-.758h3.428zM20.221 24.76l.189-.983.03-.181c.117.045.241.07.366.072.288 0 .456-.153.568-.281l.144-.17-.118-.184c-.01-.018-.273-.433-.474-.716a3.795 3.795 0 01-.115-.171c-.23-.343-.517-.772-1.093-.772l-.051.001a.847.847 0 00-.243.05 1.315 1.315 0 00-.561-.128 1.747 1.747 0 00-.572.11c-.038.012-.072.024-.1.029l-1.075-.106a.307.307 0 01-.11-.091v-.006l.232-.093c-.065-.774-.81-1.25-1.225-1.413a.435.435 0 00-.121-.218l-.23-.218-.204.243-.1.124-1.506-.618.98 1.229-.386.585c-.143.15.014.3.014.3l.4.276.414-.155c.014 0 .026.004.04.005-.02.063-.046.31-.063.378l-.719-.14-.754.425a.89.89 0 00-.298 1.079l.084.183.118.259.265-.11c.004-.001.008-.002.01-.005-.095.304-.056.592.113.781l.16.202.214.27.234-.252c.07-.07.293-.32.362-.534l.05-.163-.114-.125-.019-.024.128-.212.939.222.211.048.113-.186.06-.1c.012-.022.015-.025.058-.025a.4.4 0 01.102.012c.32.063.645.096.972.1.28 0 .449-.011.648-.078 0 0 .504.571.521.593l-.308.952-.014.057c-.584.047-.868.175-1.213.518-.499-.494-.852-.547-2.193-.547-1.607 0-2.696-.94-2.696-2.443v-3.673h9.778l.001 3.673c0 1.218-.716 2.068-1.843 2.345zm-6.023-2.077l.051.128c-.034.11-.416.268-.416.268l-.081-.181a.599.599 0 01.197-.714l.618-.376.656.138c-.013.208.112.364.112.364l-.687-.131-.412.283c-.069.049-.074.139-.038.221zm5.919 1.038l-.21 1.1a4.09 4.09 0 01-.424.034l.222-1.055c.066-.315-.777-.413-1.194-1.03-.204.23-.586.297-.971.297-.352 0-.703-.056-.917-.098a1.01 1.01 0 00-.156-.015c-.124 0-.236.038-.314.169l-.06.104-1.15-.271-.287.473c-.04.077-.043.14.022.213l.078.084c-.054.167-.293.42-.293.42l-.171-.213c-.135-.15-.113-.427.028-.683l.456-.77.974.141-.151-.345c-.204-.455.107-1.035.14-1.368-.012.1-.105.123-.212.123-.099 0-.208-.018-.281-.018-.029 0-.054.003-.067.012l-.264.16-.208-.183c-.025-.035-.033-.119.028-.18l.482-.54-.569-.664.796.4.244-.295c.067.066.037.236.037.236.25.007.947.392.984 1.291a.97.97 0 01.002.088l.019.03c.05.068.185.242.358.257l1.101.11h.004c.122 0 .362-.143.67-.143.169 0 .355.044.555.169 0 0 .1-.08.263-.088.012-.002.026-.002.037-.002.494 0 .7.446.965.817.2.282.466.7.466.7-.098.117-.19.182-.344.182a.708.708 0 01-.142-.014c-.529-.098-.606-1.184-.908-1.27a.185.185 0 00-.048-.007c-.098 0-.14.087-.14.087.139.37.057.52.206.806.111.212.308.386.39.469 0 0-.022.16-.046.281zm-1.014 1.141c-.147 0-.284.002-.408.007l.323-1.003c.05-.14-.205-.319-.31-.476.16.1.571.32.77.406-.129.354-.254.71-.375 1.066zm-4.797-9.045l.046-1.745.392-.414.246.515-.486 1.675-.2-.03.002-.001zm.282.54c.06.114.15.21.26.275a3.18 3.18 0 01-.048.494 1.294 1.294 0 01-.029.11c-.005.022-.012.04-.016.055-.12 0-.356-.015-.547-.085-.214-.078-.532-.469-.458-.9.092-.055.305-.175.505-.175.154 0 .259.072.333.227zm4.54.47c-.3.222-1.078.788-1.36.985l-2.712-.488.019-.071c.035-.141.072-.333.074-.559l2.28.037.043-.044c.034-.034.757-.732 1.125-1.132.087.11.196.213.34.305a1.32 1.32 0 00.191.966zm-3.688-4.011c.327.323.645.524.949.635-.04.156-.091.48.054.8.12.26.337.458.65.591.035.32.237.802.798 1.015-.246.247-.486.48-.581.574l-2.276-.036a.408.408 0 01-.178-.166c-.005-.011-.012-.017-.018-.03l.372.061.024.001a.147.147 0 00.12-.233.15.15 0 00-.097-.06l-.457-.072.507-1.748-.48-1.009-.77.813-.046 1.816-.517-.082a.149.149 0 00-.17.124.15.15 0 00.123.17l.217.033a1.55 1.55 0 00-.135.084l-.043.031-.013.054c-.125.51.16.994.466 1.21l-.011.065a.289.289 0 00.052.219.286.286 0 00.238.123.292.292 0 00.282-.227c.115.013.22.017.29.017h.062l2.984.538.051-.034a126.68 126.68 0 001.442-1.044 1.3 1.3 0 00.283.187c-.096.322-.102.818.278 1.21h-7.606v-4.384c0-.425-.124-.852-.271-1.246h3.427zM15.03 6.2l1.984.672v3.115l-1.461-.77-.524-3.018V6.2zm4.841-.376c0-.76-1.28-1.444-2.694-1.444h-.009c-1.413 0-2.693.684-2.693 1.444l.028.187.564 3.236-.567.329-1.466.856h.005s-.33.17-.483.273c-.559.387-.677.953-.353 1.186.08-.46.445-.942 1.127-.942.493 0 .867.254 1.17.634.079.096.153.199.221.308.085.14.17.262.255.38h-3.78c.278.558.543 1.148.543 1.79v8.354c0 2.021 1.556 2.986 3.24 2.986 1.302 0 1.477-.059 2.195.656.715-.715.89-.656 2.193-.656 1.685 0 3.24-.965 3.24-2.986v-8.354c0-.642.264-1.232.543-1.79h-3.78c.084-.118.17-.24.254-.38.07-.11.143-.212.22-.308.305-.382.68-.634 1.172-.634.682 0 1.047.482 1.127.942.325-.233.208-.799-.355-1.186-.15-.104-.48-.273-.48-.273h.005l-1.47-.856-.563-.329.564-3.236.027-.187zM4.486 9.773c.305-.314.627-.409.904-.409.427 0 .75.227.75.227-1.153.614-1.39 1.598-2.05 1.82a.995.995 0 01-.333.055c-.485 0-.954-.313-1.114-.67 0 0 .888-.055 1.843-1.023zm-.73 2.087c.16 0 .314-.024.462-.074.413-.137.676-.464.954-.807.283-.348.602-.743 1.156-1.037l.569-.306-.53-.371c-.043-.027-.44-.294-.977-.294-.44 0-.85.179-1.187.523-.821.838-1.557.905-1.584.906l-.573.034.235.524c.237.523.858.902 1.476.902zm2.587 4.586c-.06-1.488.321-2.694.92-3.689-.333 1.036-.288 2.304.85 3.489 0 0-2.262-2.707.899-5.479 1.264-1.056 2.647-1.707 3.358-2.17-2.572.84-3.828-.084-3.828-.084.821.712 1.885.7 2.545.597-.179.087-.366.178-.566.286-2.17 1.177-4.118 3.114-4.453 5.796v-.02c-.504 2.634-1.626 3.31-1.626 3.31.893-.44 1.455-1.608 1.592-2.028.15 2.315 1.28 3.921 2.601 5.468.687.802.928 1.581.928 1.581s-.133-.883-.729-1.601c-1.231-1.481-2.404-3.325-2.49-5.456zm10.086-5.428v.533c.184-.224.538-.178.538-.178v.767s-.011.377-.146.54h.768c-.133-.163-.146-.54-.146-.54v-.767s.355-.046.538.178v-.533h-1.553.001zm-.33-3.153c.246.194.388.227.393.23l.095.044v-.5l-.902-.38s.008.29.415.606zm2.146 0c.408-.315.416-.606.416-.606l-.902.38v.5l.095-.044c.004-.003.146-.036.391-.23zm10.712 1.5c.276 0 .599.094.902.408.956.968 1.845 1.023 1.845 1.023-.162.357-.63.67-1.114.67-.112 0-.226-.017-.336-.055-.658-.222-.893-1.207-2.048-1.82 0 0 .321-.226.752-.226zm-.939.576c.553.294.875.689 1.158 1.038.277.341.54.67.954.807.146.05.3.074.46.074.618 0 1.24-.379 1.475-.903l.237-.524-.573-.034c-.027 0-.765-.068-1.585-.905-.338-.345-.747-.524-1.187-.524-.537 0-.936.268-.98.295l-.527.371.568.305zm.26 5.231v.02c-.333-2.682-2.283-4.619-4.454-5.796a13.689 13.689 0 00-.565-.285c.66.102 1.724.114 2.546-.597 0 0-1.257.923-3.83.084.711.462 2.096 1.114 3.36 2.168 3.16 2.774.9 5.479.9 5.479 1.136-1.184 1.182-2.452.848-3.487.598.994.98 2.2.92 3.689-.086 2.13-1.26 3.974-2.493 5.456-.594.717-.725 1.6-.725 1.6s.239-.778.925-1.58c1.322-1.547 2.454-3.153 2.601-5.468.137.42.701 1.588 1.594 2.028 0 0-1.123-.676-1.627-3.31zM11.09 25.32c-3.292 0-3.208-2.82-3.208-2.82s-.23.835-1.147 1.052a1.354 1.354 0 01-.343.041c-.295 0-.551-.07-.551-.07s.48-1.012.001-2.43c-.393-1.175-.33-2.048-.33-2.048s-.442.67-1.543.677h-.011a1.547 1.547 0 01-1.315-.694c2.194-.91 1.98-3.848 1.98-3.848s-.287.213-.842.234h-.058c-1.21 0-1.62-1.294-1.62-1.294h.024c.224 0 2.02-.052 3.29-1.666.837-1.061 1.524-1.994 2.876-2.36l.136-.025.029-.136c.038-.205-.104-.4-.425-.608-1.87-1.223-.6-2.782-.6-2.782S7.963 7.79 9.16 7.79h.087c.135-.008.268-.014.399-.041l.22-.043s-.342-.925.482-1.774a2.484 2.484 0 012.163-.722c-.411.539-.71 1.434-.235 1.985.413.475 1.418.497 1.418 1.204 0 .3-.28.65-.782.963-1.513.951-3.014 2.213-3.639 3.905-.778 2.11.1 3.51 1.356 4.315 0 0-.395.361-.966.407a3.6 3.6 0 01-.336.017c-1.204 0-1.826-.564-1.826-.564s.104.779.726 1.504c.581.667 1.34 1.06 2.498 1.077 0 0 .037.536-.475 1.001-.329.294-1.086.39-1.086.39s1.42.286 1.576 2.379c.085 1.134.373 1.527.373 1.527h-.024zm.35-.225c-.001-.004-.231-.363-.305-1.332-.086-1.16-.525-1.838-.96-2.227a1.37 1.37 0 00.34-.22c.638-.573.61-1.245.606-1.32l-.024-.363-.365-.005c-.973-.016-1.652-.306-2.203-.944a2.961 2.961 0 01-.315-.445 3.8 3.8 0 001.114.161c.117 0 .24-.007.37-.015a2.184 2.184 0 001.199-.51l.379-.35-.432-.276c-.968-.618-1.957-1.79-1.197-3.845.492-1.335 1.629-2.545 3.477-3.706.625-.393.966-.857.966-1.3 0-.684-.572-.954-.992-1.147-.204-.097-.418-.194-.52-.314-.326-.377-.053-1.097.25-1.488l.387-.505-.627-.124c-.018-.003-.182-.033-.434-.033-.467 0-1.361.113-2.09.868-.608.628-.687 1.296-.656 1.728a3.907 3.907 0 01-.18.01H9.16c-.916 0-1.348-.968-1.364-1.005l-.258-.606-.416.51c-.024.032-.633.789-.484 1.74.098.63.495 1.175 1.177 1.623.074.048.125.088.163.122-1.287.418-2.004 1.333-2.762 2.296l-.11.136a3.984 3.984 0 01-2.994 1.517l-.558-.018.17.531c.02.064.514 1.571 1.998 1.571l.07-.002a2.57 2.57 0 00.424-.05c-.06.821-.364 2.34-1.728 2.905l-.416.173.226.391c.02.036.527.89 1.673.89.41.003.816-.092 1.181-.277.045.371.137.848.315 1.381.415 1.233.029 2.099.014 2.133l-.205.43.463.123c.03.008.315.08.652.08.463 0 .91-.164 1.262-.464.126.386.342.823.716 1.21.636.652 1.551.982 2.746.982l.724-.01-.4-.61zm3.976-4.76a.102.102 0 00-.074.024.1.1 0 00-.033.07.097.097 0 00.094.105.102.102 0 00.108-.092.101.101 0 00-.095-.107zm4.531 7.704l-.446-1.228c.531-.162 1.444-.51 1.855-.74l-.274.893.926.307c-.56.28-1.238.542-2.06.767zm-2.773 1.102c-1.076 0-2.304-.247-2.666-.376l.55-1.485c.456.133 1.404.274 2.094.27h.043c.689.004 1.636-.138 2.095-.27l.549 1.485c-.362.13-1.59.376-2.665.376zm-4.835-1.87l.926-.307-.274-.893c.408.23 1.324.58 1.854.74l-.447 1.228c-.819-.225-1.5-.488-2.06-.768zm9.71-.272l-.563-.216.156-.581.17-.634s-.996.541-2.404.947c-.399.114-.7.166-.7.166v.432s-.753.13-1.513.13h-.043c-.762 0-1.513-.13-1.513-.13v-.432s-.302-.052-.701-.166c-1.406-.407-2.403-.947-2.403-.947l.168.634.16.58-.566.217-.627.233c.718.347 1.714.851 2.624 1.1l-.214.586s1.155.526 3.08.531v.001h.026c1.927-.006 3.082-.532 3.082-.532l-.217-.586c.911-.249 1.909-.752 2.623-1.1L22.05 27zM14.823 3.345l.255.028.11-.234.323-.689.598.31.233.118.83-.823.648.64.186.183.232-.118.595-.31.328.69.108.233.256-.028.245-.029a5.893 5.893 0 00-.254.69c-.646-.36-1.486-.564-2.343-.564-.853 0-1.692.204-2.34.564a5.899 5.899 0 00-.254-.69l.243.029zm2.35.456c1.147 0 2.063.38 2.57.784 0 0 .152-.905.665-1.704l-.924.104L19 1.961l-.927.478-.901-.89-.898.89-.93-.478-.482 1.025-.923-.105c.514.799.664 1.703.664 1.703.51-.404 1.424-.783 2.569-.783zm14.532 15.226s-.4.695-1.315.695h-.011c-1.1-.007-1.544-.677-1.544-.677s.064.871-.33 2.048c-.478 1.418.003 2.43.003 2.43s-.257.07-.553.07a1.36 1.36 0 01-.342-.041c-.919-.217-1.148-1.052-1.148-1.052s.085 2.82-3.207 2.82h-.026s.29-.394.376-1.529c.156-2.092 1.575-2.38 1.575-2.38s-.757-.095-1.086-.388c-.512-.464-.477-1.001-.477-1.001 1.159-.017 1.918-.41 2.497-1.078.373-.428.624-.947.728-1.504 0 0-.622.564-1.827.564-.106 0-.218-.005-.335-.016a1.77 1.77 0 01-.964-.408c1.254-.803 2.133-2.205 1.354-4.315-.625-1.69-2.127-2.953-3.638-3.904-.503-.314-.784-.664-.784-.964 0-.706 1.006-.728 1.419-1.203.477-.552.178-1.447-.235-1.985 0 0 .139-.029.358-.029.435 0 1.188.11 1.807.75.821.85.48 1.775.48 1.775l.22.043c.133.027.264.033.4.04h.088c1.194 0 1.728-1.246 1.728-1.246s1.27 1.56-.6 2.782c-.321.209-.463.403-.426.609l.03.136.132.023c1.355.368 2.04 1.301 2.877 2.361a4.383 4.383 0 003.291 1.667h.025s-.41 1.294-1.62 1.294c-.02 0-.038 0-.057-.002-.555-.02-.842-.232-.842-.232s-.216 2.937 1.98 3.847h-.001zm-1.08-3.217c1.482 0 1.978-1.507 1.999-1.571l.165-.532-.555.018h-.002a3.979 3.979 0 01-2.992-1.516l-.11-.137c-.758-.962-1.477-1.878-2.762-2.295.052-.045.107-.086.164-.122.682-.448 1.079-.992 1.178-1.624.146-.95-.462-1.708-.488-1.739l-.412-.51-.259.605c-.017.037-.45 1.006-1.363 1.006h-.068a3.96 3.96 0 01-.18-.01c.031-.433-.048-1.1-.655-1.728-.729-.755-1.624-.868-2.092-.868-.25 0-.416.03-.434.033l-.624.123.384.506c.302.39.576 1.111.252 1.487-.104.121-.318.217-.521.315-.42.193-.994.463-.994 1.146 0 .443.344.907.968 1.3 1.846 1.16 2.985 2.37 3.477 3.707.761 2.054-.232 3.227-1.197 3.844l-.432.277.38.348c.05.045.513.452 1.197.511.13.009.254.016.37.016.438 0 .812-.07 1.115-.161-.09.158-.196.306-.315.444-.551.638-1.23.929-2.205.944l-.362.006-.028.363c-.003.073-.03.747.607 1.32.098.087.216.16.34.22-.434.389-.872 1.067-.957 2.227-.072.968-.304 1.327-.306 1.331l-.401.61.724.01c1.196 0 2.111-.328 2.745-.982.329-.343.574-.757.717-1.21.352.3.8.464 1.262.464.338 0 .621-.072.652-.079l.463-.122-.204-.431c-.016-.035-.4-.9.014-2.133.178-.534.27-1.01.314-1.384.291.153.68.277 1.184.279 1.145 0 1.649-.854 1.671-.889l.226-.393-.418-.17c-1.364-.566-1.665-2.084-1.726-2.906.124.023.265.045.423.05l.07.002zm13.53 3.939h2.601v-6.035h3.573v-2.196h-9.747v2.196h3.573v6.035zm14.066-8.232l-4.336 4.79v-4.79H51.37v8.232h2.22l4.336-4.79v4.79h2.514v-8.232h-2.22zm6.64 5.17h4.04v3.062h2.515v-8.232h-2.515v3.01h-4.04v-3.01h-2.516v8.232h2.515v-3.061zm13.558 3.062c.573 0 1.093-.052 1.579-.19 1.3-.364 2.15-1.419 2.15-2.854 0-1.366-.728-2.317-1.89-2.75-.555-.207-1.214-.224-1.839-.224h-2.584v-2.214H73.32v8.232h5.1zm-2.584-4.081h2.15c.348 0 .677 0 .972.103.416.139.66.485.66.9 0 .432-.244.795-.643.968-.277.121-.555.121-.988.121h-2.15v-2.092zm10.129.968h.694l3 3.113h3.347l-4.18-4.289 4.024-3.942h-3.156l-3.035 3.095h-.694v-3.095h-2.515v8.231h2.515v-3.113zm12.216-5.343c-3.382 0-5.411 1.902-5.411 4.357 0 2.456 2.029 4.358 5.41 4.358 3.365 0 5.394-1.902 5.394-4.358 0-2.455-2.029-4.357-5.393-4.357zm0 6.71c-1.683 0-2.758-1.004-2.758-2.353 0-1.348 1.075-2.334 2.758-2.334 1.665 0 2.757.986 2.757 2.334 0 1.35-1.092 2.352-2.757 2.352zm13.769-6.122v-.83h-2.515v.83c-3.157.069-5.047 1.4-5.047 3.752s1.89 3.58 5.047 3.649v.83h2.515v-.83c3.173-.07 5.064-1.297 5.064-3.649 0-2.352-1.89-3.683-5.064-3.752zm-2.515 5.637c-1.734-.07-2.498-.778-2.498-1.885s.764-1.902 2.498-1.971v3.856zm2.515 0V13.66c1.751.07 2.497.865 2.497 1.972s-.746 1.816-2.497 1.885zm13.43-5.637v-.83h-2.514v.83c-3.157.069-5.047 1.4-5.047 3.752s1.89 3.58 5.047 3.649v.83h2.514v-.83c3.174-.07 5.065-1.297 5.065-3.649 0-2.352-1.891-3.683-5.065-3.752zm-2.514 5.637c-1.735-.07-2.498-.778-2.498-1.885s.763-1.902 2.498-1.971v3.856zm2.514 0V13.66c1.752.07 2.498.865 2.498 1.972s-.746 1.816-2.498 1.885z" fill="#fff"/></svg>