<svg width="53" height="47" fill="none" xmlns="http://www.w3.org/2000/svg"><g clip-path="url(#clip0_63_8675)" fill-rule="evenodd" clip-rule="evenodd"><path d="M9.703.23L.04 20.925a.408.408 0 00.084.468l26.1 25.495a.394.394 0 00.55 0l26.1-25.494a.404.404 0 00.084-.468L43.296.232A.396.396 0 0042.939 0H10.063a.385.385 0 00-.36.23z" fill="#50AF95"/><path d="M29.853 23.049c-.188.014-1.156.073-3.315.073-1.718 0-2.937-.053-3.365-.073-6.638-.298-11.592-1.476-11.592-2.886 0-1.41 4.954-2.587 11.592-2.89v4.603a49.09 49.09 0 003.394.106c2.061 0 3.093-.087 3.28-.105v-4.6c6.623.3 11.566 1.479 11.566 2.886s-4.941 2.585-11.567 2.884l.007.002zm0-6.248v-4.118h9.243v-6.28H13.93v6.28h9.242V16.8c-7.512.352-13.161 1.87-13.161 3.687 0 1.818 5.65 3.333 13.161 3.686v13.196h6.68v-13.2c7.495-.352 13.135-1.867 13.135-3.684 0-1.816-5.635-3.331-13.135-3.685l.002.002z" fill="#fff"/></g><defs><clipPath id="clip0_63_8675"><path fill="#fff" d="M0 0h53v47H0z"/></clipPath></defs></svg>