<svg width="76" height="100" fill="none" xmlns="http://www.w3.org/2000/svg"><g clip-path="url(#clip0_63_8598)"><path d="M33.333 66.266c-1.59 0-2.975.653-3.874 1.737-.9 1.083-1.33 2.534-1.33 4.13 0 1.594.43 3.045 1.33 4.129.9 1.083 2.284 1.736 3.874 1.736 1.59 0 2.974-.653 3.873-1.737.9-1.083 1.33-2.534 1.33-4.129 0-1.595-.43-3.046-1.33-4.13-.899-1.082-2.284-1.736-3.873-1.736zm19.268.152h-.009l-.012.001a1.018 1.018 0 00-.598.214.998.998 0 00-.35.525l-3.862 9.26a.988.988 0 00.213 1.098 1.012 1.012 0 001.11.214 1.011 1.011 0 00.544-.551l.804-1.927h4.341l.066.158.738 1.769a1 1 0 00.544.551 1.02 1.02 0 001.11-.214.998.998 0 00.295-.714.99.99 0 00-.082-.385l-.738-1.769-3.126-7.496a.999.999 0 00-.357-.525 1.017 1.017 0 00-.631-.209zm-26.493.017a1.019 1.019 0 00-.892.508l-2.56 4.347-2.557-4.344a1.005 1.005 0 00-.923-.507 1.018 1.018 0 00-.846.524.99.99 0 00.023.988l3.294 5.594v3.293c0 .26.101.511.285.698a1.015 1.015 0 001.409.04.994.994 0 00.327-.74v-3.294l3.293-5.594a.99.99 0 00-.348-1.373 1.019 1.019 0 00-.505-.14zm14.179.026a1.019 1.019 0 00-.724.287.997.997 0 00-.223 1.097.997.997 0 00.556.541c.124.05.257.074.39.072h2.379l.009 8.313a.991.991 0 00.291.715 1.01 1.01 0 00.72.297 1.02 1.02 0 00.719-.298.997.997 0 00.29-.716l-.01-8.31h2.413a1.02 1.02 0 00.723-.288.998.998 0 00.301-.711.989.989 0 00-.3-.712 1.013 1.013 0 00-.724-.287h-6.81zm-6.955 1.803c1.069 0 1.78.364 2.313 1.006.533.642.87 1.624.87 2.862s-.337 2.22-.87 2.862c-.533.642-1.245 1.007-2.313 1.007s-1.78-.365-2.312-1.007c-.533-.642-.871-1.624-.871-2.862s.338-2.22.87-2.862c.534-.642 1.245-1.006 2.313-1.006zm19.28 1.783l1.338 3.208h-2.676l1.338-3.208z" fill="#fff"/><path d="M45.8 34.315a11.042 11.042 0 003.213-7.8v-2.139c0-1.342-1.1-2.43-2.458-2.43-1.36 0-2.46 1.088-2.46 2.43v2.139c0 1.73-.69 3.268-1.804 4.392a6.025 6.025 0 01-4.3 1.797 6.028 6.028 0 01-4.302-1.797 6.204 6.204 0 01-1.803-4.392v-2.139c0-1.342-1.1-2.43-2.458-2.43s-2.46 1.088-2.46 2.43v2.139a11.048 11.048 0 008.563 10.776v5.117a10.993 10.993 0 00-5.35 2.977 11.044 11.044 0 00-3.212 7.8v2.138c0 1.342 1.101 2.43 2.459 2.43 1.357 0 2.458-1.088 2.458-2.43v-2.138c0-1.73.692-3.27 1.803-4.392a6.032 6.032 0 014.302-1.799 6.029 6.029 0 014.3 1.799 6.201 6.201 0 011.805 4.392v2.138c0 1.342 1.099 2.43 2.459 2.43 1.357 0 2.458-1.088 2.458-2.43v-2.138a11.039 11.039 0 00-3.213-7.8 10.992 10.992 0 00-5.35-2.977v-5.117a10.998 10.998 0 005.35-2.976z" fill="#FFFFF7"/><path d="M37.992 57.242c2.351 0 4.257-1.883 4.257-4.21 0-2.326-1.906-4.21-4.257-4.21-2.352 0-4.258 1.884-4.258 4.21 0 2.327 1.906 4.21 4.258 4.21z" fill="#FFFFF7"/></g><defs><clipPath id="clip0_63_8598"><path fill="#fff" d="M0 0h76v100H0z"/></clipPath></defs></svg>