<svg width="31" height="35" viewBox="0 0 31 35" fill="none" xmlns="http://www.w3.org/2000/svg">
<path fill-rule="evenodd" clip-rule="evenodd" d="M20.8741 5.58752C22.1499 4.10879 23.01 2.04921 22.7746 0C20.936 0.07 18.7116 1.17451 17.3933 2.65149C16.2094 3.96222 15.176 6.05657 15.4538 8.06555C17.5047 8.21778 19.5982 7.06799 20.8741 5.58752ZM25.4732 18.5937C25.5245 23.8909 30.3219 25.653 30.375 25.6758C30.3361 25.8 29.6088 28.1866 27.848 30.654C26.3244 32.7855 24.7442 34.9084 22.2543 34.9539C19.8088 34.9976 19.0213 33.5644 16.2236 33.5644C13.4276 33.5644 12.5534 34.9082 10.2388 34.9974C7.83569 35.0832 6.00416 32.6914 4.46992 30.5669C1.33066 26.2217 -1.06714 18.2876 2.15352 12.9327C3.75324 10.2745 6.61113 8.58863 9.71499 8.54663C12.0739 8.50288 14.3018 10.0676 15.744 10.0676C17.1862 10.0676 19.8937 8.18639 22.7392 8.46289C23.9301 8.51014 27.2747 8.92299 29.4212 11.9347C29.2478 12.0379 25.4308 14.1663 25.4732 18.5937Z" fill="#FFFFFF"/>
</svg>
