<svg width="49" height="49" viewBox="0 0 49 49" fill="none" xmlns="http://www.w3.org/2000/svg">
<path d="M31.115 4.08325H23.1643C19.5624 4.08323 16.7094 4.08319 14.4765 4.3846C12.1786 4.69479 10.3186 5.34835 8.85183 6.82105C7.38506 8.29372 6.73409 10.1611 6.42515 12.4683C6.12494 14.7101 6.12498 17.5746 6.125 21.191V33.1094C6.125 36.1885 8.00323 38.8271 10.6721 39.9333C10.5348 38.0766 10.5349 35.4712 10.535 33.3036V23.27V23.0756C10.5349 20.4588 10.5347 18.2043 10.7765 16.3988C11.0356 14.4639 11.6199 12.6091 13.1183 11.1047C14.6167 9.60022 16.4641 9.01357 18.3913 8.75342C20.1896 8.51069 22.4353 8.51081 25.0415 8.51095L25.235 8.51097H31.115L31.3085 8.51095C33.9147 8.51081 36.1555 8.51069 37.9538 8.75342C36.878 6.01832 34.2216 4.08325 31.115 4.08325Z" fill="#5C6CFF"/>
<path d="M13.4751 23.2696C13.4751 17.7036 13.4751 14.9207 15.1973 13.1915C16.9195 11.4624 19.6914 11.4624 25.2351 11.4624H31.1151C36.6588 11.4624 39.4306 11.4624 41.153 13.1915C42.8751 14.9207 42.8751 17.7037 42.8751 23.2696V33.109C42.8751 38.675 42.8751 41.458 41.153 43.1871C39.4306 44.9162 36.6588 44.9162 31.1151 44.9162H25.2351C19.6914 44.9162 16.9195 44.9162 15.1973 43.1871C13.4751 41.458 13.4751 38.675 13.4751 33.109V23.2696Z" fill="#5CB1FF"/>
</svg>
