<svg width="50" height="50" viewBox="0 0 50 50" fill="none" xmlns="http://www.w3.org/2000/svg">
<g clip-path="url(#clip0_72_8)">
<path d="M9.68726 2.1875C9.8328 1.99344 10.0215 1.83594 10.2385 1.72746C10.4554 1.61898 10.6947 1.5625 10.9373 1.5625H39.0623C39.3048 1.5625 39.5441 1.61898 39.761 1.72746C39.978 1.83594 40.1667 1.99344 40.3123 2.1875L49.6123 14.6062C50.0779 15.1844 50.0998 16.0125 49.6435 16.6187L26.2498 47.8125C26.1042 48.0066 25.9155 48.1641 25.6985 48.2725C25.4816 48.381 25.2423 48.4375 24.9998 48.4375C24.7572 48.4375 24.5179 48.381 24.301 48.2725C24.084 48.1641 23.8953 48.0066 23.7498 47.8125L0.312256 16.5625C0.109409 16.292 -0.000244141 15.9631 -0.000244141 15.625C-0.000244141 15.2869 0.109409 14.958 0.312256 14.6875L9.68726 2.1875ZM45.2685 14.0156L39.6248 6.48438L37.1998 14.025L45.2685 14.0156ZM33.9154 14.0281L36.9185 4.6875H13.081L16.0904 14.0469L33.9154 14.0281ZM17.0935 17.1719L24.9998 41.7687L32.9123 17.1562L17.0935 17.1719ZM12.8091 14.05L10.3716 6.48125L4.69038 14.0594L12.8091 14.05ZM4.68413 17.1875L20.6623 38.4906L13.8123 17.1781L4.68726 17.1875H4.68413ZM29.3373 38.4906L45.3466 17.1469L36.1966 17.1531L29.3373 38.4906Z" fill="white"/>
</g>
<defs>
<clipPath id="clip0_72_8">
<rect width="50" height="50" fill="white" transform="translate(-0.000244141)"/>
</clipPath>
</defs>
</svg>
