<svg width="50" height="50" viewBox="0 0 50 50" fill="none" xmlns="http://www.w3.org/2000/svg">
<path opacity="0.5" fill-rule="evenodd" clip-rule="evenodd" d="M6.25 29.6875C7.11294 29.6875 7.8125 30.3871 7.8125 31.25C7.8125 34.2404 7.81581 36.326 8.0274 37.8998C8.23292 39.4285 8.60885 40.2379 9.18544 40.8146C9.76202 41.3912 10.5716 41.7671 12.1003 41.9727C13.6739 42.1842 15.7596 42.1875 18.75 42.1875H31.25C34.2404 42.1875 36.326 42.1842 37.8998 41.9727C39.4285 41.7671 40.2379 41.3912 40.8146 40.8146C41.3912 40.2379 41.7671 39.4285 41.9727 37.8998C42.1842 36.326 42.1875 34.2404 42.1875 31.25C42.1875 30.3871 42.8871 29.6875 43.75 29.6875C44.6129 29.6875 45.3125 30.3871 45.3125 31.25V31.3644C45.3125 34.2135 45.3125 36.51 45.0698 38.3162C44.8177 40.1915 44.2783 41.7702 43.0244 43.0242C41.7702 44.2783 40.1915 44.8177 38.3162 45.0698C36.51 45.3125 34.2135 45.3125 31.3644 45.3125H18.6357C15.7865 45.3125 13.49 45.3125 11.6839 45.0698C9.80863 44.8177 8.22973 44.2783 6.97573 43.0244C5.72173 41.7702 5.18238 40.1915 4.93025 38.3162C4.68742 36.51 4.68746 34.2135 4.6875 31.3644C4.6875 31.3263 4.6875 31.2881 4.6875 31.25C4.6875 30.3871 5.38706 29.6875 6.25 29.6875Z" fill="#FFFFFF"/>
<path fill-rule="evenodd" clip-rule="evenodd" d="M25 34.8958C25.4388 34.8958 25.8571 34.7115 26.1531 34.3877L34.4865 25.2731C35.0687 24.6362 35.0246 23.6479 34.3877 23.0656C33.7508 22.4833 32.7625 22.5275 32.1802 23.1644L26.5625 29.3087V6.25C26.5625 5.38706 25.8629 4.6875 25 4.6875C24.1371 4.6875 23.4375 5.38706 23.4375 6.25V29.3087L17.8199 23.1644C17.2376 22.5275 16.2492 22.4833 15.6124 23.0656C14.9755 23.6479 14.9312 24.6362 15.5135 25.2731L23.8469 34.3877C24.1429 34.7115 24.5612 34.8958 25 34.8958Z" fill="#FFFFFF"/>
</svg>
