<svg width="35" height="35" viewBox="0 0 35 35" fill="none" xmlns="http://www.w3.org/2000/svg">
<path d="M18.5938 15.8594L23.1875 10.9375L5.35937 1.3125C5.25 1.20313 5.03125 1.20312 4.70312 1.09375L18.5938 15.8594Z" fill="white"/>
<path d="M25.1563 22.9688L31.6094 19.4687C32.375 19.0312 32.8125 18.375 32.8125 17.5C32.8125 16.625 32.375 15.8594 31.6094 15.5312L25.1563 12.0312L20.0156 17.5L25.1563 22.9688Z" fill="white"/>
<path d="M2.625 2.07812C2.29688 2.40625 2.1875 2.84375 2.1875 3.28125V31.7188C2.1875 32.1562 2.29688 32.5938 2.625 33.0313L17.0625 17.5L2.625 2.07812Z" fill="white"/>
<path d="M18.5938 19.1406L4.70312 33.9062C4.92188 33.9062 5.14062 33.7969 5.35937 33.6875L23.1875 24.0625L18.5938 19.1406Z" fill="white"/>
</svg>
