<svg width="45" height="45" viewBox="0 0 45 45" fill="none" xmlns="http://www.w3.org/2000/svg">
<path d="M20.1919 25.4437C20.1919 25.4437 20.2448 25.4014 20.2236 25.3273C16.2954 16.7402 10.9377 10.2507 10.9377 10.2507C10.9377 10.2507 8.01645 13.0237 8.2261 15.7978C8.33939 17.9049 9.91492 19.1437 9.91492 19.1437C12.4625 21.6108 18.6142 24.7661 20.0542 25.4755C20.0542 25.4755 20.1495 25.4755 20.1919 25.4437ZM19.2389 27.5402C19.1966 27.4661 19.1013 27.4661 19.1013 27.4661L8.84975 27.8049C9.96363 29.7955 11.8377 31.3308 13.786 30.8861C15.1413 30.5473 18.1801 28.4084 19.186 27.6884C19.2707 27.6143 19.2389 27.5402 19.2389 27.5402ZM19.3872 26.6402C19.4401 26.5661 19.3448 26.492 19.3448 26.492C14.8448 23.4531 6.11798 18.7626 6.11798 18.7626C5.32281 21.2402 6.39116 23.2308 6.39116 23.2308C7.5061 25.5602 9.6301 26.2696 9.6301 26.2696C10.6095 26.6826 11.5836 26.7143 11.5836 26.7143C11.7425 26.7567 17.693 26.7143 19.2813 26.7143C19.3448 26.7143 19.3872 26.6402 19.3872 26.6402ZM23.4848 24.6178C23.5589 24.6496 23.633 24.5437 23.633 24.5437C24.6072 23.1143 29.033 16.5496 29.933 12.5367C29.933 12.5367 30.4201 10.5884 29.933 9.27444C29.933 9.27444 29.2977 6.79891 26.5554 6.12338C26.5554 6.12338 25.7719 5.93597 24.946 5.82373C24.946 5.82373 21.9072 9.7255 23.3683 24.5014L23.4001 24.5014C23.4001 24.6178 23.4848 24.6178 23.4848 24.6178ZM25.8777 27.4661C25.8777 27.4661 25.8036 27.4661 25.7719 27.5402C25.7719 27.5402 25.7719 27.6567 25.8036 27.6884C26.7777 28.4084 29.7848 30.4731 31.2036 30.8861C31.2036 30.8861 33.8719 31.7861 36.1589 27.8473L25.8777 27.4661ZM24.8295 25.4437C24.8295 25.4437 24.9036 25.4755 24.9777 25.4437C26.4389 24.7343 32.5589 21.6108 35.1107 19.1437C35.1107 19.1437 36.6883 17.8626 36.7942 15.7661C36.953 12.9178 34.0942 10.2507 34.0942 10.2507C34.0942 10.2507 28.7366 16.6978 24.7977 25.2955L24.8295 25.2955C24.8295 25.2955 24.7554 25.3696 24.8295 25.4437ZM38.8589 18.7626C38.2236 19.112 37.5672 19.4296 36.953 19.8214C36.1483 20.2449 35.3648 20.6896 34.5707 21.1343C33.226 21.8861 31.8919 22.659 30.5683 23.4426C30.0601 23.6967 29.5942 24.0249 29.0966 24.3108C28.8319 24.4802 27.9319 25.052 27.7307 25.1261C27.4025 25.4014 27.0001 25.5602 26.6719 25.8249C26.3119 25.9837 26.026 26.2802 25.6872 26.4602C25.4966 26.6402 25.7401 26.7355 25.9095 26.6826L33.8719 26.6826C35.206 26.4708 36.4977 25.899 37.4401 24.9143C37.8213 24.5226 38.1495 24.0673 38.4248 23.5908C38.7001 23.1249 38.8907 22.6061 39.0072 22.0873C39.0813 21.7908 39.1236 21.4837 39.166 21.1767C39.166 20.8484 39.2401 20.5308 39.166 20.2026C39.1766 19.9696 39.1448 19.7367 39.0813 19.5143C39.0283 19.2602 38.986 18.9531 38.8695 18.7626L38.8589 18.7626ZM21.5154 24.6178C21.4413 24.6496 21.3672 24.5437 21.3672 24.5437C20.393 23.1143 15.9777 16.5496 15.0777 12.5367C15.0777 12.5367 14.5907 10.5884 15.0777 9.27444C15.0777 9.27444 15.713 6.79891 18.4448 6.12338C18.4448 6.12338 19.2283 5.93597 20.0542 5.82373C20.0542 5.82373 23.093 9.7255 21.6319 24.5014L21.6001 24.5014C21.6001 24.6178 21.5154 24.6178 21.5154 24.6178ZM39.1977 39.1767L39.1977 33.8084L37.9272 33.8084L37.9272 39.1767L39.1977 39.1767ZM33.4589 35.979L36.8366 35.979L36.8366 36.9214L33.4589 36.9214C33.4589 37.8955 33.8719 38.2343 34.846 38.2343L36.8366 38.2343L36.8366 39.1767L34.7719 39.1767C34.0942 39.1767 33.533 39.1343 32.9719 38.7214C32.3683 38.2767 32.0719 37.5567 32.0719 36.5826C32.0719 34.7084 32.9295 33.8084 34.8142 33.8084L36.8366 33.8084L36.8366 34.7508L34.846 34.7508C33.946 34.7508 33.5013 35.1637 33.4589 35.979ZM24.0777 33.8084L25.433 37.9378L26.5554 33.8084L28.0166 33.8084L29.2977 37.9378L30.5683 33.8084L31.8072 33.8084L30.0072 39.1767L28.5036 39.1767L27.2648 35.1637L26.1848 39.1767L24.713 39.1767L22.7648 33.8084L24.0777 33.8084ZM21.0495 33.8084L23.5166 39.1767L22.1719 39.1767L21.6425 37.8955L19.1119 37.8955L18.593 39.1767L17.3013 39.1767L19.7577 33.8084L21.0495 33.8084ZM19.5036 36.9637L21.2295 36.9637L20.3507 34.899L19.5036 36.9637ZM13.2248 37.0378C13.2248 37.9696 13.5213 38.3826 14.5272 38.3826C15.5436 38.3826 15.8401 37.9696 15.8401 37.0378L15.8401 33.8084L17.0577 33.8084L17.0577 37.0696C17.0577 37.7473 16.973 38.2343 16.7189 38.499C16.2425 39.0178 15.5436 39.2508 14.5272 39.2508C13.5213 39.2508 12.8225 39.0178 12.346 38.499C12.0707 38.2026 12.0072 37.7473 12.0072 37.0696L12.0072 33.8084L13.2248 33.8084L13.2248 37.0378ZM9.78363 35.979L9.78363 33.8084L11.0013 33.8084L11.0013 39.1767L9.78363 39.1767L9.78363 36.9637L7.06034 36.9637L7.06034 39.1767L5.83634 39.1767L5.83634 33.8084L7.06034 33.8084L7.06034 35.979L9.78363 35.979Z" fill="white"/>
</svg>
