<svg width="55" height="55" viewBox="0 0 55 55" fill="none" xmlns="http://www.w3.org/2000/svg">
<path d="M31.6086 13.0078C30.3695 12.9964 29.2928 13.9951 29.2937 15.2987L29.2955 18.0838L23.4766 16.6385C23.2956 16.5935 23.1151 16.5709 22.9379 16.5694C21.6989 16.558 20.6221 17.5567 20.623 18.8604L20.6248 21.6347L14.8598 20.2001C13.4105 19.8401 12.0052 20.9346 12.0062 22.4214L12.0163 37.882C12.0172 39.1964 12.9121 40.3379 14.1891 40.6549L23.4023 42.9437C24.8516 43.3037 26.2569 42.2092 26.2559 40.7224L26.2458 25.2618C26.2452 24.3191 25.7829 23.4682 25.0537 22.9462C25.0421 22.9081 25.0447 22.8659 25.0684 22.8314C25.1087 22.7727 25.1814 22.7446 25.2493 22.765C26.4616 23.1306 27.6153 24.3688 27.7348 25.9309L28.1423 37.7281C28.1528 38.1235 28.4169 38.4606 28.7893 38.5842L32.022 39.3848C33.4713 39.7448 34.8766 38.6503 34.8756 37.1635C34.9104 32.062 34.896 26.8744 34.8939 21.7567C34.8935 21.0618 34.6583 20.5287 34.394 20.141C34.3512 20.0764 34.3062 20.0128 34.2582 19.9514C34.2005 19.8782 34.1374 19.8088 34.0727 19.7409C33.9762 19.6397 33.8733 19.5434 33.7622 19.4572L33.7601 19.4551C33.7144 19.4093 33.7013 19.3377 33.739 19.2839C33.7793 19.2251 33.852 19.197 33.9199 19.2175C35.1322 19.583 36.2912 20.8212 36.4054 22.3834L36.8128 34.1806C36.8233 34.5727 37.0848 34.9076 37.4544 35.0259L40.6925 35.8318C42.1419 36.1918 43.5472 35.0973 43.5462 33.6105L43.536 18.1499C43.5352 16.8355 42.6402 15.6941 41.3633 15.3771L32.1501 13.0883C31.969 13.0432 31.7885 13.0206 31.6113 13.0191L31.6086 13.0078Z" fill="white"/>
</svg>
