<svg width="50" height="50" viewBox="0 0 50 50" fill="none" xmlns="http://www.w3.org/2000/svg">
<path d="M42.1875 25.0001C41.7731 25.0001 41.3757 25.1648 41.0827 25.4578C40.7896 25.7508 40.625 26.1482 40.625 26.5626V31.2501C40.625 31.6645 40.7896 32.062 41.0827 32.355C41.3757 32.648 41.7731 32.8126 42.1875 32.8126C42.6019 32.8126 42.9994 32.648 43.2924 32.355C43.5854 32.062 43.75 31.6645 43.75 31.2501V26.5626C43.75 26.1482 43.5854 25.7508 43.2924 25.4578C42.9994 25.1648 42.6019 25.0001 42.1875 25.0001ZM43.0625 19.0158C42.9756 18.9563 42.881 18.909 42.7813 18.8751C42.688 18.8281 42.5878 18.7964 42.4844 18.7814C42.2334 18.7311 41.9738 18.7433 41.7286 18.8169C41.4834 18.8904 41.2601 19.0231 41.0782 19.2033C40.9333 19.3493 40.8188 19.5224 40.741 19.7128C40.6633 19.9032 40.6238 20.107 40.625 20.3126C40.625 20.727 40.7896 21.1245 41.0827 21.4175C41.3757 21.7105 41.7731 21.8751 42.1875 21.8751C42.6019 21.8751 42.9994 21.7105 43.2924 21.4175C43.5854 21.1245 43.75 20.727 43.75 20.3126C43.7443 19.8989 43.5824 19.5027 43.2969 19.2033L43.0625 19.0158Z" fill="#FFFFFF"/>
<path d="M39.0625 6.25H37.5C37.5 5.0068 37.0061 3.81451 36.1271 2.93544C35.248 2.05636 34.0557 1.5625 32.8125 1.5625H17.1875C15.9443 1.5625 14.752 2.05636 13.8729 2.93544C12.9939 3.81451 12.5 5.0068 12.5 6.25H10.9375C9.71566 6.24957 8.54193 6.72623 7.66636 7.57845C6.79079 8.43067 6.28258 9.59109 6.25 10.8125V43.875C6.28258 45.0964 6.79079 46.2568 7.66636 47.109C8.54193 47.9613 9.71566 48.4379 10.9375 48.4375H39.0625C40.2843 48.4379 41.4581 47.9613 42.3336 47.109C43.2092 46.2568 43.7174 45.0964 43.75 43.875V35.9375C43.75 35.5231 43.5854 35.1257 43.2924 34.8326C42.9993 34.5396 42.6019 34.375 42.1875 34.375C41.7731 34.375 41.3757 34.5396 41.0826 34.8326C40.7896 35.1257 40.625 35.5231 40.625 35.9375V43.875C40.5935 44.2674 40.4151 44.6334 40.1254 44.8999C39.8357 45.1664 39.4561 45.3138 39.0625 45.3125H10.9375C10.5439 45.3138 10.1643 45.1664 9.87459 44.8999C9.58491 44.6334 9.40649 44.2674 9.375 43.875V10.8125C9.40649 10.4201 9.58491 10.0541 9.87459 9.7876C10.1643 9.52109 10.5439 9.37374 10.9375 9.375H12.5C12.5 10.6182 12.9939 11.8105 13.8729 12.6896C14.752 13.5686 15.9443 14.0625 17.1875 14.0625H32.8125C34.0557 14.0625 35.248 13.5686 36.1271 12.6896C37.0061 11.8105 37.5 10.6182 37.5 9.375H39.0625C39.4561 9.37374 39.8357 9.52109 40.1254 9.7876C40.4151 10.0541 40.5935 10.4201 40.625 10.8125V14.0625C40.625 14.4769 40.7896 14.8743 41.0826 15.1674C41.3757 15.4604 41.7731 15.625 42.1875 15.625C42.6019 15.625 42.9993 15.4604 43.2924 15.1674C43.5854 14.8743 43.75 14.4769 43.75 14.0625V10.8125C43.7174 9.59109 43.2092 8.43067 42.3336 7.57845C41.4581 6.72623 40.2843 6.24957 39.0625 6.25ZM34.375 9.375C34.375 9.7894 34.2104 10.1868 33.9174 10.4799C33.6243 10.7729 33.2269 10.9375 32.8125 10.9375H17.1875C16.7731 10.9375 16.3757 10.7729 16.0826 10.4799C15.7896 10.1868 15.625 9.7894 15.625 9.375V6.25C15.625 5.8356 15.7896 5.43817 16.0826 5.14515C16.3757 4.85212 16.7731 4.6875 17.1875 4.6875H32.8125C33.2269 4.6875 33.6243 4.85212 33.9174 5.14515C34.2104 5.43817 34.375 5.8356 34.375 6.25V9.375Z" fill="#FFFFFF"/>
<path d="M34.7812 20.8283L21.875 35.2345L15.1719 28.5783C14.8729 28.3223 14.4885 28.1885 14.0952 28.2037C13.702 28.2189 13.3289 28.3819 13.0507 28.6602C12.7724 28.9385 12.6094 29.3115 12.5942 29.7047C12.579 30.098 12.7128 30.4825 12.9687 30.7814L20.7812 38.5939C21.0697 38.8883 21.4628 39.0568 21.875 39.0626C22.0877 39.0578 22.2973 39.0096 22.4907 38.9209C22.6842 38.8323 22.8575 38.705 23 38.547L37.0625 22.922C37.3401 22.6133 37.4838 22.2069 37.4618 21.7923C37.4398 21.3776 37.254 20.9887 36.9453 20.7111C36.6366 20.4334 36.2302 20.2898 35.8156 20.3118C35.4009 20.3337 35.012 20.5195 34.7344 20.8283H34.7812Z" fill="#FFFFFF"/>
</svg>
