<svg width="20" height="20" viewBox="0 0 20 20" fill="none" xmlns="http://www.w3.org/2000/svg">
<path fill-rule="evenodd" clip-rule="evenodd" d="M16.0058 5.17251C16.1576 5.01535 16.2416 4.80484 16.2397 4.58635C16.2378 4.36785 16.1502 4.15884 15.9957 4.00433C15.8412 3.84983 15.6321 3.76218 15.4137 3.76029C15.1952 3.75839 14.9847 3.84238 14.8275 3.99418L9.99999 8.82168L5.17249 3.99418C5.01532 3.84238 4.80482 3.75839 4.58632 3.76029C4.36782 3.76218 4.15881 3.84983 4.0043 4.00433C3.8498 4.15884 3.76216 4.36785 3.76026 4.58635C3.75836 4.80484 3.84235 5.01535 3.99415 5.17251L8.82165 10L3.99415 14.8275C3.91456 14.9044 3.85108 14.9963 3.8074 15.098C3.76373 15.1997 3.74074 15.309 3.73978 15.4197C3.73882 15.5303 3.7599 15.6401 3.8018 15.7425C3.8437 15.8449 3.90558 15.9379 3.98382 16.0162C4.06207 16.0944 4.15511 16.1563 4.25752 16.1982C4.35994 16.2401 4.46967 16.2612 4.58032 16.2602C4.69097 16.2593 4.80032 16.2363 4.90199 16.1926C5.00366 16.1489 5.09561 16.0854 5.17249 16.0058L9.99999 11.1783L14.8275 16.0058C14.9847 16.1576 15.1952 16.2416 15.4137 16.2397C15.6321 16.2378 15.8412 16.1502 15.9957 15.9957C16.1502 15.8412 16.2378 15.6322 16.2397 15.4137C16.2416 15.1952 16.1576 14.9847 16.0058 14.8275L11.1783 10L16.0058 5.17251Z" fill="#E75526"/>
</svg>
