<svg width="29" height="29" viewBox="0 0 29 29" fill="none" xmlns="http://www.w3.org/2000/svg">
<path d="M18.415 2.41666H13.7095C11.5778 2.41664 9.88922 2.41662 8.56774 2.59501C7.20772 2.77859 6.10694 3.16539 5.23884 4.03698C4.37075 4.90857 3.98548 6.01377 3.80264 7.37924C3.62496 8.70603 3.62499 10.4013 3.625 12.5416V19.5954C3.625 21.4177 4.73661 22.9793 6.31616 23.634C6.23487 22.5352 6.23493 20.9932 6.235 19.7103V13.7721V13.6571C6.23492 12.1083 6.23483 10.774 6.37792 9.70546C6.53127 8.56028 6.8771 7.46256 7.7639 6.57219C8.65071 5.6818 9.74405 5.3346 10.8846 5.18063C11.9489 5.03698 13.278 5.03705 14.8204 5.03713L14.935 5.03714H18.415L18.5296 5.03713C20.072 5.03705 21.3981 5.03698 22.4624 5.18063C21.8258 3.5619 20.2536 2.41666 18.415 2.41666Z" fill="#E75526"/>
<path d="M7.97513 13.7719C7.97513 10.4777 7.97513 8.83063 8.99439 7.80727C10.0137 6.78391 11.6542 6.78391 14.9351 6.78391H18.4151C21.6961 6.78391 23.3365 6.78391 24.3559 7.80727C25.3751 8.83063 25.3751 10.4777 25.3751 13.7719V19.5952C25.3751 22.8893 25.3751 24.5364 24.3559 25.5598C23.3365 26.5831 21.6961 26.5831 18.4151 26.5831H14.9351C11.6542 26.5831 10.0137 26.5831 8.99439 25.5598C7.97513 24.5364 7.97513 22.8893 7.97513 19.5952V13.7719Z" fill="white"/>
</svg>
