<svg width="18" height="18" viewBox="0 0 18 18" fill="none" xmlns="http://www.w3.org/2000/svg">
<g clip-path="url(#clip0_1_965)">
<path d="M10.125 12.9375H9.5625V7.90987C9.5625 7.90369 9.56081 7.89806 9.56081 7.89244C9.56081 7.88681 9.5625 7.88119 9.5625 7.875C9.5625 7.5645 9.3105 7.3125 9 7.3125H7.875C7.5645 7.3125 7.3125 7.5645 7.3125 7.875C7.3125 8.1855 7.5645 8.4375 7.875 8.4375H8.4375V12.9375H7.875C7.5645 12.9375 7.3125 13.1895 7.3125 13.5C7.3125 13.8105 7.5645 14.0625 7.875 14.0625H10.125C10.4355 14.0625 10.6875 13.8105 10.6875 13.5C10.6875 13.1895 10.4355 12.9375 10.125 12.9375ZM9 6.1875C9.62156 6.1875 10.125 5.6835 10.125 5.0625C10.125 4.4415 9.62156 3.9375 9 3.9375C8.37844 3.9375 7.875 4.4415 7.875 5.0625C7.875 5.6835 8.379 6.1875 9 6.1875ZM9 0C4.02975 0 0 4.02919 0 9C0 13.9708 4.02919 18 9 18C13.9708 18 18 13.9708 18 9C18 4.02919 13.9708 0 9 0ZM9 16.8924C4.6575 16.8924 1.125 13.3419 1.125 8.99944C1.125 4.65694 4.6575 1.12444 9 1.12444C13.3425 1.12444 16.875 4.65694 16.875 8.99944C16.875 13.3419 13.3425 16.8924 9 16.8924Z" fill="white" fill-opacity="0.5"/>
</g>
<defs>
<clipPath id="clip0_1_965">
<rect width="18" height="18" fill="white"/>
</clipPath>
</defs>
</svg>
