<svg width="34" height="34" viewBox="0 0 34 34" fill="none" xmlns="http://www.w3.org/2000/svg">
<g clip-path="url(#clip0_1_759)">
<path d="M31 0H3C1.34315 0 0 1.34315 0 3V31C0 32.6569 1.34315 34 3 34H31C32.6569 34 34 32.6569 34 31V3C34 1.34315 32.6569 0 31 0Z" fill="#242424"/>
<path fill-rule="evenodd" clip-rule="evenodd" d="M24.6 12.7633C24.726 12.3328 24.6 12.0196 24.0418 12.0196H22.1874C21.7193 12.0196 21.5032 12.2936 21.3772 12.5872C21.3772 12.5872 20.4229 15.0926 19.0906 16.7171C18.6585 17.1868 18.4605 17.3434 18.2265 17.3434C18.1004 17.3434 17.9384 17.1868 17.9384 16.7562V12.7438C17.9384 12.2349 17.7943 12 17.3982 12H14.4815C14.1935 12 14.0135 12.2349 14.0135 12.4698C14.0135 12.9591 14.6796 13.0765 14.7516 14.4466V17.4217C14.7516 18.0676 14.6436 18.1851 14.4095 18.1851C13.7794 18.1851 12.249 15.6601 11.3308 12.7829C11.1507 12.2153 10.9707 12 10.5026 12H8.63014C8.09003 12 8 12.2741 8 12.5676C8 13.0961 8.63014 15.758 10.9347 19.2812C12.4651 21.6886 14.6436 22.9804 16.6061 22.9804C17.7943 22.9804 17.9384 22.6868 17.9384 22.1975V20.3773C17.9384 19.79 18.0464 19.6922 18.4245 19.6922C18.6945 19.6922 19.1807 19.8487 20.2789 21.0036C21.5392 22.3737 21.7552 23 22.4574 23H24.3119C24.852 23 25.1041 22.7064 24.96 22.1388C24.798 21.5712 24.1859 20.7491 23.3937 19.7704C22.9615 19.2225 22.3134 18.6157 22.1153 18.3221C21.8453 17.9306 21.9173 17.7741 22.1153 17.4217C22.0974 17.4217 24.3659 13.9377 24.6 12.7633Z" fill="white"/>
</g>
<defs>
<clipPath id="clip0_1_759">
<rect width="34" height="34" fill="white"/>
</clipPath>
</defs>
</svg>
