<svg width="44" height="32" viewBox="0 0 44 32" fill="none" xmlns="http://www.w3.org/2000/svg">
<rect x="8" y="4.99988" width="24" height="24" fill="white"/>
<path fill-rule="evenodd" clip-rule="evenodd" d="M17.5746 21.6894V9.34343C21.9574 11.4058 25.3519 13.398 29.3666 15.546C26.0554 17.3823 21.9574 19.4428 17.5746 21.6894ZM42.0002 3.2032C41.2442 2.20713 39.9556 1.43177 38.5838 1.17508C34.5516 0.409365 9.39617 0.407187 5.36614 1.17508C4.26604 1.3813 3.28644 1.87979 2.44493 2.65427C-1.1008 5.94525 0.0102656 23.5937 0.864924 26.4525C1.22432 27.6899 1.68892 28.5823 2.27403 29.1681C3.02788 29.9426 4.06003 30.4759 5.24559 30.715C8.5656 31.4017 25.6697 31.7857 38.5136 30.8181C39.697 30.6119 40.7445 30.0615 41.5707 29.2541C44.849 25.9763 44.6255 7.33667 42.0002 3.2032Z" fill="#242424"/>
</svg>
