<svg width="501" height="57" fill="none" xmlns="http://www.w3.org/2000/svg"><mask id="a" maskUnits="userSpaceOnUse" x="-2" y="-2" width="505" height="61" fill="#1F212C"><path fill="#fff" d="M-2-2h505v61H-2z"/><path d="M.303 12.364h13.06l11.08 27.017h.511l11.08-27.017h13.061V56h-10.27V29.196h-.362L27.98 55.723h-6.562L10.935 29.047h-.363V56H.302V12.364zm52.37 0H63.2v25.142h.362l17.174-25.142h9.076V56H79.265V30.815h-.277L61.6 56h-8.927V12.364zm80.38 15.81h-10.654c-.142-1.095-.433-2.082-.873-2.962a7.206 7.206 0 00-1.748-2.259c-.724-.625-1.583-1.1-2.578-1.427-.98-.341-2.066-.512-3.26-.512-2.116 0-3.941.519-5.476 1.556-1.519 1.037-2.691 2.535-3.515 4.495-.81 1.96-1.215 4.333-1.215 7.117 0 2.898.412 5.326 1.236 7.287.838 1.946 2.01 3.416 3.516 4.41 1.52.98 3.317 1.47 5.39 1.47 1.165 0 2.223-.149 3.175-.447a7.791 7.791 0 002.536-1.3 7.197 7.197 0 001.811-2.11c.483-.837.816-1.782 1.001-2.833l10.654.064c-.185 1.932-.746 3.835-1.684 5.71-.923 1.875-2.194 3.587-3.814 5.135-1.619 1.534-3.593 2.756-5.923 3.665-2.315.909-4.971 1.364-7.969 1.364-3.949 0-7.485-.867-10.61-2.6-3.111-1.747-5.569-4.29-7.373-7.628-1.804-3.338-2.706-7.4-2.706-12.187 0-4.801.917-8.87 2.749-12.209 1.832-3.338 4.311-5.874 7.436-7.606 3.125-1.734 6.627-2.6 10.504-2.6 2.642 0 5.086.37 7.33 1.108 2.244.724 4.219 1.79 5.923 3.196 1.705 1.392 3.09 3.104 4.155 5.135 1.065 2.031 1.726 4.354 1.982 6.967zm1.607-7.245v-8.565h36.882v8.565h-13.231V56h-10.398V20.929H134.66zM173.693 56V12.364h30.426v8.565H184.24v8.949h18.324v8.587H184.24v8.97h19.879V56h-30.426zm34.031 0V12.364h18.026c3.267 0 6.087.639 8.459 1.917 2.386 1.264 4.226 3.033 5.518 5.306 1.293 2.258 1.939 4.886 1.939 7.883 0 3.012-.66 5.647-1.981 7.905-1.307 2.244-3.175 3.984-5.604 5.22-2.429 1.236-5.313 1.854-8.651 1.854h-11.122v-8.31h9.162c1.591 0 2.919-.277 3.985-.83 1.079-.555 1.896-1.329 2.45-2.323.554-1.009.831-2.18.831-3.516 0-1.35-.277-2.514-.831-3.494-.554-.994-1.371-1.761-2.45-2.301-1.08-.54-2.408-.81-3.985-.81h-5.199V56h-10.547zm36.141-43.636h10.526v25.142h.362l17.173-25.142h9.077V56h-10.547V30.815h-.277L252.793 56h-8.928V12.364zM321.18 56l-13.722-18.11h-2.386V56h-10.547V12.364h10.547v16.939h1.683l13.509-16.94h13.189l-16.811 20.604L334.326 56H321.18zm13.998 0V12.364h30.426v8.565h-19.88v8.949h18.324v8.587h-18.324v8.97h19.88V56h-30.426zm34.031-43.636h10.525v25.142h.363l17.173-25.142h9.077V56H395.8V30.815h-.277L378.136 56h-8.927V12.364zM392.071.773h6.861c-.014 2.67-1.023 4.815-3.026 6.434-1.988 1.62-4.687 2.43-8.096 2.43s-6.115-.81-8.118-2.43c-1.989-1.619-2.976-3.764-2.962-6.434h6.797c-.014.937.305 1.79.959 2.557.653.767 1.761 1.15 3.324 1.15 1.52 0 2.606-.376 3.26-1.13.653-.752.987-1.611 1.001-2.577zm57.517 27.4h-10.654c-.142-1.093-.433-2.08-.873-2.961a7.218 7.218 0 00-1.747-2.259c-.725-.625-1.584-1.1-2.579-1.427-.98-.341-2.066-.512-3.26-.512-2.116 0-3.941.519-5.475 1.556-1.52 1.037-2.692 2.535-3.516 4.495-.81 1.96-1.214 4.333-1.214 7.117 0 2.898.411 5.326 1.235 7.287.838 1.946 2.01 3.416 3.516 4.41 1.52.98 3.317 1.47 5.391 1.47 1.164 0 2.223-.149 3.174-.447a7.791 7.791 0 002.536-1.3 7.197 7.197 0 001.811-2.11c.483-.837.817-1.782 1.001-2.833l10.654.064c-.185 1.932-.746 3.835-1.684 5.71-.923 1.875-2.194 3.587-3.813 5.135-1.62 1.534-3.594 2.756-5.924 3.665-2.315.909-4.971 1.364-7.968 1.364-3.949 0-7.486-.867-10.611-2.6-3.111-1.747-5.568-4.29-7.372-7.628-1.804-3.338-2.706-7.4-2.706-12.187 0-4.801.916-8.87 2.748-12.209 1.833-3.338 4.311-5.874 7.436-7.606 3.125-1.734 6.627-2.6 10.505-2.6 2.642 0 5.085.37 7.329 1.108 2.244.724 4.219 1.79 5.923 3.196 1.705 1.392 3.09 3.104 4.155 5.135 1.066 2.031 1.726 4.354 1.982 6.967zm9.832-.426h9.716c3.565 0 6.662.575 9.289 1.726 2.628 1.15 4.66 2.77 6.094 4.858 1.449 2.088 2.173 4.545 2.173 7.372s-.724 5.313-2.173 7.457c-1.434 2.145-3.466 3.822-6.094 5.029-2.627 1.207-5.724 1.811-9.289 1.811h-16.3V12.364h10.526v35.284h5.774c1.534 0 2.826-.263 3.877-.789 1.066-.54 1.868-1.264 2.408-2.173.554-.923.824-1.946.81-3.068.014-1.62-.59-2.969-1.811-4.048-1.222-1.094-2.983-1.641-5.284-1.641h-9.716v-8.182zm41.101-15.383V56h-10.526V12.364h10.526z"/></mask><path d="M.303 12.364v-2h-2v2h2zm13.06 0l1.851-.76-.509-1.24h-1.341v2zm11.08 27.017l-1.85.758.509 1.242h1.341v-2zm.511 0v2h1.342l.509-1.242-1.85-.758zm11.08-27.017v-2h-1.341l-.51 1.24 1.851.76zm13.061 0h2v-2h-2v2zm0 43.636v2h2v-2h-2zm-10.27 0h-2v2h2v-2zm0-26.804h2v-2h-2v2zm-.362 0v-2h-1.36l-.5 1.265 1.86.735zM27.98 55.723v2h1.36l.5-1.265-1.86-.735zm-6.562 0l-1.862.732.499 1.268h1.363v-2zM10.935 29.047l1.861-.732-.498-1.268h-1.363v2zm-.363 0v-2h-2v2h2zm0 26.953v2h2v-2h-2zM.302 56h-2v2h2v-2zm0-41.636h13.062v-4H.303v4zm11.211-1.242l11.08 27.017 3.7-1.517-11.079-27.017-3.7 1.518zm12.93 28.259h.511v-4h-.51v4zm2.362-1.242l11.08-27.017-3.701-1.517-11.08 27.017 3.701 1.517zm9.23-25.775h13.06v-4h-13.06v4zm11.06-2V56h4V12.364h-4zm2 41.636h-10.27v4h10.27v-4zm-8.27 2V29.196h-4V56h4zm-2-28.804h-.362v4h.362v-4zm-2.222 1.265L26.12 54.988l3.72 1.47 10.483-26.527-3.72-1.47zM27.98 53.723h-6.562v4h6.562v-4zm-4.701 1.269L12.796 28.315l-3.723 1.463 10.483 26.677 3.723-1.463zM10.935 27.047h-.363v4h.363v-4zm-2.363 2V56h4V29.047h-4zm2 24.953H.302v4h10.27v-4zm-8.27 2V12.364h-4V56h4zm50.372-43.636v-2h-2v2h2zm10.525 0h2v-2h-2v2zm0 25.142h-2v2h2v-2zm.362 0v2h1.056l.596-.872-1.652-1.128zm17.174-25.142v-2h-1.056l-.596.872 1.652 1.128zm9.076 0h2v-2h-2v2zm0 43.636v2h2v-2h-2zm-10.546 0h-2v2h2v-2zm0-25.185h2v-2h-2v2zm-.277 0v-2h-1.05l-.596.864 1.646 1.136zM61.6 56v2h1.05l.596-.864L61.601 56zm-8.927 0h-2v2h2v-2zm0-41.636h10.525v-4H52.674v4zm8.525-2v25.142h4V12.364h-4zm2 27.142h.362v-4h-.36v4zm2.014-.872l17.173-25.142-3.303-2.256L61.91 36.378l3.303 2.256zm15.522-24.27h9.076v-4h-9.076v4zm7.076-2V56h4V12.364h-4zm2 41.636H79.265v4H89.81v-4zm-8.546 2V30.815h-4V56h4zm-2-27.185h-.277v4h.277v-4zm-1.923.864L59.955 54.864l3.292 2.272 17.386-25.184-3.291-2.273zM61.602 54h-8.928v4H61.6v-4zm-6.928 2V12.364h-4V56h4zm78.379-27.827v2h2.205l-.215-2.194-1.99.194zm-10.654 0l-1.983.258.226 1.742h1.757v-2zm-.873-2.961l-1.789.894 1.789-.894zm-1.748-2.259l1.307-1.514-1.307 1.514zm-2.578-1.427l-.657 1.889.017.005.016.006.624-1.9zm-8.736 1.044l-1.12-1.657-.007.005 1.127 1.652zm-3.515 4.495l-1.844-.775-.005.012 1.849.763zm.021 14.404l-1.844.775.004.008.003.008 1.837-.791zm3.516 4.41l-1.102 1.67.009.005.009.006 1.084-1.68zm8.565 1.023l-.59-1.911-.008.002.598 1.909zm2.536-1.3l1.234 1.574.004-.003-1.238-1.57zm1.811-2.11l-1.733-.998-.006.01 1.739.989zm1.001-2.833l.012-2-1.689-.01-.293 1.664 1.97.346zm10.654.064l1.99.19.209-2.177-2.187-.013-.012 2zm-1.684 5.71l-1.789-.894-.005.01 1.794.884zm-3.814 5.135l1.376 1.452.007-.006-1.383-1.446zm-5.923 3.665l-.727-1.863-.004.001.731 1.862zm-18.579-1.236l-.98 1.744.01.005.97-1.749zM95.68 46.37l1.76-.95-1.76.95zm.043-24.396l-1.753-.962 1.753.962zm25.27-9.098l-.625 1.9.011.003.614-1.903zm5.923 3.196l-1.273 1.543.008.006 1.265-1.549zm6.137 10.102h-10.654v4h10.654v-4zm-8.671 1.743c-.167-1.29-.516-2.496-1.068-3.599l-3.577 1.79c.329.657.562 1.425.679 2.324l3.966-.515zm-1.068-3.599a9.207 9.207 0 00-2.229-2.878l-2.613 3.028a5.22 5.22 0 011.265 1.64l3.577-1.79zm-2.229-2.878c-.942-.813-2.039-1.412-3.26-1.814l-1.249 3.8c.767.253 1.389.605 1.896 1.042l2.613-3.028zm-3.228-1.802c-1.22-.425-2.533-.623-3.917-.623v4c1.003 0 1.863.143 2.603.4l1.314-3.777zm-3.917-.623c-2.456 0-4.685.607-6.596 1.899l2.24 3.314c1.158-.783 2.58-1.213 4.356-1.213v-4zm-6.603 1.904c-1.885 1.286-3.282 3.114-4.232 5.372l3.688 1.55c.698-1.661 1.644-2.83 2.799-3.618l-2.255-3.305zm-4.237 5.384c-.935 2.265-1.366 4.912-1.366 7.88h4c0-2.6.38-4.698 1.063-6.353l-3.697-1.527zm-1.366 7.88c0 3.073.435 5.785 1.392 8.062l3.688-1.55c-.691-1.643-1.08-3.79-1.08-6.512h-4zm1.399 8.078c.965 2.24 2.366 4.044 4.251 5.288l2.204-3.338c-1.127-.744-2.07-1.88-2.781-3.532l-3.674 1.582zm4.269 5.3c1.888 1.218 4.074 1.79 6.474 1.79v-4c-1.747 0-3.155-.41-4.306-1.152l-2.168 3.362zm6.474 1.79c1.335 0 2.599-.171 3.773-.54l-1.196-3.817c-.729.229-1.581.356-2.577.356v4zm3.765-.537a9.778 9.778 0 003.18-1.637l-2.469-3.147c-.514.403-1.136.729-1.891.962l1.18 3.822zm3.184-1.64a9.176 9.176 0 002.311-2.691l-3.477-1.978a5.172 5.172 0 01-1.311 1.528l2.477 3.14zm2.306-2.681c.61-1.06 1.017-2.23 1.238-3.487l-3.94-.692c-.148.845-.409 1.565-.764 2.181l3.466 1.998zm-.744-1.833l10.654.064.024-4-10.654-.064-.024 4zm8.675-2.126c-.16 1.667-.645 3.333-1.482 5.006l3.578 1.789c1.039-2.078 1.676-4.219 1.885-6.415l-3.981-.38zm-1.487 5.017c-.813 1.65-1.939 3.174-3.402 4.573l2.765 2.89c1.776-1.698 3.192-3.596 4.226-5.696l-3.589-1.767zm-3.395 4.566c-1.41 1.336-3.157 2.427-5.275 3.254l1.454 3.726c2.541-.992 4.744-2.344 6.572-4.076l-2.751-2.904zm-5.279 3.255c-2.04.801-4.441 1.226-7.238 1.226v4c3.198 0 6.109-.485 8.7-1.502l-1.462-3.724zm-7.238 1.226c-3.646 0-6.843-.797-9.641-2.349l-1.939 3.498c3.452 1.915 7.329 2.85 11.58 2.85v-4zm-9.631-2.344c-2.76-1.55-4.956-3.807-6.592-6.835l-3.52 1.902c1.973 3.649 4.691 6.477 8.153 8.42l1.959-3.487zm-6.592-6.835c-1.61-2.979-2.466-6.696-2.466-11.236h-4c0 5.034.949 9.441 2.947 13.138l3.519-1.902zm-2.466-11.236c0-4.551.869-8.27 2.502-11.247l-3.506-1.924c-2.031 3.7-2.996 8.12-2.996 13.17h4zm2.502-11.247c1.663-3.03 3.88-5.282 6.653-6.82l-1.94-3.498c-3.477 1.929-6.218 4.747-8.22 8.394l3.507 1.924zm6.653-6.82c2.803-1.554 5.966-2.348 9.534-2.348v-4c-4.187 0-8.027.939-11.474 2.85l1.94 3.498zm9.534-2.348c2.455 0 4.684.343 6.705 1.008l1.25-3.8c-2.468-.812-5.125-1.208-7.955-1.208v4zm6.716 1.011c2.02.652 3.767 1.6 5.264 2.836l2.546-3.086c-1.912-1.577-4.113-2.76-6.582-3.556l-1.228 3.806zm5.272 2.842c1.487 1.214 2.703 2.712 3.649 4.515l3.542-1.858c-1.185-2.26-2.739-4.185-4.661-5.755l-2.53 3.098zm3.649 4.515c.929 1.772 1.528 3.84 1.762 6.233l3.981-.39c-.277-2.833-1-5.41-2.201-7.701l-3.542 1.858zm5.36-1.206h-2v2h2v-2zm0-8.565v-2h-2v2h2zm36.882 0h2v-2h-2v2zm0 8.565v2h2v-2h-2zm-13.231 0v-2h-2v2h2zm0 35.071v2h2v-2h-2zm-10.398 0h-2v2h2v-2zm0-35.071h2v-2h-2v2zm-11.253 0v-8.565h-4v8.565h4zm-2-6.565h36.882v-4H134.66v4zm34.882-2v8.565h4v-8.565h-4zm2 6.565h-13.231v4h13.231v-4zm-15.231 2V56h4V20.929h-4zm2 33.071h-10.398v4h10.398v-4zm-8.398 2V20.929h-4V56h4zm-2-37.071H134.66v4h13.253v-4zM173.693 56h-2v2h2v-2zm0-43.636v-2h-2v2h2zm30.426 0h2v-2h-2v2zm0 8.565v2h2v-2h-2zm-19.879 0v-2h-2v2h2zm0 8.949h-2v2h2v-2zm18.324 0h2v-2h-2v2zm0 8.587v2h2v-2h-2zm-18.324 0v-2h-2v2h2zm0 8.97h-2v2h2v-2zm19.879 0h2v-2h-2v2zm0 8.565v2h2v-2h-2zm-28.426 0V12.364h-4V56h4zm-2-41.636h30.426v-4h-30.426v4zm28.426-2v8.565h4v-8.565h-4zm2 6.565H184.24v4h19.879v-4zm-21.879 2v8.949h4v-8.949h-4zm2 10.949h18.324v-4H184.24v4zm16.324-2v8.587h4v-8.587h-4zm2 6.587H184.24v4h18.324v-4zm-20.324 2v8.97h4v-8.97h-4zm2 10.97h19.879v-4H184.24v4zm17.879-2V56h4v-8.565h-4zm2 6.565h-30.426v4h30.426v-4zm3.605 2h-2v2h2v-2zm0-43.636v-2h-2v2h2zm26.485 1.917l-.949 1.76.006.004.007.004.936-1.768zm5.518 5.306l-1.738.988.002.005 1.736-.993zm-.042 15.788l-1.727-1.01-.002.004 1.729 1.006zm-5.604 5.22l.907 1.783-.907-1.783zm-19.773 1.854h-2v2h2v-2zm0-8.31v-2h-2v2h2zm13.147-.83l-.914-1.78-.009.005.923 1.774zm2.45-2.323l1.747.973.006-.01-1.753-.963zm0-7.01l-1.747.973.006.011 1.741-.984zm-2.45-2.301l-.895 1.789.895-1.79zm-9.184-.81v-2h-2v2h2zm0 35.135v2h2v-2h-2zm-8.547 0V12.364h-4V56h4zm-2-41.636h18.026v-4h-18.026v4zm18.026 0c3.006 0 5.485.587 7.51 1.678l1.898-3.521c-2.72-1.466-5.88-2.157-9.408-2.157v4zm7.523 1.685c2.062 1.092 3.618 2.596 4.716 4.526l3.477-1.977c-1.487-2.615-3.61-4.648-6.321-6.084l-1.872 3.535zm4.718 4.531c1.095 1.913 1.675 4.188 1.675 6.89h4c0-3.292-.712-6.272-2.203-8.877l-3.472 1.987zm1.675 6.89c0 2.711-.591 4.987-1.708 6.895l3.453 2.02c1.526-2.609 2.255-5.603 2.255-8.915h-4zm-1.71 6.899c-1.103 1.895-2.678 3.373-4.782 4.444l1.814 3.565c2.754-1.401 4.915-3.403 6.425-5.997l-3.457-2.012zm-4.782 4.444c-2.092 1.064-4.651 1.636-7.744 1.636v4c3.584 0 6.792-.664 9.558-2.071l-1.814-3.565zm-7.744 1.636h-11.122v4h11.122v-4zm-9.122 2v-8.31h-4v8.31h4zm-2-6.31h9.162v-4h-9.162v4zm9.162 0c1.812 0 3.48-.314 4.907-1.056l-1.845-3.55c-.703.366-1.692.606-3.062.606v4zm4.898-1.051c1.406-.722 2.525-1.766 3.284-3.129l-3.494-1.947c-.349.626-.864 1.13-1.617 1.517l1.827 3.559zm3.29-3.14c.74-1.347 1.078-2.86 1.078-4.478h-4c0 1.053-.217 1.884-.584 2.553l3.506 1.926zm1.078-4.478c0-1.626-.336-3.143-1.09-4.478l-3.482 1.968c.353.625.572 1.437.572 2.51h4zm-1.084-4.468c-.762-1.367-1.887-2.408-3.303-3.116l-1.789 3.578c.743.37 1.252.864 1.598 1.485l3.494-1.947zm-3.303-3.116c-1.429-.715-3.083-1.02-4.879-1.02v4c1.358 0 2.36.233 3.09.598l1.789-3.578zm-4.879-1.02h-5.199v4h5.199v-4zm-7.199 2V56h4V20.865h-4zm2 33.134h-10.547v4h10.547v-4zm25.594-41.636v-2h-2v2h2zm10.526 0h2v-2h-2v2zm0 25.142h-2v2h2v-2zm.362 0v2h1.056l.595-.872-1.651-1.128zm17.173-25.142v-2h-1.056l-.595.872 1.651 1.128zm9.077 0h2v-2h-2v2zm0 43.636v2h2v-2h-2zm-10.547 0h-2v2h2v-2zm0-25.185h2v-2h-2v2zm-.277 0v-2h-1.05l-.596.864 1.646 1.136zM252.793 56v2h1.049l.597-.864L252.793 56zm-8.928 0h-2v2h2v-2zm0-41.636h10.526v-4h-10.526v4zm8.526-2v25.142h4V12.364h-4zm2 27.142h.362v-4h-.362v4zm2.013-.872l17.174-25.142-3.303-2.256-17.174 25.142 3.303 2.256zm15.522-24.27h9.077v-4h-9.077v4zm7.077-2V56h4V12.364h-4zm2 41.636h-10.547v4h10.547v-4zm-8.547 2V30.815h-4V56h4zm-2-27.185h-.277v4h.277v-4zm-1.923.864l-17.386 25.185 3.292 2.272 17.386-25.184-3.292-2.273zM252.793 54h-8.928v4h8.928v-4zm-6.928 2V12.364h-4V56h4zm75.315 0l-1.594 1.208.6.792h.994v-2zm-13.722-18.11l1.595-1.209-.601-.792h-.994v2zm-2.386 0v-2h-2v2h2zm0 18.11v2h2v-2h-2zm-10.547 0h-2v2h2v-2zm0-43.636v-2h-2v2h2zm10.547 0h2v-2h-2v2zm0 16.939h-2v2h2v-2zm1.683 0v2h.963l.601-.754-1.564-1.246zm13.509-16.94v-2h-.963l-.601.754 1.564 1.247zm13.189 0l1.549 1.265 2.664-3.264h-4.213v2zm-16.811 20.604l-1.55-1.264-1.001 1.227.964 1.255 1.587-1.218zM334.326 56v2h4.057l-2.47-3.218L334.326 56zm-11.552-1.208l-13.721-18.11-3.189 2.415 13.722 18.11 3.188-2.415zM307.458 35.89h-2.386v4h2.386v-4zm-4.386 2V56h4V37.89h-4zm2 16.111h-10.547v4h10.547v-4zm-8.547 2V12.364h-4V56h4zm-2-41.636h10.547v-4h-10.547v4zm8.547-2v16.939h4v-16.94h-4zm2 18.939h1.683v-4h-1.683v4zm3.247-.754l13.509-16.938-3.128-2.494-13.508 16.939 3.127 2.493zm11.945-16.185h13.189v-4h-13.189v4zm11.639-3.265l-16.811 20.604 3.099 2.529 16.811-20.604-3.099-2.529zm-16.848 23.086l17.685 23.033 3.173-2.436-17.685-23.033-3.173 2.436zM334.326 54H321.18v4h13.146v-4zm.852 2h-2v2h2v-2zm0-43.636v-2h-2v2h2zm30.426 0h2v-2h-2v2zm0 8.565v2h2v-2h-2zm-19.88 0v-2h-2v2h2zm0 8.949h-2v2h2v-2zm18.324 0h2v-2h-2v2zm0 8.587v2h2v-2h-2zm-18.324 0v-2h-2v2h2zm0 8.97h-2v2h2v-2zm19.88 0h2v-2h-2v2zm0 8.565v2h2v-2h-2zm-28.426 0V12.364h-4V56h4zm-2-41.636h30.426v-4h-30.426v4zm28.426-2v8.565h4v-8.565h-4zm2 6.565h-19.88v4h19.88v-4zm-21.88 2v8.949h4v-8.949h-4zm2 10.949h18.324v-4h-18.324v4zm16.324-2v8.587h4v-8.587h-4zm2 6.587h-18.324v4h18.324v-4zm-20.324 2v8.97h4v-8.97h-4zm2 10.97h19.88v-4h-19.88v4zm17.88-2V56h4v-8.565h-4zm2 6.565h-30.426v4h30.426v-4zm3.605-41.636v-2h-2v2h2zm10.525 0h2v-2h-2v2zm0 25.142h-2v2h2v-2zm.363 0v2h1.056l.595-.872-1.651-1.128zm17.173-25.142v-2h-1.056l-.596.872 1.652 1.128zm9.077 0h2v-2h-2v2zm0 43.636v2h2v-2h-2zM395.8 56h-2v2h2v-2zm0-25.185h2v-2h-2v2zm-.277 0v-2h-1.05l-.596.864 1.646 1.136zM378.136 56v2h1.05l.596-.864L378.136 56zm-8.927 0h-2v2h2v-2zM392.071.773v-2H390.1l-.029 1.97 2 .03zm6.861 0l2 .01.01-2.01h-2.01v2zm-3.026 6.434l-1.257-1.555-.006.005 1.263 1.55zm-16.214 0l-1.263 1.551.005.005 1.258-1.556zM376.73.773v-2h-1.989l-.011 1.99 2 .01zm6.797 0l2 .03.031-2.03h-2.031v2zm.959 2.557l-1.523 1.296 1.523-1.296zm6.584.02l1.51 1.312-1.51-1.311zm-21.861 11.014h10.525v-4h-10.525v4zm8.525-2v25.142h4V12.364h-4zm2 27.142h.363v-4h-.363v4zm2.014-.872l17.173-25.142-3.303-2.256-17.173 25.142 3.303 2.256zm15.522-24.27h9.077v-4h-9.077v4zm7.077-2V56h4V12.364h-4zm2 41.636H395.8v4h10.547v-4zm-8.547 2V30.815h-4V56h4zm-2-27.185h-.277v4h.277v-4zm-1.923.864L376.49 54.864l3.292 2.272 17.387-25.184-3.292-2.273zM378.136 54h-8.927v4h8.927v-4zm-6.927 2V12.364h-4V56h4zm20.862-53.227h6.861v-4h-6.861v4zm4.861-2.01c-.011 2.095-.767 3.663-2.283 4.89l2.515 3.11c2.489-2.013 3.751-4.735 3.768-7.98l-4-.02zm-2.289 4.894c-1.529 1.245-3.732 1.98-6.833 1.98v4c3.717 0 6.911-.886 9.359-2.879l-2.526-3.101zm-6.833 1.98c-3.101 0-5.315-.735-6.861-1.985l-2.515 3.11c2.46 1.99 5.658 2.874 9.376 2.874v-4zm-6.855-1.98c-1.498-1.22-2.236-2.78-2.225-4.874l-4-.02c-.017 3.246 1.219 5.976 3.699 7.995l2.526-3.101zm-4.225-2.884h6.797v-4h-6.797v4zm4.797-2.03c-.022 1.46.493 2.777 1.436 3.883l3.045-2.593c-.364-.428-.488-.816-.481-1.23l-4-.06zm1.436 3.883c1.202 1.412 3.021 1.854 4.847 1.854v-4c-1.3 0-1.697-.324-1.802-.447l-3.045 2.593zm4.847 1.854c1.794 0 3.574-.44 4.77-1.818l-3.021-2.622c-.111.128-.504.44-1.749.44v4zm4.77-1.818c.952-1.097 1.469-2.406 1.491-3.86l-4-.059c-.007.479-.157.888-.512 1.297l3.021 2.622zm57.008 23.511v2h2.205l-.215-2.194-1.99.194zm-10.654 0l-1.983.258.226 1.742h1.757v-2zm-.873-2.961l-1.789.894 1.789-.894zm-1.747-2.259l1.306-1.514-1.306 1.514zm-2.579-1.427l-.657 1.889.017.005.016.006.624-1.9zM425 22.57l-1.12-1.657-.008.005L425 22.57zm-3.516 4.495l-1.844-.775-.005.012 1.849.763zm.021 14.404l-1.843.775.003.008.003.008 1.837-.791zm3.516 4.41l-1.102 1.67.009.005.009.006 1.084-1.68zm8.565 1.023l-.59-1.911-.008.002.598 1.909zm2.536-1.3l1.234 1.574.004-.003-1.238-1.57zm1.811-2.11l-1.733-.998-.005.01 1.738.989zm1.001-2.833l.012-2-1.689-.01-.293 1.664 1.97.346zm10.654.064l1.991.19.208-2.177-2.187-.013-.012 2zm-1.684 5.71l-1.788-.894-.006.01 1.794.884zm-3.813 5.135l1.375 1.452.007-.006-1.382-1.446zm-5.924 3.665l-.727-1.863-.004.001.731 1.862zm-18.579-1.236l-.98 1.744.01.005.97-1.749zm-7.372-7.628l1.759-.95-1.759.95zm.042-24.396l-1.753-.962 1.753.962zm25.27-9.098l-.625 1.9.011.003.614-1.903zm5.923 3.196l-1.272 1.543.007.006 1.265-1.549zm6.137 10.102h-10.654v4h10.654v-4zm-8.67 1.743c-.168-1.29-.517-2.496-1.068-3.599l-3.578 1.79c.329.657.562 1.425.679 2.324l3.967-.515zm-1.068-3.599a9.195 9.195 0 00-2.23-2.878l-2.613 3.028a5.22 5.22 0 011.265 1.64l3.578-1.79zm-2.23-2.878c-.942-.813-2.039-1.412-3.26-1.814l-1.249 3.8c.768.253 1.389.605 1.896 1.042l2.613-3.028zm-3.228-1.802c-1.22-.425-2.533-.623-3.917-.623v4c1.003 0 1.864.143 2.603.4l1.314-3.777zm-3.917-.623c-2.456 0-4.685.607-6.595 1.899l2.24 3.314c1.157-.783 2.579-1.213 4.355-1.213v-4zm-6.603 1.904c-1.885 1.286-3.282 3.114-4.232 5.372l3.688 1.55c.698-1.661 1.645-2.83 2.799-3.618l-2.255-3.305zm-4.237 5.384c-.935 2.265-1.365 4.912-1.365 7.88h4c0-2.6.379-4.698 1.063-6.353l-3.698-1.527zm-1.365 7.88c0 3.073.434 5.785 1.392 8.062l3.687-1.55c-.691-1.643-1.079-3.79-1.079-6.512h-4zm1.398 8.078c.965 2.24 2.367 4.044 4.251 5.288l2.204-3.338c-1.127-.744-2.069-1.88-2.781-3.532l-3.674 1.582zm4.269 5.3c1.888 1.218 4.074 1.79 6.475 1.79v-4c-1.748 0-3.156-.41-4.307-1.152l-2.168 3.362zm6.475 1.79c1.334 0 2.598-.171 3.772-.54l-1.196-3.817c-.729.229-1.581.356-2.576.356v4zm3.764-.537a9.778 9.778 0 003.18-1.637l-2.468-3.147c-.515.403-1.137.729-1.892.962l1.18 3.822zm3.184-1.64a9.176 9.176 0 002.311-2.691l-3.476-1.978a5.19 5.19 0 01-1.312 1.528l2.477 3.14zm2.306-2.681c.611-1.06 1.017-2.23 1.238-3.487l-3.94-.692c-.148.845-.409 1.565-.764 2.181l3.466 1.998zm-.744-1.833l10.654.064.024-4-10.654-.064-.024 4zm8.675-2.126c-.16 1.667-.645 3.333-1.481 5.006l3.577 1.789c1.039-2.078 1.676-4.219 1.886-6.415l-3.982-.38zm-1.487 5.017c-.812 1.65-1.939 3.174-3.402 4.573l2.765 2.89c1.776-1.698 3.192-3.596 4.226-5.696l-3.589-1.767zm-3.395 4.566c-1.41 1.336-3.157 2.427-5.275 3.254l1.454 3.726c2.541-.992 4.744-2.344 6.572-4.076l-2.751-2.904zm-5.279 3.255c-2.04.801-4.441 1.226-7.237 1.226v4c3.197 0 6.109-.485 8.699-1.502l-1.462-3.724zm-7.237 1.226c-3.646 0-6.843-.797-9.641-2.349l-1.94 3.498c3.452 1.915 7.329 2.85 11.581 2.85v-4zm-9.632-2.344c-2.76-1.55-4.956-3.807-6.592-6.835l-3.519 1.902c1.972 3.649 4.691 6.477 8.152 8.42l1.959-3.487zm-6.592-6.835c-1.61-2.979-2.465-6.696-2.465-11.236h-4c0 5.034.948 9.441 2.946 13.138l3.519-1.902zm-2.465-11.236c0-4.551.868-8.27 2.501-11.247l-3.506-1.924c-2.031 3.7-2.995 8.12-2.995 13.17h4zm2.501-11.247c1.664-3.03 3.88-5.282 6.653-6.82l-1.94-3.498c-3.477 1.929-6.217 4.747-8.219 8.394l3.506 1.924zm6.653-6.82c2.803-1.554 5.966-2.348 9.535-2.348v-4c-4.188 0-8.028.939-11.475 2.85l1.94 3.498zm9.535-2.348c2.454 0 4.684.343 6.704 1.008l1.25-3.8c-2.468-.812-5.125-1.208-7.954-1.208v4zm6.715 1.011c2.02.652 3.768 1.6 5.265 2.836l2.545-3.086c-1.912-1.577-4.113-2.76-6.582-3.556l-1.228 3.806zm5.272 2.842c1.487 1.214 2.703 2.712 3.649 4.515l3.542-1.858c-1.185-2.26-2.738-4.185-4.661-5.755l-2.53 3.098zm3.649 4.515c.93 1.772 1.528 3.84 1.762 6.233l3.981-.39c-.277-2.833-.999-5.41-2.201-7.701l-3.542 1.858zm13.585 5.612v-2h-2v2h2zm19.005 1.726l.803-1.832-.803 1.832zm6.094 4.858l-1.648 1.133.005.007 1.643-1.14zm0 14.83l-1.657-1.12-.005.008 1.662 1.111zm-6.094 5.028l.835 1.817-.835-1.817zM452.836 56h-2v2h2v-2zm0-43.636v-2h-2v2h2zm10.526 0h2v-2h-2v2zm0 35.284h-2v2h2v-2zm9.651-.789l.895 1.79.009-.006-.904-1.784zm2.408-2.173l-1.715-1.029-.005.008 1.72 1.021zm.81-3.068l-2-.018v.043l2-.025zm-1.811-4.048l-1.334 1.49.009.008 1.325-1.498zm-15-1.641h-2v2h2v-2zm41.101-23.565h2v-2h-2v2zm0 43.636v2h2v-2h-2zm-10.526 0h-2v2h2v-2zm0-43.636v-2h-2v2h2zM459.42 29.747h9.716v-4h-9.716v4zm9.716 0c3.354 0 6.166.542 8.487 1.558l1.605-3.664c-2.935-1.285-6.316-1.894-10.092-1.894v4zm8.487 1.558c2.333 1.021 4.051 2.417 5.248 4.159l3.297-2.266c-1.673-2.434-4.017-4.277-6.94-5.557l-1.605 3.664zm5.253 4.166c1.191 1.716 1.816 3.765 1.816 6.232h4c0-3.186-.823-6.052-2.53-8.512l-3.286 2.28zm1.816 6.232c0 2.466-.625 4.554-1.83 6.338l3.314 2.239c1.693-2.506 2.516-5.39 2.516-8.577h-4zm-1.835 6.346c-1.205 1.801-2.933 3.25-5.267 4.323l1.67 3.634c2.922-1.342 5.257-3.246 6.922-5.734l-3.325-2.223zm-5.267 4.323c-2.312 1.062-5.112 1.628-8.454 1.628v4c3.788 0 7.181-.641 10.124-1.994l-1.67-3.634zM469.136 54h-16.3v4h16.3v-4zm-14.3 2V12.364h-4V56h4zm-2-41.636h10.526v-4h-10.526v4zm8.526-2v35.284h4V12.364h-4zm2 37.284h5.774v-4h-5.774v4zm5.774 0c1.753 0 3.372-.3 4.772-1l-1.789-3.578c-.702.352-1.668.578-2.983.578v4zm4.781-1.005c1.359-.688 2.466-1.66 3.224-2.936l-3.44-2.042c-.321.541-.82 1.02-1.591 1.41l1.807 3.568zm3.219-2.928c.753-1.255 1.113-2.646 1.095-4.122l-4 .05c.01.768-.17 1.423-.525 2.014l3.43 2.058zm1.095-4.08c.019-2.203-.834-4.104-2.487-5.564l-2.649 2.997c.791.7 1.145 1.497 1.136 2.532l4 .035zm-2.477-5.555c-1.713-1.534-4.023-2.151-6.618-2.151v4c2.007 0 3.22.477 3.95 1.13l2.668-2.98zm-6.618-2.151h-9.716v4h9.716v-4zm-7.716 2v-8.182h-4v8.182h4zm37.101-23.565V56h4V12.364h-4zm2 41.636h-10.526v4h10.526v-4zm-8.526 2V12.364h-4V56h4zm-2-41.636h10.526v-4h-10.526v4z" mask="url(#a)"/></svg>