<svg width="17" height="17" fill="none" xmlns="http://www.w3.org/2000/svg"><path fill-rule="evenodd" clip-rule="evenodd" d="M5.95.85a1.7 1.7 0 00-1.7 1.7v1.7H1.7a.85.85 0 100 1.7h.751c.031.287.067.64.102 1.03.094 1.022.186 2.265.186 3.22 0 1.25-.156 2.981-.268 4.06a1.713 1.713 0 001.7 1.89h8.658a1.712 1.712 0 001.7-1.89c-.112-1.079-.268-2.81-.268-4.06 0-.955.091-2.198.186-3.22.035-.39.071-.743.102-1.03h.751a.85.85 0 000-1.7h-2.55v-1.7a1.7 1.7 0 00-1.7-1.7h-5.1zm5.1 3.4v-1.7h-5.1v1.7h5.1zM4.247 6.825c-.03-.321-.06-.619-.086-.875h8.678c-.03.291-.058.583-.085.875-.095 1.03-.193 2.338-.193 3.375 0 1.346.165 3.157.277 4.234v.006a.017.017 0 01-.005.007l-.002.003H4.169a.02.02 0 01-.007-.009v-.007c.112-1.077.277-2.888.277-4.234 0-1.037-.098-2.345-.192-3.375zM6.8 6.8a.85.85 0 01.85.85v5.1a.85.85 0 01-1.7 0v-5.1a.85.85 0 01.85-.85zm4.25.85a.85.85 0 00-1.7 0v5.1a.85.85 0 001.7 0v-5.1z" fill="#8B95AD"/></svg>