<svg width="132" height="31" viewBox="0 0 132 31" fill="none" xmlns="http://www.w3.org/2000/svg">
<path d="M13.8329 23.0776C13.8329 23.0776 14.2144 22.922 14.2491 22.8096L14.1971 22.6834C14.1615 22.6004 14.1659 22.5104 14.2361 22.462L14.6471 22.1776L15.3348 22.3098C15.3348 22.3098 15.2099 22.1542 15.2221 21.9467L14.5665 21.8084L13.9473 22.1845C13.8393 22.2644 13.7612 22.378 13.7255 22.5073C13.6899 22.6366 13.6986 22.7741 13.7505 22.8978L13.8329 23.0785L13.8329 23.0776ZM18.6949 24.8692C18.8172 24.864 18.9542 24.8622 19.1025 24.8622C19.1025 24.8622 19.4563 23.829 19.4762 23.7962C19.2134 23.6739 18.957 23.5386 18.7079 23.3906C18.8128 23.548 19.0678 23.727 19.0175 23.8653L18.6949 24.8692ZM18.9056 12.8151C18.3801 13.3356 17.8763 13.5284 17.4262 13.5734C17.3438 13.5823 17.261 13.5869 17.1782 13.5872H17.1669C17.0014 13.5872 16.8363 13.5698 16.6743 13.5354C16.6449 13.6521 16.6076 13.8968 16.7142 14.1285C16.8096 14.3386 17.003 14.4951 17.2857 14.5997L17.3811 14.6369L17.382 14.7389C17.382 14.7692 17.4045 15.4315 18.1278 15.6157C18.2457 15.4946 18.3532 15.3848 18.4313 15.2923C18.2839 14.9456 18.3619 14.5911 18.5761 14.4173C18.5674 14.4545 18.472 15.3234 19.1701 15.6468L19.2854 15.7013L19.2507 15.8232C19.2395 15.8604 19.0071 16.7016 19.8525 17.0146L20.0017 17.0717L19.9349 17.2161C19.9202 17.2481 19.5889 18.0116 20.3693 18.4456H22.0612V17.1028C21.4594 17.0293 21.2053 16.546 21.1394 16.2036C20.8593 16.156 20.6434 16.0359 20.4951 15.8396C20.1396 15.3727 20.4448 14.9447 20.4491 14.9213C20.4483 14.9248 20.4491 15.3796 20.7301 15.6615C20.8697 15.7964 21.0345 15.9018 21.2851 15.9252L21.4074 15.9364L21.4178 16.0618C21.4204 16.0886 21.4871 16.7051 22.0612 16.8019L22.0604 14.061C22.0604 13.6356 22.1844 13.2085 22.3335 12.8142H18.9054L18.9056 12.8151ZM14.3505 14.0714L14.3054 15.8163L14.5048 15.8474L14.9905 14.1726L14.7433 13.6573L14.3513 14.0714H14.3505ZM15.4032 20.5337C15.3899 20.5333 15.3768 20.5301 15.3647 20.5245C15.3526 20.5188 15.3418 20.5108 15.3329 20.5008C15.3241 20.4909 15.3174 20.4792 15.3132 20.4666C15.309 20.4539 15.3075 20.4406 15.3087 20.4273C15.3094 20.4142 15.3128 20.4014 15.3186 20.3896C15.3244 20.3778 15.3326 20.3673 15.3425 20.3587C15.3524 20.3501 15.364 20.3435 15.3765 20.3394C15.389 20.3353 15.4022 20.3338 15.4153 20.3348C15.4726 20.3374 15.5125 20.3867 15.5107 20.4403C15.5087 20.4668 15.4963 20.4915 15.4762 20.509C15.4561 20.5265 15.4298 20.5354 15.4032 20.5337ZM19.7059 22.0788C19.7206 22.0788 19.738 22.0805 19.7536 22.0848C20.0571 22.1713 20.1326 23.259 20.6624 23.3558C20.7144 23.3671 20.763 23.3697 20.8046 23.3697C20.9581 23.3697 21.0491 23.3048 21.148 23.1881C21.148 23.1881 20.8809 22.7705 20.6814 22.4877C20.4169 22.1177 20.2114 21.6707 19.718 21.6707C19.7059 21.6707 19.692 21.6707 19.679 21.6724C19.585 21.6762 19.4941 21.7068 19.4171 21.7606C19.2524 21.652 19.0596 21.5934 18.8621 21.592C18.5543 21.592 18.3132 21.7338 18.1927 21.7338H18.1883L17.087 21.6249C16.9144 21.6076 16.7783 21.4346 16.7289 21.3672L16.7098 21.3378C16.7098 21.3075 16.7098 21.2773 16.7081 21.2505C16.6708 20.3504 15.9736 19.9656 15.7247 19.9587C15.7247 19.9587 15.7542 19.7875 15.6874 19.7227L15.4446 20.0166L14.6468 19.6172L15.2157 20.2812L14.7344 20.8216C14.6737 20.883 14.6815 20.966 14.7066 21.0015L14.9147 21.1848L15.1784 21.0248C15.1914 21.0153 15.2157 21.0118 15.2451 21.0118C15.318 21.0118 15.4272 21.0309 15.5252 21.0309C15.6336 21.0309 15.7264 21.0084 15.7377 20.9072C15.7047 21.241 15.3943 21.8211 15.5981 22.2768L15.749 22.6209L14.7751 22.4809L14.319 23.2495C14.1785 23.5055 14.156 23.7821 14.2912 23.9326L14.4621 24.1462C14.4621 24.1462 14.7014 23.8928 14.7543 23.7259L14.6771 23.6412C14.6121 23.5694 14.6156 23.5055 14.6555 23.4285L14.9416 22.9547L16.0906 23.2253L16.1513 23.1215C16.2294 22.9919 16.3421 22.9538 16.4653 22.9538C16.5164 22.9538 16.5685 22.9599 16.6222 22.9685C16.8355 23.0109 17.1868 23.0671 17.5379 23.0671C17.9239 23.0671 18.3063 22.9979 18.51 22.7705C18.9263 23.387 19.7709 23.4847 19.7042 23.7985L19.4822 24.8551C19.6296 24.8482 19.7709 24.8387 19.9053 24.8205L20.1169 23.7216C20.1341 23.6283 20.1491 23.5346 20.162 23.4406C20.0805 23.3576 19.8837 23.1838 19.7718 22.972C19.6235 22.6858 19.7042 22.5362 19.5654 22.1644C19.5654 22.1644 19.6088 22.0779 19.7059 22.0779L19.7059 22.0788ZM29.9047 18.4819C29.0115 18.0409 28.4478 16.8736 28.3108 16.4534C28.1634 18.7689 27.0317 20.3752 25.7093 21.9212C25.0225 22.7236 24.7832 23.5035 24.7832 23.5035C24.7832 23.5035 24.9159 22.6198 25.509 21.9005C26.743 20.4202 27.9154 18.5767 28.003 16.4445C28.0628 14.9573 27.6804 13.7511 27.082 12.757C27.4168 13.792 27.3691 15.0604 26.2339 16.2439C26.2339 16.2439 28.4947 13.5393 25.3347 10.7656C24.0704 9.71075 22.6864 9.05879 21.9744 8.59707C24.5473 9.43578 25.8045 8.51234 25.8045 8.51234C24.9824 9.22391 23.9184 9.21182 23.2585 9.10893C23.438 9.19626 23.6244 9.28791 23.8239 9.39427C25.9944 10.5719 27.944 12.5095 28.277 15.1916V15.1708C28.7808 17.8054 29.9047 18.4813 29.9047 18.4813L29.9047 18.4819ZM30.5655 15.4123C30.5854 15.414 30.6028 15.414 30.6227 15.414C31.8324 15.414 32.2417 14.1197 32.2417 14.1197H32.2183C31.9963 14.1197 30.1978 14.0678 28.9264 12.4535C28.0904 11.3926 27.4045 10.4596 26.0498 10.093L25.9163 10.0688L25.8877 9.93308C25.8504 9.72644 25.9917 9.53275 26.3143 9.3244C28.1831 8.10182 26.9127 6.54203 26.9127 6.54203C26.9127 6.54203 26.3802 7.78882 25.1861 7.78882L25.0968 7.78708C24.9615 7.78016 24.8306 7.77584 24.6988 7.74731L24.4785 7.70407C24.4785 7.70407 24.8193 6.77891 23.9972 5.93072C23.3789 5.28914 22.6254 5.18021 22.1909 5.18021C21.9715 5.18021 21.8328 5.20874 21.8328 5.20874C22.2455 5.7474 22.5438 6.6423 22.0669 7.19395C21.655 7.66778 20.6491 7.69113 20.6491 8.39839C20.6491 8.69756 20.9292 9.04688 21.4321 9.36073C22.9445 10.3118 24.4455 11.5742 25.0698 13.2661C25.8502 15.3758 24.9709 16.7765 23.717 17.5798C23.717 17.5798 24.1107 17.9412 24.6804 17.9879C24.7966 17.9991 24.9102 18.0043 25.016 18.0043C26.2205 18.0043 26.8432 17.4397 26.8432 17.4397C26.8432 17.4397 26.74 18.2196 26.1147 18.9433C25.5354 19.6108 24.7767 20.005 23.619 20.0215C23.619 20.0215 23.5826 20.5576 24.0951 21.0227C24.4237 21.3158 25.1808 21.4118 25.1808 21.4118C25.1808 21.4118 23.7621 21.698 23.6051 23.7913C23.5201 24.9256 23.2305 25.3191 23.2305 25.3191H23.2557C26.5476 25.3191 26.4633 22.4986 26.4633 22.4986C26.4633 22.4986 26.6923 23.3339 27.6106 23.5517C27.7216 23.5811 27.8404 23.5924 27.9531 23.5924C28.2479 23.5924 28.5055 23.5232 28.5055 23.5232C28.5055 23.5232 28.0242 22.5099 28.5012 21.0927C28.8975 19.916 28.8333 19.0444 28.8333 19.0444C28.8333 19.0444 29.2764 19.7145 30.3769 19.7206H30.3881C30.6481 19.7246 30.9048 19.6632 31.1346 19.542C31.3644 19.4207 31.5598 19.2437 31.7028 19.0272C29.508 18.1167 29.7248 15.1794 29.7248 15.1794C29.7248 15.1794 30.0092 15.3921 30.5651 15.4129L30.5655 15.4123ZM8.63544 21.9214C7.31301 20.3754 6.18133 18.769 6.03219 16.4536C5.89604 16.8747 5.33326 18.0419 4.44095 18.482C4.44095 18.482 5.56309 17.8059 6.06688 15.1716V15.1923C6.40074 12.5102 8.35015 10.5727 10.5207 9.39593C10.7201 9.28785 10.9074 9.19706 11.0852 9.11059C10.4262 9.21262 9.36129 9.22472 8.54008 8.514C8.54008 8.514 9.79746 9.43656 12.3692 8.59787C11.6582 9.05958 10.2741 9.71151 9.01049 10.7664C5.84977 13.5401 8.11037 16.2447 8.11037 16.2447C6.97437 15.0602 6.92755 13.7935 7.26227 12.7578C6.66392 13.7521 6.28063 14.9583 6.34307 16.4465C6.42892 18.5778 7.60045 20.421 8.83187 21.9025C9.42847 22.6202 9.56288 23.5038 9.56288 23.5038C9.56288 23.5038 9.32007 22.7248 8.635 21.9224L8.63544 21.9214ZM9.16442 21.4112C9.16442 21.4112 9.92148 21.3161 10.2501 21.0222C10.7618 20.5578 10.7262 20.0218 10.7262 20.0218C9.56767 20.0054 8.80976 19.6111 8.22786 18.9436C7.60524 18.2199 7.50117 17.44 7.50117 17.44C7.50117 17.44 8.1238 18.0046 9.32659 18.0046C9.43499 18.0046 9.54772 17.9994 9.66306 17.9882C10.0189 17.9523 10.3556 17.81 10.6291 17.5801C9.37341 16.7768 8.49413 15.3761 9.2737 13.2655C9.89807 11.5752 11.3983 10.312 12.9126 9.36011C13.4147 9.04711 13.6939 8.6978 13.6939 8.39865C13.6939 7.69138 12.6897 7.66804 12.2778 7.1942C11.8009 6.64256 12.1001 5.74768 12.512 5.20899C12.512 5.20899 12.3741 5.18046 12.1538 5.18046C11.7202 5.18046 10.9667 5.28941 10.3475 5.93097C9.5237 6.78006 9.86623 7.7052 9.86623 7.7052L9.64597 7.74843C9.51502 7.77523 9.38235 7.78042 9.24707 7.7882L9.16035 7.78907C7.96366 7.78907 7.43207 6.54315 7.43207 6.54315C7.43207 6.54315 6.1634 8.10208 8.03212 9.32465C8.35295 9.53303 8.49432 9.72759 8.45701 9.93334L8.4284 10.0682L8.29225 10.0924C6.94032 10.4599 6.25439 11.3928 5.41683 12.4538C4.14555 14.068 2.34889 14.1199 2.12584 14.1199H2.10156C2.10156 14.1199 2.51172 15.4143 3.72231 15.4143C3.74138 15.4143 3.75873 15.4143 3.77954 15.4126C4.33539 15.3927 4.62071 15.18 4.62071 15.18C4.62071 15.18 4.83577 18.117 2.64183 19.0277C2.64183 19.0277 3.0416 19.722 3.95735 19.722H3.96776C5.06906 19.715 5.51133 19.045 5.51133 19.045C5.51133 19.045 5.44716 19.9174 5.84171 21.0933C6.31864 22.5113 5.83996 23.5229 5.83996 23.5229C5.83996 23.5229 6.09578 23.592 6.39149 23.592C6.50595 23.592 6.62302 23.5817 6.73315 23.5523C7.65061 23.3344 7.8804 22.4992 7.8804 22.4992C7.8804 22.4992 7.79629 25.3196 11.0887 25.3196H11.113C11.113 25.3196 10.8242 24.9262 10.7401 23.7918C10.584 21.6994 9.16356 21.4114 9.16356 21.4114L9.16442 21.4112ZM16.4288 11.0182H17.9811V11.5499C17.799 11.3268 17.4434 11.3727 17.4434 11.3727V12.1396C17.4434 12.1396 17.4556 12.5166 17.5891 12.68H16.8208C16.9552 12.5166 16.9665 12.1396 16.9665 12.1396V11.3727C16.9665 11.3727 16.6127 11.3268 16.4288 11.5499L16.4288 11.0182ZM14.7379 11.0977C14.7916 11.1557 14.8445 11.2188 14.8957 11.2819C14.9078 11.2966 14.9191 11.3096 14.9312 11.3269C14.9789 11.3891 15.0266 11.4565 15.0726 11.524L15.1038 11.5698C15.1584 11.6528 15.2105 11.7384 15.2625 11.8275C15.7377 12.6463 16.4973 13.1357 17.1711 13.1365C17.8467 13.1357 18.6054 12.6463 19.0815 11.8275C19.1344 11.7367 19.1873 11.6485 19.2428 11.5655C19.3061 11.4688 19.3738 11.375 19.4457 11.2845C19.4986 11.2188 19.5533 11.1548 19.6088 11.096C19.6183 11.0873 19.6261 11.0778 19.6357 11.0701C19.8785 10.8228 20.1655 10.6343 20.5436 10.5297L20.3753 10.432H20.3667L19.6972 10.0446L19.0113 9.65116L17.1764 10.649L17.1712 10.6446L17.1685 10.649L15.3336 9.65116L14.6468 10.0446L13.9774 10.432H13.9696L13.8005 10.5297C14.1777 10.6334 14.4656 10.8202 14.7084 11.0683C14.7188 11.077 14.7257 11.0891 14.7379 11.0977ZM17.1711 4.86207C16.0352 4.86294 15.1827 5.23472 14.9971 5.67309L17.1711 6.5291L19.346 5.67309C19.1622 5.23472 18.3097 4.86294 17.1711 4.86207ZM17.1945 27.5491H17.1512C16.4627 27.5534 15.5131 27.4125 15.057 27.2785L14.5072 28.7648C14.8697 28.8936 16.0975 29.1409 17.1737 29.1409C18.2481 29.1409 19.4769 28.8936 19.8386 28.7648L19.2897 27.2794C18.8309 27.4125 17.8831 27.5534 17.1945 27.5491ZM21.3542 26.0706C20.9449 26.3023 20.0318 26.6499 19.5002 26.8107L19.9459 28.0384C20.768 27.8136 21.447 27.5517 22.0072 27.2706L21.081 26.9637L21.3542 26.0706ZM12.9904 26.0706L13.2644 26.9637L12.3374 27.2707C12.8968 27.5517 13.5783 27.8137 14.3978 28.0376L14.8444 26.8099C14.3137 26.6491 13.3989 26.3023 12.9904 26.0706ZM17.1709 3.4415C18.0286 3.4415 18.868 3.64641 19.5149 4.00523C19.5738 3.8081 19.6562 3.56773 19.7681 3.31613L19.5235 3.34553L19.2677 3.37147L19.1593 3.13888L18.8315 2.44978L18.2367 2.75933L18.0043 2.87692L17.8187 2.69535L17.1709 2.05551L16.5249 2.69535L16.3402 2.87692L16.1086 2.75933L15.5103 2.44978L15.1868 3.13888L15.0767 3.37233L14.82 3.34553L14.5772 3.31613C14.6891 3.56774 14.7706 3.80813 14.8304 4.00523C15.4791 3.64641 16.3185 3.4415 17.1718 3.4415H17.1709ZM30.2521 11.411C30.364 11.449 30.4767 11.4663 30.5886 11.4663C31.0743 11.4663 31.5425 11.1524 31.7029 10.7945C31.7029 10.7945 30.8141 10.7409 29.8585 9.77161C29.555 9.4586 29.2324 9.36436 28.9566 9.36436C28.5274 9.36436 28.2048 9.59003 28.2048 9.59003C29.3598 10.2039 29.5949 11.1896 30.2521 11.411ZM3.75576 11.4654C3.8685 11.4654 3.98123 11.449 4.08962 11.4101C4.74869 11.1888 4.98628 10.2039 6.13874 9.59091C6.13874 9.59091 5.81617 9.36437 5.3895 9.36437C5.11201 9.36437 4.79029 9.45775 4.48504 9.77249C3.53029 10.7409 2.64227 10.7954 2.64227 10.7954C2.80183 11.1525 3.27096 11.4663 3.75573 11.4663L3.75576 11.4654ZM16.5873 7.63788V8.13937L16.4911 8.0944C16.4867 8.09094 16.3445 8.05982 16.0991 7.86441C15.6924 7.54967 15.6846 7.25916 15.6846 7.25916L16.5865 7.63789L16.5873 7.63788ZM17.0122 9.98709V6.87252L15.0282 6.19982L15.5519 9.21748L17.0131 9.98703L17.0122 9.98709ZM17.758 7.63788L18.6599 7.25915C18.6599 7.25915 18.6529 7.54967 18.2445 7.8644C17.9991 8.05894 17.8577 8.09093 17.8534 8.09439L17.758 8.13849L17.758 7.63788ZM18.7926 9.21844L19.3137 6.20078L17.3305 6.87261V9.98718L18.7925 9.21764L18.7926 9.21844ZM14.206 17.2068C14.3994 17.276 14.6335 17.2907 14.7541 17.2907C14.7584 17.276 14.7653 17.2579 14.7714 17.2354C14.7809 17.2008 14.7913 17.1645 14.7991 17.1264C14.833 16.9535 14.8442 16.759 14.8477 16.6327C14.7368 16.567 14.6464 16.4718 14.5867 16.3578C14.513 16.203 14.4081 16.1304 14.2546 16.1304C14.0551 16.1304 13.8409 16.2514 13.7482 16.3068C13.6753 16.7373 13.9936 17.1282 14.206 17.206L14.206 17.2068ZM18.5954 15.5545C18.2278 15.9548 17.5054 16.6526 17.4707 16.6872L17.4273 16.7304L15.1467 16.6949C15.1448 16.8831 15.1203 17.0703 15.0738 17.2526L15.0556 17.3244L17.7673 17.8121C18.0491 17.6149 18.8252 17.0486 19.127 16.8264C18.9076 16.5065 18.8868 16.1269 18.9362 15.8606C18.806 15.7786 18.6908 15.6751 18.5954 15.5545Z" fill="#FFFFFE"/>
<path d="M22.0604 18.7414H12.2829V22.4152C12.2829 23.9179 13.3712 24.8578 14.9781 24.8578C16.3196 24.8578 16.6734 24.9096 17.172 25.4051C17.5163 25.0618 17.8007 24.9347 18.386 24.8863L18.399 24.8301L18.7069 23.8781C18.6896 23.8565 18.1866 23.285 18.1866 23.285C17.9871 23.3516 17.8189 23.3628 17.5362 23.3628C17.2474 23.3628 16.9205 23.3282 16.5658 23.2625C16.5326 23.2547 16.4986 23.2506 16.4644 23.2504C16.421 23.2504 16.4184 23.2539 16.4063 23.2755L16.3456 23.3766L16.2329 23.5617L16.0221 23.5124L15.0838 23.2919L14.9546 23.5038L14.9746 23.5271L15.0882 23.6525L15.0379 23.8167C14.9685 24.0303 14.7448 24.2802 14.6763 24.3494L14.4421 24.6001L14.2279 24.3312L14.0675 24.1297C13.8984 23.9413 13.8594 23.6525 13.9548 23.3498C13.952 23.3519 13.9487 23.3531 13.9452 23.3533L13.6807 23.4631L13.5619 23.2037L13.4778 23.0213C13.3971 22.8346 13.3826 22.6261 13.4366 22.4301C13.4907 22.2341 13.6101 22.0623 13.7753 21.9431L14.5297 21.5169L15.2495 21.6578C15.2668 21.5886 15.2928 21.343 15.3128 21.2799C15.2989 21.2782 15.2859 21.2756 15.272 21.2756L14.8575 21.4295L14.4586 21.1546C14.4586 21.1546 14.3025 21.0041 14.4439 20.8537L14.8298 20.2683L13.8499 19.0405L15.3562 19.6579L15.4568 19.5342L15.6597 19.2904L15.8903 19.51C15.951 19.5691 15.9932 19.6445 16.0117 19.727C16.4263 19.8887 17.1703 20.3651 17.2362 21.1398L17.0038 21.2323V21.2384C17.0567 21.3015 17.1009 21.3274 17.1148 21.33L18.1901 21.4355C18.2178 21.4303 18.2508 21.4182 18.2889 21.4079C18.4234 21.362 18.6237 21.2955 18.8613 21.2955C19.0555 21.2955 19.2428 21.3404 19.4224 21.4251C19.4891 21.3992 19.5698 21.3811 19.6652 21.375L19.7172 21.3733C20.2921 21.3733 20.5783 21.803 20.8081 22.1462C20.8462 22.2059 20.8844 22.2612 20.9243 22.3166C21.1255 22.6002 21.3882 23.0143 21.3986 23.0325L21.5174 23.2166L21.3718 23.3861C21.2608 23.5158 21.0917 23.6671 20.8038 23.6671C20.7385 23.6666 20.6735 23.6599 20.6095 23.6472C20.5505 23.6359 20.4929 23.6183 20.4378 23.5945C20.429 23.6555 20.4189 23.7163 20.4075 23.7769L20.2193 24.76C21.3466 24.4833 22.0629 23.6325 22.0629 22.4151L22.0604 18.7414ZM12.2829 18.4456H19.8881C19.5082 18.0531 19.5143 17.5577 19.6106 17.2352C19.508 17.186 19.4126 17.1232 19.327 17.0484C19.0296 17.2672 18.1225 17.9268 17.8858 18.0929L17.8346 18.1274L14.8498 17.5879H14.7891C14.718 17.5879 14.6131 17.5853 14.4986 17.5706C14.4863 17.6253 14.4585 17.6752 14.4183 17.7144C14.3782 17.7536 14.3275 17.7803 14.2725 17.7914C14.2174 17.8024 14.1604 17.7974 14.1081 17.7768C14.0559 17.7561 14.0108 17.7209 13.9783 17.6752C13.9554 17.6441 13.939 17.6087 13.9301 17.5711C13.9212 17.5335 13.9199 17.4946 13.9262 17.4565L13.9375 17.3916C13.6305 17.1755 13.3453 16.6913 13.4718 16.1812L13.484 16.1275L13.5273 16.0964C13.5711 16.0666 13.6162 16.0389 13.6626 16.0134L13.4458 15.9788C13.4073 15.9722 13.3729 15.9509 13.3499 15.9194C13.3269 15.888 13.3172 15.8488 13.3227 15.8102C13.3366 15.7289 13.412 15.6719 13.4926 15.6866L14.0086 15.7679L14.0563 13.9513L14.8246 13.1385L15.305 14.1475L14.7986 15.8958L15.2548 15.9676C15.2937 15.974 15.3285 15.9955 15.3516 16.0274C15.3747 16.0593 15.3842 16.0991 15.3779 16.1379C15.3723 16.1724 15.3546 16.2037 15.3278 16.2262C15.3011 16.2487 15.2672 16.2609 15.2322 16.2607L15.2088 16.2598L14.8368 16.1993C14.842 16.2114 14.8489 16.2175 14.8541 16.2296C14.8955 16.3012 14.9578 16.3585 15.0327 16.3938L17.3073 16.431C17.4036 16.3368 17.6421 16.1034 17.8884 15.856C17.674 15.7776 17.4858 15.6411 17.3449 15.462C17.204 15.2828 17.1159 15.0681 17.0906 14.8418C16.7784 14.7087 16.5616 14.5098 16.4419 14.2504C16.2962 13.9288 16.3483 13.6071 16.3873 13.4507C16.0838 13.3408 15.7647 13.1385 15.4386 12.8152H12.0117C12.1591 13.2094 12.2831 13.6366 12.2831 14.0611V18.4448L12.2829 18.4456Z" fill="#FFE52B"/>
<path d="M17.1729 6.53046L14.9989 5.67272C15.1836 5.23522 16.036 4.86344 17.1729 4.86257C18.3106 4.86344 19.163 5.23522 19.3478 5.67272L17.1729 6.53046ZM18.7936 9.21859L17.3324 9.98814V6.87202L19.3157 6.19932L18.7936 9.21698L18.7936 9.21859ZM19.699 10.0452L20.3667 10.4326H20.3762L20.5445 10.5303C20.1672 10.634 19.8785 10.8234 19.6366 11.0706L19.6105 11.0966C19.5535 11.1573 19.4988 11.2202 19.4466 11.2851L19.4163 11.3248C19.3643 11.3914 19.3148 11.4597 19.2689 11.5306L19.2437 11.5661C19.1875 11.6517 19.134 11.7391 19.0833 11.8281C18.6064 12.6469 17.8476 13.1363 17.1729 13.138C16.4982 13.1363 15.7386 12.6469 15.2634 11.8281C15.2129 11.7407 15.16 11.6548 15.1047 11.5704L15.0735 11.5246C15.0282 11.4578 14.9813 11.3921 14.933 11.3274C14.9209 11.3102 14.9096 11.2972 14.8974 11.2825C14.8465 11.2194 14.7936 11.158 14.7388 11.0983C14.7275 11.0897 14.7197 11.0784 14.7093 11.0689C14.4615 10.8102 14.1476 10.624 13.8013 10.5303L13.9713 10.4326H13.9783L14.6486 10.0452L15.3345 9.65176L17.1694 10.6496L17.1729 10.6461L17.1781 10.6496L19.0122 9.65176L19.699 10.0452ZM22.3352 12.8155C22.1851 13.2098 22.0611 13.6369 22.0611 14.0614L22.0629 16.8023C21.4897 16.7072 21.4212 16.0898 21.4194 16.063L21.409 15.9377L21.285 15.9264C21.0747 15.9079 20.8782 15.8143 20.7317 15.6627C20.4499 15.3817 20.4499 14.9269 20.4499 14.9226C20.4464 14.9459 20.1412 15.3722 20.495 15.8391C20.6442 16.0362 20.8609 16.1581 21.1402 16.2057C21.2061 16.5472 21.461 17.0305 22.0629 17.1049V18.4451H20.371C19.5906 18.0119 19.9209 17.2493 19.9366 17.2165L20.0025 17.0712L19.8533 17.015C19.0078 16.702 19.2411 15.8599 19.2524 15.8236L19.2871 15.7008L19.1709 15.6472C18.4737 15.3238 18.5682 14.454 18.5778 14.4177C18.3627 14.5915 18.2855 14.9451 18.4329 15.2936C18.3532 15.3852 18.2456 15.495 18.1286 15.6161C17.9249 15.5717 17.7415 15.4617 17.6067 15.3031C17.4719 15.1445 17.3932 14.9461 17.3828 14.7384L17.3819 14.6364L17.2865 14.6001C17.0047 14.4963 16.8113 14.339 16.715 14.1289C16.6084 13.8963 16.6457 13.6533 16.6751 13.5349C16.8372 13.5684 17.0022 13.5858 17.1677 13.5868H17.179C17.2631 13.5868 17.3455 13.5816 17.427 13.5738C17.878 13.5288 18.3809 13.336 18.9064 12.8155L22.3352 12.8155ZM20.221 24.7604L20.41 23.7773L20.4404 23.5957C20.5571 23.6413 20.681 23.6656 20.8063 23.6675C21.0942 23.6675 21.2624 23.5153 21.3743 23.3865L21.5183 23.2179L21.4003 23.0329C21.3899 23.0147 21.1272 22.6005 20.926 22.3169C20.886 22.2609 20.8475 22.2038 20.8106 22.1457C20.5808 21.8034 20.2938 21.3736 19.718 21.3736L19.6668 21.3754C19.5839 21.3798 19.5021 21.3964 19.424 21.4246C19.2488 21.3411 19.0572 21.2974 18.863 21.2967C18.6676 21.3014 18.4744 21.3388 18.2915 21.4074C18.2533 21.4186 18.2186 21.4307 18.1918 21.4359L17.1165 21.3304C17.1026 21.3269 17.0592 21.301 17.0055 21.2388V21.2327L17.2379 21.1402C17.1728 20.3655 16.428 19.8891 16.0134 19.7274C15.9951 19.6445 15.9529 19.5688 15.892 19.5095L15.6614 19.2908L15.4584 19.5337L15.3587 19.6582L13.8516 19.04L14.8315 20.2686L14.4456 20.854C14.3033 21.0036 14.4603 21.1549 14.4603 21.1549L14.8592 21.4299L15.2737 21.2751C15.2876 21.2751 15.2997 21.2786 15.3145 21.2803C15.2945 21.3434 15.2685 21.5898 15.2512 21.6581L14.5323 21.5172L13.7778 21.9435C13.3884 22.2288 13.3356 22.6991 13.4804 23.0216L13.5636 23.2049L13.6824 23.4635L13.9469 23.3545C13.9512 23.3528 13.9547 23.3519 13.9573 23.3493C13.8619 23.6528 13.9009 23.9407 14.0701 24.1301L14.2305 24.3316L14.4438 24.6013L14.6779 24.3497C14.7473 24.2806 14.971 24.0307 15.0396 23.8162L15.0899 23.6528L14.9763 23.5275L14.9572 23.5041L15.0855 23.2923L16.0238 23.5136L16.2354 23.562L16.3481 23.3762L16.4088 23.2759C16.4201 23.2542 16.4227 23.2508 16.4661 23.2508C16.4999 23.2508 16.5328 23.2542 16.5684 23.2629C16.8884 23.3259 17.2135 23.3591 17.5396 23.3623C17.8197 23.3623 17.9888 23.3519 18.1883 23.2854C18.1883 23.2854 18.6921 23.856 18.7094 23.8785L18.4007 24.8296L18.3868 24.8867C17.8032 24.9342 17.5188 25.0622 17.1745 25.4055C16.675 24.9109 16.3221 24.8581 14.9806 24.8581C13.3737 24.8581 12.2846 23.9183 12.2846 22.4147V18.7418H22.0627L22.0644 22.4147C22.0644 23.633 21.3483 24.4828 20.221 24.7604ZM14.1983 22.6835L14.2495 22.8106C14.2148 22.9213 13.8333 23.0787 13.8333 23.0787L13.7517 22.898C13.6997 22.7741 13.6908 22.6365 13.7265 22.507C13.7621 22.3775 13.8404 22.2637 13.9486 22.1838L14.5669 21.8077L15.2233 21.946C15.2103 22.1544 15.3352 22.31 15.3352 22.31L14.6484 22.1786L14.2365 22.4622C14.1671 22.5106 14.1619 22.6005 14.1983 22.6835ZM20.1168 23.7211L19.9061 24.8201C19.7708 24.8391 19.6286 24.8495 19.4829 24.8546L19.7049 23.7998C19.7708 23.4851 18.9279 23.3874 18.5108 22.7709C18.307 22.9991 17.9246 23.0675 17.5396 23.0675C17.1875 23.0675 16.8372 23.0113 16.623 22.9689C16.5714 22.96 16.5192 22.955 16.4669 22.9542C16.3429 22.9542 16.231 22.9922 16.153 23.1228L16.0923 23.2266L14.9424 22.9559L14.6562 23.4289C14.6163 23.5058 14.6129 23.5698 14.6779 23.6416L14.756 23.7263C14.7022 23.8932 14.4628 24.1465 14.4628 24.1465L14.292 23.933C14.1567 23.7825 14.1793 23.5058 14.3198 23.2499L14.7759 22.4804L15.7497 22.6213L15.5988 22.2763C15.3951 21.8207 15.7055 21.2414 15.7385 20.9076C15.7272 21.0088 15.6344 21.0313 15.5269 21.0313C15.428 21.0313 15.3187 21.0131 15.2459 21.0131C15.2173 21.0131 15.1921 21.0157 15.1791 21.0252L14.9155 21.1852L14.7074 21.0019C14.6822 20.9673 14.6744 20.8834 14.7351 20.8212L15.2173 20.2816L14.6484 19.6176L15.4445 20.0179L15.6881 19.7231C15.7549 19.7888 15.7254 19.9591 15.7254 19.9591C15.9743 19.966 16.6724 20.3508 16.7088 21.25C16.7114 21.2777 16.7114 21.3079 16.7114 21.3382L16.7296 21.3676C16.7791 21.4359 16.9152 21.6097 17.0878 21.6253L18.1891 21.7342H18.1934C18.3148 21.7342 18.555 21.5924 18.8629 21.5924C19.032 21.5924 19.2184 21.6356 19.4179 21.761C19.4179 21.761 19.5185 21.6815 19.6806 21.6728C19.6928 21.6711 19.7066 21.6711 19.7179 21.6711C20.2122 21.6711 20.4177 22.1172 20.6831 22.4882C20.8825 22.77 21.1487 23.1885 21.1487 23.1885C21.0508 23.3052 20.9588 23.3701 20.8053 23.3701C20.7576 23.3703 20.7099 23.3656 20.6631 23.3562C20.1341 23.2585 20.057 22.1717 19.7552 22.0852C19.7394 22.0811 19.723 22.079 19.7066 22.0792C19.6095 22.0792 19.567 22.1657 19.567 22.1657C19.7058 22.5366 19.6243 22.6861 19.7734 22.9724C19.8844 23.1842 20.0813 23.358 20.1628 23.441C20.1628 23.441 20.1411 23.6018 20.1168 23.722L20.1168 23.7211ZM19.1031 24.8624C18.9557 24.8624 18.8187 24.8641 18.6955 24.8693L19.0181 23.8655C19.0684 23.7263 18.8134 23.5473 18.7085 23.3899C18.8672 23.4902 19.2791 23.7098 19.4777 23.7963C19.349 24.1503 19.2241 24.5057 19.1031 24.8624ZM14.3058 15.8166L14.3517 14.0718L14.7437 13.6576L14.99 14.1729L14.5043 15.8477L14.3049 15.8175L14.3058 15.8166ZM14.5876 16.3579C14.6471 16.4715 14.7372 16.5664 14.8477 16.632C14.8447 16.7978 14.8288 16.9631 14.8 17.1265C14.7914 17.1646 14.7827 17.2 14.7714 17.2355C14.7662 17.258 14.7593 17.2761 14.755 17.2908C14.6344 17.2908 14.3994 17.2761 14.2078 17.2061C13.9944 17.1283 13.6762 16.7374 13.7499 16.3069C13.8418 16.2507 14.0551 16.1305 14.2554 16.1305C14.4089 16.1305 14.5139 16.2031 14.5876 16.3579ZM19.1281 16.8265C18.8272 17.0487 18.0502 17.615 17.7684 17.8122L15.0559 17.3245L15.075 17.2527C15.1096 17.1118 15.1469 16.9199 15.1487 16.6942L17.4285 16.7305L17.4718 16.6873C17.5065 16.6527 18.2289 15.9549 18.5966 15.5546C18.6842 15.6644 18.7934 15.7682 18.9374 15.8598C18.8888 16.1279 18.9087 16.5066 19.1281 16.8265ZM15.4401 12.8157C15.767 13.1391 16.0853 13.3405 16.3888 13.4512C16.3498 13.6068 16.2978 13.9302 16.4434 14.251C16.5631 14.5104 16.7799 14.7092 17.093 14.8424C17.1277 15.1623 17.3297 15.6439 17.8908 15.8566C17.6445 16.1039 17.4051 16.3373 17.3097 16.4307L15.0343 16.3953C14.9591 16.3594 14.8968 16.3015 14.8556 16.2293C14.8513 16.218 14.8435 16.212 14.8383 16.1999L15.2103 16.2604L15.2337 16.2612C15.2687 16.2615 15.3026 16.2492 15.3294 16.2267C15.3561 16.2042 15.3738 16.1729 15.3794 16.1385C15.3857 16.0997 15.3764 16.0601 15.3535 16.0282C15.3306 15.9963 15.296 15.9747 15.2572 15.9681L14.8002 15.8955L15.3066 14.1481L14.827 13.1391L14.0578 13.9518L14.011 15.7684L13.4942 15.6863C13.4144 15.6707 13.3381 15.7295 13.3233 15.8099C13.3176 15.8488 13.3273 15.8885 13.3505 15.9203C13.3737 15.9521 13.4084 15.9737 13.4473 15.9802L13.6641 16.0131C13.5861 16.0572 13.5349 16.0926 13.5289 16.097L13.4855 16.1281L13.4734 16.1817C13.3476 16.6918 13.6321 17.176 13.939 17.3922L13.9278 17.457C13.9156 17.5349 13.933 17.6127 13.9798 17.6758C14.0064 17.7141 14.0421 17.7454 14.0837 17.7668C14.1253 17.7882 14.1715 17.7991 14.2183 17.7986C14.284 17.798 14.3476 17.7754 14.3988 17.7342C14.4499 17.6931 14.4856 17.6359 14.5001 17.572C14.6146 17.585 14.7195 17.5885 14.7906 17.5885H14.8522L17.8362 18.1271L17.8873 18.0934C18.1249 17.9274 19.032 17.2677 19.3286 17.0489C19.4109 17.119 19.502 17.183 19.6121 17.2357C19.5159 17.5582 19.5098 18.0536 19.8896 18.4462H12.2845V14.0625C12.2845 13.6371 12.1604 13.2099 12.013 12.8157L15.4401 12.8157ZM15.0291 6.20124L17.014 6.87307V9.98764L15.5528 9.2181L15.0291 6.20043V6.20124ZM19.8712 5.82512C19.8712 5.06509 18.5904 4.38117 17.1769 4.38117H17.1682C15.7547 4.38117 14.4748 5.06509 14.4748 5.82512L14.5026 6.01188L15.0671 9.24828L14.5 9.57681L13.0336 10.4328H13.0388C13.0388 10.4328 12.7093 10.6023 12.5558 10.706C11.9973 11.0934 11.8785 11.6589 12.2028 11.8923C12.2826 11.4315 12.6477 10.9499 13.3302 10.9499C13.8227 10.9499 14.1973 11.2041 14.5008 11.5836C14.5789 11.6796 14.6526 11.7825 14.7211 11.8923C14.8061 12.0315 14.8919 12.1543 14.9761 12.2719H11.1969C11.4744 12.8296 11.7389 13.4201 11.7389 14.0617V22.4158C11.7389 24.4374 13.2955 25.4023 14.9795 25.4023C16.2812 25.4023 16.4563 25.3435 17.1743 26.0577C17.8889 25.3435 18.0649 25.4023 19.3674 25.4023C21.0524 25.4023 22.6065 24.4374 22.6065 22.4158V14.0617C22.6065 13.4201 22.871 12.8296 23.1502 12.2719H19.3692C19.4542 12.1543 19.5392 12.0315 19.6242 11.8923C19.6936 11.7825 19.7673 11.6796 19.8436 11.5836C20.1488 11.2023 20.5235 10.9499 21.016 10.9499C21.6984 10.9499 22.0626 11.4315 22.1433 11.8923C22.4676 11.6589 22.3506 11.0934 21.7878 10.706C21.6386 10.6023 21.3074 10.4328 21.3074 10.4328H21.3134L19.8436 9.57681L19.2799 9.24828L19.8436 6.01188L19.8712 5.82512ZM4.48581 9.77297C4.79106 9.45909 5.11276 9.36402 5.39028 9.36402C5.81691 9.36402 6.14038 9.59141 6.14038 9.59141C4.98706 10.2053 4.74943 11.1892 4.09039 11.4115C3.98306 11.4486 3.87013 11.467 3.75654 11.466C3.27177 11.466 2.80263 11.153 2.64307 10.7959C2.64307 10.7959 3.53103 10.7414 4.48581 9.77297ZM3.75651 11.8602C3.9152 11.8602 4.07043 11.836 4.21783 11.7858C4.6306 11.6492 4.89425 11.3215 5.17174 10.9791C5.45531 10.6307 5.77441 10.2355 6.32767 9.94156L6.89654 9.63633L6.36756 9.26455C6.3242 9.23774 5.9279 8.97056 5.39028 8.97056C4.94975 8.97056 4.54044 9.14954 4.20313 9.49366C3.38192 10.3315 2.64569 10.3989 2.61879 10.3998L2.04644 10.4335L2.28058 10.9583C2.51818 11.4814 3.1391 11.8602 3.75651 11.8602ZM6.34328 16.446C6.28258 14.958 6.66411 13.7518 7.26248 12.7573C6.9295 13.7932 6.97458 15.0607 8.11233 16.2455C8.11233 16.2455 5.85073 13.5392 9.01157 10.7671C10.2759 9.71143 11.6591 9.0595 12.3703 8.59776C9.7983 9.43646 8.54179 8.51302 8.54179 8.51302C9.36299 9.2246 10.427 9.21337 11.0869 9.10962C10.9083 9.19694 10.721 9.28773 10.5215 9.39582C8.35101 10.5726 6.4026 12.5104 6.06775 15.1922V15.1723C5.56395 17.806 4.44181 18.4822 4.44181 18.4822C5.335 18.0412 5.89694 16.874 6.03392 16.4537C6.18308 18.7692 7.31388 20.3755 8.63543 21.9224C9.32223 22.7239 9.56331 23.503 9.56331 23.503C9.56331 23.503 9.42977 22.6202 8.83401 21.9017C7.60265 20.4206 6.43021 18.5773 6.3435 16.4457L6.34328 16.446ZM16.4292 11.0185V11.5512C16.613 11.3272 16.9669 11.373 16.9669 11.373V12.14C16.9669 12.14 16.9556 12.517 16.8212 12.6804H17.5895C17.456 12.517 17.4429 12.14 17.4429 12.14V11.373C17.4429 11.373 17.7985 11.3272 17.9806 11.5512V11.0185H16.4283H16.4292ZM16.0997 7.86461C16.3451 8.05915 16.4873 8.092 16.4917 8.0946L16.5871 8.1387V7.63808L15.6852 7.25935C15.6852 7.25935 15.693 7.54989 16.0997 7.86461ZM18.2451 7.86461C18.6526 7.54986 18.6613 7.25936 18.6613 7.25936L17.7586 7.63809V8.13958L17.854 8.09461C17.8583 8.09201 17.9997 8.05915 18.2451 7.86461ZM28.9575 9.36473C29.2332 9.36473 29.5558 9.45897 29.8593 9.77284C30.815 10.7412 31.7038 10.7957 31.7038 10.7957C31.5425 11.1528 31.0742 11.4667 30.5895 11.4667C30.4776 11.4667 30.364 11.4494 30.2539 11.4105C29.5957 11.1891 29.3607 10.2043 28.2065 9.59128C28.2065 9.59128 28.5273 9.36473 28.9575 9.36473ZM28.0183 9.94058C28.5707 10.2346 28.8933 10.6297 29.176 10.979C29.4535 11.3205 29.7162 11.6491 30.1299 11.7857C30.2756 11.8359 30.4308 11.8601 30.5895 11.8601C31.2078 11.8601 31.8295 11.4814 32.0654 10.9574L32.3021 10.4334L31.7289 10.3989C31.7021 10.3989 30.9641 10.3306 30.1437 9.4936C29.8056 9.14947 29.3971 8.96964 28.9574 8.96964C28.4198 8.96964 28.0209 9.23767 27.9775 9.26535L27.4503 9.63629L28.0183 9.94058ZM28.2776 15.1725V15.1923C27.9446 12.5103 25.9952 10.5733 23.8244 9.39596C23.625 9.28875 23.4385 9.1971 23.259 9.11063C23.919 9.21266 24.983 9.22476 25.8051 8.51403C25.8051 8.51403 24.5477 9.43659 21.975 8.5979C22.686 9.05962 24.0709 9.71155 25.3353 10.7664C28.4944 13.5401 26.2345 16.2447 26.2345 16.2447C27.3705 15.0611 27.4173 13.7935 27.0826 12.7579C27.681 13.7522 28.0625 14.9584 28.0036 16.4465C27.9168 18.5779 26.7436 20.4211 25.5096 21.9025C24.9164 22.6202 24.7846 23.5038 24.7846 23.5038C24.7846 23.5038 25.024 22.7248 25.7099 21.9233C27.0323 20.3756 28.164 18.77 28.3114 16.4546C28.4484 16.8756 29.0121 18.0429 29.9052 18.483C29.9052 18.483 28.7822 17.8069 28.2776 15.1732L28.2776 15.1725ZM11.0902 25.3197C7.79764 25.3197 7.8819 22.5001 7.8819 22.5001C7.8819 22.5001 7.65123 23.3353 6.73464 23.5524C6.62268 23.5805 6.50756 23.5941 6.39211 23.593C6.09726 23.593 5.84059 23.5238 5.84059 23.5238C5.84059 23.5238 6.32013 22.5105 5.84233 21.0933C5.44862 19.9175 5.51283 19.0451 5.51283 19.0451C5.51283 19.0451 5.06972 19.7152 3.96925 19.7221H3.95798C3.04309 19.7221 2.64332 19.0278 2.64332 19.0278C4.83726 18.1173 4.6222 15.1801 4.6222 15.1801C4.6222 15.1801 4.33603 15.3928 3.78104 15.4135H3.72293C2.51234 15.4135 2.10219 14.12 2.10219 14.12H2.12734C2.35107 14.12 4.14698 14.0681 5.41739 12.4539C6.2542 11.393 6.94101 10.46 8.29281 10.0934L8.42896 10.0692L8.45757 9.93344C8.49573 9.72765 8.35352 9.5331 8.03268 9.32475C6.16393 8.10217 7.43263 6.54324 7.43263 6.54324C7.43263 6.54324 7.96332 7.78917 9.16092 7.78917L9.24763 7.7883C9.38291 7.78138 9.51559 7.77533 9.64653 7.74766L9.86679 7.7053C9.86679 7.7053 9.52513 6.78013 10.3489 5.93107C10.9681 5.2895 11.7199 5.18056 12.1544 5.18056C12.3755 5.18056 12.5117 5.20909 12.5117 5.20909C12.1006 5.74775 11.8023 6.64266 12.2775 7.1943C12.6903 7.66901 13.6953 7.69148 13.6953 8.39788C13.6953 8.69792 13.4152 9.04724 12.9132 9.36108C11.4 10.3122 9.89895 11.5745 9.27427 13.2665C8.49556 15.3762 9.37486 16.7769 10.6296 17.581C10.6296 17.581 10.2351 17.9425 9.66449 17.9883C9.55266 17.999 9.44038 18.0045 9.32802 18.0047C8.12437 18.0047 7.50177 17.4409 7.50177 17.4409C7.50177 17.4409 7.60583 18.22 8.22846 18.9445C8.80949 19.612 9.56823 20.0054 10.7259 20.0219C10.7259 20.0219 10.7632 20.558 10.2507 21.0231C9.92208 21.3171 9.16501 21.4122 9.16501 21.4122C9.16501 21.4122 10.5846 21.6993 10.7407 23.7917C10.8257 24.9261 11.1135 25.3195 11.1135 25.3195L11.0902 25.3197ZM11.4396 25.0949C11.4388 25.0906 11.209 24.7317 11.1353 23.7634C11.0485 22.603 10.6098 21.9252 10.1753 21.5361C10.3011 21.4773 10.4181 21.4038 10.5152 21.3156C11.1526 20.7432 11.1257 20.0705 11.1214 19.9962L11.0971 19.633L10.732 19.6279C9.75908 19.6123 9.08008 19.3218 8.52943 18.6837C8.41072 18.5455 8.30505 18.3967 8.21376 18.2392C8.51728 18.3318 8.88843 18.4001 9.32809 18.4001C9.44516 18.4001 9.5683 18.3931 9.69752 18.3845C10.1401 18.3404 10.5586 18.1624 10.8968 17.8744L11.2758 17.5259L10.8439 17.2492C9.8762 16.631 8.88676 15.4595 9.64724 13.4043C10.1389 12.0685 11.2758 10.8588 13.1245 9.69826C13.7488 9.30484 14.0905 8.84052 14.0905 8.39784C14.0905 7.71392 13.5181 7.44416 13.0984 7.25134C12.8938 7.15364 12.6805 7.0568 12.5773 6.93659C12.2521 6.56047 12.5253 5.84025 12.8279 5.4494L13.2147 4.9436L12.5877 4.81996C12.5704 4.81736 12.4056 4.78711 12.1541 4.78711C11.6867 4.78711 10.7927 4.90038 10.0643 5.6552C9.45636 6.28292 9.37658 6.95131 9.4078 7.38274C9.34883 7.38793 9.28986 7.39052 9.22743 7.39312H9.16065C8.24493 7.39312 7.81307 6.42474 7.7966 6.38754L7.53905 5.78229L7.1228 6.29243C7.09939 6.32355 6.48975 7.08098 6.6389 8.03122C6.73689 8.66241 7.13405 9.20711 7.81566 9.655C7.89024 9.70255 7.9414 9.74319 7.97869 9.77691C6.6918 10.1945 5.97466 11.1102 5.21675 12.0725L5.10749 12.2091C3.94894 13.6816 2.30902 13.7257 2.11314 13.7257L1.55469 13.7084L1.72465 14.2393C1.7446 14.3033 2.23887 15.8103 3.72262 15.8103L3.79373 15.8077C3.95069 15.8034 4.09205 15.7818 4.21691 15.7576C4.15621 16.579 3.85271 18.0981 2.48949 18.6628L2.07325 18.8357L2.29871 19.2274C2.31953 19.2629 2.82596 20.1162 3.97237 20.1162C4.38269 20.1203 4.7879 20.0254 5.15346 19.8396C5.19768 20.2113 5.28961 20.6878 5.46826 21.2213C5.88276 22.4542 5.49687 23.3197 5.48213 23.3543L5.27748 23.7849L5.73968 23.9068C5.77089 23.9154 6.05534 23.9863 6.39178 23.9863C6.85472 23.9875 7.30272 23.8231 7.65439 23.5229C7.78012 23.9094 7.99605 24.346 8.36979 24.7325C9.00629 25.3853 9.92117 25.7147 11.1161 25.7147L11.8402 25.7052L11.4396 25.0949ZM15.4156 20.3351C15.4024 20.3341 15.3891 20.3357 15.3765 20.3398C15.364 20.344 15.3524 20.3506 15.3424 20.3593C15.3325 20.368 15.3244 20.3786 15.3186 20.3905C15.3129 20.4024 15.3096 20.4153 15.3089 20.4285C15.3078 20.4417 15.3095 20.455 15.3137 20.4675C15.3179 20.48 15.3247 20.4916 15.3335 20.5014C15.3423 20.5113 15.3531 20.5193 15.3651 20.5249C15.3771 20.5305 15.3902 20.5336 15.4034 20.534C15.4299 20.5357 15.456 20.5269 15.4761 20.5096C15.4962 20.4923 15.5087 20.4679 15.511 20.4415C15.5124 20.4148 15.5031 20.3886 15.4853 20.3687C15.4674 20.3488 15.4423 20.3367 15.4156 20.3351ZM19.9474 28.0389L19.5008 26.8112C20.0324 26.6495 20.9455 26.3019 21.3557 26.0711L21.0825 26.9642L22.0078 27.2712C21.4476 27.5513 20.7695 27.8133 19.9474 28.0381L19.9474 28.0389ZM17.1742 29.1414C16.098 29.1414 14.8701 28.8941 14.5076 28.7652L15.0574 27.2798C15.5136 27.4129 16.4622 27.5539 17.1517 27.5496H17.195C17.8835 27.5539 18.8314 27.4121 19.2901 27.2798L19.839 28.7652C19.4765 28.8949 18.2487 29.1414 17.1742 29.1414ZM12.3389 27.2712L13.2651 26.9642L12.991 26.071C13.3994 26.3019 14.3152 26.6504 14.845 26.8112L14.3985 28.0389C13.579 27.8141 12.8982 27.5513 12.3389 27.2712ZM22.0496 26.9988L21.4859 26.7827L21.642 26.2016L21.8128 25.5679C21.8128 25.5679 20.8156 26.1091 19.4081 26.5147C19.0093 26.6288 18.7075 26.6815 18.7075 26.6815V27.113C18.7075 27.113 17.9548 27.2427 17.1952 27.2427H17.1518C16.3904 27.2427 15.6395 27.113 15.6395 27.113V26.6807C15.6395 26.6807 15.3368 26.6288 14.9379 26.5147C13.5322 26.1083 12.535 25.5679 12.535 25.5679L12.7032 26.2016L12.8628 26.7827L12.2974 26.9988L11.6704 27.2323C12.3884 27.579 13.3839 28.0831 14.2945 28.3321L14.0803 28.9183C14.0803 28.9183 15.2353 29.444 17.1597 29.4492V29.45H17.1857V29.4492C19.1126 29.444 20.2676 28.9183 20.2676 28.9183L20.0508 28.3321C20.9622 28.0831 21.9595 27.5798 22.674 27.2323L22.0496 26.9988ZM14.8215 3.34488L15.0774 3.37255L15.1875 3.1391L15.5101 2.45L16.1084 2.75955L16.3408 2.878L17.1716 2.05486L17.8193 2.6947L18.0049 2.878L18.2373 2.75955L18.8322 2.45L19.16 3.1391L19.2684 3.37255L19.5242 3.34488L19.7687 3.31635C19.6569 3.56796 19.5745 3.80748 19.5146 4.00632C18.8686 3.64576 18.0292 3.44171 17.1724 3.44171C16.3191 3.44171 15.4797 3.64576 14.8311 4.00632C14.7611 3.77131 14.6765 3.54087 14.5778 3.31635L14.8207 3.34488H14.8215ZM17.1716 3.80055C18.3188 3.80055 19.2354 4.18098 19.7427 4.58476C19.7427 4.58476 19.8936 3.6795 20.407 2.88143L19.4835 2.98519L19.0004 1.96058L18.0726 2.43872L17.1716 1.54989L16.274 2.43872L15.3444 1.96058L14.8623 2.98606L13.9387 2.88057C14.453 3.6795 14.603 4.5839 14.603 4.5839C15.1129 4.18009 16.0269 3.80055 17.1716 3.80055ZM31.7038 19.0274C31.7038 19.0274 31.3049 19.7217 30.3892 19.7217H30.3779C29.2783 19.7148 28.8343 19.0447 28.8343 19.0447C28.8343 19.0447 28.8985 19.9162 28.5031 21.093C28.0261 22.511 28.5066 23.5226 28.5066 23.5226C28.5066 23.5226 28.2499 23.5927 27.9542 23.5927C27.8414 23.5927 27.7235 23.5814 27.6116 23.552C26.6933 23.335 26.4644 22.4998 26.4644 22.4998C26.4644 22.4998 26.5494 25.3193 23.2567 25.3193H23.2307C23.2307 25.3193 23.5212 24.9259 23.6071 23.7915C23.7631 21.6991 25.1818 21.4112 25.1818 21.4112C25.1818 21.4112 24.4248 21.3161 24.0961 21.023C23.5836 20.5586 23.6192 20.0217 23.6192 20.0217C24.7778 20.0053 25.5374 19.6119 26.1158 18.9435C26.4886 18.5159 26.74 17.9969 26.8442 17.4399C26.8442 17.4399 26.2216 18.0045 25.0171 18.0045C24.9113 18.0045 24.7986 17.9994 24.6824 17.9881C24.1118 17.9423 23.7181 17.58 23.7181 17.58C24.972 16.7768 25.8514 15.3752 25.0718 13.2654C24.4474 11.5751 22.9454 10.3119 21.4341 9.36066C20.9311 9.04679 20.6502 8.69748 20.6502 8.39746C20.6502 7.69106 21.6561 7.66859 22.0689 7.19388C22.5458 6.64224 22.2466 5.74736 21.8339 5.20868C21.8339 5.20868 21.9726 5.18014 22.192 5.18014C22.6273 5.18014 23.38 5.28909 23.9992 5.93065C24.8204 6.77974 24.4796 7.70488 24.4796 7.70488L24.6999 7.74811C24.8317 7.77491 24.9626 7.78096 25.0988 7.78788L25.1872 7.78875C26.3813 7.78875 26.9146 6.54196 26.9146 6.54196C26.9146 6.54196 28.1842 8.10176 26.3154 9.32434C25.9937 9.53271 25.8515 9.72727 25.8888 9.93302L25.9183 10.0688L26.0509 10.0921C27.4055 10.4596 28.0914 11.3934 28.9283 12.4534C30.1996 14.0677 31.9982 14.1196 32.2193 14.1196H32.2436C32.2436 14.1196 31.8334 15.414 30.6237 15.414C30.6038 15.414 30.5864 15.414 30.5665 15.4122C30.0115 15.3924 29.7253 15.1797 29.7253 15.1797C29.7253 15.1797 29.5094 18.1167 31.7042 19.0274L31.7038 19.0274ZM30.6233 15.8099C32.1062 15.8099 32.6022 14.3029 32.623 14.2389L32.7878 13.7072L32.2328 13.7245H32.2312C32.0344 13.7245 30.3989 13.6812 29.2394 12.2088L29.1293 12.0722C28.3714 11.1098 27.6525 10.1942 26.3673 9.77654C26.4187 9.73171 26.4735 9.69095 26.5312 9.65463C27.2128 9.20674 27.61 8.66291 27.7088 8.03085C27.8554 7.08061 27.2475 6.32322 27.2215 6.29206L26.8087 5.78192L26.5503 6.38717C26.533 6.42435 26.0994 7.39275 25.1871 7.39275H25.1195C25.057 7.39014 24.9972 7.38756 24.9382 7.38237C24.9703 6.95005 24.8914 6.28255 24.2844 5.65483C23.5551 4.89998 22.6602 4.78674 22.1919 4.78674C21.9422 4.78674 21.7757 4.81787 21.7575 4.81959L21.134 4.94324L21.5181 5.44903C21.8199 5.83985 22.0939 6.5601 21.7696 6.93623C21.6656 7.05727 21.4522 7.15325 21.2485 7.25097C20.8288 7.44378 20.2547 7.71355 20.2547 8.39747C20.2547 8.84015 20.5989 9.30447 21.2233 9.69789C23.0686 10.8574 24.2081 12.0678 24.6999 13.4039C25.4613 15.4583 24.4683 16.6307 23.5032 17.2479L23.0713 17.5255L23.4503 17.8731C23.5015 17.918 23.9636 18.3253 24.6479 18.3841C24.7779 18.3927 24.902 18.3996 25.0182 18.3996C25.4561 18.3996 25.8298 18.3305 26.1334 18.2388C26.0426 18.3967 25.9369 18.5455 25.8177 18.6832C25.267 19.3213 24.5889 19.6119 23.6133 19.6274L23.2508 19.6326L23.223 19.9957C23.2196 20.0692 23.1927 20.7428 23.8301 21.3152C23.9281 21.4034 24.046 21.4768 24.17 21.5356C23.7364 21.9247 23.2976 22.6026 23.2126 23.7629C23.1407 24.7313 22.9091 25.0901 22.9065 25.0944L22.5059 25.7049L23.2299 25.7144C24.4258 25.7144 25.3415 25.3858 25.9754 24.7322C26.3037 24.3888 26.5488 23.975 26.6917 23.5225C27.0438 23.8219 27.4915 23.9863 27.9543 23.986C28.2925 23.986 28.5752 23.9142 28.6064 23.9073L29.0686 23.7845L28.8648 23.354C28.8492 23.3194 28.4642 22.4547 28.8787 21.2209C29.0573 20.6874 29.1484 20.2101 29.1926 19.8375C29.484 19.9897 29.8733 20.1142 30.3772 20.1159C31.5218 20.1159 32.0257 19.2625 32.0482 19.2271L32.2737 18.8345L31.8557 18.6633C30.4925 18.0979 30.1907 16.5796 30.1301 15.7581C30.2541 15.7814 30.3945 15.8031 30.5532 15.8074L30.6233 15.8099Z" fill="white"/>
<path d="M44.1549 19.7489H46.7564V13.7138H50.3291V11.5176H40.582V13.7138H44.1547L44.1549 19.7489ZM58.2205 11.5174L53.8845 16.3075V11.5174H51.3697V19.7489H53.5897L57.9256 14.9587V19.7489H60.4404V11.5174H58.2205ZM64.8603 16.6879H68.9012V19.7487H71.416V11.5173H68.9012V14.5262H64.8603V11.5173H62.3455V19.7487H64.8603V16.6879ZM78.4194 19.7487C78.9917 19.7487 79.512 19.6969 79.9976 19.5585C81.2984 19.1954 82.1482 18.1405 82.1482 16.7052C82.1482 15.3391 81.4198 14.388 80.2578 13.9557C79.7028 13.7482 79.0437 13.7309 78.4194 13.7309H75.8352V11.5174H73.3204V19.7488L78.4194 19.7487ZM75.8352 15.6676H77.9858C78.3327 15.6676 78.6622 15.6676 78.957 15.7713C79.3733 15.9097 79.6161 16.2555 79.6161 16.6706C79.6161 17.1029 79.3733 17.466 78.9744 17.6389C78.6969 17.76 78.4194 17.76 77.9858 17.76H75.8352V15.6676ZM85.9637 16.636H86.6575L89.6579 19.7487H93.0051L88.8252 15.4601L92.849 11.5176H89.6927L86.6576 14.6129H85.9638V11.5176H83.449V19.749H85.9638L85.9637 16.636ZM98.1797 11.2925C94.7976 11.2925 92.7686 13.1947 92.7686 15.6502C92.7686 18.1056 94.7978 20.0078 98.1797 20.0078C101.544 20.0078 103.573 18.1056 103.573 15.6502C103.573 13.1947 101.544 11.2925 98.1797 11.2925ZM98.1797 18.0021C96.4974 18.0021 95.4221 16.9992 95.4221 15.6503C95.4221 14.3015 96.4973 13.3158 98.1797 13.3158C99.8447 13.3158 100.937 14.3015 100.937 15.6503C100.937 16.9992 99.8447 18.0021 98.1797 18.0021ZM111.949 11.8806V11.0505H109.434V11.8806C106.277 11.9497 104.387 13.2813 104.387 15.6331C104.387 17.985 106.277 19.2127 109.434 19.2818V20.1119H111.949V19.2818C115.122 19.2126 117.013 17.9849 117.013 15.6331C117.013 13.2814 115.123 11.9497 111.949 11.8806ZM109.434 17.5179C107.7 17.4487 106.936 16.7398 106.936 15.633C106.936 14.5263 107.7 13.7308 109.434 13.6617V17.5179ZM111.949 17.5179V13.6615C113.7 13.7307 114.446 14.5261 114.446 15.6329C114.446 16.7396 113.7 17.4488 111.949 17.5179ZM125.379 11.8806V11.0505H122.865V11.8806C119.708 11.9497 117.818 13.2813 117.818 15.6331C117.818 17.985 119.708 19.2127 122.865 19.2818V20.1119H125.379V19.2818C128.553 19.2126 130.444 17.9849 130.444 15.6331C130.444 13.2814 128.553 11.9497 125.379 11.8806ZM122.865 17.5179C121.13 17.4487 120.367 16.7398 120.367 15.633C120.367 14.5263 121.13 13.7308 122.865 13.6617V17.5179ZM125.379 17.5179V13.6615C127.131 13.7307 127.877 14.5261 127.877 15.6329C127.877 16.7396 127.131 17.4488 125.379 17.5179Z" fill="white"/>
</svg>
