<svg width="115" height="24" viewBox="0 0 115 24" fill="none" xmlns="http://www.w3.org/2000/svg">
<g clip-path="url(#clip0_146_1067)">
<path d="M-0.0268555 0.00167847H11.5866C11.5866 3.81354 11.5866 7.62706 11.5866 11.4389C7.716 11.4389 3.84541 11.4389 -0.0268555 11.4389V0.00167847Z" fill="#F25022"/>
<path d="M11.5868 0.00167847H12.7734C12.7734 3.81354 12.7734 7.62706 12.7734 11.4389C16.6439 11.4389 20.5145 11.4389 24.3851 11.4389C24.3868 7.62706 24.3851 3.81354 24.3851 0.00167847H114.294V8.89658C113.466 8.89989 112.637 8.88995 111.809 8.90154C111.79 7.86871 111.807 6.83589 111.8 5.80472C110.972 6.05134 110.148 6.31285 109.315 6.54623C109.294 7.32913 109.313 8.11368 109.304 8.89658C108.079 8.89658 106.856 8.89823 105.631 8.89492C105.646 8.27754 105.587 7.65685 105.678 7.04278C105.752 6.55947 106.037 6.07616 106.515 5.88913C107.118 5.64581 107.792 5.80802 108.365 6.0563C108.362 5.34954 108.37 4.64278 108.36 3.93602C107.153 3.6083 105.77 3.67285 104.699 4.35975C104.009 4.79506 103.508 5.49189 103.283 6.2632C103.015 7.11892 103.152 8.02264 103.109 8.89988C102.528 8.89657 101.948 8.88996 101.368 8.9032C101.375 9.56361 101.372 10.2257 101.37 10.8844C101.953 10.896 102.535 10.8828 103.118 10.8927C103.113 13.6734 103.116 16.4541 103.116 19.2348C103.953 19.2348 104.79 19.2348 105.627 19.2348C105.627 16.4541 105.627 13.6717 105.627 10.8911C106.852 10.8894 108.078 10.8894 109.303 10.8911C109.306 12.6637 109.299 14.4364 109.306 16.2091C109.318 17.0351 109.461 17.9173 110.015 18.5694C110.496 19.1471 111.259 19.4102 111.995 19.4632C112.772 19.5178 113.573 19.4235 114.291 19.1173V24.0447H24.3851C24.3851 20.2328 24.3851 16.4193 24.3851 12.6075C20.5145 12.6075 16.6423 12.6075 12.7717 12.6075C12.77 16.4193 12.7717 20.2312 12.7717 24.0447H11.5851C11.5851 20.2328 11.5851 16.421 11.5851 12.6075C7.71454 12.6058 3.84227 12.6075 -0.0283203 12.6058V11.4389C3.84227 11.4389 7.71454 11.4389 11.5851 11.4389C11.5868 7.62706 11.5851 3.8152 11.5868 0.00167847Z" fill="#FEFEFE"/>
<path d="M12.7715 0.00167847H24.3849C24.3849 3.81354 24.3849 7.62706 24.3849 11.4389C20.5143 11.4389 16.6438 11.4389 12.7732 11.4389C12.7715 7.62706 12.7715 3.8152 12.7715 0.00167847Z" fill="#80BA01"/>
<path d="M104.701 4.35973C105.772 3.67283 107.155 3.60994 108.362 3.93601C108.372 4.64277 108.363 5.34952 108.367 6.05628C107.794 5.80801 107.12 5.6458 106.516 5.88911C106.037 6.07614 105.753 6.55945 105.679 7.04276C105.589 7.65683 105.647 8.27752 105.632 8.8949C106.858 8.89821 108.083 8.8949 109.306 8.89656C109.315 8.11366 109.296 7.32911 109.316 6.54621C110.15 6.31283 110.974 6.05132 111.802 5.8047C111.809 6.83587 111.792 7.8687 111.811 8.90152C112.639 8.88994 113.468 8.89821 114.296 8.89656V10.9059C113.464 10.8728 112.632 10.8977 111.8 10.8944C111.804 12.0497 111.8 13.2033 111.802 14.3586C111.816 14.9975 111.767 15.6414 111.844 16.2786C111.889 16.6544 112.029 17.0715 112.387 17.2651C112.987 17.5961 113.747 17.4521 114.296 17.088V19.1172C113.579 19.4235 112.777 19.5178 112 19.4632C111.264 19.4102 110.501 19.1454 110.021 18.5694C109.466 17.9172 109.323 17.035 109.311 16.2091C109.305 14.4364 109.311 12.6637 109.308 10.891C108.083 10.891 106.858 10.8894 105.632 10.891C105.631 13.6717 105.632 16.4541 105.632 19.2348C104.795 19.2348 103.958 19.2348 103.121 19.2348C103.121 16.4541 103.118 13.6734 103.123 10.8927C102.54 10.8811 101.958 10.896 101.375 10.8844C101.377 10.224 101.38 9.5636 101.374 8.90318C101.953 8.88994 102.533 8.8949 103.115 8.89987C103.157 8.02263 103.021 7.1189 103.288 6.26318C103.51 5.49187 104.011 4.79504 104.701 4.35973Z" fill="#777777"/>
<path d="M50.9244 4.50372C51.4303 4.42758 51.9782 4.59806 52.3144 4.98868C52.7076 5.41572 52.7799 6.096 52.4891 6.59586C52.1665 7.15862 51.4454 7.42013 50.8169 7.28606C50.1648 7.1702 49.6219 6.57434 49.6505 5.90731C49.632 5.20717 50.227 4.58317 50.9244 4.50372Z" fill="#777777"/>
<path d="M31.674 4.80993C32.8925 4.80993 34.1093 4.80993 35.3261 4.80993C36.4623 7.65351 37.6085 10.4938 38.7463 13.3374C39.0371 14.0491 39.3093 14.7674 39.6135 15.4725C41.0757 11.9189 42.5598 8.37517 44.0119 4.8182C45.1833 4.8 46.3547 4.81324 47.5261 4.81158C47.5228 9.61986 47.5245 14.4265 47.5261 19.2348C46.6808 19.2331 45.8354 19.2414 44.9917 19.2298C45.0001 15.6811 44.9917 12.1341 44.995 8.58537C44.9967 8.42648 44.9917 8.26593 44.9799 8.10703C44.9312 8.18152 44.8858 8.25765 44.8488 8.3371C43.3967 11.9685 41.9177 15.5901 40.474 19.2248C39.8724 19.2463 39.2707 19.2265 38.669 19.2364C37.1715 15.605 35.6925 11.9652 34.2035 8.33048C34.1648 8.25434 34.1228 8.18151 34.0774 8.11034C34.0472 9.66455 34.0724 11.2204 34.064 12.7746C34.064 14.928 34.0623 17.0797 34.064 19.2331C33.2673 19.2348 32.469 19.2331 31.6724 19.2331C31.674 14.4281 31.6724 9.6182 31.674 4.80993Z" fill="#777777"/>
<path d="M57.8355 8.88661C59.0473 8.5473 60.3548 8.56054 61.5666 8.8982C61.817 8.96606 62.059 9.06206 62.2826 9.19282C62.2691 9.98068 62.2826 10.7685 62.2742 11.5581C61.4641 10.949 60.4372 10.5633 59.4069 10.6907C58.5901 10.7636 57.8103 11.1807 57.3212 11.8312C56.6926 12.6372 56.5481 13.7081 56.6557 14.6946C56.7363 15.4676 57.0607 16.2389 57.6708 16.7503C58.3044 17.3048 59.1918 17.5018 60.0204 17.4389C60.8389 17.3462 61.612 17.0052 62.2742 16.5285C62.2809 17.275 62.2708 18.0215 62.2792 18.768C61.2523 19.3705 60.0221 19.5244 58.8456 19.4681C57.6439 19.4052 56.4439 18.9567 55.5733 18.1241C54.6271 17.227 54.1145 15.9459 54.054 14.6632C53.9935 13.3291 54.2674 11.9387 55.0473 10.8248C55.7027 9.8764 56.7229 9.20275 57.8355 8.88661Z" fill="#777777"/>
<path d="M74.8542 8.70951C76.0592 8.55889 77.3315 8.6251 78.4491 9.12662C79.4205 9.55862 80.2071 10.3548 80.6424 11.3098C81.1079 12.3261 81.2205 13.4681 81.1415 14.5705C81.0642 15.6463 80.7214 16.7255 80.0373 17.5812C79.3382 18.4899 78.2827 19.104 77.1533 19.3341C76.1886 19.5327 75.1785 19.531 74.2121 19.3308C73.0575 19.0874 71.9886 18.427 71.3096 17.467C70.5147 16.3548 70.2878 14.9396 70.3903 13.6055C70.4592 12.4734 70.8155 11.333 71.5499 10.4458C72.355 9.45269 73.5869 8.86676 74.8542 8.70951Z" fill="#777777"/>
<path d="M85.2726 8.72938C86.434 8.52745 87.6491 8.67641 88.7482 9.08524C88.7499 9.84331 88.7482 10.6014 88.7482 11.3594C87.9802 10.8397 87.0424 10.56 86.1096 10.5914C85.6407 10.6097 85.1247 10.805 84.9096 11.2452C84.7399 11.6806 84.8575 12.2499 85.2743 12.5114C85.9869 12.9799 86.8356 13.1801 87.5735 13.6006C88.155 13.9217 88.718 14.3421 89.0121 14.9479C89.5651 16.0833 89.3314 17.5829 88.3583 18.4287C87.4306 19.2828 86.0928 19.5194 84.8625 19.4748C83.9886 19.4185 83.1113 19.2497 82.3096 18.8971C82.313 18.0993 82.3046 17.3032 82.313 16.5054C82.9886 16.9887 83.7667 17.3346 84.5919 17.4737C85.1667 17.5663 85.7903 17.5697 86.3247 17.3164C86.8373 17.0665 86.9281 16.3498 86.6256 15.9112C86.3415 15.5735 85.923 15.3881 85.5298 15.2044C84.7903 14.8767 84.0121 14.6019 83.3617 14.112C82.9046 13.7611 82.5583 13.2662 82.4239 12.7084C82.2239 11.8858 82.2861 10.9589 82.7718 10.2405C83.3281 9.40469 84.2911 8.90317 85.2726 8.72938Z" fill="#777777"/>
<path d="M94.8723 8.70621C96.1261 8.55228 97.4572 8.63669 98.6001 9.20441C99.5984 9.696 100.372 10.5832 100.758 11.6094C101.061 12.3939 101.166 13.2414 101.148 14.0789C101.15 15.3285 100.808 16.6097 100.012 17.5994C99.2673 18.5578 98.1278 19.1818 96.9244 19.3771C95.748 19.5641 94.5043 19.5161 93.3866 19.0825C92.2539 18.6439 91.3127 17.7484 90.8354 16.6444C90.3379 15.5205 90.2858 14.2543 90.4404 13.0527C90.6034 11.851 91.1547 10.6759 92.0975 9.87807C92.869 9.21103 93.8623 8.83365 94.8723 8.70621Z" fill="#777777"/>
<path d="M67.8993 9.05546C68.5917 8.64498 69.4741 8.61022 70.2304 8.86181C70.227 9.68608 70.2304 10.512 70.2287 11.3363C69.7329 11.0201 69.1161 10.8844 68.5312 10.944C67.8186 11.0235 67.2539 11.563 66.9598 12.1821C66.6422 12.8359 66.5817 13.5774 66.6018 14.2924C66.6018 15.941 66.6018 17.5879 66.6018 19.2364C65.7766 19.2364 64.9514 19.2364 64.1262 19.2364C64.1245 15.792 64.1296 12.3476 64.1245 8.90319C64.9514 8.89326 65.7783 8.89656 66.6035 8.90153C66.6001 9.49243 66.6035 10.085 66.6018 10.6759C66.8707 10.032 67.2707 9.40636 67.8993 9.05546Z" fill="#777777"/>
<path d="M49.8774 8.89985C50.7111 8.89654 51.543 8.88827 52.3766 8.90482C52.3665 12.3492 52.3766 15.792 52.3716 19.2364C51.5396 19.2364 50.7094 19.2364 49.8774 19.2364C49.8774 15.7903 49.8808 12.3459 49.8774 8.89985Z" fill="#777777"/>
<path d="M75.6019 10.6726C76.3565 10.6246 77.1599 10.8348 77.7028 11.3744C78.2826 11.9371 78.5078 12.7515 78.57 13.5294C78.6154 14.3801 78.5784 15.2673 78.217 16.0568C77.9767 16.5881 77.5381 17.0384 76.9834 17.2502C76.3347 17.4952 75.6053 17.5101 74.9364 17.3396C74.254 17.1625 73.6775 16.6775 73.3616 16.0601C72.9565 15.264 72.896 14.3454 72.9801 13.4731C73.0557 12.6803 73.3364 11.8643 73.9498 11.3164C74.3952 10.9059 75.0019 10.7057 75.6019 10.6726Z" fill="#FEFEFE"/>
<path d="M95.5498 10.6742C96.259 10.6262 97.017 10.7868 97.5615 11.2585C98.0641 11.669 98.3431 12.2847 98.4708 12.9037C98.6136 13.6304 98.6136 14.3818 98.4909 15.1134C98.3952 15.6579 98.2035 16.2008 97.8422 16.6312C97.4775 17.0632 96.9346 17.328 96.375 17.4091C95.7733 17.4985 95.1397 17.4555 94.5783 17.2171C93.9716 16.9639 93.501 16.4475 93.254 15.8516C92.9565 15.1432 92.8977 14.357 92.9565 13.5989C93.0136 12.864 93.2254 12.1109 93.7178 11.5399C94.1666 11.0086 94.8557 10.7139 95.5498 10.6742Z" fill="#FEFEFE"/>
<path d="M111.8 10.8943C112.632 10.8976 113.464 10.8728 114.296 10.9059V17.0896C113.747 17.4521 112.985 17.5961 112.387 17.2668C112.029 17.0731 111.891 16.656 111.844 16.2803C111.769 15.643 111.816 14.9992 111.802 14.3603C111.8 13.2033 111.804 12.048 111.8 10.8943Z" fill="#FEFEFE"/>
<path d="M-0.0268555 12.6058C3.84373 12.6075 7.716 12.6058 11.5866 12.6075C11.5866 16.4193 11.5866 20.2312 11.5866 24.0447H-0.0268555V12.6058Z" fill="#02A4EF"/>
<path d="M12.7732 12.6075C16.6438 12.6058 20.5144 12.6075 24.3867 12.6075C24.3867 16.4193 24.3867 20.2328 24.3867 24.0447H12.7732C12.7732 20.2312 12.7715 16.4193 12.7732 12.6075Z" fill="#FFB902"/>
</g>
<defs>
<clipPath id="clip0_146_1067">
<rect width="114.286" height="24" fill="white"/>
</clipPath>
</defs>
</svg>
