<svg width="182" height="40" viewBox="0 0 182 40" fill="none" xmlns="http://www.w3.org/2000/svg">
<g clip-path="url(#clip0_145_1031)">
<path d="M0 5.68182L16.1409 3.45455V19.1364H0M18.085 3.13636L39.4705 0V19H18.085M0 20.7909H16.1409V36.5182L0 34.2455M18.085 21H39.4705V39.8182L18.085 36.7727M51.5423 7.72727L54.5987 7.74545L59.346 25.0636C59.6851 26.2727 59.9337 27.5091 60.0875 28.7636C61.7422 21.6727 64.0029 14.7636 65.9199 7.76364L68.5648 7.77273L72.652 22.7727C73.1629 24.7636 73.8276 26.7273 74.031 28.7727C75.523 21.6818 77.6616 14.7727 79.3661 7.77273L82.3772 7.75909L75.6858 31.85H72.4305L67.5927 14.5318C67.3215 13.6 67.2084 12.6364 67.1225 11.6682C66.9959 12.5 66.8784 13.3409 66.6704 14.1545L61.7875 31.7909C60.7024 31.85 59.6173 31.8545 58.5322 31.8455L51.5694 7.75454M84.0953 7.90909C84.1528 7.45022 84.3821 7.03062 84.7365 6.73572C85.0909 6.44082 85.5438 6.29279 86.0029 6.32175C86.462 6.35071 86.8929 6.5545 87.2079 6.89162C87.5228 7.22874 87.6981 7.67386 87.6981 8.13636C87.6981 8.59886 87.5228 9.04398 87.2079 9.38111C86.8929 9.71823 86.462 9.92201 86.0029 9.95098C85.5438 9.97994 85.0909 9.8319 84.7365 9.537C84.3821 9.24211 84.1528 8.82251 84.0953 8.36364M84.5022 14.5455H87.215V31.8182H84.5022M94.5213 17.3273C96.0721 14.5545 99.6891 13.2727 102.605 14.5545C104.925 15.4636 105.788 18.1636 105.861 20.4636C105.987 24.2455 105.883 28.0318 105.915 31.8136C105.011 31.8136 104.106 31.8136 103.202 31.8091C103.157 28.1727 103.293 24.5364 103.139 20.9C103.067 19.1 102.307 16.9364 100.358 16.4773C97.5099 15.6136 94.6751 18.1909 94.5846 21.0227C94.5032 24.6136 94.5801 28.2182 94.553 31.8136H91.8402V14.5455H94.553L94.5168 17.3273M122.074 6.36364H124.787V31.8182H122.083L122.006 29.0455C120.048 32.5818 114.817 33.3636 111.833 30.7409C109.695 28.8909 109.044 25.8773 109.157 23.15C109.179 20.3864 110.083 17.4682 112.276 15.65C115.125 13.2955 120.143 13.4318 122.133 16.8909L122.115 6.34545M116.282 16.3909C114.112 16.7364 112.643 18.7273 112.236 20.7864C111.702 23.2682 111.797 26.15 113.352 28.2409C115.034 30.4864 118.733 30.5364 120.541 28.4136C121.762 27.1318 122.115 25.2955 122.124 23.5955C122.137 21.7773 122.291 19.7318 121.093 18.2318C120.035 16.7182 118.064 16.0364 116.3 16.4136M135.185 14.1409C137.604 13.9273 140.294 14.3091 142.103 16.0682C144.156 17.9773 144.771 20.9318 144.653 23.6136C144.621 26.0455 143.726 28.5227 141.954 30.2045C138.255 33.5864 131.374 32.8409 129.023 28.1955C127.178 24.3 127.549 18.9227 130.922 15.9682C132.129 14.9409 133.657 14.4682 135.172 14.1318M134.684 16.6045C130.705 17.8318 130.027 23.0591 131.27 26.5136C132.265 29.5682 136.108 30.9227 138.911 29.4955C140.787 28.6318 141.642 26.4955 141.823 24.5409C142.026 22.2682 141.845 19.6773 140.24 17.9045C138.884 16.3682 136.587 16.0409 134.679 16.6M146.036 14.5455H148.867L152.213 26.9091C152.439 27.6818 152.529 28.4818 152.61 29.2818C153.89 24.3273 155.504 19.4636 156.96 14.5545L159.433 14.5682C160.676 19.4773 162.223 24.2955 163.253 29.2955C164.316 24.3864 165.831 19.5227 167.006 14.6591C167.91 14.6136 168.824 14.6 169.737 14.5909L164.628 31.8636H161.816C160.595 27.1818 159.012 22.5909 158.018 17.8636C156.842 22.5909 155.201 27.1818 153.858 31.8636H151.146L146.036 14.5909M176.329 14.0909C178.024 13.9727 179.751 14.1364 181.348 14.7636C181.791 15.6091 181.447 16.7182 181.551 17.6727C179.652 16.4773 177.03 15.7182 174.95 16.9318C173.535 17.7045 173.467 19.9909 174.846 20.8409C176.822 22.1273 179.331 22.4636 181.085 24.1136C183.02 25.9864 182.55 29.5682 180.285 30.9773C177.527 32.7409 173.91 32.5682 171.016 31.2227L170.994 28.1682C173.046 29.7409 175.922 30.6136 178.409 29.4955C179.842 28.7682 179.914 26.5591 178.653 25.6318C176.677 24.1682 173.951 23.9364 172.233 22.1091C170.501 20.3545 170.813 17.1091 172.744 15.6545C173.738 14.7318 175.095 14.4545 176.361 14.0955" fill="white"/>
</g>
<defs>
<clipPath id="clip0_145_1031">
<rect width="182" height="40" fill="white"/>
</clipPath>
</defs>
</svg>
