<svg width="19" height="15" fill="none" xmlns="http://www.w3.org/2000/svg"><path fill-rule="evenodd" clip-rule="evenodd" d="M4.453 1.502c-1.314.6-2.276 2.028-2.276 3.731 0 1.74.712 3.08 1.732 4.23.842.947 1.86 1.732 2.853 2.497.236.182.47.363.7.544.417.329.788.617 1.146.826.358.21.647.305.892.305s.534-.096.892-.305c.358-.21.73-.497 1.146-.826.23-.181.464-.362.7-.544.993-.765 2.011-1.55 2.853-2.497 1.02-1.15 1.732-2.49 1.732-4.23 0-1.703-.962-3.13-2.276-3.73-1.276-.584-2.99-.43-4.62 1.263a.594.594 0 01-.855 0C7.443 1.073 5.73.919 4.452 1.502zm5.047.027C7.67-.108 5.62-.337 3.959.422 2.205 1.224.989 3.086.989 5.233c0 2.11.88 3.72 2.033 5.018.923 1.04 2.053 1.91 3.05 2.678.227.174.446.344.655.508.406.32.84.66 1.282.918.441.258.944.467 1.491.467.546 0 1.05-.209 1.49-.467.442-.258.877-.598 1.283-.918.209-.164.428-.334.654-.508.998-.768 2.128-1.638 3.051-2.678 1.153-1.298 2.032-2.908 2.032-5.018 0-2.147-1.215-4.009-2.969-4.811-1.661-.76-3.71-.53-5.541 1.107z" fill="#7C839D"/></svg>