<svg width="15" height="17" viewBox="0 0 15 17" fill="none" xmlns="http://www.w3.org/2000/svg">
<path d="M14.1342 1.50981C14.1333 1.39213 14.0974 1.27739 14.0312 1.18012C13.9649 1.08287 13.8713 1.00748 13.7621 0.963553C13.6551 0.916354 13.5362 0.903181 13.4215 0.925846C13.3068 0.948504 13.2018 1.00589 13.1208 1.09023L1.04001 13.1631C0.92882 13.2744 0.866365 13.4254 0.866365 13.5827C0.866365 13.7401 0.92882 13.891 1.04001 14.0023L2.94793 15.9102C3.05925 16.0215 3.21017 16.0838 3.36751 16.0838C3.52485 16.0838 3.67576 16.0215 3.78709 15.9102L6.8825 12.8148L8.60042 14.5327C8.70436 14.6357 8.84259 14.6967 8.98865 14.704C9.13479 14.7112 9.2784 14.6644 9.39209 14.5723C9.58209 14.414 14.1342 10.5981 14.1342 1.50981ZM2.30668 13.5827L12.8992 2.95856C12.535 8.9673 10.0017 12.2052 9.02 13.2502L7.30208 11.5323C7.19078 11.4212 7.03988 11.3587 6.8825 11.3587C6.7252 11.3587 6.57423 11.4212 6.46292 11.5323L3.36751 14.6277L2.30668 13.5827Z" fill="#7C839D"/>
</svg>
