<svg width="228" height="60" viewBox="0 0 228 60" fill="none" xmlns="http://www.w3.org/2000/svg">
<g clip-path="url(#clip0_140_1164)">
<path d="M25.1194 0H0V60L25.1194 0Z" fill="#808080"/>
<path d="M42.793 0H67.8796V60L42.793 0Z" fill="#808080"/>
<path d="M33.9561 22.1138L49.9442 59.9999H39.4546L34.6761 47.9378H22.9756L33.9561 22.1138Z" fill="#808080"/>
<path d="M108.86 38.156L111.822 46.6387C111.92 46.8512 112.067 46.9493 112.329 46.9493H118.024C118.335 46.9493 118.384 46.8022 118.335 46.4917L106.569 13.852C106.52 13.5905 106.471 13.5415 106.209 13.5415H99.1393C98.943 13.5415 98.8284 13.6886 98.8284 13.9011C98.7302 15.6172 98.583 16.1403 98.3702 16.6469L87.8806 46.4426C87.8315 46.8022 87.9461 46.9493 88.2406 46.9493H93.33C93.6409 46.9493 93.7882 46.8512 93.9027 46.5407L96.7011 38.156H108.86ZM98.3211 32.6153C99.8594 27.9735 101.889 22.0242 102.707 18.6246H102.756C103.77 22.1876 106.16 29.2484 107.24 32.6153H98.3211Z" fill="#808080"/>
<path d="M133.461 47.4559C136.521 47.4559 139.777 46.9002 143.083 45.4783C143.345 45.3802 143.394 45.2658 143.394 45.0206C143.296 44.1053 143.181 42.7814 143.181 41.7681V11.0408C143.181 10.8446 143.181 10.7466 142.936 10.7466H137.388C137.175 10.7466 137.077 10.8446 137.077 11.1062V21.5175C136.21 21.4194 135.604 21.3704 134.884 21.3704C125.933 21.3704 120.435 27.2707 120.435 34.642C120.435 43.1901 126.08 47.4559 133.461 47.4559ZM137.077 41.7681C136.161 42.0623 135.146 42.1767 134.115 42.1767C130.057 42.1767 126.735 39.8885 126.735 34.3314C126.735 29.4118 130.155 26.5025 134.688 26.5025C135.604 26.5025 136.406 26.6006 137.077 26.8621V41.7681Z" fill="#808080"/>
<path d="M161.092 21.3706C153.45 21.3706 148.72 27.2219 148.72 34.4461C148.72 40.9021 152.484 47.4561 160.977 47.4561C168.161 47.4561 173.201 42.1769 173.201 34.2826C173.201 27.3199 168.93 21.3706 161.092 21.3706ZM160.781 26.5027C165.101 26.5027 166.934 30.2129 166.934 34.4461C166.934 39.6762 164.234 42.275 161.092 42.275C157.213 42.275 154.922 39.0225 154.922 34.3317C154.922 29.5101 157.361 26.5027 160.781 26.5027Z" fill="#808080"/>
<path d="M178.937 10.7466C178.724 10.7466 178.577 10.8446 178.577 11.1062V45.8869C178.577 46.034 178.724 46.2955 178.937 46.3445C181.375 47.0963 183.928 47.4559 186.562 47.4559C194.106 47.4559 201.438 42.7814 201.438 33.3671C201.438 26.5515 196.758 21.3704 189.426 21.3704C187.741 21.3704 186.17 21.6319 184.795 22.0895L184.73 11.1552C184.73 10.7956 184.631 10.7466 184.271 10.7466H178.937ZM195.17 33.9882C195.17 39.627 191.308 42.2748 187.135 42.2748C186.268 42.2748 185.499 42.2257 184.795 42.0133V27.1726C185.597 26.8621 186.563 26.6006 188.346 26.6006C192.372 26.6006 195.17 29.1503 195.17 33.9882Z" fill="#808080"/>
<path d="M222.141 35.819C224.628 35.819 226.674 35.77 227.378 35.6065C227.64 35.5575 227.738 35.4594 227.787 35.2469C227.934 34.6912 228 33.5308 228 32.1088C228 27.2709 225.087 21.3706 217.559 21.3706C209.868 21.3706 205.597 27.6305 205.597 34.6912C205.597 40.9511 208.902 47.4561 218.165 47.4561C221.634 47.4561 223.876 46.9004 225.807 45.9851C226.003 45.8871 226.101 45.7236 226.101 45.4294V41.1963C226.101 40.9511 225.954 40.9021 225.807 41.0001C223.876 41.8174 221.781 42.226 219.49 42.226C214.303 42.226 211.946 39.3657 211.799 35.819H222.141ZM211.799 31.4387C212.208 28.9544 213.779 26.2576 217.297 26.2576C221.176 26.2576 222.19 29.5101 222.19 30.9811C222.19 31.0301 222.19 31.2426 222.19 31.3897C221.977 31.4387 221.323 31.4387 219.392 31.4387H211.799Z" fill="#808080"/>
</g>
<defs>
<clipPath id="clip0_140_1164">
<rect width="228" height="60" fill="white"/>
</clipPath>
</defs>
</svg>
