<svg width="280" height="60" viewBox="0 0 280 60" fill="none" xmlns="http://www.w3.org/2000/svg">
<g clip-path="url(#clip0_140_1123)">
<path d="M-0.065918 0.00390625H28.387C28.387 9.53356 28.387 19.0674 28.387 28.597C18.9041 28.597 9.42114 28.597 -0.065918 28.597V0.00390625Z" fill="#808080"/>
<path d="M31.29 0.00390625H59.743C59.743 9.53356 59.743 19.0674 59.743 28.597C50.26 28.597 40.7771 28.597 31.2942 28.597C31.29 19.0674 31.29 9.5377 31.29 0.00390625Z" fill="#808080"/>
<path d="M256.517 10.8989C259.14 9.18169 262.529 9.02445 265.485 9.83962C265.51 11.6065 265.49 13.3734 265.498 15.1403C264.094 14.5196 262.443 14.1141 260.964 14.7224C259.791 15.19 259.095 16.3982 258.914 17.6065C258.691 19.1417 258.835 20.6934 258.798 22.2369C261.8 22.2451 264.802 22.2369 267.8 22.241C267.82 20.2838 267.775 18.3224 267.824 16.3651C269.867 15.7817 271.884 15.1279 273.914 14.5114C273.931 17.0893 273.89 19.6713 273.935 22.2534C275.965 22.2245 277.995 22.2451 280.025 22.241V27.2645C277.987 27.1817 275.948 27.2438 273.91 27.2355C273.918 30.1238 273.91 33.0079 273.914 35.8962C273.947 37.4934 273.828 39.1031 274.017 40.6962C274.128 41.6355 274.47 42.6782 275.347 43.1624C276.817 43.99 278.678 43.63 280.025 42.7196V47.7927C278.267 48.5582 276.303 48.7941 274.4 48.6576C272.597 48.5251 270.727 47.8631 269.55 46.4231C268.191 44.7927 267.841 42.5872 267.812 40.5224C267.795 36.0907 267.812 31.6589 267.804 27.2272C264.802 27.2272 261.8 27.2231 258.798 27.2272C258.794 34.1789 258.798 41.1348 258.798 48.0865C256.748 48.0865 254.697 48.0865 252.647 48.0865C252.647 41.1348 252.638 34.1831 252.651 27.2313C251.222 27.2024 249.797 27.2396 248.368 27.2107C248.372 25.5596 248.381 23.9086 248.364 22.2576C249.785 22.2245 251.205 22.2369 252.63 22.2493C252.733 20.0562 252.4 17.7969 253.054 15.6576C253.598 13.7293 254.825 11.9872 256.517 10.8989Z" fill="#808080"/>
<path d="M124.765 11.2592C126.004 11.0688 127.347 11.495 128.17 12.4716C129.134 13.5392 129.311 15.2399 128.598 16.4895C127.808 17.8964 126.041 18.5502 124.501 18.215C122.904 17.9254 121.574 16.4357 121.644 14.7681C121.598 13.0178 123.056 11.4578 124.765 11.2592Z" fill="#808080"/>
<path d="M77.6013 12.0246C80.5866 12.0246 83.5678 12.0246 86.5489 12.0246C89.3325 19.1336 92.1407 26.2343 94.9283 33.3433C95.6407 35.1226 96.3078 36.9184 97.0531 38.6812C100.635 29.7971 104.271 20.9377 107.829 12.0453C110.699 11.9998 113.569 12.0329 116.439 12.0288C116.431 24.0495 116.435 36.066 116.439 48.0867C114.368 48.0826 112.297 48.1033 110.23 48.0743C110.25 39.2026 110.23 30.335 110.238 21.4633C110.242 21.066 110.23 20.6646 110.201 20.2674C110.081 20.4536 109.97 20.6439 109.88 20.8426C106.322 29.9212 102.698 38.975 99.1613 48.0619C97.6872 48.1157 96.213 48.066 94.7389 48.0908C91.0701 39.0122 87.4466 29.9129 83.7983 20.826C83.7036 20.6357 83.6007 20.4536 83.4895 20.2757C83.4154 24.1612 83.4772 28.0508 83.4566 31.9364C83.4566 37.3198 83.4525 42.6991 83.4566 48.0826C81.5048 48.0867 79.5489 48.0826 77.5972 48.0826C77.6013 36.0702 77.5972 24.0453 77.6013 12.0246Z" fill="#808080"/>
<path d="M141.697 22.2161C144.665 21.3678 147.869 21.4009 150.838 22.2451C151.451 22.4147 152.044 22.6547 152.592 22.9816C152.559 24.9513 152.592 26.9209 152.571 28.8947C150.587 27.3719 148.071 26.4078 145.547 26.7264C143.545 26.9085 141.635 27.9513 140.437 29.5775C138.897 31.5926 138.543 34.2699 138.806 36.7361C139.004 38.6685 139.798 40.5968 141.293 41.8754C142.845 43.2616 145.02 43.754 147.05 43.5968C149.055 43.365 150.949 42.5126 152.571 41.3209C152.588 43.1871 152.563 45.0533 152.584 46.9195C150.068 48.4257 147.054 48.8106 144.171 48.6699C141.227 48.5126 138.287 47.3913 136.154 45.3099C133.836 43.0671 132.58 39.8644 132.432 36.6575C132.284 33.3223 132.955 29.8464 134.865 27.0616C136.471 24.6906 138.971 23.0064 141.697 22.2161Z" fill="#808080"/>
<path d="M183.392 21.7735C186.344 21.3969 189.461 21.5625 192.2 22.8163C194.58 23.8963 196.507 25.8866 197.573 28.2742C198.714 30.8149 198.99 33.67 198.796 36.4259C198.607 39.1156 197.767 41.8135 196.091 43.9528C194.378 46.2245 191.792 47.7597 189.025 48.3349C186.661 48.8314 184.187 48.8273 181.819 48.3266C178.99 47.7183 176.371 46.0673 174.708 43.6673C172.76 40.8866 172.204 37.3487 172.456 34.0135C172.624 31.1832 173.497 28.3321 175.297 26.1142C177.269 23.6314 180.287 22.1666 183.392 21.7735Z" fill="#808080"/>
<path d="M208.917 21.8232C211.762 21.3184 214.739 21.6908 217.432 22.7129C217.436 24.6081 217.432 26.5032 217.432 28.3984C215.55 27.0991 213.253 26.3998 210.967 26.4784C209.819 26.5239 208.555 27.0122 208.028 28.1129C207.612 29.2012 207.9 30.6246 208.921 31.2784C210.667 32.4495 212.746 32.9501 214.554 34.0012C215.979 34.8039 217.358 35.855 218.079 37.3695C219.433 40.2081 218.861 43.957 216.477 46.0715C214.204 48.2067 210.926 48.7984 207.912 48.6867C205.771 48.546 203.622 48.1239 201.658 47.2426C201.666 45.2481 201.645 43.2577 201.666 41.2632C203.321 42.4715 205.228 43.3364 207.249 43.6839C208.658 43.9157 210.185 43.9239 211.495 43.2908C212.75 42.666 212.973 40.8743 212.232 39.7777C211.536 38.9336 210.51 38.4701 209.547 38.0108C207.735 37.1915 205.829 36.5046 204.235 35.2798C203.115 34.4026 202.267 33.1653 201.937 31.7708C201.447 29.7143 201.6 27.397 202.79 25.6012C204.153 23.5115 206.512 22.2577 208.917 21.8232Z" fill="#808080"/>
<path d="M232.437 21.7654C235.509 21.3806 238.77 21.5916 241.57 23.0109C244.016 24.2399 245.91 26.4578 246.857 29.0233C247.599 30.9847 247.858 33.1033 247.813 35.1971C247.817 38.3212 246.981 41.524 245.029 43.9985C243.205 46.3943 240.413 47.9543 237.465 48.4426C234.583 48.9102 231.536 48.7902 228.797 47.7061C226.022 46.6095 223.716 44.3709 222.547 41.6109C221.328 38.8012 221.2 35.6357 221.579 32.6316C221.979 29.6274 223.329 26.6895 225.639 24.695C227.529 23.0274 229.963 22.084 232.437 21.7654Z" fill="#808080"/>
<path d="M166.353 22.6382C168.05 21.612 170.211 21.5251 172.064 22.1541C172.056 24.2148 172.064 26.2796 172.06 28.3403C170.846 27.5499 169.334 27.2106 167.901 27.3596C166.156 27.5582 164.772 28.9072 164.051 30.4548C163.273 32.0892 163.125 33.943 163.174 35.7306C163.174 39.852 163.174 43.9692 163.174 48.0906C161.153 48.0906 159.131 48.0906 157.109 48.0906C157.105 39.4796 157.117 30.8686 157.105 22.2575C159.131 22.2327 161.157 22.241 163.179 22.2534C163.17 23.7306 163.179 25.212 163.174 26.6892C163.833 25.0796 164.813 23.5154 166.353 22.6382Z" fill="#808080"/>
<path d="M122.2 22.2494C124.242 22.2411 126.28 22.2204 128.323 22.2618C128.298 30.8728 128.323 39.4797 128.31 48.0907C126.272 48.0907 124.238 48.0907 122.2 48.0907C122.2 39.4756 122.208 30.8645 122.2 22.2494Z" fill="#808080"/>
<path d="M185.224 26.6811C187.073 26.5611 189.041 27.0867 190.371 28.4356C191.792 29.8425 192.344 31.8784 192.496 33.8232C192.607 35.9501 192.516 38.168 191.631 40.1418C191.042 41.4701 189.968 42.5956 188.609 43.1253C187.019 43.7377 185.232 43.7749 183.594 43.3487C181.922 42.906 180.509 41.6935 179.735 40.1501C178.743 38.1598 178.595 35.8632 178.801 33.6825C178.986 31.7004 179.674 29.6604 181.176 28.2908C182.268 27.2646 183.754 26.7639 185.224 26.6811Z" fill="#FEFEFE"/>
<path d="M234.097 26.6854C235.834 26.5654 237.691 26.9668 239.025 28.1461C240.257 29.1723 240.94 30.7116 241.253 32.2592C241.603 34.0757 241.603 35.9543 241.302 37.7833C241.068 39.1447 240.598 40.5019 239.713 41.5778C238.819 42.6578 237.489 43.3199 236.118 43.5226C234.644 43.7461 233.092 43.6385 231.717 43.0426C230.23 42.4095 229.077 41.1185 228.472 39.6288C227.743 37.8578 227.599 35.8923 227.743 33.9971C227.883 32.1599 228.402 30.2771 229.608 28.8495C230.708 27.5212 232.396 26.7847 234.097 26.6854Z" fill="#FEFEFE"/>
<path d="M273.91 27.2358C275.948 27.2441 277.986 27.182 280.025 27.2648V42.7241C278.678 43.6303 276.813 43.9903 275.347 43.1668C274.47 42.6827 274.132 41.6399 274.017 40.7006C273.832 39.1075 273.947 37.4979 273.914 35.9006C273.91 33.0082 273.918 30.1199 273.91 27.2358Z" fill="#FEFEFE"/>
<path d="M-0.065918 31.5142C9.41702 31.5183 18.9041 31.5142 28.387 31.5183C28.387 41.048 28.387 50.5776 28.387 60.1114H-0.065918V31.5142Z" fill="#808080"/>
<path d="M31.2943 31.5184C40.7773 31.5143 50.2602 31.5184 59.7473 31.5184C59.7473 41.0481 59.7473 50.5819 59.7473 60.1115H31.2943C31.2943 50.5777 31.2902 41.0481 31.2943 31.5184Z" fill="#808080"/>
</g>
<defs>
<clipPath id="clip0_140_1123">
<rect width="280" height="60" fill="white"/>
</clipPath>
</defs>
</svg>
