<svg width="324" height="60" viewBox="0 0 324 60" fill="none" xmlns="http://www.w3.org/2000/svg">
<g clip-path="url(#clip0_140_1284)">
<path d="M0 8.52273L24.3 5.18182V28.7045H0M27.2269 4.70455L59.4227 0V28.5H27.2269M0 31.1864H24.3V54.7773L0 51.3682M27.2269 31.5H59.4227V59.7273L27.2269 55.1591M77.5966 11.5909L82.198 11.6182L89.345 37.5955C89.8555 39.4091 90.2299 41.2636 90.4613 43.1455C92.9526 32.5091 96.356 22.1455 99.242 11.6455L103.224 11.6591L109.377 34.1591C110.146 37.1455 111.147 40.0909 111.453 43.1591C113.7 32.5227 116.919 22.1591 119.485 11.6591L124.018 11.6386L113.945 47.775H109.044L101.761 21.7977C101.352 20.4 101.182 18.9545 101.053 17.5023C100.862 18.75 100.685 20.0114 100.372 21.2318L93.0207 47.6864C91.3871 47.775 89.7535 47.7818 88.1198 47.7682L77.6375 11.6318M126.605 11.8636C126.692 11.1753 127.037 10.5459 127.57 10.1036C128.104 9.66123 128.786 9.43918 129.477 9.48263C130.168 9.52607 130.817 9.83175 131.291 10.3374C131.765 10.8431 132.029 11.5108 132.029 12.2045C132.029 12.8983 131.765 13.566 131.291 14.0717C130.817 14.5773 130.168 14.883 129.477 14.9265C128.786 14.9699 128.104 14.7479 127.57 14.3055C127.037 13.8632 126.692 13.2338 126.605 12.5455M127.218 21.8182H131.302V47.7273H127.218M142.301 25.9909C144.636 21.8318 150.081 19.9091 154.472 21.8318C157.964 23.1955 159.264 27.2455 159.373 30.6955C159.563 36.3682 159.407 42.0477 159.454 47.7205C158.093 47.7205 156.732 47.7205 155.37 47.7136C155.302 42.2591 155.506 36.8045 155.275 31.35C155.166 28.65 154.023 25.4045 151.089 24.7159C146.801 23.4205 142.533 27.2864 142.397 31.5341C142.274 36.9205 142.39 42.3273 142.349 47.7205H138.265V21.8182H142.349L142.295 25.9909M183.782 9.54545H187.866V47.7273H183.795L183.679 43.5682C180.732 48.8727 172.857 50.0455 168.364 46.1114C165.145 43.3364 164.165 38.8159 164.335 34.725C164.369 30.5795 165.73 26.2023 169.031 23.475C173.32 19.9432 180.875 20.1477 183.87 25.3364L183.843 9.51818M175.062 24.5864C171.795 25.1045 169.583 28.0909 168.97 31.1795C168.167 34.9023 168.31 39.225 170.651 42.3614C173.183 45.7295 178.751 45.8045 181.474 42.6205C183.312 40.6977 183.843 37.9432 183.856 35.3932C183.877 32.6659 184.108 29.5977 182.304 27.3477C180.712 25.0773 177.744 24.0545 175.089 24.6205M203.521 21.2114C207.163 20.8909 211.213 21.4636 213.935 24.1023C217.026 26.9659 217.951 31.3977 217.774 35.4205C217.727 39.0682 216.379 42.7841 213.711 45.3068C208.143 50.3795 197.783 49.2614 194.243 42.2932C191.466 36.45 192.024 28.3841 197.102 23.9523C198.92 22.4114 201.22 21.7023 203.501 21.1977M202.765 24.9068C196.776 26.7477 195.755 34.5886 197.626 39.7705C199.124 44.3523 204.91 46.3841 209.13 44.2432C211.955 42.9477 213.241 39.7432 213.513 36.8114C213.82 33.4023 213.547 29.5159 211.131 26.8568C209.089 24.5523 205.631 24.0614 202.759 24.9M219.857 21.8182H224.118L229.155 40.3636C229.495 41.5227 229.632 42.7227 229.754 43.9227C231.68 36.4909 234.11 29.1955 236.302 21.8318L240.025 21.8523C241.897 29.2159 244.225 36.4432 245.777 43.9432C247.377 36.5795 249.657 29.2841 251.427 21.9886C252.788 21.9205 254.163 21.9 255.538 21.8864L247.846 47.7955H243.613C241.775 40.7727 239.392 33.8864 237.895 26.7955C236.125 33.8864 233.654 40.7727 231.633 47.7955H227.549L219.857 21.8864M265.462 21.1364C268.015 20.9591 270.615 21.2045 273.018 22.1455C273.685 23.4136 273.167 25.0773 273.324 26.5091C270.465 24.7159 266.517 23.5773 263.386 25.3977C261.256 26.5568 261.154 29.9864 263.23 31.2614C266.204 33.1909 269.982 33.6955 272.623 36.1705C275.536 38.9795 274.828 44.3523 271.418 46.4659C267.266 49.1114 261.821 48.8523 257.464 46.8341L257.43 42.2523C260.521 44.6114 264.85 45.9205 268.593 44.2432C270.751 43.1523 270.86 39.8386 268.961 38.4477C265.986 36.2523 261.882 35.9045 259.295 33.1636C256.688 30.5318 257.158 25.6636 260.064 23.4818C261.562 22.0977 263.604 21.6818 265.51 21.1432M294.05 11.0455L295.48 10.8409V47.7273H291.45L291.498 16.9773C288.932 18.75 286.161 20.2773 283.126 21.1227L283.173 17.0318C287.121 15.6886 290.729 13.5205 293.996 10.9909M310.387 10.9773C313.926 10.3841 317.874 11.6795 319.984 14.6932C322.979 18.9205 323.251 24.375 323.401 29.3523C323.299 34.6295 322.72 40.3295 319.358 44.625C316.261 48.6955 309.896 49.65 305.744 46.6568C302.375 44.2227 301.048 39.975 300.456 36.0205C299.775 30.1773 299.843 24.0205 301.865 18.4977C303.144 14.7136 306.303 11.475 310.373 10.9977M309.747 14.6591C306.119 16.1318 305.077 20.4273 304.574 23.9318C304.043 28.8 303.92 33.8182 305.077 38.5909C305.656 40.95 306.874 43.4523 309.209 44.4886C311.864 45.825 315.403 44.6727 316.764 42.0545C318.99 38.2023 319.045 33.6 319.079 29.2364C318.99 25.0091 318.82 20.5091 316.492 16.8273C315.11 14.5909 312.136 13.6909 309.726 14.6591" fill="#808080"/>
</g>
<defs>
<clipPath id="clip0_140_1284">
<rect width="324" height="60" fill="white"/>
</clipPath>
</defs>
</svg>
