<svg width="326" height="60" viewBox="0 0 326 60" fill="none" xmlns="http://www.w3.org/2000/svg">
<g clip-path="url(#clip0_140_1266)">
<path d="M117.731 47.8623H110.319L103.092 20.3795L95.7845 47.8623H88.2086L78.271 12.1401H84.9939L92.1602 40.5546L99.9838 12.1401H106.774L114.128 40.7233L120.934 12.1401H127.426L117.731 47.8623Z" fill="#808080"/>
<path d="M136.928 14.7532C136.928 15.7189 136.572 16.5237 135.86 17.1675C135.164 17.8114 134.316 18.1333 133.316 18.1333C132.315 18.1333 131.467 17.8113 130.772 17.1675C130.076 16.5237 129.729 15.7189 129.729 14.7532C129.729 13.7705 130.076 12.9489 130.772 12.288C131.484 11.6273 132.332 11.2969 133.316 11.2969C134.35 11.2969 135.207 11.6358 135.885 12.3134C136.58 12.9912 136.928 13.8044 136.928 14.7532ZM130.223 47.861V22.1175H136.231V47.861H130.223Z" fill="#808080"/>
<path d="M159.353 47.8624V33.5289C159.353 29.7734 158.187 26.5338 154.399 26.5338C150.632 26.5338 148.243 29.9227 148.243 33.3511V47.8617H142.366V22.1182H148.243V25.7596H148.345C150.295 22.7432 153.11 21.6841 156.791 21.6841C159.555 21.6841 161.692 22.3638 163.202 24.1259C164.728 25.8879 165.398 28.5647 165.398 32.1566V47.8612L159.353 47.8624Z" fill="#808080"/>
<path d="M188.863 47.862V44.548H188.761C186.895 47.6824 183.087 48.405 180.432 48.405C172.541 48.405 169.646 42.2816 169.646 35.7653C169.646 31.445 170.722 27.9887 172.876 25.3965C175.047 22.7873 177.947 21.658 181.577 21.658C187.227 21.658 188.761 24.7983 188.761 24.7983H188.863V9.8999H194.958V47.8622L188.863 47.862ZM188.913 33.1925C188.913 30.0828 186.913 26.5496 182.691 26.5496C177.861 26.5496 175.984 30.7484 175.984 35.5878C175.984 39.8129 177.755 43.6475 182.354 43.7111C186.865 43.7111 188.877 39.417 188.913 35.8673V33.1925Z" fill="#808080"/>
<path d="M225.711 34.8768C225.711 43.7939 220.376 48.6243 212.364 48.6243C203.652 48.6243 199.187 43.4143 199.187 35.4356C199.187 26.3079 204.538 21.5601 213 21.5601C220.754 21.5601 225.711 26.5116 225.711 34.8768ZM219.452 35.08C219.452 31.1128 218.045 26.7029 212.669 26.7029C207.514 26.7029 205.511 30.5355 205.511 35.2325C205.511 40.3352 207.916 43.5807 212.633 43.5807C217.685 43.5807 219.415 39.7071 219.452 35.08Z" fill="#808080"/>
<path d="M257.956 47.862H251.326L246.258 29.2304L240.821 47.862H234.385L226.888 22.1973H233.18L238.076 42.136L243.798 22.1973H249.699L254.801 42.0843L259.574 22.1973H265.34L257.956 47.862Z" fill="#808080"/>
<path d="M284.212 40.6961C284.212 46.4276 279.009 48.6615 273.794 48.6615C270.397 48.6615 267.014 47.3544 267.014 47.3544V41.2581C267.014 41.2581 269.954 43.8174 274.061 43.8493C276.877 43.8493 278.145 42.9624 278.145 41.2738C278.214 39.9191 277.389 39.1721 276.402 38.6121C275.723 38.2055 274.663 37.7057 273.222 37.1126C271.526 36.3841 270.262 35.681 269.431 35.0033C268.617 34.3256 268.007 33.5293 267.599 32.6144C267.209 31.6996 266.921 30.6942 266.921 29.4743C266.921 24.8462 270.785 21.5762 276.961 21.5762C281.044 21.5762 282.813 22.5761 282.813 22.5761V28.3676C282.813 28.3676 279.912 26.3647 276.897 26.3465C274.738 26.3465 273.104 27.132 273.076 28.9098C273.061 31.2012 275.869 32.318 277.547 32.9959C279.989 33.9785 281.776 35.0275 282.777 36.2305C283.777 37.4334 284.212 38.6444 284.212 40.6961Z" fill="#808080"/>
<path d="M307.849 11.0986V47.8621H301.702V18.5367C301.702 18.5367 299.594 20.4819 294.184 21.8913V16.6582C302.224 13.6876 305.11 11.099 305.11 11.099L307.849 11.0986Z" fill="#808080"/>
<path d="M28.4686 0.000488281H0V28.4396H28.4686V0.000488281Z" fill="#808080"/>
<path d="M60.0609 0H31.5923V28.4391H60.0609V0Z" fill="#808080"/>
<path d="M28.4686 31.562H0V60.0011H28.4686V31.562Z" fill="#808080"/>
<path d="M60.0609 31.562H31.5923V60.0011H60.0609V31.562Z" fill="#808080"/>
<path d="M326.004 11.0986V47.8621H319.856V18.5367C319.856 18.5367 317.748 20.4819 312.338 21.8913V16.6582C320.379 13.6876 323.265 11.099 323.265 11.099L326.004 11.0986Z" fill="#808080"/>
</g>
<defs>
<clipPath id="clip0_140_1266">
<rect width="326" height="60" fill="white"/>
</clipPath>
</defs>
</svg>
