<svg width="45" height="45" fill="none" xmlns="http://www.w3.org/2000/svg"><path fill-rule="evenodd" clip-rule="evenodd" d="M11.25 3.75a1.875 1.875 0 013.75 0v1.875h15V3.75a1.875 1.875 0 113.75 0v1.875h1.875a5.625 5.625 0 015.625 5.625V37.5a5.625 5.625 0 01-5.625 5.625H9.375A5.625 5.625 0 013.75 37.5V11.25a5.625 5.625 0 015.625-5.625h1.875V3.75zM30 9.375v1.875a1.875 1.875 0 103.75 0V9.375h1.875c1.036 0 1.875.84 1.875 1.875v5.625h-30V11.25c0-1.036.84-1.875 1.875-1.875h1.875v1.875a1.875 1.875 0 003.75 0V9.375h15zM7.5 20.625V37.5c0 1.036.84 1.875 1.875 1.875h26.25c1.036 0 1.875-.84 1.875-1.875V20.625h-30z" fill="#2B59FF"/></svg>