<svg width="97" height="48" fill="none" xmlns="http://www.w3.org/2000/svg"><g clip-path="url(#clip0_4215_15151)"><path d="M55.458 38.789v8.085h4.462v-4.791h5.056c2.127-.015 3.933-1.385 4.618-3.294H55.458z" fill="#fff"/><path d="M54.863 32.126c.26 3.302 3.369 5.914 7.161 5.914h7.756c.06-.3.089-.614.089-.935 0-2.74-2.194-4.956-4.908-4.979H54.863z" fill="url(#paint0_linear_4215_15151)"/><path d="M48.26 37.958a.266.266 0 01.239-.142c.148 0 .26.12.267.262v8.72h4.462V32.127h-4.462c-.565.023-1.204.434-1.442.951l-3.547 7.666a.456.456 0 01-.037.09.298.298 0 01-.543-.173v-8.534h-4.462V46.8h4.462c.558-.03 1.182-.442 1.42-.95l3.644-7.869c-.008-.007 0-.015 0-.022zm-16.656.254l-2.61 8.587h-3.212l-2.603-8.594a.29.29 0 00-.29-.24.291.291 0 00-.29.292v8.534h-4.461V32.12h4.967c.818 0 1.68.644 1.918 1.43l2.172 7.149c.111.36.282.352.394 0l2.171-7.15c.238-.793 1.1-1.43 1.918-1.43h4.968v14.673h-4.462v-8.541a.291.291 0 00-.29-.292.303.303 0 00-.29.254z" fill="#fff"/></g><g clip-path="url(#clip1_4215_15151)"><path d="M24.044 23.097h-9.833V5.372h9.833v17.725z" fill="#FF5F00"/><path d="M14.841 14.233c0-3.596 1.679-6.799 4.293-8.863a11.17 11.17 0 00-6.946-2.41C5.981 2.96.95 8.007.95 14.233s5.031 11.273 11.238 11.273c2.622 0 5.034-.9 6.946-2.41a11.266 11.266 0 01-4.293-8.863z" fill="#EB001B"/><path d="M37.306 14.233c0 6.226-5.031 11.273-11.238 11.273-2.621 0-5.034-.9-6.946-2.41a11.265 11.265 0 004.293-8.863c0-3.596-1.678-6.799-4.293-8.863a11.172 11.172 0 016.946-2.41c6.207 0 11.238 5.047 11.238 11.273z" fill="#F79E1B"/></g><path d="M78.62 11.492A12.502 12.502 0 0075.066 11c-3.92 0-6.688 1.578-6.707 3.843-.025 1.664 1.967 2.602 3.473 3.157 1.546.572 2.063.932 2.058 1.443-.01.777-1.235 1.13-2.374 1.13-1.565 0-2.42-.175-3.736-.611l-.487-.182-.556 2.607c.953.317 2.67.59 4.444.613 4.166 0 6.89-1.568 6.922-3.978.035-1.329-1.043-2.333-3.312-3.163-1.379-.539-2.234-.899-2.234-1.445 0-.483.733-1 2.264-1a8.84 8.84 0 012.971.448l.368.131.556-2.52-.096.018zm10.171-.28h-3.062c-.953 0-1.67.21-2.087.965l-5.89 10.66h4.168l.833-1.748 5.085.004c.12.41.488 1.744.488 1.744H92l-3.209-11.625zm-26.069-.098h3.97L64.21 22.745h-3.966l2.479-11.635v.004zm-10.08 6.41l.411 1.616 3.88-7.928h4.206l-6.248 11.61h-4.197l-3.43-9.831a.7.7 0 00-.364-.39 19.897 19.897 0 00-3.9-1.153l.054-.244h6.391c.867.027 1.565.244 1.798.984l1.396 5.343.003-.006zm31.25 1.187l1.582-3.253c-.02.035.326-.672.527-1.108l.272 1.004.918 3.355H83.89l.003.002z" fill="#fff"/><defs><clipPath id="clip0_4215_15151"><path fill="#fff" transform="translate(15 31)" d="M0 0h58v17H0z"/></clipPath><clipPath id="clip1_4215_15151"><path fill="#fff" transform="translate(0 2)" d="M0 0h38v24H0z"/></clipPath><linearGradient id="paint0_linear_4215_15151" x1="54.865" y1="35.083" x2="69.868" y2="35.083" gradientUnits="userSpaceOnUse"><stop stop-color="#00A0E5"/><stop offset="1" stop-color="#0077C3"/></linearGradient></defs></svg>