<svg width="55" height="55" fill="none" xmlns="http://www.w3.org/2000/svg"><path fill-rule="evenodd" clip-rule="evenodd" d="M53.793 26.9c0 14.41-11.68 26.092-26.09 26.092-14.409 0-26.09-11.682-26.09-26.092C1.613 12.49 13.294.81 27.703.81c14.41 0 26.09 11.681 26.09 26.091zm-19.822-9.694c3.63 1.247 6.284 3.113 5.764 6.586-.379 2.543-1.794 3.773-3.674 4.204 2.58 1.338 3.459 3.876 2.642 6.946-1.551 4.418-5.238 4.79-10.141 3.866l-1.19 4.749-2.875-.715 1.174-4.685c-.745-.184-1.506-.381-2.29-.592l-1.18 4.708-2.871-.714 1.189-4.759-5.79-1.455 1.429-3.279s2.119.56 2.09.519c.813.2 1.175-.328 1.318-.679l3.226-12.889c.036-.608-.175-1.375-1.34-1.665.045-.032-2.088-.518-2.088-.518l.765-3.058 5.798 1.43 1.179-4.704 2.873.714-1.155 4.612c.773.174 1.55.352 2.304.54l1.147-4.583 2.874.715-1.178 4.706zm-6.877 7.848c1.958.52 6.218 1.65 6.96-1.313.758-3.03-3.38-3.945-5.407-4.393-.23-.05-.433-.096-.598-.137l-1.431 5.72c.136.033.297.076.476.123zm-2.218 9.209c2.345.618 7.473 1.969 8.29-1.295.835-3.337-4.138-4.448-6.564-4.99-.27-.061-.51-.115-.706-.163l-1.58 6.303c.161.04.35.09.56.145z" fill="#F7931A"/></svg>