<svg width="118" height="22" fill="none" xmlns="http://www.w3.org/2000/svg"><path d="M64.1 11.105v3.192a.222.222 0 01-.223.222h-2.522c-2.036-.033-2.854-.972-2.885-3.014.031-1.978.76-2.965 2.897-2.994v.004h5.315V6.33h-5.315c-3.786.019-5.346 1.628-5.421 5.05l-.003.268.003.004c.08 3.32 1.637 4.95 5.315 5.005v.003h3.891c.899 0 1.543-.75 1.543-1.541v-4.015H64.1zm20.835 5.55V12.4h6.468v-2.11h-6.468V7.104c0-.122.099-.223.223-.223h6.395V4.696h-7.67c-.898 0-1.544.748-1.544 1.54v10.418h2.596zM47.844 14.48a.222.222 0 01-.223-.222v-1.846h6.465v-2.109h-6.465V8.732c0-.12.096-.223.223-.223h6.395V6.323h-7.67c-.9 0-1.546.752-1.546 1.543v7.258c0 .793.646 1.543 1.546 1.543h7.67v-2.186h-6.395zM40.79 4.45c-1.215 0-1.99.647-2.564 1.949l-3.381 7.784L31.462 6.4c-.576-1.302-1.351-1.95-2.566-1.95-1.137 0-2.311.814-2.311 2.58v9.638h2.591V7.294l3.404 7.718c.457 1.079 1.192 1.756 2.262 1.757h.003c1.07-.002 1.806-.678 2.263-1.757l3.402-7.718v9.374h2.592V7.03c0-1.766-1.176-2.58-2.312-2.58zm31.81 7.962l1.596-3.755c.05-.118.142-.149.21-.149h.002a.22.22 0 01.21.15l1.6 3.754H72.6zm3.94-4.935c-.436-.942-1.3-1.401-2.132-1.401-.833 0-1.698.459-2.13 1.401l-4.24 9.19h2.758l.924-2.185h5.376l.925 2.184h2.76L76.54 7.478zm38.242-1.154v6.913l-4.456-6.077c-.376-.473-.794-.836-1.654-.836-.789 0-1.765.624-1.765 1.809v8.54h2.595v-6.91l4.436 6.096c.386.526.786.815 1.674.815.79 0 1.765-.567 1.765-1.81v-8.54h-2.595zm-15.55 8.303c-2.65 0-3.413-.973-3.413-3.139v-.01c0-2.102.727-3.135 3.412-3.135 2.689 0 3.414 1.033 3.414 3.134v.011c0 2.166-.764 3.139-3.414 3.139zm5.939-3.15c0-3.621-1.446-5.31-5.94-5.31-4.49 0-5.937 1.689-5.94 5.31v.008c0 3.565 1.488 5.284 5.94 5.284 4.454 0 5.94-1.72 5.94-5.284v-.008zM9.014 9.179a1.298 1.298 0 110-2.596 1.298 1.298 0 010 2.596zm1.99-8.556C5.27.623.624 5.268.624 10.999c0 4.974 3.502 9.13 8.174 10.142V11.83a.848.848 0 01.815-.83h1.312c.06 0 .11-.049.113-.109V.624M18.16 16.66a1.298 1.298 0 110-2.591 1.298 1.298 0 010 2.59zm-3.042 0a1.297 1.297 0 11.001-2.595 1.297 1.297 0 01-.001 2.595zm-3.044 0c-.715 0-1.298-.58-1.298-1.298a1.298 1.298 0 012.597 0c0 .717-.581 1.298-1.299 1.298zM12.286.7v10.708l-.003.002a.846.846 0 01-.846.837h-1.278a.115.115 0 00-.115.115v8.971c.316.03.635.045.96.045 5.734 0 10.381-4.646 10.381-10.378 0-5.296-3.97-9.667-9.1-10.298z" fill="#00B956"/></svg>