<svg width="53" height="53" fill="none" xmlns="http://www.w3.org/2000/svg"><path d="M53 0H0v53h53V0z" fill="#FF0032"/><path d="M35.309 4.076v2.44h5.333v9.788h2.981V6.515h5.323V4.076H35.31zm-19.178 0l-3.903 8.087-3.891-8.087h-4.26v12.228h2.991V7.556l3.805 7.393h2.721L17.4 7.556v8.748h2.982V4.076h-4.25zm29.833 40.772c-.076.488-.271.889-.585 1.192-.293.282-.694.488-1.193.607-.488.109-1.214.174-1.973.174-.791 0-1.485-.098-2.081-.304a2.556 2.556 0 01-1.345-1.019c-.325-.477-.487-1.17-.487-2.07V42.18c0-.889.162-1.583.487-2.07.326-.478.77-.824 1.345-1.02.585-.206 1.29-.303 2.081-.303.759 0 1.485.065 1.973.173.499.12.9.315 1.193.607.314.304.509.705.585 1.193h2.981c-.087-1.008-.423-1.865-1.019-2.559-.542-.628-1.3-1.084-2.244-1.365-.91-.272-2.114-.412-3.469-.412-1.43 0-2.667.206-3.686.607a4.73 4.73 0 00-2.385 2.038c-.53.9-.802 2.114-.824 3.588v.14l.163.012-.163.01v.143c.022 1.475.293 2.689.824 3.589a4.731 4.731 0 002.385 2.038c1.02.401 2.255.607 3.686.607 1.355 0 2.558-.141 3.469-.412.943-.282 1.691-.737 2.244-1.366.596-.683.943-1.55 1.019-2.558h-2.981v-.011z" fill="#fff"/></svg>