<svg width="56" height="56" fill="none" xmlns="http://www.w3.org/2000/svg"><path d="M28 56c15.464 0 28-12.536 28-28S43.464 0 28 0 0 12.536 0 28s12.536 28 28 28z" fill="#FF8C00"/><path d="M39.532 34.029c.09.701-.11.973-.332.973-.222 0-.534-.272-.866-.814-.333-.543-.468-1.155-.289-1.47.11-.205.355-.296.644-.182.578.227.8 1.108.843 1.493zm-3.11 1.54c.689.588.89 1.265.533 1.764a1.162 1.162 0 01-.91.406A1.568 1.568 0 0135 37.354c-.621-.543-.8-1.447-.4-1.944a.856.856 0 01.712-.317c.355 0 .756.157 1.11.474v.002zM12.25 26.064c0-8.597 6.843-15.564 15.285-15.564 8.443 0 15.286 6.968 15.286 15.564a15.88 15.88 0 01-2.154 7.987c-.046.069-.158.046-.179-.045-.532-3.824-2.821-5.927-6.153-6.56-.29-.046-.334-.228.044-.272 1.022-.091 2.465-.068 3.22.068.046-.398.069-.8.068-1.2 0-5.679-4.532-10.294-10.11-10.294-5.575 0-10.108 4.615-10.108 10.294 0 5.68 4.533 10.295 10.108 10.295h.468a14.135 14.135 0 01-.202-2.783c.023-.633.158-.724.424-.227 1.4 2.468 3.398 4.685 7.31 5.565 3.198.726 6.398 1.563 9.841 6.02.31.385-.155.791-.51.474-3.511-3.167-6.71-4.209-9.62-4.209-3.267.025-5.488.456-7.733.456-8.442 0-15.285-6.973-15.285-15.57v.002z" fill="#fff"/></svg>