<svg width="85" height="42" fill="none" xmlns="http://www.w3.org/2000/svg"><g clip-path="url(#clip0_63_8366)"><path d="M73.5 11.989v10.268h-3.726v-7.203h-3.587v7.203H62.46V11.988H73.5z" fill="#fff"/><path fill-rule="evenodd" clip-rule="evenodd" d="M54.809 22.624c3.335 0 5.812-2.012 5.812-5.063 0-2.953-1.828-4.87-4.882-4.87-1.41 0-2.572.488-3.448 1.33.209-1.741 1.705-3.012 3.353-3.012l3.242-.006 1.619-3.048s-3.594.08-5.264.08c-3.817.066-6.395 3.48-6.395 7.627 0 4.83 2.514 6.962 5.963 6.962zm.02-7.234c1.238 0 2.097.801 2.097 2.17 0 1.233-.763 2.248-2.097 2.25-1.276 0-2.135-.94-2.135-2.229 0-1.37.859-2.19 2.135-2.19z" fill="#fff"/><path d="M45.814 18.82s-.88.498-2.194.593c-1.51.044-2.857-.895-2.857-2.563 0-1.628 1.188-2.56 2.819-2.56 1 0 2.323.682 2.323.682s.968-1.749 1.47-2.623c-.919-.685-2.142-1.06-3.565-1.06-3.59 0-6.37 2.303-6.37 5.54 0 3.278 2.613 5.528 6.37 5.46 1.05-.038 2.5-.401 3.383-.96l-1.38-2.51z" fill="#fff"/><path d="M0 9.142l5.168 9.091v5.546L.006 32.852 0 9.142z" fill="#5B57A2"/><path d="M19.844 14.925l4.843-2.921 9.91-.01-14.753 8.896v-5.965z" fill="#D90751"/><path d="M19.817 9.088l.027 12.037-5.18-3.133V0l5.153 9.088z" fill="#FAB718"/><path d="M34.599 11.995l-9.912.009-4.87-2.916L14.664 0 34.6 11.995z" fill="#ED6F26"/><path d="M19.844 32.903v-5.84l-5.18-3.073.003 18.01 5.177-9.097z" fill="#63B22F"/><path d="M24.675 30.008L5.168 18.233 0 9.142l34.577 20.854-9.902.012z" fill="#1487C9"/><path d="M14.666 42l5.177-9.097 4.83-2.895 9.903-.012L14.666 42z" fill="#017F36"/><path d="M.006 32.852l14.7-8.862-4.942-2.984-4.596 2.773-5.162 9.073z" fill="#984995"/><path d="M40.764 29.168a1.07 1.07 0 01-.443.323 1.543 1.543 0 01-.58.11 1.668 1.668 0 01-.582-.095 1.237 1.237 0 01-.742-.702 1.439 1.439 0 01-.104-.556 1.366 1.366 0 01.383-.959c.12-.122.263-.215.425-.288.164-.07.344-.108.541-.108.213 0 .41.027.59.079.18.052.332.14.458.262l-.219.364a1.03 1.03 0 00-.365-.21 1.305 1.305 0 00-.398-.06.924.924 0 00-.637.253.91.91 0 00-.275.67.908.908 0 00.284.672.846.846 0 00.305.184c.117.044.24.064.371.064a.984.984 0 00.434-.093c.124-.06.236-.142.33-.242l.224.332zm.616.373v-2.592h.473v1.93l1.538-1.93h.473v2.592h-.473V27.61l-1.538 1.93h-.473zm5.617-.373a1.07 1.07 0 01-.442.323 1.548 1.548 0 01-.581.11 1.666 1.666 0 01-.58-.095 1.237 1.237 0 01-.742-.702 1.44 1.44 0 01-.106-.556 1.366 1.366 0 01.383-.959c.12-.122.264-.215.425-.288.171-.074.356-.11.542-.108.213 0 .41.027.59.079.18.052.332.14.458.262l-.219.364a1.028 1.028 0 00-.365-.21 1.306 1.306 0 00-.398-.06.934.934 0 00-.637.253.91.91 0 00-.275.67.907.907 0 00.283.672.847.847 0 00.306.184c.117.04.24.064.37.064a.992.992 0 00.435-.093c.124-.06.236-.142.33-.242l.224.332zm.243-2.22h2.427v.461h-.976v2.132h-.473v-2.132h-.975v-.46h-.003z" fill="#fff"/><path fill-rule="evenodd" clip-rule="evenodd" d="M51.875 29.515c.18-.056.333-.14.464-.256l-.143-.362c-.087.076-.204.14-.344.193-.141.052-.3.078-.473.078-.26 0-.476-.067-.647-.203-.17-.138-.263-.33-.284-.575h2.047c.02-.09.03-.192.03-.311 0-.178-.033-.338-.1-.483a1.146 1.146 0 00-.262-.376 1.177 1.177 0 00-.395-.242 1.529 1.529 0 00-1.068.02 1.215 1.215 0 00-.694.716 1.46 1.46 0 00-.094.53c0 .205.036.391.102.557a1.224 1.224 0 00.736.702 1.819 1.819 0 001.125.012zm-1.197-1.995c.147-.131.341-.195.587-.195.23 0 .416.061.55.184.135.122.207.29.219.506h-1.616a.787.787 0 01.26-.495z" fill="#fff"/><path d="M53.17 26.949h.431l1.023 1.284.97-1.284h.419v2.592h-.473v-1.89l-.922 1.203H54.6l-.957-1.203v1.89h-.473v-2.592z" fill="#fff"/><path fill-rule="evenodd" clip-rule="evenodd" d="M57.3 26.958a1.496 1.496 0 00-.408.171l.126.368a2.76 2.76 0 01.323-.134 1.23 1.23 0 01.41-.056c.132 0 .237.02.317.061.081.038.14.096.183.166.042.07.069.158.084.26.015.101.02.212.02.331a.819.819 0 00-.323-.13 1.886 1.886 0 00-.34-.036c-.142 0-.273.02-.399.056a.881.881 0 00-.32.157.751.751 0 00-.287.611c0 .254.075.452.224.592.15.14.347.21.593.21.221 0 .398-.038.532-.114.135-.076.243-.163.32-.262v.335h.444v-1.59c0-.338-.075-.6-.228-.784-.15-.183-.416-.277-.793-.277-.168 0-.326.024-.479.065zm.79 2.1a.72.72 0 01-.423.11.528.528 0 01-.355-.11.381.381 0 01-.126-.298c0-.072.015-.134.048-.189a.432.432 0 01.128-.134.573.573 0 01.183-.079.84.84 0 01.21-.026c.233 0 .433.055.598.172v.329a1.357 1.357 0 01-.263.225zm4.884-3.02a.725.725 0 00.27-.225l-.258-.364a.517.517 0 01-.225.18c-.089.035-.181.06-.275.076l-.09.016-.251.043a1.87 1.87 0 00-.42.128 1.31 1.31 0 00-.51.367 1.69 1.69 0 00-.3.521c-.07.195-.117.397-.14.603-.025.21-.037.41-.037.602 0 .248.033.472.099.673.066.201.158.37.281.507.123.14.27.245.443.32.174.076.368.114.587.114.2 0 .386-.038.553-.108a1.326 1.326 0 00.713-.71c.068-.16.102-.332.102-.513 0-.195-.03-.372-.087-.53a1.094 1.094 0 00-.638-.667 1.38 1.38 0 00-.847-.05 1.295 1.295 0 00-.547.315.856.856 0 00-.174.248h-.012c.01-.12.024-.242.05-.367.028-.125.066-.245.118-.358.05-.114.116-.216.197-.31a.898.898 0 01.311-.218c.13-.06.269-.105.41-.13l.094-.017c.094-.017.183-.033.268-.05.114-.024.219-.053.315-.097zm-1.664 2.49a1.431 1.431 0 01-.066-.455.724.724 0 01.108-.247.873.873 0 01.194-.21.996.996 0 01.617-.207c.278 0 .488.084.634.25a.925.925 0 01.219.632.92.92 0 01-.066.344.824.824 0 01-.455.463.884.884 0 01-.356.07.831.831 0 01-.647-.297 1.089 1.089 0 01-.182-.344zm5.833-1.58h-.473v2.593h.473v-2.592zm-2.945 0h.473v.779h.437c.206 0 .373.026.508.075.135.05.243.117.324.198a.69.69 0 01.17.285c.033.108.051.219.051.335a.996.996 0 01-.057.338.763.763 0 01-.183.295.88.88 0 01-.34.21 1.539 1.539 0 01-.527.08h-.86V26.95h.004zm.473 1.212v.95h.344c.236 0 .404-.04.5-.123.096-.081.143-.197.143-.352a.447.447 0 00-.146-.358c-.1-.082-.264-.123-.491-.123h-.35v.006z" fill="#fff"/><path d="M70.27 29.168a1.07 1.07 0 01-.444.323 1.544 1.544 0 01-.58.11 1.668 1.668 0 01-.58-.095 1.243 1.243 0 01-.742-.702 1.446 1.446 0 01-.106-.556 1.359 1.359 0 01.383-.959c.12-.122.264-.215.425-.288.171-.074.356-.11.542-.108.212 0 .41.027.59.079.18.052.332.14.458.262l-.219.364a1.031 1.031 0 00-.365-.21 1.306 1.306 0 00-.398-.06.927.927 0 00-.637.253.912.912 0 00-.275.67.906.906 0 00.284.672.846.846 0 00.305.184c.117.04.24.064.37.064a.994.994 0 00.435-.093c.124-.06.236-.142.33-.242l.224.332zm.242-2.22h2.427v.461h-.976v2.132h-.472v-2.132h-.976v-.46h-.003z" fill="#fff"/><path fill-rule="evenodd" clip-rule="evenodd" d="M73.926 26.95h-.473v3.744h.473v-1.272c.096.06.21.105.341.134.132.029.27.043.41.043a1.36 1.36 0 001.005-.401 1.28 1.28 0 00.282-.444c.066-.171.099-.355.099-.55 0-.192-.03-.37-.087-.53a1.23 1.23 0 00-.245-.413 1.065 1.065 0 00-.386-.271 1.26 1.26 0 00-.512-.1 1.32 1.32 0 00-.524.106c-.165.07-.293.154-.383.259v-.306zm.33.48a.94.94 0 01.44-.105 1 1 0 01.37.064.77.77 0 01.44.472 1.133 1.133 0 01-.008.742.837.837 0 01-.473.492.967.967 0 01-.387.073 1.46 1.46 0 01-.362-.043 1.194 1.194 0 01-.35-.158v-1.284c.084-.099.195-.183.33-.253zm5.434-.481h-.473v2.592h.473v-2.592zm-2.948 0h.473v.777h.437c.207 0 .374.027.509.076.135.05.242.117.323.198a.69.69 0 01.17.285 1.106 1.106 0 01-.005.673.764.764 0 01-.183.295.88.88 0 01-.341.21 1.538 1.538 0 01-.527.08h-.859V26.95h.003zm.476 1.211v.95h.345c.236 0 .404-.04.5-.123.095-.081.143-.197.143-.352a.447.447 0 00-.147-.358c-.098-.082-.263-.123-.49-.123h-.35v.006z" fill="#fff"/><path d="M81.96 28.198l1.012 1.343h-.58l-.782-1.049-.793 1.049h-.55l1.005-1.32-.946-1.272h.581l.721.978.733-.978h.551l-.952 1.25zm-41.545 4.547h-1.452v2.16h-.473v-2.591h2.397v2.591h-.472v-2.16zm3.157.029h-.934l-.03.436c-.033.37-.078.667-.14.894a1.63 1.63 0 01-.231.525.659.659 0 01-.314.247 1.102 1.102 0 01-.386.064l-.036-.448a.39.39 0 00.176-.038.489.489 0 00.195-.19c.063-.099.12-.238.17-.419.051-.183.084-.422.102-.722l.048-.807h1.853v2.592h-.473v-2.135z" fill="#fff"/><path fill-rule="evenodd" clip-rule="evenodd" d="M45.319 32.32a1.49 1.49 0 00-.408.171l.126.367a3.25 3.25 0 01.323-.134c.108-.038.246-.055.41-.055.132 0 .237.02.318.06.08.039.14.097.182.167a.7.7 0 01.084.259 2.3 2.3 0 01.02.332.816.816 0 00-.322-.13 1.886 1.886 0 00-.341-.036c-.14 0-.273.02-.398.056a.88.88 0 00-.32.157.751.751 0 00-.288.611c0 .254.075.452.225.592.149.14.347.21.592.21.222 0 .398-.039.533-.114.134-.076.242-.163.32-.263v.335h.443v-1.59c0-.337-.075-.6-.228-.783-.15-.184-.416-.276-.793-.276a1.8 1.8 0 00-.478.064zm.793 2.099a.716.716 0 01-.422.11.52.52 0 01-.356-.11.38.38 0 01-.126-.297.36.36 0 01.048-.19.43.43 0 01.129-.133.569.569 0 01.182-.08.845.845 0 01.21-.025c.233 0 .434.055.598.171v.33a1.358 1.358 0 01-.263.224z" fill="#fff"/><path d="M47.281 32.314h2.428v.46h-.976v2.131h-.473v-2.131h-.975v-.46h-.004z" fill="#fff"/><path fill-rule="evenodd" clip-rule="evenodd" d="M51.919 34.88c.18-.056.332-.14.463-.257l-.143-.361a1.11 1.11 0 01-.344.192c-.141.053-.3.079-.473.079-.26 0-.476-.067-.647-.204-.17-.137-.263-.33-.284-.574h2.047c.02-.09.03-.192.03-.312a1.158 1.158 0 00-.757-1.1 1.529 1.529 0 00-1.068.02 1.218 1.218 0 00-.694.716 1.46 1.46 0 00-.094.53c0 .204.036.39.102.557a1.218 1.218 0 00.737.702 1.821 1.821 0 001.125.011zm-1.2-1.999c.146-.13.34-.195.586-.195.234 0 .416.064.551.184.134.122.206.291.218.507h-1.616a.787.787 0 01.26-.496zm2.08-.567h.598l.913 1.25-.976 1.341h-.58l1.023-1.342-.978-1.25zm1.627 0h.473v2.591h-.473v-2.591zm2.164 2.591l-1.041-1.342.973-1.25h-.587l-.919 1.25.988 1.342h.586zm2.161-.026c.18-.055.332-.14.464-.256l-.144-.361c-.087.076-.203.14-.344.192-.14.053-.3.079-.473.079-.26 0-.476-.067-.646-.204a.785.785 0 01-.284-.574h2.047c.02-.09.03-.192.03-.312a1.14 1.14 0 00-.1-.483 1.147 1.147 0 00-.263-.376 1.172 1.172 0 00-.395-.241 1.532 1.532 0 00-1.068.02 1.209 1.209 0 00-.694.716 1.48 1.48 0 00-.093.53c0 .204.036.39.102.557a1.225 1.225 0 00.736.702 1.815 1.815 0 001.125.011zm-1.2-1.998c.147-.13.341-.195.587-.195.23 0 .416.064.55.184.135.122.207.291.219.507H57.29a.787.787 0 01.26-.496zm3.768-1.438c-.278 0-.43-.152-.455-.455h-.446c0 .117.021.222.06.32.04.1.096.184.17.254a.89.89 0 00.282.169c.11.044.24.064.386.064.135 0 .255-.02.362-.064a.862.862 0 00.276-.169.737.737 0 00.176-.253.808.808 0 00.063-.32h-.443c-.02.302-.168.454-.43.454zm-1.278.87v2.592h.473l1.538-1.93v1.93h.473v-2.592h-.473l-1.538 1.931v-1.93h-.473z" fill="#fff"/></g><defs><clipPath id="clip0_63_8366"><path fill="#fff" d="M0 0h85v42H0z"/></clipPath></defs></svg>