<svg width="95" height="37" fill="none" xmlns="http://www.w3.org/2000/svg"><path d="M1.338 13.57v4.962l13.553-1.473v-5.37L1.338 13.57zm4.325 5.264v17.002h4.962V18.333l-4.962.5zm11.058-7.399v24.4h5.229V10.71l-5.229.726zm6.203-.861v5.613l7.55-.82v-5.84l-7.55 1.047zm0 9.79v5.716l4.956-.267v-5.87l-4.956.422zm0 9.836v5.636h7.55v-5.861l-7.55.225zM49.999 6.807v29.029h6.854V5.856L50 6.807zm8.134-1.129v6.677l9.989-1.084V4.29l-9.989 1.387zm0 11.699v6.8l6.547-.352v-7.002l-6.547.554zm0 11.772v6.687h9.989V28.85l-9.989.298zm-25.661-19.9v26.587h5.956V8.42l-5.956.827zm7.067 20.456v6.13h8.645v-6.388l-8.645.258zM90.516 3.963c-2.166-2.021-5.343-2.85-8.817-2.357v7.406c1.407-.078 2.547.438 3.055 1.476.802 1.637-.025 4.093-1.977 6.368-3.013 3.51-11.024 10.697-11.024 10.697l11.5-.373c7.027-6.78 9.55-10.895 10.004-16.032a8.723 8.723 0 00-2.741-7.185zm3.146 31.873v-7.75l-23.327.695m0 0l.003 7.055h23.324M80.358 1.772c-6.776 1.425-10.104 6.349-9.72 14.383l7.225-.633c-.329-4.54 1.077-5.616 2.499-6.208l-.004-7.542z" fill="#fff"/></svg>