<svg width="22" height="15" fill="none" xmlns="http://www.w3.org/2000/svg"><path d="M7.306 2.22A1.02 1.02 0 107.249.18l.057 2.04zm-5.824 5.1l1.02.027v-.054l-1.02.027zm5.795 6.12l-.028 1.02h.057l-.029-1.02zm5.795-6.12l1.02-.027a1.02 1.02 0 00-1.02-.993v1.02zM7.277 6.3a1.02 1.02 0 000 2.04V6.3zm13.008-1.457a1.02 1.02 0 000-2.04v2.04zm-2.483-2.04a1.02 1.02 0 000 2.04v-2.04zm0 2.04a1.02 1.02 0 100-2.04v2.04zm-2.483-2.04a1.02 1.02 0 000 2.04v-2.04zm1.463 1.02a1.02 1.02 0 002.04 0h-2.04zm2.04-2.623a1.02 1.02 0 10-2.04 0h2.04zm0 2.623a1.02 1.02 0 10-2.04 0h2.04zm-2.04 2.622a1.02 1.02 0 002.04 0h-2.04zM7.25.18A6.984 6.984 0 00.462 7.347l2.04-.054A4.944 4.944 0 017.306 2.22L7.249.18zM.462 7.293A6.984 6.984 0 007.25 14.46l.057-2.04a4.944 4.944 0 01-4.804-5.073l-2.04-.054zm6.844 7.167a6.984 6.984 0 006.786-7.167l-2.04.054A4.944 4.944 0 017.25 12.42l.057 2.04zm5.766-8.16H7.277v2.04h5.795V6.3zm7.213-3.497h-2.483v2.04h2.483v-2.04zm-2.483 0H15.32v2.04h2.483v-2.04zm1.02 1.02V1.2h-2.04v2.623h2.04zm-2.04 0v2.622h2.04V3.823h-2.04z" fill="#67718E"/></svg>