<svg width="44" height="52" viewBox="0 0 44 52" fill="none" xmlns="http://www.w3.org/2000/svg">
<path d="M5.16947 19.2C2.76935 10.0286 6.02666 3.68571 14.3413 0C14.3413 0 12.1127 2.4 13.1413 3.94285C14.1699 5.48571 11.5126 9.42857 11.5126 9.42857C15.6271 3 19.5702 -0.771428 25.7419 0.514285C25.7419 0.514285 24.6276 1.54286 23.0846 3.08571C21.7989 4.37143 19.9988 8.48571 19.9988 8.48571C20.5988 7.79999 21.2845 7.2 21.9703 6.6C27.1991 2.31428 33.3708 2.4 40.3998 6.68571C35.8567 6.42857 32.9423 7.02857 32.3422 9.68571C32.3422 9.68571 33.1137 11.6571 37.7425 11.5714C42.3713 11.5714 43.9999 15.1714 43.9999 15.1714C42.457 15 40.4855 15.4286 38.2568 16.0286C40.6569 16.7143 42.2856 17.9143 42.9713 19.9714L39.114 19.2857L41.5141 24L37.2282 19.8857L32.6851 16.7143L35.2567 15.2571C35.2567 15.2571 31.9994 15.4286 27.8849 13.8857C27.7992 13.8857 29.7707 14.5714 27.6277 13.8C25.4847 13.0286 22.1417 14.1428 22.1417 14.1428L25.9133 11.4857C25.9133 11.4857 19.4845 12.2571 17.2558 13.2C15.0271 14.1428 12.2841 16.8 11.5984 18.5143C10.9126 20.2286 10.9126 21.0857 10.8269 21.2571C10.7412 21.4286 10.5697 22.3714 10.5697 22.3714C10.5697 22.3714 9.62683 22.4571 7.74102 21.7714C5.85522 21.0857 5.16947 19.2 5.16947 19.2Z" fill="#E51D2C"/>
<path d="M12.4177 20.9012C13.0142 17.5764 17.8713 14.1663 20.3425 13.5695C20.3425 13.5695 17.36 15.8713 17.1896 16.8091C20.5129 15.6156 25.4553 14.763 30.142 15.9566L25.2849 17.2353C32.954 17.2353 39.6006 21.1569 41.1345 27.6361L33.5505 24.4817C34.7435 26.5278 39.7711 30.1936 39.345 33.2627C38.9189 36.3317 36.1921 39.5713 36.1921 39.5713L31.4202 29.5116C32.6132 36.3317 29.8011 41.7026 29.8011 41.7026L28.0117 37.44C25.7109 45.9652 15.4001 51.3361 15.2297 51.1656C15.1445 50.995 18.4678 43.4076 18.4678 43.4076C18.4678 43.4076 15.0593 46.3062 13.7811 46.7325L14.8037 42.2141C11.8212 44.4307 9.00917 45.8799 7.13448 43.2371C7.13448 43.2371 8.83874 44.2602 10.2021 43.6634C11.5656 43.0666 13.5255 41.6173 13.5255 41.6173C13.5255 41.6173 15.2297 40.2533 17.0192 39.3156C18.0417 38.804 19.2347 40.6796 17.7861 37.5253C14.8037 30.8756 24.8588 35.735 24.8588 32.0692C24.7736 20.2192 29.5455 31.8986 29.1194 24.1407C28.5229 13.399 14.8037 17.4911 12.4177 20.9012Z" fill="#E75526"/>
<path d="M11.2618 26.5496C12.628 25.6096 16.129 32.1043 13.7381 31.4206C11.3472 30.737 8.78548 32.7879 8.27314 34.0698C7.7608 35.3516 6.13841 40.8208 8.27314 41.1626C10.4079 41.5045 16.6413 39.4535 15.7874 37.8298C13.8234 34.1552 17.7514 31.8479 22.4478 32.617C24.241 32.8734 24.1556 28.5151 23.9848 27.4896C23.814 26.4642 25.351 24.4987 27.9981 26.1223C28.0835 19.2858 25.1802 19.5422 22.3624 19.2004C22.3624 20.9095 21.7647 22.0204 19.8861 21.935L20.9108 22.6186L18.6906 23.2168L21.2523 23.3877C21.2523 23.3877 17.9221 27.2333 16.5559 26.0369C14.592 23.815 11.2618 26.5496 11.2618 26.5496Z" fill="#E51D2A"/>
<path d="M9.16216 30.8002C6.36833 32.3345 3.83642 33.3573 3.31257 35.2325C2.87603 38.4715 3.74911 40.6024 5.23333 40.7729C6.71756 40.9433 6.54294 40.2614 6.54294 40.2614C6.54294 40.2614 6.28102 38.301 6.28102 35.8292C6.10641 33.4426 9.5987 32.164 9.16216 30.8002Z" fill="#E51D2A"/>
<path d="M4.8001 40.6669C6.68192 41.0917 6.6001 40.6669 6.02737 36.9283C5.7001 34.2944 6.92737 33.5297 8.4001 32.0002C8.4001 32.0002 6.51828 32.68 5.86374 34.2944C5.20919 35.9937 5.86374 39.4774 5.86374 40.0721C5.94556 40.7519 4.8001 40.6669 4.8001 40.6669Z" fill="#E94D3E"/>
<path d="M7.59996 31.6002C7.26233 31.7669 6.92469 32.1002 6.84028 32.1002C6.75587 32.1002 5.23651 33.2669 4.47682 33.9336C3.71714 34.6002 3.3795 35.9336 3.29509 37.6002C3.21069 36.2669 2.87305 34.9336 4.308 33.6836C5.06769 32.9336 6.41823 32.1836 7.59996 31.6002Z" fill="#AE1B1F"/>
<path d="M0 27.6546C1.87053 24.852 4.08116 22.9252 6.54687 22.3997C9.86281 23.8886 13.0087 24.3265 12.1585 24.5016C11.6483 24.5892 11.1382 27.0415 9.26764 26.0781C7.48214 25.1147 13.6039 29.9317 13.1788 29.5814C12.9237 29.4062 3.99614 25.5526 0 27.6546Z" fill="#F0E63A"/>
<path d="M2.40015 27.979C5.09465 29.3137 7.03132 30.8151 8.04176 32.4C8.29437 32.4 13.6834 29.7307 13.5992 29.3137C13.0097 29.981 9.64162 29.3971 8.21016 28.2293C6.6103 26.9781 2.40015 27.979 2.40015 27.979Z" fill="#F0E63A"/>
<path d="M14.3998 0.000793457C10.2965 1.88171 6.27856 4.53209 4.91077 10.2603C3.54298 16.6725 4.7398 22.3153 10.7239 22.4008L10.8094 21.9733C4.31236 22.0588 3.62847 13.2527 6.62051 6.92598C8.24476 3.42064 11.7497 1.9672 14.3998 0.000793457Z" fill="white"/>
<path d="M14.4 0.000793457C13.8235 0.698975 12.6706 2.18261 13 3.57897C14.4 5.76079 11.8471 9.07715 11.6 9.60079C11.6 9.60079 13.8235 4.36443 12.753 4.10261C12.2588 4.10261 12.4236 2.96806 12.9177 1.83352C13.4118 0.960793 14.0706 0.262612 14.4 0.000793457Z" fill="white"/>
<path d="M11.6 9.0991C11.6855 9.01379 14.5921 3.81025 18.3536 1.50704C21.8586 -0.796164 25.791 0.227484 25.791 0.227484C23.7393 2.18948 22.2005 3.21312 19.9778 8.16076C25.4491 2.27478 32.1172 1.33644 40.324 6.45468C36.3061 6.19876 32.8865 6.71059 32.2881 9.44032C33.9979 11.6582 36.819 11.1464 39.1272 11.4876C41.3499 11.8288 42.9741 13.0231 44 14.8998C42.1193 14.8998 40.2385 15.241 38.2723 15.7528C40.495 16.4352 42.5467 17.8001 42.9741 19.6768L39.1272 18.9091L41.5208 23.6008C40.2385 21.6388 38.9562 19.6768 38.6143 18.5678C39.6401 18.6531 41.0934 18.9091 42.7177 19.3356C41.4354 17.6295 39.4691 16.4352 37.2464 15.7528C38.8707 15.0704 41.0934 14.5586 43.3161 14.4733C43.3161 14.5586 41.8628 11.7435 38.7852 11.8288C35.7077 11.9141 32.4591 11.1464 31.9462 9.26971C32.2026 6.45468 37.5029 5.77224 39.1272 6.11346C32.972 2.7013 26.8169 2.7013 20.4908 8.24606L19.3794 9.35501C20.3198 5.34572 22.286 2.36008 25.1926 0.398092C21.4312 -0.625556 16.3874 2.7013 11.6 9.0991Z" fill="white"/>
<path d="M10.7872 22.1401C10.1864 19.3921 10.2723 11.0622 11.1306 9.08703C11.1306 9.85991 11.1306 15.1842 11.6455 15.5277C12.3322 13.9819 13.0188 10.7187 14.1346 9.94579C13.9629 10.5469 14.8212 12.0068 14.9929 12.4362C16.1086 11.148 17.4819 10.461 19.1985 9.60228C18.8552 10.0317 17.4819 12.0068 17.6536 12.3503C19.5418 11.148 25.7215 8.91528 29.7555 8.40002C28.5539 9.51641 27.6097 11.4915 26.4081 12.0927C28.0389 11.3198 29.7555 11.8351 31.987 11.8351C31.3004 12.0927 31.7295 12.8656 32.0728 13.5526C34.3902 14.3254 36.4501 14.0678 39.1966 14.1537C38.4242 14.5831 35.6777 15.4418 34.7335 16.2147C35.8493 16.5582 38.9392 19.9074 39.7116 21.0237C40.5699 22.1401 41.5999 23.6 41.5999 23.6C40.1408 22.1401 37.995 20.165 37.3084 19.478C36.536 18.9627 34.2186 17.3311 32.8453 16.3865L35.4202 14.9266C35.4202 14.9266 32.3303 15.0983 28.3822 13.7243C25.8073 12.6079 22.2883 13.8102 22.2883 13.8102L26.0648 11.148C20.4859 12.0068 17.1386 12.2644 14.5637 14.8407C12.6755 16.6441 11.7314 17.9322 11.1306 20.0791C10.9589 21.1955 10.8731 21.3672 10.7872 22.1401Z" fill="#AE1B1F"/>
<path d="M12.4831 20.9331C13.0796 17.7784 17.5106 14.368 20.4079 13.6006C18.9593 14.7943 17.5106 15.9879 17.255 16.8406C21.8565 15.3059 26.2876 14.9648 30.2074 15.9879L25.3502 17.2669C32.9342 17.4374 39.4956 20.8478 41.1998 27.6687L33.6159 24.514C38.3878 30.8233 42.478 31.1644 36.2575 39.6052L31.4856 29.5444C32.1673 33.5517 31.656 37.5589 29.8665 41.7367L28.077 37.4736C26.5432 42.8451 21.7713 47.9607 15.2951 51.2006C16.062 49.0691 17.255 46.3408 18.5332 43.4419C16.9141 44.8913 15.1247 46.085 13.8465 46.7671L14.869 42.2482C12.3979 44.124 9.07455 46.1702 7.19986 43.2714C9.4154 45.2324 12.9943 42.9303 15.6359 41.1399L15.2099 44.7208C16.062 44.2945 17.6811 43.2714 19.5557 41.8219C19.641 42.8451 19.0445 45.4029 18.0219 47.9607C25.265 42.9303 26.2024 41.3104 27.9066 35.3421L29.6961 38.582C31.0595 36.621 31.5708 33.7222 30.463 27.1571C33.0194 30.6528 35.4054 34.4043 36.4279 37.8147C39.666 31.3349 37.0244 30.1412 31.7412 22.9793L39.7512 26.3045C36.5131 20.7625 32.1673 18.4605 24.6685 17.3521C25.1798 16.1585 27.2249 16.0732 29.3552 16.0732C25.8615 15.3059 19.641 17.0111 16.1472 17.6079C16.4881 16.2437 18.5332 14.5385 19.641 13.9417C15.9768 15.9027 13.676 18.5458 12.4831 20.9331Z" fill="#F9B03E"/>
<path d="M12.3837 20.8643C13.9984 18.9757 16.8028 17.5164 20.9669 17.173C25.3009 17.0013 29.0401 18.804 29.1251 24.7273C29.1251 25.2424 29.2101 25.5858 28.9551 26.5301C28.1903 28.8479 24.876 22.3237 24.876 31.6807C24.961 33.2259 24.2812 33.3118 23.5163 33.5693C22.5815 33.9127 18.6724 33.3118 17.7376 34.4277C16.2929 35.6296 18.8423 39.235 18.4174 39.4926C17.9925 39.7501 17.6526 38.6341 16.0379 40.0076C10.5991 43.5273 10.1742 44.9008 7.19985 43.3556C9.66432 45.2442 12.4687 42.583 16.0379 40.5227C16.3779 40.351 18.0775 39.9218 18.6724 39.9218C19.5222 40.0076 16.8028 35.973 17.9925 34.5994C20.372 32.7109 23.9412 35.2004 24.1112 34.4277C24.4511 32.625 25.4709 37.3465 25.4709 37.3465C25.4709 37.3465 24.5361 26.4442 26.7456 26.7876C29.0401 28.3328 30.0599 28.5045 29.72 26.7017C29.3801 24.899 29.9749 24.5556 30.3998 25.1565C30.3998 25.1565 28.9551 21.7228 28.7002 21.1218C26.9156 17.0013 23.0064 17.0013 24.0262 16.4004C19.5222 16.8296 16.4628 17.0871 12.8086 19.6625L12.3837 20.8643Z" fill="#912D14"/>
<path d="M13.1402 23.375C14.6074 24.4006 19.268 21.6656 17.8007 20.469C17.8007 20.469 17.7144 20.469 17.7144 20.3835C17.8007 19.1015 21.6846 17.9049 22.4613 19.016C22.7202 19.3579 22.9792 16.4519 22.7202 16.1955C22.4613 15.9391 25.741 15.5117 25.9999 14.4006C24.8779 15.3408 23.497 15.7682 21.7709 15.8536C22.2887 16.0246 22.8065 18.0758 22.2024 18.0758C19.268 17.734 9.6879 22.8622 13.1402 23.375Z" fill="#009FE3"/>
<path d="M22.2596 19.2025C26.73 19.1177 28.3634 21.5769 27.9335 26.0712C26.644 25.4776 24.5808 24.884 23.893 27.1736C24.8387 32.0919 24.065 32.2615 22.6035 32.5159C20.6263 32.5159 16.2419 31.9223 15.2103 35.5686C14.9524 36.8406 16.9296 37.943 14.9524 39.1302C12.8892 40.6566 6.95737 42.7765 7.21527 39.3846C6.95737 33.7879 9.96625 30.4807 13.8348 31.3287C10.9979 31.3287 6.78543 36.4166 8.33286 39.8934C10.3101 41.0806 14.8664 38.9606 14.9524 37.943C15.0383 36.9254 14.0927 34.6359 15.4682 33.2791C16.8437 31.9223 20.7122 31.9223 22.5175 31.8375C24.3229 31.7527 23.8071 28.4456 23.5492 27.2584C23.6351 25.9016 24.4088 25.5624 24.8387 25.3928C25.8703 24.9688 27.5897 25.3928 27.5897 25.4776C27.3317 22.4248 26.4721 19.7961 22.2596 19.2025Z" fill="#E94D3E"/>
<path d="M11.2 26.6247C14.589 24.1511 15.8925 25.5158 16.4139 26.0276C17.8912 27.1364 21.1064 23.3834 21.1064 23.3834L18.4995 23.2129L20.7588 22.6158L19.7161 21.9334C21.1933 22.0187 22.2361 21.5922 22.2361 19.204C22.323 19.1187 22.6706 20.5687 21.9754 21.5922C21.8016 21.8481 21.0195 22.104 21.0195 22.104L22.323 22.7864L20.6719 22.957C20.6719 22.957 22.0623 23.1276 21.9754 23.2129C19.1947 26.6247 16.5877 27.5629 15.5449 26.1982C14.589 24.9188 11.2 26.6247 11.2 26.6247Z" fill="#AE1B1F"/>
<path d="M12.8 24.4504C12.8 24.2838 10.5434 23.7004 8.72078 23.2004C6.11701 23.9504 3.77361 24.7838 3.60003 26.1171C5.16229 25.4504 8.11323 26.5338 10.8038 27.2004C10.1962 26.7004 9.5887 26.2004 9.50191 26.0338C9.41512 25.7838 10.6302 26.7004 11.4113 26.1171C11.5849 26.0338 12.1925 25.3671 12.3661 24.9504C12.4529 24.5338 12.8 24.6171 12.8 24.4504Z" fill="#F8AC43"/>
<path d="M10.5547 23.6002L7.19985 24.6356C8.12243 24.7948 8.7934 25.1134 9.12888 25.6709C10.0515 26.1488 10.7224 26.0692 11.2257 25.6709L12.3998 24.2373C12.0644 23.9984 11.3934 23.8391 10.5547 23.6002Z" fill="#DE5028"/>
<path d="M12.5846 30.337C12.8384 30.2455 13.6 29.6961 13.6 29.5129C12.2461 30.1539 9.87689 29.6045 8.18459 28.3226C7.42305 27.5901 6.23843 27.4985 4.79997 27.6816C4.79997 27.6816 7.76151 27.9563 8.09997 28.872C8.52305 29.9708 11.9923 30.6117 12.5846 30.337Z" fill="#DE5028"/>
<path d="M2.39988 28.0002C4.95725 29.1624 6.91791 30.6568 8.11135 32.4002C9.56053 31.9021 11.095 31.0719 12.7999 30.0757C9.56053 30.7398 6.06545 29.8266 2.39988 28.0002Z" fill="#F8AC43"/>
<g filter="url(#filter0_f_1_849)">
<path d="M13.1402 23.375C14.6074 24.4006 19.268 21.6656 17.8007 20.469C17.8007 20.469 17.7144 20.469 17.7144 20.3835C17.8007 19.1015 21.6845 17.9049 22.4613 19.016C22.7202 19.3579 22.9791 16.4519 22.7202 16.1955C22.4613 15.9391 25.741 15.5117 25.9999 14.4006C24.8779 15.3408 23.497 15.7682 21.7708 15.8536C22.2887 16.0246 22.8065 18.0758 22.2024 18.0758C19.2679 17.734 9.68789 22.8622 13.1402 23.375Z" fill="#D6F1FD"/>
</g>
<defs>
<filter id="filter0_f_1_849" x="7.85895" y="9.85969" width="22.6819" height="18.2819" filterUnits="userSpaceOnUse" color-interpolation-filters="sRGB">
<feFlood flood-opacity="0" result="BackgroundImageFix"/>
<feBlend mode="normal" in="SourceGraphic" in2="BackgroundImageFix" result="shape"/>
<feGaussianBlur stdDeviation="2.27047" result="effect1_foregroundBlur_1_849"/>
</filter>
</defs>
</svg>
