<svg width="80" height="80" viewBox="0 0 80 80" fill="none" xmlns="http://www.w3.org/2000/svg">
<path d="M26.6665 56.6666L39.9998 70L53.3332 56.6666" stroke="#9895FB" stroke-width="5" stroke-linecap="round" stroke-linejoin="round"/>
<path d="M40 40V70" stroke="#9895FB" stroke-width="5" stroke-linecap="round" stroke-linejoin="round"/>
<path d="M69.5998 60.3C72.4978 58.2622 74.671 55.3539 75.8041 51.9972C76.9371 48.6405 76.9711 45.0101 75.9011 41.6328C74.8311 38.2555 72.7127 35.307 69.8533 33.2152C66.994 31.1235 63.5425 29.9972 59.9998 30H55.7998C54.7972 26.0929 52.9214 22.4642 50.3135 19.387C47.7056 16.3097 44.4336 13.8642 40.7438 12.2345C37.054 10.6048 33.0426 9.83345 29.0115 9.97841C24.9805 10.1234 21.0348 11.1809 17.4716 13.0714C13.9084 14.962 10.8205 17.6362 8.4404 20.8928C6.06028 24.1494 4.44995 27.9035 3.73065 31.8725C3.01134 35.8415 3.20181 39.922 4.28771 43.8068C5.37361 47.6915 7.32664 51.2793 9.99978 54.3" stroke="#9895FB" stroke-width="5" stroke-linecap="round" stroke-linejoin="round"/>
</svg>
