<svg width="80" height="80" viewBox="0 0 80 80" fill="none" xmlns="http://www.w3.org/2000/svg">
<path d="M69.9999 6.66663L63.3333 13.3333M63.3333 13.3333L73.3333 23.3333L61.6666 35L51.6666 25M63.3333 13.3333L51.6666 25M37.9666 38.7C39.6877 40.3982 41.056 42.4201 41.9925 44.6493C42.929 46.8784 43.4153 49.2708 43.4234 51.6887C43.4315 54.1066 42.9612 56.5022 42.0397 58.7376C41.1181 60.973 39.7635 63.0041 38.0538 64.7138C36.344 66.4235 34.313 67.7781 32.0776 68.6997C29.8422 69.6212 27.4466 70.0915 25.0287 70.0834C22.6108 70.0753 20.2184 69.589 17.9892 68.6525C15.7601 67.716 13.7382 66.3478 12.0399 64.6266C8.70037 61.1689 6.85248 56.5379 6.89425 51.7309C6.93602 46.924 8.86412 42.3258 12.2633 38.9266C15.6624 35.5275 20.2606 33.5994 25.0676 33.5576C29.8745 33.5158 34.5056 35.3637 37.9633 38.7033L37.9666 38.7ZM37.9666 38.7L51.6666 25" stroke="#41A9E0" stroke-width="5" stroke-linecap="round" stroke-linejoin="round"/>
</svg>
