<svg width="80" height="80" viewBox="0 0 80 80" fill="none" xmlns="http://www.w3.org/2000/svg">
<path d="M72.1055 54.8359H25.582L27.918 50.0781L66.7305 50.0078C68.043 50.0078 69.168 49.0703 69.4023 47.7734L74.7773 17.6875C74.918 16.8984 74.707 16.0859 74.1914 15.4688C73.9366 15.165 73.6187 14.9203 73.2598 14.7517C72.901 14.5831 72.5098 14.4945 72.1133 14.4922L22.7383 14.3281L22.3164 12.3438C22.0508 11.0781 20.9102 10.1562 19.6133 10.1562H7.54297C6.81155 10.1563 6.11009 10.4468 5.5929 10.964C5.07571 11.4812 4.78516 12.1826 4.78516 12.9141C4.78516 13.6455 5.07571 14.3469 5.5929 14.8641C6.11009 15.3813 6.81155 15.6719 7.54297 15.6719H17.3789L19.2227 24.4375L23.7617 46.4141L17.918 55.9531C17.6145 56.3627 17.4317 56.8491 17.3903 57.3572C17.3489 57.8652 17.4505 58.3748 17.6836 58.8281C18.1523 59.7578 19.0977 60.3438 20.1445 60.3438H25.0508C24.0048 61.733 23.4399 63.4251 23.4414 65.1641C23.4414 69.5859 27.0352 73.1797 31.457 73.1797C35.8789 73.1797 39.4727 69.5859 39.4727 65.1641C39.4727 63.4219 38.8945 61.7266 37.8633 60.3438H50.4492C49.4033 61.733 48.8383 63.4251 48.8398 65.1641C48.8398 69.5859 52.4336 73.1797 56.8555 73.1797C61.2773 73.1797 64.8711 69.5859 64.8711 65.1641C64.8711 63.4219 64.293 61.7266 63.2617 60.3438H72.1133C73.6289 60.3438 74.8711 59.1094 74.8711 57.5859C74.8665 56.8553 74.5732 56.1561 74.0551 55.6409C73.537 55.1257 72.8361 54.8363 72.1055 54.8359ZM23.8867 19.7656L68.8711 19.9141L64.4648 44.5859L29.1289 44.6484L23.8867 19.7656ZM31.457 67.6328C30.0977 67.6328 28.9883 66.5234 28.9883 65.1641C28.9883 63.8047 30.0977 62.6953 31.457 62.6953C32.8164 62.6953 33.9258 63.8047 33.9258 65.1641C33.9258 65.8188 33.6657 66.4468 33.2027 66.9097C32.7397 67.3727 32.1118 67.6328 31.457 67.6328ZM56.8555 67.6328C55.4961 67.6328 54.3867 66.5234 54.3867 65.1641C54.3867 63.8047 55.4961 62.6953 56.8555 62.6953C58.2148 62.6953 59.3242 63.8047 59.3242 65.1641C59.3242 65.8188 59.0641 66.4468 58.6011 66.9097C58.1381 67.3727 57.5102 67.6328 56.8555 67.6328Z" fill="#543088"/>
</svg>
