<svg width="40" height="40" viewBox="0 0 40 40" fill="none" xmlns="http://www.w3.org/2000/svg">
<path d="M34.5161 6.09074C34.5161 6.09074 37.7538 4.82824 37.484 7.89432C37.3941 9.15684 36.5847 13.5756 35.9551 18.3551L33.7966 32.5132C33.7966 32.5132 33.6167 34.5872 31.9978 34.948C30.3789 35.3087 27.9507 33.6855 27.5009 33.3247C27.1412 33.0542 20.7557 28.9962 18.5072 27.0122C17.8776 26.4712 17.1581 25.389 18.5971 24.1265L28.0406 15.1087C29.1198 14.0265 30.1991 11.5015 25.7022 14.5676L13.1109 23.1346C13.1109 23.1346 11.6719 24.0363 8.97383 23.2248L3.12785 21.4212C3.12785 21.4212 0.969342 20.0685 4.65679 18.7158C13.6506 14.4773 24.7129 10.1488 34.5161 6.09074Z" fill="white"/>
</svg>
