<svg width="37" height="37" viewBox="0 0 37 37" fill="none" xmlns="http://www.w3.org/2000/svg">
<path d="M22.0416 18.2109C21.4635 17.9936 21.4635 17.1634 21.4276 16.5852C21.2831 14.526 22.0058 11.3821 21.1386 10.0455C20.5246 9.25 17.5611 9.32284 15.7551 9.43153C15.2486 9.50437 14.6347 9.6119 14.2011 9.82928C13.7675 10.0467 13.3339 10.4074 13.3339 10.7323C13.3339 11.2017 14.4184 11.1301 14.815 11.744C15.2486 12.395 15.2486 13.8033 15.2486 14.9596C15.2486 16.2962 15.0313 18.0676 14.4901 18.1392C13.6588 18.1751 13.1894 17.3437 12.7558 16.7298C11.8886 15.5377 11.0214 14.0554 10.3704 12.6101C10.0455 11.8516 9.86398 11.0202 9.39454 10.6953C8.67188 10.1889 7.3711 10.153 6.10617 10.1889C4.94992 10.2247 3.28723 10.0802 2.96232 10.767C2.7091 11.5255 3.25138 12.2482 3.54045 12.8633C5.0216 16.0788 6.61145 18.8977 8.5632 21.571C10.3704 24.0639 12.0678 26.0515 15.392 27.099C16.332 27.3881 20.4506 28.2194 21.2819 27.099C21.571 26.6654 21.4993 25.6896 21.6439 24.9669C21.7884 24.2442 21.9688 23.5216 22.6556 23.4857C23.2337 23.4499 23.5586 23.9552 23.9205 24.3171C24.3183 24.7148 24.6432 25.0397 24.9322 25.4017C25.619 26.0885 26.3417 27.0273 27.2089 27.3892C28.401 27.8957 30.244 27.7512 31.9784 27.6783C33.3879 27.6425 34.3996 27.3534 34.5083 26.5221C34.5811 25.8711 33.8573 24.9322 33.4237 24.3899C32.3392 23.0533 31.8339 22.6556 30.6048 21.4265C30.0625 20.8842 29.3757 20.3061 29.3757 19.6562C29.3399 19.2585 29.6648 18.8977 29.9538 18.5C31.2188 16.6211 32.4837 15.2845 33.6399 13.3327C33.9649 12.7546 34.7245 11.418 34.4354 10.767C34.1105 10.0443 32.3033 10.2606 31.1829 10.2606C29.7376 10.2606 27.8587 10.1519 27.4968 10.4409C26.81 10.9104 26.5209 11.67 26.196 12.3927C25.4734 14.0554 24.4975 15.7527 23.4858 17.0177C23.1239 17.4513 22.4382 18.3543 22.0404 18.2098L22.0416 18.2109Z" fill="white"/>
</svg>
