<svg width="47" height="47" viewBox="0 0 47 47" fill="none" xmlns="http://www.w3.org/2000/svg">
<path d="M35.7273 12.2039C35.7273 12.2039 31.8278 11.7134 23.453 11.7134C15.3499 11.7134 11.2712 12.2039 11.2712 12.2039C10.2294 12.2043 9.23048 12.6184 8.49398 13.3552C7.75749 14.092 7.34375 15.0911 7.34375 16.1328V30.8703C7.34356 31.3862 7.44499 31.8972 7.64226 32.3739C7.83953 32.8507 8.12877 33.2839 8.49346 33.6489C8.85816 34.0138 9.29117 34.3034 9.76777 34.501C10.2444 34.6987 10.7552 34.8005 11.2712 34.8007C11.2712 34.8007 15.0635 35.2883 23.453 35.2883C31.8381 35.2883 35.7273 34.8007 35.7273 34.8007C36.2435 34.801 36.7547 34.6996 37.2317 34.5022C37.7086 34.3048 38.142 34.0153 38.5069 33.6503C38.8718 33.2852 39.1612 32.8517 39.3584 32.3747C39.5556 31.8977 39.6568 31.3865 39.6562 30.8703V16.1299C39.6562 15.6141 39.5546 15.1033 39.3571 14.6268C39.1596 14.1503 38.8702 13.7174 38.5053 13.3528C38.1404 12.9882 37.7073 12.6991 37.2306 12.5019C36.754 12.3048 36.2432 12.2036 35.7273 12.2039ZM19.1833 29.3384V17.6692L29.6614 23.5001L19.1833 29.3384Z" fill="white"/>
</svg>
