<svg width="27" height="15" fill="none" xmlns="http://www.w3.org/2000/svg"><path d="M22.031 1.875a2.344 2.344 0 110 4.687 2.344 2.344 0 010-4.687zM3.281.937A3.281 3.281 0 016.563 4.22l-.018.344 6.944 3.601a3.267 3.267 0 011.98-.664l2.344-3.281a4.219 4.219 0 114.218 4.218l-3.281 2.344a3.281 3.281 0 11-6.56-.123l-7.117-3.69A3.281 3.281 0 113.281.938zm13.161 8.759a1.406 1.406 0 01-1.276 2.506l-2.01-1.043a2.344 2.344 0 101.301-2.493l1.985 1.03zM3.282 1.875a2.344 2.344 0 10.764 4.56L2.49 5.628a1.406 1.406 0 111.276-2.506l1.855.962a2.344 2.344 0 00-2.34-2.209zm18.75-.938a3.281 3.281 0 100 6.563 3.281 3.281 0 000-6.563z" fill="#67718E"/></svg>