<svg width="22" height="12" fill="none" xmlns="http://www.w3.org/2000/svg"><path d="M13.297 5.813c-.375-.141-.375-.68-.398-1.055-.094-1.336.375-3.375-.188-4.242C12.313 0 10.391.047 9.22.118c-.328.047-.726.117-1.008.258-.28.14-.562.375-.562.586 0 .304.703.258.96.656.282.422.282 1.336.282 2.086 0 .867-.141 2.016-.492 2.062-.54.023-.844-.516-1.125-.914A15.638 15.638 0 015.727 2.18c-.211-.492-.329-1.032-.633-1.242C4.624.609 3.78.586 2.96.609 2.21.632 1.132.539.92.984c-.164.492.188.96.375 1.36.961 2.086 1.992 3.914 3.258 5.648 1.173 1.617 2.274 2.906 4.43 3.586.61.187 3.281.727 3.82 0 .188-.281.141-.914.235-1.383s.21-.938.656-.961c.375-.023.586.305.82.54.259.257.47.468.657.703.446.445.914 1.054 1.477 1.289.773.329 1.969.235 3.094.188.914-.024 1.57-.211 1.64-.75.048-.423-.422-1.032-.703-1.383-.703-.867-1.031-1.125-1.828-1.923-.352-.351-.798-.726-.798-1.148-.023-.258.188-.492.375-.75.82-1.219 1.641-2.086 2.391-3.352.211-.375.704-1.242.516-1.664-.21-.469-1.383-.328-2.11-.328-.937 0-2.156-.071-2.39.117-.446.304-.633.797-.844 1.266-.469 1.078-1.102 2.179-1.758 3-.235.28-.68.867-.938.773h.001z" fill="#67718E"/></svg>