<svg width="21" height="21" fill="none" xmlns="http://www.w3.org/2000/svg"><path d="M17.063 19.688H3.938s-1.313-.044-1.313-3.5h15.75c0 3.456-1.313 3.5-1.313 3.5z" fill="#C4C4C4"/><path d="M3.5 1.313h14v14.874h-14V1.313z" fill="#fff"/><path d="M7.875 6.563h7v.875h-7v-.875zm0 1.75h7v.874h-7v-.874zm0 1.75h7v.874h-7v-.874zm0 1.75h7v.874h-7v-.874zm0 1.75h7v.874h-7v-.874zm-1.75-7H7v.875h-.875v-.875zm0 1.75H7v.874h-.875v-.874zm0 1.75H7v.874h-.875v-.874zm0 1.75H7v.874h-.875v-.874zm0 1.75H7v.874h-.875v-.874z" fill="#2B59FF"/></svg>