<svg width="19" height="19" fill="none" xmlns="http://www.w3.org/2000/svg"><path d="M13.656 11.875a.594.594 0 100-1.187.594.594 0 000 1.187z" fill="#fff"/><path d="M18.406 9.5h-.593V4.75c0-.656-.531-1.187-1.188-1.187V2.375c0-.399-.12-.708-.358-.92-.352-.314-.812-.27-.86-.266l-1.124.116-.19-.523a1.187 1.187 0 00-1.523-.71L7.164 2.04c-2.552.265-4.968.518-6.009.634C.282 2.77.019 3.832 0 4.444a.296.296 0 00.02.113C.01 4.62 0 4.684 0 4.75v13.063C0 18.469.531 19 1.188 19h15.437c.657 0 1.188-.531 1.188-1.187v-4.75h.593a.594.594 0 00.594-.594v-2.375a.594.594 0 00-.594-.594zm-2.078-4.156a.297.297 0 110 .594h-.593a.297.297 0 110-.594h.593zm-1.484.297a.297.297 0 01-.297.297h-.594a.297.297 0 110-.594h.594c.164 0 .297.133.297.297zM2.078 17.219h-.593a.297.297 0 110-.594h.593a.297.297 0 110 .594zm0-11.281h-.593a.297.297 0 110-.594h.593a.297.297 0 110 .594zm1.782 11.28h-.594a.297.297 0 110-.593h.594a.297.297 0 110 .594zm0-11.28h-.594a.297.297 0 110-.594h.594a.297.297 0 110 .594zm1.78 11.28h-.593a.297.297 0 110-.593h.594a.297.297 0 110 .594zm0-11.28h-.593a.297.297 0 110-.594h.594a.297.297 0 110 .594zm1.782 11.28h-.594a.297.297 0 110-.593h.594a.297.297 0 110 .594zm0-11.28h-.594a.297.297 0 110-.594h.594a.297.297 0 110 .594zm1.781 11.28H8.61a.297.297 0 110-.593h.593a.297.297 0 110 .594zm0-11.28H8.61a.297.297 0 110-.594h.593a.297.297 0 110 .594zm.104-2.375H4.716L12.774.63a.594.594 0 01.76.355l.939 2.578h-1.81a1.78 1.78 0 00-3.355 0zm3.756 2.078a.297.297 0 01-.297.297h-.594a.297.297 0 110-.594h.594c.164 0 .297.133.297.297zm-2.079-2.672c.439 0 .818.24 1.023.594H9.961a1.183 1.183 0 011.024-.594zm0 14.25h-.593a.297.297 0 110-.594h.594a.297.297 0 110 .594zm0-11.281h-.593a.297.297 0 110-.594h.594a.297.297 0 110 .594zm1.782 11.28h-.594a.297.297 0 110-.593h.594a.297.297 0 110 .594zm1.781 0h-.594a.297.297 0 110-.593h.594a.297.297 0 110 .594zm1.781 0h-.593a.297.297 0 110-.593h.593a.297.297 0 110 .594zm2.078-5.046a.297.297 0 01-.296.297h-5.344a.297.297 0 01-.297-.297V10.39c0-.165.133-.297.297-.297h5.344c.164 0 .296.133.296.297v1.78z" fill="#fff"/></svg>