<svg width="186" height="372" viewBox="0 0 186 372" fill="none" xmlns="http://www.w3.org/2000/svg">
<mask id="path-1-inside-1_15_1462" fill="white">
<path d="M185.999 372C161.573 372 137.386 367.189 114.82 357.842C92.2533 348.494 71.7488 334.794 54.4771 317.522C37.2054 300.25 23.5047 279.746 14.1574 257.179C4.81 234.612 -0.00100636 210.426 -0.000976562 186C-0.000946765 161.574 4.81012 137.387 14.1575 114.821C23.505 92.2541 37.2057 71.7496 54.4774 54.4779C71.7491 37.2062 92.2537 23.5056 114.82 14.1583C137.387 4.81092 161.574 -5.85266e-05 185.999 5.33937e-10L185.999 4.88498C162.215 4.88492 138.664 9.56955 116.69 18.6714C94.7157 27.7732 74.7497 41.114 57.9316 57.9321C41.1135 74.7502 27.7726 94.7162 18.6707 116.69C9.56875 138.664 4.88403 162.215 4.884 186C4.88397 209.784 9.56863 233.336 18.6705 255.31C27.7724 277.284 41.1132 297.25 57.9313 314.068C74.7494 330.886 94.7154 344.227 116.689 353.328C138.663 362.43 162.215 367.115 185.999 367.115L185.999 372Z"/>
</mask>
<path d="M185.999 372C161.573 372 137.386 367.189 114.82 357.842C92.2533 348.494 71.7488 334.794 54.4771 317.522C37.2054 300.25 23.5047 279.746 14.1574 257.179C4.81 234.612 -0.00100636 210.426 -0.000976562 186C-0.000946765 161.574 4.81012 137.387 14.1575 114.821C23.505 92.2541 37.2057 71.7496 54.4774 54.4779C71.7491 37.2062 92.2537 23.5056 114.82 14.1583C137.387 4.81092 161.574 -5.85266e-05 185.999 5.33937e-10L185.999 4.88498C162.215 4.88492 138.664 9.56955 116.69 18.6714C94.7157 27.7732 74.7497 41.114 57.9316 57.9321C41.1135 74.7502 27.7726 94.7162 18.6707 116.69C9.56875 138.664 4.88403 162.215 4.884 186C4.88397 209.784 9.56863 233.336 18.6705 255.31C27.7724 277.284 41.1132 297.25 57.9313 314.068C74.7494 330.886 94.7154 344.227 116.689 353.328C138.663 362.43 162.215 367.115 185.999 367.115L185.999 372Z" stroke="#3060FF" stroke-width="10" mask="url(#path-1-inside-1_15_1462)"/>
</svg>
