<svg width="14" height="14" viewBox="0 0 14 14" fill="none" xmlns="http://www.w3.org/2000/svg">
<path d="M13.875 12.3562L10.3456 8.82625C10.9666 7.90617 11.2979 6.82126 11.2969 5.71125C11.2969 2.63125 8.79187 0.125 5.71125 0.125C2.63125 0.125 0.125 2.63125 0.125 5.71125C0.125 8.79187 2.63125 11.2975 5.71125 11.2975C6.82131 11.2988 7.9063 10.9675 8.82625 10.3463L12.355 13.875L13.875 12.3562ZM5.71125 9.57812C4.68583 9.57713 3.70269 9.16934 2.97761 8.44426C2.25253 7.71918 1.84474 6.73605 1.84375 5.71063C1.84491 4.68526 2.25275 3.70221 2.97779 2.97717C3.70284 2.25212 4.68588 1.84428 5.71125 1.84313C6.73662 1.84428 7.71966 2.25212 8.44471 2.97717C9.16975 3.70221 9.57759 4.68526 9.57875 5.71063C9.57759 6.73599 9.16975 7.71904 8.44471 8.44408C7.71966 9.16913 6.73662 9.57697 5.71125 9.57812Z" fill="#49536D"/>
</svg>
