<svg width="17" height="17" fill="none" xmlns="http://www.w3.org/2000/svg"><g clip-path="url(#clip0_23_3042)" fill="#fff"><path d="M14.817 2.53c.431 0 .813.211 1.12.38.226.125.405.223.588.223.08 0 .475-.028.475-.581V1.18A1.15 1.15 0 0015.852.033h-5.76a1.15 1.15 0 00-1.15 1.147v5.76a1.15 1.15 0 001.149 1.149h5.76A1.15 1.15 0 0017 6.94V5.57c0-.553-.396-.581-.475-.581-.184 0-.362.098-.587.222-.308.17-.69.38-1.12.38-.83 0-1.504-.687-1.504-1.53 0-.845.675-1.532 1.503-1.532zM6.909.033H5.538c-.553 0-.581.396-.581.475 0 .183.098.362.222.587.17.308.38.69.38 1.12 0 .83-.687 1.504-1.53 1.504-.845 0-1.531-.675-1.531-1.504 0-.43.21-.812.38-1.12C3.001.87 3.1.691 3.1.508c0-.08-.028-.475-.581-.475h-1.37A1.15 1.15 0 000 1.18v5.76a1.15 1.15 0 001.148 1.15h5.76a1.15 1.15 0 001.15-1.15V1.18A1.15 1.15 0 006.909.033zm0 8.877h-5.76A1.15 1.15 0 000 10.06v1.37c0 .553.396.581.475.581.184 0 .362-.098.588-.222.307-.17.69-.38 1.12-.38.829 0 1.503.687 1.503 1.53 0 .845-.674 1.531-1.503 1.531-.43 0-.813-.21-1.12-.38-.226-.124-.404-.222-.588-.222-.079 0-.475.028-.475.581v1.371a1.15 1.15 0 001.148 1.148h5.76a1.15 1.15 0 001.149-1.148v-5.76a1.15 1.15 0 00-1.148-1.15zm8.943 0h-5.76a1.15 1.15 0 00-1.149 1.149v5.76a1.15 1.15 0 001.149 1.148h1.37c.553 0 .581-.396.581-.475 0-.184-.098-.362-.222-.587-.17-.308-.38-.69-.38-1.12 0-.83.687-1.504 1.53-1.504.845 0 1.531.675 1.531 1.503 0 .43-.21.813-.38 1.12-.124.226-.222.404-.222.588 0 .08.028.475.581.475h1.371A1.15 1.15 0 0017 15.82v-5.76a1.15 1.15 0 00-1.148-1.149z"/></g><defs><clipPath id="clip0_23_3042"><path fill="#fff" d="M0 0h17v17H0z"/></clipPath></defs></svg>