<svg width="17" height="17" viewBox="0 0 17 17" fill="none" xmlns="http://www.w3.org/2000/svg">
<g clip-path="url(#clip0_23_3042)">
<path d="M14.8174 2.53043C15.248 2.53043 15.6303 2.74105 15.9376 2.91029C16.1633 3.03457 16.3415 3.13271 16.5248 3.13271C16.6043 3.13271 17.0002 3.10475 17.0002 2.55182V1.18088C17.0002 0.547776 16.4852 0.0327148 15.8521 0.0327148H10.0915C9.45842 0.0327148 8.94336 0.547776 8.94336 1.18088V6.94142C8.94336 7.57452 9.45842 8.08959 10.0915 8.08959H15.852C16.4852 8.08959 17.0002 7.57452 17.0002 6.94142V5.57056C17.0002 5.01763 16.6042 4.98963 16.5248 4.98963C16.3414 4.98963 16.1632 5.08781 15.9376 5.21205C15.6304 5.38129 15.248 5.59191 14.8174 5.59191C13.9885 5.59191 13.3142 4.90523 13.3142 4.06115C13.3141 3.21711 13.9886 2.53043 14.8174 2.53043Z" fill="white"/>
<path d="M6.90871 0.0327148H5.5378C4.98487 0.0327148 4.95691 0.42877 4.95691 0.508175C4.95691 0.691437 5.05509 0.869704 5.17934 1.09535C5.34854 1.40261 5.5592 1.78501 5.5592 2.21547C5.5592 3.04436 4.87248 3.71872 4.02844 3.71872C3.18436 3.71872 2.49767 3.04436 2.49767 2.21547C2.49767 1.78505 2.70829 1.40265 2.87749 1.09539C3.00182 0.869704 3.09996 0.691478 3.09996 0.508175C3.09996 0.42877 3.07196 0.0327148 2.51903 0.0327148H1.14816C0.515061 0.0327148 0 0.547816 0 1.18088V6.94142C0 7.57452 0.515061 8.08959 1.14816 8.08959H6.90871C7.54181 8.08959 8.05687 7.57452 8.05687 6.94142V1.18088C8.05687 0.547816 7.54181 0.0327148 6.90871 0.0327148Z" fill="white"/>
<path d="M6.90871 8.91038H1.14816C0.515061 8.91038 0 9.42544 0 10.0585V11.4294C0 11.9824 0.396015 12.0103 0.475419 12.0103C0.658722 12.0103 0.836949 11.9121 1.06259 11.7879C1.36986 11.6187 1.75226 11.408 2.18276 11.408C3.01165 11.408 3.686 12.0947 3.686 12.9388C3.686 13.7828 3.01165 14.4695 2.18276 14.4695C1.75234 14.4695 1.36994 14.2589 1.06267 14.0896C0.836949 13.9654 0.658722 13.8672 0.475419 13.8672C0.396015 13.8673 0 13.8953 0 14.4482V15.8191C0 16.4522 0.515061 16.9672 1.14816 16.9672H6.90871C7.54181 16.9672 8.05687 16.4522 8.05687 15.8191V10.0585C8.05687 9.42544 7.54181 8.91038 6.90871 8.91038Z" fill="white"/>
<path d="M15.8521 8.91038H10.0915C9.45842 8.91038 8.94336 9.42544 8.94336 10.0585V15.8191C8.94336 16.4522 9.45842 16.9672 10.0915 16.9672H11.4624C12.0154 16.9672 12.0432 16.5712 12.0432 16.4917C12.0432 16.3085 11.945 16.1302 11.8208 15.9046C11.6517 15.5973 11.441 15.215 11.441 14.7845C11.441 13.9556 12.1277 13.2813 12.9717 13.2813C13.8158 13.2813 14.5025 13.9556 14.5025 14.7845C14.5025 15.2149 14.2919 15.5973 14.1227 15.9045C13.9983 16.1303 13.9002 16.3084 13.9002 16.4917C13.9002 16.5712 13.9282 16.9672 14.4811 16.9672H15.852C16.4851 16.9672 17.0001 16.4522 17.0001 15.819V10.0585C17.0002 9.42544 16.4851 8.91038 15.8521 8.91038Z" fill="white"/>
</g>
<defs>
<clipPath id="clip0_23_3042">
<rect width="17" height="17" fill="white"/>
</clipPath>
</defs>
</svg>
