<svg width="15" height="15" viewBox="0 0 15 15" fill="none" xmlns="http://www.w3.org/2000/svg">
<path d="M7.5 1.64062C4.13391 1.64062 1.40625 4.36875 1.40625 7.73438C1.40625 11.1 4.13391 13.8281 7.5 13.8281C10.8652 13.8281 13.5938 11.1 13.5938 7.73438C13.5938 4.36875 10.8656 1.64062 7.5 1.64062ZM7.45078 12.6689C4.7325 12.6689 2.52891 10.4653 2.52891 7.74703C2.52891 5.02875 4.7325 2.82516 7.45078 2.82516C10.1686 2.82516 12.3727 5.02875 12.3727 7.74703C12.3727 10.4653 10.1686 12.6689 7.45078 12.6689ZM8.87344 8.03016H7.47656V5.67141C7.47656 5.41547 7.26891 5.20734 7.01297 5.20734C6.75703 5.20734 6.54891 5.415 6.54891 5.67141V8.49375C6.54891 8.75016 6.75656 8.95734 7.01297 8.95734H8.87344C9.12984 8.95734 9.3375 8.75016 9.3375 8.49375C9.3375 8.23781 9.12984 8.03016 8.87344 8.03016Z" fill="white"/>
</svg>
