<svg width="9" height="13" fill="none" xmlns="http://www.w3.org/2000/svg"><path fill-rule="evenodd" clip-rule="evenodd" d="M3.958 5.958c-1.441 0-2.167-.882-2.167-1.896 0-.98.689-1.895 2.167-1.895v3.791zm3.25 2.98c0 .98-.688 1.895-2.167 1.895V7.042c1.442 0 2.167.882 2.167 1.896zm1.083 0c0-1.5-1.097-2.98-3.25-2.98V2.167h1.084c.598 0 1.083.484 1.083 1.083h1.083c0-1.197-.97-2.167-2.166-2.167H5.04V0H3.958v1.083c-2.144 0-3.25 1.475-3.25 2.98 0 1.499 1.097 2.979 3.25 2.979v3.791H2.875A1.083 1.083 0 011.79 9.75H.708c0 1.197.97 2.167 2.167 2.167h1.083V13h1.083v-1.083c2.144 0 3.25-1.475 3.25-2.98z" fill="#fff"/></svg>