<svg width="9" height="13" viewBox="0 0 9 13" fill="none" xmlns="http://www.w3.org/2000/svg">
<path fill-rule="evenodd" clip-rule="evenodd" d="M3.95801 5.95833C2.51663 5.95833 1.79134 5.07596 1.79134 4.0625C1.79134 3.08263 2.4798 2.16667 3.95801 2.16667V5.95833ZM7.20801 8.9375C7.20801 9.91738 6.51955 10.8333 5.04134 10.8333V7.04167C6.48272 7.04167 7.20801 7.92404 7.20801 8.9375ZM8.29134 8.9375C8.29134 7.43817 7.19447 5.95833 5.04134 5.95833V2.16667H6.12467C6.72322 2.16667 7.20801 2.65146 7.20801 3.25H8.29134C8.29134 2.05346 7.32122 1.08333 6.12467 1.08333H5.04134V0H3.95801V1.08333C1.81409 1.08333 0.708008 2.55775 0.708008 4.0625C0.708008 5.56183 1.80488 7.04167 3.95801 7.04167V10.8333H2.87467C2.27613 10.8333 1.79134 10.3485 1.79134 9.75H0.708008C0.708008 10.9465 1.67813 11.9167 2.87467 11.9167H3.95801V13H5.04134V11.9167C7.18526 11.9167 8.29134 10.4423 8.29134 8.9375Z" fill="white"/>
</svg>
