<svg width="49" height="55" fill="none" xmlns="http://www.w3.org/2000/svg"><path d="M24.072 27.956a13.9 13.9 0 01-13.927-13.928A13.9 13.9 0 0124.072.101a13.9 13.9 0 0113.927 13.927 13.9 13.9 0 01-13.927 13.928zm0-23.57a9.602 9.602 0 00-9.642 9.642 9.602 9.602 0 009.642 9.642 9.602 9.602 0 009.642-9.642 9.602 9.602 0 00-9.642-9.642zM5.219 44.883V54.9H.934V44.883c0-8.464 10.391-14.999 23.569-14.999 13.178 0 23.57 6.535 23.57 14.999V54.9h-4.285V44.883c0-5.785-8.786-10.714-19.285-10.714S5.219 39.099 5.219 44.883z" fill="#fff"/></svg>