<svg width="186" height="372" fill="none" xmlns="http://www.w3.org/2000/svg"><mask id="a" fill="#fff"><path d="M185.999 372A186.003 186.003 0 0114.157 257.179 186 186 0 01186 0v4.885A181.113 181.113 0 004.884 186a181.118 181.118 0 00111.805 167.328 181.116 181.116 0 0069.31 13.787V372z"/></mask><path d="M185.999 372A186.003 186.003 0 0114.157 257.179 186 186 0 01186 0v4.885A181.113 181.113 0 004.884 186a181.118 181.118 0 00111.805 167.328 181.116 181.116 0 0069.31 13.787V372z" stroke="#3060FF" stroke-width="10" mask="url(#a)"/></svg>