<svg width="23" height="23" fill="none" xmlns="http://www.w3.org/2000/svg"><g clip-path="url(#clip0_15_1544)" fill="#2B56E8"><path d="M15.094 17.25H7.906a1.438 1.438 0 00-1.437 1.438v1.437a1.438 1.438 0 001.437 1.438h7.188a1.438 1.438 0 001.437-1.438v-1.438a1.438 1.438 0 00-1.437-1.437zm0 2.875H7.906v-1.438h7.188v1.438zm5.539-9.852l-8.625-8.625a.718.718 0 00-1.016 0l-8.625 8.625a.719.719 0 00.508 1.227h3.594v2.875a1.44 1.44 0 001.437 1.438h7.188a1.44 1.44 0 001.437-1.438V11.5h3.594a.718.718 0 00.508-1.227zm-5.54-.21v4.312H7.907v-4.313H4.61l6.89-6.89 6.89 6.89h-3.296z"/></g><defs><clipPath id="clip0_15_1544"><path fill="#fff" d="M0 0h23v23H0z"/></clipPath></defs></svg>