<svg width="20" height="20" fill="none" xmlns="http://www.w3.org/2000/svg"><path fill-rule="evenodd" clip-rule="evenodd" d="M7.093 3.082c.379.313.862.46 1.24.46a.625.625 0 010 1.25 3.28 3.28 0 01-1.875-.622v4.997a.622.622 0 01-.112.357 2.71 2.71 0 11-1.138-3.057v-4.8h1.25c0 .665.274 1.117.635 1.415zM5.208 8.75a1.458 1.458 0 10-2.916 0 1.458 1.458 0 002.916 0zM16.31 3.284c-.56.143-1.292.448-2.356.893l-1.667.698c-.508.212-.843.354-1.09.49-.233.128-.333.225-.398.322-.064.096-.114.227-.143.491-.03.28-.031.644-.031 1.195v1.704l7.083-2.833c-.002-.924-.012-1.59-.086-2.087-.083-.56-.224-.75-.378-.853-.154-.103-.386-.16-.934-.02zm2.648 3.368v-.029c0-1.088 0-1.975-.1-2.649-.103-.697-.332-1.319-.922-1.71-.59-.393-1.252-.365-1.934-.191-.66.168-1.479.51-2.482.93l-1.745.731c-.47.197-.87.364-1.182.536-.333.184-.62.401-.834.724-.215.323-.305.671-.346 1.05-.038.354-.038.786-.038 1.296v6.627a2.708 2.708 0 101.218 1.866h.032v-5.41l7.083-2.833v4.71a2.708 2.708 0 101.235 1.994h.015V6.653zm-2.708 6.473a1.458 1.458 0 100 2.917 1.458 1.458 0 000-2.917zm-8.334 1.667a1.458 1.458 0 100 2.916 1.458 1.458 0 000-2.916z" fill="#fff"/></svg>