<svg width="34" height="34" viewBox="0 0 34 34" fill="none" xmlns="http://www.w3.org/2000/svg">
<g clip-path="url(#clip0_24_288)">
<path d="M28.9 0H5.1C2.28335 0 0 2.28335 0 5.1V28.9C0 31.7167 2.28335 34 5.1 34H28.9C31.7167 34 34 31.7167 34 28.9V5.1C34 2.28335 31.7167 0 28.9 0Z" fill="#1DA0FE"/>
<path d="M14.0204 23C13.5265 23 13.5714 22.8175 13.4367 22.3612L12 17.5703L23 11" fill="#C8DAEA"/>
<path d="M14 23C14.3443 23 14.541 22.8118 14.7869 22.6235L17 20.6L14.2459 19" fill="#A9C9DD"/>
<path d="M14.6293 19.2328L20.9634 23.7983C21.6203 24.2134 22.1833 23.9828 22.371 23.1527L24.9516 11.2547C25.1862 10.2402 24.5293 9.77899 23.8255 10.1018L8.7643 15.8202C7.77899 16.1891 7.77899 16.7887 8.57662 17.0192L12.4709 18.2183L21.3857 12.6382C21.808 12.4076 22.1833 12.4998 21.9018 12.8227" fill="#F6FBFE"/>
</g>
<defs>
<clipPath id="clip0_24_288">
<rect width="34" height="34" fill="white"/>
</clipPath>
</defs>
</svg>
