<svg width="44" height="44" viewBox="0 0 44 44" fill="none" xmlns="http://www.w3.org/2000/svg">
<g clip-path="url(#clip0_24_274)">
<rect x="8" y="11" width="24" height="24" fill="white"/>
<path fill-rule="evenodd" clip-rule="evenodd" d="M17.5746 27.6896V15.3436C21.9574 17.4059 25.3519 19.3982 29.3666 21.5461C26.0554 23.3825 21.9574 25.4429 17.5746 27.6896ZM42.0002 9.20332C41.2442 8.20725 39.9556 7.43189 38.5838 7.1752C34.5516 6.40949 9.39617 6.40731 5.36614 7.1752C4.26604 7.38143 3.28644 7.87991 2.44493 8.6544C-1.1008 11.9454 0.0102656 29.5938 0.864924 32.4526C1.22432 33.6901 1.68892 34.5825 2.27403 35.1683C3.02788 35.9427 4.06003 36.476 5.24559 36.7151C8.5656 37.4019 25.6697 37.7858 38.5136 36.8183C39.697 36.612 40.7445 36.0616 41.5707 35.2542C44.849 31.9764 44.6255 13.3368 42.0002 9.20332Z" fill="#1DA0FE"/>
</g>
<defs>
<clipPath id="clip0_24_274">
<rect width="44" height="44" fill="white"/>
</clipPath>
</defs>
</svg>
