<svg width="49" height="49" viewBox="0 0 49 49" fill="none" xmlns="http://www.w3.org/2000/svg">
<path d="M13.0108 20.1215C11.3688 13.8471 13.5972 9.50781 19.2855 6.98633C19.2855 6.98633 17.7608 8.62822 18.4645 9.68372C19.1682 10.7392 17.3503 13.4366 17.3503 13.4366C20.1651 9.03869 22.8627 6.45858 27.0849 7.33816C27.0849 7.33816 26.3225 8.04183 25.267 9.09733C24.3873 9.97692 23.1559 12.7916 23.1559 12.7916C23.5664 12.3225 24.0355 11.912 24.5046 11.5015C28.0818 8.56958 32.304 8.62822 37.1126 11.5602C34.0046 11.3843 32.0108 11.7947 31.6003 13.6125C31.6003 13.6125 32.1281 14.9612 35.2947 14.9026C38.4614 14.9026 39.5756 17.3654 39.5756 17.3654C38.5201 17.2482 37.1713 17.5414 35.6466 17.9518C37.2886 18.4209 38.4028 19.2419 38.8719 20.6492L36.233 20.1801L37.875 23.4053L34.9429 20.5906L31.8349 18.4209L33.5941 17.4241C33.5941 17.4241 31.3657 17.5414 28.5509 16.4858C28.4923 16.4858 29.841 16.955 28.375 16.4272C26.9089 15.8995 24.6219 16.6618 24.6219 16.6618L27.2022 14.844C27.2022 14.844 22.804 15.3717 21.2793 16.0167C19.7546 16.6618 17.8781 18.4796 17.409 19.6524C16.9398 20.8251 16.9398 21.4115 16.8812 21.5288C16.8225 21.6461 16.7052 22.2911 16.7052 22.2911C16.7052 22.2911 16.0602 22.3498 14.7701 21.8806C13.4799 21.4115 13.0108 20.1215 13.0108 20.1215Z" fill="#E51D2C"/>
<path d="M17.9698 21.2853C18.3779 19.0107 21.7008 16.6778 23.3914 16.2695C23.3914 16.2695 21.351 17.8442 21.2344 18.4858C23.508 17.6693 26.8891 17.086 30.0954 17.9026L26.7725 18.7774C32.0192 18.7774 36.5663 21.4602 37.6156 25.8928L32.4273 23.7348C33.2434 25.1346 36.6829 27.6424 36.3914 29.7421C36.0999 31.8417 34.2344 34.0579 34.2344 34.0579L30.9699 27.1759C31.786 31.8417 29.8622 35.516 29.8622 35.516L28.638 32.5999C27.064 38.4321 20.0102 42.1065 19.8936 41.9898C19.8353 41.8732 22.1089 36.6825 22.1089 36.6825C22.1089 36.6825 19.777 38.6654 18.9026 38.957L19.6021 35.8659C17.5618 37.3823 15.638 38.3738 14.3555 36.5658C14.3555 36.5658 15.5214 37.2657 16.4541 36.8574C17.3869 36.4492 18.7277 35.4577 18.7277 35.4577C18.7277 35.4577 19.8936 34.5245 21.1178 33.883C21.8174 33.533 22.6335 34.8161 21.6425 32.6582C19.6021 28.109 26.4811 31.4334 26.4811 28.9255C26.4228 20.8187 29.6873 28.8089 29.3959 23.5015C28.9878 16.1529 19.6021 18.9524 17.9698 21.2853Z" fill="#E75526"/>
<path d="M17.1791 25.1496C18.1137 24.5065 20.5088 28.9497 18.8731 28.482C17.2375 28.0143 15.485 29.4174 15.1345 30.2943C14.784 31.1712 13.6741 34.9129 15.1345 35.1467C16.5949 35.3806 20.8593 33.9775 20.2751 32.8667C18.9316 30.3528 21.6187 28.7743 24.8317 29.3004C26.0584 29.4758 26 26.4942 25.8832 25.7927C25.7663 25.0911 26.8178 23.7465 28.6287 24.8573C28.6872 20.1803 26.701 20.3557 24.7732 20.1218C24.7732 21.2911 24.3643 22.0511 23.0792 21.9926L23.7802 22.4603L22.2613 22.8696L24.0138 22.9865C24.0138 22.9865 21.7356 25.6173 20.8009 24.7988C19.4573 23.2788 17.1791 25.1496 17.1791 25.1496Z" fill="#E51D2A"/>
<path d="M15.7429 28.0576C13.8316 29.1072 12.0995 29.807 11.7411 31.0898C11.4425 33.3057 12.0397 34.7635 13.0551 34.8801C14.0705 34.9967 13.9511 34.5302 13.9511 34.5302C13.9511 34.5302 13.7719 33.1891 13.7719 31.498C13.6524 29.8653 16.0416 28.9906 15.7429 28.0576Z" fill="#E51D2A"/>
<path d="M12.7578 34.8075C14.0452 35.0981 13.9892 34.8075 13.5974 32.2498C13.3735 30.4479 14.2131 29.9247 15.2207 28.8784C15.2207 28.8784 13.9333 29.3434 13.4855 30.4479C13.0377 31.6104 13.4855 33.9937 13.4855 34.4006C13.5414 34.8656 12.7578 34.8075 12.7578 34.8075Z" fill="#E94D3E"/>
<path d="M14.6742 28.605C14.4432 28.719 14.2122 28.947 14.1545 28.947C14.0967 28.947 13.0573 29.7452 12.5376 30.2013C12.0179 30.6573 11.7869 31.5695 11.7291 32.7097C11.6714 31.7975 11.4404 30.8854 12.4221 30.0302C12.9418 29.5171 13.8658 29.0041 14.6742 28.605Z" fill="#AE1B1F"/>
<path d="M9.47461 25.9053C10.7543 23.988 12.2666 22.6698 13.9535 22.3103C16.222 23.3289 18.3742 23.6285 17.7925 23.7483C17.4435 23.8082 17.0945 25.4859 15.8148 24.8268C14.5933 24.1677 18.7813 27.4632 18.4905 27.2235C18.316 27.1037 12.2085 24.4673 9.47461 25.9053Z" fill="#F0E63A"/>
<path d="M11.1172 26.1275C12.9606 27.0405 14.2855 28.0677 14.9767 29.1519C15.1496 29.1519 18.8363 27.3259 18.7787 27.0405C18.3754 27.4971 16.0712 27.0976 15.092 26.2987C13.9975 25.4427 11.1172 26.1275 11.1172 26.1275Z" fill="#F0E63A"/>
<path d="M19.3275 6.98682C16.5203 8.27359 13.7716 10.0868 12.8359 14.0056C11.9001 18.3923 12.7189 22.2527 16.8128 22.3111L16.8712 22.0187C12.4265 22.0772 11.9586 16.0527 14.0055 11.7245C15.1167 9.32641 17.5146 8.33208 19.3275 6.98682Z" fill="white"/>
<path d="M19.3277 6.98682C18.9333 7.46446 18.1445 8.47945 18.3699 9.43473C19.3277 10.9274 17.5811 13.1962 17.4121 13.5544C17.4121 13.5544 18.9333 9.97208 18.2009 9.79296C17.8628 9.79296 17.9755 9.01679 18.3135 8.24063C18.6516 7.64357 19.1023 7.16593 19.3277 6.98682Z" fill="white"/>
<path d="M17.4121 13.2112C17.4706 13.1528 19.4591 9.59295 22.0324 8.01728C24.4302 6.4416 27.1205 7.1419 27.1205 7.1419C25.7169 8.48414 24.6642 9.18444 23.1436 12.5692C26.8866 8.5425 31.4483 7.90056 37.0628 11.4021C34.3141 11.227 31.9747 11.5771 31.5653 13.4446C32.735 14.9619 34.665 14.6118 36.2441 14.8452C37.7646 15.0786 38.8759 15.8957 39.5777 17.1795C38.291 17.1795 37.0044 17.413 35.6592 17.7631C37.1798 18.23 38.5834 19.1637 38.8758 20.4476L36.2441 19.9224L37.8816 23.1321C37.0044 21.7899 36.1271 20.4476 35.8932 19.689C36.595 19.7473 37.5892 19.9224 38.7004 20.2142C37.8231 19.047 36.478 18.23 34.9574 17.7631C36.0686 17.2963 37.5892 16.9461 39.1098 16.8878C39.1098 16.9461 38.1156 15.0203 36.0101 15.0786C33.9047 15.137 31.6823 14.6118 31.3314 13.3279C31.5068 11.4021 35.1329 10.9352 36.2441 11.1686C32.0332 8.83429 27.8223 8.83429 23.4945 12.6276L22.7342 13.3862C23.3775 10.6434 24.7226 8.60086 26.7111 7.25862C24.1378 6.55832 20.6872 8.83429 17.4121 13.2112Z" fill="white"/>
<path d="M16.8549 22.1328C16.4438 20.2528 16.5025 14.5541 17.0897 13.2029C17.0897 13.7317 17.0897 17.3741 17.442 17.6091C17.9118 16.5516 18.3815 14.3191 19.1448 13.7904C19.0274 14.2016 19.6146 15.2004 19.732 15.4941C20.4953 14.6129 21.4348 14.1429 22.6092 13.5554C22.3743 13.8492 21.4348 15.2004 21.5523 15.4354C22.844 14.6129 27.0717 13.0854 29.8314 12.7329C29.0094 13.4967 28.3635 14.8479 27.5414 15.2591C28.6571 14.7304 29.8314 15.0829 31.3581 15.0829C30.8883 15.2591 31.1819 15.7879 31.4168 16.2579C33.0022 16.7866 34.4114 16.6104 36.2904 16.6691C35.7619 16.9629 33.8829 17.5504 33.237 18.0791C34.0004 18.3141 36.1142 20.6053 36.6427 21.3691C37.2298 22.1328 37.9345 23.1316 37.9345 23.1316C36.9363 22.1328 35.4683 20.7816 34.9986 20.3116C34.4701 19.9591 32.8847 18.8429 31.9453 18.1966L33.7068 17.1979C33.7068 17.1979 31.593 17.3154 28.8919 16.3754C27.1304 15.6116 24.723 16.4341 24.723 16.4341L27.3066 14.6129C23.4899 15.2004 21.1999 15.3766 19.4384 17.1391C18.1466 18.3729 17.5007 19.2541 17.0897 20.7228C16.9723 21.4866 16.9136 21.6041 16.8549 22.1328Z" fill="#AE1B1F"/>
<path d="M18.0147 21.3073C18.4228 19.1491 21.4542 16.816 23.4363 16.291C22.4453 17.1076 21.4542 17.9242 21.2793 18.5075C24.4273 17.4576 27.4587 17.2243 30.1403 17.9242L26.8175 18.7992C32.0058 18.9158 36.4946 21.249 37.6605 25.9153L32.4722 23.7571C35.7368 28.0734 38.535 28.3067 34.2794 34.0813L31.0148 27.1985C31.4811 29.9399 31.1314 32.6814 29.9072 35.5395L28.6829 32.6231C27.6336 36.2978 24.369 39.7975 19.9385 42.014C20.4632 40.5558 21.2793 38.6893 22.1538 36.7061C21.0461 37.6977 19.8219 38.5143 18.9475 38.9809L19.647 35.8895C17.9565 37.1727 15.6829 38.5726 14.4004 36.5894C15.9161 37.931 18.3645 36.3561 20.1717 35.1312L19.8802 37.581C20.4632 37.2894 21.5708 36.5894 22.8533 35.5978C22.9116 36.2978 22.5036 38.0476 21.804 39.7975C26.7592 36.3561 27.4004 35.2479 28.5663 31.1649L29.7906 33.3813C30.7233 32.0398 31.0731 30.0566 30.3152 25.5653C32.0641 27.9568 33.6964 30.5232 34.396 32.8564C36.6112 28.4234 34.804 27.6068 31.1897 22.7072L36.6695 24.982C34.4543 21.1906 31.4811 19.6158 26.3511 18.8575C26.7009 18.0409 28.1 17.9825 29.5574 17.9825C27.1672 17.4576 22.9116 18.6242 20.5215 19.0325C20.7547 18.0992 22.1538 16.9326 22.9116 16.5243C20.4049 17.8659 18.8309 19.6741 18.0147 21.3073Z" fill="#F9B03E"/>
<path d="M17.9468 21.2599C19.0514 19.9679 20.97 18.9695 23.8187 18.7346C26.7838 18.6172 29.3418 19.8504 29.4 23.9027C29.4 24.2551 29.4581 24.49 29.2837 25.136C28.7604 26.7216 26.4931 22.2583 26.4931 28.6597C26.5512 29.7168 26.0861 29.7755 25.5629 29.9517C24.9233 30.1866 22.249 29.7755 21.6095 30.539C20.6211 31.3612 22.3653 33.8278 22.0746 34.0039C21.7839 34.1801 21.5513 33.4167 20.4467 34.3563C16.7259 36.7642 16.4352 37.7038 14.4004 36.6467C16.0864 37.9387 18.0049 36.1182 20.4467 34.7087C20.6793 34.5912 21.842 34.2976 22.249 34.2976C22.8304 34.3563 20.97 31.5961 21.7839 30.6564C23.4118 29.3644 25.8535 31.0675 25.9698 30.539C26.2024 29.3057 26.9 32.5357 26.9 32.5357C26.9 32.5357 26.2605 25.0773 27.7721 25.3122C29.3418 26.3693 30.0395 26.4867 29.8069 25.2534C29.5744 24.0201 29.9813 23.7852 30.272 24.1963C30.272 24.1963 29.2837 21.8472 29.1093 21.4361C27.8884 18.6172 25.214 18.6172 25.9117 18.2061C22.8304 18.4997 20.7374 18.6759 18.2375 20.4377L17.9468 21.2599Z" fill="#912D14"/>
<path d="M18.4654 22.9774C19.4692 23.6791 22.6576 21.808 21.6538 20.9894C21.6538 20.9894 21.5948 20.9894 21.5948 20.9309C21.6538 20.0538 24.3108 19.2352 24.8422 19.9954C25.0194 20.2293 25.1965 18.2412 25.0194 18.0658C24.8422 17.8904 27.0859 17.598 27.263 16.8379C26.4955 17.4811 25.5508 17.7734 24.3699 17.8319C24.7241 17.9489 25.0784 19.3522 24.6651 19.3522C22.6576 19.1183 16.1036 22.6266 18.4654 22.9774Z" fill="#009FE3"/>
<path d="M24.7031 20.123C27.7614 20.065 28.8788 21.7474 28.5848 24.8221C27.7026 24.416 26.2911 24.0099 25.8206 25.5762C26.4675 28.941 25.9382 29.057 24.9384 29.231C23.5857 29.231 20.5863 28.8249 19.8805 31.3195C19.7041 32.1897 21.0568 32.9438 19.7041 33.756C18.2926 34.8002 14.2345 36.2506 14.4109 33.9301C14.2345 30.1012 16.2929 27.8387 18.9395 28.4188C16.9987 28.4188 14.1169 31.8996 15.1755 34.2781C16.5282 35.0903 19.6453 33.64 19.7041 32.9438C19.7629 32.2477 19.1159 30.6813 20.0569 29.7531C20.9979 28.8249 23.6445 28.8249 24.8796 28.7669C26.1146 28.7089 25.7618 26.4464 25.5853 25.6342C25.6441 24.706 26.1734 24.474 26.4675 24.358C27.1733 24.0679 28.3495 24.358 28.3495 24.416C28.1731 22.3275 27.5849 20.5291 24.7031 20.123Z" fill="#E94D3E"/>
<path d="M17.1367 25.2007C19.4553 23.5085 20.347 24.4421 20.7037 24.7922C21.7143 25.5508 23.914 22.9833 23.914 22.9833L22.1305 22.8666L23.6762 22.4581L22.9628 21.9913C23.9734 22.0497 24.6868 21.7579 24.6868 20.124C24.7463 20.0657 24.9841 21.0577 24.5085 21.7579C24.3896 21.933 23.8545 22.108 23.8545 22.108L24.7463 22.5748L23.6167 22.6916C23.6167 22.6916 24.5679 22.8083 24.5085 22.8666C22.6061 25.2007 20.8226 25.8426 20.1092 24.9089C19.4553 24.0337 17.1367 25.2007 17.1367 25.2007Z" fill="#AE1B1F"/>
<path d="M18.2314 23.7136C18.2314 23.5995 16.6876 23.2005 15.4407 22.8584C13.6594 23.3715 12.0563 23.9416 11.9375 24.8538C13.0063 24.3977 15.0251 25.1388 16.8658 25.5949C16.4501 25.2528 16.0345 24.9108 15.9751 24.7967C15.9157 24.6257 16.747 25.2528 17.2814 24.8538C17.4001 24.7967 17.8158 24.3407 17.9345 24.0556C17.9939 23.7706 18.2314 23.8276 18.2314 23.7136Z" fill="#F8AC43"/>
<path d="M16.6955 23.1318L14.4004 23.8402C15.0315 23.9491 15.4906 24.1671 15.7201 24.5485C16.3512 24.8754 16.8103 24.8209 17.1545 24.5485L17.9578 23.5677C17.7283 23.4043 17.2693 23.2953 16.6955 23.1318Z" fill="#DE5028"/>
<path d="M18.0854 27.7403C18.2591 27.6777 18.78 27.3018 18.78 27.1765C17.8538 27.615 16.233 27.2392 15.0753 26.3622C14.5543 25.8611 13.7438 25.7984 12.7598 25.9237C12.7598 25.9237 14.7858 26.1116 15.0174 26.738C15.3068 27.4897 17.6802 27.9282 18.0854 27.7403Z" fill="#DE5028"/>
<path d="M11.1172 26.1418C12.8667 26.937 14.2081 27.9593 15.0245 29.152C16.0159 28.8112 17.0657 28.2433 18.2321 27.5617C16.0159 28.0161 13.6249 27.3913 11.1172 26.1418Z" fill="#F8AC43"/>
<g filter="url(#filter0_f_64_7)">
<path d="M18.4654 22.9774C19.4692 23.6791 22.6576 21.808 21.6538 20.9894C21.6538 20.9894 21.5948 20.9894 21.5948 20.9309C21.6538 20.0538 24.3108 19.2352 24.8422 19.9954C25.0194 20.2293 25.1965 18.2412 25.0194 18.0658C24.8422 17.8904 27.0859 17.598 27.263 16.8379C26.4955 17.4811 25.5508 17.7734 24.3699 17.8319C24.7241 17.9489 25.0784 19.3522 24.6651 19.3522C22.6576 19.1183 16.1036 22.6266 18.4654 22.9774Z" fill="#D6F1FD"/>
</g>
<defs>
<filter id="filter0_f_64_7" x="13.418" y="12.297" width="18.3859" height="15.3758" filterUnits="userSpaceOnUse" color-interpolation-filters="sRGB">
<feFlood flood-opacity="0" result="BackgroundImageFix"/>
<feBlend mode="normal" in="SourceGraphic" in2="BackgroundImageFix" result="shape"/>
<feGaussianBlur stdDeviation="2.27047" result="effect1_foregroundBlur_64_7"/>
</filter>
</defs>
</svg>
