<svg width="24" height="24" viewBox="0 0 24 24" fill="none" xmlns="http://www.w3.org/2000/svg">
<path d="M12.5593 2.17334C17.9751 2.17334 22.3652 6.5636 22.3652 11.9795C22.3652 17.3954 17.9751 21.7857 12.5593 21.7857C7.14352 21.7857 2.75337 17.3954 2.75337 11.9795C2.75337 6.5636 7.14352 2.17334 12.5593 2.17334ZM12.5593 19.6065C16.7715 19.6065 20.1861 16.1918 20.1861 11.9795C20.1861 7.76722 16.7715 4.35249 12.5593 4.35249C8.34711 4.35249 4.93247 7.76722 4.93247 11.9795C4.93247 16.1918 8.34711 19.6065 12.5593 19.6065ZM12.5593 7.25802C13.1607 7.25802 13.6489 7.74543 13.6489 8.3476V12.0246C13.6489 12.626 13.1607 13.1141 12.5593 13.1141C11.9579 13.1141 11.4698 12.626 11.4698 12.0246V8.3476C11.4698 7.74543 11.9579 7.25802 12.5593 7.25802ZM12.5593 14.5219C13.1607 14.5219 13.6489 15.01 13.6489 15.6114C13.6489 16.2129 13.1607 16.701 12.5593 16.701C11.9579 16.701 11.4698 16.2129 11.4698 15.6114C11.4698 15.01 11.9579 14.5219 12.5593 14.5219Z" fill="#FF8A00"/>
</svg>
