<svg width="40" height="40" viewBox="0 0 40 40" fill="none" xmlns="http://www.w3.org/2000/svg">
<path d="M20.0002 3.33334C16.906 3.33334 13.9385 4.5625 11.7506 6.75042C9.56266 8.93835 8.3335 11.9058 8.3335 15C8.3335 23.8667 18.3335 35.5833 18.7335 36.0833C18.89 36.2663 19.0842 36.4132 19.3029 36.5139C19.5215 36.6146 19.7594 36.6668 20.0002 36.6668C20.2409 36.6668 20.4788 36.6146 20.6975 36.5139C20.9161 36.4132 21.1104 36.2663 21.2668 36.0833C21.6668 35.5833 31.6668 23.8667 31.6668 15C31.6668 11.9058 30.4377 8.93835 28.2497 6.75042C26.0618 4.5625 23.0944 3.33334 20.0002 3.33334Z" fill="white"/>
<path d="M20 20C22.7614 20 25 17.7614 25 15C25 12.2386 22.7614 10 20 10C17.2386 10 15 12.2386 15 15C15 17.7614 17.2386 20 20 20Z" fill="#0D0F19"/>
</svg>
