<svg width="10" height="16" viewBox="0 0 10 16" fill="none" xmlns="http://www.w3.org/2000/svg">
<path d="M5.76923 2.97674C6.61538 2.97674 7.30769 2.30698 7.30769 1.48837C7.30769 0.669767 6.61538 0 5.76923 0C4.92308 0 4.23077 0.669767 4.23077 1.48837C4.23077 2.30698 4.92308 2.97674 5.76923 2.97674ZM2.88462 5.50698L0.769231 16H2.38462L3.73077 10.0465L5.38462 11.5349V16H6.92308V10.3814L5.34615 8.85581L5.80769 6.62326C6.80769 7.81395 8.30769 8.55814 10 8.55814V7.06977C8.57692 7.06977 7.34615 6.32558 6.65385 5.24651L5.92308 4.05581C5.65385 3.6093 5.15385 3.34884 4.61538 3.34884C4.42308 3.34884 4.23077 3.38605 4.03846 3.46047L0 5.06047V8.55814H1.53846V6.06512L2.88462 5.50698Z" fill="#292933" fill-opacity="0.8"/>
</svg>
