<svg width="20" height="20" viewBox="0 0 20 20" fill="none" xmlns="http://www.w3.org/2000/svg">
<path d="M7 9.75C6.31 9.75 5.75 10.31 5.75 11C5.75 11.69 6.31 12.25 7 12.25C7.69 12.25 8.25 11.69 8.25 11C8.25 10.31 7.69 9.75 7 9.75ZM13 9.75C12.31 9.75 11.75 10.31 11.75 11C11.75 11.69 12.31 12.25 13 12.25C13.69 12.25 14.25 11.69 14.25 11C14.25 10.31 13.69 9.75 13 9.75ZM10 0C4.475 0 0 4.475 0 10C0 15.525 4.475 20 10 20C15.525 20 20 15.525 20 10C20 4.475 15.525 0 10 0ZM10 18C5.59 18 2 14.41 2 10C2 9.71 2.02 9.425 2.05 9.145C4.405 8.1 6.285 6.17 7.26 3.775C9.07 6.325 12.045 8 15.415 8C16.19 8 16.945 7.905 17.665 7.735C17.88 8.455 18 9.215 18 10C18 14.41 14.41 18 10 18Z" fill="#FF5B17"/>
</svg>
