<svg width="20" height="20" viewBox="0 0 20 20" fill="none" xmlns="http://www.w3.org/2000/svg">
<path d="M19.3506 11.4935C19.4156 10.974 19.4805 10.5195 19.4805 10C19.4805 4.80519 15.2597 0.519481 10 0.519481C9.48052 0.519481 9.02597 0.584416 8.50649 0.649351C7.66234 0.194805 6.75325 0 5.84416 0C2.5974 0 0 2.5974 0 5.84416C0 6.75325 0.194805 7.66234 0.649351 8.50649C0.584416 9.02597 0.519481 9.48052 0.519481 10C0.519481 15.1948 4.74026 19.4805 10 19.4805C10.5195 19.4805 10.974 19.4156 11.4935 19.3506C12.3377 19.7403 13.2468 20 14.1558 20C17.4026 20 20 17.4026 20 14.1558C20 13.2468 19.7403 12.3377 19.3506 11.4935ZM13.961 13.4416C13.7662 13.8312 13.5065 14.1558 13.1169 14.4156C12.7273 14.6753 12.3377 14.8701 11.8182 15C11.2987 15.1299 10.7143 15.1948 10.0649 15.1948C8.7013 15.1948 7.5974 14.8701 6.81818 14.2857C6.36364 13.8961 5.97403 13.4416 5.77922 12.8571C5.51948 12.3377 5.97403 11.6883 6.62338 11.6883H6.81818C7.20779 11.6883 7.5974 11.9481 7.72727 12.2727C7.85714 12.5974 8.05195 12.8571 8.31169 13.0519C8.7013 13.3766 9.28571 13.5065 10 13.5065C10.6494 13.5065 11.1688 13.3766 11.5584 13.1818C11.9481 12.987 12.1429 12.5974 12.1429 12.2078C12.1429 12.013 12.0779 11.8831 12.013 11.7532C11.9481 11.6234 11.7532 11.4935 11.6234 11.4286C11.4286 11.2987 11.2338 11.2338 10.9091 11.1688C10.6494 11.1039 10.3247 10.974 9.93507 10.9091L9.54545 10.7792C9.09091 10.6494 8.57143 10.5195 8.18182 10.3896C7.72727 10.2597 7.33766 10.0649 7.01299 9.87013C6.68831 9.67532 6.42857 9.41558 6.23377 9.02597C6.03896 8.7013 5.97403 8.24675 5.97403 7.72727C5.97403 7.20779 6.1039 6.75325 6.2987 6.36364C6.49351 5.97403 6.81818 5.64935 7.14286 5.45455C7.53247 5.1948 7.92208 5 8.44156 4.93506C8.8961 4.80519 9.41558 4.74026 10 4.74026C10.6494 4.74026 11.1688 4.80519 11.6883 4.93506C12.2078 5.06493 12.5974 5.25974 12.987 5.58442C13.3766 5.84416 13.6364 6.16883 13.8312 6.62338C14.1558 7.20779 13.7013 7.98701 12.987 7.98701H12.7922C12.4026 7.98701 12.0779 7.79221 11.8831 7.46753C11.7532 7.27273 11.6234 7.07792 11.4286 6.88312C11.1039 6.62338 10.5844 6.49351 10 6.49351C9.41558 6.49351 8.96104 6.62338 8.63636 6.81818C8.31169 7.01299 8.18182 7.33766 8.18182 7.66234C8.18182 7.85714 8.24675 7.98701 8.31169 8.11688C8.37662 8.24675 8.50649 8.37662 8.7013 8.44156C8.8961 8.50649 9.09091 8.63636 9.35065 8.7013C9.61039 8.76623 9.93506 8.83117 10.3247 8.96104C10.7143 9.02597 11.039 9.15584 11.4286 9.22078C11.7532 9.28571 12.0779 9.41558 12.4026 9.48052C12.7273 9.61039 12.987 9.74026 13.2468 9.87013C13.5065 10 13.7013 10.1948 13.8961 10.3896C14.0909 10.5844 14.2208 10.8442 14.2857 11.1039C14.4156 11.3636 14.4156 11.7532 14.4156 12.1429C14.2857 12.5974 14.1558 13.0519 13.961 13.4416Z" fill="#FF5B17"/>
</svg>
