<svg width="19" height="18" viewBox="0 0 19 18" fill="none" xmlns="http://www.w3.org/2000/svg">
<path d="M4.13818 7.795C5.57818 10.625 7.89318 12.94 10.7282 14.38L12.9282 12.175C13.2032 11.9 13.5982 11.82 13.9432 11.93C15.0632 12.3 16.2682 12.5 17.5132 12.5C18.0682 12.5 18.5132 12.945 18.5132 13.5V17C18.5132 17.555 18.0682 18 17.5132 18C8.12318 18 0.513184 10.39 0.513184 1C0.513184 0.445 0.963184 0 1.51318 0H5.01318C5.56818 0 6.01318 0.445 6.01318 1C6.01318 2.245 6.21318 3.45 6.58318 4.57C6.69318 4.915 6.61318 5.31 6.33818 5.585L4.13818 7.795Z" fill="#FF7A17"/>
</svg>
