<svg width="24" height="20" viewBox="0 0 24 20" fill="none" xmlns="http://www.w3.org/2000/svg">
<path d="M0.915219 9.59984L6.18637 11.5653L8.2412 18.1766C8.33054 18.6233 8.8666 18.7126 9.22396 18.4446L12.1722 16.0324C12.4402 15.7644 12.8869 15.7644 13.2443 16.0324L18.5154 19.8741C18.8728 20.1421 19.4088 19.9634 19.4982 19.5167L23.4292 0.755067C23.5185 0.308361 23.0718 -0.138341 22.6251 0.0403416L0.915219 8.43841C0.379172 8.61709 0.379172 9.42116 0.915219 9.59984ZM7.97319 10.5826L18.3367 4.23937C18.5154 4.15003 18.6941 4.41806 18.5154 4.5074L10.028 12.4588C9.76 12.7268 9.49197 13.0841 9.49197 13.5309L9.22396 15.675C9.22396 15.9431 8.77725 16.0324 8.68791 15.675L7.6158 11.744C7.34778 11.2973 7.52648 10.7613 7.97319 10.5826Z" fill="#FF6C17"/>
</svg>
