<svg width="34" height="30" viewBox="0 0 34 30" fill="none" xmlns="http://www.w3.org/2000/svg">
<path d="M0.596192 14.3998L8.41296 17.348L11.4601 27.2649C11.5926 27.9349 12.3876 28.069 12.9175 27.6669L17.2896 24.0486C17.687 23.6466 18.3495 23.6466 18.8794 24.0486L26.6962 29.8111C27.2261 30.2131 28.021 29.9451 28.1535 29.2751L33.9829 1.1326C34.1154 0.462541 33.453 -0.207511 32.7906 0.0605124L0.596192 12.6576C-0.198731 12.9256 -0.198731 14.1317 0.596192 14.3998ZM11.0627 15.8739L26.4312 6.35906C26.6961 6.22505 26.9611 6.62709 26.6962 6.7611L14.1099 18.6881C13.7124 19.0902 13.315 19.6262 13.315 20.2963L12.9175 23.5126C12.9175 23.9146 12.2551 24.0486 12.1226 23.5126L10.5327 17.616C10.1353 16.946 10.4003 16.1419 11.0627 15.8739Z" fill="#2F89CE"/>
</svg>
