<svg width="21" height="20" viewBox="0 0 21 20" fill="none" xmlns="http://www.w3.org/2000/svg">
<path d="M17.5864 2.91667C15.7048 1.04167 13.1961 0 10.548 0C5.0428 0 0.582869 4.44444 0.582869 9.93056C0.582869 11.6667 1.07067 13.4028 1.90691 14.8611L0.513184 20L5.80935 18.6111C7.27277 19.375 8.87555 19.7917 10.548 19.7917C16.0533 19.7917 20.5132 15.3472 20.5132 9.86111C20.4435 7.29167 19.4679 4.79167 17.5864 2.91667ZM15.3564 13.4722C15.1473 14.0278 14.1717 14.5833 13.6839 14.6528C13.2658 14.7222 12.7083 14.7222 12.1508 14.5833C11.8024 14.4444 11.3146 14.3056 10.7571 14.0278C8.24838 12.9861 6.64559 10.4861 6.50622 10.2778C6.36684 10.1389 5.46092 8.95833 5.46092 7.70833C5.46092 6.45833 6.0881 5.90278 6.29715 5.625C6.50621 5.34722 6.78496 5.34722 6.99402 5.34722C7.13339 5.34722 7.34245 5.34722 7.48182 5.34722C7.62119 5.34722 7.83026 5.27778 8.03932 5.76389C8.24837 6.25 8.73618 7.5 8.80586 7.56944C8.87555 7.70833 8.87555 7.84722 8.80586 7.98611C8.73618 8.125 8.66649 8.26389 8.52712 8.40278C8.38774 8.54167 8.24837 8.75 8.17869 8.81944C8.03931 8.95833 7.89994 9.09722 8.03932 9.30555C8.17869 9.58333 8.66649 10.3472 9.43304 11.0417C10.4087 11.875 11.1752 12.1528 11.4539 12.2917C11.7327 12.4306 11.8721 12.3611 12.0114 12.2222C12.1508 12.0833 12.6386 11.5278 12.778 11.25C12.9174 10.9722 13.1264 11.0417 13.3355 11.1111C13.5445 11.1806 14.7989 11.8056 15.008 11.9444C15.2867 12.0833 15.4261 12.1528 15.4958 12.2222C15.5654 12.4306 15.5654 12.9167 15.3564 13.4722Z" fill="#FF6C17"/>
</svg>
