<svg width="30" height="30" viewBox="0 0 30 30" fill="none" xmlns="http://www.w3.org/2000/svg">
<path d="M25.6098 4.375C22.7875 1.5625 19.0244 0 15.0523 0C6.79442 0 0.104528 6.66667 0.104528 14.8958C0.104528 17.5 0.836237 20.1042 2.09059 22.2917L0 30L7.94425 27.9167C10.1394 29.0625 12.5436 29.6875 15.0523 29.6875C23.3101 29.6875 30 23.0208 30 14.7917C29.8955 10.9375 28.4321 7.1875 25.6098 4.375ZM22.2648 20.2083C21.9512 21.0417 20.4878 21.875 19.7561 21.9792C19.1289 22.0833 18.2927 22.0833 17.4564 21.875C16.9338 21.6667 16.2021 21.4583 15.3659 21.0417C11.6028 19.4792 9.19861 15.7292 8.98955 15.4167C8.78049 15.2083 7.42161 13.4375 7.42161 11.5625C7.42161 9.6875 8.36237 8.85417 8.67596 8.4375C8.98955 8.02083 9.40766 8.02083 9.72125 8.02083C9.93031 8.02083 10.2439 8.02083 10.453 8.02083C10.662 8.02083 10.9756 7.91667 11.2892 8.64583C11.6028 9.375 12.3345 11.25 12.439 11.3542C12.5436 11.5625 12.5436 11.7708 12.439 11.9792C12.3345 12.1875 12.23 12.3958 12.0209 12.6042C11.8118 12.8125 11.6028 13.125 11.4983 13.2292C11.2892 13.4375 11.0801 13.6458 11.2892 13.9583C11.4983 14.375 12.23 15.5208 13.3798 16.5625C14.8432 17.8125 15.993 18.2292 16.4112 18.4375C16.8293 18.6458 17.0383 18.5417 17.2474 18.3333C17.4564 18.125 18.1882 17.2917 18.3972 16.875C18.6063 16.4583 18.9199 16.5625 19.2334 16.6667C19.547 16.7708 21.4286 17.7083 21.7422 17.9167C22.1603 18.125 22.3693 18.2292 22.4739 18.3333C22.5784 18.6458 22.5784 19.375 22.2648 20.2083Z" fill="#48C95F"/>
</svg>
