<svg width="30" height="30" viewBox="0 0 30 30" fill="none" xmlns="http://www.w3.org/2000/svg">
<path d="M0 15C0 6.71573 6.71573 0 15 0C23.2843 0 30 6.71573 30 15C30 23.2843 23.2843 30 15 30C6.71573 30 0 23.2843 0 15Z" fill="#ED1E24"/>
<path d="M16.5904 17.1927V24.375H18.6093V5.625H15.5974C12.6269 5.625 10.1363 7.59433 10.1363 11.5247C10.1363 14.3298 11.2368 15.8523 12.8917 16.6963L9.375 24.375H11.7167L14.9106 17.1927H16.5904ZM16.5904 15.513H15.5147C13.7605 15.513 12.3124 14.5449 12.3124 11.5247C12.3124 8.40523 13.8929 7.32955 15.5147 7.32955H16.5904V15.513Z" fill="#F8F8F8"/>
</svg>
