<svg width="21" height="20" viewBox="0 0 21 20" fill="none" xmlns="http://www.w3.org/2000/svg">
<path d="M0.440918 10C0.440918 4.47715 4.91807 0 10.4409 0C15.9638 0 20.4409 4.47715 20.4409 10C20.4409 15.5228 15.9638 20 10.4409 20C4.91807 20 0.440918 15.5228 0.440918 10Z" fill="#FF6C17"/>
<path d="M11.5012 11.4618V16.25H12.8471V3.75H10.8392C8.85883 3.75 7.19842 5.06289 7.19842 7.68314C7.19842 9.55318 7.93209 10.5682 9.03536 11.1308L6.69092 16.25H8.25204L10.3813 11.4618H11.5012ZM11.5012 10.342H10.784C9.61457 10.342 8.64921 9.6966 8.64921 7.68314C8.64921 5.60349 9.70283 4.88636 10.784 4.88636H11.5012V10.342Z" fill="#292933"/>
</svg>
