<svg width="22" height="22" viewBox="0 0 22 22" fill="none" xmlns="http://www.w3.org/2000/svg">
<path d="M11 20.1667C12.813 20.1667 14.5853 19.6291 16.0927 18.6218C17.6002 17.6146 18.7751 16.1829 19.4689 14.5079C20.1627 12.833 20.3442 10.9898 19.9905 9.21169C19.6368 7.43353 18.7638 5.80018 17.4818 4.5182C16.1998 3.23622 14.5665 2.36318 12.7883 2.00948C11.0101 1.65578 9.16704 1.83732 7.49205 2.53112C5.81706 3.22492 4.38542 4.39984 3.37817 5.90729C2.37093 7.41474 1.83331 9.18702 1.83331 11C1.83331 13.4312 2.79908 15.7627 4.51817 17.4818C5.36937 18.333 6.3799 19.0082 7.49205 19.4689C8.6042 19.9296 9.79619 20.1667 11 20.1667ZM11 18.3333C10.728 18.3333 10.4622 18.2527 10.2361 18.1016C10.01 17.9505 9.83371 17.7358 9.72964 17.4845C9.62557 17.2333 9.59834 16.9568 9.6514 16.6901C9.70445 16.4234 9.83541 16.1784 10.0277 15.9861C10.22 15.7938 10.465 15.6628 10.7317 15.6098C10.9985 15.5567 11.2749 15.5839 11.5262 15.688C11.7774 15.7921 11.9922 15.9683 12.1432 16.1944C12.2943 16.4206 12.375 16.6864 12.375 16.9583C12.375 17.323 12.2301 17.6728 11.9722 17.9306C11.7144 18.1885 11.3647 18.3333 11 18.3333ZM7.33331 8.24451C7.3198 7.54026 7.51426 6.84765 7.89236 6.25335C8.27047 5.65904 8.81543 5.18943 9.45906 4.90326C10.0298 4.64836 10.6556 4.54128 11.2786 4.59191C11.9016 4.64253 12.5019 4.84923 13.024 5.19293C13.5054 5.51168 13.9048 5.93962 14.1895 6.44191C14.4743 6.9442 14.6364 7.50664 14.6627 8.08344C14.6889 8.66024 14.5786 9.23509 14.3407 9.76118C14.1028 10.2873 13.744 10.7497 13.2935 11.1109C12.6617 11.5978 12.2073 12.2786 12.0001 13.0488C11.9429 13.2851 11.7943 13.489 11.5868 13.6157C11.3793 13.7424 11.13 13.7815 10.8936 13.7243C10.6573 13.6672 10.4534 13.5185 10.3267 13.3111C10.2 13.1036 10.1609 12.8542 10.2181 12.6179C10.5164 11.4536 11.1937 10.4217 12.1431 9.6846C12.3687 9.50411 12.5485 9.27283 12.6678 9.00964C12.787 8.74645 12.8424 8.45879 12.8294 8.17013C12.8163 7.88147 12.7352 7.59999 12.5927 7.34863C12.4502 7.09727 12.2502 6.88316 12.0092 6.72376C11.7392 6.54704 11.4284 6.44245 11.1065 6.41998C10.7846 6.39752 10.4623 6.45792 10.1704 6.59543C9.86084 6.7436 9.60086 6.97829 9.42191 7.27113C9.24296 7.56396 9.1527 7.90237 9.16206 8.24543C9.14626 8.4768 9.04336 8.69358 8.87408 8.8521C8.7048 9.01061 8.48173 9.09907 8.24982 9.09965C8.01791 9.10023 7.79441 9.01289 7.62433 8.85523C7.45426 8.69757 7.35027 8.4813 7.33331 8.25001V8.24451Z" fill="#EFEFEF"/>
</svg>
