<svg width="20" height="20" viewBox="0 0 20 20" fill="none" xmlns="http://www.w3.org/2000/svg">
<g clip-path="url(#clip0_9_860)">
<path fill-rule="evenodd" clip-rule="evenodd" d="M10.654 0.375C11.5199 0.375 12.2639 0.971232 12.4268 1.79581L12.4993 2.16247C12.784 3.6037 14.3216 4.46436 15.7513 3.98285L16.1153 3.86029C16.9333 3.58481 17.8378 3.91133 18.2708 4.63839L18.9248 5.73656C19.3578 6.46365 19.1971 7.3864 18.542 7.93546L18.2507 8.17964C17.1056 9.13935 17.1056 10.8607 18.2507 11.8203L18.542 12.0645C19.1971 12.6136 19.3578 13.5363 18.9248 14.2634L18.2708 15.3616C17.8378 16.0887 16.9333 16.4152 16.1152 16.1397L15.7514 16.0171C14.3216 15.5355 12.784 16.3962 12.4993 17.8375L12.4268 18.2042C12.2639 19.0288 11.5199 19.625 10.654 19.625H9.34601C8.48009 19.625 7.7361 19.0288 7.57318 18.2043L7.50069 17.8373C7.21592 16.3962 5.6783 15.5355 4.24853 16.0171L3.88484 16.1396C3.06681 16.4152 2.16222 16.0886 1.72922 15.3615L1.07526 14.2634C0.642276 13.5363 0.802882 12.6136 1.45798 12.0645L1.74936 11.8203C2.89438 10.8606 2.89438 9.13935 1.74936 8.17968L1.45798 7.93546C0.802882 7.3864 0.642277 6.46366 1.07526 5.7366L1.72924 4.63841C2.16223 3.91134 3.06679 3.58481 3.88481 3.86031L4.2486 3.98284C5.67835 4.46436 7.21592 3.60376 7.50069 2.16256L7.57318 1.79574C7.7361 0.971198 8.48001 0.375 9.34601 0.375H10.654ZM10 12.75C11.5188 12.75 12.75 11.5188 12.75 10C12.75 8.48118 11.5188 7.25 10 7.25C8.48118 7.25 7.24999 8.48118 7.24999 10C7.24999 11.5188 8.48118 12.75 10 12.75Z" fill="#EFEFEF"/>
</g>
<defs>
<clipPath id="clip0_9_860">
<rect width="20" height="20" fill="white"/>
</clipPath>
</defs>
</svg>
