<svg width="21" height="17" fill="none" xmlns="http://www.w3.org/2000/svg"><path d="M19.875 7.458h-4.104a.812.812 0 00-.219 0h-.177a1.365 1.365 0 00-.156.105c-.058.038-.114.08-.167.125a1.046 1.046 0 00-.094.135c-.047.066-.09.135-.125.208l-1.666 4.594L8.823.855a1.042 1.042 0 00-1.958 0L4.458 7.457H1.125a1.042 1.042 0 000 2.084h4.479a.896.896 0 00.167-.104c.058-.039.113-.08.166-.125l.094-.136a.999.999 0 00.125-.208L7.844 4.25l4.333 11.896a1.042 1.042 0 001.958 0l2.396-6.604h3.344a1.042 1.042 0 000-2.084z" fill="#31E26A"/></svg>