<svg width="48" height="49" fill="none" xmlns="http://www.w3.org/2000/svg"><path d="M18.489 35.782l-2.28.422v.001l2.28-.423zm0 0c.453-.084.794-.46.836-.918l-.836.918zM20.78 23.72l.248-.273-.187-.318c-2.448-4.154-2.031-9.581 1.387-13.33 4.2-4.605 11.336-4.934 15.941-.735 4.606 4.199 4.935 11.335.736 15.94a11.284 11.284 0 01-11.548 3.219l-.3-.09-.212.232-2.49 2.73a.523.523 0 01-.298.164h0l-3.834.669h0a1.53 1.53 0 00-1.258 1.366h0l-.139 1.524h0a.527.527 0 01-.429.47h0l-2.28.423-.164.03-.114.125-.001.001-.113.124-.016.168-.21 2.31a.527.527 0 01-.429.47h0l-5.88 1.095a.528.528 0 01-.614-.41h0l-.373-1.785h0a.527.527 0 01.126-.464l12.45-13.655zm-9.483 14.816l.369.337.337-.37 10.993-12.056.337-.37-.37-.337a11.44 11.44 0 01-.835-.845l-.369-.415-.373.41L10.35 36.996l-.337.37.37.337.915.834zm21.131-27.462a2.965 2.965 0 104.382 3.994 2.965 2.965 0 00-4.382-3.994z" fill="#2B59FF" stroke="#000"/></svg>