<svg width="36" height="36" fill="none" xmlns="http://www.w3.org/2000/svg"><g clip-path="url(#clip0_4044_897)" fill="#2B56E8"><path d="M23.625 27h-11.25a2.25 2.25 0 00-2.25 2.25v2.25a2.25 2.25 0 002.25 2.25h11.25a2.25 2.25 0 002.25-2.25v-2.25a2.25 2.25 0 00-2.25-2.25zm0 4.5h-11.25v-2.25h11.25v2.25zm8.67-15.42l-13.5-13.5a1.124 1.124 0 00-1.59 0l-13.5 13.5A1.125 1.125 0 004.5 18h5.625v4.5a2.253 2.253 0 002.25 2.25h11.25a2.253 2.253 0 002.25-2.25V18H31.5a1.125 1.125 0 00.795-1.92zm-8.67-.33v6.75h-11.25v-6.75h-5.16L18 4.966 28.784 15.75h-5.159z"/></g><defs><clipPath id="clip0_4044_897"><path fill="#fff" d="M0 0h36v36H0z"/></clipPath></defs></svg>