<svg width="20" height="20" fill="none" xmlns="http://www.w3.org/2000/svg"><g clip-path="url(#clip0_4044_903)" fill="#fff"><path fill-rule="evenodd" clip-rule="evenodd" d="M4.167 7.917a3.75 3.75 0 117.5 0 3.75 3.75 0 01-7.5 0z"/><path d="M11.973 10.053a.164.164 0 00.043.21 2.917 2.917 0 100-4.691.164.164 0 00-.043.209c.336.637.527 1.364.527 2.136a4.56 4.56 0 01-.527 2.136z"/><path fill-rule="evenodd" clip-rule="evenodd" d="M3.868 13.083c1.027-.446 2.374-.583 4.049-.583 1.676 0 3.024.137 4.051.584 1.12.487 1.8 1.315 2.156 2.486a.85.85 0 01-.813 1.097H2.524a.85.85 0 01-.813-1.1c.357-1.17 1.038-1.998 2.158-2.484z"/><path d="M12.349 11.697c-.345.021-.366.485-.049.623.87.377 1.523.934 1.992 1.643.385.583.983 1.037 1.681 1.037h1.484c.59 0 1.02-.586.812-1.158a2.844 2.844 0 00-1.536-1.687c-.68-.317-1.53-.448-2.534-.488h-.033c-.59 0-1.207-.008-1.817.03z"/></g><defs><clipPath id="clip0_4044_903"><path fill="#fff" d="M0 0h20v20H0z"/></clipPath></defs></svg>