<svg width="36" height="27" fill="none" xmlns="http://www.w3.org/2000/svg"><path d="M5.864 8.063a7.563 7.563 0 1115.125 0 7.563 7.563 0 01-15.125 0zm20.104 5.77a5.743 5.743 0 01-3.323-1.052 10.313 10.313 0 001.135-4.719c0-1.698-.41-3.303-1.135-4.718a5.77 5.77 0 113.323 10.49zm-4.03 5.797h0c2.258.983 3.628 2.641 4.356 5.032a1.326 1.326 0 01-1.269 1.713H1.83a1.329 1.329 0 01-1.27-1.717l-.478-.145.477.145c.73-2.39 2.1-4.049 4.36-5.03 2.109-.915 4.918-1.212 8.507-1.212 3.593 0 6.403.298 8.512 1.215zm1.048-2.94h0c1.108-.07 2.226-.068 3.33-.066h.571l.026.002h0c2.134.084 3.885.362 5.256 1.003 1.44.672 2.402 1.715 2.969 3.147.026.065.05.131.074.197h0a1.357 1.357 0 01-1.275 1.819h-3.19c-1.274 0-2.423-.834-3.197-2.005h0c-1.064-1.61-2.547-2.867-4.5-3.716h0a.284.284 0 01-.182-.274.128.128 0 01.026-.079h0c.005-.004.024-.025.091-.029z" fill="#002AC0" stroke="#000"/></svg>