<svg width="15" height="9" viewBox="0 0 15 9" fill="none" xmlns="http://www.w3.org/2000/svg">
<path d="M9.1272 4.36735C8.86157 4.26748 8.86157 3.88604 8.84511 3.62041C8.7787 2.67426 9.11073 1.22979 8.71229 0.615664C8.4302 0.250164 7.06861 0.283632 6.23879 0.33357C6.00611 0.367039 5.72401 0.416445 5.52479 0.51632C5.32557 0.616195 5.12635 0.781945 5.12635 0.931226C5.12635 1.14691 5.62467 1.11398 5.80689 1.39607C6.0061 1.69516 6.0061 2.34223 6.0061 2.87348C6.0061 3.4876 5.90623 4.30148 5.65761 4.33441C5.27564 4.35088 5.05995 3.96891 4.86073 3.68682C4.46229 3.1391 4.06385 2.45804 3.76476 1.79398C3.61548 1.44548 3.53207 1.06351 3.31639 0.914226C2.98435 0.681539 2.3867 0.66507 1.80551 0.681539C1.27426 0.698008 0.510323 0.631602 0.361042 0.947164C0.244698 1.29566 0.493855 1.6277 0.626667 1.91032C1.3072 3.38773 2.03767 4.68291 2.93442 5.91116C3.76476 7.05654 4.54464 7.96976 6.07198 8.45107C6.50389 8.58388 8.3962 8.96585 8.77817 8.45107C8.91098 8.25185 8.87804 7.80348 8.94445 7.47145C9.01086 7.13941 9.09373 6.80738 9.40929 6.79091C9.67492 6.77445 9.8242 7.0066 9.99048 7.17288C10.1732 7.35563 10.3225 7.50491 10.4553 7.6712C10.7709 7.98676 11.1029 8.41813 11.5014 8.58441C12.0491 8.8171 12.8959 8.7507 13.6928 8.71723C14.3404 8.70076 14.8052 8.56794 14.8551 8.18598C14.8886 7.88688 14.556 7.45551 14.3568 7.20635C13.8585 6.59223 13.6264 6.40948 13.0616 5.84476C12.8125 5.5956 12.4969 5.32998 12.4969 5.03141C12.4804 4.84866 12.6297 4.68291 12.7625 4.50016C13.3437 3.63688 13.9249 3.02276 14.4562 2.12601C14.6054 1.86038 14.9545 1.24626 14.8217 0.947164C14.6724 0.615133 13.842 0.714476 13.3273 0.714476C12.6632 0.714476 11.7999 0.664539 11.6336 0.797351C11.3181 1.01304 11.1853 1.36207 11.036 1.6941C10.7039 2.45804 10.2556 3.23791 9.79073 3.8191C9.62445 4.01832 9.30942 4.43323 9.12667 4.36682L9.1272 4.36735Z" fill="white" fill-opacity="0.4"/>
</svg>
