<svg width="45" height="48" viewBox="0 0 45 48" fill="none" xmlns="http://www.w3.org/2000/svg">
<g id="Group 41">
<g id="Group 40">
<rect id="Rectangle 25" x="19.8" width="4.8" height="10.2" rx="2.4" fill="url(#paint0_linear_1_6)"/>
<rect id="Rectangle 26" x="29.4" y="9" width="5.4" height="10.2" rx="2.7" fill="url(#paint1_linear_1_6)"/>
<rect id="Rectangle 27" x="39" y="18.6001" width="5.4" height="10.2" rx="2.7" fill="#04D6BD"/>
<rect id="Rectangle 28" x="19.2" y="37.8" width="5.4" height="10.2" rx="2.7" fill="#04D6BD"/>
<rect id="Rectangle 29" y="18.6001" width="5.4" height="10.2" rx="2.7" fill="#04D6BD"/>
<rect id="Rectangle 30" x="9.59998" y="28.8" width="5.4" height="10.2" rx="2.7" fill="url(#paint2_linear_1_6)"/>
<rect id="Rectangle 31" x="9.59998" y="9" width="5.4" height="16.8" rx="2.7" fill="url(#paint3_linear_1_6)"/>
<rect id="Rectangle 32" x="19.2" y="13.2" width="5.4" height="21.6" rx="2.7" fill="#04D6BD"/>
<rect id="Rectangle 33" x="29.4" y="22.2" width="5.4" height="16.8" rx="2.7" fill="url(#paint4_linear_1_6)"/>
</g>
</g>
<defs>
<linearGradient id="paint0_linear_1_6" x1="22.2" y1="0" x2="22.2" y2="10.2" gradientUnits="userSpaceOnUse">
<stop stop-color="#8A01D7"/>
<stop offset="1" stop-color="#0381A6"/>
</linearGradient>
<linearGradient id="paint1_linear_1_6" x1="32.1" y1="9" x2="32.1" y2="19.2" gradientUnits="userSpaceOnUse">
<stop stop-color="#8A01D7"/>
<stop offset="1" stop-color="#0381A6"/>
</linearGradient>
<linearGradient id="paint2_linear_1_6" x1="12.3" y1="28.8" x2="12.3" y2="39" gradientUnits="userSpaceOnUse">
<stop stop-color="#8A01D7"/>
<stop offset="1" stop-color="#0381A6"/>
</linearGradient>
<linearGradient id="paint3_linear_1_6" x1="12.3" y1="9" x2="12.3" y2="25.8" gradientUnits="userSpaceOnUse">
<stop stop-color="#8A01D7"/>
<stop offset="1" stop-color="#0381A6"/>
</linearGradient>
<linearGradient id="paint4_linear_1_6" x1="32.1" y1="22.2" x2="32.1" y2="39" gradientUnits="userSpaceOnUse">
<stop stop-color="#8A01D7"/>
<stop offset="1" stop-color="#0381A6"/>
</linearGradient>
</defs>
</svg>
