<svg width="29" height="29" fill="none" xmlns="http://www.w3.org/2000/svg"><path d="M23.563 27.187H5.438s-1.813-.06-1.813-4.833h21.75c0 4.773-1.813 4.833-1.813 4.833z" fill="#2B59FF"/><path d="M4.833 1.813h19.334v20.541H4.833V1.813z" fill="#002AC0"/><path d="M10.875 9.063h9.667v1.208h-9.667V9.062zm0 2.416h9.667v1.209h-9.667v-1.209zm0 2.417h9.667v1.208h-9.667v-1.208zm0 2.416h9.667v1.209h-9.667v-1.209zm0 2.417h9.667v1.209h-9.667v-1.209zM8.458 9.063h1.209v1.208H8.458V9.062zm0 2.416h1.209v1.209H8.458v-1.209zm0 2.417h1.209v1.208H8.458v-1.208zm0 2.416h1.209v1.209H8.458v-1.209zm0 2.417h1.209v1.209H8.458v-1.209z" fill="#111730"/></svg>