<svg width="15" height="9" fill="none" xmlns="http://www.w3.org/2000/svg"><path d="M9.127 4.367c-.265-.1-.265-.481-.282-.747-.066-.946.266-2.39-.133-3.004C8.43.25 7.07.284 6.24.334c-.233.033-.515.082-.714.182-.2.1-.399.266-.399.415 0 .216.499.183.68.465.2.3.2.946.2 1.477 0 .615-.1 1.428-.348 1.461-.382.017-.598-.365-.797-.647a11.077 11.077 0 01-1.096-1.893c-.15-.349-.233-.73-.449-.88-.332-.232-.93-.249-1.51-.232C1.274.698.51.632.36.947c-.116.349.133.68.266.963.68 1.478 1.41 2.773 2.307 4.001.83 1.146 1.61 2.059 3.138 2.54.432.133 2.324.515 2.706 0 .133-.2.1-.648.166-.98.067-.332.15-.664.465-.68.266-.017.415.216.581.382.183.183.332.332.465.498.316.316.648.747 1.046.913.548.233 1.395.167 2.192.133.647-.016 1.112-.15 1.162-.531.034-.3-.299-.73-.498-.98-.498-.614-.73-.797-1.295-1.361-.25-.25-.565-.515-.565-.814-.017-.182.133-.348.265-.53.582-.864 1.163-1.478 1.694-2.375.15-.266.498-.88.366-1.179-.15-.332-.98-.233-1.495-.233-.664 0-1.527-.05-1.693.083-.316.216-.449.565-.598.897-.332.764-.78 1.544-1.245 2.125-.167.2-.482.614-.664.548z" fill="#fff" fill-opacity=".4"/></svg>