<svg width="23" height="22" viewBox="0 0 23 22" fill="none" xmlns="http://www.w3.org/2000/svg">
<g clip-path="url(#clip0_33_178)">
<path d="M0.925537 10.868C0.954254 10.9255 0.99015 11.0044 1.03323 11.1049C1.0763 11.2054 1.18399 11.4136 1.35629 11.7295C1.52859 12.0454 1.71525 12.3469 1.91627 12.6341C2.11729 12.9213 2.39728 13.2659 2.75624 13.6679C3.1152 14.07 3.48852 14.4505 3.8762 14.8094C4.26388 15.1684 4.74489 15.5202 5.31923 15.8648C5.89357 16.2094 6.48227 16.5109 7.08532 16.7694C7.68838 17.0278 8.39194 17.2288 9.19602 17.3724C10.0001 17.516 10.8329 17.595 11.6944 17.6093C12.5559 17.6237 13.3887 17.5447 14.1928 17.3724C14.9968 17.2001 15.7076 16.9919 16.325 16.7478C16.9424 16.5037 17.5239 16.2094 18.0696 15.8648C18.6152 15.5202 19.0962 15.1612 19.5126 14.7879C19.929 14.4146 20.3023 14.0484 20.6325 13.6895C20.9628 13.3305 21.2428 12.9715 21.4725 12.6126C21.7022 12.2536 21.8889 11.9593 22.0325 11.7295C22.1761 11.4998 22.2838 11.2916 22.3556 11.1049L22.4632 10.868C22.4489 10.8106 22.413 10.7316 22.3556 10.6311C22.2981 10.5306 22.1904 10.3296 22.0325 10.028C21.8746 9.72652 21.6879 9.42499 21.4725 9.12347C21.2571 8.82194 20.9771 8.47016 20.6325 8.06812C20.2879 7.66608 19.9146 7.29276 19.5126 6.94816C19.1105 6.60355 18.6295 6.25177 18.0696 5.89281C17.5096 5.53385 16.9209 5.23232 16.3035 4.98823C15.686 4.74413 14.9825 4.54311 14.1928 4.38517C13.4031 4.22723 12.5703 4.14825 11.6944 4.14825C10.8185 4.14825 9.98573 4.22723 9.19602 4.38517C8.4063 4.54311 7.69556 4.74413 7.06379 4.98823C6.43201 5.23232 5.85049 5.53385 5.31923 5.89281C4.78797 6.25177 4.30696 6.60355 3.8762 6.94816C3.44545 7.29276 3.07213 7.66608 2.75624 8.06812C2.44036 8.47016 2.16037 8.82194 1.91627 9.12347C1.67218 9.42499 1.48552 9.72652 1.35629 10.028C1.22707 10.3296 1.11938 10.5378 1.03323 10.6526L0.925537 10.868ZM7.66684 10.868C7.66684 9.76242 8.05452 8.81476 8.82988 8.02504C9.60524 7.23533 10.5601 6.84047 11.6944 6.84047C12.8287 6.84047 13.7836 7.23533 14.5589 8.02504C15.3343 8.81476 15.7291 9.76242 15.7435 10.868C15.7578 11.9736 15.363 12.9285 14.5589 13.7325C13.7548 14.5366 12.8 14.9315 11.6944 14.9171C10.5888 14.9028 9.63395 14.5079 8.82988 13.7325C8.0258 12.9572 7.63812 12.0023 7.66684 10.868ZM9.00218 10.868C9.00218 11.6147 9.26781 12.2536 9.79907 12.7849C10.3303 13.3161 10.9621 13.5746 11.6944 13.5602C12.4267 13.5459 13.0584 13.2874 13.5897 12.7849C14.121 12.2823 14.3866 11.6434 14.3866 10.868C14.3866 10.0927 14.121 9.46089 13.5897 8.9727C13.0584 8.48451 12.4267 8.21888 11.6944 8.17581C10.9621 8.13273 10.3303 8.39836 9.79907 8.9727L11.6944 10.868H9.00218Z" fill="#282828"/>
</g>
<defs>
<clipPath id="clip0_33_178">
<rect width="21.5377" height="21.5377" fill="white" transform="translate(0.925537 0.0991821)"/>
</clipPath>
</defs>
</svg>
