<svg width="23" height="23" viewBox="0 0 23 23" fill="none" xmlns="http://www.w3.org/2000/svg">
<path d="M11.2371 10.9872C12.1761 10.9872 13.0767 10.6142 13.7408 9.95017C14.4048 9.28615 14.7778 8.38555 14.7778 7.44649C14.7778 6.50743 14.4048 5.60683 13.7408 4.94282C13.0767 4.2788 12.1761 3.90576 11.2371 3.90576C10.298 3.90576 9.39742 4.2788 8.73341 4.94282C8.06939 5.60683 7.69635 6.50743 7.69635 7.44649C7.69635 8.38555 8.06939 9.28615 8.73341 9.95017C9.39742 10.6142 10.298 10.9872 11.2371 10.9872ZM11.2371 12.5429C6.52945 12.5429 3.5116 15.1407 3.5116 16.4056V18.7675H18.9626V16.4056C18.9626 14.8759 16.1055 12.5429 11.2371 12.5429Z" fill="#282828"/>
</svg>
