<svg width="24" height="23" viewBox="0 0 24 23" fill="none" xmlns="http://www.w3.org/2000/svg">
<g clip-path="url(#clip0_33_188)">
<path d="M22.3868 9.39968H22.2932C21.8624 7.26464 19.9709 5.65399 17.7047 5.65399C16.4593 5.65399 15.3356 6.14093 14.4928 6.92753C13.753 6.71215 12.9383 6.59041 12.0862 6.59041C11.234 6.59041 10.4194 6.70278 9.67958 6.92753C8.8368 6.14093 7.7131 5.65399 6.46766 5.65399C4.20151 5.65399 2.30994 7.26464 1.87919 9.39968H1.78554C1.27051 9.39968 0.849121 9.82107 0.849121 10.3361C0.849121 10.8511 1.27051 11.2725 1.78554 11.2725H1.87919C2.30994 13.4076 4.20151 15.0182 6.46766 15.0182C9.05218 15.0182 11.1498 12.9206 11.1498 10.3361C11.1498 9.71806 11.028 9.12812 10.8127 8.58499C11.2153 8.51008 11.6367 8.46326 12.0862 8.46326C12.5357 8.46326 12.9664 8.50072 13.3597 8.58499C13.1443 9.12812 13.0226 9.71806 13.0226 10.3361C13.0226 12.9206 15.1202 15.0182 17.7047 15.0182C19.9709 15.0182 21.8624 13.4076 22.2932 11.2725H22.3868C22.9019 11.2725 23.3233 10.8511 23.3233 10.3361C23.3233 9.82107 22.9019 9.39968 22.3868 9.39968ZM6.46766 13.1454C4.92256 13.1454 3.65839 11.8812 3.65839 10.3361C3.65839 8.79101 4.92256 7.52684 6.46766 7.52684C8.01275 7.52684 9.27692 8.79101 9.27692 10.3361C9.27692 11.8812 8.01275 13.1454 6.46766 13.1454ZM17.7047 13.1454C16.1596 13.1454 14.8955 11.8812 14.8955 10.3361C14.8955 8.79101 16.1596 7.52684 17.7047 7.52684C19.2498 7.52684 20.514 8.79101 20.514 10.3361C20.514 11.8812 19.2498 13.1454 17.7047 13.1454Z" fill="#282828"/>
</g>
<defs>
<clipPath id="clip0_33_188">
<rect width="22.4741" height="22.4741" fill="white" transform="translate(0.849121 0.0354614)"/>
</clipPath>
</defs>
</svg>
