<svg width="20" height="20" fill="none" xmlns="http://www.w3.org/2000/svg"><path d="M18.267 13.957c-.275 2.217-2.091 4.034-4.308 4.308a4.948 4.948 0 01-3.567-.916c-.558-.409-.425-1.275.242-1.475a7.905 7.905 0 005.25-5.25c.2-.659 1.067-.792 1.475-.242a5.016 5.016 0 01.908 3.575z" fill="#8B95AD"/><path d="M8.324 1.667a6.661 6.661 0 00-6.658 6.658 6.661 6.661 0 006.658 6.658 6.661 6.661 0 006.659-6.658c-.009-3.675-2.984-6.658-6.659-6.658zm-.783 5.725l2.008.7c.725.258 1.075.766 1.075 1.55 0 .9-.716 1.641-1.591 1.641h-.075v.042a.63.63 0 01-.625.625.63.63 0 01-.625-.625v-.05c-.925-.042-1.667-.817-1.667-1.783a.63.63 0 01.625-.625.63.63 0 01.625.625c0 .3.217.541.483.541h1.25c.192 0 .342-.175.342-.391 0-.292-.05-.309-.242-.375l-2.008-.7c-.717-.25-1.075-.759-1.075-1.55 0-.9.717-1.642 1.592-1.642h.075v-.033a.63.63 0 01.625-.625.63.63 0 01.625.625v.05c.925.041 1.666.816 1.666 1.783A.63.63 0 0110 7.8a.63.63 0 01-.625-.625c0-.3-.216-.542-.483-.542h-1.25c-.192 0-.342.175-.342.392-.008.283.042.3.242.367z" fill="#8B95AD"/></svg>