<svg width="418" height="419" fill="none" xmlns="http://www.w3.org/2000/svg"><path d="M187.833 218.996h24.541a96.618 96.618 0 01-40.756 59.666l-13.204-19.771a72.826 72.826 0 0029.419-39.895zm87.763-25.966a2.177 2.177 0 01.678 1.601v15.239a2.756 2.756 0 01-1.581 2.558c-2.673 1.167-2.408 4.919.319 9.078l9.831 15.036a5.505 5.505 0 01.786 4.15 5.517 5.517 0 01-2.38 3.489l-2.096 1.357a8.87 8.87 0 01-6.684 1.264 8.887 8.887 0 01-5.617-3.835l-10.422-15.938a5.919 5.919 0 00-4.953-2.714h-22.22a7.144 7.144 0 01-7.145-7.144v-9.031h-41.55l-.001-26.353 27.065.001v3.236h57.671s6.134 6.039 8.298 8.006h.001zm-24.426 22.791a5.573 5.573 0 00-1.636-3.949 5.581 5.581 0 00-3.948-1.636h-8.746a5.581 5.581 0 00-5.159 3.448 5.592 5.592 0 00-.425 2.137l.001 1.309a5.58 5.58 0 003.447 5.159 5.573 5.573 0 002.137.425h8.772a5.585 5.585 0 005.557-5.584v-1.309zm106.855 24.757c.62.224 1.274.339 1.934.34h4.2a2.89 2.89 0 002.89-2.89v-34.875a4.563 4.563 0 00-4.349-4.559l-54.32-2.585h-.298a6.297 6.297 0 00-2.945.732l-1.92 1.011a6.402 6.402 0 01-4.214.624l-11.873-2.313v19.066l70.895 25.449zM90.613 195.622a2.715 2.715 0 012.713-2.713h12.824v-3.576H89.065l-2.605 4.62a8.733 8.733 0 01-7.626 4.431H57.326l-4.451-11.887a3.92 3.92 0 00-3.67-2.544l-.625-.001c-2.219 0-4.288 1.798-4.288 4.017v12.504H38.92v5.232h5.38v2.442h61.851v-9.811H93.326a2.714 2.714 0 01-2.713-2.714zm26.393-6.432l-.001 15.165a4.151 4.151 0 003.793 4.138l46.382 4.03a4.155 4.155 0 004.161-2.466 4.148 4.148 0 00.351-1.672v-19.208a4.15 4.15 0 00-4.153-4.152l-46.381-.001a4.148 4.148 0 00-3.837 2.564 4.16 4.16 0 00-.316 1.589l.001.013z" fill="#313754"/></svg>