<svg width="18" height="22" fill="none" xmlns="http://www.w3.org/2000/svg"><path d="M15.356 4.645a8.96 8.96 0 00-4.403-2.419L11.07 0 6.677 2.315l-1.173.62-.218.115.347.186 1.64.882 3.482 1.874.097-1.842a7.069 7.069 0 013.164 1.832A7.064 7.064 0 0116.094 11a7.062 7.062 0 01-.584 2.823l1.735.753A8.948 8.948 0 0017.986 11a8.953 8.953 0 00-2.63-6.355zM10.73 17.881l-3.485-1.873-.098 1.842a7.056 7.056 0 01-3.163-1.833A7.064 7.064 0 011.906 11c0-1.006.208-1.956.583-2.823L.755 7.424A8.972 8.972 0 00.014 11a8.963 8.963 0 002.63 6.355 8.927 8.927 0 004.402 2.415L6.93 22l4.39-2.315 1.18-.621.214-.114-.343-.186-1.64-.883z" fill="#808495"/></svg>