<svg width="23" height="23" viewBox="0 0 23 23" fill="none" xmlns="http://www.w3.org/2000/svg">
<path d="M11.5 11.1427C12.461 11.1427 13.3827 10.7609 14.0623 10.0813C14.7418 9.40179 15.1236 8.48012 15.1236 7.51909C15.1236 6.55805 14.7418 5.63638 14.0623 4.95683C13.3827 4.27728 12.461 3.89551 11.5 3.89551C10.539 3.89551 9.6173 4.27728 8.93774 4.95683C8.25819 5.63638 7.87642 6.55805 7.87642 7.51909C7.87642 8.48012 8.25819 9.40179 8.93774 10.0813C9.6173 10.7609 10.539 11.1427 11.5 11.1427ZM11.5 12.7347C6.68222 12.7347 3.59375 15.3934 3.59375 16.6878V19.105H19.4062V16.6878C19.4062 15.1224 16.4824 12.7347 11.5 12.7347Z" fill="#E20000"/>
</svg>
