<svg width="12" height="12" viewBox="0 0 12 12" fill="none" xmlns="http://www.w3.org/2000/svg">
<path d="M4.28079 2.04502C5.0388 0.681675 5.41784 0 5.9845 0C6.55115 0 6.93012 0.681675 7.68813 2.04502L7.88427 2.39774C8.09963 2.78516 8.20736 2.97887 8.37529 3.10669C8.54323 3.2345 8.75239 3.28194 9.17071 3.37683L9.55147 3.46322C11.0235 3.79713 11.7595 3.96409 11.9346 4.52865C12.1097 5.09318 11.608 5.68147 10.6044 6.85792L10.3448 7.16235C10.0596 7.49662 9.91704 7.6638 9.85294 7.87065C9.78875 8.07742 9.8103 8.30047 9.85346 8.7465L9.89266 9.15263C10.0444 10.7224 10.1203 11.5073 9.66181 11.8562C9.2034 12.2051 8.51428 11.8869 7.13606 11.2507L6.77953 11.0861C6.38785 10.9053 6.19208 10.8149 5.9845 10.8149C5.77691 10.8149 5.58107 10.9053 5.18946 11.0861L4.83286 11.2507C3.45464 11.8869 2.76553 12.2051 2.30711 11.8562C1.84867 11.5073 1.92453 10.7224 2.07625 9.15263L2.1155 8.7465C2.15862 8.30047 2.18017 8.07742 2.11603 7.87065C2.05188 7.6638 1.9093 7.49662 1.62414 7.16235L1.36452 6.85792C0.361017 5.68147 -0.140737 5.09318 0.0343616 4.52865C0.209467 3.96409 0.94546 3.79713 2.41745 3.46322L2.79828 3.37683C3.21653 3.28194 3.42569 3.2345 3.59363 3.10669C3.76157 2.97887 3.86929 2.78516 4.08465 2.39774L4.28079 2.04502Z" fill="#F0F442"/>
</svg>
