<svg width="23" height="23" fill="none" xmlns="http://www.w3.org/2000/svg"><path d="M11.5 21.084a9.584 9.584 0 100-19.168 9.584 9.584 0 000 19.168zm0-1.917a1.437 1.437 0 110-2.874 1.437 1.437 0 010 2.874zM7.667 8.62a3.744 3.744 0 012.222-3.494 3.892 3.892 0 013.727.303 3.833 3.833 0 01.282 6.187 3.807 3.807 0 00-1.352 2.026.958.958 0 11-1.864-.45 5.663 5.663 0 012.013-3.067 1.917 1.917 0 00-.14-3.095 1.974 1.974 0 00-1.922-.134A1.856 1.856 0 009.579 8.62a.958.958 0 01-1.912.004V8.62z" fill="#4C5269"/></svg>