<svg width="23" height="23" viewBox="0 0 23 23" fill="none" xmlns="http://www.w3.org/2000/svg">
<path d="M11.5 21.0837C13.3954 21.0837 15.2482 20.5216 16.8242 19.4686C18.4002 18.4155 19.6285 16.9188 20.3538 15.1677C21.0792 13.4166 21.269 11.4897 20.8992 9.63071C20.5294 7.77173 19.6167 6.06414 18.2764 4.72389C16.9362 3.38364 15.2286 2.47091 13.3696 2.10114C11.5106 1.73136 9.58374 1.92114 7.83262 2.64648C6.08149 3.37182 4.58478 4.60014 3.53175 6.17612C2.47872 7.75209 1.91667 9.60493 1.91667 11.5003C1.91667 14.042 2.92634 16.4795 4.72356 18.2768C5.61346 19.1667 6.66991 19.8726 7.83262 20.3542C8.99532 20.8358 10.2415 21.0837 11.5 21.0837ZM11.5 19.167C11.2157 19.167 10.9378 19.0827 10.7014 18.9247C10.465 18.7668 10.2807 18.5423 10.1719 18.2796C10.0631 18.0169 10.0347 17.7279 10.0901 17.4491C10.1456 17.1702 10.2825 16.9141 10.4835 16.713C10.6846 16.512 10.9407 16.3751 11.2196 16.3196C11.4984 16.2642 11.7874 16.2926 12.0501 16.4014C12.3128 16.5102 12.5373 16.6945 12.6952 16.9309C12.8532 17.1673 12.9375 17.4452 12.9375 17.7295C12.9375 18.1107 12.7861 18.4764 12.5165 18.746C12.2469 19.0155 11.8812 19.167 11.5 19.167ZM7.66667 8.61958C7.65254 7.88331 7.85584 7.15922 8.25113 6.53791C8.64642 5.91659 9.21615 5.42563 9.88904 5.12645C10.4857 4.85996 11.1399 4.74802 11.7913 4.80094C12.4426 4.85387 13.0702 5.06996 13.616 5.42929C14.1193 5.76253 14.5368 6.20992 14.8345 6.73504C15.1322 7.26016 15.3017 7.84817 15.3292 8.45119C15.3566 9.0542 15.2413 9.65518 14.9926 10.2052C14.7438 10.7552 14.3687 11.2387 13.8978 11.6163C13.2373 12.1253 12.7622 12.837 12.5455 13.6422C12.4858 13.8893 12.3304 14.1025 12.1135 14.2349C11.8965 14.3674 11.6359 14.4082 11.3888 14.3485C11.1418 14.2888 10.9286 14.1333 10.7961 13.9164C10.6637 13.6995 10.6228 13.4388 10.6825 13.1918C10.9945 11.9746 11.7025 10.8957 12.695 10.1251C12.9309 9.93643 13.1189 9.69464 13.2436 9.41949C13.3683 9.14433 13.4262 8.8436 13.4125 8.54182C13.3989 8.24004 13.3141 7.94576 13.1651 7.68297C13.0161 7.42019 12.8071 7.19635 12.5551 7.0297C12.2729 6.84494 11.9479 6.7356 11.6114 6.71212C11.2749 6.68863 10.9379 6.75178 10.6327 6.89554C10.3091 7.05044 10.0373 7.2958 9.8502 7.60195C9.66312 7.90809 9.56876 8.26189 9.57854 8.62054C9.56203 8.86242 9.45444 9.08906 9.27747 9.25478C9.10049 9.4205 8.86729 9.51298 8.62484 9.51358C8.38239 9.51419 8.14872 9.42288 7.97092 9.25805C7.79312 9.09323 7.6844 8.86713 7.66667 8.62533V8.61958Z" fill="#4C5269"/>
</svg>
