<svg width="23" height="23" viewBox="0 0 23 23" fill="none" xmlns="http://www.w3.org/2000/svg">
<path d="M18.6875 21.5628H4.3125C4.3125 21.5628 2.875 21.5149 2.875 17.7295H20.125C20.125 21.5149 18.6875 21.5628 18.6875 21.5628Z" fill="#3F435A"/>
<path d="M3.83333 1.4375H19.1667V17.7292H3.83333V1.4375Z" fill="#4C5269"/>
<path d="M8.625 7.1875H16.2917V8.14583H8.625V7.1875ZM8.625 9.10417H16.2917V10.0625H8.625V9.10417ZM8.625 11.0208H16.2917V11.9792H8.625V11.0208ZM8.625 12.9375H16.2917V13.8958H8.625V12.9375ZM8.625 14.8542H16.2917V15.8125H8.625V14.8542Z" fill="#111730"/>
<path d="M6.70833 7.1875H7.66666V8.14583H6.70833V7.1875ZM6.70833 9.10417H7.66666V10.0625H6.70833V9.10417ZM6.70833 11.0208H7.66666V11.9792H6.70833V11.0208ZM6.70833 12.9375H7.66666V13.8958H6.70833V12.9375ZM6.70833 14.8542H7.66666V15.8125H6.70833V14.8542Z" fill="#111730"/>
</svg>
