<svg width="15" height="9" viewBox="0 0 15 9" fill="none" xmlns="http://www.w3.org/2000/svg">
<path d="M9.1272 4.3672C8.86157 4.26732 8.86157 3.88589 8.84511 3.62026C8.7787 2.6741 9.11073 1.22964 8.71229 0.615511C8.4302 0.250011 7.06861 0.28348 6.23879 0.333417C6.00611 0.366886 5.72401 0.416293 5.52479 0.516168C5.32557 0.616043 5.12635 0.781792 5.12635 0.931074C5.12635 1.14676 5.62467 1.11382 5.80689 1.39592C6.0061 1.69501 6.0061 2.34207 6.0061 2.87332C6.0061 3.48745 5.90623 4.30132 5.65761 4.33426C5.27564 4.35073 5.05995 3.96876 4.86073 3.68667C4.46229 3.13895 4.06385 2.45789 3.76476 1.79382C3.61548 1.44532 3.53207 1.06336 3.31639 0.914074C2.98435 0.681386 2.3867 0.664918 1.80551 0.681386C1.27426 0.697855 0.510323 0.631449 0.361042 0.947012C0.244698 1.29551 0.493855 1.62754 0.626667 1.91017C1.3072 3.38757 2.03767 4.68276 2.93442 5.91101C3.76476 7.05639 4.54464 7.9696 6.07198 8.45092C6.50389 8.58373 8.3962 8.9657 8.77817 8.45092C8.91098 8.2517 8.87804 7.80332 8.94445 7.47129C9.01086 7.13926 9.09373 6.80723 9.40929 6.79076C9.67492 6.77429 9.8242 7.00645 9.99048 7.17273C10.1732 7.35548 10.3225 7.50476 10.4553 7.67104C10.7709 7.9866 11.1029 8.41798 11.5014 8.58426C12.0491 8.81695 12.8959 8.75054 13.6928 8.71707C14.3404 8.7006 14.8052 8.56779 14.8551 8.18582C14.8886 7.88673 14.556 7.45535 14.3568 7.2062C13.8585 6.59207 13.6264 6.40932 13.0616 5.8446C12.8125 5.59545 12.4969 5.32982 12.4969 5.03126C12.4804 4.84851 12.6297 4.68276 12.7625 4.50001C13.3437 3.63673 13.9249 3.02261 14.4562 2.12586C14.6054 1.86023 14.9545 1.24611 14.8217 0.947012C14.6724 0.61498 13.842 0.714324 13.3273 0.714324C12.6632 0.714324 11.7999 0.664386 11.6336 0.797199C11.3181 1.01289 11.1853 1.36192 11.036 1.69395C10.7039 2.45789 10.2556 3.23776 9.79073 3.81895C9.62445 4.01817 9.30942 4.43307 9.12667 4.36667L9.1272 4.3672Z" fill="#67718E"/>
</svg>
