<svg width="450" height="340" viewBox="0 0 450 340" fill="none" xmlns="http://www.w3.org/2000/svg">
<mask id="mask0_2167_359" style="mask-type:alpha" maskUnits="userSpaceOnUse" x="0" y="0" width="450" height="340">
<rect width="450" height="340" fill="#292933"/>
</mask>
<g mask="url(#mask0_2167_359)">
<mask id="mask1_2167_359" style="mask-type:alpha" maskUnits="userSpaceOnUse" x="-10" y="-115" width="470" height="570">
<rect x="-10" y="-115" width="470" height="570" fill="#FF5B17"/>
</mask>
<g mask="url(#mask1_2167_359)">
<rect x="383.384" y="-473.756" width="3" height="960" transform="rotate(60 383.384 -473.756)" fill="#FF5B17"/>
<rect x="393.384" y="-456.436" width="3" height="960" transform="rotate(60 393.384 -456.436)" fill="#FF5B17"/>
<rect x="403.384" y="-439.115" width="3" height="960" transform="rotate(60 403.384 -439.115)" fill="#FF5B17"/>
<rect x="413.384" y="-421.795" width="3" height="960" transform="rotate(60 413.384 -421.795)" fill="#FF5B17"/>
<rect x="423.384" y="-404.475" width="3" height="960" transform="rotate(60 423.384 -404.475)" fill="#FF5B17"/>
<rect x="433.384" y="-387.154" width="3" height="960" transform="rotate(60 433.384 -387.154)" fill="#FF5B17"/>
<rect x="443.384" y="-369.833" width="3" height="960" transform="rotate(60 443.384 -369.833)" fill="#FF5B17"/>
<rect x="453.384" y="-352.513" width="3" height="960" transform="rotate(60 453.384 -352.513)" fill="#FF5B17"/>
<rect x="463.384" y="-335.192" width="3" height="960" transform="rotate(60 463.384 -335.192)" fill="#FF5B17"/>
<rect x="473.384" y="-317.872" width="3" height="960" transform="rotate(60 473.384 -317.872)" fill="#FF5B17"/>
<rect x="483.384" y="-300.551" width="3" height="960" transform="rotate(60 483.384 -300.551)" fill="#FF5B17"/>
<rect x="493.384" y="-283.231" width="3" height="960" transform="rotate(60 493.384 -283.231)" fill="#FF5B17"/>
<rect x="503.384" y="-265.91" width="3" height="960" transform="rotate(60 503.384 -265.91)" fill="#FF5B17"/>
<rect x="513.384" y="-248.59" width="3" height="960" transform="rotate(60 513.384 -248.59)" fill="#FF5B17"/>
<rect x="523.384" y="-231.27" width="3" height="960" transform="rotate(60 523.384 -231.27)" fill="#FF5B17"/>
<rect x="533.384" y="-213.949" width="3" height="960" transform="rotate(60 533.384 -213.949)" fill="#FF5B17"/>
<rect x="543.384" y="-196.628" width="3" height="960" transform="rotate(60 543.384 -196.628)" fill="#FF5B17"/>
<rect x="553.384" y="-179.308" width="3" height="960" transform="rotate(60 553.384 -179.308)" fill="#FF5B17"/>
<rect x="563.384" y="-161.987" width="3" height="960" transform="rotate(60 563.384 -161.987)" fill="#FF5B17"/>
<rect x="573.384" y="-144.667" width="3" height="960" transform="rotate(60 573.384 -144.667)" fill="#FF5B17"/>
<rect x="583.384" y="-127.346" width="3" height="960" transform="rotate(60 583.384 -127.346)" fill="#FF5B17"/>
<rect x="593.384" y="-110.026" width="3" height="960" transform="rotate(60 593.384 -110.026)" fill="#FF5B17"/>
<rect x="603.384" y="-92.7051" width="3" height="960" transform="rotate(60 603.384 -92.7051)" fill="#FF5B17"/>
<rect x="613.384" y="-75.3848" width="3" height="960" transform="rotate(60 613.384 -75.3848)" fill="#FF5B17"/>
<rect x="623.384" y="-58.0645" width="3" height="960" transform="rotate(60 623.384 -58.0645)" fill="#FF5B17"/>
<rect x="633.384" y="-40.7432" width="3" height="960" transform="rotate(60 633.384 -40.7432)" fill="#FF5B17"/>
<rect x="643.384" y="-23.4229" width="3" height="960" transform="rotate(60 643.384 -23.4229)" fill="#FF5B17"/>
<rect x="653.384" y="-6.10254" width="3" height="960" transform="rotate(60 653.384 -6.10254)" fill="#FF5B17"/>
<rect x="663.384" y="11.2178" width="3" height="960" transform="rotate(60 663.384 11.2178)" fill="#FF5B17"/>
<rect x="673.384" y="28.5381" width="3" height="960" transform="rotate(60 673.384 28.5381)" fill="#FF5B17"/>
<rect x="683.384" y="45.8594" width="3" height="960" transform="rotate(60 683.384 45.8594)" fill="#FF5B17"/>
<rect x="693.384" y="63.1797" width="3" height="960" transform="rotate(60 693.384 63.1797)" fill="#FF5B17"/>
<rect x="703.384" y="80.5" width="3" height="960" transform="rotate(60 703.384 80.5)" fill="#FF5B17"/>
<rect x="713.384" y="97.8203" width="3" height="960" transform="rotate(60 713.384 97.8203)" fill="#FF5B17"/>
<rect x="723.384" y="115.141" width="3" height="960" transform="rotate(60 723.384 115.141)" fill="#FF5B17"/>
<rect x="733.384" y="132.461" width="3" height="960" transform="rotate(60 733.384 132.461)" fill="#FF5B17"/>
<rect x="743.384" y="149.782" width="3" height="960" transform="rotate(60 743.384 149.782)" fill="#FF5B17"/>
<rect x="753.384" y="167.103" width="3" height="960" transform="rotate(60 753.384 167.103)" fill="#FF5B17"/>
<rect x="763.384" y="184.423" width="3" height="960" transform="rotate(60 763.384 184.423)" fill="#FF5B17"/>
<rect x="773.384" y="201.744" width="3" height="960" transform="rotate(60 773.384 201.744)" fill="#FF5B17"/>
<rect x="783.384" y="219.063" width="3" height="960" transform="rotate(60 783.384 219.063)" fill="#FF5B17"/>
<rect x="793.384" y="236.385" width="3" height="960" transform="rotate(60 793.384 236.385)" fill="#FF5B17"/>
<rect x="803.384" y="253.705" width="3" height="960" transform="rotate(60 803.384 253.705)" fill="#FF5B17"/>
<rect x="813.384" y="271.025" width="3" height="960" transform="rotate(60 813.384 271.025)" fill="#FF5B17"/>
<rect x="823.384" y="288.347" width="3" height="960" transform="rotate(60 823.384 288.347)" fill="#FF5B17"/>
<rect x="833.384" y="305.666" width="3" height="960" transform="rotate(60 833.384 305.666)" fill="#FF5B17"/>
<rect x="843.381" y="322.987" width="3" height="960" transform="rotate(60 843.381 322.987)" fill="#FF5B17"/>
</g>
</g>
</svg>
